  0
SECTION
  2
HEADER
  9
$ACADVER
  1
AC1014
  9
$HANDSEED
  5
FFFF
  9
$MEASUREMENT
 70
     1
  0
ENDSEC
  0
SECTION
  2
TABLES
  0
TABLE
  2
VPORT
  5
8
330
0
100
AcDbSymbolTable
 70
     4
  0
VPORT
  5
2E
330
8
100
AcDbSymbolTableRecord
100
AcDbViewportTableRecord
  2
*ACTIVE
 70
     0
 10
0.0
 20
0.0
 11
1.0
 21
1.0
 12
210.0
 22
148.5
 13
0.0
 23
0.0
 14
10.0
 24
10.0
 15
10.0
 25
10.0
 16
0.0
 26
0.0
 36
1.0
 17
0.0
 27
0.0
 37
0.0
 40
341.0
 41
1.24
 42
50.0
 43
0.0
 44
0.0
 50
0.0
 51
0.0
 71
     0
 72
   100
 73
     1
 74
     3
 75
     0
 76
     0
 77
     0
 78
     0
  0
ENDTAB
  0
TABLE
  2
LTYPE
  5
5
330
0
100
AcDbSymbolTable
 70
     1
  0
LTYPE
  5
14
330
5
100
AcDbSymbolTableRecord
100
AcDbLinetypeTableRecord
  2
BYBLOCK
 70
     0
  3

 72
    65
 73
     0
 40
0.0
  0
LTYPE
  5
15
330
5
100
AcDbSymbolTableRecord
100
AcDbLinetypeTableRecord
  2
BYLAYER
 70
     0
  3

 72
    65
 73
     0
 40
0.0
  0
LTYPE
  5
16
330
5
100
AcDbSymbolTableRecord
100
AcDbLinetypeTableRecord
  2
CONTINUOUS
 70
     0
  3
Solid line
 72
    65
 73
     0
 40
0.0
  0
ENDTAB
  0
TABLE
  2
LAYER
  5
2
100
AcDbSymbolTable
 70
2
  0
LAYER
  5
50
100
AcDbSymbolTableRecord
100
AcDbLayerTableRecord
  2
0
 70
0
  6
CONTINUOUS
  0
LAYER
  5
51
100
AcDbSymbolTableRecord
100
AcDbLayerTableRecord
  2
Capa_1
 70
0
  6
CONTINUOUS
  0
ENDTAB
  0
TABLE
  2
STYLE
  5
3
330
0
100
AcDbSymbolTable
 70
     1
  0
STYLE
  5
11
330
3
100
AcDbSymbolTableRecord
100
AcDbTextStyleTableRecord
  2
STANDARD
 70
     0
 40
0.0
 41
1.0
 50
0.0
 71
     0
 42
2.5
  3
txt
  4

  0
ENDTAB
  0
TABLE
  2
VIEW
  5
6
330
0
100
AcDbSymbolTable
 70
     0
  0
ENDTAB
  0
TABLE
  2
UCS
  5
7
330
0
100
AcDbSymbolTable
 70
     0
  0
ENDTAB
  0
TABLE
  2
APPID
  5
9
330
0
100
AcDbSymbolTable
 70
     2
  0
APPID
  5
12
330
9
100
AcDbSymbolTableRecord
100
AcDbRegAppTableRecord
  2
ACAD
 70
     0
  0
ENDTAB
  0
TABLE
  2
DIMSTYLE
  5
A
330
0
100
AcDbSymbolTable
 70
     1
  0
DIMSTYLE
105
27
330
A
100
AcDbSymbolTableRecord
100
AcDbDimStyleTableRecord
  2
ISO-25
 70
     0
  3

  4

  5

  6

  7

 40
1.0
 41
2.5
 42
0.625
 43
3.75
 44
1.25
 45
0.0
 46
0.0
 47
0.0
 48
0.0
140
2.5
141
2.5
142
0.0
143
0.03937007874016
144
1.0
145
0.0
146
1.0
147
0.625
 71
     0
 72
     0
 73
     0
 74
     0
 75
     0
 76
     0
 77
     1
 78
     8
170
     0
171
     3
172
     1
173
     0
174
     0
175
     0
176
     0
177
     0
178
     0
270
     2
271
     2
272
     2
273
     2
274
     3
340
11
275
     0
280
     0
281
     0
282
     0
283
     0
284
     8
285
     0
286
     0
287
     3
288
     0
  0
ENDTAB
  0
TABLE
  2
BLOCK_RECORD
  5
1
330
0
100
AcDbSymbolTable
 70
     1
  0
BLOCK_RECORD
  5
1F
330
1
100
AcDbSymbolTableRecord
100
AcDbBlockTableRecord
  2
*MODEL_SPACE
  0
BLOCK_RECORD
  5
1B
330
1
100
AcDbSymbolTableRecord
100
AcDbBlockTableRecord
  2
*PAPER_SPACE
  0
ENDTAB
  0
ENDSEC
  0
SECTION
  2
BLOCKS
  0
BLOCK
  5
20
330
1F
100
AcDbEntity
  8
0
100
AcDbBlockBegin
  2
*MODEL_SPACE
 70
     0
 10
0.0
 20
0.0
 30
0.0
  3
*MODEL_SPACE
  1

  0
ENDBLK
  5
21
330
1F
100
AcDbEntity
  8
0
100
AcDbBlockEnd
  0
BLOCK
  5
1C
330
1B
100
AcDbEntity
 67
     1
  8
0
100
AcDbBlockBegin
  2
*PAPER_SPACE
  1

  0
ENDBLK
  5
1D
330
1B
100
AcDbEntity
 67
     1
  8
0
100
AcDbBlockEnd
  0
ENDSEC
  0
SECTION
  2
ENTITIES
  0
LINE
  5
100
100
AcDbEntity
  8
Capa_1
 62
7
100
AcDbLine
 10
0.000000
 20
2657.480269
 30
0.0
 11
0.000000
 21
2100.419722
 31
0.0
  0
LINE
  5
101
100
AcDbEntity
  8
Capa_1
 62
7
100
AcDbLine
 10
0.000000
 20
2100.419722
 30
0.0
 11
2657.480500
 21
2100.419722
 31
0.0
  0
LINE
  5
102
100
AcDbEntity
  8
Capa_1
 62
7
100
AcDbLine
 10
2657.480500
 20
2100.419722
 30
0.0
 11
2657.480500
 21
2657.480269
 31
0.0
  0
LINE
  5
103
100
AcDbEntity
  8
Capa_1
 62
7
100
AcDbLine
 10
2657.480500
 20
2657.480269
 30
0.0
 11
0.000000
 21
2657.480269
 31
0.0
  0
LINE
  5
104
100
AcDbEntity
  8
Capa_1
 62
7
100
AcDbLine
 10
0.000000
 20
2657.480269
 30
0.0
 11
0.000000
 21
2657.480269
 31
0.0
  0
LINE
  5
105
100
AcDbEntity
  8
Capa_1
 62
7
100
AcDbLine
 10
267.519530
 20
2400.589639
 30
0.0
 11
267.519530
 21
2098.478316
 31
0.0
  0
LINE
  5
106
100
AcDbEntity
  8
Capa_1
 62
7
100
AcDbLine
 10
267.519530
 20
2098.478316
 30
0.0
 11
799.015620
 21
2098.478316
 31
0.0
  0
LINE
  5
107
100
AcDbEntity
  8
Capa_1
 62
7
100
AcDbLine
 10
799.015620
 20
2098.478316
 30
0.0
 11
799.015620
 21
2400.589639
 31
0.0
  0
LINE
  5
108
100
AcDbEntity
  8
Capa_1
 62
7
100
AcDbLine
 10
799.015620
 20
2400.589639
 30
0.0
 11
267.519530
 21
2400.589639
 31
0.0
  0
LINE
  5
109
100
AcDbEntity
  8
Capa_1
 62
7
100
AcDbLine
 10
267.519530
 20
2400.589639
 30
0.0
 11
267.519530
 21
2400.589639
 31
0.0
  0
SPLINE
  5
10a
100
AcDbEntity
  8
Capa_1
 62
7
100
AcDbSpline
 70
0
 71
3
 72
13
 73
9
 74
7
 40
0.000000
 40
0.000000
 40
0.000000
 40
0.000000
 40
27.475681
 40
54.723988
 40
82.199669
 40
109.675351
 40
136.923657
 40
164.399338
 40
164.399338
 40
164.399338
 40
164.399338
 10
533.267580
 20
2239.800579
 30
0.0
 10
524.082255
 20
2239.100957
 30
0.0
 10
505.787618
 20
2237.707503
 30
0.0
 10
480.194199
 20
2226.694728
 30
0.0
 10
458.169406
 20
2209.939769
 30
0.0
 10
441.414445
 20
2187.914977
 30
0.0
 10
430.401669
 20
2162.321560
 30
0.0
 10
429.008213
 20
2144.026923
 30
0.0
 10
428.308590
 20
2134.841597
 30
0.0
 11
533.267580
 21
2239.800579
 31
0.0
 11
506.028208
 21
2236.204790
 31
0.0
 11
480.854017
 21
2225.777409
 31
0.0
 11
459.050141
 21
2209.059034
 31
0.0
 11
442.331764
 21
2187.255159
 31
0.0
 11
431.904381
 21
2162.080969
 31
0.0
 11
428.308590
 21
2134.841597
 31
0.0
  0
LINE
  5
10b
100
AcDbEntity
  8
Capa_1
 62
7
100
AcDbLine
 10
434.023440
 20
2101.079878
 30
0.0
 11
632.537110
 21
2101.079878
 31
0.0
  0
SPLINE
  5
10c
100
AcDbEntity
  8
Capa_1
 62
7
100
AcDbSpline
 70
0
 71
3
 72
10
 73
6
 74
4
 40
0.000000
 40
0.000000
 40
0.000000
 40
0.000000
 40
11.465195
 40
22.913391
 40
34.378586
 40
34.378586
 40
34.378586
 40
34.378586
 10
428.308590
 20
2134.841597
 30
0.0
 10
428.448445
 20
2131.019967
 30
0.0
 10
428.727948
 20
2123.382373
 30
0.0
 10
430.648086
 20
2112.038741
 30
0.0
 10
432.897766
 20
2104.734639
 30
0.0
 10
434.023440
 20
2101.079878
 30
0.0
 11
428.308590
 21
2134.841597
 31
0.0
 11
428.978595
 21
2123.395996
 31
0.0
 11
430.889253
 21
2112.108367
 31
0.0
 11
434.023440
 21
2101.079878
 31
0.0
  0
SPLINE
  5
10d
100
AcDbEntity
  8
Capa_1
 62
7
100
AcDbSpline
 70
0
 71
3
 72
10
 73
6
 74
4
 40
0.000000
 40
0.000000
 40
0.000000
 40
0.000000
 40
11.463766
 40
22.910539
 40
34.374305
 40
34.374305
 40
34.374305
 40
34.374305
 10
632.537110
 20
2101.079878
 30
0.0
 10
633.659911
 20
2104.735023
 30
0.0
 10
635.903848
 20
2112.039895
 30
0.0
 10
637.815448
 20
2123.383505
 30
0.0
 10
638.089455
 20
2131.020345
 30
0.0
 10
638.226560
 20
2134.841597
 30
0.0
 11
632.537110
 21
2101.079878
 31
0.0
 11
635.662689
 21
2112.109324
 31
0.0
 11
637.564854
 21
2123.396945
 31
0.0
 11
638.226560
 21
2134.841597
 31
0.0
  0
LINE
  5
10e
100
AcDbEntity
  8
Capa_1
 62
7
100
AcDbLine
 10
533.267580
 20
2239.800579
 30
0.0
 11
533.267580
 21
2239.800579
 31
0.0
  0
LINE
  5
10f
100
AcDbEntity
  8
Capa_1
 62
7
100
AcDbLine
 10
1068.306600
 20
2400.589639
 30
0.0
 11
1068.306600
 21
2101.079878
 31
0.0
  0
LINE
  5
110
100
AcDbEntity
  8
Capa_1
 62
7
100
AcDbLine
 10
1068.306600
 20
2101.079878
 30
0.0
 11
1599.802700
 21
2101.079878
 31
0.0
  0
LINE
  5
111
100
AcDbEntity
  8
Capa_1
 62
7
100
AcDbLine
 10
1599.802700
 20
2101.079878
 30
0.0
 11
1599.802700
 21
2400.589639
 31
0.0
  0
LINE
  5
112
100
AcDbEntity
  8
Capa_1
 62
7
100
AcDbLine
 10
1599.802700
 20
2400.589639
 30
0.0
 11
1068.306600
 21
2400.589639
 31
0.0
  0
LINE
  5
113
100
AcDbEntity
  8
Capa_1
 62
7
100
AcDbLine
 10
1068.306600
 20
2400.589639
 30
0.0
 11
1068.306600
 21
2400.589639
 31
0.0
  0
SPLINE
  5
114
100
AcDbEntity
  8
Capa_1
 62
7
100
AcDbSpline
 70
0
 71
3
 72
13
 73
9
 74
7
 40
0.000000
 40
0.000000
 40
0.000000
 40
0.000000
 40
27.475680
 40
54.723984
 40
82.199664
 40
109.675344
 40
136.923649
 40
164.399328
 40
164.399328
 40
164.399328
 40
164.399328
 10
638.226560
 20
2134.841597
 30
0.0
 10
637.526937
 20
2144.026922
 30
0.0
 10
636.133481
 20
2162.321558
 30
0.0
 10
625.120706
 20
2187.914974
 30
0.0
 10
608.365748
 20
2209.939766
 30
0.0
 10
586.340956
 20
2226.694725
 30
0.0
 10
560.747540
 20
2237.707500
 30
0.0
 10
542.452905
 20
2239.100956
 30
0.0
 10
533.267580
 20
2239.800579
 30
0.0
 11
638.226560
 21
2134.841597
 31
0.0
 11
634.630769
 21
2162.080967
 31
0.0
 11
624.203387
 21
2187.255157
 31
0.0
 11
607.485013
 21
2209.059031
 31
0.0
 11
585.681139
 21
2225.777406
 31
0.0
 11
560.506950
 21
2236.204788
 31
0.0
 11
533.267580
 21
2239.800579
 31
0.0
  0
SPLINE
  5
115
100
AcDbEntity
  8
Capa_1
 62
7
100
AcDbSpline
 70
0
 71
3
 72
10
 73
6
 74
4
 40
0.000000
 40
0.000000
 40
0.000000
 40
0.000000
 40
54.878214
 40
108.128763
 40
163.006977
 40
163.006977
 40
163.006977
 40
163.006977
 10
1334.054700
 20
2239.800579
 30
0.0
 10
1315.663393
 20
2236.913490
 30
0.0
 10
1279.426258
 20
2231.224941
 30
0.0
 10
1237.672307
 20
2189.470202
 30
0.0
 10
1231.984442
 20
2153.232959
 30
0.0
 10
1229.097700
 20
2134.841597
 30
0.0
 11
1334.054700
 21
2239.800579
 31
0.0
 11
1281.080577
 21
2225.470172
 31
0.0
 11
1243.427107
 21
2187.815991
 31
0.0
 11
1229.097700
 21
2134.841597
 31
0.0
  0
LINE
  5
116
100
AcDbEntity
  8
Capa_1
 62
7
100
AcDbLine
 10
1234.810500
 20
2101.079878
 30
0.0
 11
1433.324200
 21
2101.079878
 31
0.0
  0
SPLINE
  5
117
100
AcDbEntity
  8
Capa_1
 62
7
100
AcDbSpline
 70
0
 71
3
 72
10
 73
6
 74
4
 40
0.000000
 40
0.000000
 40
0.000000
 40
0.000000
 40
11.465079
 40
22.913160
 40
34.378239
 40
34.378239
 40
34.378239
 40
34.378239
 10
1229.097700
 20
2134.841597
 30
0.0
 10
1229.237333
 20
2131.019998
 30
0.0
 10
1229.516393
 20
2123.382465
 30
0.0
 10
1231.435842
 20
2112.038834
 30
0.0
 10
1233.685058
 20
2104.734670
 30
0.0
 10
1234.810500
 20
2101.079878
 30
0.0
 11
1229.097700
 21
2134.841597
 31
0.0
 11
1229.767035
 21
2123.396073
 31
0.0
 11
1231.677008
 21
2112.108444
 31
0.0
 11
1234.810500
 21
2101.079878
 31
0.0
  0
SPLINE
  5
118
100
AcDbEntity
  8
Capa_1
 62
7
100
AcDbSpline
 70
0
 71
3
 72
10
 73
6
 74
4
 40
0.000000
 40
0.000000
 40
0.000000
 40
0.000000
 40
11.463769
 40
22.910544
 40
34.374313
 40
34.374313
 40
34.374313
 40
34.374313
 10
1433.324200
 20
2101.079878
 30
0.0
 10
1434.447006
 20
2104.735022
 30
0.0
 10
1436.690955
 20
2112.039893
 30
0.0
 10
1438.602572
 20
2123.383503
 30
0.0
 10
1438.876589
 20
2131.020345
 30
0.0
 10
1439.013700
 20
2134.841597
 30
0.0
 11
1433.324200
 21
2101.079878
 31
0.0
 11
1436.449796
 21
2112.109322
 31
0.0
 11
1438.351978
 21
2123.396943
 31
0.0
 11
1439.013700
 21
2134.841597
 31
0.0
  0
LINE
  5
119
100
AcDbEntity
  8
Capa_1
 62
7
100
AcDbLine
 10
1334.054700
 20
2239.800579
 30
0.0
 11
1334.054700
 21
2239.800579
 31
0.0
  0
LINE
  5
11a
100
AcDbEntity
  8
Capa_1
 62
7
100
AcDbLine
 10
1869.093800
 20
2400.589639
 30
0.0
 11
1869.093800
 21
2101.079878
 31
0.0
  0
LINE
  5
11b
100
AcDbEntity
  8
Capa_1
 62
7
100
AcDbLine
 10
1869.093800
 20
2101.079878
 30
0.0
 11
2400.589800
 21
2101.079878
 31
0.0
  0
LINE
  5
11c
100
AcDbEntity
  8
Capa_1
 62
7
100
AcDbLine
 10
2400.589800
 20
2101.079878
 30
0.0
 11
2400.589800
 21
2400.589639
 31
0.0
  0
LINE
  5
11d
100
AcDbEntity
  8
Capa_1
 62
7
100
AcDbLine
 10
2400.589800
 20
2400.589639
 30
0.0
 11
1869.093800
 21
2400.589639
 31
0.0
  0
LINE
  5
11e
100
AcDbEntity
  8
Capa_1
 62
7
100
AcDbLine
 10
1869.093800
 20
2400.589639
 30
0.0
 11
1869.093800
 21
2400.589639
 31
0.0
  0
SPLINE
  5
11f
100
AcDbEntity
  8
Capa_1
 62
7
100
AcDbSpline
 70
0
 71
3
 72
13
 73
9
 74
7
 40
0.000000
 40
0.000000
 40
0.000000
 40
0.000000
 40
27.475683
 40
54.723991
 40
82.199674
 40
109.675357
 40
136.923665
 40
164.399348
 40
164.399348
 40
164.399348
 40
164.399348
 10
1439.013700
 20
2134.841597
 30
0.0
 10
1438.314077
 20
2144.026923
 30
0.0
 10
1436.920621
 20
2162.321561
 30
0.0
 10
1425.907843
 20
2187.914980
 30
0.0
 10
1409.152881
 20
2209.939773
 30
0.0
 10
1387.128085
 20
2226.694732
 30
0.0
 10
1361.534664
 20
2237.707505
 30
0.0
 10
1343.240026
 20
2239.100958
 30
0.0
 10
1334.054700
 20
2239.800579
 30
0.0
 11
1439.013700
 21
2134.841597
 31
0.0
 11
1435.417909
 21
2162.080971
 31
0.0
 11
1424.990524
 21
2187.255162
 31
0.0
 11
1408.272146
 21
2209.059038
 31
0.0
 11
1386.468267
 21
2225.777412
 31
0.0
 11
1361.294074
 21
2236.204793
 31
0.0
 11
1334.054700
 21
2239.800579
 31
0.0
  0
SPLINE
  5
120
100
AcDbEntity
  8
Capa_1
 62
7
100
AcDbSpline
 70
0
 71
3
 72
10
 73
6
 74
4
 40
0.000000
 40
0.000000
 40
0.000000
 40
0.000000
 40
54.878214
 40
108.128763
 40
163.006977
 40
163.006977
 40
163.006977
 40
163.006977
 10
2134.841800
 20
2239.800579
 30
0.0
 10
2116.450493
 20
2236.913490
 30
0.0
 10
2080.213358
 20
2231.224941
 30
0.0
 10
2038.459407
 20
2189.470202
 30
0.0
 10
2032.771542
 20
2153.232959
 30
0.0
 10
2029.884800
 20
2134.841597
 30
0.0
 11
2134.841800
 21
2239.800579
 31
0.0
 11
2081.867677
 21
2225.470172
 31
0.0
 11
2044.214207
 21
2187.815991
 31
0.0
 11
2029.884800
 21
2134.841597
 31
0.0
  0
SPLINE
  5
121
100
AcDbEntity
  8
Capa_1
 62
7
100
AcDbSpline
 70
0
 71
3
 72
16
 73
12
 74
10
 40
0.000000
 40
0.000000
 40
0.000000
 40
0.000000
 40
11.465085
 40
22.913171
 40
34.378256
 40
85.844745
 40
181.425367
 40
232.891856
 40
244.355625
 40
255.802401
 40
267.266169
 40
267.266169
 40
267.266169
 40
267.266169
 10
2029.884800
 20
2134.841597
 30
0.0
 10
2030.005618
 20
2130.995918
 30
0.0
 10
2030.247076
 20
2123.310262
 30
0.0
 10
2032.448556
 20
2112.327301
 30
0.0
 10
2037.428861
 20
2085.648268
 30
0.0
 10
2112.339051
 20
2111.026242
 30
0.0
 10
2157.362942
 20
2111.029557
 30
0.0
 10
2232.290387
 20
2085.644871
 30
0.0
 10
2237.252355
 20
2112.328369
 30
0.0
 10
2239.446159
 20
2123.311304
 30
0.0
 10
2239.682528
 20
2130.996266
 30
0.0
 10
2239.800800
 20
2134.841597
 30
0.0
 11
2029.884800
 21
2134.841597
 31
0.0
 11
2030.554168
 21
2123.396069
 31
0.0
 11
2032.464174
 21
2112.108441
 31
0.0
 11
2035.597700
 21
2101.079878
 31
0.0
 11
2087.064189
 21
2101.079878
 31
0.0
 11
2182.644811
 21
2101.079878
 31
0.0
 11
2234.111300
 21
2101.079878
 31
0.0
 11
2237.236896
 21
2112.109322
 31
0.0
 11
2239.139078
 21
2123.396943
 31
0.0
 11
2239.800800
 21
2134.841597
 31
0.0
  0
LINE
  5
122
100
AcDbEntity
  8
Capa_1
 62
7
100
AcDbLine
 10
2134.841800
 20
2239.800579
 30
0.0
 11
2134.841800
 21
2239.800579
 31
0.0
  0
SPLINE
  5
123
100
AcDbEntity
  8
Capa_1
 62
7
100
AcDbSpline
 70
0
 71
3
 72
13
 73
9
 74
7
 40
0.000000
 40
0.000000
 40
0.000000
 40
0.000000
 40
27.475683
 40
54.723991
 40
82.199674
 40
109.675357
 40
136.923665
 40
164.399348
 40
164.399348
 40
164.399348
 40
164.399348
 10
2239.800800
 20
2134.841597
 30
0.0
 10
2239.101177
 20
2144.026923
 30
0.0
 10
2237.707721
 20
2162.321561
 30
0.0
 10
2226.694943
 20
2187.914980
 30
0.0
 10
2209.939981
 20
2209.939773
 30
0.0
 10
2187.915185
 20
2226.694732
 30
0.0
 10
2162.321764
 20
2237.707505
 30
0.0
 10
2144.027126
 20
2239.100958
 30
0.0
 10
2134.841800
 20
2239.800579
 30
0.0
 11
2239.800800
 21
2134.841597
 31
0.0
 11
2236.205009
 21
2162.080971
 31
0.0
 11
2225.777624
 21
2187.255162
 31
0.0
 11
2209.059246
 21
2209.059038
 31
0.0
 11
2187.255367
 21
2225.777412
 31
0.0
 11
2162.081174
 21
2236.204793
 31
0.0
 11
2134.841800
 21
2239.800579
 31
0.0
  0
ENDSEC
  0
SECTION
  2
OBJECTS
  0
DICTIONARY
  5
C
330
0
100
AcDbDictionary
  3
ACAD_GROUP
350
D
  3
ACAD_MLINESTYLE
350
17
  0
DICTIONARY
  5
D
330
C
100
AcDbDictionary
  0
DICTIONARY
  5
1A
330
C
100
AcDbDictionary
  0
DICTIONARY
  5
17
330
C
100
AcDbDictionary
  3
STANDARD
350
18
  0
DICTIONARY
  5
19
330
C
100
AcDbDictionary
  0
ENDSEC
  0
EOF
