  0
SECTION
  2
HEADER
  9
$ACADVER
  1
AC1014
  9
$HANDSEED
  5
FFFF
  9
$MEASUREMENT
 70
     1
  0
ENDSEC
  0
SECTION
  2
TABLES
  0
TABLE
  2
VPORT
  5
8
330
0
100
AcDbSymbolTable
 70
     4
  0
VPORT
  5
2E
330
8
100
AcDbSymbolTableRecord
100
AcDbViewportTableRecord
  2
*ACTIVE
 70
     0
 10
0.0
 20
0.0
 11
1.0
 21
1.0
 12
210.0
 22
148.5
 13
0.0
 23
0.0
 14
10.0
 24
10.0
 15
10.0
 25
10.0
 16
0.0
 26
0.0
 36
1.0
 17
0.0
 27
0.0
 37
0.0
 40
341.0
 41
1.24
 42
50.0
 43
0.0
 44
0.0
 50
0.0
 51
0.0
 71
     0
 72
   100
 73
     1
 74
     3
 75
     0
 76
     0
 77
     0
 78
     0
  0
ENDTAB
  0
TABLE
  2
LTYPE
  5
5
330
0
100
AcDbSymbolTable
 70
     1
  0
LTYPE
  5
14
330
5
100
AcDbSymbolTableRecord
100
AcDbLinetypeTableRecord
  2
BYBLOCK
 70
     0
  3

 72
    65
 73
     0
 40
0.0
  0
LTYPE
  5
15
330
5
100
AcDbSymbolTableRecord
100
AcDbLinetypeTableRecord
  2
BYLAYER
 70
     0
  3

 72
    65
 73
     0
 40
0.0
  0
LTYPE
  5
16
330
5
100
AcDbSymbolTableRecord
100
AcDbLinetypeTableRecord
  2
CONTINUOUS
 70
     0
  3
Solid line
 72
    65
 73
     0
 40
0.0
  0
ENDTAB
  0
TABLE
  2
LAYER
  5
2
100
AcDbSymbolTable
 70
2
  0
LAYER
  5
50
100
AcDbSymbolTableRecord
100
AcDbLayerTableRecord
  2
0
 70
0
  6
CONTINUOUS
  0
LAYER
  5
51
100
AcDbSymbolTableRecord
100
AcDbLayerTableRecord
  2
Capa_1
 70
0
  6
CONTINUOUS
  0
ENDTAB
  0
TABLE
  2
STYLE
  5
3
330
0
100
AcDbSymbolTable
 70
     1
  0
STYLE
  5
11
330
3
100
AcDbSymbolTableRecord
100
AcDbTextStyleTableRecord
  2
STANDARD
 70
     0
 40
0.0
 41
1.0
 50
0.0
 71
     0
 42
2.5
  3
txt
  4

  0
ENDTAB
  0
TABLE
  2
VIEW
  5
6
330
0
100
AcDbSymbolTable
 70
     0
  0
ENDTAB
  0
TABLE
  2
UCS
  5
7
330
0
100
AcDbSymbolTable
 70
     0
  0
ENDTAB
  0
TABLE
  2
APPID
  5
9
330
0
100
AcDbSymbolTable
 70
     2
  0
APPID
  5
12
330
9
100
AcDbSymbolTableRecord
100
AcDbRegAppTableRecord
  2
ACAD
 70
     0
  0
ENDTAB
  0
TABLE
  2
DIMSTYLE
  5
A
330
0
100
AcDbSymbolTable
 70
     1
  0
DIMSTYLE
105
27
330
A
100
AcDbSymbolTableRecord
100
AcDbDimStyleTableRecord
  2
ISO-25
 70
     0
  3

  4

  5

  6

  7

 40
1.0
 41
2.5
 42
0.625
 43
3.75
 44
1.25
 45
0.0
 46
0.0
 47
0.0
 48
0.0
140
2.5
141
2.5
142
0.0
143
0.03937007874016
144
1.0
145
0.0
146
1.0
147
0.625
 71
     0
 72
     0
 73
     0
 74
     0
 75
     0
 76
     0
 77
     1
 78
     8
170
     0
171
     3
172
     1
173
     0
174
     0
175
     0
176
     0
177
     0
178
     0
270
     2
271
     2
272
     2
273
     2
274
     3
340
11
275
     0
280
     0
281
     0
282
     0
283
     0
284
     8
285
     0
286
     0
287
     3
288
     0
  0
ENDTAB
  0
TABLE
  2
BLOCK_RECORD
  5
1
330
0
100
AcDbSymbolTable
 70
     1
  0
BLOCK_RECORD
  5
1F
330
1
100
AcDbSymbolTableRecord
100
AcDbBlockTableRecord
  2
*MODEL_SPACE
  0
BLOCK_RECORD
  5
1B
330
1
100
AcDbSymbolTableRecord
100
AcDbBlockTableRecord
  2
*PAPER_SPACE
  0
ENDTAB
  0
ENDSEC
  0
SECTION
  2
BLOCKS
  0
BLOCK
  5
20
330
1F
100
AcDbEntity
  8
0
100
AcDbBlockBegin
  2
*MODEL_SPACE
 70
     0
 10
0.0
 20
0.0
 30
0.0
  3
*MODEL_SPACE
  1

  0
ENDBLK
  5
21
330
1F
100
AcDbEntity
  8
0
100
AcDbBlockEnd
  0
BLOCK
  5
1C
330
1B
100
AcDbEntity
 67
     1
  8
0
100
AcDbBlockBegin
  2
*PAPER_SPACE
  1

  0
ENDBLK
  5
1D
330
1B
100
AcDbEntity
 67
     1
  8
0
100
AcDbBlockEnd
  0
ENDSEC
  0
SECTION
  2
ENTITIES
  0
LINE
  5
100
100
AcDbEntity
  8
Capa_1
 62
7
100
AcDbLine
 10
0.000000
 20
603.000243
 30
0.0
 11
0.000000
 21
-0.000054
 31
0.0
  0
LINE
  5
101
100
AcDbEntity
  8
Capa_1
 62
7
100
AcDbLine
 10
0.000000
 20
-0.000054
 30
0.0
 11
750.000052
 21
-0.000054
 31
0.0
  0
LINE
  5
102
100
AcDbEntity
  8
Capa_1
 62
7
100
AcDbLine
 10
750.000052
 20
-0.000054
 30
0.0
 11
750.000052
 21
603.000243
 31
0.0
  0
LINE
  5
103
100
AcDbEntity
  8
Capa_1
 62
7
100
AcDbLine
 10
750.000052
 20
603.000243
 30
0.0
 11
0.000000
 21
603.000243
 31
0.0
  0
LINE
  5
104
100
AcDbEntity
  8
Capa_1
 62
7
100
AcDbLine
 10
0.000000
 20
603.000243
 30
0.0
 11
0.000000
 21
603.000243
 31
0.0
  0
LINE
  5
105
100
AcDbEntity
  8
Capa_1
 62
7
100
AcDbLine
 10
75.499999
 20
225.945993
 30
0.0
 11
225.499992
 21
225.945993
 31
0.0
  0
LINE
  5
106
100
AcDbEntity
  8
Capa_1
 62
7
100
AcDbLine
 10
225.499992
 20
225.945993
 30
0.0
 11
225.499992
 21
75.946000
 31
0.0
  0
LINE
  5
107
100
AcDbEntity
  8
Capa_1
 62
7
100
AcDbLine
 10
225.499992
 20
75.946000
 30
0.0
 11
75.499999
 21
75.946000
 31
0.0
  0
LINE
  5
108
100
AcDbEntity
  8
Capa_1
 62
7
100
AcDbLine
 10
75.499999
 20
75.946000
 30
0.0
 11
75.499999
 21
225.945993
 31
0.0
  0
LINE
  5
109
100
AcDbEntity
  8
Capa_1
 62
7
100
AcDbLine
 10
180.121535
 20
150.945994
 30
0.0
 11
180.121535
 21
150.945994
 31
0.0
  0
LINE
  5
10a
100
AcDbEntity
  8
Capa_1
 62
7
100
AcDbLine
 10
301.500012
 20
225.945992
 30
0.0
 11
451.500006
 21
225.945992
 31
0.0
  0
LINE
  5
10b
100
AcDbEntity
  8
Capa_1
 62
7
100
AcDbLine
 10
451.500006
 20
225.945992
 30
0.0
 11
451.500006
 21
75.945998
 31
0.0
  0
LINE
  5
10c
100
AcDbEntity
  8
Capa_1
 62
7
100
AcDbLine
 10
451.500006
 20
75.945998
 30
0.0
 11
301.500012
 21
75.945998
 31
0.0
  0
LINE
  5
10d
100
AcDbEntity
  8
Capa_1
 62
7
100
AcDbLine
 10
301.500012
 20
75.945998
 30
0.0
 11
301.500012
 21
225.945992
 31
0.0
  0
SPLINE
  5
10e
100
AcDbEntity
  8
Capa_1
 62
7
100
AcDbSpline
 70
0
 71
3
 72
31
 73
27
 74
25
 40
0.000000
 40
0.000000
 40
0.000000
 40
0.000000
 40
7.754175
 40
15.444182
 40
23.198358
 40
30.952533
 40
38.642540
 40
46.396715
 40
54.150890
 40
61.840897
 40
69.595073
 40
77.349248
 40
85.039255
 40
92.793430
 40
100.547605
 40
108.237611
 40
115.991786
 40
123.745961
 40
131.435968
 40
139.190142
 40
146.944317
 40
154.634324
 40
162.388499
 40
170.142674
 40
177.832680
 40
185.586855
 40
185.586855
 40
185.586855
 40
185.586855
 10
180.121535
 20
150.945994
 30
0.0
 10
179.924070
 20
148.353863
 30
0.0
 10
179.530776
 20
143.191052
 30
0.0
 10
176.422730
 20
135.965925
 30
0.0
 10
171.694148
 20
129.758423
 30
0.0
 10
165.478316
 20
124.998781
 30
0.0
 10
158.255408
 20
122.006036
 30
0.0
 10
150.499869
 20
120.982244
 30
0.0
 10
142.745087
 20
122.006036
 30
0.0
 10
135.519918
 20
124.998781
 30
0.0
 10
129.312428
 20
129.758423
 30
0.0
 10
124.552783
 20
135.965925
 30
0.0
 10
121.560039
 20
143.191052
 30
0.0
 10
120.536248
 20
150.945994
 30
0.0
 10
121.560040
 20
158.700935
 30
0.0
 10
124.552784
 20
165.926061
 30
0.0
 10
129.312429
 20
172.133563
 30
0.0
 10
135.519919
 20
176.893204
 30
0.0
 10
142.745088
 20
179.885949
 30
0.0
 10
150.499869
 20
180.909741
 30
0.0
 10
158.255408
 20
179.885949
 30
0.0
 10
165.478315
 20
176.893204
 30
0.0
 10
171.694147
 20
172.133563
 30
0.0
 10
176.422729
 20
165.926061
 30
0.0
 10
179.530776
 20
158.700935
 30
0.0
 10
179.924070
 20
153.538124
 30
0.0
 10
180.121535
 20
150.945994
 30
0.0
 11
180.121535
 21
150.945994
 31
0.0
 11
179.106686
 21
143.258516
 31
0.0
 11
176.163848
 21
136.153876
 31
0.0
 11
171.445588
 21
130.000401
 31
0.0
 11
165.292113
 21
125.282140
 31
0.0
 11
158.187473
 21
122.339301
 31
0.0
 11
150.499995
 21
121.324452
 31
0.0
 11
142.812517
 21
122.339301
 31
0.0
 11
135.707878
 21
125.282140
 31
0.0
 11
129.554403
 21
130.000401
 31
0.0
 11
124.836143
 21
136.153876
 31
0.0
 11
121.893305
 21
143.258516
 31
0.0
 11
120.878456
 21
150.945994
 31
0.0
 11
121.893306
 21
158.633471
 31
0.0
 11
124.836144
 21
165.738111
 31
0.0
 11
129.554404
 21
171.891585
 31
0.0
 11
135.707878
 21
176.609845
 31
0.0
 11
142.812518
 21
179.552683
 31
0.0
 11
150.499995
 21
180.567533
 31
0.0
 11
158.187473
 21
179.552683
 31
0.0
 11
165.292112
 21
176.609845
 31
0.0
 11
171.445587
 21
171.891585
 31
0.0
 11
176.163847
 21
165.738111
 31
0.0
 11
179.106685
 21
158.633471
 31
0.0
 11
180.121535
 21
150.945994
 31
0.0
  0
LINE
  5
10f
100
AcDbEntity
  8
Capa_1
 62
7
100
AcDbLine
 10
406.121548
 20
150.945992
 30
0.0
 11
406.121548
 21
150.945992
 31
0.0
  0
LINE
  5
110
100
AcDbEntity
  8
Capa_1
 62
7
100
AcDbLine
 10
75.500000
 20
451.500006
 30
0.0
 11
225.499993
 21
451.500006
 31
0.0
  0
LINE
  5
111
100
AcDbEntity
  8
Capa_1
 62
7
100
AcDbLine
 10
225.499993
 20
451.500006
 30
0.0
 11
225.499993
 21
301.500012
 31
0.0
  0
LINE
  5
112
100
AcDbEntity
  8
Capa_1
 62
7
100
AcDbLine
 10
225.499993
 20
301.500012
 30
0.0
 11
75.500000
 21
301.500012
 31
0.0
  0
LINE
  5
113
100
AcDbEntity
  8
Capa_1
 62
7
100
AcDbLine
 10
75.500000
 20
301.500012
 30
0.0
 11
75.500000
 21
451.500006
 31
0.0
  0
SPLINE
  5
114
100
AcDbEntity
  8
Capa_1
 62
7
100
AcDbSpline
 70
0
 71
3
 72
31
 73
27
 74
25
 40
0.000000
 40
0.000000
 40
0.000000
 40
0.000000
 40
7.754175
 40
15.444182
 40
23.198358
 40
30.952533
 40
38.642540
 40
46.396715
 40
54.150890
 40
61.840897
 40
69.595073
 40
77.349248
 40
85.039255
 40
92.793430
 40
100.547605
 40
108.237611
 40
115.991786
 40
123.745961
 40
131.435968
 40
139.190142
 40
146.944317
 40
154.634324
 40
162.388499
 40
170.142674
 40
177.832680
 40
185.586855
 40
185.586855
 40
185.586855
 40
185.586855
 10
406.121548
 20
150.945992
 30
0.0
 10
405.924084
 20
148.353861
 30
0.0
 10
405.530790
 20
143.191050
 30
0.0
 10
402.422744
 20
135.965924
 30
0.0
 10
397.694162
 20
129.758422
 30
0.0
 10
391.478330
 20
124.998780
 30
0.0
 10
384.255422
 20
122.006034
 30
0.0
 10
376.499882
 20
120.982242
 30
0.0
 10
368.745101
 20
122.006034
 30
0.0
 10
361.519932
 20
124.998780
 30
0.0
 10
355.312442
 20
129.758422
 30
0.0
 10
350.552797
 20
135.965924
 30
0.0
 10
347.560053
 20
143.191050
 30
0.0
 10
346.536262
 20
150.945992
 30
0.0
 10
347.560054
 20
158.700934
 30
0.0
 10
350.552798
 20
165.926059
 30
0.0
 10
355.312443
 20
172.133561
 30
0.0
 10
361.519933
 20
176.893203
 30
0.0
 10
368.745101
 20
179.885948
 30
0.0
 10
376.499882
 20
180.909740
 30
0.0
 10
384.255421
 20
179.885948
 30
0.0
 10
391.478329
 20
176.893203
 30
0.0
 10
397.694161
 20
172.133561
 30
0.0
 10
402.422743
 20
165.926059
 30
0.0
 10
405.530789
 20
158.700934
 30
0.0
 10
405.924084
 20
153.538123
 30
0.0
 10
406.121548
 20
150.945992
 30
0.0
 11
406.121548
 21
150.945992
 31
0.0
 11
405.106699
 21
143.258514
 31
0.0
 11
402.163862
 21
136.153874
 31
0.0
 11
397.445601
 21
130.000399
 31
0.0
 11
391.292127
 21
125.282138
 31
0.0
 11
384.187487
 21
122.339300
 31
0.0
 11
376.500009
 21
121.324450
 31
0.0
 11
368.812531
 21
122.339300
 31
0.0
 11
361.707891
 21
125.282138
 31
0.0
 11
355.554417
 21
130.000399
 31
0.0
 11
350.836156
 21
136.153874
 31
0.0
 11
347.893319
 21
143.258514
 31
0.0
 11
346.878470
 21
150.945992
 31
0.0
 11
347.893319
 21
158.633470
 31
0.0
 11
350.836157
 21
165.738109
 31
0.0
 11
355.554418
 21
171.891584
 31
0.0
 11
361.707892
 21
176.609844
 31
0.0
 11
368.812532
 21
179.552682
 31
0.0
 11
376.500009
 21
180.567532
 31
0.0
 11
384.187486
 21
179.552682
 31
0.0
 11
391.292126
 21
176.609844
 31
0.0
 11
397.445600
 21
171.891584
 31
0.0
 11
402.163861
 21
165.738109
 31
0.0
 11
405.106699
 21
158.633470
 31
0.0
 11
406.121548
 21
150.945992
 31
0.0
  0
LINE
  5
115
100
AcDbEntity
  8
Capa_1
 62
7
100
AcDbLine
 10
180.121536
 20
376.500006
 30
0.0
 11
180.121536
 21
376.500006
 31
0.0
  0
LINE
  5
116
100
AcDbEntity
  8
Capa_1
 62
7
100
AcDbLine
 10
301.500012
 20
451.500006
 30
0.0
 11
451.500006
 21
451.500006
 31
0.0
  0
LINE
  5
117
100
AcDbEntity
  8
Capa_1
 62
7
100
AcDbLine
 10
451.500006
 20
451.500006
 30
0.0
 11
451.500006
 21
301.500012
 31
0.0
  0
LINE
  5
118
100
AcDbEntity
  8
Capa_1
 62
7
100
AcDbLine
 10
451.500006
 20
301.500012
 30
0.0
 11
301.500012
 21
301.500012
 31
0.0
  0
LINE
  5
119
100
AcDbEntity
  8
Capa_1
 62
7
100
AcDbLine
 10
301.500012
 20
301.500012
 30
0.0
 11
301.500012
 21
451.500006
 31
0.0
  0
SPLINE
  5
11a
100
AcDbEntity
  8
Capa_1
 62
7
100
AcDbSpline
 70
0
 71
3
 72
31
 73
27
 74
25
 40
0.000000
 40
0.000000
 40
0.000000
 40
0.000000
 40
7.754175
 40
15.444182
 40
23.198358
 40
30.952533
 40
38.642540
 40
46.396715
 40
54.150890
 40
61.840897
 40
69.595073
 40
77.349248
 40
85.039255
 40
92.793430
 40
100.547605
 40
108.237611
 40
115.991786
 40
123.745961
 40
131.435968
 40
139.190142
 40
146.944317
 40
154.634324
 40
162.388499
 40
170.142674
 40
177.832680
 40
185.586855
 40
185.586855
 40
185.586855
 40
185.586855
 10
180.121536
 20
376.500006
 30
0.0
 10
179.924072
 20
373.907875
 30
0.0
 10
179.530777
 20
368.745064
 30
0.0
 10
176.422731
 20
361.519938
 30
0.0
 10
171.694150
 20
355.312435
 30
0.0
 10
165.478317
 20
350.552793
 30
0.0
 10
158.255409
 20
347.560048
 30
0.0
 10
150.499870
 20
346.536256
 30
0.0
 10
142.745088
 20
347.560048
 30
0.0
 10
135.519920
 20
350.552793
 30
0.0
 10
129.312429
 20
355.312435
 30
0.0
 10
124.552785
 20
361.519938
 30
0.0
 10
121.560041
 20
368.745064
 30
0.0
 10
120.536250
 20
376.500006
 30
0.0
 10
121.560041
 20
384.254947
 30
0.0
 10
124.552786
 20
391.480073
 30
0.0
 10
129.312430
 20
397.687575
 30
0.0
 10
135.519920
 20
402.447216
 30
0.0
 10
142.745089
 20
405.439961
 30
0.0
 10
150.499870
 20
406.463753
 30
0.0
 10
158.255409
 20
405.439961
 30
0.0
 10
165.478316
 20
402.447216
 30
0.0
 10
171.694149
 20
397.687575
 30
0.0
 10
176.422730
 20
391.480073
 30
0.0
 10
179.530777
 20
384.254947
 30
0.0
 10
179.924072
 20
379.092137
 30
0.0
 10
180.121536
 20
376.500006
 30
0.0
 11
180.121536
 21
376.500006
 31
0.0
 11
179.106687
 21
368.812528
 31
0.0
 11
176.163849
 21
361.707888
 31
0.0
 11
171.445589
 21
355.554413
 31
0.0
 11
165.292114
 21
350.836152
 31
0.0
 11
158.187474
 21
347.893314
 31
0.0
 11
150.499997
 21
346.878464
 31
0.0
 11
142.812519
 21
347.893314
 31
0.0
 11
135.707879
 21
350.836152
 31
0.0
 11
129.554404
 21
355.554413
 31
0.0
 11
124.836144
 21
361.707888
 31
0.0
 11
121.893306
 21
368.812528
 31
0.0
 11
120.878457
 21
376.500006
 31
0.0
 11
121.893307
 21
384.187483
 31
0.0
 11
124.836145
 21
391.292123
 31
0.0
 11
129.554405
 21
397.445597
 31
0.0
 11
135.707880
 21
402.163858
 31
0.0
 11
142.812519
 21
405.106696
 31
0.0
 11
150.499997
 21
406.121545
 31
0.0
 11
158.187474
 21
405.106696
 31
0.0
 11
165.292113
 21
402.163858
 31
0.0
 11
171.445588
 21
397.445597
 31
0.0
 11
176.163848
 21
391.292123
 31
0.0
 11
179.106686
 21
384.187483
 31
0.0
 11
180.121536
 21
376.500006
 31
0.0
  0
LINE
  5
11b
100
AcDbEntity
  8
Capa_1
 62
7
100
AcDbLine
 10
406.121548
 20
376.500006
 30
0.0
 11
406.121548
 21
376.500006
 31
0.0
  0
LINE
  5
11c
100
AcDbEntity
  8
Capa_1
 62
7
100
AcDbLine
 10
301.499863
 20
590.994774
 30
0.0
 11
301.499863
 21
527.499735
 31
0.0
  0
LINE
  5
11d
100
AcDbEntity
  8
Capa_1
 62
7
100
AcDbLine
 10
301.499863
 20
527.499735
 30
0.0
 11
451.499873
 21
527.499735
 31
0.0
  0
LINE
  5
11e
100
AcDbEntity
  8
Capa_1
 62
7
100
AcDbLine
 10
451.499873
 20
527.499735
 30
0.0
 11
451.499873
 21
590.994774
 31
0.0
  0
LINE
  5
11f
100
AcDbEntity
  8
Capa_1
 62
7
100
AcDbLine
 10
451.499873
 20
590.994774
 30
0.0
 11
301.499863
 21
590.994774
 31
0.0
  0
LINE
  5
120
100
AcDbEntity
  8
Capa_1
 62
7
100
AcDbLine
 10
301.499863
 20
590.994774
 30
0.0
 11
301.499863
 21
590.994774
 31
0.0
  0
SPLINE
  5
121
100
AcDbEntity
  8
Capa_1
 62
7
100
AcDbSpline
 70
0
 71
3
 72
31
 73
27
 74
25
 40
0.000000
 40
0.000000
 40
0.000000
 40
0.000000
 40
7.754175
 40
15.444182
 40
23.198358
 40
30.952533
 40
38.642540
 40
46.396715
 40
54.150890
 40
61.840897
 40
69.595073
 40
77.349248
 40
85.039255
 40
92.793430
 40
100.547605
 40
108.237611
 40
115.991786
 40
123.745961
 40
131.435968
 40
139.190142
 40
146.944317
 40
154.634324
 40
162.388499
 40
170.142674
 40
177.832680
 40
185.586855
 40
185.586855
 40
185.586855
 40
185.586855
 10
406.121548
 20
376.500006
 30
0.0
 10
405.924084
 20
373.907875
 30
0.0
 10
405.530790
 20
368.745064
 30
0.0
 10
402.422744
 20
361.519938
 30
0.0
 10
397.694162
 20
355.312435
 30
0.0
 10
391.478330
 20
350.552793
 30
0.0
 10
384.255422
 20
347.560048
 30
0.0
 10
376.499882
 20
346.536256
 30
0.0
 10
368.745101
 20
347.560048
 30
0.0
 10
361.519932
 20
350.552793
 30
0.0
 10
355.312442
 20
355.312435
 30
0.0
 10
350.552797
 20
361.519938
 30
0.0
 10
347.560053
 20
368.745064
 30
0.0
 10
346.536262
 20
376.500006
 30
0.0
 10
347.560054
 20
384.254947
 30
0.0
 10
350.552798
 20
391.480073
 30
0.0
 10
355.312443
 20
397.687575
 30
0.0
 10
361.519933
 20
402.447216
 30
0.0
 10
368.745101
 20
405.439961
 30
0.0
 10
376.499882
 20
406.463753
 30
0.0
 10
384.255421
 20
405.439961
 30
0.0
 10
391.478329
 20
402.447216
 30
0.0
 10
397.694161
 20
397.687575
 30
0.0
 10
402.422743
 20
391.480073
 30
0.0
 10
405.530789
 20
384.254947
 30
0.0
 10
405.924084
 20
379.092137
 30
0.0
 10
406.121548
 20
376.500006
 30
0.0
 11
406.121548
 21
376.500006
 31
0.0
 11
405.106699
 21
368.812528
 31
0.0
 11
402.163862
 21
361.707888
 31
0.0
 11
397.445601
 21
355.554413
 31
0.0
 11
391.292127
 21
350.836152
 31
0.0
 11
384.187487
 21
347.893314
 31
0.0
 11
376.500009
 21
346.878464
 31
0.0
 11
368.812531
 21
347.893314
 31
0.0
 11
361.707891
 21
350.836152
 31
0.0
 11
355.554417
 21
355.554413
 31
0.0
 11
350.836156
 21
361.707888
 31
0.0
 11
347.893319
 21
368.812528
 31
0.0
 11
346.878470
 21
376.500006
 31
0.0
 11
347.893319
 21
384.187483
 31
0.0
 11
350.836157
 21
391.292123
 31
0.0
 11
355.554418
 21
397.445597
 31
0.0
 11
361.707892
 21
402.163858
 31
0.0
 11
368.812532
 21
405.106696
 31
0.0
 11
376.500009
 21
406.121545
 31
0.0
 11
384.187486
 21
405.106696
 31
0.0
 11
391.292126
 21
402.163858
 31
0.0
 11
397.445600
 21
397.445597
 31
0.0
 11
402.163861
 21
391.292123
 31
0.0
 11
405.106699
 21
384.187483
 31
0.0
 11
406.121548
 21
376.500006
 31
0.0
  0
SPLINE
  5
122
100
AcDbEntity
  8
Capa_1
 62
7
100
AcDbSpline
 70
0
 71
3
 72
10
 73
6
 74
4
 40
0.000000
 40
0.000000
 40
0.000000
 40
0.000000
 40
11.554944
 40
22.906467
 40
34.461411
 40
34.461411
 40
34.461411
 40
34.461411
 10
349.236764
 20
590.994774
 30
0.0
 10
351.152158
 20
587.612741
 30
0.0
 10
354.949226
 20
580.908216
 30
0.0
 10
364.987972
 20
574.237506
 30
0.0
 10
372.639927
 20
573.334198
 30
0.0
 10
376.499882
 20
572.878533
 30
0.0
 11
349.236764
 21
590.994774
 31
0.0
 11
355.714691
 21
581.426430
 31
0.0
 11
365.169188
 21
575.143952
 31
0.0
 11
376.499882
 21
572.878533
 31
0.0
  0
LINE
  5
123
100
AcDbEntity
  8
Capa_1
 62
7
100
AcDbLine
 10
403.794412
 20
590.994774
 30
0.0
 11
349.236764
 21
590.994774
 31
0.0
  0
LINE
  5
124
100
AcDbEntity
  8
Capa_1
 62
7
100
AcDbLine
 10
349.236764
 20
590.994774
 30
0.0
 11
349.236764
 21
590.994774
 31
0.0
  0
LINE
  5
125
100
AcDbEntity
  8
Capa_1
 62
7
100
AcDbLine
 10
527.499806
 20
590.994774
 30
0.0
 11
527.499806
 21
527.499735
 31
0.0
  0
LINE
  5
126
100
AcDbEntity
  8
Capa_1
 62
7
100
AcDbLine
 10
527.499806
 20
527.499735
 30
0.0
 11
677.499788
 21
527.499735
 31
0.0
  0
LINE
  5
127
100
AcDbEntity
  8
Capa_1
 62
7
100
AcDbLine
 10
677.499788
 20
527.499735
 30
0.0
 11
677.499788
 21
590.994774
 31
0.0
  0
LINE
  5
128
100
AcDbEntity
  8
Capa_1
 62
7
100
AcDbLine
 10
677.499788
 20
590.994774
 30
0.0
 11
527.499806
 21
590.994774
 31
0.0
  0
LINE
  5
129
100
AcDbEntity
  8
Capa_1
 62
7
100
AcDbLine
 10
527.499806
 20
590.994774
 30
0.0
 11
527.499806
 21
590.994774
 31
0.0
  0
SPLINE
  5
12a
100
AcDbEntity
  8
Capa_1
 62
7
100
AcDbSpline
 70
0
 71
3
 72
10
 73
6
 74
4
 40
0.000000
 40
0.000000
 40
0.000000
 40
0.000000
 40
11.565388
 40
22.926831
 40
34.492218
 40
34.492218
 40
34.492218
 40
34.492218
 10
376.499882
 20
572.878533
 30
0.0
 10
380.363829
 20
573.330923
 30
0.0
 10
388.023587
 20
574.227727
 30
0.0
 10
398.075679
 20
580.899618
 30
0.0
 10
401.876896
 20
587.609825
 30
0.0
 10
403.794412
 20
590.994774
 30
0.0
 11
376.499882
 21
572.878533
 31
0.0
 11
387.842810
 21
575.136004
 31
0.0
 11
397.308906
 21
581.418950
 31
0.0
 11
403.794412
 21
590.994774
 31
0.0
  0
SPLINE
  5
12b
100
AcDbEntity
  8
Capa_1
 62
7
100
AcDbSpline
 70
0
 71
3
 72
10
 73
6
 74
4
 40
0.000000
 40
0.000000
 40
0.000000
 40
0.000000
 40
11.554944
 40
22.906467
 40
34.461411
 40
34.461411
 40
34.461411
 40
34.461411
 10
575.236679
 20
590.994774
 30
0.0
 10
577.152073
 20
587.612741
 30
0.0
 10
580.949141
 20
580.908216
 30
0.0
 10
590.987887
 20
574.237506
 30
0.0
 10
598.639842
 20
573.334198
 30
0.0
 10
602.499797
 20
572.878533
 30
0.0
 11
575.236679
 21
590.994774
 31
0.0
 11
581.714606
 21
581.426430
 31
0.0
 11
591.169103
 21
575.143952
 31
0.0
 11
602.499797
 21
572.878533
 31
0.0
  0
LINE
  5
12c
100
AcDbEntity
  8
Capa_1
 62
7
100
AcDbLine
 10
629.794326
 20
590.994774
 30
0.0
 11
575.236679
 21
590.994774
 31
0.0
  0
LINE
  5
12d
100
AcDbEntity
  8
Capa_1
 62
7
100
AcDbLine
 10
575.236679
 20
590.994774
 30
0.0
 11
575.236679
 21
590.994774
 31
0.0
  0
LINE
  5
12e
100
AcDbEntity
  8
Capa_1
 62
7
100
AcDbLine
 10
527.499998
 20
451.500006
 30
0.0
 11
677.499991
 21
451.500006
 31
0.0
  0
LINE
  5
12f
100
AcDbEntity
  8
Capa_1
 62
7
100
AcDbLine
 10
677.499991
 20
451.500006
 30
0.0
 11
677.499991
 21
301.500012
 31
0.0
  0
LINE
  5
130
100
AcDbEntity
  8
Capa_1
 62
7
100
AcDbLine
 10
677.499991
 20
301.500012
 30
0.0
 11
527.499998
 21
301.500012
 31
0.0
  0
LINE
  5
131
100
AcDbEntity
  8
Capa_1
 62
7
100
AcDbLine
 10
527.499998
 20
301.500012
 30
0.0
 11
527.499998
 21
451.500006
 31
0.0
  0
SPLINE
  5
132
100
AcDbEntity
  8
Capa_1
 62
7
100
AcDbSpline
 70
0
 71
3
 72
10
 73
6
 74
4
 40
0.000000
 40
0.000000
 40
0.000000
 40
0.000000
 40
11.565388
 40
22.926831
 40
34.492218
 40
34.492218
 40
34.492218
 40
34.492218
 10
602.499797
 20
572.878533
 30
0.0
 10
606.363744
 20
573.330923
 30
0.0
 10
614.023502
 20
574.227727
 30
0.0
 10
624.075594
 20
580.899618
 30
0.0
 10
627.876811
 20
587.609825
 30
0.0
 10
629.794326
 20
590.994774
 30
0.0
 11
602.499797
 21
572.878533
 31
0.0
 11
613.842725
 21
575.136004
 31
0.0
 11
623.308821
 21
581.418950
 31
0.0
 11
629.794326
 21
590.994774
 31
0.0
  0
LINE
  5
133
100
AcDbEntity
  8
Capa_1
 62
7
100
AcDbLine
 10
632.121534
 20
376.500006
 30
0.0
 11
632.121534
 21
376.500006
 31
0.0
  0
LINE
  5
134
100
AcDbEntity
  8
Capa_1
 62
7
100
AcDbLine
 10
527.499998
 20
225.945992
 30
0.0
 11
677.499991
 21
225.945992
 31
0.0
  0
LINE
  5
135
100
AcDbEntity
  8
Capa_1
 62
7
100
AcDbLine
 10
677.499991
 20
225.945992
 30
0.0
 11
677.499991
 21
75.945998
 31
0.0
  0
LINE
  5
136
100
AcDbEntity
  8
Capa_1
 62
7
100
AcDbLine
 10
677.499991
 20
75.945998
 30
0.0
 11
527.499998
 21
75.945998
 31
0.0
  0
LINE
  5
137
100
AcDbEntity
  8
Capa_1
 62
7
100
AcDbLine
 10
527.499998
 20
75.945998
 30
0.0
 11
527.499998
 21
225.945992
 31
0.0
  0
SPLINE
  5
138
100
AcDbEntity
  8
Capa_1
 62
7
100
AcDbSpline
 70
0
 71
3
 72
31
 73
27
 74
25
 40
0.000000
 40
0.000000
 40
0.000000
 40
0.000000
 40
7.754175
 40
15.444182
 40
23.198358
 40
30.952533
 40
38.642540
 40
46.396715
 40
54.150890
 40
61.840897
 40
69.595073
 40
77.349248
 40
85.039255
 40
92.793430
 40
100.547605
 40
108.237611
 40
115.991786
 40
123.745961
 40
131.435968
 40
139.190142
 40
146.944317
 40
154.634324
 40
162.388499
 40
170.142674
 40
177.832680
 40
185.586855
 40
185.586855
 40
185.586855
 40
185.586855
 10
632.121534
 20
376.500006
 30
0.0
 10
631.924070
 20
373.907875
 30
0.0
 10
631.530775
 20
368.745064
 30
0.0
 10
628.422729
 20
361.519938
 30
0.0
 10
623.694148
 20
355.312435
 30
0.0
 10
617.478315
 20
350.552793
 30
0.0
 10
610.255407
 20
347.560048
 30
0.0
 10
602.499868
 20
346.536256
 30
0.0
 10
594.745086
 20
347.560048
 30
0.0
 10
587.519917
 20
350.552793
 30
0.0
 10
581.312427
 20
355.312435
 30
0.0
 10
576.552782
 20
361.519938
 30
0.0
 10
573.560039
 20
368.745064
 30
0.0
 10
572.536247
 20
376.500006
 30
0.0
 10
573.560039
 20
384.254947
 30
0.0
 10
576.552783
 20
391.480073
 30
0.0
 10
581.312428
 20
397.687575
 30
0.0
 10
587.519918
 20
402.447216
 30
0.0
 10
594.745087
 20
405.439961
 30
0.0
 10
602.499868
 20
406.463753
 30
0.0
 10
610.255407
 20
405.439961
 30
0.0
 10
617.478314
 20
402.447216
 30
0.0
 10
623.694146
 20
397.687575
 30
0.0
 10
628.422728
 20
391.480073
 30
0.0
 10
631.530775
 20
384.254947
 30
0.0
 10
631.924069
 20
379.092137
 30
0.0
 10
632.121534
 20
376.500006
 30
0.0
 11
632.121534
 21
376.500006
 31
0.0
 11
631.106685
 21
368.812528
 31
0.0
 11
628.163847
 21
361.707888
 31
0.0
 11
623.445587
 21
355.554413
 31
0.0
 11
617.292112
 21
350.836152
 31
0.0
 11
610.187472
 21
347.893314
 31
0.0
 11
602.499994
 21
346.878464
 31
0.0
 11
594.812517
 21
347.893314
 31
0.0
 11
587.707877
 21
350.836152
 31
0.0
 11
581.554402
 21
355.554413
 31
0.0
 11
576.836142
 21
361.707888
 31
0.0
 11
573.893304
 21
368.812528
 31
0.0
 11
572.878455
 21
376.500006
 31
0.0
 11
573.893305
 21
384.187483
 31
0.0
 11
576.836143
 21
391.292123
 31
0.0
 11
581.554403
 21
397.445597
 31
0.0
 11
587.707878
 21
402.163858
 31
0.0
 11
594.812517
 21
405.106696
 31
0.0
 11
602.499994
 21
406.121545
 31
0.0
 11
610.187472
 21
405.106696
 31
0.0
 11
617.292111
 21
402.163858
 31
0.0
 11
623.445586
 21
397.445597
 31
0.0
 11
628.163846
 21
391.292123
 31
0.0
 11
631.106684
 21
384.187483
 31
0.0
 11
632.121534
 21
376.500006
 31
0.0
  0
LINE
  5
139
100
AcDbEntity
  8
Capa_1
 62
7
100
AcDbLine
 10
632.121534
 20
150.945992
 30
0.0
 11
632.121534
 21
150.945992
 31
0.0
  0
LINE
  5
13a
100
AcDbEntity
  8
Capa_1
 62
7
100
AcDbLine
 10
75.500001
 20
590.995039
 30
0.0
 11
75.500001
 21
527.500009
 31
0.0
  0
LINE
  5
13b
100
AcDbEntity
  8
Capa_1
 62
7
100
AcDbLine
 10
75.500001
 20
527.500009
 30
0.0
 11
225.500012
 21
527.500009
 31
0.0
  0
LINE
  5
13c
100
AcDbEntity
  8
Capa_1
 62
7
100
AcDbLine
 10
225.500012
 20
527.500009
 30
0.0
 11
225.500012
 21
590.995039
 31
0.0
  0
LINE
  5
13d
100
AcDbEntity
  8
Capa_1
 62
7
100
AcDbLine
 10
225.500012
 20
590.995039
 30
0.0
 11
75.500001
 21
590.995039
 31
0.0
  0
LINE
  5
13e
100
AcDbEntity
  8
Capa_1
 62
7
100
AcDbLine
 10
75.500001
 20
590.995039
 30
0.0
 11
75.500001
 21
590.995039
 31
0.0
  0
SPLINE
  5
13f
100
AcDbEntity
  8
Capa_1
 62
7
100
AcDbSpline
 70
0
 71
3
 72
31
 73
27
 74
25
 40
0.000000
 40
0.000000
 40
0.000000
 40
0.000000
 40
7.754175
 40
15.444182
 40
23.198358
 40
30.952533
 40
38.642540
 40
46.396715
 40
54.150890
 40
61.840897
 40
69.595073
 40
77.349248
 40
85.039255
 40
92.793430
 40
100.547605
 40
108.237611
 40
115.991786
 40
123.745961
 40
131.435968
 40
139.190142
 40
146.944317
 40
154.634324
 40
162.388499
 40
170.142674
 40
177.832680
 40
185.586855
 40
185.586855
 40
185.586855
 40
185.586855
 10
632.121534
 20
150.945992
 30
0.0
 10
631.924070
 20
148.353861
 30
0.0
 10
631.530775
 20
143.191050
 30
0.0
 10
628.422729
 20
135.965924
 30
0.0
 10
623.694148
 20
129.758422
 30
0.0
 10
617.478315
 20
124.998780
 30
0.0
 10
610.255407
 20
122.006034
 30
0.0
 10
602.499868
 20
120.982242
 30
0.0
 10
594.745086
 20
122.006034
 30
0.0
 10
587.519917
 20
124.998780
 30
0.0
 10
581.312427
 20
129.758422
 30
0.0
 10
576.552782
 20
135.965924
 30
0.0
 10
573.560039
 20
143.191050
 30
0.0
 10
572.536247
 20
150.945992
 30
0.0
 10
573.560039
 20
158.700934
 30
0.0
 10
576.552783
 20
165.926059
 30
0.0
 10
581.312428
 20
172.133561
 30
0.0
 10
587.519918
 20
176.893203
 30
0.0
 10
594.745087
 20
179.885948
 30
0.0
 10
602.499868
 20
180.909740
 30
0.0
 10
610.255407
 20
179.885948
 30
0.0
 10
617.478314
 20
176.893203
 30
0.0
 10
623.694146
 20
172.133561
 30
0.0
 10
628.422728
 20
165.926059
 30
0.0
 10
631.530775
 20
158.700934
 30
0.0
 10
631.924069
 20
153.538123
 30
0.0
 10
632.121534
 20
150.945992
 30
0.0
 11
632.121534
 21
150.945992
 31
0.0
 11
631.106685
 21
143.258514
 31
0.0
 11
628.163847
 21
136.153874
 31
0.0
 11
623.445587
 21
130.000399
 31
0.0
 11
617.292112
 21
125.282138
 31
0.0
 11
610.187472
 21
122.339300
 31
0.0
 11
602.499994
 21
121.324450
 31
0.0
 11
594.812517
 21
122.339300
 31
0.0
 11
587.707877
 21
125.282138
 31
0.0
 11
581.554402
 21
130.000399
 31
0.0
 11
576.836142
 21
136.153874
 31
0.0
 11
573.893304
 21
143.258514
 31
0.0
 11
572.878455
 21
150.945992
 31
0.0
 11
573.893305
 21
158.633470
 31
0.0
 11
576.836143
 21
165.738109
 31
0.0
 11
581.554403
 21
171.891584
 31
0.0
 11
587.707878
 21
176.609844
 31
0.0
 11
594.812517
 21
179.552682
 31
0.0
 11
602.499994
 21
180.567532
 31
0.0
 11
610.187472
 21
179.552682
 31
0.0
 11
617.292111
 21
176.609844
 31
0.0
 11
623.445586
 21
171.891584
 31
0.0
 11
628.163846
 21
165.738109
 31
0.0
 11
631.106684
 21
158.633470
 31
0.0
 11
632.121534
 21
150.945992
 31
0.0
  0
SPLINE
  5
140
100
AcDbEntity
  8
Capa_1
 62
7
100
AcDbSpline
 70
0
 71
3
 72
10
 73
6
 74
4
 40
0.000000
 40
0.000000
 40
0.000000
 40
0.000000
 40
11.554942
 40
22.906463
 40
34.461405
 40
34.461405
 40
34.461405
 40
34.461405
 10
123.236903
 20
590.995039
 30
0.0
 10
125.152297
 20
587.613008
 30
0.0
 10
128.949367
 20
580.908484
 30
0.0
 10
138.988113
 20
574.237779
 30
0.0
 10
146.640067
 20
573.334472
 30
0.0
 10
150.500021
 20
572.878808
 30
0.0
 11
123.236903
 21
590.995039
 31
0.0
 11
129.714831
 21
581.426699
 31
0.0
 11
139.169329
 21
575.144224
 31
0.0
 11
150.500021
 21
572.878808
 31
0.0
  0
LINE
  5
141
100
AcDbEntity
  8
Capa_1
 62
7
100
AcDbLine
 10
177.794550
 20
590.995039
 30
0.0
 11
123.236903
 21
590.995039
 31
0.0
  0
LINE
  5
142
100
AcDbEntity
  8
Capa_1
 62
7
100
AcDbLine
 10
123.236903
 20
590.995039
 30
0.0
 11
123.236903
 21
590.995039
 31
0.0
  0
SPLINE
  5
143
100
AcDbEntity
  8
Capa_1
 62
7
100
AcDbSpline
 70
0
 71
3
 72
10
 73
6
 74
4
 40
0.000000
 40
0.000000
 40
0.000000
 40
0.000000
 40
11.565385
 40
22.926826
 40
34.492212
 40
34.492212
 40
34.492212
 40
34.492212
 10
150.500021
 20
572.878808
 30
0.0
 10
154.363967
 20
573.331197
 30
0.0
 10
162.023723
 20
574.227999
 30
0.0
 10
172.075815
 20
580.899886
 30
0.0
 10
175.877034
 20
587.610091
 30
0.0
 10
177.794550
 20
590.995039
 30
0.0
 11
150.500021
 21
572.878808
 31
0.0
 11
161.842947
 21
575.136276
 31
0.0
 11
171.309042
 21
581.419219
 31
0.0
 11
177.794550
 21
590.995039
 31
0.0
  0
ENDSEC
  0
SECTION
  2
OBJECTS
  0
DICTIONARY
  5
C
330
0
100
AcDbDictionary
  3
ACAD_GROUP
350
D
  3
ACAD_MLINESTYLE
350
17
  0
DICTIONARY
  5
D
330
C
100
AcDbDictionary
  0
DICTIONARY
  5
1A
330
C
100
AcDbDictionary
  0
DICTIONARY
  5
17
330
C
100
AcDbDictionary
  3
STANDARD
350
18
  0
DICTIONARY
  5
19
330
C
100
AcDbDictionary
  0
ENDSEC
  0
EOF
