  0
SECTION
  2
HEADER
  9
$ACADVER
  1
AC1014
  9
$HANDSEED
  5
FFFF
  9
$MEASUREMENT
 70
     1
  0
ENDSEC
  0
SECTION
  2
TABLES
  0
TABLE
  2
VPORT
  5
8
330
0
100
AcDbSymbolTable
 70
     4
  0
VPORT
  5
2E
330
8
100
AcDbSymbolTableRecord
100
AcDbViewportTableRecord
  2
*ACTIVE
 70
     0
 10
0.0
 20
0.0
 11
1.0
 21
1.0
 12
210.0
 22
148.5
 13
0.0
 23
0.0
 14
10.0
 24
10.0
 15
10.0
 25
10.0
 16
0.0
 26
0.0
 36
1.0
 17
0.0
 27
0.0
 37
0.0
 40
341.0
 41
1.24
 42
50.0
 43
0.0
 44
0.0
 50
0.0
 51
0.0
 71
     0
 72
   100
 73
     1
 74
     3
 75
     0
 76
     0
 77
     0
 78
     0
  0
ENDTAB
  0
TABLE
  2
LTYPE
  5
5
330
0
100
AcDbSymbolTable
 70
     1
  0
LTYPE
  5
14
330
5
100
AcDbSymbolTableRecord
100
AcDbLinetypeTableRecord
  2
BYBLOCK
 70
     0
  3

 72
    65
 73
     0
 40
0.0
  0
LTYPE
  5
15
330
5
100
AcDbSymbolTableRecord
100
AcDbLinetypeTableRecord
  2
BYLAYER
 70
     0
  3

 72
    65
 73
     0
 40
0.0
  0
LTYPE
  5
16
330
5
100
AcDbSymbolTableRecord
100
AcDbLinetypeTableRecord
  2
CONTINUOUS
 70
     0
  3
Solid line
 72
    65
 73
     0
 40
0.0
  0
ENDTAB
  0
TABLE
  2
LAYER
  5
2
100
AcDbSymbolTable
 70
2
  0
LAYER
  5
50
100
AcDbSymbolTableRecord
100
AcDbLayerTableRecord
  2
0
 70
0
  6
CONTINUOUS
  0
LAYER
  5
51
100
AcDbSymbolTableRecord
100
AcDbLayerTableRecord
  2
Capa_1
 70
0
  6
CONTINUOUS
  0
ENDTAB
  0
TABLE
  2
STYLE
  5
3
330
0
100
AcDbSymbolTable
 70
     1
  0
STYLE
  5
11
330
3
100
AcDbSymbolTableRecord
100
AcDbTextStyleTableRecord
  2
STANDARD
 70
     0
 40
0.0
 41
1.0
 50
0.0
 71
     0
 42
2.5
  3
txt
  4

  0
ENDTAB
  0
TABLE
  2
VIEW
  5
6
330
0
100
AcDbSymbolTable
 70
     0
  0
ENDTAB
  0
TABLE
  2
UCS
  5
7
330
0
100
AcDbSymbolTable
 70
     0
  0
ENDTAB
  0
TABLE
  2
APPID
  5
9
330
0
100
AcDbSymbolTable
 70
     2
  0
APPID
  5
12
330
9
100
AcDbSymbolTableRecord
100
AcDbRegAppTableRecord
  2
ACAD
 70
     0
  0
ENDTAB
  0
TABLE
  2
DIMSTYLE
  5
A
330
0
100
AcDbSymbolTable
 70
     1
  0
DIMSTYLE
105
27
330
A
100
AcDbSymbolTableRecord
100
AcDbDimStyleTableRecord
  2
ISO-25
 70
     0
  3

  4

  5

  6

  7

 40
1.0
 41
2.5
 42
0.625
 43
3.75
 44
1.25
 45
0.0
 46
0.0
 47
0.0
 48
0.0
140
2.5
141
2.5
142
0.0
143
0.03937007874016
144
1.0
145
0.0
146
1.0
147
0.625
 71
     0
 72
     0
 73
     0
 74
     0
 75
     0
 76
     0
 77
     1
 78
     8
170
     0
171
     3
172
     1
173
     0
174
     0
175
     0
176
     0
177
     0
178
     0
270
     2
271
     2
272
     2
273
     2
274
     3
340
11
275
     0
280
     0
281
     0
282
     0
283
     0
284
     8
285
     0
286
     0
287
     3
288
     0
  0
ENDTAB
  0
TABLE
  2
BLOCK_RECORD
  5
1
330
0
100
AcDbSymbolTable
 70
     1
  0
BLOCK_RECORD
  5
1F
330
1
100
AcDbSymbolTableRecord
100
AcDbBlockTableRecord
  2
*MODEL_SPACE
  0
BLOCK_RECORD
  5
1B
330
1
100
AcDbSymbolTableRecord
100
AcDbBlockTableRecord
  2
*PAPER_SPACE
  0
ENDTAB
  0
ENDSEC
  0
SECTION
  2
BLOCKS
  0
BLOCK
  5
20
330
1F
100
AcDbEntity
  8
0
100
AcDbBlockBegin
  2
*MODEL_SPACE
 70
     0
 10
0.0
 20
0.0
 30
0.0
  3
*MODEL_SPACE
  1

  0
ENDBLK
  5
21
330
1F
100
AcDbEntity
  8
0
100
AcDbBlockEnd
  0
BLOCK
  5
1C
330
1B
100
AcDbEntity
 67
     1
  8
0
100
AcDbBlockBegin
  2
*PAPER_SPACE
  1

  0
ENDBLK
  5
1D
330
1B
100
AcDbEntity
 67
     1
  8
0
100
AcDbBlockEnd
  0
ENDSEC
  0
SECTION
  2
ENTITIES
  0
LWPOLYLINE
  5
100
100
AcDbEntity
  8
Capa_1
 62
7
100
AcDbPolyline
 90
6
 70
1
 10
37.736470
 20
488.639987
 30
0.0
 10
37.736470
 20
331.611430
 30
0.0
 10
787.736522
 20
331.611430
 30
0.0
 10
787.736522
 20
488.639987
 30
0.0
 10
37.736470
 20
488.639987
 30
0.0
 10
37.736470
 20
488.639987
 30
0.0
  0
SPLINE
  5
101
100
AcDbEntity
  8
Capa_1
 62
7
100
AcDbSpline
 70
8
 71
3
 72
8
 73
4
 74
0
 40
0
 40
0
 40
0
 40
0
 40
1
 40
1
 40
1
 40
1
 10
188.236431
 20
370.761497
 30
0.0
 10
180.380234
 20
370.761555
 30
0.0
 10
172.845790
 20
367.640719
 30
0.0
 10
167.290620
 20
362.085549
 30
0.0
  0
SPLINE
  5
102
100
AcDbEntity
  8
Capa_1
 62
7
100
AcDbSpline
 70
8
 71
3
 72
8
 73
4
 74
0
 40
0
 40
0
 40
0
 40
0
 40
1
 40
1
 40
1
 40
1
 10
167.290620
 20
362.085549
 30
0.0
 10
161.735449
 20
356.530379
 30
0.0
 10
158.614613
 20
348.995934
 30
0.0
 10
158.614672
 20
341.139738
 30
0.0
  0
SPLINE
  5
103
100
AcDbEntity
  8
Capa_1
 62
7
100
AcDbSpline
 70
8
 71
3
 72
8
 73
4
 74
0
 40
0
 40
0
 40
0
 40
0
 40
1
 40
1
 40
1
 40
1
 10
158.614672
 20
341.139738
 30
0.0
 10
158.627081
 20
337.896760
 30
0.0
 10
159.171950
 20
334.677830
 30
0.0
 10
160.227529
 20
331.611430
 30
0.0
  0
LWPOLYLINE
  5
104
100
AcDbEntity
  8
Capa_1
 62
7
100
AcDbPolyline
 90
6
 70
1
 10
113.236426
 20
416.139743
 30
0.0
 10
113.236426
 20
331.611430
 30
0.0
 10
263.236433
 20
331.611430
 30
0.0
 10
263.236433
 20
416.139743
 30
0.0
 10
113.236426
 20
416.139743
 30
0.0
 10
113.236426
 20
416.139743
 30
0.0
  0
SPLINE
  5
105
100
AcDbEntity
  8
Capa_1
 62
7
100
AcDbSpline
 70
8
 71
3
 72
8
 73
4
 74
0
 40
0
 40
0
 40
0
 40
0
 40
1
 40
1
 40
1
 40
1
 10
216.252498
 20
331.611430
 30
0.0
 10
217.305640
 20
334.678238
 30
0.0
 10
217.848085
 20
337.897158
 30
0.0
 10
217.858188
 20
341.139738
 30
0.0
  0
SPLINE
  5
106
100
AcDbEntity
  8
Capa_1
 62
7
100
AcDbSpline
 70
8
 71
3
 72
8
 73
4
 74
0
 40
0
 40
0
 40
0
 40
0
 40
1
 40
1
 40
1
 40
1
 10
217.858188
 20
341.139738
 30
0.0
 10
217.858246
 20
348.995934
 30
0.0
 10
214.737410
 20
356.530378
 30
0.0
 10
209.182241
 20
362.085548
 30
0.0
  0
SPLINE
  5
107
100
AcDbEntity
  8
Capa_1
 62
7
100
AcDbSpline
 70
8
 71
3
 72
8
 73
4
 74
0
 40
0
 40
0
 40
0
 40
0
 40
1
 40
1
 40
1
 40
1
 10
209.182241
 20
362.085548
 30
0.0
 10
203.627071
 20
367.640718
 30
0.0
 10
196.092627
 20
370.761555
 30
0.0
 10
188.236431
 20
370.761497
 30
0.0
  0
LWPOLYLINE
  5
108
100
AcDbEntity
  8
Capa_1
 62
7
100
AcDbPolyline
 90
2
 70
1
 10
160.227529
 20
331.611430
 30
0.0
 10
216.252498
 20
331.611430
 30
0.0
  0
LWPOLYLINE
  5
109
100
AcDbEntity
  8
Capa_1
 62
7
100
AcDbPolyline
 90
2
 70
1
 10
188.236431
 20
370.761497
 30
0.0
 10
188.236431
 20
370.761497
 30
0.0
  0
SPLINE
  5
10a
100
AcDbEntity
  8
Capa_1
 62
7
100
AcDbSpline
 70
8
 71
3
 72
8
 73
4
 74
0
 40
0
 40
0
 40
0
 40
0
 40
1
 40
1
 40
1
 40
1
 10
414.236352
 20
370.761497
 30
0.0
 10
397.876875
 20
370.761308
 30
0.0
 10
384.615032
 20
357.499215
 30
0.0
 10
384.615154
 20
341.139738
 30
0.0
  0
SPLINE
  5
10b
100
AcDbEntity
  8
Capa_1
 62
7
100
AcDbSpline
 70
8
 71
3
 72
8
 73
4
 74
0
 40
0
 40
0
 40
0
 40
0
 40
1
 40
1
 40
1
 40
1
 10
384.615154
 20
341.139738
 30
0.0
 10
384.627377
 20
337.896792
 30
0.0
 10
385.172050
 20
334.677863
 30
0.0
 10
386.227433
 20
331.611430
 30
0.0
  0
LWPOLYLINE
  5
10c
100
AcDbEntity
  8
Capa_1
 62
7
100
AcDbPolyline
 90
6
 70
1
 10
339.236332
 20
416.139743
 30
0.0
 10
339.236332
 20
331.611430
 30
0.0
 10
489.236343
 20
331.611430
 30
0.0
 10
489.236343
 20
416.139743
 30
0.0
 10
339.236332
 20
416.139743
 30
0.0
 10
339.236332
 20
416.139743
 30
0.0
  0
SPLINE
  5
10d
100
AcDbEntity
  8
Capa_1
 62
7
100
AcDbSpline
 70
8
 71
3
 72
8
 73
4
 74
0
 40
0
 40
0
 40
0
 40
0
 40
1
 40
1
 40
1
 40
1
 10
442.252410
 20
331.611430
 30
0.0
 10
443.305557
 20
334.678238
 30
0.0
 10
443.848007
 20
337.897157
 30
0.0
 10
443.858114
 20
341.139738
 30
0.0
  0
SPLINE
  5
10e
100
AcDbEntity
  8
Capa_1
 62
7
100
AcDbSpline
 70
8
 71
3
 72
8
 73
4
 74
0
 40
0
 40
0
 40
0
 40
0
 40
1
 40
1
 40
1
 40
1
 10
443.858114
 20
341.139738
 30
0.0
 10
443.858172
 20
348.995935
 30
0.0
 10
440.737336
 20
356.530380
 30
0.0
 10
435.182165
 20
362.085550
 30
0.0
  0
SPLINE
  5
10f
100
AcDbEntity
  8
Capa_1
 62
7
100
AcDbSpline
 70
8
 71
3
 72
8
 73
4
 74
0
 40
0
 40
0
 40
0
 40
0
 40
1
 40
1
 40
1
 40
1
 10
435.182165
 20
362.085550
 30
0.0
 10
429.626994
 20
367.640720
 30
0.0
 10
422.092549
 20
370.761556
 30
0.0
 10
414.236352
 20
370.761497
 30
0.0
  0
LWPOLYLINE
  5
110
100
AcDbEntity
  8
Capa_1
 62
7
100
AcDbPolyline
 90
2
 70
1
 10
386.227433
 20
331.611430
 30
0.0
 10
442.252410
 20
331.611430
 30
0.0
  0
LWPOLYLINE
  5
111
100
AcDbEntity
  8
Capa_1
 62
7
100
AcDbPolyline
 90
2
 70
1
 10
414.236352
 20
370.761497
 30
0.0
 10
414.236352
 20
370.761497
 30
0.0
  0
SPLINE
  5
112
100
AcDbEntity
  8
Capa_1
 62
7
100
AcDbSpline
 70
8
 71
3
 72
8
 73
4
 74
0
 40
0
 40
0
 40
0
 40
0
 40
1
 40
1
 40
1
 40
1
 10
640.236266
 20
370.761497
 30
0.0
 10
623.876789
 20
370.761308
 30
0.0
 10
610.614947
 20
357.499215
 30
0.0
 10
610.615069
 20
341.139738
 30
0.0
  0
SPLINE
  5
113
100
AcDbEntity
  8
Capa_1
 62
7
100
AcDbSpline
 70
8
 71
3
 72
8
 73
4
 74
0
 40
0
 40
0
 40
0
 40
0
 40
1
 40
1
 40
1
 40
1
 10
610.615069
 20
341.139738
 30
0.0
 10
610.627301
 20
337.896791
 30
0.0
 10
611.171983
 20
334.677861
 30
0.0
 10
612.227376
 20
331.611430
 30
0.0
  0
SPLINE
  5
114
100
AcDbEntity
  8
Capa_1
 62
7
100
AcDbSpline
 70
8
 71
3
 72
8
 73
4
 74
0
 40
0
 40
0
 40
0
 40
0
 40
1
 40
1
 40
1
 40
1
 10
612.227376
 20
331.611430
 30
0.0
 10
612.227376
 20
331.611430
 30
0.0
 10
668.252325
 20
331.611430
 30
0.0
 10
668.252325
 20
331.611430
 30
0.0
  0
SPLINE
  5
115
100
AcDbEntity
  8
Capa_1
 62
7
100
AcDbSpline
 70
8
 71
3
 72
8
 73
4
 74
0
 40
0
 40
0
 40
0
 40
0
 40
1
 40
1
 40
1
 40
1
 10
668.252325
 20
331.611430
 30
0.0
 10
669.305472
 20
334.678238
 30
0.0
 10
669.847922
 20
337.897157
 30
0.0
 10
669.858029
 20
341.139738
 30
0.0
  0
SPLINE
  5
116
100
AcDbEntity
  8
Capa_1
 62
7
100
AcDbSpline
 70
8
 71
3
 72
8
 73
4
 74
0
 40
0
 40
0
 40
0
 40
0
 40
1
 40
1
 40
1
 40
1
 10
669.858029
 20
341.139738
 30
0.0
 10
669.858087
 20
348.995935
 30
0.0
 10
666.737250
 20
356.530380
 30
0.0
 10
661.182080
 20
362.085550
 30
0.0
  0
SPLINE
  5
117
100
AcDbEntity
  8
Capa_1
 62
7
100
AcDbSpline
 70
8
 71
3
 72
8
 73
4
 74
0
 40
0
 40
0
 40
0
 40
0
 40
1
 40
1
 40
1
 40
1
 10
661.182080
 20
362.085550
 30
0.0
 10
655.626909
 20
367.640720
 30
0.0
 10
648.092464
 20
370.761556
 30
0.0
 10
640.236266
 20
370.761497
 30
0.0
  0
LWPOLYLINE
  5
118
100
AcDbEntity
  8
Capa_1
 62
7
100
AcDbPolyline
 90
6
 70
1
 10
565.236275
 20
416.139743
 30
0.0
 10
565.236275
 20
331.611430
 30
0.0
 10
715.236258
 20
331.611430
 30
0.0
 10
715.236258
 20
416.139743
 30
0.0
 10
565.236275
 20
416.139743
 30
0.0
 10
565.236275
 20
416.139743
 30
0.0
  0
LWPOLYLINE
  5
119
100
AcDbEntity
  8
Capa_1
 62
7
100
AcDbPolyline
 90
2
 70
1
 10
640.236266
 20
370.761497
 30
0.0
 10
640.236266
 20
370.761497
 30
0.0
  0
ENDSEC
  0
SECTION
  2
OBJECTS
  0
DICTIONARY
  5
C
330
0
100
AcDbDictionary
  3
ACAD_GROUP
350
D
  3
ACAD_MLINESTYLE
350
17
  0
DICTIONARY
  5
D
330
C
100
AcDbDictionary
  0
DICTIONARY
  5
1A
330
C
100
AcDbDictionary
  0
DICTIONARY
  5
17
330
C
100
AcDbDictionary
  3
STANDARD
350
18
  0
DICTIONARY
  5
19
330
C
100
AcDbDictionary
  0
ENDSEC
  0
EOF
