  0
SECTION
  2
HEADER
  9
$ACADVER
  1
AC1014
  9
$HANDSEED
  5
FFFF
  9
$MEASUREMENT
 70
     1
  0
ENDSEC
  0
SECTION
  2
TABLES
  0
TABLE
  2
VPORT
  5
8
330
0
100
AcDbSymbolTable
 70
     4
  0
VPORT
  5
2E
330
8
100
AcDbSymbolTableRecord
100
AcDbViewportTableRecord
  2
*ACTIVE
 70
     0
 10
0.0
 20
0.0
 11
1.0
 21
1.0
 12
210.0
 22
148.5
 13
0.0
 23
0.0
 14
10.0
 24
10.0
 15
10.0
 25
10.0
 16
0.0
 26
0.0
 36
1.0
 17
0.0
 27
0.0
 37
0.0
 40
341.0
 41
1.24
 42
50.0
 43
0.0
 44
0.0
 50
0.0
 51
0.0
 71
     0
 72
   100
 73
     1
 74
     3
 75
     0
 76
     0
 77
     0
 78
     0
  0
ENDTAB
  0
TABLE
  2
LTYPE
  5
5
330
0
100
AcDbSymbolTable
 70
     1
  0
LTYPE
  5
14
330
5
100
AcDbSymbolTableRecord
100
AcDbLinetypeTableRecord
  2
BYBLOCK
 70
     0
  3

 72
    65
 73
     0
 40
0.0
  0
LTYPE
  5
15
330
5
100
AcDbSymbolTableRecord
100
AcDbLinetypeTableRecord
  2
BYLAYER
 70
     0
  3

 72
    65
 73
     0
 40
0.0
  0
LTYPE
  5
16
330
5
100
AcDbSymbolTableRecord
100
AcDbLinetypeTableRecord
  2
CONTINUOUS
 70
     0
  3
Solid line
 72
    65
 73
     0
 40
0.0
  0
ENDTAB
  0
TABLE
  2
LAYER
  5
2
100
AcDbSymbolTable
 70
2
  0
LAYER
  5
50
100
AcDbSymbolTableRecord
100
AcDbLayerTableRecord
  2
0
 70
0
  6
CONTINUOUS
  0
LAYER
  5
51
100
AcDbSymbolTableRecord
100
AcDbLayerTableRecord
  2
Capa_1
 70
0
  6
CONTINUOUS
  0
ENDTAB
  0
TABLE
  2
STYLE
  5
3
330
0
100
AcDbSymbolTable
 70
     1
  0
STYLE
  5
11
330
3
100
AcDbSymbolTableRecord
100
AcDbTextStyleTableRecord
  2
STANDARD
 70
     0
 40
0.0
 41
1.0
 50
0.0
 71
     0
 42
2.5
  3
txt
  4

  0
ENDTAB
  0
TABLE
  2
VIEW
  5
6
330
0
100
AcDbSymbolTable
 70
     0
  0
ENDTAB
  0
TABLE
  2
UCS
  5
7
330
0
100
AcDbSymbolTable
 70
     0
  0
ENDTAB
  0
TABLE
  2
APPID
  5
9
330
0
100
AcDbSymbolTable
 70
     2
  0
APPID
  5
12
330
9
100
AcDbSymbolTableRecord
100
AcDbRegAppTableRecord
  2
ACAD
 70
     0
  0
ENDTAB
  0
TABLE
  2
DIMSTYLE
  5
A
330
0
100
AcDbSymbolTable
 70
     1
  0
DIMSTYLE
105
27
330
A
100
AcDbSymbolTableRecord
100
AcDbDimStyleTableRecord
  2
ISO-25
 70
     0
  3

  4

  5

  6

  7

 40
1.0
 41
2.5
 42
0.625
 43
3.75
 44
1.25
 45
0.0
 46
0.0
 47
0.0
 48
0.0
140
2.5
141
2.5
142
0.0
143
0.03937007874016
144
1.0
145
0.0
146
1.0
147
0.625
 71
     0
 72
     0
 73
     0
 74
     0
 75
     0
 76
     0
 77
     1
 78
     8
170
     0
171
     3
172
     1
173
     0
174
     0
175
     0
176
     0
177
     0
178
     0
270
     2
271
     2
272
     2
273
     2
274
     3
340
11
275
     0
280
     0
281
     0
282
     0
283
     0
284
     8
285
     0
286
     0
287
     3
288
     0
  0
ENDTAB
  0
TABLE
  2
BLOCK_RECORD
  5
1
330
0
100
AcDbSymbolTable
 70
     1
  0
BLOCK_RECORD
  5
1F
330
1
100
AcDbSymbolTableRecord
100
AcDbBlockTableRecord
  2
*MODEL_SPACE
  0
BLOCK_RECORD
  5
1B
330
1
100
AcDbSymbolTableRecord
100
AcDbBlockTableRecord
  2
*PAPER_SPACE
  0
ENDTAB
  0
ENDSEC
  0
SECTION
  2
BLOCKS
  0
BLOCK
  5
20
330
1F
100
AcDbEntity
  8
0
100
AcDbBlockBegin
  2
*MODEL_SPACE
 70
     0
 10
0.0
 20
0.0
 30
0.0
  3
*MODEL_SPACE
  1

  0
ENDBLK
  5
21
330
1F
100
AcDbEntity
  8
0
100
AcDbBlockEnd
  0
BLOCK
  5
1C
330
1B
100
AcDbEntity
 67
     1
  8
0
100
AcDbBlockBegin
  2
*PAPER_SPACE
  1

  0
ENDBLK
  5
1D
330
1B
100
AcDbEntity
 67
     1
  8
0
100
AcDbBlockEnd
  0
ENDSEC
  0
SECTION
  2
ENTITIES
  0
LINE
  5
100
100
AcDbEntity
  8
Capa_1
 62
7
100
AcDbLine
 10
40.240379
 20
99.636023
 30
0.0
 11
40.009081
 21
99.218226
 31
0.0
  0
LINE
  5
101
100
AcDbEntity
  8
Capa_1
 62
7
100
AcDbLine
 10
40.009081
 20
99.218226
 30
0.0
 11
39.187907
 21
99.218226
 31
0.0
  0
LINE
  5
102
100
AcDbEntity
  8
Capa_1
 62
7
100
AcDbLine
 10
32.686574
 20
86.318201
 30
0.0
 11
33.354309
 21
86.266210
 31
0.0
  0
LINE
  5
103
100
AcDbEntity
  8
Capa_1
 62
7
100
AcDbLine
 10
33.354309
 20
86.266210
 30
0.0
 11
32.751353
 21
85.067779
 31
0.0
  0
SPLINE
  5
104
100
AcDbEntity
  8
Capa_1
 62
7
100
AcDbSpline
 70
0
 71
3
 72
421
 73
417
 74
415
 40
0.000000
 40
0.000000
 40
0.000000
 40
0.000000
 40
0.020458
 40
0.040920
 40
0.061367
 40
0.081596
 40
0.101842
 40
0.122098
 40
0.142236
 40
0.162358
 40
0.182457
 40
0.312937
 40
0.444855
 40
0.577752
 40
0.741928
 40
0.904956
 40
1.067829
 40
1.240689
 40
1.413718
 40
1.586428
 40
2.037852
 40
2.492822
 40
2.951212
 40
3.714474
 40
4.472226
 40
5.225595
 40
6.359619
 40
7.500325
 40
8.663331
 40
9.471266
 40
10.263828
 40
11.009668
 40
11.609249
 40
12.247123
 40
13.023741
 40
13.443059
 40
13.792566
 40
14.023458
 40
14.085190
 40
14.153081
 40
14.222654
 40
14.373623
 40
14.523449
 40
14.675002
 40
14.894903
 40
15.112636
 40
15.329436
 40
15.695240
 40
16.063096
 40
16.431751
 40
16.936429
 40
17.440091
 40
17.943599
 40
18.697432
 40
19.451514
 40
20.205463
 40
20.644233
 40
21.083083
 40
21.522334
 40
21.898457
 40
22.274239
 40
22.648837
 40
22.878561
 40
23.109010
 40
23.341671
 40
24.055712
 40
24.762841
 40
25.467131
 40
25.910993
 40
26.347364
 40
26.752522
 40
27.285982
 40
27.877748
 40
28.493203
 40
28.876240
 40
29.243610
 40
29.606421
 40
30.150452
 40
30.701256
 40
31.252021
 40
32.095461
 40
32.938978
 40
33.799630
 40
34.674318
 40
35.532000
 40
36.322654
 40
36.787200
 40
37.294286
 40
37.934007
 40
38.229077
 40
38.470502
 40
38.601612
 40
38.685458
 40
38.799906
 40
38.927027
 40
39.221383
 40
39.485614
 40
39.741945
 40
40.116836
 40
40.503232
 40
40.893482
 40
41.643087
 40
42.385212
 40
43.126455
 40
43.617616
 40
44.109345
 40
44.600836
 40
44.990440
 40
45.380033
 40
45.769269
 40
46.008717
 40
46.248029
 40
46.486831
 40
46.733670
 40
46.981030
 40
47.230502
 40
47.413695
 40
47.595305
 40
47.774476
 40
47.913910
 40
48.054852
 40
48.196468
 40
48.361434
 40
48.525642
 40
48.689973
 40
48.850062
 40
49.010028
 40
49.169415
 40
49.377295
 40
49.586227
 40
49.795904
 40
50.113944
 40
50.430928
 40
50.747657
 40
51.210693
 40
51.674112
 40
52.137692
 40
52.561751
 40
52.985671
 40
53.409535
 40
53.796969
 40
54.184457
 40
54.571979
 40
54.908795
 40
55.245576
 40
55.582309
 40
56.138865
 40
56.695678
 40
57.252644
 40
57.794827
 40
58.336852
 40
58.879054
 40
59.347159
 40
59.815086
 40
60.282525
 40
61.201999
 40
62.124487
 40
63.048861
 40
64.162287
 40
65.273604
 40
66.384085
 40
67.725350
 40
69.067646
 40
70.410646
 40
70.623347
 40
70.835936
 40
71.048375
 40
71.204707
 40
71.361095
 40
71.518285
 40
71.585818
 40
71.652797
 40
71.718810
 40
71.758689
 40
71.798977
 40
71.839488
 40
71.931463
 40
72.022982
 40
72.114397
 40
72.238140
 40
72.362026
 40
72.485986
 40
73.146169
 40
73.805970
 40
74.465451
 40
75.115949
 40
75.766794
 40
76.417742
 40
77.133660
 40
77.849473
 40
78.565376
 40
79.503780
 40
80.442164
 40
81.380668
 40
82.272577
 40
83.164375
 40
84.055584
 40
84.954043
 40
85.853048
 40
86.752927
 40
86.942659
 40
87.132182
 40
87.321281
 40
87.463833
 40
87.606708
 40
87.750653
 40
87.818155
 40
87.885137
 40
87.951266
 40
88.026728
 40
88.103213
 40
88.180214
 40
88.342575
 40
88.504231
 40
88.665824
 40
88.878182
 40
89.090673
 40
89.303252
 40
90.449944
 40
91.596174
 40
92.741817
 40
93.731444
 40
94.721585
 40
95.712760
 40
96.538016
 40
97.362348
 40
98.185548
 40
99.115805
 40
100.047967
 40
100.980686
 40
102.007567
 40
103.034023
 40
104.060062
 40
105.225325
 40
106.391102
 40
107.557536
 40
108.021286
 40
108.484643
 40
108.947550
 40
109.264244
 40
109.581243
 40
109.899317
 40
110.109001
 40
110.317927
 40
110.525797
 40
110.685181
 40
110.845147
 40
111.005238
 40
111.169569
 40
111.333773
 40
111.498736
 40
111.640352
 40
111.781296
 40
111.920732
 40
112.099908
 40
112.281513
 40
112.464697
 40
112.714171
 40
112.961532
 40
113.208372
 40
113.447174
 40
113.686485
 40
113.925935
 40
114.315168
 40
114.704761
 40
115.094365
 40
115.585857
 40
116.077586
 40
116.568746
 40
117.309989
 40
118.052113
 40
118.801717
 40
119.191982
 40
119.578391
 40
119.953295
 40
120.209652
 40
120.473910
 40
120.768298
 40
120.895447
 40
121.009919
 40
121.093784
 40
121.224906
 40
121.466328
 40
121.761387
 40
122.401092
 40
122.908182
 40
123.372740
 40
124.163403
 40
125.021080
 40
125.895762
 40
126.756414
 40
127.599933
 40
128.443376
 40
128.994141
 40
129.544945
 40
130.088976
 40
130.451784
 40
130.819150
 40
131.202181
 40
131.817641
 40
132.409418
 40
132.942903
 40
133.348117
 40
133.784542
 40
134.228458
 40
134.932764
 40
135.639910
 40
136.353965
 40
136.586626
 40
136.817076
 40
137.046803
 40
137.421400
 40
137.797182
 40
138.173305
 40
138.612556
 40
139.051405
 40
139.490175
 40
140.244125
 40
140.998207
 40
141.752038
 40
142.255547
 40
142.759209
 40
143.263886
 40
143.632543
 40
144.000400
 40
144.366204
 40
144.582982
 40
144.800696
 40
145.020584
 40
145.172099
 40
145.321884
 40
145.472805
 40
145.542357
 40
145.610214
 40
145.671924
 40
145.902813
 40
146.252324
 40
146.671654
 40
147.448286
 40
148.086157
 40
148.685730
 40
149.431560
 40
150.224120
 40
151.032065
 40
152.195104
 40
153.335825
 40
154.469798
 40
155.223097
 40
155.980822
 40
156.744179
 40
157.202689
 40
157.657702
 40
158.109010
 40
158.281654
 40
158.454665
 40
158.627578
 40
158.790522
 40
158.953560
 40
159.117784
 40
159.250923
 40
159.383027
 40
159.512543
 40
159.812176
 40
160.127133
 40
160.451805
 40
160.935624
 40
161.406039
 40
161.874015
 40
162.533214
 40
163.195954
 40
163.860255
 40
165.562950
 40
167.264033
 40
168.965680
 40
170.706419
 40
172.446535
 40
174.187239
 40
175.785061
 40
177.382275
 40
178.979127
 40
180.251391
 40
181.523359
 40
182.796137
 40
183.906315
 40
185.015423
 40
186.122088
 40
187.197249
 40
188.274591
 40
189.350842
 40
190.612433
 40
191.875563
 40
193.141226
 40
194.867600
 40
196.590639
 40
198.313156
 40
200.261830
 40
202.211147
 40
204.158687
 40
205.331353
 40
206.505000
 40
207.682551
 40
208.936263
 40
210.185596
 40
211.418621
 40
212.189461
 40
212.969075
 40
213.792555
 40
213.940637
 40
214.079036
 40
214.207843
 40
214.268122
 40
214.329587
 40
214.388908
 40
214.508788
 40
214.640593
 40
214.785388
 40
214.785388
 40
214.785388
 40
214.785388
 10
98.386858
 20
131.992910
 30
0.0
 10
98.380045
 20
131.992611
 30
0.0
 10
98.366418
 20
131.992012
 30
0.0
 10
98.345997
 20
131.990798
 30
0.0
 10
98.325669
 20
131.989346
 30
0.0
 10
98.305460
 20
131.987310
 30
0.0
 10
98.285391
 20
131.984636
 30
0.0
 10
98.265417
 20
131.981526
 30
0.0
 10
98.245551
 20
131.978020
 30
0.0
 10
98.225826
 20
131.974038
 30
0.0
 10
98.170398
 20
131.961155
 30
0.0
 10
98.081489
 20
131.927985
 30
0.0
 10
97.967294
 20
131.861436
 30
0.0
 10
97.853055
 20
131.775068
 30
0.0
 10
97.739228
 20
131.671952
 30
0.0
 10
97.628662
 20
131.551401
 30
0.0
 10
97.526878
 20
131.419730
 30
0.0
 10
97.433756
 20
131.277793
 30
0.0
 10
97.350173
 20
131.126287
 30
0.0
 10
97.239348
 20
130.884532
 30
0.0
 10
97.133955
 20
130.538565
 30
0.0
 10
97.062709
 20
130.088469
 30
0.0
 10
97.020267
 20
129.530979
 30
0.0
 10
96.995832
 20
128.871461
 30
0.0
 10
96.996466
 20
128.113193
 30
0.0
 10
97.020321
 20
127.231755
 30
0.0
 10
97.065881
 20
126.223342
 30
0.0
 10
97.141846
 20
125.079867
 30
0.0
 10
97.230962
 20
124.046436
 30
0.0
 10
97.323440
 20
123.129874
 30
0.0
 10
97.387148
 20
122.350412
 30
0.0
 10
97.408898
 20
121.636951
 30
0.0
 10
97.363633
 20
120.977267
 30
0.0
 10
97.346192
 20
120.305043
 30
0.0
 10
97.432775
 20
119.695969
 30
0.0
 10
97.530341
 20
119.193823
 30
0.0
 10
97.610706
 20
118.861912
 30
0.0
 10
97.464145
 20
118.642240
 30
0.0
 10
97.340728
 20
118.639547
 30
0.0
 10
97.274911
 20
118.646024
 30
0.0
 10
97.181071
 20
118.669146
 30
0.0
 10
97.069904
 20
118.727164
 30
0.0
 10
96.956583
 20
118.827659
 30
0.0
 10
96.839153
 20
118.955717
 30
0.0
 10
96.703409
 20
119.097671
 30
0.0
 10
96.552724
 20
119.255403
 30
0.0
 10
96.373758
 20
119.453358
 30
0.0
 10
96.178581
 20
119.703444
 30
0.0
 10
95.974072
 20
120.008990
 30
0.0
 10
95.763552
 20
120.365336
 30
0.0
 10
95.549449
 20
120.771563
 30
0.0
 10
95.334214
 20
121.227363
 30
0.0
 10
95.100131
 20
121.765729
 30
0.0
 10
94.846781
 20
122.386556
 30
0.0
 10
94.574242
 20
123.089547
 30
0.0
 10
94.344557
 20
123.696474
 30
0.0
 10
94.151475
 20
124.204902
 30
0.0
 10
93.994658
 20
124.614893
 30
0.0
 10
93.843787
 20
125.004798
 30
0.0
 10
93.698656
 20
125.374377
 30
0.0
 10
93.558603
 20
125.722788
 30
0.0
 10
93.433266
 20
126.024503
 30
0.0
 10
93.323380
 20
126.280147
 30
0.0
 10
93.229816
 20
126.491301
 30
0.0
 10
93.066346
 20
126.847990
 30
0.0
 10
92.822234
 20
127.342849
 30
0.0
 10
92.412179
 20
127.927727
 30
0.0
 10
91.907104
 20
128.310571
 30
0.0
 10
91.400714
 20
128.478086
 30
0.0
 10
90.970493
 20
128.517080
 30
0.0
 10
90.508565
 20
128.414699
 30
0.0
 10
90.131577
 20
128.031905
 30
0.0
 10
89.908080
 20
127.491587
 30
0.0
 10
89.787104
 20
126.974343
 30
0.0
 10
89.715223
 20
126.524633
 30
0.0
 10
89.675196
 20
126.155574
 30
0.0
 10
89.646437
 20
125.731747
 30
0.0
 10
89.628821
 20
125.246098
 30
0.0
 10
89.623413
 20
124.697552
 30
0.0
 10
89.628152
 20
124.049217
 30
0.0
 10
89.641734
 20
123.303416
 30
0.0
 10
89.667177
 20
122.454576
 30
0.0
 10
89.701012
 20
121.595619
 30
0.0
 10
89.740660
 20
120.732169
 30
0.0
 10
89.771327
 20
119.891762
 30
0.0
 10
89.778738
 20
119.187139
 30
0.0
 10
89.756477
 20
118.600243
 30
0.0
 10
89.738867
 20
118.062760
 30
0.0
 10
89.754305
 20
117.584072
 30
0.0
 10
89.756866
 20
117.188330
 30
0.0
 10
89.777910
 20
116.973754
 30
0.0
 10
89.668890
 20
116.809758
 30
0.0
 10
89.557873
 20
116.871068
 30
0.0
 10
89.475683
 20
116.934337
 30
0.0
 10
89.345390
 20
117.059882
 30
0.0
 10
89.199188
 20
117.235540
 30
0.0
 10
89.059515
 20
117.469698
 30
0.0
 10
88.928344
 20
117.737733
 30
0.0
 10
88.774121
 20
118.039902
 30
0.0
 10
88.597615
 20
118.380742
 30
0.0
 10
88.365744
 20
118.833604
 30
0.0
 10
88.092913
 20
119.398544
 30
0.0
 10
87.770636
 20
120.069464
 30
0.0
 10
87.468995
 20
120.654694
 30
0.0
 10
87.181693
 20
121.152684
 30
0.0
 10
86.911403
 20
121.563592
 30
0.0
 10
86.629503
 20
121.924938
 30
0.0
 10
86.339003
 20
122.233871
 30
0.0
 10
86.048361
 20
122.493890
 30
0.0
 10
85.775103
 20
122.696199
 30
0.0
 10
85.529371
 20
122.849220
 30
0.0
 10
85.319704
 20
122.964548
 30
0.0
 10
85.102636
 20
123.070913
 30
0.0
 10
84.878879
 20
123.169217
 30
0.0
 10
84.648189
 20
123.260109
 30
0.0
 10
84.434574
 20
123.335996
 30
0.0
 10
84.239924
 20
123.399747
 30
0.0
 10
84.063419
 20
123.442584
 30
0.0
 10
83.896430
 20
123.458444
 30
0.0
 10
83.743299
 20
123.444390
 30
0.0
 10
83.605714
 20
123.413852
 30
0.0
 10
83.463672
 20
123.367773
 30
0.0
 10
83.318288
 20
123.308273
 30
0.0
 10
83.171211
 20
123.234232
 30
0.0
 10
83.031400
 20
123.150422
 30
0.0
 10
82.898718
 20
123.058176
 30
0.0
 10
82.774922
 20
122.956807
 30
0.0
 10
82.649593
 20
122.833162
 30
0.0
 10
82.530320
 20
122.681918
 30
0.0
 10
82.418917
 20
122.504994
 30
0.0
 10
82.303029
 20
122.288392
 30
0.0
 10
82.182275
 20
122.033895
 30
0.0
 10
82.059671
 20
121.741200
 30
0.0
 10
81.929843
 20
121.399403
 30
0.0
 10
81.792686
 20
121.008318
 30
0.0
 10
81.647626
 20
120.568255
 30
0.0
 10
81.509769
 20
120.139521
 30
0.0
 10
81.374256
 20
119.723864
 30
0.0
 10
81.238974
 20
119.322069
 30
0.0
 10
81.101602
 20
118.933897
 30
0.0
 10
80.960697
 20
118.559939
 30
0.0
 10
80.816566
 20
118.200230
 30
0.0
 10
80.671089
 20
117.859331
 30
0.0
 10
80.525064
 20
117.537145
 30
0.0
 10
80.378935
 20
117.233685
 30
0.0
 10
80.191528
 20
116.868942
 30
0.0
 10
79.954447
 20
116.447509
 30
0.0
 10
79.661460
 20
115.973893
 30
0.0
 10
79.354268
 20
115.515165
 30
0.0
 10
79.036193
 20
115.069972
 30
0.0
 10
78.705926
 20
114.639891
 30
0.0
 10
78.374868
 20
114.242018
 30
0.0
 10
78.044485
 20
113.876265
 30
0.0
 10
77.715486
 20
113.543406
 30
0.0
 10
77.258144
 20
113.126880
 30
0.0
 10
76.643565
 20
112.660484
 30
0.0
 10
75.857336
 20
112.176604
 30
0.0
 10
74.979271
 20
111.724846
 30
0.0
 10
74.016588
 20
111.304487
 30
0.0
 10
72.971388
 20
110.923771
 30
0.0
 10
71.834287
 20
110.579034
 30
0.0
 10
70.605847
 20
110.276181
 30
0.0
 10
69.290666
 20
110.007325
 30
0.0
 10
68.340102
 20
109.835188
 30
0.0
 10
67.759797
 20
109.731866
 30
0.0
 10
67.550196
 20
109.696402
 30
0.0
 10
67.358602
 20
109.667214
 30
0.0
 10
67.185027
 20
109.644492
 30
0.0
 10
67.030308
 20
109.619808
 30
0.0
 10
66.906455
 20
109.590438
 30
0.0
 10
66.814026
 20
109.560216
 30
0.0
 10
66.749787
 20
109.541640
 30
0.0
 10
66.692532
 20
109.532610
 30
0.0
 10
66.643693
 20
109.533385
 30
0.0
 10
66.603679
 20
109.537839
 30
0.0
 10
66.546901
 20
109.547561
 30
0.0
 10
66.473895
 20
109.563414
 30
0.0
 10
66.385309
 20
109.586932
 30
0.0
 10
66.287241
 20
109.615802
 30
0.0
 10
66.179143
 20
109.648778
 30
0.0
 10
66.060926
 20
109.685749
 30
0.0
 10
65.772307
 20
109.776918
 30
0.0
 10
65.312735
 20
109.919993
 30
0.0
 10
64.679230
 20
110.104679
 30
0.0
 10
64.043614
 20
110.269902
 30
0.0
 10
63.404755
 20
110.408771
 30
0.0
 10
62.764165
 20
110.524082
 30
0.0
 10
62.098664
 20
110.622026
 30
0.0
 10
61.409051
 20
110.702801
 30
0.0
 10
60.695879
 20
110.765994
 30
0.0
 10
59.907334
 20
110.815653
 30
0.0
 10
59.043535
 20
110.847291
 30
0.0
 10
58.104902
 20
110.849549
 30
0.0
 10
57.182312
 20
110.816156
 30
0.0
 10
56.277419
 20
110.745144
 30
0.0
 10
55.392088
 20
110.636847
 30
0.0
 10
54.510476
 20
110.487468
 30
0.0
 10
53.634972
 20
110.294404
 30
0.0
 10
52.765140
 20
110.066141
 30
0.0
 10
52.129187
 20
109.878895
 30
0.0
 10
51.721653
 20
109.753546
 30
0.0
 10
51.540394
 20
109.698432
 30
0.0
 10
51.373647
 20
109.649670
 30
0.0
 10
51.221130
 20
109.607711
 30
0.0
 10
51.082269
 20
109.572959
 30
0.0
 10
50.966803
 20
109.548018
 30
0.0
 10
50.875527
 20
109.531099
 30
0.0
 10
50.809062
 20
109.523132
 30
0.0
 10
50.739272
 20
109.522685
 30
0.0
 10
50.667322
 20
109.535108
 30
0.0
 10
50.593899
 20
109.555990
 30
0.0
 10
50.493453
 20
109.587573
 30
0.0
 10
50.363095
 20
109.618051
 30
0.0
 10
50.203377
 20
109.644554
 30
0.0
 10
50.026560
 20
109.669291
 30
0.0
 10
49.833417
 20
109.699495
 30
0.0
 10
49.623918
 20
109.734950
 30
0.0
 10
49.107946
 20
109.825867
 30
0.0
 10
48.285909
 20
109.973477
 30
0.0
 10
47.161617
 20
110.197004
 30
0.0
 10
46.095814
 20
110.444320
 30
0.0
 10
45.091434
 20
110.722145
 30
0.0
 10
44.148756
 20
111.026658
 30
0.0
 10
43.272508
 20
111.355387
 30
0.0
 10
42.463127
 20
111.702275
 30
0.0
 10
41.724779
 20
112.069966
 30
0.0
 10
40.984857
 20
112.508750
 30
0.0
 10
40.260472
 20
113.037300
 30
0.0
 10
39.561614
 20
113.655373
 30
0.0
 10
38.897550
 20
114.355676
 30
0.0
 10
38.277677
 20
115.136117
 30
0.0
 10
37.707930
 20
115.991213
 30
0.0
 10
37.181457
 20
116.926747
 30
0.0
 10
36.704185
 20
117.939920
 30
0.0
 10
36.272489
 20
119.023432
 30
0.0
 10
35.966761
 20
119.904084
 30
0.0
 10
35.751450
 20
120.567879
 30
0.0
 10
35.607109
 20
121.008165
 30
0.0
 10
35.470967
 20
121.399529
 30
0.0
 10
35.341338
 20
121.741354
 30
0.0
 10
35.218627
 20
122.034012
 30
0.0
 10
35.097729
 20
122.288460
 30
0.0
 10
34.981813
 20
122.505059
 30
0.0
 10
34.870426
 20
122.681988
 30
0.0
 10
34.751178
 20
122.833245
 30
0.0
 10
34.625852
 20
122.956887
 30
0.0
 10
34.502055
 20
123.058256
 30
0.0
 10
34.369373
 20
123.150501
 30
0.0
 10
34.229562
 20
123.234308
 30
0.0
 10
34.082487
 20
123.308351
 30
0.0
 10
33.937105
 20
123.367848
 30
0.0
 10
33.795064
 20
123.413932
 30
0.0
 10
33.657479
 20
123.444465
 30
0.0
 10
33.504343
 20
123.458540
 30
0.0
 10
33.337362
 20
123.442579
 30
0.0
 10
33.160850
 20
123.399805
 30
0.0
 10
32.966192
 20
123.336085
 30
0.0
 10
32.752584
 20
123.260186
 30
0.0
 10
32.521892
 20
123.169297
 30
0.0
 10
32.298134
 20
123.070992
 30
0.0
 10
32.081066
 20
122.964627
 30
0.0
 10
31.871399
 20
122.849301
 30
0.0
 10
31.625668
 20
122.696278
 30
0.0
 10
31.352410
 20
122.493971
 30
0.0
 10
31.061769
 20
122.233950
 30
0.0
 10
30.771270
 20
121.925017
 30
0.0
 10
30.489369
 20
121.563671
 30
0.0
 10
30.219079
 20
121.152763
 30
0.0
 10
29.931777
 20
120.654774
 30
0.0
 10
29.630144
 20
120.069540
 30
0.0
 10
29.307872
 20
119.398618
 30
0.0
 10
29.035033
 20
118.833677
 30
0.0
 10
28.803145
 20
118.380813
 30
0.0
 10
28.626612
 20
118.039972
 30
0.0
 10
28.472351
 20
117.737804
 30
0.0
 10
28.341123
 20
117.469772
 30
0.0
 10
28.201393
 20
117.235615
 30
0.0
 10
28.055148
 20
117.059956
 30
0.0
 10
27.924815
 20
116.934410
 30
0.0
 10
27.842596
 20
116.871142
 30
0.0
 10
27.731553
 20
116.809836
 30
0.0
 10
27.622538
 20
116.973842
 30
0.0
 10
27.643573
 20
117.188418
 30
0.0
 10
27.646130
 20
117.584149
 30
0.0
 10
27.661581
 20
118.062829
 30
0.0
 10
27.643969
 20
118.600312
 30
0.0
 10
27.621700
 20
119.187217
 30
0.0
 10
27.629114
 20
119.891845
 30
0.0
 10
27.659788
 20
120.732251
 30
0.0
 10
27.699447
 20
121.595697
 30
0.0
 10
27.733291
 20
122.454653
 30
0.0
 10
27.758753
 20
123.303493
 30
0.0
 10
27.772380
 20
124.049296
 30
0.0
 10
27.777185
 20
124.697630
 30
0.0
 10
27.771835
 20
125.246177
 30
0.0
 10
27.754272
 20
125.731827
 30
0.0
 10
27.725554
 20
126.155655
 30
0.0
 10
27.685558
 20
126.524712
 30
0.0
 10
27.613693
 20
126.974424
 30
0.0
 10
27.492701
 20
127.491669
 30
0.0
 10
27.269162
 20
128.031987
 30
0.0
 10
26.892137
 20
128.414779
 30
0.0
 10
26.430167
 20
128.517178
 30
0.0
 10
25.999891
 20
128.478183
 30
0.0
 10
25.493461
 20
128.310652
 30
0.0
 10
24.988355
 20
127.927805
 30
0.0
 10
24.578268
 20
127.342930
 30
0.0
 10
24.334130
 20
126.848072
 30
0.0
 10
24.170653
 20
126.491381
 30
0.0
 10
24.077084
 20
126.280227
 30
0.0
 10
23.967195
 20
126.024583
 30
0.0
 10
23.841858
 20
125.722868
 30
0.0
 10
23.701805
 20
125.374457
 30
0.0
 10
23.556677
 20
125.004876
 30
0.0
 10
23.405807
 20
124.614972
 30
0.0
 10
23.248992
 20
124.204981
 30
0.0
 10
23.055908
 20
123.696553
 30
0.0
 10
22.826223
 20
123.089626
 30
0.0
 10
22.553682
 20
122.386636
 30
0.0
 10
22.300330
 20
121.765810
 30
0.0
 10
22.066252
 20
121.227443
 30
0.0
 10
21.851018
 20
120.771642
 30
0.0
 10
21.636915
 20
120.365414
 30
0.0
 10
21.426392
 20
120.009069
 30
0.0
 10
21.221882
 20
119.703523
 30
0.0
 10
21.026713
 20
119.453440
 30
0.0
 10
20.847758
 20
119.255493
 30
0.0
 10
20.697096
 20
119.097765
 30
0.0
 10
20.561393
 20
118.955802
 30
0.0
 10
20.444013
 20
118.827745
 30
0.0
 10
20.330755
 20
118.727227
 30
0.0
 10
20.219614
 20
118.669270
 30
0.0
 10
20.125836
 20
118.646034
 30
0.0
 10
20.060036
 20
118.639610
 30
0.0
 10
19.936648
 20
118.642344
 30
0.0
 10
19.790063
 20
118.861960
 30
0.0
 10
19.870450
 20
119.193901
 30
0.0
 10
19.968024
 20
119.696042
 30
0.0
 10
20.054620
 20
120.305129
 30
0.0
 10
20.037175
 20
120.977353
 30
0.0
 10
19.991909
 20
121.637030
 30
0.0
 10
20.013648
 20
122.350485
 30
0.0
 10
20.077351
 20
123.129947
 30
0.0
 10
20.169829
 20
124.046522
 30
0.0
 10
20.258970
 20
125.079970
 30
0.0
 10
20.334947
 20
126.223444
 30
0.0
 10
20.380466
 20
127.231824
 30
0.0
 10
20.404221
 20
128.113216
 30
0.0
 10
20.404806
 20
128.871482
 30
0.0
 10
20.380437
 20
129.531062
 30
0.0
 10
20.338178
 20
130.088653
 30
0.0
 10
20.267018
 20
130.538781
 30
0.0
 10
20.161487
 20
130.884682
 30
0.0
 10
20.050386
 20
131.126237
 30
0.0
 10
19.966721
 20
131.277681
 30
0.0
 10
19.873765
 20
131.419752
 30
0.0
 10
19.772528
 20
131.551894
 30
0.0
 10
19.662217
 20
131.672763
 30
0.0
 10
19.547816
 20
131.775478
 30
0.0
 10
19.432213
 20
131.860302
 30
0.0
 10
19.317699
 20
131.925807
 30
0.0
 10
19.142583
 20
131.994375
 30
0.0
 10
18.887672
 20
132.006525
 30
0.0
 10
18.583161
 20
131.923349
 30
0.0
 10
18.244059
 20
131.761983
 30
0.0
 10
17.886974
 20
131.525773
 30
0.0
 10
17.532121
 20
131.209701
 30
0.0
 10
17.169846
 20
130.818904
 30
0.0
 10
16.788501
 20
130.359648
 30
0.0
 10
16.392961
 20
129.828371
 30
0.0
 10
15.825254
 20
128.992896
 30
0.0
 10
15.131637
 20
127.825707
 30
0.0
 10
14.375571
 20
126.299566
 30
0.0
 10
13.714913
 20
124.716441
 30
0.0
 10
13.136461
 20
123.087749
 30
0.0
 10
12.649695
 20
121.415589
 30
0.0
 10
12.276981
 20
119.763106
 30
0.0
 10
12.015180
 20
118.137710
 30
0.0
 10
11.870870
 20
116.545476
 30
0.0
 10
11.855245
 20
115.054916
 30
0.0
 10
11.952903
 20
113.676681
 30
0.0
 10
12.148793
 20
112.417785
 30
0.0
 10
12.451672
 20
111.235465
 30
0.0
 10
12.854184
 20
110.141213
 30
0.0
 10
13.346076
 20
109.145064
 30
0.0
 10
13.948473
 20
108.224492
 30
0.0
 10
14.661748
 20
107.401064
 30
0.0
 10
15.460676
 20
106.676475
 30
0.0
 10
16.384925
 20
106.008035
 30
0.0
 10
17.433109
 20
105.418170
 30
0.0
 10
18.586103
 20
104.899044
 30
0.0
 10
19.909743
 20
104.388566
 30
0.0
 10
21.390403
 20
103.860916
 30
0.0
 10
23.030489
 20
103.328899
 30
0.0
 10
24.755577
 20
102.821066
 30
0.0
 10
26.567022
 20
102.341864
 30
0.0
 10
28.463621
 20
101.894178
 30
0.0
 10
30.117395
 20
101.546163
 30
0.0
 10
31.523054
 20
101.276278
 30
0.0
 10
32.680522
 20
101.075815
 30
0.0
 10
33.869084
 20
100.897984
 30
0.0
 10
35.087155
 20
100.750698
 30
0.0
 10
36.323045
 20
100.597990
 30
0.0
 10
37.394783
 20
100.428134
 30
0.0
 10
38.301513
 20
100.231387
 30
0.0
 10
39.085849
 20
100.115540
 30
0.0
 10
39.674518
 20
100.132601
 30
0.0
 10
40.039618
 20
100.190448
 30
0.0
 10
40.179119
 20
100.196181
 30
0.0
 10
40.286328
 20
100.156146
 30
0.0
 10
40.345664
 20
100.096131
 30
0.0
 10
40.378736
 20
100.045279
 30
0.0
 10
40.407833
 20
99.969427
 30
0.0
 10
40.396320
 20
99.860617
 30
0.0
 10
40.327803
 20
99.745917
 30
0.0
 10
40.270406
 20
99.673848
 30
0.0
 10
40.240359
 20
99.636121
 30
0.0
 11
98.386858
 21
131.992910
 31
0.0
 11
98.366421
 21
131.991959
 31
0.0
 11
98.345995
 21
131.990757
 31
0.0
 11
98.325604
 21
131.989241
 31
0.0
 11
98.305479
 21
131.987203
 31
0.0
 11
98.285406
 21
131.984563
 31
0.0
 11
98.265389
 21
131.981452
 31
0.0
 11
98.245561
 21
131.977938
 31
0.0
 11
98.225839
 21
131.973941
 31
0.0
 11
98.206266
 21
131.969373
 31
0.0
 11
98.083618
 21
131.924849
 31
0.0
 11
97.969061
 21
131.859434
 31
0.0
 11
97.862509
 21
131.780010
 31
0.0
 11
97.740739
 21
131.669893
 31
0.0
 11
97.630384
 21
131.549894
 31
0.0
 11
97.530579
 21
131.421182
 31
0.0
 11
97.435676
 21
131.276703
 31
0.0
 11
97.352040
 21
131.125231
 31
0.0
 11
97.280072
 21
130.968229
 31
0.0
 11
97.144523
 21
130.537636
 31
0.0
 11
97.068982
 21
130.088982
 31
0.0
 11
97.030215
 21
129.632234
 31
0.0
 11
97.000599
 21
128.869547
 31
0.0
 11
96.999788
 21
128.111795
 31
0.0
 11
97.018701
 21
127.358663
 31
0.0
 11
97.069767
 21
126.225790
 31
0.0
 11
97.145048
 21
125.087571
 31
0.0
 11
97.244442
 21
123.928820
 31
0.0
 11
97.321380
 21
123.124556
 31
0.0
 11
97.381484
 21
122.334277
 31
0.0
 11
97.396743
 21
121.588593
 31
0.0
 11
97.368621
 21
120.989672
 31
0.0
 11
97.363466
 21
120.351819
 31
0.0
 11
97.457672
 21
119.580935
 31
0.0
 11
97.538695
 21
119.169520
 31
0.0
 11
97.555285
 21
118.820407
 31
0.0
 11
97.404750
 21
118.645335
 31
0.0
 11
97.343187
 21
118.640769
 31
0.0
 11
97.275637
 21
118.647567
 31
0.0
 11
97.208106
 21
118.664300
 31
0.0
 11
97.073322
 21
118.732307
 31
0.0
 11
96.958896
 21
118.829025
 31
0.0
 11
96.854233
 21
118.938634
 31
0.0
 11
96.702925
 21
119.098203
 31
0.0
 11
96.553234
 21
119.256317
 31
0.0
 11
96.408550
 21
119.417777
 31
0.0
 11
96.182618
 21
119.705469
 31
0.0
 11
95.977145
 21
120.010590
 31
0.0
 11
95.788821
 21
120.327514
 31
0.0
 11
95.552605
 21
120.773498
 31
0.0
 11
95.336570
 21
121.228475
 31
0.0
 11
95.134811
 21
121.689793
 31
0.0
 11
94.848871
 21
122.387290
 31
0.0
 11
94.575174
 21
123.089948
 31
0.0
 11
94.307200
 21
123.794668
 31
0.0
 11
94.151322
 21
124.204815
 31
0.0
 11
93.994441
 21
124.614666
 31
0.0
 11
93.835827
 21
125.024279
 31
0.0
 11
93.698147
 21
125.374298
 31
0.0
 11
93.557787
 21
125.722882
 31
0.0
 11
93.413868
 21
126.068730
 31
0.0
 11
93.323085
 21
126.279755
 31
0.0
 11
93.229676
 21
126.490425
 31
0.0
 11
93.132696
 21
126.701910
 31
0.0
 11
92.804954
 21
127.336291
 31
0.0
 11
92.383533
 21
127.904126
 31
0.0
 11
91.815751
 21
128.320835
 31
0.0
 11
91.394937
 21
128.462006
 31
0.0
 11
90.959763
 21
128.494314
 31
0.0
 11
90.567341
 21
128.393530
 31
0.0
 11
90.175767
 21
128.031244
 31
0.0
 11
89.926299
 21
127.494632
 31
0.0
 11
89.778318
 21
126.897233
 31
0.0
 11
89.717658
 21
126.519029
 31
0.0
 11
89.677506
 21
126.153861
 31
0.0
 11
89.652049
 21
125.791943
 31
0.0
 11
89.631281
 21
125.248309
 31
0.0
 11
89.624989
 21
124.697541
 31
0.0
 11
89.628229
 21
124.146785
 31
0.0
 11
89.643385
 21
123.303482
 31
0.0
 11
89.668314
 21
122.460333
 31
0.0
 11
89.701754
 21
121.600331
 31
0.0
 11
89.739535
 21
120.726459
 31
0.0
 11
89.768283
 21
119.869260
 31
0.0
 11
89.771844
 21
119.078613
 31
0.0
 11
89.757392
 21
118.614292
 31
0.0
 11
89.745168
 21
118.107354
 31
0.0
 11
89.754261
 21
117.467697
 31
0.0
 11
89.761745
 21
117.172722
 31
0.0
 11
89.739081
 21
116.932364
 31
0.0
 11
89.649752
 21
116.836395
 31
0.0
 11
89.571181
 21
116.865667
 31
0.0
 11
89.479397
 21
116.934033
 31
0.0
 11
89.387195
 21
117.021546
 31
0.0
 11
89.199252
 21
117.248092
 31
0.0
 11
89.061502
 21
117.473576
 31
0.0
 11
88.945184
 21
117.701995
 31
0.0
 11
88.775546
 21
118.036311
 31
0.0
 11
88.598466
 21
118.379741
 31
0.0
 11
88.421266
 21
118.727441
 31
0.0
 11
88.092071
 21
119.400894
 31
0.0
 11
87.767375
 21
120.068218
 31
0.0
 11
87.424607
 21
120.725448
 31
0.0
 11
87.177691
 21
121.150032
 31
0.0
 11
86.905944
 21
121.559850
 31
0.0
 11
86.602200
 21
121.946248
 31
0.0
 11
86.335079
 21
122.229863
 31
0.0
 11
86.044451
 21
122.489320
 31
0.0
 11
85.731353
 21
122.720564
 31
0.0
 11
85.528244
 21
122.847380
 31
0.0
 11
85.318689
 21
122.962953
 31
0.0
 11
85.104357
 21
123.068253
 31
0.0
 11
84.878428
 21
123.167681
 31
0.0
 11
84.648361
 21
123.258542
 31
0.0
 11
84.413358
 21
123.342269
 31
0.0
 11
84.238724
 21
123.397608
 31
0.0
 11
84.061772
 21
123.438476
 31
0.0
 11
83.883226
 21
123.453428
 31
0.0
 11
83.744300
 21
123.441539
 31
0.0
 11
83.606541
 21
123.411750
 31
0.0
 11
83.471645
 21
123.368645
 31
0.0
 11
83.318945
 21
123.306222
 31
0.0
 11
83.172224
 21
123.232487
 31
0.0
 11
83.031203
 21
123.148120
 31
0.0
 11
82.899942
 21
123.056472
 31
0.0
 11
82.776415
 21
122.954835
 31
0.0
 11
82.663244
 21
122.842600
 31
0.0
 11
82.533563
 21
122.680129
 31
0.0
 11
82.421188
 21
122.503992
 31
0.0
 11
82.321273
 21
122.319651
 31
0.0
 11
82.184376
 21
122.032582
 31
0.0
 11
82.061294
 21
121.740470
 31
0.0
 11
81.948198
 21
121.444621
 31
0.0
 11
81.794110
 21
121.007975
 31
0.0
 11
81.648181
 21
120.568132
 31
0.0
 11
81.505425
 21
120.127080
 31
0.0
 11
81.373596
 21
119.724033
 31
0.0
 11
81.237941
 21
119.322404
 31
0.0
 11
81.096149
 21
118.922959
 31
0.0
 11
80.959454
 21
118.560441
 31
0.0
 11
80.815242
 21
118.200789
 31
0.0
 11
80.663051
 21
117.844402
 31
0.0
 11
80.523877
 21
117.537685
 31
0.0
 11
80.377628
 21
117.234316
 31
0.0
 11
80.223606
 21
116.934873
 31
0.0
 11
79.951174
 21
116.449553
 31
0.0
 11
79.658675
 21
115.975754
 31
0.0
 11
79.349182
 21
115.512693
 31
0.0
 11
79.033653
 21
115.071781
 31
0.0
 11
78.703198
 21
114.642141
 31
0.0
 11
78.356087
 21
114.225610
 31
0.0
 11
78.041889
 21
113.878622
 31
0.0
 11
77.712527
 21
113.546241
 31
0.0
 11
77.366520
 21
113.231951
 31
0.0
 11
76.636063
 21
112.673502
 31
0.0
 11
75.852158
 21
112.187214
 31
0.0
 11
75.031538
 21
111.761714
 31
0.0
 11
74.011662
 21
111.314979
 31
0.0
 11
72.967928
 21
110.933346
 31
0.0
 11
71.905602
 21
110.609878
 31
0.0
 11
70.604274
 21
110.285013
 31
0.0
 11
69.289969
 21
110.012318
 31
0.0
 11
67.969164
 21
109.769172
 31
0.0
 11
67.759708
 21
109.732159
 31
0.0
 11
67.550051
 21
109.696968
 31
0.0
 11
67.339995
 21
109.665246
 31
0.0
 11
67.185144
 21
109.643770
 31
0.0
 11
67.030905
 21
109.617936
 31
0.0
 11
66.878211
 21
109.580611
 31
0.0
 11
66.813732
 21
109.560531
 31
0.0
 11
66.749112
 21
109.542913
 31
0.0
 11
66.683757
 21
109.533612
 31
0.0
 11
66.643880
 21
109.534010
 31
0.0
 11
66.603813
 21
109.538220
 31
0.0
 11
66.563847
 21
109.544845
 31
0.0
 11
66.473916
 21
109.564127
 31
0.0
 11
66.385388
 21
109.587334
 31
0.0
 11
66.297615
 21
109.612880
 31
0.0
 11
66.179232
 21
109.648902
 31
0.0
 11
66.060967
 21
109.685798
 31
0.0
 11
65.942738
 21
109.723054
 31
0.0
 11
65.312032
 21
109.918121
 31
0.0
 11
64.678255
 21
110.101600
 31
0.0
 11
64.039677
 21
110.266320
 31
0.0
 11
63.404117
 21
110.404923
 31
0.0
 11
62.763643
 21
110.520652
 31
0.0
 11
62.119693
 21
110.615847
 31
0.0
 11
61.408675
 21
110.699455
 31
0.0
 11
60.695684
 21
110.762959
 31
0.0
 11
59.981217
 21
110.808280
 31
0.0
 11
59.043417
 21
110.841942
 31
0.0
 11
58.105034
 21
110.843515
 31
0.0
 11
57.167170
 21
110.808845
 31
0.0
 11
56.278022
 21
110.738719
 31
0.0
 11
55.392873
 21
110.630034
 31
0.0
 11
54.514259
 21
110.480728
 31
0.0
 11
53.636564
 21
110.288686
 31
0.0
 11
52.766626
 21
110.061932
 31
0.0
 11
51.902972
 21
109.809177
 31
0.0
 11
51.721556
 21
109.753622
 31
0.0
 11
51.540162
 21
109.698714
 31
0.0
 11
51.358597
 21
109.645869
 31
0.0
 11
51.221091
 21
109.608272
 31
0.0
 11
51.082439
 21
109.573796
 31
0.0
 11
50.941701
 21
109.543580
 31
0.0
 11
50.875238
 21
109.531780
 31
0.0
 11
50.808668
 21
109.524364
 31
0.0
 11
50.742540
 21
109.524530
 31
0.0
 11
50.668005
 21
109.536333
 31
0.0
 11
50.594167
 21
109.556278
 31
0.0
 11
50.520425
 21
109.578443
 31
0.0
 11
50.362554
 21
109.616362
 31
0.0
 11
50.203258
 21
109.643879
 31
0.0
 11
50.043374
 21
109.667318
 31
0.0
 11
49.833534
 21
109.699925
 31
0.0
 11
49.623988
 21
109.735181
 31
0.0
 11
49.414599
 21
109.771870
 31
0.0
 11
48.286403
 21
109.976998
 31
0.0
 11
47.162671
 21
110.202982
 31
0.0
 11
46.047251
 21
110.464392
 31
0.0
 11
45.093608
 21
110.728830
 31
0.0
 11
44.151601
 21
111.033792
 31
0.0
 11
43.223798
 21
111.382518
 31
0.0
 11
42.466108
 21
111.709553
 31
0.0
 11
41.729205
 21
112.079011
 31
0.0
 11
41.022276
 21
112.500804
 31
0.0
 11
40.270140
 21
113.048224
 31
0.0
 11
39.571252
 21
113.665056
 31
0.0
 11
38.928963
 21
114.341392
 31
0.0
 11
38.289179
 21
115.144611
 31
0.0
 11
37.718841
 21
115.998031
 31
0.0
 11
37.214539
 21
116.891583
 31
0.0
 11
36.715173
 21
117.944423
 31
0.0
 11
36.280778
 21
119.026244
 31
0.0
 11
35.895351
 21
120.127159
 31
0.0
 11
35.751178
 21
120.567929
 31
0.0
 11
35.605743
 21
121.007871
 31
0.0
 11
35.452566
 21
121.444700
 31
0.0
 11
35.339677
 21
121.740590
 31
0.0
 11
35.216521
 21
122.032688
 31
0.0
 11
35.079488
 21
122.319730
 31
0.0
 11
34.979546
 21
122.504063
 31
0.0
 11
34.867184
 21
122.680202
 31
0.0
 11
34.737525
 21
122.842679
 31
0.0
 11
34.624360
 21
122.954914
 31
0.0
 11
34.500832
 21
123.056551
 31
0.0
 11
34.369570
 21
123.148199
 31
0.0
 11
34.228548
 21
123.232564
 31
0.0
 11
34.081830
 21
123.306299
 31
0.0
 11
33.929134
 21
123.368721
 31
0.0
 11
33.794237
 21
123.411828
 31
0.0
 11
33.656478
 21
123.441617
 31
0.0
 11
33.517549
 21
123.453507
 31
0.0
 11
33.339003
 21
123.438498
 31
0.0
 11
33.162049
 21
123.397660
 31
0.0
 11
32.987415
 21
123.342351
 31
0.0
 11
32.752411
 21
123.258622
 31
0.0
 11
32.522342
 21
123.167760
 31
0.0
 11
32.296413
 21
123.068333
 31
0.0
 11
32.082081
 21
122.963032
 31
0.0
 11
31.872526
 21
122.847460
 31
0.0
 11
31.669417
 21
122.720643
 31
0.0
 11
31.356320
 21
122.489400
 31
0.0
 11
31.065693
 21
122.229943
 31
0.0
 11
30.798572
 21
121.946327
 31
0.0
 11
30.494828
 21
121.559929
 31
0.0
 11
30.223080
 21
121.150111
 31
0.0
 11
29.976166
 21
120.725527
 31
0.0
 11
29.633404
 21
120.068294
 31
0.0
 11
29.308712
 21
119.400968
 31
0.0
 11
28.979509
 21
118.727520
 31
0.0
 11
28.802292
 21
118.379813
 31
0.0
 11
28.625185
 21
118.036382
 31
0.0
 11
28.455504
 21
117.702075
 31
0.0
 11
28.339136
 21
117.473651
 31
0.0
 11
28.201333
 21
117.248168
 31
0.0
 11
28.013336
 21
117.021625
 31
0.0
 11
27.921100
 21
116.934107
 31
0.0
 11
27.829286
 21
116.865741
 31
0.0
 11
27.750693
 21
116.836474
 31
0.0
 11
27.661361
 21
116.932456
 31
0.0
 11
27.638696
 21
117.172812
 31
0.0
 11
27.646176
 21
117.467776
 31
0.0
 11
27.655278
 21
118.107417
 31
0.0
 11
27.643053
 21
118.614359
 31
0.0
 11
27.628597
 21
119.078692
 31
0.0
 11
27.632159
 21
119.869347
 31
0.0
 11
27.660913
 21
120.726542
 31
0.0
 11
27.698704
 21
121.600407
 31
0.0
 11
27.732156
 21
122.460409
 31
0.0
 11
27.757107
 21
123.303559
 31
0.0
 11
27.772315
 21
124.146864
 31
0.0
 11
27.775609
 21
124.697619
 31
0.0
 11
27.769375
 21
125.248388
 31
0.0
 11
27.748665
 21
125.792025
 31
0.0
 11
27.723243
 21
126.153942
 31
0.0
 11
27.683120
 21
126.519110
 31
0.0
 11
27.622475
 21
126.897309
 31
0.0
 11
27.474479
 21
127.494710
 31
0.0
 11
27.224975
 21
128.031319
 31
0.0
 11
26.833371
 21
128.393606
 31
0.0
 11
26.440895
 21
128.494408
 31
0.0
 11
26.005668
 21
128.462100
 31
0.0
 11
25.584803
 21
128.320911
 31
0.0
 11
25.016999
 21
127.904203
 31
0.0
 11
24.595547
 21
127.336371
 31
0.0
 11
24.267777
 21
126.701989
 31
0.0
 11
24.170792
 21
126.490505
 31
0.0
 11
24.077380
 21
126.279836
 31
0.0
 11
23.986594
 21
126.068809
 31
0.0
 11
23.842674
 21
125.722963
 31
0.0
 11
23.702315
 21
125.374378
 31
0.0
 11
23.564637
 21
125.024358
 31
0.0
 11
23.406024
 21
124.614745
 31
0.0
 11
23.249145
 21
124.204894
 31
0.0
 11
23.093266
 21
123.794747
 31
0.0
 11
22.825292
 21
123.090027
 31
0.0
 11
22.551592
 21
122.387369
 31
0.0
 11
22.265652
 21
121.689875
 31
0.0
 11
22.063895
 21
121.228555
 31
0.0
 11
21.847862
 21
120.773577
 31
0.0
 11
21.611645
 21
120.327593
 31
0.0
 11
21.423320
 21
120.010669
 31
0.0
 11
21.217846
 21
119.705547
 31
0.0
 11
20.991916
 21
119.417853
 31
0.0
 11
20.847251
 21
119.256407
 31
0.0
 11
20.697585
 21
119.098295
 31
0.0
 11
20.546311
 21
118.938710
 31
0.0
 11
20.441701
 21
118.829105
 31
0.0
 11
20.327330
 21
118.732385
 31
0.0
 11
20.192599
 21
118.664379
 31
0.0
 11
20.125102
 21
118.647599
 31
0.0
 11
20.057583
 21
118.640828
 31
0.0
 11
19.996044
 21
118.645414
 31
0.0
 11
19.845496
 21
118.820471
 31
0.0
 11
19.862091
 21
119.169588
 31
0.0
 11
19.943126
 21
119.581014
 31
0.0
 11
20.037344
 21
120.351909
 31
0.0
 11
20.032187
 21
120.989760
 31
0.0
 11
20.004063
 21
121.588672
 31
0.0
 11
20.019314
 21
122.334347
 31
0.0
 11
20.079411
 21
123.124625
 31
0.0
 11
20.156351
 21
123.928899
 31
0.0
 11
20.255766
 21
125.087681
 31
0.0
 11
20.331053
 21
126.225914
 31
0.0
 11
20.382065
 21
127.358740
 31
0.0
 11
20.400905
 21
128.111803
 31
0.0
 11
20.400061
 21
128.869527
 31
0.0
 11
20.370537
 21
129.632313
 31
0.0
 11
20.331890
 21
130.089191
 31
0.0
 11
20.256392
 21
130.537897
 31
0.0
 11
20.120652
 21
130.968308
 31
0.0
 11
20.048546
 21
131.125173
 31
0.0
 11
19.964859
 21
131.276597
 31
0.0
 11
19.870141
 21
131.421261
 31
0.0
 11
19.770746
 21
131.550379
 31
0.0
 11
19.660579
 21
131.670564
 31
0.0
 11
19.538215
 21
131.780092
 31
0.0
 11
19.430537
 21
131.858396
 31
0.0
 11
19.315486
 21
131.923317
 31
0.0
 11
19.194466
 21
131.969455
 31
0.0
 11
18.895605
 21
131.990954
 31
0.0
 11
18.589779
 21
131.915667
 31
0.0
 11
18.295047
 21
131.779488
 31
0.0
 11
17.890518
 21
131.514088
 31
0.0
 11
17.536876
 21
131.203882
 31
0.0
 11
17.215872
 21
130.863355
 31
0.0
 11
16.793829
 21
130.356974
 31
0.0
 11
16.397165
 21
129.826048
 31
0.0
 11
16.022973
 21
129.277162
 31
0.0
 11
15.150451
 21
127.815014
 31
0.0
 11
14.392361
 21
126.292194
 31
0.0
 11
13.734090
 21
124.723027
 31
0.0
 11
13.152404
 21
123.082353
 31
0.0
 11
12.667004
 21
121.411308
 31
0.0
 11
12.284962
 21
119.713046
 31
0.0
 11
12.033468
 21
118.135140
 31
0.0
 11
11.892118
 21
116.544193
 31
0.0
 11
11.878178
 21
114.947402
 31
0.0
 11
11.970557
 21
113.678496
 31
0.0
 11
12.168810
 21
112.422073
 31
0.0
 11
12.487170
 21
111.189754
 31
0.0
 11
12.872429
 21
110.148567
 31
0.0
 11
13.365953
 21
109.155312
 31
0.0
 11
13.974337
 21
108.230880
 31
0.0
 11
14.676624
 21
107.416777
 31
0.0
 11
15.473443
 21
106.691693
 31
0.0
 11
16.344901
 21
106.060126
 31
0.0
 11
17.440923
 21
105.435348
 31
0.0
 11
18.589672
 21
104.910112
 31
0.0
 11
19.768016
 21
104.448151
 31
0.0
 11
21.394117
 21
103.868354
 31
0.0
 11
23.032972
 21
103.336361
 31
0.0
 11
24.685263
 21
102.849537
 31
0.0
 11
26.568920
 21
102.350368
 31
0.0
 11
28.465920
 21
101.901781
 31
0.0
 11
30.371567
 21
101.500013
 31
0.0
 11
31.523378
 21
101.279837
 31
0.0
 11
32.679967
 21
101.080465
 31
0.0
 11
33.844679
 21
100.907053
 31
0.0
 11
35.088513
 21
100.749984
 31
0.0
 11
36.327586
 21
100.590194
 31
0.0
 11
37.544248
 21
100.389988
 31
0.0
 11
38.300433
 21
100.240394
 31
0.0
 11
39.073540
 21
100.139876
 31
0.0
 11
39.896514
 21
100.168756
 31
0.0
 11
40.043337
 21
100.188020
 31
0.0
 11
40.181728
 21
100.186561
 31
0.0
 11
40.300817
 21
100.137478
 31
0.0
 11
40.343766
 21
100.095183
 31
0.0
 11
40.377197
 21
100.043603
 31
0.0
 11
40.397410
 21
99.987832
 31
0.0
 11
40.389008
 21
99.868248
 31
0.0
 11
40.327869
 21
99.751480
 31
0.0
 11
40.240359
 21
99.636121
 31
0.0
  0
SPLINE
  5
105
100
AcDbEntity
  8
Capa_1
 62
7
100
AcDbSpline
 70
0
 71
3
 72
43
 73
39
 74
37
 40
0.000000
 40
0.000000
 40
0.000000
 40
0.000000
 40
0.886200
 40
1.765879
 40
2.638196
 40
3.659437
 40
4.691216
 40
5.727399
 40
6.986382
 40
8.240160
 40
9.498278
 40
10.419108
 40
11.336506
 40
12.241191
 40
13.096360
 40
13.963306
 40
14.872548
 40
15.405373
 40
15.912228
 40
16.384535
 40
16.547320
 40
16.713537
 40
16.879425
 40
17.140497
 40
17.404100
 40
17.670842
 40
18.117555
 40
18.559209
 40
18.999416
 40
19.401997
 40
19.805880
 40
20.210361
 40
20.610601
 40
21.010261
 40
21.409340
 40
21.751568
 40
22.094201
 40
22.437177
 40
22.437177
 40
22.437177
 40
22.437177
 10
39.187907
 20
99.218226
 30
0.0
 10
38.894940
 20
99.180290
 30
0.0
 10
38.311161
 20
99.104696
 30
0.0
 10
37.444523
 20
98.952172
 30
0.0
 10
36.550682
 20
98.707075
 30
0.0
 10
35.657313
 20
98.306470
 30
0.0
 10
34.776437
 20
97.769759
 30
0.0
 10
33.883512
 20
97.110575
 30
0.0
 10
32.977596
 20
96.348521
 30
0.0
 10
32.068556
 20
95.479321
 30
0.0
 10
31.286282
 20
94.643592
 30
0.0
 10
30.611457
 20
93.862386
 30
0.0
 10
30.041068
 20
93.147493
 30
0.0
 10
29.516697
 20
92.424822
 30
0.0
 10
29.041409
 20
91.689208
 30
0.0
 10
28.572669
 20
90.947953
 30
0.0
 10
28.137858
 20
90.312195
 30
0.0
 10
27.745393
 20
89.794790
 30
0.0
 10
27.485751
 20
89.359187
 30
0.0
 10
27.416185
 20
88.968020
 30
0.0
 10
27.472709
 20
88.705389
 30
0.0
 10
27.532639
 20
88.551048
 30
0.0
 10
27.632733
 20
88.379443
 30
0.0
 10
27.791314
 20
88.209325
 30
0.0
 10
28.005074
 20
88.053460
 30
0.0
 10
28.285230
 20
87.887197
 30
0.0
 10
28.619651
 20
87.696362
 30
0.0
 10
29.010160
 20
87.487336
 30
0.0
 10
29.394066
 20
87.297595
 30
0.0
 10
29.772927
 20
87.126671
 30
0.0
 10
30.146021
 20
86.972444
 30
0.0
 10
30.522893
 20
86.829915
 30
0.0
 10
30.902430
 20
86.698843
 30
0.0
 10
31.285041
 20
86.582953
 30
0.0
 10
31.654111
 20
86.490295
 30
0.0
 10
32.008884
 20
86.421259
 30
0.0
 10
32.347195
 20
86.366958
 30
0.0
 10
32.573410
 20
86.334459
 30
0.0
 10
32.686574
 20
86.318201
 30
0.0
 11
39.187907
 21
99.218226
 31
0.0
 11
38.309936
 21
99.097743
 31
0.0
 11
37.444837
 21
98.938246
 31
0.0
 11
36.605481
 21
98.700721
 31
0.0
 11
35.670815
 21
98.289221
 31
0.0
 11
34.786318
 21
97.757965
 31
0.0
 11
33.949451
 21
97.146958
 31
0.0
 11
32.985222
 21
96.337452
 31
0.0
 11
32.077851
 21
95.472213
 31
0.0
 11
31.216642
 21
94.555055
 31
0.0
 11
30.615318
 21
93.857676
 31
0.0
 11
30.044008
 21
93.139885
 31
0.0
 11
29.513939
 21
92.406754
 31
0.0
 11
29.044730
 21
91.691802
 31
0.0
 11
28.575898
 21
90.962561
 31
0.0
 11
28.059484
 21
90.214203
 31
0.0
 11
27.748260
 21
89.781720
 31
0.0
 11
27.508890
 21
89.334949
 31
0.0
 11
27.443504
 21
88.867190
 31
0.0
 11
27.476539
 21
88.707793
 31
0.0
 11
27.536642
 21
88.552823
 31
0.0
 11
27.620597
 21
88.409747
 31
0.0
 11
27.795989
 21
88.216366
 31
0.0
 11
28.006406
 21
88.057587
 31
0.0
 11
28.233903
 21
87.918317
 31
0.0
 11
28.622107
 21
87.697296
 31
0.0
 11
29.011682
 21
87.489234
 31
0.0
 11
29.406463
 21
87.294479
 31
0.0
 11
29.773376
 21
87.128808
 31
0.0
 11
30.146588
 21
86.974423
 31
0.0
 11
30.524887
 21
86.831264
 31
0.0
 11
30.903410
 21
86.701218
 31
0.0
 11
31.286098
 21
86.585986
 31
0.0
 11
31.673323
 21
86.489443
 31
0.0
 11
32.009068
 21
86.423142
 31
0.0
 11
32.347219
 21
86.367906
 31
0.0
 11
32.686574
 21
86.318201
 31
0.0
  0
LINE
  5
106
100
AcDbEntity
  8
Capa_1
 62
7
100
AcDbLine
 10
42.962028
 20
18.813033
 30
0.0
 11
42.962028
 21
18.812751
 31
0.0
  0
SPLINE
  5
107
100
AcDbEntity
  8
Capa_1
 62
7
100
AcDbSpline
 70
0
 71
3
 72
16
 73
12
 74
10
 40
0.000000
 40
0.000000
 40
0.000000
 40
0.000000
 40
2.499999
 40
4.997376
 40
7.492919
 40
10.043492
 40
12.596640
 40
15.148488
 40
17.753474
 40
20.359246
 40
22.967005
 40
22.967005
 40
22.967005
 40
22.967005
 10
32.751353
 20
85.067779
 30
0.0
 10
32.414741
 20
84.305448
 30
0.0
 10
31.741871
 20
82.781585
 30
0.0
 10
30.781697
 20
80.475491
 30
0.0
 10
29.914818
 20
78.113765
 30
0.0
 10
29.197068
 20
75.682536
 30
0.0
 10
28.629022
 20
73.193115
 30
0.0
 10
28.209951
 20
70.655860
 30
0.0
 10
27.941689
 20
68.081080
 30
0.0
 10
27.776641
 20
65.479799
 30
0.0
 10
27.701563
 20
63.743564
 30
0.0
 10
27.664010
 20
62.875116
 30
0.0
 11
32.751353
 21
85.067779
 31
0.0
 11
31.749648
 21
82.777237
 31
0.0
 11
30.797984
 21
80.468292
 31
0.0
 11
29.946402
 21
78.122541
 31
0.0
 11
29.223122
 21
75.676670
 31
0.0
 11
28.654267
 21
73.187701
 31
0.0
 11
28.237838
 21
70.670060
 31
0.0
 11
27.959230
 21
68.080016
 31
0.0
 11
27.785421
 21
65.480047
 31
0.0
 11
27.664010
 21
62.875116
 31
0.0
  0
LINE
  5
108
100
AcDbEntity
  8
Capa_1
 62
7
100
AcDbLine
 10
57.351848
 20
22.009496
 30
0.0
 11
57.466351
 21
22.520209
 31
0.0
  0
LINE
  5
109
100
AcDbEntity
  8
Capa_1
 62
7
100
AcDbLine
 10
57.466351
 20
22.520209
 30
0.0
 11
58.986335
 21
22.520209
 31
0.0
  0
LINE
  5
10a
100
AcDbEntity
  8
Capa_1
 62
7
100
AcDbLine
 10
58.986335
 20
22.520209
 30
0.0
 11
60.506322
 21
22.520209
 31
0.0
  0
LINE
  5
10b
100
AcDbEntity
  8
Capa_1
 62
7
100
AcDbLine
 10
60.506322
 20
22.520209
 30
0.0
 11
60.623769
 21
21.972195
 31
0.0
  0
SPLINE
  5
10c
100
AcDbEntity
  8
Capa_1
 62
7
100
AcDbSpline
 70
0
 71
3
 72
61
 73
57
 74
55
 40
0.000000
 40
0.000000
 40
0.000000
 40
0.000000
 40
4.005180
 40
7.998338
 40
11.981279
 40
15.797771
 40
19.625178
 40
23.452116
 40
27.060077
 40
30.668427
 40
34.309538
 40
34.513994
 40
34.715896
 40
34.912615
 40
35.052517
 40
35.196045
 40
35.351465
 40
35.419097
 40
35.481439
 40
35.534374
 40
35.576269
 40
35.624125
 40
35.675000
 40
35.788934
 40
35.896248
 40
36.001547
 40
36.147055
 40
36.295386
 40
36.444941
 40
37.099650
 40
37.749301
 40
38.397646
 40
39.027364
 40
39.658327
 40
40.289457
 40
40.957321
 40
41.625024
 40
42.292921
 40
42.827116
 40
43.361122
 40
43.895906
 40
44.303017
 40
44.709439
 40
45.114745
 40
45.472154
 40
45.830377
 40
46.188901
 40
46.599951
 40
47.010991
 40
47.421600
 40
47.897088
 40
48.373332
 40
48.849930
 40
49.472087
 40
50.093871
 40
50.716263
 40
50.716263
 40
50.716263
 40
50.716263
 10
27.664010
 20
62.875116
 30
0.0
 10
27.751471
 20
61.542893
 30
0.0
 10
27.926130
 20
58.882445
 30
0.0
 10
28.321964
 20
54.906921
 30
0.0
 10
28.978056
 20
51.025819
 30
0.0
 10
30.004121
 20
47.282130
 30
0.0
 10
31.342503
 20
43.695444
 30
0.0
 10
32.944040
 20
40.295824
 30
0.0
 10
34.763659
 20
37.091259
 30
0.0
 10
36.836250
 20
34.117266
 30
0.0
 10
38.475678
 20
32.241345
 30
0.0
 10
39.427202
 20
31.284895
 30
0.0
 10
39.567045
 20
31.140474
 30
0.0
 10
39.687415
 20
31.007171
 30
0.0
 10
39.788258
 20
30.882882
 30
0.0
 10
39.883457
 20
30.771706
 30
0.0
 10
39.971454
 20
30.686570
 30
0.0
 10
40.044867
 20
30.625953
 30
0.0
 10
40.088504
 20
30.583426
 30
0.0
 10
40.112347
 20
30.533084
 30
0.0
 10
40.101168
 20
30.484872
 30
0.0
 10
40.079415
 20
30.443468
 30
0.0
 10
40.041672
 20
30.383369
 30
0.0
 10
39.998636
 20
30.303415
 30
0.0
 10
39.953831
 20
30.204175
 30
0.0
 10
39.906701
 20
30.094498
 30
0.0
 10
39.849111
 20
29.974513
 30
0.0
 10
39.781638
 20
29.843014
 30
0.0
 10
39.634351
 20
29.561709
 30
0.0
 10
39.420672
 20
29.126526
 30
0.0
 10
39.159863
 20
28.529929
 30
0.0
 10
38.929459
 20
27.929842
 30
0.0
 10
38.728386
 20
27.325883
 30
0.0
 10
38.555943
 20
26.719099
 30
0.0
 10
38.407987
 20
26.092794
 30
0.0
 10
38.287371
 20
25.448181
 30
0.0
 10
38.192666
 20
24.786930
 30
0.0
 10
38.127158
 20
24.167008
 30
0.0
 10
38.082558
 20
23.589937
 30
0.0
 10
38.064578
 20
23.055667
 30
0.0
 10
38.078630
 20
22.563474
 30
0.0
 10
38.123039
 20
22.115871
 30
0.0
 10
38.196457
 20
21.715687
 30
0.0
 10
38.307536
 20
21.341112
 30
0.0
 10
38.457368
 20
20.997923
 30
0.0
 10
38.636648
 20
20.687152
 30
0.0
 10
38.859491
 20
20.383460
 30
0.0
 10
39.128747
 20
20.095051
 30
0.0
 10
39.443625
 20
19.829639
 30
0.0
 10
39.804563
 20
19.589900
 30
0.0
 10
40.211265
 20
19.385364
 30
0.0
 10
40.657797
 20
19.218110
 30
0.0
 10
41.163900
 20
19.076672
 30
0.0
 10
41.726999
 20
18.965059
 30
0.0
 10
42.343449
 20
18.880044
 30
0.0
 10
42.755768
 20
18.835378
 30
0.0
 10
42.962028
 20
18.813033
 30
0.0
 11
27.664010
 21
62.875116
 31
0.0
 11
27.948856
 21
58.880078
 31
0.0
 11
28.367478
 21
54.908923
 31
0.0
 11
29.053652
 21
50.985534
 31
0.0
 11
30.057327
 21
47.303381
 31
0.0
 11
31.391411
 21
43.716006
 31
0.0
 11
33.019636
 21
40.252722
 31
0.0
 11
34.810711
 21
37.120721
 31
0.0
 11
36.882171
 21
34.166191
 31
0.0
 11
39.283770
 21
31.429403
 31
0.0
 11
39.427472
 21
31.283966
 31
0.0
 11
39.567391
 21
31.138408
 31
0.0
 11
39.698563
 21
30.991806
 31
0.0
 11
39.787973
 21
30.884202
 31
0.0
 11
39.882470
 21
30.776172
 31
0.0
 11
39.994388
 21
30.668331
 31
0.0
 11
40.045571
 21
30.624122
 31
0.0
 11
40.087820
 21
30.578278
 31
0.0
 11
40.107224
 21
30.529029
 31
0.0
 11
40.100142
 21
30.487736
 31
0.0
 11
40.079354
 21
30.444631
 31
0.0
 11
40.053167
 21
30.401013
 31
0.0
 11
39.998818
 21
30.300878
 31
0.0
 11
39.953858
 21
30.203436
 31
0.0
 11
39.911432
 21
30.107062
 31
0.0
 11
39.848950
 21
29.975653
 31
0.0
 11
39.781644
 21
29.843470
 31
0.0
 11
39.712669
 21
29.710771
 31
0.0
 11
39.424334
 21
29.122973
 31
0.0
 11
39.164254
 21
28.527654
 31
0.0
 11
38.931901
 21
27.922374
 31
0.0
 11
38.732976
 21
27.324902
 31
0.0
 11
38.560529
 21
26.717961
 31
0.0
 11
38.415505
 21
26.103720
 31
0.0
 11
38.292056
 21
25.447364
 31
0.0
 11
38.196760
 21
24.786496
 31
0.0
 11
38.125942
 21
24.122364
 31
0.0
 11
38.086420
 21
23.589633
 31
0.0
 11
38.070120
 21
23.055876
 31
0.0
 11
38.086956
 21
22.521357
 31
0.0
 11
38.128624
 21
22.116384
 31
0.0
 11
38.203600
 21
21.716938
 31
0.0
 11
38.320413
 21
21.328830
 31
0.0
 11
38.463192
 21
21.001179
 31
0.0
 11
38.642092
 21
20.690826
 31
0.0
 11
38.854202
 21
20.401778
 31
0.0
 11
39.134375
 21
20.101004
 31
0.0
 11
39.448427
 21
19.835816
 31
0.0
 11
39.790367
 21
19.608491
 31
0.0
 11
40.214387
 21
19.393326
 31
0.0
 11
40.659760
 21
19.224649
 31
0.0
 11
41.118355
 21
19.094897
 31
0.0
 11
41.728061
 21
18.971046
 31
0.0
 11
42.343589
 21
18.883071
 31
0.0
 11
42.962028
 21
18.813033
 31
0.0
  0
LINE
  5
10d
100
AcDbEntity
  8
Capa_1
 62
7
100
AcDbLine
 10
77.978976
 20
30.219121
 30
0.0
 11
77.658358
 21
30.741937
 31
0.0
  0
LINE
  5
10e
100
AcDbEntity
  8
Capa_1
 62
7
100
AcDbLine
 10
77.658358
 20
30.741937
 30
0.0
 11
77.823574
 21
30.915338
 31
0.0
  0
SPLINE
  5
10f
100
AcDbEntity
  8
Capa_1
 62
7
100
AcDbSpline
 70
0
 71
3
 72
25
 73
21
 74
19
 40
0.000000
 40
0.000000
 40
0.000000
 40
0.000000
 40
0.952262
 40
1.904307
 40
2.855969
 40
4.247660
 40
5.639942
 40
7.034018
 40
7.937525
 40
8.839812
 40
9.739740
 40
10.551659
 40
11.365957
 40
12.189716
 40
12.814559
 40
13.431742
 40
14.033363
 40
14.591495
 40
15.162682
 40
15.745286
 40
15.745286
 40
15.745286
 40
15.745286
 10
42.962028
 20
18.812706
 30
0.0
 10
43.279352
 20
18.804851
 30
0.0
 10
43.913927
 20
18.789143
 30
0.0
 10
44.865724
 20
18.769741
 30
0.0
 10
45.964142
 20
18.756955
 30
0.0
 10
47.209397
 20
18.762604
 30
0.0
 10
48.601932
 20
18.782615
 30
0.0
 10
49.831761
 20
18.800811
 30
0.0
 10
50.898356
 20
18.808762
 30
0.0
 10
51.800072
 20
18.832719
 30
0.0
 10
52.669743
 20
18.894427
 30
0.0
 10
53.504614
 20
19.009703
 30
0.0
 10
54.302528
 20
19.189324
 30
0.0
 10
55.018532
 20
19.431667
 30
0.0
 10
55.645178
 20
19.720170
 30
0.0
 10
56.167305
 20
20.048520
 30
0.0
 10
56.605290
 20
20.455534
 30
0.0
 10
56.920979
 20
20.943615
 30
0.0
 10
57.154061
 20
21.465474
 30
0.0
 10
57.285486
 20
21.826963
 30
0.0
 10
57.351848
 20
22.009496
 30
0.0
 11
42.962028
 21
18.812706
 31
0.0
 11
43.914016
 21
18.789834
 31
0.0
 11
44.865877
 21
18.771125
 31
0.0
 11
45.817482
 21
18.760746
 31
0.0
 11
47.209167
 21
18.764883
 31
0.0
 11
48.601335
 21
18.782705
 31
0.0
 11
49.995288
 21
18.801160
 31
0.0
 11
50.898735
 21
18.811644
 31
0.0
 11
51.800595
 21
18.839403
 31
0.0
 11
52.697987
 21
18.906926
 31
0.0
 11
53.501878
 21
19.020816
 31
0.0
 11
54.295693
 21
19.202304
 31
0.0
 11
55.075351
 21
19.468224
 31
0.0
 11
55.641170
 21
19.733323
 31
0.0
 11
56.160236
 21
20.067217
 31
0.0
 11
56.596003
 21
20.482011
 31
0.0
 11
56.905847
 21
20.946240
 31
0.0
 11
57.146216
 21
21.464388
 31
0.0
 11
57.351848
 21
22.009496
 31
0.0
  0
LINE
  5
110
100
AcDbEntity
  8
Capa_1
 62
7
100
AcDbLine
 10
78.642137
 20
99.190698
 30
0.0
 11
77.538631
 21
99.243034
 31
0.0
  0
LINE
  5
111
100
AcDbEntity
  8
Capa_1
 62
7
100
AcDbLine
 10
77.538631
 20
99.243034
 30
0.0
 11
77.342656
 21
99.644472
 31
0.0
  0
SPLINE
  5
112
100
AcDbEntity
  8
Capa_1
 62
7
100
AcDbSpline
 70
0
 71
3
 72
52
 73
48
 74
46
 40
0.000000
 40
0.000000
 40
0.000000
 40
0.000000
 40
0.579319
 40
1.146544
 40
1.699692
 40
2.311675
 40
2.941164
 40
3.579499
 40
4.440193
 40
5.289573
 40
6.136176
 40
7.160693
 40
8.188464
 40
9.217557
 40
10.705280
 40
12.191133
 40
13.677837
 40
14.631793
 40
15.585093
 40
16.538422
 40
17.274580
 40
18.010653
 40
18.748431
 40
19.322431
 40
19.894355
 40
20.462111
 40
21.034013
 40
21.610233
 40
22.185949
 40
22.509132
 40
22.831314
 40
23.153419
 40
23.591575
 40
24.029855
 40
24.468283
 40
24.888691
 40
25.308958
 40
25.728994
 40
26.281654
 40
26.834747
 40
27.388362
 40
27.945505
 40
28.502124
 40
29.058041
 40
29.558871
 40
30.060227
 40
30.562055
 40
30.562055
 40
30.562055
 40
30.562055
 10
60.623769
 20
21.972195
 30
0.0
 10
60.689979
 20
21.790771
 30
0.0
 10
60.821017
 20
21.431710
 30
0.0
 10
61.053675
 20
20.914110
 30
0.0
 10
61.372476
 20
20.427219
 30
0.0
 10
61.821606
 20
20.022760
 30
0.0
 10
62.361101
 20
19.699527
 30
0.0
 10
63.012682
 20
19.415681
 30
0.0
 10
63.759288
 20
19.175455
 30
0.0
 10
64.593606
 20
18.996165
 30
0.0
 10
65.493025
 20
18.875473
 30
0.0
 10
66.457374
 20
18.806348
 30
0.0
 10
67.484338
 20
18.779616
 30
0.0
 10
68.665886
 20
18.777117
 30
0.0
 10
70.000101
 20
18.778639
 30
0.0
 10
71.486862
 20
18.780908
 30
0.0
 10
72.795701
 20
18.779167
 30
0.0
 10
73.927008
 20
18.771671
 30
0.0
 10
74.880577
 20
18.793257
 30
0.0
 10
75.759255
 20
18.868674
 30
0.0
 10
76.557014
 20
19.005972
 30
0.0
 10
77.268604
 20
19.202354
 30
0.0
 10
77.900559
 20
19.466481
 30
0.0
 10
78.443674
 20
19.784831
 30
0.0
 10
78.893407
 20
20.140568
 30
0.0
 10
79.276593
 20
20.568101
 30
0.0
 10
79.565199
 20
21.066232
 30
0.0
 10
79.762420
 20
21.608541
 30
0.0
 10
79.857711
 20
22.092945
 30
0.0
 10
79.890650
 20
22.498936
 30
0.0
 10
79.896983
 20
22.821508
 30
0.0
 10
79.889920
 20
23.182287
 30
0.0
 10
79.873961
 20
23.581513
 30
0.0
 10
79.846613
 20
24.018984
 30
0.0
 10
79.810351
 20
24.449862
 30
0.0
 10
79.766050
 20
24.873957
 30
0.0
 10
79.711615
 20
25.290712
 30
0.0
 10
79.636787
 20
25.749062
 30
0.0
 10
79.532710
 20
26.247101
 30
0.0
 10
79.396558
 20
26.783344
 30
0.0
 10
79.241284
 20
27.315867
 30
0.0
 10
79.070965
 20
27.845013
 30
0.0
 10
78.880993
 20
28.368308
 30
0.0
 10
78.674291
 20
28.865068
 30
0.0
 10
78.449716
 20
29.333557
 30
0.0
 10
78.218083
 20
29.778224
 30
0.0
 10
78.058703
 20
30.072196
 30
0.0
 10
77.978976
 20
30.219251
 30
0.0
 11
60.623769
 21
21.972195
 31
0.0
 11
60.829012
 21
21.430452
 31
0.0
 11
61.069141
 21
20.916562
 31
0.0
 11
61.379044
 21
20.458378
 31
0.0
 11
61.828305
 21
20.042822
 31
0.0
 11
62.364540
 21
19.713111
 31
0.0
 11
62.947821
 21
19.453777
 31
0.0
 11
63.766528
 21
19.188232
 31
0.0
 11
64.596332
 21
19.006929
 31
0.0
 11
65.434992
 21
18.891226
 31
0.0
 11
66.456608
 21
18.814184
 31
0.0
 11
67.483927
 21
18.783720
 31
0.0
 11
68.513003
 21
18.777897
 31
0.0
 11
70.000727
 21
18.778735
 31
0.0
 11
71.486578
 21
18.780201
 31
0.0
 11
72.973280
 21
18.777332
 31
0.0
 11
73.927236
 21
18.776324
 31
0.0
 11
74.880154
 21
18.803262
 31
0.0
 11
75.829533
 21
18.889970
 31
0.0
 11
76.554498
 21
19.017850
 31
0.0
 11
77.263133
 21
19.216950
 31
0.0
 11
77.942688
 21
19.504213
 31
0.0
 11
78.436830
 21
19.796275
 31
0.0
 11
78.883434
 21
20.153545
 31
0.0
 11
79.259915
 21
20.578525
 31
0.0
 11
79.549149
 21
21.071897
 31
0.0
 11
79.748121
 21
21.612675
 31
0.0
 11
79.860151
 21
22.177385
 31
0.0
 11
79.887371
 21
22.499420
 31
0.0
 11
79.894878
 21
22.821515
 31
0.0
 11
79.889751
 21
23.143578
 31
0.0
 11
79.872323
 21
23.581388
 31
0.0
 11
79.845048
 21
24.018818
 31
0.0
 11
79.808352
 21
24.455708
 31
0.0
 11
79.764249
 21
24.873797
 31
0.0
 11
79.709390
 21
25.290468
 31
0.0
 11
79.641282
 21
25.704945
 31
0.0
 11
79.528917
 21
26.246061
 31
0.0
 11
79.393485
 21
26.782317
 31
0.0
 11
79.239178
 21
27.313993
 31
0.0
 11
79.067670
 21
27.844080
 31
0.0
 11
78.876919
 21
28.366995
 31
0.0
 11
78.662550
 21
28.879917
 31
0.0
 11
78.447320
 21
29.332141
 31
0.0
 11
78.216937
 21
29.777429
 31
0.0
 11
77.978976
 21
30.219251
 31
0.0
  0
LINE
  5
113
100
AcDbEntity
  8
Capa_1
 62
7
100
AcDbLine
 10
98.386920
 20
131.993162
 30
0.0
 11
98.386858
 21
131.992910
 31
0.0
  0
SPLINE
  5
114
100
AcDbEntity
  8
Capa_1
 62
7
100
AcDbSpline
 70
0
 71
3
 72
97
 73
93
 74
91
 40
0.000000
 40
0.000000
 40
0.000000
 40
0.000000
 40
0.815863
 40
1.631634
 40
2.447348
 40
3.203646
 40
3.960009
 40
4.716340
 40
5.421387
 40
6.126455
 40
6.831636
 40
10.075177
 40
13.323370
 40
16.573300
 40
19.908177
 40
23.241276
 40
26.574236
 40
30.028793
 40
33.483617
 40
36.936683
 40
39.362077
 40
41.787534
 40
44.216545
 40
46.582400
 40
48.944669
 40
51.291052
 40
53.555748
 40
55.836071
 40
58.182328
 40
58.377361
 40
58.566662
 40
58.744102
 40
58.866295
 40
58.996728
 40
59.155091
 40
59.230210
 40
59.292901
 40
59.333061
 40
59.349442
 40
59.368838
 40
59.389515
 40
59.438156
 40
59.483710
 40
59.528337
 40
59.591816
 40
59.656593
 40
59.721934
 40
60.210328
 40
60.695507
 40
61.181463
 40
61.789118
 40
62.395892
 40
62.995759
 40
63.594536
 40
64.200257
 40
64.832289
 40
65.125420
 40
65.406331
 40
65.668673
 40
65.881514
 40
66.106699
 40
66.337358
 40
66.768976
 40
67.193093
 40
67.617769
 40
68.215218
 40
68.812428
 40
69.409440
 40
70.100255
 40
70.791382
 40
71.482721
 40
72.057998
 40
72.633087
 40
73.208074
 40
74.095955
 40
74.984326
 40
75.873071
 40
76.645998
 40
77.418530
 40
78.191034
 40
78.888888
 40
79.586726
 40
80.284096
 40
80.469917
 40
80.655616
 40
80.841206
 40
81.031611
 40
81.222138
 40
81.412690
 40
81.657130
 40
81.901544
 40
82.146002
 40
82.146002
 40
82.146002
 40
82.146002
 10
77.823574
 20
30.915338
 30
0.0
 10
78.008770
 20
31.114490
 30
0.0
 10
78.379143
 20
31.512771
 30
0.0
 10
78.930377
 20
32.114156
 30
0.0
 10
79.459718
 20
32.708609
 30
0.0
 10
79.963729
 20
33.298887
 30
0.0
 10
80.443021
 20
33.884033
 30
0.0
 10
80.899428
 20
34.465637
 30
0.0
 10
81.333436
 20
35.042872
 30
0.0
 10
81.746192
 20
35.614594
 30
0.0
 10
82.630397
 20
36.889241
 30
0.0
 10
83.896754
 20
38.930332
 30
0.0
 10
85.388345
 20
41.818054
 30
0.0
 10
86.675561
 20
44.835422
 30
0.0
 10
87.756620
 20
47.962519
 30
0.0
 10
88.624664
 20
51.183898
 30
0.0
 10
89.279291
 20
54.495910
 30
0.0
 10
89.712547
 20
57.885094
 30
0.0
 10
89.922359
 20
61.335278
 30
0.0
 10
89.912297
 20
64.448494
 30
0.0
 10
89.757253
 20
67.212965
 30
0.0
 10
89.509254
 20
69.627815
 30
0.0
 10
89.146319
 20
72.008120
 30
0.0
 10
88.667607
 20
74.346251
 30
0.0
 10
88.089860
 20
76.633336
 30
0.0
 10
87.426573
 20
78.861713
 30
0.0
 10
86.686336
 20
81.037198
 30
0.0
 10
85.819218
 20
83.166138
 30
0.0
 10
85.101432
 20
84.606447
 30
0.0
 10
84.658783
 20
85.401792
 30
0.0
 10
84.571319
 20
85.567364
 30
0.0
 10
84.502923
 20
85.715588
 30
0.0
 10
84.455130
 20
85.850732
 30
0.0
 10
84.401239
 20
85.977117
 30
0.0
 10
84.333868
 20
86.078724
 30
0.0
 10
84.274651
 20
86.157572
 30
0.0
 10
84.236829
 20
86.203553
 30
0.0
 10
84.238736
 20
86.252279
 30
0.0
 10
84.262793
 20
86.263823
 30
0.0
 10
84.280445
 20
86.269638
 30
0.0
 10
84.309429
 20
86.276110
 30
0.0
 10
84.347200
 20
86.282287
 30
0.0
 10
84.393359
 20
86.286197
 30
0.0
 10
84.444541
 20
86.288154
 30
0.0
 10
84.502151
 20
86.289637
 30
0.0
 10
84.566662
 20
86.291259
 30
0.0
 10
84.772746
 20
86.297223
 30
0.0
 10
85.118400
 20
86.326163
 30
0.0
 10
85.598593
 20
86.406865
 30
0.0
 10
86.111046
 20
86.527757
 30
0.0
 10
86.655382
 20
86.686780
 30
0.0
 10
87.226011
 20
86.887951
 30
0.0
 10
87.782456
 20
87.117949
 30
0.0
 10
88.325262
 20
87.377575
 30
0.0
 10
88.865945
 20
87.664946
 30
0.0
 10
89.310389
 20
87.915592
 30
0.0
 10
89.659266
 20
88.115625
 30
0.0
 10
89.884940
 20
88.281238
 30
0.0
 10
90.042917
 20
88.486548
 30
0.0
 10
90.097729
 20
88.718070
 30
0.0
 10
90.094657
 20
88.942117
 30
0.0
 10
90.042855
 20
89.234317
 30
0.0
 10
89.916235
 20
89.576614
 30
0.0
 10
89.701951
 20
89.946804
 30
0.0
 10
89.429877
 20
90.344776
 30
0.0
 10
89.133697
 20
90.796075
 30
0.0
 10
88.809044
 20
91.297336
 30
0.0
 10
88.462086
 20
91.821258
 30
0.0
 10
88.082319
 20
92.360745
 30
0.0
 10
87.670724
 20
92.915964
 30
0.0
 10
87.272395
 20
93.432905
 30
0.0
 10
86.892052
 20
93.914811
 30
0.0
 10
86.527896
 20
94.360008
 30
0.0
 10
86.085057
 20
94.875255
 30
0.0
 10
85.550762
 20
95.449105
 30
0.0
 10
84.914614
 20
96.069626
 30
0.0
 10
84.278040
 20
96.633411
 30
0.0
 10
83.646766
 20
97.143612
 30
0.0
 10
83.021769
 20
97.598553
 30
0.0
 10
82.391868
 20
98.002221
 30
0.0
 10
81.759009
 20
98.352289
 30
0.0
 10
81.126882
 20
98.648825
 30
0.0
 10
80.634241
 20
98.837636
 30
0.0
 10
80.295566
 20
98.948377
 30
0.0
 10
80.117399
 20
99.000871
 30
0.0
 10
79.935860
 20
99.046931
 30
0.0
 10
79.750765
 20
99.084696
 30
0.0
 10
79.562653
 20
99.115011
 30
0.0
 10
79.355724
 20
99.140902
 30
0.0
 10
79.130154
 20
99.161505
 30
0.0
 10
78.886237
 20
99.177627
 30
0.0
 10
78.723512
 20
99.186337
 30
0.0
 10
78.642142
 20
99.190693
 30
0.0
 11
77.823574
 21
30.915338
 31
0.0
 11
78.378447
 21
31.513458
 31
0.0
 11
78.928942
 21
32.115486
 31
0.0
 11
79.470679
 21
32.725330
 31
0.0
 11
79.961738
 21
33.300524
 31
0.0
 11
80.440971
 21
33.885691
 31
0.0
 11
80.907842
 21
34.480727
 31
0.0
 11
81.331598
 21
35.044219
 31
0.0
 11
81.744360
 21
35.615837
 31
0.0
 11
82.146349
 21
36.195221
 31
0.0
 11
83.858915
 21
38.949795
 31
0.0
 11
85.352022
 21
41.834476
 31
0.0
 11
86.629302
 21
44.822887
 31
0.0
 11
87.719780
 21
47.974437
 31
0.0
 11
88.587822
 21
51.192519
 31
0.0
 11
89.234795
 21
54.462083
 31
0.0
 11
89.674445
 21
57.888549
 31
0.0
 11
89.885548
 21
61.336917
 31
0.0
 11
89.875504
 21
64.789969
 31
0.0
 11
89.738585
 21
67.211495
 31
0.0
 11
89.489744
 21
69.624153
 31
0.0
 11
89.122693
 21
72.025271
 31
0.0
 11
88.649870
 21
74.343397
 31
0.0
 11
88.072621
 21
76.634052
 31
0.0
 11
87.404121
 21
78.883190
 31
0.0
 11
86.667236
 21
81.024649
 31
0.0
 11
85.801620
 21
83.134290
 31
0.0
 11
84.752505
 21
85.232927
 31
0.0
 11
84.658489
 21
85.403804
 31
0.0
 11
84.571017
 21
85.571683
 31
0.0
 11
84.498217
 21
85.733502
 31
0.0
 11
84.454864
 21
85.847745
 31
0.0
 11
84.401720
 21
85.966861
 31
0.0
 11
84.316866
 21
86.100571
 31
0.0
 11
84.271651
 21
86.160559
 31
0.0
 11
84.240773
 21
86.215117
 31
0.0
 11
84.247696
 21
86.254676
 31
0.0
 11
84.261807
 21
86.262997
 31
0.0
 11
84.280176
 21
86.269224
 31
0.0
 11
84.300306
 21
86.273952
 31
0.0
 11
84.348308
 21
86.281810
 31
0.0
 11
84.393681
 21
86.285868
 31
0.0
 11
84.438264
 21
86.287837
 31
0.0
 11
84.501718
 21
86.289619
 31
0.0
 11
84.566473
 21
86.291295
 31
0.0
 11
84.631784
 21
86.293284
 31
0.0
 11
85.118563
 21
86.332975
 31
0.0
 11
85.597266
 21
86.411980
 31
0.0
 11
86.070581
 21
86.522098
 31
0.0
 11
86.653960
 21
86.692141
 31
0.0
 11
87.226258
 21
86.893755
 31
0.0
 11
87.780577
 21
87.123040
 31
0.0
 11
88.321261
 21
87.380323
 31
0.0
 11
88.856988
 21
87.662978
 31
0.0
 11
89.408325
 21
87.971998
 31
0.0
 11
89.659890
 21
88.122465
 31
0.0
 11
89.881107
 21
88.295596
 31
0.0
 11
90.034333
 21
88.508539
 31
0.0
 11
90.088194
 21
88.714453
 31
0.0
 11
90.088700
 21
88.939638
 31
0.0
 11
90.049912
 21
89.167012
 31
0.0
 11
89.904300
 21
89.573326
 31
0.0
 11
89.697643
 21
89.943688
 31
0.0
 11
89.463301
 21
90.297854
 31
0.0
 11
89.134162
 21
90.796464
 31
0.0
 11
88.808155
 21
91.296843
 31
0.0
 11
88.477180
 21
91.793713
 31
0.0
 11
88.080092
 21
92.358998
 31
0.0
 11
87.669059
 21
92.914613
 31
0.0
 11
87.247628
 21
93.462651
 31
0.0
 11
86.890706
 21
93.913815
 31
0.0
 11
86.526082
 21
94.358537
 31
0.0
 11
86.150800
 21
94.794167
 31
0.0
 11
85.545785
 21
95.444005
 31
0.0
 11
84.909851
 21
96.064319
 31
0.0
 11
84.244516
 21
96.653555
 31
0.0
 11
83.642683
 21
97.138542
 31
0.0
 11
83.017431
 21
97.592266
 31
0.0
 11
82.366423
 21
98.008139
 31
0.0
 11
81.755470
 21
98.345389
 31
0.0
 11
81.123395
 21
98.641124
 31
0.0
 11
80.471953
 21
98.890016
 31
0.0
 11
80.295252
 21
98.947518
 31
0.0
 11
80.117049
 21
98.999746
 31
0.0
 11
79.937094
 21
99.045131
 31
0.0
 11
79.750572
 21
99.083392
 31
0.0
 11
79.562504
 21
99.113899
 31
0.0
 11
79.373451
 21
99.137748
 31
0.0
 11
79.130070
 21
99.160487
 31
0.0
 11
78.886223
 21
99.177117
 31
0.0
 11
78.642142
 21
99.190693
 31
0.0
  0
LINE
  5
115
100
AcDbEntity
  8
Capa_1
 62
7
100
AcDbLine
 10
51.357270
 20
92.305433
 30
0.0
 11
51.357236
 21
92.305433
 31
0.0
  0
SPLINE
  5
116
100
AcDbEntity
  8
Capa_1
 62
7
100
AcDbSpline
 70
0
 71
3
 72
70
 73
66
 74
64
 40
0.000000
 40
0.000000
 40
0.000000
 40
0.000000
 40
0.079383
 40
0.157379
 40
0.232696
 40
0.289409
 40
0.348142
 40
0.413409
 40
0.448773
 40
0.480646
 40
0.506043
 40
0.523053
 40
0.542940
 40
0.564203
 40
0.609205
 40
0.651318
 40
0.692665
 40
0.750798
 40
0.810000
 40
0.869690
 40
1.390513
 40
1.907195
 40
2.422596
 40
3.276747
 40
4.133029
 40
4.989920
 40
5.909843
 40
6.829113
 40
7.748199
 40
9.595426
 40
11.443160
 40
13.290988
 40
14.968131
 40
16.645159
 40
18.321951
 40
19.891016
 40
21.460318
 40
23.031825
 40
23.998145
 40
24.962871
 40
25.926276
 40
26.781281
 40
27.637360
 40
28.492587
 40
29.371314
 40
30.250952
 40
31.131436
 40
32.142997
 40
33.153848
 40
34.164109
 40
35.276044
 40
36.388734
 40
37.502911
 40
38.764694
 40
40.024914
 40
41.280996
 40
43.199601
 40
45.125857
 40
47.077154
 40
48.762280
 40
50.425438
 40
52.052004
 40
52.989634
 40
53.940559
 40
54.901392
 40
54.901392
 40
54.901392
 40
54.901392
 10
77.342656
 20
99.644472
 30
0.0
 10
77.330742
 20
99.668100
 30
0.0
 10
77.307124
 20
99.714943
 30
0.0
 10
77.273537
 20
99.784865
 30
0.0
 10
77.245750
 20
99.849176
 30
0.0
 10
77.224093
 20
99.908965
 30
0.0
 10
77.202474
 20
99.965224
 30
0.0
 10
77.179053
 20
100.012990
 30
0.0
 10
77.156943
 20
100.051275
 30
0.0
 10
77.143435
 20
100.078971
 30
0.0
 10
77.143186
 20
100.106195
 30
0.0
 10
77.158735
 20
100.121471
 30
0.0
 10
77.175638
 20
100.130863
 30
0.0
 10
77.202409
 20
100.141485
 30
0.0
 10
77.237274
 20
100.151309
 30
0.0
 10
77.279715
 20
100.157593
 30
0.0
 10
77.326801
 20
100.160959
 30
0.0
 10
77.379617
 20
100.163827
 30
0.0
 10
77.438569
 20
100.166424
 30
0.0
 10
77.651628
 20
100.175146
 30
0.0
 10
78.016753
 20
100.197479
 30
0.0
 10
78.532411
 20
100.243105
 30
0.0
 10
79.157656
 20
100.309485
 30
0.0
 10
79.894659
 20
100.395092
 30
0.0
 10
80.743686
 20
100.502441
 30
0.0
 10
81.613542
 20
100.619563
 30
0.0
 10
82.503435
 20
100.745082
 30
0.0
 10
83.412878
 20
100.880277
 30
0.0
 10
84.626507
 20
101.071101
 30
0.0
 10
86.142475
 20
101.331237
 30
0.0
 10
87.956517
 20
101.682567
 30
0.0
 10
89.706235
 20
102.065371
 30
0.0
 10
91.390300
 20
102.479226
 30
0.0
 10
93.008750
 20
102.919083
 30
0.0
 10
94.581418
 20
103.388094
 30
0.0
 10
96.108376
 20
103.883272
 30
0.0
 10
97.585518
 20
104.416160
 30
0.0
 10
98.852996
 20
104.934967
 30
0.0
 10
99.914447
 20
105.421968
 30
0.0
 10
100.767753
 20
105.873833
 30
0.0
 10
101.550022
 20
106.375370
 30
0.0
 10
102.248468
 20
106.931706
 30
0.0
 10
102.863359
 20
107.528400
 30
0.0
 10
103.419952
 20
108.190473
 30
0.0
 10
103.906213
 20
108.915294
 30
0.0
 10
104.323235
 20
109.691160
 30
0.0
 10
104.689531
 20
110.540394
 30
0.0
 10
104.999733
 20
111.458178
 30
0.0
 10
105.244768
 20
112.439989
 30
0.0
 10
105.420264
 20
113.470436
 30
0.0
 10
105.521511
 20
114.544978
 30
0.0
 10
105.548995
 20
115.658344
 30
0.0
 10
105.507847
 20
116.821071
 30
0.0
 10
105.398923
 20
118.028882
 30
0.0
 10
105.215705
 20
119.275492
 30
0.0
 10
104.921337
 20
120.724915
 30
0.0
 10
104.469983
 20
122.365964
 30
0.0
 10
103.840696
 20
124.193577
 30
0.0
 10
103.164211
 20
125.920099
 30
0.0
 10
102.487919
 20
127.552736
 30
0.0
 10
101.719453
 20
129.026193
 30
0.0
 10
100.855860
 20
130.156173
 30
0.0
 10
99.967444
 20
130.925283
 30
0.0
 10
99.192565
 20
131.475585
 30
0.0
 10
98.656387
 20
131.820035
 30
0.0
 10
98.386908
 20
131.993153
 30
0.0
 11
77.342656
 21
99.644472
 31
0.0
 11
77.307146
 21
99.715470
 31
0.0
 11
77.273628
 21
99.785897
 31
0.0
 11
77.244095
 21
99.855182
 31
0.0
 11
77.224152
 21
99.908274
 31
0.0
 11
77.202495
 21
99.962867
 31
0.0
 11
77.173816
 21
100.021496
 31
0.0
 11
77.156752
 21
100.052471
 31
0.0
 11
77.145018
 21
100.082105
 31
0.0
 11
77.147005
 21
100.107424
 31
0.0
 11
77.158338
 21
100.120109
 31
0.0
 11
77.175431
 21
100.130274
 31
0.0
 11
77.195107
 21
100.138336
 31
0.0
 11
77.238405
 21
100.150601
 31
0.0
 11
77.280014
 21
100.157096
 31
0.0
 11
77.321224
 21
100.160462
 31
0.0
 11
77.379266
 21
100.163710
 31
0.0
 11
77.438407
 21
100.166387
 31
0.0
 11
77.498044
 21
100.168900
 31
0.0
 11
78.017942
 21
100.199923
 31
0.0
 11
78.532686
 21
100.244646
 31
0.0
 11
79.045297
 21
100.298198
 31
0.0
 11
79.893779
 21
100.396440
 31
0.0
 11
80.743335
 21
100.503557
 31
0.0
 11
81.592601
 21
100.617617
 31
0.0
 11
82.503487
 21
100.746243
 31
0.0
 11
83.412744
 21
100.881556
 31
0.0
 11
84.320654
 21
101.024451
 31
0.0
 11
86.141130
 21
101.337678
 31
0.0
 11
87.954998
 21
101.689827
 31
0.0
 11
89.759948
 21
102.085579
 31
0.0
 11
91.388629
 21
102.485837
 31
0.0
 11
93.006950
 21
102.925679
 31
0.0
 11
94.613801
 21
103.404911
 31
0.0
 11
96.105564
 21
103.891332
 31
0.0
 11
97.580888
 21
104.426242
 31
0.0
 11
99.034354
 21
105.023794
 31
0.0
 11
99.910944
 21
105.430445
 31
0.0
 11
100.761514
 21
105.885668
 31
0.0
 11
101.570322
 21
106.409099
 31
0.0
 11
102.238981
 21
106.941948
 31
0.0
 11
102.852984
 21
107.538497
 31
0.0
 11
103.402734
 21
108.193621
 31
0.0
 11
103.893740
 21
108.922370
 31
0.0
 11
104.311726
 21
109.696354
 31
0.0
 11
104.661843
 21
110.504234
 31
0.0
 11
104.986623
 21
111.462239
 31
0.0
 11
105.232285
 21
112.442785
 31
0.0
 11
105.402682
 21
113.438572
 31
0.0
 11
105.508667
 21
114.545445
 31
0.0
 11
105.537848
 21
115.657751
 31
0.0
 11
105.500099
 21
116.771289
 31
0.0
 11
105.387172
 21
118.028009
 31
0.0
 11
105.204219
 21
119.274877
 31
0.0
 11
104.954324
 21
120.505851
 31
0.0
 11
104.451430
 21
122.357375
 31
0.0
 11
103.830935
 21
124.180956
 31
0.0
 11
103.125558
 21
126.000297
 31
0.0
 11
102.462337
 21
127.549422
 31
0.0
 11
101.671913
 21
129.012748
 31
0.0
 11
100.665125
 21
130.290283
 31
0.0
 11
99.961864
 21
130.910424
 31
0.0
 11
99.191231
 21
131.467544
 31
0.0
 11
98.386908
 21
131.993153
 31
0.0
  0
LINE
  5
117
100
AcDbEntity
  8
Capa_1
 62
7
100
AcDbLine
 10
66.285593
 20
92.301273
 30
0.0
 11
66.285559
 21
92.301273
 31
0.0
  0
SPLINE
  5
118
100
AcDbEntity
  8
Capa_1
 62
7
100
AcDbSpline
 70
0
 71
3
 72
97
 73
93
 74
91
 40
0.000000
 40
0.000000
 40
0.000000
 40
0.000000
 40
0.843214
 40
1.672625
 40
2.486702
 40
3.383269
 40
4.299388
 40
5.225371
 40
6.299548
 40
7.363048
 40
8.422428
 40
8.860755
 40
9.299348
 40
9.738071
 40
10.206961
 40
10.675731
 40
11.144563
 40
11.569980
 40
11.995318
 40
12.420487
 40
12.886905
 40
13.353580
 40
13.820512
 40
14.252437
 40
14.684093
 40
15.115504
 40
15.537834
 40
15.960404
 40
16.383195
 40
16.782541
 40
17.181661
 40
17.580693
 40
17.950923
 40
18.321210
 40
18.691347
 40
19.053967
 40
19.416734
 40
19.780021
 40
20.392106
 40
21.005031
 40
21.617302
 40
22.236944
 40
22.857278
 40
23.477657
 40
24.154450
 40
24.831406
 40
25.508384
 40
25.932239
 40
26.355453
 40
26.778372
 40
27.210013
 40
27.641950
 40
28.074140
 40
28.539888
 40
29.005399
 40
29.470695
 40
29.897853
 40
30.325148
 40
30.752463
 40
31.220996
 40
31.689533
 40
32.158350
 40
32.594601
 40
33.030583
 40
33.466138
 40
33.640974
 40
33.815847
 40
33.990740
 40
34.168910
 40
34.347058
 40
34.525215
 40
34.668446
 40
34.811670
 40
34.954866
 40
35.427372
 40
35.900690
 40
36.374506
 40
36.846489
 40
37.317959
 40
37.789688
 40
38.208704
 40
38.627452
 40
39.045371
 40
39.357807
 40
39.670595
 40
39.983898
 40
40.278751
 40
40.573105
 40
40.866675
 40
41.148168
 40
41.430308
 40
41.713063
 40
41.713063
 40
41.713063
 40
41.713063
 10
51.357236
 20
92.305433
 30
0.0
 10
51.635275
 20
92.264083
 30
0.0
 10
52.186802
 20
92.182061
 30
0.0
 10
52.997834
 20
92.005280
 30
0.0
 10
53.795956
 20
91.707192
 30
0.0
 10
54.530886
 20
91.217485
 30
0.0
 10
55.186473
 20
90.576918
 30
0.0
 10
55.780443
 20
89.804299
 30
0.0
 10
56.300779
 20
88.922185
 30
0.0
 10
56.718897
 20
87.938785
 30
0.0
 10
56.950961
 20
87.114613
 30
0.0
 10
57.070765
 20
86.480202
 30
0.0
 10
57.131708
 20
86.045744
 30
0.0
 10
57.174726
 20
85.598955
 30
0.0
 10
57.199960
 20
85.140715
 30
0.0
 10
57.205470
 20
84.671767
 30
0.0
 10
57.190727
 20
84.217515
 30
0.0
 10
57.157537
 20
83.778775
 30
0.0
 10
57.106337
 20
83.356400
 30
0.0
 10
57.031979
 20
82.923567
 30
0.0
 10
56.930145
 20
82.482147
 30
0.0
 10
56.800050
 20
82.033740
 30
0.0
 10
56.650518
 20
81.603623
 30
0.0
 10
56.485254
 20
81.191887
 30
0.0
 10
56.304411
 20
80.799708
 30
0.0
 10
56.103509
 20
80.420980
 30
0.0
 10
55.881701
 20
80.057648
 30
0.0
 10
55.640940
 20
79.710105
 30
0.0
 10
55.385836
 20
79.382633
 30
0.0
 10
55.118910
 20
79.075017
 30
0.0
 10
54.840106
 20
78.789008
 30
0.0
 10
54.550517
 20
78.528125
 30
0.0
 10
54.251186
 20
78.293801
 30
0.0
 10
53.944376
 20
78.086064
 30
0.0
 10
53.625569
 20
77.902215
 30
0.0
 10
53.296169
 20
77.743800
 30
0.0
 10
52.957873
 20
77.611478
 30
0.0
 10
52.530829
 20
77.481306
 30
0.0
 10
52.009349
 20
77.380752
 30
0.0
 10
51.396193
 20
77.344968
 30
0.0
 10
50.781056
 20
77.392960
 30
0.0
 10
50.176808
 20
77.529529
 30
0.0
 10
49.594138
 20
77.746733
 30
0.0
 10
49.026484
 20
78.043984
 30
0.0
 10
48.485004
 20
78.420996
 30
0.0
 10
47.977823
 20
78.871351
 30
0.0
 10
47.577600
 20
79.309755
 30
0.0
 10
47.264600
 20
79.710209
 30
0.0
 10
47.023802
 20
80.058689
 30
0.0
 10
46.802465
 20
80.422871
 30
0.0
 10
46.601630
 20
80.802038
 30
0.0
 10
46.420669
 20
81.194446
 30
0.0
 10
46.255549
 20
81.606015
 30
0.0
 10
46.106742
 20
82.035655
 30
0.0
 10
45.977648
 20
82.483148
 30
0.0
 10
45.876393
 20
82.924594
 30
0.0
 10
45.802149
 20
83.358399
 30
0.0
 10
45.750909
 20
83.782732
 30
0.0
 10
45.717884
 20
84.222676
 30
0.0
 10
45.703502
 20
84.677393
 30
0.0
 10
45.709043
 20
85.146132
 30
0.0
 10
45.733465
 20
85.603468
 30
0.0
 10
45.774294
 20
86.048736
 30
0.0
 10
45.833800
 20
86.480758
 30
0.0
 10
45.900153
 20
86.823417
 30
0.0
 10
45.961302
 20
87.077949
 30
0.0
 10
46.005565
 20
87.247131
 30
0.0
 10
46.052623
 20
87.416705
 30
0.0
 10
46.101599
 20
87.586871
 30
0.0
 10
46.152978
 20
87.757465
 30
0.0
 10
46.203370
 20
87.916177
 30
0.0
 10
46.252572
 20
88.063030
 30
0.0
 10
46.300529
 20
88.197990
 30
0.0
 10
46.390509
 20
88.434442
 30
0.0
 10
46.538768
 20
88.766292
 30
0.0
 10
46.763452
 20
89.183153
 30
0.0
 10
47.013323
 20
89.585092
 30
0.0
 10
47.282679
 20
89.973454
 30
0.0
 10
47.573140
 20
90.345511
 30
0.0
 10
47.874690
 20
90.685433
 30
0.0
 10
48.185140
 20
90.992714
 30
0.0
 10
48.503120
 20
91.265507
 30
0.0
 10
48.813867
 20
91.490383
 30
0.0
 10
49.111661
 20
91.670405
 30
0.0
 10
49.389446
 20
91.814734
 30
0.0
 10
49.669786
 20
91.940186
 30
0.0
 10
49.950411
 20
92.048982
 30
0.0
 10
50.230821
 20
92.138854
 30
0.0
 10
50.512667
 20
92.207644
 30
0.0
 10
50.795035
 20
92.252854
 30
0.0
 10
51.075631
 20
92.282786
 30
0.0
 10
51.263326
 20
92.297878
 30
0.0
 10
51.357276
 20
92.305433
 30
0.0
 11
51.357236
 21
92.305433
 31
0.0
 11
52.189827
 21
92.172010
 31
0.0
 11
52.997841
 21
91.984825
 31
0.0
 11
53.756698
 21
91.690112
 31
0.0
 11
54.507499
 21
91.200081
 31
0.0
 11
55.167843
 21
90.565085
 31
0.0
 11
55.735756
 21
89.833703
 31
0.0
 11
56.281509
 21
88.908495
 31
0.0
 11
56.698031
 21
87.929955
 31
0.0
 11
56.985702
 21
86.910380
 31
0.0
 11
57.067342
 21
86.479724
 31
0.0
 11
57.128552
 21
86.045422
 31
0.0
 11
57.170873
 21
85.608746
 31
0.0
 11
57.196582
 21
85.140561
 31
0.0
 11
57.202017
 21
84.671823
 31
0.0
 11
57.186734
 21
84.203239
 31
0.0
 11
57.154349
 21
83.779057
 31
0.0
 11
57.102856
 21
83.356847
 31
0.0
 11
57.030555
 21
82.937871
 31
0.0
 11
56.925979
 21
82.483327
 31
0.0
 11
56.796206
 21
82.035060
 31
0.0
 11
56.643118
 21
81.593937
 31
0.0
 11
56.481886
 21
81.193232
 31
0.0
 11
56.300782
 21
80.801405
 31
0.0
 11
56.098276
 21
80.420477
 31
0.0
 11
55.878337
 21
80.059937
 31
0.0
 11
55.637807
 21
79.712502
 31
0.0
 11
55.378071
 21
79.378902
 31
0.0
 11
55.116013
 21
79.077566
 31
0.0
 11
54.837085
 21
78.792091
 31
0.0
 11
54.540311
 21
78.525349
 31
0.0
 11
54.248690
 21
78.297253
 31
0.0
 11
53.941968
 21
78.089807
 31
0.0
 11
53.621218
 21
77.905089
 31
0.0
 11
53.294389
 21
77.748001
 31
0.0
 11
52.956514
 21
77.615940
 31
0.0
 11
52.608985
 21
77.510105
 31
0.0
 11
52.007972
 21
77.394210
 31
0.0
 11
51.396065
 21
77.358904
 31
0.0
 11
50.785708
 21
77.407289
 31
0.0
 11
50.181066
 21
77.542800
 31
0.0
 11
49.599476
 21
77.758596
 31
0.0
 11
49.049638
 21
78.045907
 31
0.0
 11
48.493350
 21
78.431384
 31
0.0
 11
47.986164
 21
78.879751
 31
0.0
 11
47.528838
 21
79.378902
 31
0.0
 11
47.267813
 21
79.712846
 31
0.0
 11
47.027215
 21
80.061017
 31
0.0
 11
46.807557
 21
80.422418
 31
0.0
 11
46.605226
 21
80.803701
 31
0.0
 11
46.424050
 21
81.195803
 31
0.0
 11
46.262840
 21
81.596801
 31
0.0
 11
46.110607
 21
82.036968
 31
0.0
 11
45.981789
 21
82.484301
 31
0.0
 11
45.877991
 21
82.937871
 31
0.0
 11
45.805634
 21
83.358855
 31
0.0
 11
45.754118
 21
83.783034
 31
0.0
 11
45.721851
 21
84.209129
 31
0.0
 11
45.706895
 21
84.677424
 31
0.0
 11
45.712283
 21
85.145929
 31
0.0
 11
45.737120
 21
85.614088
 31
0.0
 11
45.777587
 21
86.048458
 31
0.0
 11
45.837726
 21
86.480272
 31
0.0
 11
45.921179
 21
86.907758
 31
0.0
 11
45.961867
 21
87.077793
 31
0.0
 11
46.005979
 21
87.247011
 31
0.0
 11
46.052596
 21
87.415577
 31
0.0
 11
46.101951
 21
87.586775
 31
0.0
 11
46.153400
 21
87.757332
 31
0.0
 11
46.207389
 21
87.927111
 31
0.0
 11
46.252983
 21
88.062892
 31
0.0
 11
46.301029
 21
88.197816
 31
0.0
 11
46.352051
 21
88.331614
 31
0.0
 11
46.543881
 21
88.763428
 31
0.0
 11
46.767585
 21
89.180545
 31
0.0
 11
47.016964
 21
89.583425
 31
0.0
 11
47.286364
 21
89.970970
 31
0.0
 11
47.576886
 21
90.342292
 31
0.0
 11
47.890283
 21
90.694870
 31
0.0
 11
48.188589
 21
90.989128
 31
0.0
 11
48.506933
 21
91.261171
 31
0.0
 11
48.845992
 21
91.505497
 31
0.0
 11
49.113200
 21
91.667410
 31
0.0
 11
49.390610
 21
91.811911
 31
0.0
 11
49.676456
 21
91.940170
 31
0.0
 11
49.951556
 21
92.046277
 31
0.0
 11
50.232033
 21
92.135591
 31
0.0
 11
50.517366
 21
92.204646
 31
0.0
 11
50.795119
 21
92.250377
 31
0.0
 11
51.075532
 21
92.281546
 31
0.0
 11
51.357276
 21
92.305433
 31
0.0
  0
LINE
  5
119
100
AcDbEntity
  8
Capa_1
 62
7
100
AcDbLine
 10
53.014301
 20
86.103021
 30
0.0
 11
53.014301
 21
86.103021
 31
0.0
  0
SPLINE
  5
11a
100
AcDbEntity
  8
Capa_1
 62
7
100
AcDbSpline
 70
0
 71
3
 72
79
 73
75
 74
73
 40
0.000000
 40
0.000000
 40
0.000000
 40
0.000000
 40
0.190000
 40
0.379818
 40
0.569450
 40
0.762375
 40
0.955517
 40
1.148787
 40
1.347161
 40
1.545403
 40
1.743551
 40
2.737900
 40
3.743296
 40
4.753519
 40
5.869856
 40
6.981487
 40
8.093779
 40
9.274294
 40
10.454297
 40
11.631544
 40
12.112226
 40
12.592512
 40
13.072827
 40
13.513952
 40
13.955019
 40
14.395875
 40
14.830335
 40
15.265003
 40
15.699943
 40
16.160816
 40
16.621458
 40
17.082008
 40
17.507388
 40
17.932814
 40
18.358072
 40
18.766235
 40
19.174560
 40
19.583805
 40
20.572687
 40
21.569312
 40
22.561669
 40
23.610798
 40
24.665503
 40
25.727172
 40
26.968000
 40
28.202117
 40
29.430188
 40
29.788283
 40
30.146212
 40
30.504121
 40
30.920462
 40
31.336847
 40
31.753367
 40
32.115713
 40
32.477928
 40
32.840004
 40
33.547800
 40
34.257048
 40
34.967226
 40
35.628620
 40
36.289044
 40
36.949579
 40
37.562951
 40
38.176151
 40
38.787887
 40
39.123105
 40
39.458397
 40
39.794140
 40
40.115550
 40
40.436528
 40
40.756541
 40
41.070173
 40
41.384625
 40
41.699899
 40
41.699899
 40
41.699899
 40
41.699899
 10
66.285559
 20
92.301273
 30
0.0
 10
66.348778
 20
92.297464
 30
0.0
 10
66.475155
 20
92.289849
 30
0.0
 10
66.664415
 20
92.275089
 30
0.0
 10
66.854055
 20
92.253529
 30
0.0
 10
67.043375
 20
92.221615
 30
0.0
 10
67.232115
 20
92.180459
 30
0.0
 10
67.420725
 20
92.131047
 30
0.0
 10
67.609063
 20
92.074404
 30
0.0
 10
67.796587
 20
92.009871
 30
0.0
 10
68.228280
 20
91.840681
 30
0.0
 10
68.873303
 20
91.480385
 30
0.0
 10
69.645085
 20
90.832133
 30
0.0
 10
70.331934
 20
90.040935
 30
0.0
 10
70.914564
 20
89.127470
 30
0.0
 10
71.373941
 20
88.109392
 30
0.0
 10
71.703022
 20
87.020359
 30
0.0
 10
71.900486
 20
85.876674
 30
0.0
 10
71.957129
 20
84.695920
 30
0.0
 10
71.886345
 20
83.749912
 30
0.0
 10
71.770848
 20
83.046355
 30
0.0
 10
71.668743
 20
82.576671
 30
0.0
 10
71.546018
 20
82.125623
 30
0.0
 10
71.405125
 20
81.693669
 30
0.0
 10
71.246722
 20
81.281853
 30
0.0
 10
71.066177
 20
80.881636
 30
0.0
 10
70.862566
 20
80.495056
 30
0.0
 10
70.637936
 20
80.122632
 30
0.0
 10
70.388052
 20
79.755985
 30
0.0
 10
70.113165
 20
79.396657
 30
0.0
 10
69.810541
 20
79.048859
 30
0.0
 10
69.492623
 20
78.731410
 30
0.0
 10
69.160974
 20
78.446071
 30
0.0
 10
68.818483
 20
78.193136
 30
0.0
 10
68.462091
 20
77.970773
 30
0.0
 10
68.093948
 20
77.780582
 30
0.0
 10
67.715813
 20
77.624364
 30
0.0
 10
67.139945
 20
77.445876
 30
0.0
 10
66.341714
 20
77.337125
 30
0.0
 10
65.345339
 20
77.412452
 30
0.0
 10
64.364677
 20
77.695479
 30
0.0
 10
63.456042
 20
78.202913
 30
0.0
 10
62.651083
 20
78.893778
 30
0.0
 10
61.928222
 20
79.753121
 30
0.0
 10
61.308140
 20
80.761535
 30
0.0
 10
60.830260
 20
81.904695
 30
0.0
 10
60.603140
 20
82.821257
 30
0.0
 10
60.510839
 20
83.462795
 30
0.0
 10
60.474080
 20
83.818978
 30
0.0
 10
60.448446
 20
84.195558
 30
0.0
 10
60.434233
 20
84.592259
 30
0.0
 10
60.433333
 20
85.008750
 30
0.0
 10
60.445535
 20
85.407048
 30
0.0
 10
60.468485
 20
85.786772
 30
0.0
 10
60.502993
 20
86.147432
 30
0.0
 10
60.568574
 20
86.620420
 30
0.0
 10
60.693192
 20
87.201204
 30
0.0
 10
60.903476
 20
87.879254
 30
0.0
 10
61.162769
 20
88.523334
 30
0.0
 10
61.461263
 20
89.132018
 30
0.0
 10
61.799081
 20
89.700849
 30
0.0
 10
62.177338
 20
90.224226
 30
0.0
 10
62.593475
 20
90.697208
 30
0.0
 10
63.042181
 20
91.116034
 30
0.0
 10
63.458995
 20
91.429028
 30
0.0
 10
63.822808
 20
91.653853
 30
0.0
 10
64.118970
 20
91.811806
 30
0.0
 10
64.420288
 20
91.948863
 30
0.0
 10
64.724969
 20
92.065556
 30
0.0
 10
65.032030
 20
92.159410
 30
0.0
 10
65.343192
 20
92.228009
 30
0.0
 10
65.657004
 20
92.268046
 30
0.0
 10
65.970825
 20
92.289265
 30
0.0
 10
66.180584
 20
92.297267
 30
0.0
 10
66.285601
 20
92.301273
 30
0.0
 11
66.285559
 21
92.301273
 31
0.0
 11
66.475180
 21
92.289287
 31
0.0
 11
66.664379
 21
92.273969
 31
0.0
 11
66.852732
 21
92.251983
 31
0.0
 11
67.043009
 21
92.220122
 31
0.0
 11
67.231758
 21
92.179169
 31
0.0
 11
67.418768
 21
92.130379
 31
0.0
 11
67.608709
 21
92.073153
 31
0.0
 11
67.796132
 21
92.008557
 31
0.0
 11
67.980577
 21
91.936151
 31
0.0
 11
68.851736
 21
91.456762
 31
0.0
 11
69.625239
 21
90.814491
 31
0.0
 11
70.289764
 21
90.053599
 31
0.0
 11
70.891696
 21
89.113446
 31
0.0
 11
71.351144
 21
88.101205
 31
0.0
 11
71.674950
 21
87.037089
 31
0.0
 11
71.876399
 21
85.873889
 31
0.0
 11
71.932983
 21
84.695244
 31
0.0
 11
71.844668
 21
83.521314
 31
0.0
 11
71.766781
 21
83.046985
 31
0.0
 11
71.664732
 21
82.577665
 31
0.0
 11
71.538617
 21
82.114202
 31
0.0
 11
71.401520
 21
81.694923
 31
0.0
 11
71.242853
 21
81.283383
 31
0.0
 11
71.061241
 21
80.881673
 31
0.0
 11
70.858945
 21
80.497184
 31
0.0
 11
70.634602
 21
80.124885
 31
0.0
 11
70.389790
 21
79.765385
 31
0.0
 11
70.109358
 21
79.399651
 31
0.0
 11
69.806576
 21
79.052499
 31
0.0
 11
69.480295
 21
78.727465
 31
0.0
 11
69.157691
 21
78.450202
 31
0.0
 11
68.815307
 21
78.197693
 31
0.0
 11
68.454352
 21
77.972848
 31
0.0
 11
68.091543
 21
77.785854
 31
0.0
 11
67.713999
 21
77.630322
 31
0.0
 11
67.322982
 21
77.509543
 31
0.0
 11
66.343670
 21
77.372301
 31
0.0
 11
65.349808
 21
77.446449
 31
0.0
 11
64.397145
 21
77.724309
 31
0.0
 11
63.478175
 21
78.230438
 31
0.0
 11
62.673340
 21
78.912085
 31
0.0
 11
61.986372
 21
79.721539
 31
0.0
 11
61.335755
 21
80.778114
 31
0.0
 11
60.859493
 21
81.916631
 31
0.0
 11
60.564508
 21
83.108748
 31
0.0
 11
60.513204
 21
83.463149
 31
0.0
 11
60.476153
 21
83.819155
 31
0.0
 11
60.451540
 21
84.176217
 31
0.0
 11
60.436569
 21
84.592288
 31
0.0
 11
60.435608
 21
85.008672
 31
0.0
 11
60.448294
 21
85.424999
 31
0.0
 11
60.470598
 21
85.786658
 31
0.0
 11
60.505540
 21
86.147184
 31
0.0
 11
60.555714
 21
86.505766
 31
0.0
 11
60.703275
 21
87.198009
 31
0.0
 11
60.912512
 21
87.875691
 31
0.0
 11
61.177043
 21
88.534763
 31
0.0
 11
61.469188
 21
89.128138
 31
0.0
 11
61.807361
 21
89.695410
 31
0.0
 11
62.195112
 21
90.230160
 31
0.0
 11
62.600743
 21
90.690256
 31
0.0
 11
63.049622
 21
91.108014
 31
0.0
 11
63.539418
 21
91.474511
 31
0.0
 11
63.824562
 21
91.650762
 31
0.0
 11
64.120393
 21
91.808573
 31
0.0
 11
64.425991
 21
91.947618
 31
0.0
 11
64.726320
 21
92.062105
 31
0.0
 11
65.033446
 21
92.155380
 31
0.0
 11
65.346086
 21
92.223679
 31
0.0
 11
65.656995
 21
92.264920
 31
0.0
 11
65.970619
 21
92.287710
 31
0.0
 11
66.285601
 21
92.301273
 31
0.0
  0
LINE
  5
11b
100
AcDbEntity
  8
Capa_1
 62
7
100
AcDbLine
 10
64.818901
 20
86.088323
 30
0.0
 11
64.818901
 21
86.088323
 31
0.0
  0
SPLINE
  5
11c
100
AcDbEntity
  8
Capa_1
 62
7
100
AcDbSpline
 70
0
 71
3
 72
79
 73
75
 74
73
 40
0.000000
 40
0.000000
 40
0.000000
 40
0.000000
 40
0.088477
 40
0.176820
 40
0.265056
 40
0.354118
 40
0.443315
 40
0.532501
 40
0.623889
 40
0.715280
 40
0.806757
 40
0.992249
 40
1.177736
 40
1.363244
 40
1.534066
 40
1.704836
 40
1.875307
 40
2.069255
 40
2.263571
 40
2.458344
 40
2.593107
 40
2.727540
 40
2.861682
 40
2.984462
 40
3.107498
 40
3.230599
 40
3.406048
 40
3.581431
 40
3.756893
 40
3.929226
 40
4.101481
 40
4.273754
 40
4.398189
 40
4.522593
 40
4.646846
 40
4.775088
 40
4.903491
 40
5.032094
 40
5.240477
 40
5.448643
 40
5.656402
 40
5.856635
 40
6.057256
 40
6.259041
 40
6.435281
 40
6.610493
 40
6.783921
 40
6.963627
 40
7.145259
 40
7.327995
 40
7.539864
 40
7.750492
 40
7.961342
 40
8.136604
 40
8.311597
 40
8.485286
 40
8.975703
 40
9.481197
 40
9.995878
 40
10.538272
 40
11.071034
 40
11.603609
 40
12.139821
 40
12.676190
 40
13.208006
 40
13.437686
 40
13.667515
 40
13.898214
 40
14.110377
 40
14.321711
 40
14.531211
 40
14.727290
 40
14.924827
 40
15.123766
 40
15.123766
 40
15.123766
 40
15.123766
 10
53.014301
 20
86.103021
 30
0.0
 10
52.984848
 20
86.101499
 30
0.0
 10
52.925986
 20
86.098458
 30
0.0
 10
52.837871
 20
86.091768
 30
0.0
 10
52.749952
 20
86.080742
 30
0.0
 10
52.662784
 20
86.063205
 30
0.0
 10
52.576760
 20
86.039560
 30
0.0
 10
52.491756
 20
86.010029
 30
0.0
 10
52.408153
 20
85.974831
 30
0.0
 10
52.325930
 20
85.934784
 30
0.0
 10
52.218005
 20
85.876179
 30
0.0
 10
52.086365
 20
85.795703
 30
0.0
 10
51.935513
 20
85.687455
 30
0.0
 10
51.797422
 20
85.570728
 30
0.0
 10
51.672816
 20
85.446602
 30
0.0
 10
51.561636
 20
85.316856
 30
0.0
 10
51.456671
 20
85.172353
 30
0.0
 10
51.360847
 20
85.012383
 30
0.0
 10
51.272910
 20
84.838956
 30
0.0
 10
51.201197
 20
84.679713
 30
0.0
 10
51.140395
 20
84.537497
 30
0.0
 10
51.092219
 20
84.411926
 30
0.0
 10
51.052871
 20
84.287420
 30
0.0
 10
51.024342
 20
84.163907
 30
0.0
 10
51.004436
 20
84.042487
 30
0.0
 10
50.989213
 20
83.902729
 30
0.0
 10
50.980515
 20
83.744912
 30
0.0
 10
50.978134
 20
83.569475
 30
0.0
 10
50.979069
 20
83.395084
 30
0.0
 10
50.979689
 20
83.221734
 30
0.0
 10
50.983074
 20
83.049466
 30
0.0
 10
50.991745
 20
82.893323
 30
0.0
 10
51.006405
 20
82.753673
 30
0.0
 10
51.025350
 20
82.630704
 30
0.0
 10
51.051587
 20
82.507754
 30
0.0
 10
51.086405
 20
82.385563
 30
0.0
 10
51.128663
 20
82.264238
 30
0.0
 10
51.186476
 20
82.120244
 30
0.0
 10
51.262109
 20
81.954890
 30
0.0
 10
51.360421
 20
81.771309
 30
0.0
 10
51.469478
 20
81.597065
 30
0.0
 10
51.589252
 20
81.433115
 30
0.0
 10
51.719054
 20
81.279579
 30
0.0
 10
51.853803
 20
81.141366
 30
0.0
 10
51.991007
 20
81.017900
 30
0.0
 10
52.131749
 20
80.913383
 30
0.0
 10
52.286463
 20
80.827647
 30
0.0
 10
52.455954
 20
80.769807
 30
0.0
 10
52.634324
 20
80.735038
 30
0.0
 10
52.825652
 20
80.716286
 30
0.0
 10
53.027451
 20
80.709545
 30
0.0
 10
53.238597
 20
80.719295
 30
0.0
 10
53.435978
 20
80.746192
 30
0.0
 10
53.618578
 20
80.787681
 30
0.0
 10
53.784848
 20
80.842077
 30
0.0
 10
54.040295
 20
80.957553
 30
0.0
 10
54.350888
 20
81.205991
 30
0.0
 10
54.646839
 20
81.617983
 30
0.0
 10
54.870541
 20
82.090458
 30
0.0
 10
55.030668
 20
82.597490
 30
0.0
 10
55.113866
 20
83.129064
 30
0.0
 10
55.114844
 20
83.664926
 30
0.0
 10
55.035713
 20
84.196208
 30
0.0
 10
54.873378
 20
84.708322
 30
0.0
 10
54.668340
 20
85.092906
 30
0.0
 10
54.469894
 20
85.357646
 30
0.0
 10
54.314869
 20
85.528139
 30
0.0
 10
54.148407
 20
85.678889
 30
0.0
 10
53.973430
 20
85.809597
 30
0.0
 10
53.791445
 20
85.917290
 30
0.0
 10
53.601741
 20
85.998636
 30
0.0
 10
53.406678
 20
86.049501
 30
0.0
 10
53.211516
 20
86.080791
 30
0.0
 10
53.080183
 20
86.095593
 30
0.0
 10
53.014285
 20
86.103021
 30
0.0
 11
53.014301
 21
86.103021
 31
0.0
 11
52.925961
 21
86.098100
 31
0.0
 11
52.837900
 21
86.091046
 31
0.0
 11
52.750395
 21
86.079710
 31
0.0
 11
52.663070
 21
86.062208
 31
0.0
 11
52.577049
 21
86.038620
 31
0.0
 11
52.492789
 21
86.009391
 31
0.0
 11
52.408501
 21
85.974073
 31
0.0
 11
52.326266
 21
85.934199
 31
0.0
 11
52.245802
 21
85.890686
 31
0.0
 11
52.087623
 21
85.793801
 31
0.0
 11
51.937022
 21
85.685519
 31
0.0
 11
51.795463
 21
85.565628
 31
0.0
 11
51.674451
 21
85.445061
 31
0.0
 11
51.563365
 21
85.315359
 31
0.0
 11
51.463239
 21
85.177391
 31
0.0
 11
51.362913
 21
85.011408
 31
0.0
 11
51.274330
 21
84.838458
 31
0.0
 11
51.193655
 21
84.661179
 31
0.0
 11
51.141134
 21
84.537071
 31
0.0
 11
51.093456
 21
84.411377
 31
0.0
 11
51.053512
 21
84.283320
 31
0.0
 11
51.025657
 21
84.163741
 31
0.0
 11
51.005537
 21
84.042362
 31
0.0
 11
50.992004
 21
83.920007
 31
0.0
 11
50.981727
 21
83.744859
 31
0.0
 11
50.978688
 21
83.569502
 31
0.0
 11
50.979022
 21
83.394041
 31
0.0
 11
50.980151
 21
83.221712
 31
0.0
 11
50.984102
 21
83.049502
 31
0.0
 11
50.994262
 21
82.877529
 31
0.0
 11
51.007400
 21
82.753789
 31
0.0
 11
51.026530
 21
82.630865
 31
0.0
 11
51.052643
 21
82.509387
 31
0.0
 11
51.087562
 21
82.385991
 31
0.0
 11
51.129574
 21
82.264655
 31
0.0
 11
51.177277
 21
82.145227
 31
0.0
 11
51.264092
 21
81.955790
 31
0.0
 11
51.362519
 21
81.772363
 31
0.0
 11
51.472905
 21
81.596356
 31
0.0
 11
51.591035
 21
81.434681
 31
0.0
 11
51.720552
 21
81.281468
 31
0.0
 11
51.861381
 21
81.136954
 31
0.0
 11
51.993042
 21
81.019796
 31
0.0
 11
52.134401
 21
80.916273
 31
0.0
 11
52.286679
 21
80.833275
 31
0.0
 11
52.456318
 21
80.773970
 31
0.0
 11
52.634341
 21
80.737948
 31
0.0
 11
52.816097
 21
80.719045
 31
0.0
 11
53.027861
 21
80.712350
 31
0.0
 11
53.238247
 21
80.722415
 31
0.0
 11
53.447134
 21
80.751120
 31
0.0
 11
53.617956
 21
80.790321
 31
0.0
 11
53.784128
 21
80.845181
 31
0.0
 11
53.942107
 21
80.917363
 31
0.0
 11
54.330067
 21
81.217356
 31
0.0
 11
54.631826
 21
81.622900
 31
0.0
 11
54.855937
 21
82.086226
 31
0.0
 11
55.018238
 21
82.603768
 31
0.0
 11
55.100251
 21
83.130179
 31
0.0
 11
55.101597
 21
83.662753
 31
0.0
 11
55.021813
 21
84.192996
 31
0.0
 11
54.857619
 21
84.703615
 31
0.0
 11
54.604934
 21
85.171566
 31
0.0
 11
54.467120
 21
85.355305
 31
0.0
 11
54.312443
 21
85.525296
 31
0.0
 11
54.141415
 21
85.680122
 31
0.0
 11
53.971080
 21
85.806609
 31
0.0
 11
53.788795
 21
85.913540
 31
0.0
 11
53.595891
 21
85.995263
 31
0.0
 11
53.406570
 21
86.046298
 31
0.0
 11
53.211792
 21
86.079194
 31
0.0
 11
53.014285
 21
86.103021
 31
0.0
  0
LINE
  5
11d
100
AcDbEntity
  8
Capa_1
 62
7
100
AcDbLine
 10
58.710816
 20
76.790125
 30
0.0
 11
58.710816
 21
76.790125
 31
0.0
  0
SPLINE
  5
11e
100
AcDbEntity
  8
Capa_1
 62
7
100
AcDbSpline
 70
0
 71
3
 72
61
 73
57
 74
55
 40
0.000000
 40
0.000000
 40
0.000000
 40
0.000000
 40
0.088034
 40
0.175930
 40
0.263689
 40
0.355271
 40
0.447023
 40
0.538841
 40
0.636289
 40
0.733667
 40
0.831086
 40
1.135089
 40
1.440588
 40
1.746320
 40
2.072480
 40
2.398492
 40
2.724463
 40
3.089987
 40
3.455665
 40
3.821795
 40
4.164236
 40
4.506185
 40
4.848671
 40
5.148593
 40
5.447946
 40
5.745586
 40
6.037436
 40
6.330852
 40
6.625540
 40
6.755463
 40
6.884701
 40
7.013534
 40
7.109922
 40
7.206508
 40
7.302893
 40
7.432973
 40
7.563466
 40
7.694827
 40
7.968081
 40
8.239769
 40
8.508998
 40
8.773702
 40
9.040880
 40
9.308993
 40
9.627134
 40
9.944412
 40
10.261763
 40
10.861741
 40
11.464370
 40
12.076292
 40
12.625135
 40
13.165025
 40
13.685569
 40
14.135524
 40
14.599524
 40
15.075940
 40
15.075940
 40
15.075940
 40
15.075940
 10
64.818901
 20
86.088323
 30
0.0
 10
64.789559
 20
86.087846
 30
0.0
 10
64.730923
 20
86.086892
 30
0.0
 10
64.643082
 20
86.083379
 30
0.0
 10
64.554279
 20
86.075703
 30
0.0
 10
64.464952
 20
86.061552
 30
0.0
 10
64.375412
 20
86.041446
 30
0.0
 10
64.285251
 20
86.015891
 30
0.0
 10
64.194675
 20
85.985348
 30
0.0
 10
64.104029
 20
85.949542
 30
0.0
 10
63.952681
 20
85.880583
 30
0.0
 10
63.748905
 20
85.760147
 30
0.0
 10
63.511252
 20
85.567278
 30
0.0
 10
63.297649
 20
85.337848
 30
0.0
 10
63.114691
 20
85.074863
 30
0.0
 10
62.965044
 20
84.784239
 30
0.0
 10
62.846160
 20
84.465834
 30
0.0
 10
62.761030
 20
84.123080
 30
0.0
 10
62.711031
 20
83.760131
 30
0.0
 10
62.695057
 20
83.401985
 30
0.0
 10
62.706373
 20
83.051645
 30
0.0
 10
62.747096
 20
82.711282
 30
0.0
 10
62.818351
 20
82.390364
 30
0.0
 10
62.917956
 20
82.092088
 30
0.0
 10
63.043566
 20
81.820032
 30
0.0
 10
63.201716
 20
81.568281
 30
0.0
 10
63.393878
 20
81.344158
 30
0.0
 10
63.609965
 20
81.145079
 30
0.0
 10
63.799887
 20
80.999057
 30
0.0
 10
63.951265
 20
80.893316
 30
0.0
 10
64.061683
 20
80.825745
 30
0.0
 10
64.168088
 20
80.773763
 30
0.0
 10
64.269250
 20
80.737608
 30
0.0
 10
64.362792
 20
80.713560
 30
0.0
 10
64.469233
 20
80.696272
 30
0.0
 10
64.588316
 20
80.689996
 30
0.0
 10
64.718973
 20
80.695359
 30
0.0
 10
64.896453
 20
80.713488
 30
0.0
 10
65.119690
 20
80.746450
 30
0.0
 10
65.383567
 20
80.812390
 30
0.0
 10
65.633481
 20
80.914244
 30
0.0
 10
65.859125
 20
81.059619
 30
0.0
 10
66.059009
 20
81.237430
 30
0.0
 10
66.245521
 20
81.453158
 30
0.0
 10
66.412692
 20
81.704717
 30
0.0
 10
66.555545
 20
81.989120
 30
0.0
 10
66.701892
 20
82.374277
 30
0.0
 10
66.822478
 20
82.868882
 30
0.0
 10
66.865752
 20
83.475095
 30
0.0
 10
66.805474
 20
84.062778
 30
0.0
 10
66.655793
 20
84.612130
 30
0.0
 10
66.423041
 20
85.099229
 30
0.0
 10
66.099259
 20
85.494734
 30
0.0
 10
65.695329
 20
85.759735
 30
0.0
 10
65.267510
 20
85.940502
 30
0.0
 10
64.969747
 20
86.038623
 30
0.0
 10
64.818901
 20
86.088331
 30
0.0
 11
64.818901
 21
86.088323
 31
0.0
 11
64.730884
 21
86.086543
 31
0.0
 11
64.643072
 21
86.082699
 31
0.0
 11
64.555669
 21
86.074804
 31
0.0
 11
64.465195
 21
86.060606
 31
0.0
 11
64.375644
 21
86.040632
 31
0.0
 11
64.287273
 21
86.015707
 31
0.0
 11
64.194936
 21
85.984562
 31
0.0
 11
64.104370
 21
85.948782
 31
0.0
 11
64.015722
 21
85.908384
 31
0.0
 11
63.753672
 21
85.754282
 31
0.0
 11
63.516167
 21
85.562132
 31
0.0
 11
63.307759
 21
85.338442
 31
0.0
 11
63.120863
 21
85.071140
 31
0.0
 11
62.970931
 21
84.781650
 31
0.0
 11
62.856361
 21
84.476476
 31
0.0
 11
62.767431
 21
84.121935
 31
0.0
 11
62.716660
 21
83.759798
 31
0.0
 11
62.699556
 21
83.394069
 31
0.0
 11
62.711328
 21
83.051830
 31
0.0
 11
62.752667
 21
82.712389
 31
0.0
 11
62.827527
 21
82.378184
 31
0.0
 11
62.923162
 21
82.093919
 31
0.0
 11
63.049492
 21
81.822528
 31
0.0
 11
63.208716
 21
81.571057
 31
0.0
 11
63.397601
 21
81.348574
 31
0.0
 11
63.612425
 21
81.148715
 31
0.0
 11
63.845271
 21
80.968095
 31
0.0
 11
63.952186
 21
80.894277
 31
0.0
 11
64.062808
 21
80.827454
 31
0.0
 11
64.178871
 21
80.771533
 31
0.0
 11
64.269617
 21
80.739038
 31
0.0
 11
64.363157
 21
80.714974
 31
0.0
 11
64.458300
 21
80.699549
 31
0.0
 11
64.588163
 21
80.692034
 31
0.0
 11
64.718573
 21
80.696660
 31
0.0
 11
64.849324
 21
80.709314
 31
0.0
 11
65.119387
 21
80.750945
 31
0.0
 11
65.382468
 21
80.818790
 31
0.0
 11
65.631009
 21
80.922287
 31
0.0
 11
65.854238
 21
81.064545
 31
0.0
 11
66.054600
 21
81.241291
 31
0.0
 11
66.230477
 21
81.443656
 31
0.0
 11
66.407263
 21
81.708156
 31
0.0
 11
66.550554
 21
81.991235
 31
0.0
 11
66.664086
 21
82.287583
 31
0.0
 11
66.805659
 21
82.870618
 31
0.0
 11
66.848179
 21
83.471745
 31
0.0
 11
66.785953
 21
84.080495
 31
0.0
 11
66.639340
 21
84.609394
 31
0.0
 11
66.401074
 21
85.093862
 31
0.0
 11
66.065360
 21
85.491685
 31
0.0
 11
65.693498
 21
85.745019
 31
0.0
 11
65.269286
 21
85.933010
 31
0.0
 11
64.818901
 21
86.088331
 31
0.0
  0
SPLINE
  5
11f
100
AcDbEntity
  8
Capa_1
 62
7
100
AcDbSpline
 70
0
 71
3
 72
52
 73
48
 74
46
 40
0.000000
 40
0.000000
 40
0.000000
 40
0.000000
 40
4.491129
 40
8.910639
 40
13.259622
 40
17.518165
 40
21.850278
 40
26.216462
 40
30.695990
 40
35.141904
 40
39.552682
 40
39.565607
 40
39.578529
 40
39.591445
 40
39.615439
 40
39.639438
 40
39.663435
 40
39.676361
 40
39.689283
 40
39.702199
 40
44.122732
 40
48.579158
 40
53.041881
 40
57.360401
 40
61.671362
 40
65.979540
 40
70.422932
 40
74.870938
 40
79.317800
 40
83.764233
 40
88.211847
 40
92.656304
 40
96.967546
 40
101.280024
 40
105.593267
 40
110.042090
 40
114.491907
 40
118.931652
 40
123.361164
 40
127.801066
 40
132.268553
 40
136.630417
 40
140.963729
 40
145.224489
 40
149.574252
 40
153.993649
 40
158.484415
 40
158.484415
 40
158.484415
 40
158.484415
 10
58.710816
 20
76.790125
 30
0.0
 10
60.191102
 20
76.565858
 30
0.0
 10
63.128068
 20
76.120899
 30
0.0
 10
67.447438
 20
75.150210
 30
0.0
 10
71.520050
 20
73.560717
 30
0.0
 10
75.113034
 20
71.114065
 30
0.0
 10
78.173745
 20
68.035591
 30
0.0
 10
80.704741
 20
64.420037
 30
0.0
 10
82.607474
 20
60.394615
 30
0.0
 10
83.803043
 20
56.091589
 30
0.0
 10
84.090464
 20
53.130304
 30
0.0
 10
84.097211
 20
51.651448
 30
0.0
 10
84.097266
 20
51.638527
 30
0.0
 10
84.097335
 20
51.621916
 30
0.0
 10
84.097421
 20
51.601613
 30
0.0
 10
84.097523
 20
51.577617
 30
0.0
 10
84.097581
 20
51.557310
 30
0.0
 10
84.097662
 20
51.540695
 30
0.0
 10
84.097719
 20
51.527774
 30
0.0
 10
84.103931
 20
50.045667
 30
0.0
 10
83.837112
 20
47.075219
 30
0.0
 10
82.668704
 20
42.763502
 30
0.0
 10
80.790209
 20
38.744797
 30
0.0
 10
78.261406
 20
35.161390
 30
0.0
 10
75.198979
 20
32.095867
 30
0.0
 10
71.627206
 20
29.568020
 30
0.0
 10
67.623851
 20
27.687419
 30
0.0
 10
63.312531
 20
26.514637
 30
0.0
 10
58.860660
 20
26.105221
 30
0.0
 10
54.407571
 20
26.500090
 30
0.0
 10
50.092574
 20
27.659908
 30
0.0
 10
46.083036
 20
29.530493
 30
0.0
 10
42.503671
 20
32.050846
 30
0.0
 10
39.432843
 20
35.107382
 30
0.0
 10
36.895388
 20
38.677432
 30
0.0
 10
35.008170
 20
42.682412
 30
0.0
 10
33.830280
 20
46.992278
 30
0.0
 10
33.414589
 20
51.436084
 30
0.0
 10
33.803379
 20
55.879181
 30
0.0
 10
34.960932
 20
60.194306
 30
0.0
 10
36.829451
 20
64.227231
 30
0.0
 10
39.327499
 20
67.859272
 30
0.0
 10
42.359599
 20
70.965197
 30
0.0
 10
45.930029
 20
73.447150
 30
0.0
 10
49.988875
 20
75.074500
 30
0.0
 10
54.299703
 20
76.083088
 30
0.0
 10
57.232590
 20
76.553191
 30
0.0
 10
58.710779
 20
76.790125
 30
0.0
 11
58.710816
 21
76.790125
 31
0.0
 11
63.142962
 21
76.064647
 31
0.0
 11
67.441174
 21
75.036325
 31
0.0
 11
71.471516
 21
73.402313
 31
0.0
 11
75.005105
 21
71.025564
 31
0.0
 11
78.070421
 21
67.964348
 31
0.0
 11
80.577560
 21
64.389741
 31
0.0
 11
82.491997
 21
60.339913
 31
0.0
 11
83.678439
 21
56.055231
 31
0.0
 11
84.097151
 21
51.664372
 31
0.0
 11
84.097210
 21
51.651447
 31
0.0
 11
84.097266
 21
51.638524
 31
0.0
 11
84.097320
 21
51.625609
 31
0.0
 11
84.097421
 21
51.601615
 31
0.0
 11
84.097518
 21
51.577617
 31
0.0
 11
84.097602
 21
51.553619
 31
0.0
 11
84.097661
 21
51.540694
 31
0.0
 11
84.097718
 21
51.527772
 31
0.0
 11
84.097772
 21
51.514856
 31
0.0
 11
83.711448
 21
47.111236
 31
0.0
 11
82.548313
 21
42.809277
 31
0.0
 11
80.653515
 21
38.768778
 31
0.0
 11
78.165821
 21
35.238764
 31
0.0
 11
75.119123
 21
32.188843
 31
0.0
 11
71.600856
 21
29.702442
 31
0.0
 11
67.580983
 21
27.809203
 31
0.0
 11
63.288892
 21
26.641851
 31
0.0
 11
58.860292
 21
26.239257
 31
0.0
 11
54.430845
 21
26.627549
 31
0.0
 11
50.135650
 21
27.781919
 31
0.0
 11
46.109760
 21
29.664845
 31
0.0
 11
42.582745
 21
32.144153
 31
0.0
 11
39.526365
 21
35.186522
 31
0.0
 11
37.030482
 21
38.704281
 31
0.0
 11
35.129605
 21
42.726555
 31
0.0
 11
33.956572
 21
47.018976
 31
0.0
 11
33.548554
 21
51.439932
 31
0.0
 11
33.930454
 21
55.852950
 31
0.0
 11
35.078094
 21
60.141966
 31
0.0
 11
36.955013
 21
64.196052
 31
0.0
 11
39.429738
 21
67.787930
 31
0.0
 11
42.467928
 21
70.877752
 31
0.0
 11
45.980666
 21
73.289130
 31
0.0
 11
49.996527
 21
74.960446
 31
0.0
 11
54.285400
 21
76.026581
 31
0.0
 11
58.710779
 21
76.790125
 31
0.0
  0
ENDSEC
  0
SECTION
  2
OBJECTS
  0
DICTIONARY
  5
C
330
0
100
AcDbDictionary
  3
ACAD_GROUP
350
D
  3
ACAD_MLINESTYLE
350
17
  0
DICTIONARY
  5
D
330
C
100
AcDbDictionary
  0
DICTIONARY
  5
1A
330
C
100
AcDbDictionary
  0
DICTIONARY
  5
17
330
C
100
AcDbDictionary
  3
STANDARD
350
18
  0
DICTIONARY
  5
19
330
C
100
AcDbDictionary
  0
ENDSEC
  0
EOF
