  0
SECTION
  2
HEADER
  9
$ACADVER
  1
AC1014
  9
$HANDSEED
  5
FFFF
  9
$MEASUREMENT
 70
     1
  0
ENDSEC
  0
SECTION
  2
TABLES
  0
TABLE
  2
VPORT
  5
8
330
0
100
AcDbSymbolTable
 70
     4
  0
VPORT
  5
2E
330
8
100
AcDbSymbolTableRecord
100
AcDbViewportTableRecord
  2
*ACTIVE
 70
     0
 10
0.0
 20
0.0
 11
1.0
 21
1.0
 12
210.0
 22
148.5
 13
0.0
 23
0.0
 14
10.0
 24
10.0
 15
10.0
 25
10.0
 16
0.0
 26
0.0
 36
1.0
 17
0.0
 27
0.0
 37
0.0
 40
341.0
 41
1.24
 42
50.0
 43
0.0
 44
0.0
 50
0.0
 51
0.0
 71
     0
 72
   100
 73
     1
 74
     3
 75
     0
 76
     0
 77
     0
 78
     0
  0
ENDTAB
  0
TABLE
  2
LTYPE
  5
5
330
0
100
AcDbSymbolTable
 70
     1
  0
LTYPE
  5
14
330
5
100
AcDbSymbolTableRecord
100
AcDbLinetypeTableRecord
  2
BYBLOCK
 70
     0
  3

 72
    65
 73
     0
 40
0.0
  0
LTYPE
  5
15
330
5
100
AcDbSymbolTableRecord
100
AcDbLinetypeTableRecord
  2
BYLAYER
 70
     0
  3

 72
    65
 73
     0
 40
0.0
  0
LTYPE
  5
16
330
5
100
AcDbSymbolTableRecord
100
AcDbLinetypeTableRecord
  2
CONTINUOUS
 70
     0
  3
Solid line
 72
    65
 73
     0
 40
0.0
  0
ENDTAB
  0
TABLE
  2
LAYER
  5
2
100
AcDbSymbolTable
 70
2
  0
LAYER
  5
50
100
AcDbSymbolTableRecord
100
AcDbLayerTableRecord
  2
0
 70
0
  6
CONTINUOUS
  0
LAYER
  5
51
100
AcDbSymbolTableRecord
100
AcDbLayerTableRecord
  2
Capa_1
 70
0
  6
CONTINUOUS
  0
ENDTAB
  0
TABLE
  2
STYLE
  5
3
330
0
100
AcDbSymbolTable
 70
     1
  0
STYLE
  5
11
330
3
100
AcDbSymbolTableRecord
100
AcDbTextStyleTableRecord
  2
STANDARD
 70
     0
 40
0.0
 41
1.0
 50
0.0
 71
     0
 42
2.5
  3
txt
  4

  0
ENDTAB
  0
TABLE
  2
VIEW
  5
6
330
0
100
AcDbSymbolTable
 70
     0
  0
ENDTAB
  0
TABLE
  2
UCS
  5
7
330
0
100
AcDbSymbolTable
 70
     0
  0
ENDTAB
  0
TABLE
  2
APPID
  5
9
330
0
100
AcDbSymbolTable
 70
     2
  0
APPID
  5
12
330
9
100
AcDbSymbolTableRecord
100
AcDbRegAppTableRecord
  2
ACAD
 70
     0
  0
ENDTAB
  0
TABLE
  2
DIMSTYLE
  5
A
330
0
100
AcDbSymbolTable
 70
     1
  0
DIMSTYLE
105
27
330
A
100
AcDbSymbolTableRecord
100
AcDbDimStyleTableRecord
  2
ISO-25
 70
     0
  3

  4

  5

  6

  7

 40
1.0
 41
2.5
 42
0.625
 43
3.75
 44
1.25
 45
0.0
 46
0.0
 47
0.0
 48
0.0
140
2.5
141
2.5
142
0.0
143
0.03937007874016
144
1.0
145
0.0
146
1.0
147
0.625
 71
     0
 72
     0
 73
     0
 74
     0
 75
     0
 76
     0
 77
     1
 78
     8
170
     0
171
     3
172
     1
173
     0
174
     0
175
     0
176
     0
177
     0
178
     0
270
     2
271
     2
272
     2
273
     2
274
     3
340
11
275
     0
280
     0
281
     0
282
     0
283
     0
284
     8
285
     0
286
     0
287
     3
288
     0
  0
ENDTAB
  0
TABLE
  2
BLOCK_RECORD
  5
1
330
0
100
AcDbSymbolTable
 70
     1
  0
BLOCK_RECORD
  5
1F
330
1
100
AcDbSymbolTableRecord
100
AcDbBlockTableRecord
  2
*MODEL_SPACE
  0
BLOCK_RECORD
  5
1B
330
1
100
AcDbSymbolTableRecord
100
AcDbBlockTableRecord
  2
*PAPER_SPACE
  0
ENDTAB
  0
ENDSEC
  0
SECTION
  2
BLOCKS
  0
BLOCK
  5
20
330
1F
100
AcDbEntity
  8
0
100
AcDbBlockBegin
  2
*MODEL_SPACE
 70
     0
 10
0.0
 20
0.0
 30
0.0
  3
*MODEL_SPACE
  1

  0
ENDBLK
  5
21
330
1F
100
AcDbEntity
  8
0
100
AcDbBlockEnd
  0
BLOCK
  5
1C
330
1B
100
AcDbEntity
 67
     1
  8
0
100
AcDbBlockBegin
  2
*PAPER_SPACE
  1

  0
ENDBLK
  5
1D
330
1B
100
AcDbEntity
 67
     1
  8
0
100
AcDbBlockEnd
  0
ENDSEC
  0
SECTION
  2
ENTITIES
  0
SPLINE
  5
100
100
AcDbEntity
  8
Capa_1
 62
7
100
AcDbSpline
 70
8
 71
3
 72
8
 73
4
 74
0
 40
0
 40
0
 40
0
 40
0
 40
1
 40
1
 40
1
 40
1
 10
72.920047
 20
260.610780
 30
0.0
 10
72.920046
 20
241.280816
 30
0.0
 10
57.250014
 20
225.610784
 30
0.0
 10
37.920049
 20
225.610783
 30
0.0
  0
SPLINE
  5
101
100
AcDbEntity
  8
Capa_1
 62
7
100
AcDbSpline
 70
8
 71
3
 72
8
 73
4
 74
0
 40
0
 40
0
 40
0
 40
0
 40
1
 40
1
 40
1
 40
1
 10
37.920049
 20
225.610783
 30
0.0
 10
18.590085
 20
225.610784
 30
0.0
 10
2.920052
 20
241.280816
 30
0.0
 10
2.920051
 20
260.610780
 30
0.0
  0
SPLINE
  5
102
100
AcDbEntity
  8
Capa_1
 62
7
100
AcDbSpline
 70
8
 71
3
 72
8
 73
4
 74
0
 40
0
 40
0
 40
0
 40
0
 40
1
 40
1
 40
1
 40
1
 10
2.920051
 20
260.610780
 30
0.0
 10
2.920052
 20
279.940746
 30
0.0
 10
18.590084
 20
295.610778
 30
0.0
 10
37.920049
 20
295.610780
 30
0.0
  0
SPLINE
  5
103
100
AcDbEntity
  8
Capa_1
 62
7
100
AcDbSpline
 70
8
 71
3
 72
8
 73
4
 74
0
 40
0
 40
0
 40
0
 40
0
 40
1
 40
1
 40
1
 40
1
 10
37.920049
 20
295.610780
 30
0.0
 10
57.250014
 20
295.610778
 30
0.0
 10
72.920046
 20
279.940745
 30
0.0
 10
72.920047
 20
260.610780
 30
0.0
  0
SPLINE
  5
104
100
AcDbEntity
  8
Capa_1
 62
7
100
AcDbSpline
 70
8
 71
3
 72
8
 73
4
 74
0
 40
0
 40
0
 40
0
 40
0
 40
1
 40
1
 40
1
 40
1
 10
208.532072
 20
260.283795
 30
0.0
 10
208.532072
 20
240.953829
 30
0.0
 10
192.862040
 20
225.283796
 30
0.0
 10
173.532075
 20
225.283794
 30
0.0
  0
SPLINE
  5
105
100
AcDbEntity
  8
Capa_1
 62
7
100
AcDbSpline
 70
8
 71
3
 72
8
 73
4
 74
0
 40
0
 40
0
 40
0
 40
0
 40
1
 40
1
 40
1
 40
1
 10
173.532075
 20
225.283794
 30
0.0
 10
154.202108
 20
225.283794
 30
0.0
 10
138.532074
 20
240.953828
 30
0.0
 10
138.532074
 20
260.283795
 30
0.0
  0
SPLINE
  5
106
100
AcDbEntity
  8
Capa_1
 62
7
100
AcDbSpline
 70
8
 71
3
 72
8
 73
4
 74
0
 40
0
 40
0
 40
0
 40
0
 40
1
 40
1
 40
1
 40
1
 10
138.532074
 20
260.283795
 30
0.0
 10
138.532076
 20
279.613760
 30
0.0
 10
154.202109
 20
295.283792
 30
0.0
 10
173.532075
 20
295.283792
 30
0.0
  0
SPLINE
  5
107
100
AcDbEntity
  8
Capa_1
 62
7
100
AcDbSpline
 70
8
 71
3
 72
8
 73
4
 74
0
 40
0
 40
0
 40
0
 40
0
 40
1
 40
1
 40
1
 40
1
 10
173.532075
 20
295.283792
 30
0.0
 10
192.862039
 20
295.283791
 30
0.0
 10
208.532071
 20
279.613759
 30
0.0
 10
208.532072
 20
260.283795
 30
0.0
  0
LWPOLYLINE
  5
108
100
AcDbEntity
  8
Capa_1
 62
7
100
AcDbPolyline
 90
2
 70
1
 10
72.920047
 20
260.610780
 30
0.0
 10
72.920047
 20
260.610780
 30
0.0
  0
SPLINE
  5
109
100
AcDbEntity
  8
Capa_1
 62
7
100
AcDbSpline
 70
8
 71
3
 72
8
 73
4
 74
0
 40
0
 40
0
 40
0
 40
0
 40
1
 40
1
 40
1
 40
1
 10
72.259066
 20
187.309200
 30
0.0
 10
72.259066
 20
178.026622
 30
0.0
 10
68.571576
 20
169.124235
 30
0.0
 10
62.007803
 20
162.560462
 30
0.0
  0
SPLINE
  5
10a
100
AcDbEntity
  8
Capa_1
 62
7
100
AcDbSpline
 70
8
 71
3
 72
8
 73
4
 74
0
 40
0
 40
0
 40
0
 40
0
 40
1
 40
1
 40
1
 40
1
 10
62.007803
 20
162.560462
 30
0.0
 10
55.444030
 20
155.996689
 30
0.0
 10
46.541643
 20
152.309199
 30
0.0
 10
37.259065
 20
152.309199
 30
0.0
  0
SPLINE
  5
10b
100
AcDbEntity
  8
Capa_1
 62
7
100
AcDbSpline
 70
8
 71
3
 72
8
 73
4
 74
0
 40
0
 40
0
 40
0
 40
0
 40
1
 40
1
 40
1
 40
1
 10
37.259065
 20
152.309199
 30
0.0
 10
27.976488
 20
152.309199
 30
0.0
 10
19.074101
 20
155.996688
 30
0.0
 10
12.510327
 20
162.560462
 30
0.0
  0
SPLINE
  5
10c
100
AcDbEntity
  8
Capa_1
 62
7
100
AcDbSpline
 70
8
 71
3
 72
8
 73
4
 74
0
 40
0
 40
0
 40
0
 40
0
 40
1
 40
1
 40
1
 40
1
 10
12.510327
 20
162.560462
 30
0.0
 10
5.946554
 20
169.124235
 30
0.0
 10
2.259064
 20
178.026622
 30
0.0
 10
2.259064
 20
187.309200
 30
0.0
  0
SPLINE
  5
10d
100
AcDbEntity
  8
Capa_1
 62
7
100
AcDbSpline
 70
8
 71
3
 72
8
 73
4
 74
0
 40
0
 40
0
 40
0
 40
0
 40
1
 40
1
 40
1
 40
1
 10
2.259064
 20
187.309200
 30
0.0
 10
2.259064
 20
196.591777
 30
0.0
 10
5.946554
 20
205.494164
 30
0.0
 10
12.510327
 20
212.057938
 30
0.0
  0
SPLINE
  5
10e
100
AcDbEntity
  8
Capa_1
 62
7
100
AcDbSpline
 70
8
 71
3
 72
8
 73
4
 74
0
 40
0
 40
0
 40
0
 40
0
 40
1
 40
1
 40
1
 40
1
 10
12.510327
 20
212.057938
 30
0.0
 10
19.074101
 20
218.621711
 30
0.0
 10
27.976488
 20
222.309200
 30
0.0
 10
37.259065
 20
222.309200
 30
0.0
  0
SPLINE
  5
10f
100
AcDbEntity
  8
Capa_1
 62
7
100
AcDbSpline
 70
8
 71
3
 72
8
 73
4
 74
0
 40
0
 40
0
 40
0
 40
0
 40
1
 40
1
 40
1
 40
1
 10
37.259065
 20
222.309200
 30
0.0
 10
46.541643
 20
222.309200
 30
0.0
 10
55.444030
 20
218.621711
 30
0.0
 10
62.007803
 20
212.057937
 30
0.0
  0
SPLINE
  5
110
100
AcDbEntity
  8
Capa_1
 62
7
100
AcDbSpline
 70
8
 71
3
 72
8
 73
4
 74
0
 40
0
 40
0
 40
0
 40
0
 40
1
 40
1
 40
1
 40
1
 10
62.007803
 20
212.057937
 30
0.0
 10
68.571576
 20
205.494164
 30
0.0
 10
72.259066
 20
196.591777
 30
0.0
 10
72.259066
 20
187.309200
 30
0.0
  0
LWPOLYLINE
  5
111
100
AcDbEntity
  8
Capa_1
 62
7
100
AcDbPolyline
 90
2
 70
1
 10
208.532072
 20
260.283795
 30
0.0
 10
208.532072
 20
260.283795
 30
0.0
  0
SPLINE
  5
112
100
AcDbEntity
  8
Capa_1
 62
7
100
AcDbSpline
 70
8
 71
3
 72
8
 73
4
 74
0
 40
0
 40
0
 40
0
 40
0
 40
1
 40
1
 40
1
 40
1
 10
206.919373
 20
184.890149
 30
0.0
 10
206.919373
 20
175.607572
 30
0.0
 10
203.231883
 20
166.705184
 30
0.0
 10
196.668110
 20
160.141411
 30
0.0
  0
SPLINE
  5
113
100
AcDbEntity
  8
Capa_1
 62
7
100
AcDbSpline
 70
8
 71
3
 72
8
 73
4
 74
0
 40
0
 40
0
 40
0
 40
0
 40
1
 40
1
 40
1
 40
1
 10
196.668110
 20
160.141411
 30
0.0
 10
190.104337
 20
153.577638
 30
0.0
 10
181.201950
 20
149.890148
 30
0.0
 10
171.919372
 20
149.890148
 30
0.0
  0
SPLINE
  5
114
100
AcDbEntity
  8
Capa_1
 62
7
100
AcDbSpline
 70
8
 71
3
 72
8
 73
4
 74
0
 40
0
 40
0
 40
0
 40
0
 40
1
 40
1
 40
1
 40
1
 10
171.919372
 20
149.890148
 30
0.0
 10
152.589407
 20
149.890150
 30
0.0
 10
136.919375
 20
165.560183
 30
0.0
 10
136.919375
 20
184.890149
 30
0.0
  0
SPLINE
  5
115
100
AcDbEntity
  8
Capa_1
 62
7
100
AcDbSpline
 70
8
 71
3
 72
8
 73
4
 74
0
 40
0
 40
0
 40
0
 40
0
 40
1
 40
1
 40
1
 40
1
 10
136.919375
 20
184.890149
 30
0.0
 10
136.919375
 20
204.220114
 30
0.0
 10
152.589407
 20
219.890148
 30
0.0
 10
171.919372
 20
219.890149
 30
0.0
  0
SPLINE
  5
116
100
AcDbEntity
  8
Capa_1
 62
7
100
AcDbSpline
 70
8
 71
3
 72
8
 73
4
 74
0
 40
0
 40
0
 40
0
 40
0
 40
1
 40
1
 40
1
 40
1
 10
171.919372
 20
219.890149
 30
0.0
 10
181.201950
 20
219.890149
 30
0.0
 10
190.104337
 20
216.202660
 30
0.0
 10
196.668110
 20
209.638887
 30
0.0
  0
SPLINE
  5
117
100
AcDbEntity
  8
Capa_1
 62
7
100
AcDbSpline
 70
8
 71
3
 72
8
 73
4
 74
0
 40
0
 40
0
 40
0
 40
0
 40
1
 40
1
 40
1
 40
1
 10
196.668110
 20
209.638887
 30
0.0
 10
203.231883
 20
203.075113
 30
0.0
 10
206.919373
 20
194.172726
 30
0.0
 10
206.919373
 20
184.890149
 30
0.0
  0
LWPOLYLINE
  5
118
100
AcDbEntity
  8
Capa_1
 62
7
100
AcDbPolyline
 90
2
 70
1
 10
72.259066
 20
187.309200
 30
0.0
 10
72.259066
 20
187.309200
 30
0.0
  0
SPLINE
  5
119
100
AcDbEntity
  8
Capa_1
 62
7
100
AcDbSpline
 70
8
 71
3
 72
8
 73
4
 74
0
 40
0
 40
0
 40
0
 40
0
 40
1
 40
1
 40
1
 40
1
 10
71.452715
 20
114.737765
 30
0.0
 10
71.452715
 20
105.455187
 30
0.0
 10
67.765225
 20
96.552800
 30
0.0
 10
61.201452
 20
89.989027
 30
0.0
  0
SPLINE
  5
11a
100
AcDbEntity
  8
Capa_1
 62
7
100
AcDbSpline
 70
8
 71
3
 72
8
 73
4
 74
0
 40
0
 40
0
 40
0
 40
0
 40
1
 40
1
 40
1
 40
1
 10
61.201452
 20
89.989027
 30
0.0
 10
54.637678
 20
83.425254
 30
0.0
 10
45.735291
 20
79.737764
 30
0.0
 10
36.452714
 20
79.737764
 30
0.0
  0
SPLINE
  5
11b
100
AcDbEntity
  8
Capa_1
 62
7
100
AcDbSpline
 70
8
 71
3
 72
8
 73
4
 74
0
 40
0
 40
0
 40
0
 40
0
 40
1
 40
1
 40
1
 40
1
 10
36.452714
 20
79.737764
 30
0.0
 10
17.122748
 20
79.737764
 30
0.0
 10
1.452714
 20
95.407798
 30
0.0
 10
1.452714
 20
114.737765
 30
0.0
  0
SPLINE
  5
11c
100
AcDbEntity
  8
Capa_1
 62
7
100
AcDbSpline
 70
8
 71
3
 72
8
 73
4
 74
0
 40
0
 40
0
 40
0
 40
0
 40
1
 40
1
 40
1
 40
1
 10
1.452714
 20
114.737765
 30
0.0
 10
1.452714
 20
134.067731
 30
0.0
 10
17.122748
 20
149.737765
 30
0.0
 10
36.452714
 20
149.737765
 30
0.0
  0
SPLINE
  5
11d
100
AcDbEntity
  8
Capa_1
 62
7
100
AcDbSpline
 70
8
 71
3
 72
8
 73
4
 74
0
 40
0
 40
0
 40
0
 40
0
 40
1
 40
1
 40
1
 40
1
 10
36.452714
 20
149.737765
 30
0.0
 10
45.735291
 20
149.737765
 30
0.0
 10
54.637678
 20
146.050276
 30
0.0
 10
61.201452
 20
139.486502
 30
0.0
  0
SPLINE
  5
11e
100
AcDbEntity
  8
Capa_1
 62
7
100
AcDbSpline
 70
8
 71
3
 72
8
 73
4
 74
0
 40
0
 40
0
 40
0
 40
0
 40
1
 40
1
 40
1
 40
1
 10
61.201452
 20
139.486502
 30
0.0
 10
67.765225
 20
132.922729
 30
0.0
 10
71.452715
 20
124.020342
 30
0.0
 10
71.452715
 20
114.737765
 30
0.0
  0
LWPOLYLINE
  5
11f
100
AcDbEntity
  8
Capa_1
 62
7
100
AcDbPolyline
 90
2
 70
1
 10
206.919373
 20
184.890149
 30
0.0
 10
206.919373
 20
184.890149
 30
0.0
  0
SPLINE
  5
120
100
AcDbEntity
  8
Capa_1
 62
7
100
AcDbSpline
 70
8
 71
3
 72
8
 73
4
 74
0
 40
0
 40
0
 40
0
 40
0
 40
1
 40
1
 40
1
 40
1
 10
208.935252
 20
111.109183
 30
0.0
 10
208.935252
 20
91.779217
 30
0.0
 10
193.265220
 20
76.109184
 30
0.0
 10
173.935255
 20
76.109182
 30
0.0
  0
SPLINE
  5
121
100
AcDbEntity
  8
Capa_1
 62
7
100
AcDbSpline
 70
8
 71
3
 72
8
 73
4
 74
0
 40
0
 40
0
 40
0
 40
0
 40
1
 40
1
 40
1
 40
1
 10
173.935255
 20
76.109182
 30
0.0
 10
164.652677
 20
76.109182
 30
0.0
 10
155.750290
 20
79.796672
 30
0.0
 10
149.186517
 20
86.360445
 30
0.0
  0
SPLINE
  5
122
100
AcDbEntity
  8
Capa_1
 62
7
100
AcDbSpline
 70
8
 71
3
 72
8
 73
4
 74
0
 40
0
 40
0
 40
0
 40
0
 40
1
 40
1
 40
1
 40
1
 10
149.186517
 20
86.360445
 30
0.0
 10
142.622743
 20
92.924218
 30
0.0
 10
138.935254
 20
101.826605
 30
0.0
 10
138.935254
 20
111.109183
 30
0.0
  0
SPLINE
  5
123
100
AcDbEntity
  8
Capa_1
 62
7
100
AcDbSpline
 70
8
 71
3
 72
8
 73
4
 74
0
 40
0
 40
0
 40
0
 40
0
 40
1
 40
1
 40
1
 40
1
 10
138.935254
 20
111.109183
 30
0.0
 10
138.935254
 20
120.391760
 30
0.0
 10
142.622743
 20
129.294147
 30
0.0
 10
149.186517
 20
135.857921
 30
0.0
  0
SPLINE
  5
124
100
AcDbEntity
  8
Capa_1
 62
7
100
AcDbSpline
 70
8
 71
3
 72
8
 73
4
 74
0
 40
0
 40
0
 40
0
 40
0
 40
1
 40
1
 40
1
 40
1
 10
149.186517
 20
135.857921
 30
0.0
 10
155.750290
 20
142.421694
 30
0.0
 10
164.652677
 20
146.109183
 30
0.0
 10
173.935255
 20
146.109183
 30
0.0
  0
SPLINE
  5
125
100
AcDbEntity
  8
Capa_1
 62
7
100
AcDbSpline
 70
8
 71
3
 72
8
 73
4
 74
0
 40
0
 40
0
 40
0
 40
0
 40
1
 40
1
 40
1
 40
1
 10
173.935255
 20
146.109183
 30
0.0
 10
193.265220
 20
146.109182
 30
0.0
 10
208.935252
 20
130.439148
 30
0.0
 10
208.935252
 20
111.109183
 30
0.0
  0
LWPOLYLINE
  5
126
100
AcDbEntity
  8
Capa_1
 62
7
100
AcDbPolyline
 90
2
 70
1
 10
71.452715
 20
114.737765
 30
0.0
 10
71.452715
 20
114.737765
 30
0.0
  0
SPLINE
  5
127
100
AcDbEntity
  8
Capa_1
 62
7
100
AcDbSpline
 70
8
 71
3
 72
8
 73
4
 74
0
 40
0
 40
0
 40
0
 40
0
 40
1
 40
1
 40
1
 40
1
 10
71.049540
 20
37.731422
 30
0.0
 10
71.049534
 20
18.401460
 30
0.0
 10
55.379502
 20
2.731433
 30
0.0
 10
36.049540
 20
2.731433
 30
0.0
  0
SPLINE
  5
128
100
AcDbEntity
  8
Capa_1
 62
7
100
AcDbSpline
 70
8
 71
3
 72
8
 73
4
 74
0
 40
0
 40
0
 40
0
 40
0
 40
1
 40
1
 40
1
 40
1
 10
36.049540
 20
2.731433
 30
0.0
 10
16.719577
 20
2.731432
 30
0.0
 10
1.049545
 20
18.401459
 30
0.0
 10
1.049538
 20
37.731422
 30
0.0
  0
SPLINE
  5
129
100
AcDbEntity
  8
Capa_1
 62
7
100
AcDbSpline
 70
8
 71
3
 72
8
 73
4
 74
0
 40
0
 40
0
 40
0
 40
0
 40
1
 40
1
 40
1
 40
1
 10
1.049538
 20
37.731422
 30
0.0
 10
1.049538
 20
47.013999
 30
0.0
 10
4.737028
 20
55.916387
 30
0.0
 10
11.300802
 20
62.480160
 30
0.0
  0
SPLINE
  5
12a
100
AcDbEntity
  8
Capa_1
 62
7
100
AcDbSpline
 70
8
 71
3
 72
8
 73
4
 74
0
 40
0
 40
0
 40
0
 40
0
 40
1
 40
1
 40
1
 40
1
 10
11.300802
 20
62.480160
 30
0.0
 10
17.864575
 20
69.043933
 30
0.0
 10
26.766962
 20
72.731423
 30
0.0
 10
36.049540
 20
72.731422
 30
0.0
  0
SPLINE
  5
12b
100
AcDbEntity
  8
Capa_1
 62
7
100
AcDbSpline
 70
8
 71
3
 72
8
 73
4
 74
0
 40
0
 40
0
 40
0
 40
0
 40
1
 40
1
 40
1
 40
1
 10
36.049540
 20
72.731422
 30
0.0
 10
55.379506
 20
72.731422
 30
0.0
 10
71.049540
 20
57.061388
 30
0.0
 10
71.049540
 20
37.731422
 30
0.0
  0
LWPOLYLINE
  5
12c
100
AcDbEntity
  8
Capa_1
 62
7
100
AcDbPolyline
 90
2
 70
1
 10
208.935252
 20
111.109183
 30
0.0
 10
208.935252
 20
111.109183
 30
0.0
  0
SPLINE
  5
12d
100
AcDbEntity
  8
Capa_1
 62
7
100
AcDbSpline
 70
8
 71
3
 72
8
 73
4
 74
0
 40
0
 40
0
 40
0
 40
0
 40
1
 40
1
 40
1
 40
1
 10
209.741612
 20
34.909200
 30
0.0
 10
209.741606
 20
15.579238
 30
0.0
 10
194.071574
 20
-0.090790
 30
0.0
 10
174.741611
 20
-0.090790
 30
0.0
  0
SPLINE
  5
12e
100
AcDbEntity
  8
Capa_1
 62
7
100
AcDbSpline
 70
8
 71
3
 72
8
 73
4
 74
0
 40
0
 40
0
 40
0
 40
0
 40
1
 40
1
 40
1
 40
1
 10
174.741611
 20
-0.090790
 30
0.0
 10
155.411650
 20
-0.090788
 30
0.0
 10
139.741620
 20
15.579239
 30
0.0
 10
139.741614
 20
34.909200
 30
0.0
  0
SPLINE
  5
12f
100
AcDbEntity
  8
Capa_1
 62
7
100
AcDbSpline
 70
8
 71
3
 72
8
 73
4
 74
0
 40
0
 40
0
 40
0
 40
0
 40
1
 40
1
 40
1
 40
1
 10
139.741614
 20
34.909200
 30
0.0
 10
139.741614
 20
54.239165
 30
0.0
 10
155.411646
 20
69.909199
 30
0.0
 10
174.741611
 20
69.909200
 30
0.0
  0
SPLINE
  5
130
100
AcDbEntity
  8
Capa_1
 62
7
100
AcDbSpline
 70
8
 71
3
 72
8
 73
4
 74
0
 40
0
 40
0
 40
0
 40
0
 40
1
 40
1
 40
1
 40
1
 10
174.741611
 20
69.909200
 30
0.0
 10
184.024189
 20
69.909200
 30
0.0
 10
192.926576
 20
66.221711
 30
0.0
 10
199.490349
 20
59.657937
 30
0.0
  0
SPLINE
  5
131
100
AcDbEntity
  8
Capa_1
 62
7
100
AcDbSpline
 70
8
 71
3
 72
8
 73
4
 74
0
 40
0
 40
0
 40
0
 40
0
 40
1
 40
1
 40
1
 40
1
 10
199.490349
 20
59.657937
 30
0.0
 10
206.054122
 20
53.094164
 30
0.0
 10
209.741612
 20
44.191777
 30
0.0
 10
209.741612
 20
34.909200
 30
0.0
  0
LWPOLYLINE
  5
132
100
AcDbEntity
  8
Capa_1
 62
7
100
AcDbPolyline
 90
2
 70
1
 10
71.049540
 20
37.731422
 30
0.0
 10
71.049540
 20
37.731422
 30
0.0
  0
SPLINE
  5
133
100
AcDbEntity
  8
Capa_1
 62
7
100
AcDbSpline
 70
8
 71
3
 72
8
 73
4
 74
0
 40
0
 40
0
 40
0
 40
0
 40
1
 40
1
 40
1
 40
1
 10
140.562573
 20
148.339611
 30
0.0
 10
140.562573
 20
129.009644
 30
0.0
 10
124.892539
 20
113.339610
 30
0.0
 10
105.562572
 20
113.339610
 30
0.0
  0
SPLINE
  5
134
100
AcDbEntity
  8
Capa_1
 62
7
100
AcDbSpline
 70
8
 71
3
 72
8
 73
4
 74
0
 40
0
 40
0
 40
0
 40
0
 40
1
 40
1
 40
1
 40
1
 10
105.562572
 20
113.339610
 30
0.0
 10
96.279995
 20
113.339610
 30
0.0
 10
87.377608
 20
117.027100
 30
0.0
 10
80.813834
 20
123.590873
 30
0.0
  0
SPLINE
  5
135
100
AcDbEntity
  8
Capa_1
 62
7
100
AcDbSpline
 70
8
 71
3
 72
8
 73
4
 74
0
 40
0
 40
0
 40
0
 40
0
 40
1
 40
1
 40
1
 40
1
 10
80.813834
 20
123.590873
 30
0.0
 10
74.250061
 20
130.154647
 30
0.0
 10
70.562572
 20
139.057034
 30
0.0
 10
70.562572
 20
148.339611
 30
0.0
  0
SPLINE
  5
136
100
AcDbEntity
  8
Capa_1
 62
7
100
AcDbSpline
 70
8
 71
3
 72
8
 73
4
 74
0
 40
0
 40
0
 40
0
 40
0
 40
1
 40
1
 40
1
 40
1
 10
70.562572
 20
148.339611
 30
0.0
 10
70.562572
 20
157.622188
 30
0.0
 10
74.250061
 20
166.524575
 30
0.0
 10
80.813834
 20
173.088349
 30
0.0
  0
SPLINE
  5
137
100
AcDbEntity
  8
Capa_1
 62
7
100
AcDbSpline
 70
8
 71
3
 72
8
 73
4
 74
0
 40
0
 40
0
 40
0
 40
0
 40
1
 40
1
 40
1
 40
1
 10
80.813834
 20
173.088349
 30
0.0
 10
87.377608
 20
179.652122
 30
0.0
 10
96.279995
 20
183.339612
 30
0.0
 10
105.562572
 20
183.339612
 30
0.0
  0
SPLINE
  5
138
100
AcDbEntity
  8
Capa_1
 62
7
100
AcDbSpline
 70
8
 71
3
 72
8
 73
4
 74
0
 40
0
 40
0
 40
0
 40
0
 40
1
 40
1
 40
1
 40
1
 10
105.562572
 20
183.339612
 30
0.0
 10
124.892539
 20
183.339612
 30
0.0
 10
140.562573
 20
167.669578
 30
0.0
 10
140.562573
 20
148.339611
 30
0.0
  0
LWPOLYLINE
  5
139
100
AcDbEntity
  8
Capa_1
 62
7
100
AcDbPolyline
 90
2
 70
1
 10
209.741612
 20
34.909200
 30
0.0
 10
209.741612
 20
34.909200
 30
0.0
  0
LWPOLYLINE
  5
13a
100
AcDbEntity
  8
Capa_1
 62
7
100
AcDbPolyline
 90
2
 70
1
 10
140.562573
 20
148.339611
 30
0.0
 10
140.562573
 20
148.339611
 30
0.0
  0
ENDSEC
  0
SECTION
  2
OBJECTS
  0
DICTIONARY
  5
C
330
0
100
AcDbDictionary
  3
ACAD_GROUP
350
D
  3
ACAD_MLINESTYLE
350
17
  0
DICTIONARY
  5
D
330
C
100
AcDbDictionary
  0
DICTIONARY
  5
1A
330
C
100
AcDbDictionary
  0
DICTIONARY
  5
17
330
C
100
AcDbDictionary
  3
STANDARD
350
18
  0
DICTIONARY
  5
19
330
C
100
AcDbDictionary
  0
ENDSEC
  0
EOF
