  0
SECTION
  2
HEADER
  9
$ACADVER
  1
AC1014
  9
$HANDSEED
  5
FFFF
  9
$MEASUREMENT
 70
     1
  0
ENDSEC
  0
SECTION
  2
TABLES
  0
TABLE
  2
VPORT
  5
8
330
0
100
AcDbSymbolTable
 70
     4
  0
VPORT
  5
2E
330
8
100
AcDbSymbolTableRecord
100
AcDbViewportTableRecord
  2
*ACTIVE
 70
     0
 10
0.0
 20
0.0
 11
1.0
 21
1.0
 12
210.0
 22
148.5
 13
0.0
 23
0.0
 14
10.0
 24
10.0
 15
10.0
 25
10.0
 16
0.0
 26
0.0
 36
1.0
 17
0.0
 27
0.0
 37
0.0
 40
341.0
 41
1.24
 42
50.0
 43
0.0
 44
0.0
 50
0.0
 51
0.0
 71
     0
 72
   100
 73
     1
 74
     3
 75
     0
 76
     0
 77
     0
 78
     0
  0
ENDTAB
  0
TABLE
  2
LTYPE
  5
5
330
0
100
AcDbSymbolTable
 70
     1
  0
LTYPE
  5
14
330
5
100
AcDbSymbolTableRecord
100
AcDbLinetypeTableRecord
  2
BYBLOCK
 70
     0
  3

 72
    65
 73
     0
 40
0.0
  0
LTYPE
  5
15
330
5
100
AcDbSymbolTableRecord
100
AcDbLinetypeTableRecord
  2
BYLAYER
 70
     0
  3

 72
    65
 73
     0
 40
0.0
  0
LTYPE
  5
16
330
5
100
AcDbSymbolTableRecord
100
AcDbLinetypeTableRecord
  2
CONTINUOUS
 70
     0
  3
Solid line
 72
    65
 73
     0
 40
0.0
  0
ENDTAB
  0
TABLE
  2
LAYER
  5
2
100
AcDbSymbolTable
 70
2
  0
LAYER
  5
50
100
AcDbSymbolTableRecord
100
AcDbLayerTableRecord
  2
0
 70
0
  6
CONTINUOUS
  0
LAYER
  5
51
100
AcDbSymbolTableRecord
100
AcDbLayerTableRecord
  2
Layer_1
 70
0
  6
CONTINUOUS
  0
ENDTAB
  0
TABLE
  2
STYLE
  5
3
330
0
100
AcDbSymbolTable
 70
     1
  0
STYLE
  5
11
330
3
100
AcDbSymbolTableRecord
100
AcDbTextStyleTableRecord
  2
STANDARD
 70
     0
 40
0.0
 41
1.0
 50
0.0
 71
     0
 42
2.5
  3
txt
  4

  0
ENDTAB
  0
TABLE
  2
VIEW
  5
6
330
0
100
AcDbSymbolTable
 70
     0
  0
ENDTAB
  0
TABLE
  2
UCS
  5
7
330
0
100
AcDbSymbolTable
 70
     0
  0
ENDTAB
  0
TABLE
  2
APPID
  5
9
330
0
100
AcDbSymbolTable
 70
     2
  0
APPID
  5
12
330
9
100
AcDbSymbolTableRecord
100
AcDbRegAppTableRecord
  2
ACAD
 70
     0
  0
ENDTAB
  0
TABLE
  2
DIMSTYLE
  5
A
330
0
100
AcDbSymbolTable
 70
     1
  0
DIMSTYLE
105
27
330
A
100
AcDbSymbolTableRecord
100
AcDbDimStyleTableRecord
  2
ISO-25
 70
     0
  3

  4

  5

  6

  7

 40
1.0
 41
2.5
 42
0.625
 43
3.75
 44
1.25
 45
0.0
 46
0.0
 47
0.0
 48
0.0
140
2.5
141
2.5
142
0.0
143
0.03937007874016
144
1.0
145
0.0
146
1.0
147
0.625
 71
     0
 72
     0
 73
     0
 74
     0
 75
     0
 76
     0
 77
     1
 78
     8
170
     0
171
     3
172
     1
173
     0
174
     0
175
     0
176
     0
177
     0
178
     0
270
     2
271
     2
272
     2
273
     2
274
     3
340
11
275
     0
280
     0
281
     0
282
     0
283
     0
284
     8
285
     0
286
     0
287
     3
288
     0
  0
ENDTAB
  0
TABLE
  2
BLOCK_RECORD
  5
1
330
0
100
AcDbSymbolTable
 70
     1
  0
BLOCK_RECORD
  5
1F
330
1
100
AcDbSymbolTableRecord
100
AcDbBlockTableRecord
  2
*MODEL_SPACE
  0
BLOCK_RECORD
  5
1B
330
1
100
AcDbSymbolTableRecord
100
AcDbBlockTableRecord
  2
*PAPER_SPACE
  0
ENDTAB
  0
ENDSEC
  0
SECTION
  2
BLOCKS
  0
BLOCK
  5
20
330
1F
100
AcDbEntity
  8
0
100
AcDbBlockBegin
  2
*MODEL_SPACE
 70
     0
 10
0.0
 20
0.0
 30
0.0
  3
*MODEL_SPACE
  1

  0
ENDBLK
  5
21
330
1F
100
AcDbEntity
  8
0
100
AcDbBlockEnd
  0
BLOCK
  5
1C
330
1B
100
AcDbEntity
 67
     1
  8
0
100
AcDbBlockBegin
  2
*PAPER_SPACE
  1

  0
ENDBLK
  5
1D
330
1B
100
AcDbEntity
 67
     1
  8
0
100
AcDbBlockEnd
  0
ENDSEC
  0
SECTION
  2
ENTITIES
  0
SPLINE
  5
100
100
AcDbEntity
  8
Layer_1
 62
7
100
AcDbSpline
 70
0
 71
3
 72
13
 73
9
 74
7
 40
0.000000
 40
0.000000
 40
0.000000
 40
0.000000
 40
1.762410
 40
3.943153
 40
5.847283
 40
6.386041
 40
6.966840
 40
7.810102
 40
7.810102
 40
7.810102
 40
7.810102
 10
35.903143
 20
56.679073
 30
0.0
 10
35.366487
 20
56.445363
 30
0.0
 10
34.165791
 20
55.922469
 30
0.0
 10
32.759225
 20
54.258562
 30
0.0
 10
31.082197
 20
54.679305
 30
0.0
 10
30.118449
 20
54.879558
 30
0.0
 10
29.388390
 20
54.707451
 30
0.0
 10
29.166791
 20
55.213532
 30
0.0
 10
29.035571
 20
55.513209
 30
0.0
 11
35.903143
 21
56.679073
 31
0.0
 11
34.343549
 21
55.858248
 31
0.0
 11
32.550469
 21
54.617077
 31
0.0
 11
30.652233
 21
54.766788
 31
0.0
 11
30.118054
 21
54.836870
 31
0.0
 11
29.537256
 21
54.835416
 31
0.0
 11
29.035571
 21
55.513209
 31
0.0
  0
LINE
  5
101
100
AcDbEntity
  8
Layer_1
 62
7
100
AcDbLine
 10
22.967221
 20
21.110305
 30
0.0
 11
23.371788
 21
20.020571
 31
0.0
  0
LINE
  5
102
100
AcDbEntity
  8
Layer_1
 62
7
100
AcDbLine
 10
23.371788
 20
20.020571
 30
0.0
 11
24.782521
 21
19.855040
 31
0.0
  0
SPLINE
  5
103
100
AcDbEntity
  8
Layer_1
 62
7
100
AcDbSpline
 70
0
 71
3
 72
121
 73
117
 74
115
 40
0.000000
 40
0.000000
 40
0.000000
 40
0.000000
 40
2.287878
 40
4.744429
 40
6.030939
 40
6.214354
 40
6.380416
 40
6.504594
 40
6.554445
 40
6.609858
 40
6.750771
 40
7.923293
 40
9.496856
 40
10.928059
 40
12.639344
 40
14.106421
 40
14.955751
 40
15.263839
 40
15.816994
 40
17.035568
 40
18.988639
 40
20.803167
 40
22.022445
 40
22.262271
 40
22.298174
 40
22.548753
 40
24.279555
 40
26.122295
 40
28.057746
 40
29.919225
 40
31.306023
 40
32.849053
 40
34.218307
 40
35.663255
 40
36.469951
 40
36.728668
 40
37.279379
 40
38.018678
 40
38.753625
 40
39.290213
 40
39.518478
 40
39.671005
 40
40.075534
 40
40.654621
 40
42.548298
 40
44.342949
 40
46.031927
 40
48.745562
 40
51.866454
 40
54.822617
 40
55.514875
 40
55.999307
 40
57.241097
 40
59.304149
 40
61.539778
 40
63.611095
 40
64.362279
 40
64.572461
 40
65.845952
 40
68.370152
 40
70.925483
 40
73.404763
 40
74.689009
 40
75.479666
 40
76.375765
 40
79.906865
 40
83.540811
 40
85.351095
 40
85.597118
 40
86.099344
 40
86.935984
 40
90.164914
 40
93.381957
 40
95.951834
 40
98.741029
 40
101.447301
 40
103.694269
 40
104.386061
 40
104.682636
 40
104.849099
 40
107.400263
 40
110.196419
 40
113.000426
 40
114.504558
 40
116.119340
 40
118.493384
 40
121.931273
 40
123.959824
 40
125.272520
 40
127.087626
 40
129.231293
 40
131.042683
 40
132.094340
 40
132.781397
 40
134.972370
 40
138.029691
 40
141.033447
 40
144.467372
 40
147.694728
 40
150.086929
 40
152.612589
 40
154.765000
 40
156.613572
 40
157.323290
 40
157.660611
 40
158.371698
 40
159.312968
 40
162.888415
 40
166.586235
 40
171.062582
 40
173.476958
 40
175.407430
 40
177.478939
 40
179.097187
 40
180.553396
 40
181.533836
 40
181.533836
 40
181.533836
 40
181.533836
 10
29.035571
 20
55.513209
 30
0.0
 10
28.285470
 20
55.757788
 30
0.0
 10
26.729967
 20
56.264977
 30
0.0
 10
25.021988
 20
56.311811
 30
0.0
 10
23.150003
 20
56.026805
 30
0.0
 10
23.229861
 20
55.463367
 30
0.0
 10
23.283527
 20
55.305555
 30
0.0
 10
23.335577
 20
55.228854
 30
0.0
 10
23.428567
 20
55.157727
 30
0.0
 10
23.300611
 20
55.183872
 30
0.0
 10
22.964586
 20
55.334883
 30
0.0
 10
21.883909
 20
55.460521
 30
0.0
 10
20.545534
 20
55.473869
 30
0.0
 10
18.964245
 20
55.328010
 30
0.0
 10
17.473651
 20
54.796066
 30
0.0
 10
16.384694
 20
54.197618
 30
0.0
 10
15.537380
 20
53.539472
 30
0.0
 10
15.781449
 20
52.925584
 30
0.0
 10
16.573564
 20
52.916177
 30
0.0
 10
17.752985
 20
52.854857
 30
0.0
 10
19.395769
 20
52.731868
 30
0.0
 10
21.187536
 20
52.409010
 30
0.0
 10
21.896841
 20
52.018369
 30
0.0
 10
22.602564
 20
51.743144
 30
0.0
 10
22.484576
 20
51.586907
 30
0.0
 10
21.769311
 20
52.188107
 30
0.0
 10
20.642398
 20
52.167639
 30
0.0
 10
18.776895
 20
52.581566
 30
0.0
 10
16.907170
 20
52.528987
 30
0.0
 10
15.171116
 20
52.428319
 30
0.0
 10
13.639628
 20
51.890458
 30
0.0
 10
12.484782
 20
51.040311
 30
0.0
 10
11.528974
 20
49.826583
 30
0.0
 10
11.100257
 20
48.987685
 30
0.0
 10
10.553938
 20
47.767775
 30
0.0
 10
11.187402
 20
47.791284
 30
0.0
 10
11.653255
 20
47.946779
 30
0.0
 10
12.280934
 20
48.182619
 30
0.0
 10
12.953731
 20
48.453450
 30
0.0
 10
13.298331
 20
48.578382
 30
0.0
 10
13.794823
 20
48.699846
 30
0.0
 10
13.517120
 20
48.442693
 30
0.0
 10
13.218073
 20
48.331214
 30
0.0
 10
12.304432
 20
47.919870
 30
0.0
 10
11.052674
 20
47.290300
 30
0.0
 10
9.703438
 20
46.058565
 30
0.0
 10
8.612675
 20
44.268709
 30
0.0
 10
8.081766
 20
41.815080
 30
0.0
 10
7.878866
 20
38.727814
 30
0.0
 10
7.999379
 20
36.915903
 30
0.0
 10
8.384708
 20
35.034986
 30
0.0
 10
9.231304
 20
35.663469
 30
0.0
 10
9.492980
 20
36.857895
 30
0.0
 10
10.360310
 20
38.473102
 30
0.0
 10
11.583118
 20
40.495972
 30
0.0
 10
12.230840
 20
41.248509
 30
0.0
 10
13.427269
 20
42.792979
 30
0.0
 10
13.065437
 20
41.938498
 30
0.0
 10
12.260496
 20
41.053869
 30
0.0
 10
11.202818
 20
39.097809
 30
0.0
 10
10.199697
 20
36.814887
 30
0.0
 10
9.665954
 20
34.762939
 30
0.0
 10
9.351269
 20
33.279414
 30
0.0
 10
9.322333
 20
32.275499
 30
0.0
 10
9.839817
 20
30.613456
 30
0.0
 10
11.052523
 20
27.952032
 30
0.0
 10
12.340685
 20
26.223070
 30
0.0
 10
13.958702
 20
23.408765
 30
0.0
 10
14.480419
 20
24.194360
 30
0.0
 10
14.451998
 20
24.733856
 30
0.0
 10
14.399748
 20
26.245105
 30
0.0
 10
14.286282
 20
28.679887
 30
0.0
 10
14.427424
 20
31.683206
 30
0.0
 10
14.750262
 20
34.526120
 30
0.0
 10
15.555911
 20
37.131040
 30
0.0
 10
16.481586
 20
39.439966
 30
0.0
 10
17.602419
 20
41.258319
 30
0.0
 10
18.104372
 20
41.854421
 30
0.0
 10
18.541807
 20
42.380043
 30
0.0
 10
17.829245
 20
41.179857
 30
0.0
 10
17.093413
 20
40.014365
 30
0.0
 10
15.959057
 20
37.322731
 30
0.0
 10
15.285289
 20
35.100338
 30
0.0
 10
14.877452
 20
33.157314
 30
0.0
 10
14.756466
 20
31.328585
 30
0.0
 10
14.755542
 20
28.848149
 30
0.0
 10
14.816182
 20
26.256056
 30
0.0
 10
15.040292
 20
23.954570
 30
0.0
 10
16.072970
 20
22.489844
 30
0.0
 10
17.676919
 20
21.726893
 30
0.0
 10
19.487292
 20
20.884339
 30
0.0
 10
20.941682
 20
20.649952
 30
0.0
 10
22.466436
 20
20.164067
 30
0.0
 10
22.603989
 20
21.763288
 30
0.0
 10
21.729466
 20
23.435523
 30
0.0
 10
21.165816
 20
26.200302
 30
0.0
 10
20.715184
 20
29.317305
 30
0.0
 10
20.658399
 20
32.549953
 30
0.0
 10
20.662088
 20
35.564502
 30
0.0
 10
21.066581
 20
38.276777
 30
0.0
 10
21.780104
 20
40.475184
 30
0.0
 10
22.856517
 20
42.580447
 30
0.0
 10
23.238245
 20
43.619134
 30
0.0
 10
24.423590
 20
44.842936
 30
0.0
 10
24.213121
 20
44.071148
 30
0.0
 10
23.956380
 20
43.555809
 30
0.0
 10
23.108902
 20
41.963866
 30
0.0
 10
21.933195
 20
39.523131
 30
0.0
 10
21.210935
 20
35.615670
 30
0.0
 10
21.195009
 20
32.085570
 30
0.0
 10
21.307752
 20
29.146133
 30
0.0
 10
21.537494
 20
27.017229
 30
0.0
 10
21.907282
 20
25.178905
 30
0.0
 10
22.296984
 20
23.508817
 30
0.0
 10
22.623519
 20
22.196453
 30
0.0
 10
22.868605
 20
21.421945
 30
0.0
 10
22.967221
 20
21.110305
 30
0.0
 11
29.035571
 21
55.513209
 31
0.0
 11
26.834535
 21
56.137572
 31
0.0
 11
24.378573
 21
56.191353
 31
0.0
 11
23.215877
 21
55.640675
 31
0.0
 11
23.236916
 21
55.458471
 31
0.0
 11
23.292049
 21
55.301828
 31
0.0
 11
23.369303
 21
55.204607
 31
0.0
 11
23.404473
 21
55.169278
 31
0.0
 11
23.349341
 21
55.174856
 31
0.0
 11
23.215877
 21
55.220066
 31
0.0
 11
22.061030
 21
55.422881
 31
0.0
 11
20.487639
 21
55.446204
 31
0.0
 11
19.065932
 21
55.281612
 31
0.0
 11
17.443517
 21
54.737310
 31
0.0
 11
16.168911
 21
54.010882
 31
0.0
 11
15.652783
 21
53.336366
 31
0.0
 11
15.772731
 21
53.052587
 31
0.0
 11
16.309044
 21
52.917124
 31
0.0
 11
17.526420
 21
52.863108
 31
0.0
 11
19.471614
 21
52.687876
 31
0.0
 11
21.246620
 21
52.311230
 31
0.0
 11
22.369261
 21
51.835502
 31
0.0
 11
22.553594
 21
51.682081
 31
0.0
 11
22.532116
 21
51.653311
 31
0.0
 11
22.296049
 21
51.737350
 31
0.0
 11
20.638547
 21
52.235711
 31
0.0
 11
18.814669
 21
52.498691
 31
0.0
 11
16.879317
 21
52.518336
 31
0.0
 11
15.028428
 21
52.320066
 31
0.0
 11
13.723052
 21
51.851876
 31
0.0
 11
12.478378
 21
50.939885
 31
0.0
 11
11.612839
 21
49.878895
 31
0.0
 11
10.932680
 21
48.604039
 31
0.0
 11
10.807024
 21
47.807189
 31
0.0
 11
11.065412
 21
47.794136
 31
0.0
 11
11.598685
 21
47.931621
 31
0.0
 11
12.291408
 21
48.189880
 31
0.0
 11
12.975571
 21
48.458337
 31
0.0
 11
13.486414
 21
48.622550
 31
0.0
 11
13.713371
 21
48.646950
 31
0.0
 11
13.610008
 21
48.534788
 31
0.0
 11
13.254981
 21
48.340881
 31
0.0
 11
12.725143
 21
48.107187
 31
0.0
 11
11.064866
 21
47.196420
 31
0.0
 11
9.746177
 21
45.979116
 31
0.0
 11
8.861341
 21
44.540466
 31
0.0
 11
8.170437
 21
41.916259
 31
0.0
 11
7.940591
 21
38.803842
 31
0.0
 11
8.220364
 21
35.860948
 31
0.0
 11
8.508677
 21
35.231586
 31
0.0
 11
8.927988
 21
35.474180
 31
0.0
 11
9.477088
 21
36.587972
 31
0.0
 11
10.368363
 21
38.448567
 31
0.0
 11
11.540497
 21
40.352283
 31
0.0
 11
12.804919
 21
41.992891
 31
0.0
 11
13.314111
 21
42.545159
 31
0.0
 11
13.236432
 21
42.349859
 31
0.0
 11
12.526360
 21
41.292703
 31
0.0
 11
11.250367
 21
39.114761
 31
0.0
 11
10.252171
 21
36.762460
 31
0.0
 11
9.590116
 21
34.373211
 31
0.0
 11
9.364346
 21
33.108966
 31
0.0
 11
9.363726
 21
32.318309
 31
0.0
 11
9.587787
 21
31.450674
 31
0.0
 11
11.025016
 21
28.225300
 31
0.0
 11
12.944011
 21
25.139360
 31
0.0
 11
14.275307
 21
23.912666
 31
0.0
 11
14.410231
 21
24.118391
 31
0.0
 11
14.459218
 21
24.618222
 31
0.0
 11
14.426400
 21
25.454218
 31
0.0
 11
14.336618
 21
28.681900
 31
0.0
 11
14.476881
 21
31.895883
 31
0.0
 11
14.818716
 21
34.442924
 31
0.0
 11
15.592038
 21
37.122771
 31
0.0
 11
16.653301
 21
39.612275
 31
0.0
 11
17.836632
 21
41.522404
 31
0.0
 11
18.273977
 21
42.058412
 31
0.0
 11
18.474233
 21
42.277169
 31
0.0
 11
18.394042
 21
42.131295
 31
0.0
 11
17.119159
 21
39.921518
 31
0.0
 11
16.022029
 21
37.349594
 31
0.0
 11
15.209427
 21
34.665915
 31
0.0
 11
14.919042
 21
33.190080
 31
0.0
 11
14.787506
 21
31.580664
 31
0.0
 11
14.763295
 21
29.206743
 31
0.0
 11
14.881837
 21
25.770898
 31
0.0
 11
15.269895
 21
23.779811
 31
0.0
 11
16.029645
 21
22.709320
 31
0.0
 11
17.584836
 21
21.773375
 31
0.0
 11
19.564519
 21
20.951084
 31
0.0
 11
21.321682
 21
20.511185
 31
0.0
 11
22.372096
 21
20.460088
 31
0.0
 11
22.521439
 21
21.130719
 31
0.0
 11
21.929406
 21
23.240188
 31
0.0
 11
21.194303
 21
26.207819
 31
0.0
 11
20.793882
 21
29.184765
 31
0.0
 11
20.668308
 21
32.616394
 31
0.0
 11
20.753718
 21
35.842619
 31
0.0
 11
21.119600
 21
38.206675
 31
0.0
 11
21.905051
 21
40.607096
 31
0.0
 11
22.809487
 21
42.560266
 31
0.0
 11
23.769089
 21
44.140259
 31
0.0
 11
24.321513
 21
44.585824
 31
0.0
 11
24.256853
 21
44.254758
 31
0.0
 11
23.975961
 21
43.601502
 31
0.0
 11
23.539652
 21
42.767462
 31
0.0
 11
22.094229
 21
39.497205
 31
0.0
 11
21.359106
 21
35.873193
 31
0.0
 11
21.233447
 21
31.398610
 31
0.0
 11
21.344827
 21
28.986804
 31
0.0
 11
21.560371
 21
27.068404
 31
0.0
 11
21.948658
 21
25.033610
 31
0.0
 11
22.313343
 21
23.456990
 31
0.0
 11
22.679285
 21
22.047511
 31
0.0
 11
22.967221
 21
21.110305
 31
0.0
  0
SPLINE
  5
104
100
AcDbEntity
  8
Layer_1
 62
7
100
AcDbSpline
 70
0
 71
3
 72
16
 73
12
 74
10
 40
0.000000
 40
0.000000
 40
0.000000
 40
0.000000
 40
2.255034
 40
4.879808
 40
6.338655
 40
6.602075
 40
7.143112
 40
7.938480
 40
12.058012
 40
16.153576
 40
20.240350
 40
20.240350
 40
20.240350
 40
20.240350
 10
24.782521
 20
19.855040
 30
0.0
 10
25.560426
 20
19.821371
 30
0.0
 10
27.243782
 20
19.748512
 30
0.0
 10
28.951706
 20
20.217198
 30
0.0
 10
31.115295
 20
19.989743
 30
0.0
 10
31.063596
 20
20.812719
 30
0.0
 10
30.757807
 20
21.256650
 30
0.0
 10
29.695027
 20
22.725372
 30
0.0
 10
27.995410
 20
25.219476
 30
0.0
 10
26.427878
 20
29.051653
 30
0.0
 10
25.964541
 20
31.745103
 30
0.0
 10
25.733121
 20
33.090382
 30
0.0
 11
24.782521
 21
19.855040
 31
0.0
 11
27.037539
 21
19.846644
 31
0.0
 11
29.650971
 21
20.090387
 31
0.0
 11
31.067015
 21
20.441179
 31
0.0
 11
31.055420
 21
20.704344
 31
0.0
 11
30.805619
 21
21.184260
 31
0.0
 11
30.343345
 21
21.831496
 31
0.0
 11
28.117324
 21
25.297815
 31
0.0
 11
26.571888
 21
29.090608
 31
0.0
 11
25.733121
 21
33.090382
 31
0.0
  0
SPLINE
  5
105
100
AcDbEntity
  8
Layer_1
 62
7
100
AcDbSpline
 70
0
 71
3
 72
10
 73
6
 74
4
 40
0.000000
 40
0.000000
 40
0.000000
 40
0.000000
 40
0.666487
 40
1.330312
 40
1.992360
 40
1.992360
 40
1.992360
 40
1.992360
 10
25.733121
 20
33.090382
 30
0.0
 10
25.639034
 20
33.291687
 30
0.0
 10
25.451236
 20
33.693493
 30
0.0
 10
25.215213
 20
34.315177
 30
0.0
 10
25.089845
 20
34.739080
 30
0.0
 10
25.027245
 20
34.950747
 30
0.0
 11
25.733121
 21
33.090382
 31
0.0
 11
25.458442
 21
33.697634
 31
0.0
 11
25.222949
 21
34.318285
 31
0.0
 11
25.027245
 21
34.950747
 31
0.0
  0
SPLINE
  5
106
100
AcDbEntity
  8
Layer_1
 62
7
100
AcDbSpline
 70
0
 71
3
 72
31
 73
27
 74
25
 40
0.000000
 40
0.000000
 40
0.000000
 40
0.000000
 40
2.669683
 40
5.332443
 40
8.090815
 40
10.294272
 40
12.240460
 40
14.056771
 40
14.649651
 40
15.085777
 40
15.281980
 40
16.849108
 40
19.672487
 40
21.424175
 40
21.846797
 40
22.730286
 40
24.119604
 40
30.935074
 40
36.910572
 40
42.188367
 40
44.260482
 40
45.155114
 40
45.808853
 40
46.158710
 40
46.398886
 40
46.592768
 40
46.592768
 40
46.592768
 40
46.592768
 10
25.027245
 20
34.950747
 30
0.0
 10
25.075954
 20
34.060976
 30
0.0
 10
25.173245
 20
32.283742
 30
0.0
 10
25.754671
 20
29.638799
 30
0.0
 10
26.585458
 20
27.232781
 30
0.0
 10
27.511082
 20
25.123572
 30
0.0
 10
28.439271
 20
23.358521
 30
0.0
 10
29.283298
 20
22.177458
 30
0.0
 10
29.830687
 20
21.399105
 30
0.0
 10
30.058788
 20
21.066423
 30
0.0
 10
30.248801
 20
20.293948
 30
0.0
 10
27.652346
 20
20.861974
 30
0.0
 10
26.307815
 20
20.684320
 30
0.0
 10
24.245893
 20
20.186583
 30
0.0
 10
23.607277
 20
21.039999
 30
0.0
 10
23.346836
 20
21.901020
 30
0.0
 10
22.493872
 20
24.806486
 30
0.0
 10
21.661930
 20
29.495595
 30
0.0
 10
21.616580
 20
35.524914
 30
0.0
 10
22.861308
 20
39.976359
 30
0.0
 10
23.970597
 20
42.297773
 30
0.0
 10
24.645315
 20
43.546103
 30
0.0
 10
25.357800
 20
43.354095
 30
0.0
 10
25.717892
 20
43.183294
 30
0.0
 10
25.949549
 20
43.032906
 30
0.0
 10
25.995319
 20
42.891761
 30
0.0
 10
26.015764
 20
42.828715
 30
0.0
 11
25.027245
 21
34.950747
 31
0.0
 11
25.245035
 21
32.289962
 31
0.0
 11
25.796322
 21
29.684895
 31
0.0
 11
26.684306
 21
27.073363
 31
0.0
 11
27.570813
 21
25.056106
 31
0.0
 11
28.497941
 21
23.344942
 31
0.0
 11
29.518459
 21
21.842434
 31
0.0
 11
29.858722
 21
21.356916
 31
0.0
 11
30.073440
 21
20.977308
 31
0.0
 11
30.116121
 21
20.785804
 31
0.0
 11
28.557688
 21
20.620947
 31
0.0
 11
25.735768
 21
20.530190
 31
0.0
 11
23.985055
 21
20.588626
 31
0.0
 11
23.718875
 21
20.916890
 31
0.0
 11
23.396662
 21
21.739527
 31
0.0
 11
23.011411
 21
23.074363
 31
0.0
 11
21.816592
 21
29.784284
 31
0.0
 11
21.919182
 21
35.758901
 31
0.0
 11
23.316659
 21
40.848320
 31
0.0
 11
24.204012
 21
42.720822
 31
0.0
 11
24.787894
 21
43.398648
 31
0.0
 11
25.435311
 21
43.307952
 31
0.0
 11
25.750890
 21
43.156923
 31
0.0
 11
25.937970
 21
43.006306
 31
0.0
 11
26.015764
 21
42.828715
 31
0.0
  0
SPLINE
  5
107
100
AcDbEntity
  8
Layer_1
 62
7
100
AcDbSpline
 70
0
 71
3
 72
10
 73
6
 74
4
 40
0.000000
 40
0.000000
 40
0.000000
 40
0.000000
 40
2.432923
 40
4.916647
 40
7.452984
 40
7.452984
 40
7.452984
 40
7.452984
 10
26.015764
 20
42.828715
 30
0.0
 10
26.483625
 20
43.497342
 30
0.0
 10
27.429117
 20
44.848556
 30
0.0
 10
29.451530
 20
46.343298
 30
0.0
 10
30.889621
 20
47.193642
 30
0.0
 10
31.616203
 20
47.623270
 30
0.0
 11
26.015764
 21
42.828715
 31
0.0
 11
27.514518
 21
44.745184
 31
0.0
 11
29.455824
 21
46.294446
 31
0.0
 11
31.616203
 21
47.623270
 31
0.0
  0
SPLINE
  5
108
100
AcDbEntity
  8
Layer_1
 62
7
100
AcDbSpline
 70
0
 71
3
 72
10
 73
6
 74
4
 40
0.000000
 40
0.000000
 40
0.000000
 40
0.000000
 40
1.459148
 40
2.621151
 40
3.501468
 40
3.501468
 40
3.501468
 40
3.501468
 10
31.616203
 20
47.623270
 30
0.0
 10
31.131187
 20
47.631534
 30
0.0
 10
30.259924
 20
47.646380
 30
0.0
 10
29.078428
 20
47.584984
 30
0.0
 10
28.445253
 20
47.323943
 30
0.0
 10
28.172331
 20
47.211424
 30
0.0
 11
31.616203
 21
47.623270
 31
0.0
 11
30.157067
 21
47.629219
 31
0.0
 11
29.001495
 21
47.507133
 31
0.0
 11
28.172331
 21
47.211424
 31
0.0
  0
SPLINE
  5
109
100
AcDbEntity
  8
Layer_1
 62
7
100
AcDbSpline
 70
0
 71
3
 72
10
 73
6
 74
4
 40
0.000000
 40
0.000000
 40
0.000000
 40
0.000000
 40
0.109728
 40
0.229190
 40
0.359961
 40
0.359961
 40
0.359961
 40
0.359961
 10
28.172331
 20
47.211424
 30
0.0
 10
28.163062
 20
47.246829
 30
0.0
 10
28.143701
 20
47.320779
 30
0.0
 10
28.127083
 20
47.439930
 30
0.0
 10
28.123466
 20
47.523282
 30
0.0
 10
28.121576
 20
47.566842
 30
0.0
 11
28.172331
 21
47.211424
 31
0.0
 11
28.146536
 21
47.318077
 31
0.0
 11
28.129414
 21
47.436306
 31
0.0
 11
28.121576
 21
47.566842
 31
0.0
  0
SPLINE
  5
10a
100
AcDbEntity
  8
Layer_1
 62
7
100
AcDbSpline
 70
0
 71
3
 72
16
 73
12
 74
10
 40
0.000000
 40
0.000000
 40
0.000000
 40
0.000000
 40
0.729309
 40
1.265136
 40
1.880278
 40
2.435964
 40
3.055671
 40
3.615810
 40
4.110345
 40
4.344291
 40
4.510398
 40
4.510398
 40
4.510398
 40
4.510398
 10
28.121576
 20
47.566842
 30
0.0
 10
28.122299
 20
47.811240
 30
0.0
 10
28.123553
 20
48.235200
 30
0.0
 10
27.912257
 20
48.841567
 30
0.0
 10
27.522733
 20
49.269163
 30
0.0
 10
27.058436
 20
49.646285
 30
0.0
 10
26.568250
 20
49.946624
 30
0.0
 10
26.034775
 20
50.176145
 30
0.0
 10
25.675964
 20
50.279561
 30
0.0
 10
25.322448
 20
50.471804
 30
0.0
 10
25.428885
 20
50.589851
 30
0.0
 10
25.473079
 20
50.638866
 30
0.0
 11
28.121576
 21
47.566842
 31
0.0
 11
28.076083
 21
48.294731
 31
0.0
 11
27.892268
 21
48.798043
 31
0.0
 11
27.499122
 21
49.271155
 31
0.0
 11
27.068959
 21
49.622931
 31
0.0
 11
26.539653
 21
49.945223
 31
0.0
 11
26.025822
 21
50.168233
 31
0.0
 11
25.564217
 21
50.345676
 31
0.0
 11
25.386102
 21
50.497352
 31
0.0
 11
25.473079
 21
50.638866
 31
0.0
  0
SPLINE
  5
10b
100
AcDbEntity
  8
Layer_1
 62
7
100
AcDbSpline
 70
0
 71
3
 72
10
 73
6
 74
4
 40
0.000000
 40
0.000000
 40
0.000000
 40
0.000000
 40
2.560196
 40
6.531278
 40
9.883648
 40
9.883648
 40
9.883648
 40
9.883648
 10
25.473079
 20
50.638866
 30
0.0
 10
26.249996
 20
50.992223
 30
0.0
 10
28.231976
 20
51.893668
 30
0.0
 10
31.309113
 20
53.077642
 30
0.0
 10
33.515115
 20
54.124719
 30
0.0
 10
34.524931
 20
54.604028
 30
0.0
 11
25.473079
 21
50.638866
 31
0.0
 11
27.811733
 21
51.680644
 31
0.0
 11
31.479966
 21
53.201681
 31
0.0
 11
34.524931
 21
54.604028
 31
0.0
  0
LINE
  5
10c
100
AcDbEntity
  8
Layer_1
 62
7
100
AcDbLine
 10
39.943889
 20
52.342744
 30
0.0
 11
40.708980
 21
52.091019
 31
0.0
  0
LINE
  5
10d
100
AcDbEntity
  8
Layer_1
 62
7
100
AcDbLine
 10
40.708980
 20
52.091019
 30
0.0
 11
40.168632
 21
51.494378
 31
0.0
  0
SPLINE
  5
10e
100
AcDbEntity
  8
Layer_1
 62
7
100
AcDbSpline
 70
0
 71
3
 72
19
 73
15
 74
13
 40
0.000000
 40
0.000000
 40
0.000000
 40
0.000000
 40
0.077380
 40
0.157825
 40
0.241717
 40
0.709450
 40
1.001370
 40
1.241461
 40
1.480246
 40
1.776146
 40
2.256171
 40
3.013084
 40
4.280736
 40
6.380274
 40
6.380274
 40
6.380274
 40
6.380274
 10
34.524931
 20
54.604028
 30
0.0
 10
34.533279
 20
54.579624
 30
0.0
 10
34.550304
 20
54.529850
 30
0.0
 10
34.577286
 20
54.453898
 30
0.0
 10
34.649025
 20
54.256113
 30
0.0
 10
34.762608
 20
53.992104
 30
0.0
 10
35.025450
 20
53.766169
 30
0.0
 10
35.277011
 20
53.702295
 30
0.0
 10
35.524494
 20
53.625578
 30
0.0
 10
35.876558
 20
53.667333
 30
0.0
 10
36.277945
 20
54.014370
 30
0.0
 10
37.208749
 20
53.993073
 30
0.0
 10
38.210462
 20
52.963151
 30
0.0
 10
39.278154
 20
52.581016
 30
0.0
 10
39.943889
 20
52.342744
 30
0.0
 11
34.524931
 21
54.604028
 31
0.0
 11
34.550116
 21
54.530860
 31
0.0
 11
34.576975
 21
54.455032
 31
0.0
 11
34.605730
 21
54.376222
 31
0.0
 11
34.823219
 21
53.962129
 31
0.0
 11
35.049241
 21
53.777382
 31
0.0
 11
35.276602
 21
53.700243
 31
0.0
 11
35.509186
 21
53.646181
 31
0.0
 11
35.803071
 21
53.680660
 31
0.0
 11
36.225890
 21
53.907922
 31
0.0
 11
36.982505
 21
53.929152
 31
0.0
 11
38.043812
 21
53.235920
 31
0.0
 11
39.943889
 21
52.342744
 31
0.0
  0
SPLINE
  5
10f
100
AcDbEntity
  8
Layer_1
 62
7
100
AcDbSpline
 70
0
 71
3
 72
31
 73
27
 74
25
 40
0.000000
 40
0.000000
 40
0.000000
 40
0.000000
 40
0.858953
 40
1.367835
 40
1.975341
 40
2.384248
 40
2.725957
 40
3.168807
 40
3.640078
 40
3.917248
 40
4.261538
 40
4.601143
 40
4.982531
 40
5.514529
 40
6.794583
 40
7.590420
 40
8.102239
 40
8.987884
 40
9.874407
 40
10.564771
 40
11.093537
 40
11.788868
 40
12.270405
 40
12.767462
 40
12.948659
 40
13.139665
 40
13.139665
 40
13.139665
 40
13.139665
 10
40.168632
 20
51.494378
 30
0.0
 10
39.972683
 20
51.278958
 30
0.0
 10
39.660645
 20
50.935914
 30
0.0
 10
39.715345
 20
50.127513
 30
0.0
 10
40.345675
 20
50.113205
 30
0.0
 10
40.784908
 20
50.166524
 30
0.0
 10
41.156493
 20
49.955259
 30
0.0
 10
41.361177
 20
49.583983
 30
0.0
 10
41.574631
 20
49.245910
 30
0.0
 10
41.600503
 20
48.858150
 30
0.0
 10
41.382554
 20
48.599830
 30
0.0
 10
41.112094
 20
48.360775
 30
0.0
 10
40.680112
 20
48.301553
 30
0.0
 10
39.954526
 20
48.399521
 30
0.0
 10
39.131656
 20
48.590635
 30
0.0
 10
38.242338
 20
48.879968
 30
0.0
 10
37.950127
 20
49.597608
 30
0.0
 10
37.910961
 20
50.350767
 30
0.0
 10
37.510001
 20
51.126306
 30
0.0
 10
36.904343
 20
51.496815
 30
0.0
 10
36.423706
 20
51.926764
 30
0.0
 10
36.150254
 20
52.432091
 30
0.0
 10
35.516339
 20
52.649895
 30
0.0
 10
35.273369
 20
52.351636
 30
0.0
 10
34.885644
 20
52.263929
 30
0.0
 10
34.932939
 20
52.420780
 30
0.0
 10
34.957210
 20
52.501273
 30
0.0
 11
40.168632
 21
51.494378
 31
0.0
 11
39.718771
 21
50.762650
 31
0.0
 11
39.802050
 21
50.260628
 31
0.0
 11
40.395125
 21
50.129003
 31
0.0
 11
40.803953
 21
50.120985
 31
0.0
 11
41.102923
 21
49.955508
 31
0.0
 11
41.360019
 21
49.594929
 31
0.0
 11
41.563265
 21
49.169737
 31
0.0
 11
41.567954
 21
48.892608
 31
0.0
 11
41.376793
 21
48.606263
 31
0.0
 11
41.108165
 21
48.398487
 31
0.0
 11
40.734259
 21
48.323311
 31
0.0
 11
40.204366
 21
48.370580
 31
0.0
 11
38.956660
 21
48.656530
 31
0.0
 11
38.246656
 21
49.016045
 31
0.0
 11
38.021691
 21
49.475774
 31
0.0
 11
37.846499
 21
50.343918
 31
0.0
 11
37.415856
 21
51.118818
 31
0.0
 11
36.872161
 21
51.544257
 31
0.0
 11
36.486247
 21
51.905731
 31
0.0
 11
36.026264
 21
52.427171
 31
0.0
 11
35.562310
 21
52.556109
 31
0.0
 11
35.121032
 21
52.327330
 31
0.0
 11
34.940574
 21
52.310992
 31
0.0
 11
34.957210
 21
52.501273
 31
0.0
  0
SPLINE
  5
110
100
AcDbEntity
  8
Layer_1
 62
7
100
AcDbSpline
 70
0
 71
3
 72
10
 73
6
 74
4
 40
0.000000
 40
0.000000
 40
0.000000
 40
0.000000
 40
1.927400
 40
3.928669
 40
5.596374
 40
5.596374
 40
5.596374
 40
5.596374
 10
34.957210
 20
52.501273
 30
0.0
 10
34.495391
 20
52.966235
 30
0.0
 10
33.554054
 20
53.913981
 30
0.0
 10
30.545898
 20
52.732744
 30
0.0
 10
32.155596
 20
52.166623
 30
0.0
 10
32.887272
 20
51.909297
 30
0.0
 11
34.957210
 21
52.501273
 31
0.0
 11
33.290054
 21
53.468465
 31
0.0
 11
31.432283
 21
52.724311
 31
0.0
 11
32.887272
 21
51.909297
 31
0.0
  0
SPLINE
  5
111
100
AcDbEntity
  8
Layer_1
 62
7
100
AcDbSpline
 70
0
 71
3
 72
25
 73
21
 74
19
 40
0.000000
 40
0.000000
 40
0.000000
 40
0.000000
 40
0.635616
 40
0.834502
 40
1.084658
 40
1.350224
 40
1.560303
 40
1.714990
 40
2.240820
 40
3.090415
 40
4.110705
 40
4.944923
 40
5.974109
 40
7.311310
 40
8.058907
 40
8.507866
 40
9.185064
 40
9.493851
 40
9.745216
 40
9.942133
 40
9.942133
 40
9.942133
 40
9.942133
 10
32.887272
 20
51.909297
 30
0.0
 10
33.069975
 20
51.922707
 30
0.0
 10
33.309848
 20
51.940312
 30
0.0
 10
33.816340
 20
51.811439
 30
0.0
 10
33.460136
 20
51.656837
 30
0.0
 10
33.295822
 20
51.545346
 30
0.0
 10
33.139289
 20
51.378124
 30
0.0
 10
33.141116
 20
51.049003
 30
0.0
 10
33.789544
 20
50.917396
 30
0.0
 10
34.538271
 20
51.008066
 30
0.0
 10
35.318065
 20
51.464689
 30
0.0
 10
36.441704
 20
51.543399
 30
0.0
 10
36.801717
 20
50.325555
 30
0.0
 10
36.997243
 20
49.377232
 30
0.0
 10
37.006616
 20
48.497400
 30
0.0
 10
37.409829
 20
47.966793
 30
0.0
 10
37.907036
 20
47.876619
 30
0.0
 10
38.301196
 20
47.769258
 30
0.0
 10
38.553478
 20
47.730921
 30
0.0
 10
38.688373
 20
47.664962
 30
0.0
 10
38.747629
 20
47.635988
 30
0.0
 11
32.887272
 21
51.909297
 31
0.0
 11
33.522292
 21
51.881790
 31
0.0
 11
33.707356
 21
51.808939
 31
0.0
 11
33.500830
 21
51.667783
 31
0.0
 11
33.280006
 21
51.520263
 31
0.0
 11
33.155828
 21
51.350815
 31
0.0
 11
33.155184
 21
51.196129
 31
0.0
 11
33.629975
 21
50.970142
 31
0.0
 11
34.475600
 21
51.052180
 31
0.0
 11
35.428574
 21
51.416643
 31
0.0
 11
36.262220
 21
51.385778
 31
0.0
 11
36.744827
 21
50.476760
 31
0.0
 11
36.983583
 21
49.161046
 31
0.0
 11
37.106506
 21
48.423624
 31
0.0
 11
37.384217
 21
48.070862
 31
0.0
 11
38.021691
 21
47.842339
 31
0.0
 11
38.321988
 21
47.770425
 31
0.0
 11
38.567067
 21
47.714563
 31
0.0
 11
38.747629
 21
47.635988
 31
0.0
  0
SPLINE
  5
112
100
AcDbEntity
  8
Layer_1
 62
7
100
AcDbSpline
 70
0
 71
3
 72
25
 73
21
 74
19
 40
0.000000
 40
0.000000
 40
0.000000
 40
0.000000
 40
0.756275
 40
1.555526
 40
2.416905
 40
2.651526
 40
3.126053
 40
3.501265
 40
4.559130
 40
5.760339
 40
7.122843
 40
8.501309
 40
10.375577
 40
12.355033
 40
13.383631
 40
13.957228
 40
14.382029
 40
14.760101
 40
15.211504
 40
15.720649
 40
15.720649
 40
15.720649
 40
15.720649
 10
38.747629
 20
47.635988
 30
0.0
 10
38.987442
 20
47.537162
 30
0.0
 10
39.480696
 20
47.333895
 30
0.0
 10
40.148164
 20
47.157308
 30
0.0
 10
40.882927
 20
46.308374
 30
0.0
 10
41.018979
 20
46.911440
 30
0.0
 10
41.155711
 20
47.221251
 30
0.0
 10
41.477011
 20
47.779679
 30
0.0
 10
42.074134
 20
48.448673
 30
0.0
 10
42.271180
 20
49.681185
 30
0.0
 10
42.264489
 20
51.010066
 30
0.0
 10
41.599868
 20
52.435329
 30
0.0
 10
40.502225
 20
53.814700
 30
0.0
 10
39.030855
 20
54.647695
 30
0.0
 10
37.896535
 20
54.923616
 30
0.0
 10
37.231248
 20
55.212992
 30
0.0
 10
37.069519
 20
55.664547
 30
0.0
 10
36.918193
 20
56.054208
 30
0.0
 10
36.594427
 20
56.379946
 30
0.0
 10
36.320776
 20
56.545612
 30
0.0
 10
36.175725
 20
56.633425
 30
0.0
 11
38.747629
 21
47.635988
 31
0.0
 11
39.452019
 21
47.360694
 31
0.0
 11
40.173905
 21
47.017647
 31
0.0
 11
40.922101
 21
46.590826
 31
0.0
 11
41.001260
 21
46.811690
 31
0.0
 11
41.179453
 21
47.251489
 31
0.0
 11
41.367752
 21
47.576031
 31
0.0
 11
41.956307
 21
48.455054
 31
0.0
 11
42.230827
 21
49.624473
 31
0.0
 11
42.168133
 21
50.985534
 31
0.0
 11
41.632838
 21
52.255821
 31
0.0
 11
40.440811
 21
53.702179
 31
0.0
 11
38.724321
 21
54.688033
 31
0.0
 11
37.744834
 21
55.002069
 31
0.0
 11
37.251852
 21
55.295296
 31
0.0
 11
37.063320
 21
55.675969
 31
0.0
 11
36.906151
 21
56.019824
 31
0.0
 11
36.599266
 21
56.350861
 31
0.0
 11
36.175725
 21
56.633425
 31
0.0
  0
LINE
  5
113
100
AcDbEntity
  8
Layer_1
 62
7
100
AcDbLine
 10
35.903146
 20
56.679073
 30
0.0
 11
35.903143
 21
56.679073
 31
0.0
  0
SPLINE
  5
114
100
AcDbEntity
  8
Layer_1
 62
7
100
AcDbSpline
 70
0
 71
3
 72
10
 73
6
 74
4
 40
0.000000
 40
0.000000
 40
0.000000
 40
0.000000
 40
0.092912
 40
0.185016
 40
0.277649
 40
0.277649
 40
0.277649
 40
0.277649
 10
36.175725
 20
56.633425
 30
0.0
 10
36.146190
 20
56.642836
 30
0.0
 10
36.087378
 20
56.661576
 30
0.0
 10
35.995627
 20
56.676591
 30
0.0
 10
35.934032
 20
56.678244
 30
0.0
 10
35.903146
 20
56.679073
 30
0.0
 11
36.175725
 21
56.633425
 31
0.0
 11
36.086534
 21
56.659455
 31
0.0
 11
35.995666
 21
56.674490
 31
0.0
 11
35.903146
 21
56.679073
 31
0.0
  0
SPLINE
  5
115
100
AcDbEntity
  8
Layer_1
 62
7
100
AcDbSpline
 70
0
 71
3
 72
10
 73
6
 74
4
 40
0.000000
 40
0.000000
 40
0.000000
 40
0.000000
 40
1.174120
 40
2.513811
 40
3.518157
 40
3.518157
 40
3.518157
 40
3.518157
 10
25.341092
 20
55.593860
 30
0.0
 10
25.731677
 20
55.569890
 30
0.0
 10
26.567927
 20
55.518569
 30
0.0
 10
27.729063
 20
55.302428
 30
0.0
 10
28.456642
 20
55.014439
 30
0.0
 10
28.768387
 20
54.891045
 30
0.0
 11
25.341092
 21
55.593860
 31
0.0
 11
26.511410
 21
55.499454
 31
0.0
 11
27.824699
 21
55.234794
 31
0.0
 11
28.768387
 21
54.891045
 31
0.0
  0
SPLINE
  5
116
100
AcDbEntity
  8
Layer_1
 62
7
100
AcDbSpline
 70
0
 71
3
 72
10
 73
6
 74
4
 40
0.000000
 40
0.000000
 40
0.000000
 40
0.000000
 40
0.868697
 40
1.575646
 40
2.690721
 40
2.690721
 40
2.690721
 40
2.690721
 10
28.768387
 20
54.891045
 30
0.0
 10
28.989570
 20
54.671631
 30
0.0
 10
29.390754
 20
54.273657
 30
0.0
 10
29.083807
 20
53.250615
 30
0.0
 10
28.437310
 20
53.124041
 30
0.0
 10
28.041656
 20
53.046577
 30
0.0
 11
28.768387
 21
54.891045
 31
0.0
 11
29.255358
 21
54.171676
 31
0.0
 11
29.064328
 21
53.491025
 31
0.0
 11
28.041656
 21
53.046577
 31
0.0
  0
LINE
  5
117
100
AcDbEntity
  8
Layer_1
 62
7
100
AcDbLine
 10
25.341092
 20
55.593860
 30
0.0
 11
25.341092
 21
55.593860
 31
0.0
  0
SPLINE
  5
118
100
AcDbEntity
  8
Layer_1
 62
7
100
AcDbSpline
 70
0
 71
3
 72
16
 73
12
 74
10
 40
0.000000
 40
0.000000
 40
0.000000
 40
0.000000
 40
0.671998
 40
1.577464
 40
2.527140
 40
3.379294
 40
3.867301
 40
4.017681
 40
4.113624
 40
4.224957
 40
4.350716
 40
4.350716
 40
4.350716
 40
4.350716
 10
28.041656
 20
53.046577
 30
0.0
 10
27.885314
 20
53.207303
 30
0.0
 10
27.518313
 20
53.584595
 30
0.0
 10
26.852522
 20
54.103503
 30
0.0
 10
26.080216
 20
54.582713
 30
0.0
 10
25.495578
 20
55.048606
 30
0.0
 10
24.990926
 20
55.247126
 30
0.0
 10
24.973155
 20
55.577233
 30
0.0
 10
25.114419
 20
55.573935
 30
0.0
 10
25.218725
 20
55.591204
 30
0.0
 10
25.298681
 20
55.592939
 30
0.0
 10
25.341092
 20
55.593860
 30
0.0
 11
28.041656
 21
53.046577
 31
0.0
 11
27.563811
 21
53.519067
 31
0.0
 11
26.854530
 21
54.081906
 31
0.0
 11
26.067387
 21
54.613216
 31
0.0
 11
25.357495
 21
55.084618
 31
0.0
 11
24.993892
 21
55.410107
 31
0.0
 11
25.010321
 21
55.559587
 31
0.0
 11
25.104709
 21
55.576789
 31
0.0
 11
25.215463
 21
55.588128
 31
0.0
 11
25.341092
 21
55.593860
 31
0.0
  0
LINE
  5
119
100
AcDbEntity
  8
Layer_1
 62
7
100
AcDbLine
 10
23.984466
 20
54.989197
 30
0.0
 11
23.984466
 21
54.989198
 31
0.0
  0
SPLINE
  5
11a
100
AcDbEntity
  8
Layer_1
 62
7
100
AcDbSpline
 70
0
 71
3
 72
25
 73
21
 74
19
 40
0.000000
 40
0.000000
 40
0.000000
 40
0.000000
 40
1.058564
 40
2.789867
 40
4.218578
 40
4.739406
 40
5.052918
 40
5.164725
 40
5.425396
 40
5.846125
 40
6.348251
 40
7.017543
 40
7.878979
 40
8.751441
 40
9.498430
 40
10.028382
 40
10.231952
 40
10.247606
 40
10.267260
 40
10.292634
 40
10.292634
 40
10.292634
 40
10.292634
 10
23.984466
 20
54.989198
 30
0.0
 10
24.305689
 20
54.839957
 30
0.0
 10
25.152277
 20
54.446629
 30
0.0
 10
26.275102
 20
53.621879
 30
0.0
 10
27.332213
 20
52.899772
 30
0.0
 10
27.742144
 20
52.318318
 30
0.0
 10
28.029275
 20
52.064660
 30
0.0
 10
27.892988
 20
51.816356
 30
0.0
 10
27.609857
 20
52.062899
 30
0.0
 10
27.327307
 20
52.251879
 30
0.0
 10
26.960329
 20
52.668824
 30
0.0
 10
26.478220
 20
53.131360
 30
0.0
 10
25.837630
 20
53.629886
 30
0.0
 10
25.175548
 20
54.084736
 30
0.0
 10
24.497682
 20
54.481413
 30
0.0
 10
24.243814
 20
54.729722
 30
0.0
 10
23.872614
 20
54.937012
 30
0.0
 10
23.940646
 20
54.987868
 30
0.0
 10
23.961059
 20
54.990780
 30
0.0
 10
23.976030
 20
54.989767
 30
0.0
 10
23.984466
 20
54.989197
 30
0.0
 11
23.984466
 21
54.989198
 31
0.0
 11
24.933156
 21
54.519577
 31
0.0
 11
26.375589
 21
53.562080
 31
0.0
 11
27.481911
 21
52.658053
 31
0.0
 11
27.819471
 21
52.261422
 31
0.0
 11
27.974443
 21
51.988891
 31
0.0
 11
27.917251
 21
51.892819
 31
0.0
 11
27.678777
 21
51.998078
 31
0.0
 11
27.348320
 21
52.258485
 31
0.0
 11
26.997425
 21
52.617655
 31
0.0
 11
26.515185
 21
53.081763
 31
0.0
 11
25.840434
 21
53.617284
 31
0.0
 11
25.119266
 21
54.108310
 31
0.0
 11
24.492116
 21
54.514111
 31
0.0
 11
24.063794
 21
54.826185
 31
0.0
 11
23.927004
 21
54.976947
 31
0.0
 11
23.939865
 21
54.985872
 31
0.0
 11
23.959101
 21
54.989901
 31
0.0
 11
23.984466
 21
54.989197
 31
0.0
  0
LINE
  5
11b
100
AcDbEntity
  8
Layer_1
 62
7
100
AcDbLine
 10
25.425097
 20
51.690535
 30
0.0
 11
25.425097
 21
51.690389
 31
0.0
  0
SPLINE
  5
11c
100
AcDbEntity
  8
Layer_1
 62
7
100
AcDbSpline
 70
0
 71
3
 72
16
 73
12
 74
10
 40
0.000000
 40
0.000000
 40
0.000000
 40
0.000000
 40
0.395305
 40
0.839746
 40
1.402220
 40
3.205246
 40
5.095305
 40
6.086470
 40
6.297350
 40
6.680691
 40
7.167857
 40
7.167857
 40
7.167857
 40
7.167857
 10
21.036845
 20
54.954779
 30
0.0
 10
21.168731
 20
54.948750
 30
0.0
 10
21.448894
 20
54.935943
 30
0.0
 10
21.905438
 20
54.824223
 30
0.0
 10
22.800405
 20
54.573556
 30
0.0
 10
24.183513
 20
53.939311
 30
0.0
 10
25.167166
 20
53.199090
 30
0.0
 10
26.574375
 20
52.437496
 30
0.0
 10
26.161940
 20
52.019869
 30
0.0
 10
25.847142
 20
51.860766
 30
0.0
 10
25.576537
 20
51.751618
 30
0.0
 10
25.425097
 20
51.690535
 30
0.0
 11
21.036845
 21
54.954779
 31
0.0
 11
21.431004
 21
54.924704
 31
0.0
 11
21.865617
 21
54.831757
 31
0.0
 11
22.406160
 21
54.676220
 31
0.0
 11
24.053977
 21
53.944374
 31
0.0
 11
25.659824
 21
52.947589
 31
0.0
 11
26.344925
 21
52.231318
 31
0.0
 11
26.204488
 21
52.074002
 31
0.0
 11
25.874032
 21
51.879712
 31
0.0
 11
25.425097
 21
51.690535
 31
0.0
  0
SPLINE
  5
11d
100
AcDbEntity
  8
Layer_1
 62
7
100
AcDbSpline
 70
0
 71
3
 72
10
 73
6
 74
4
 40
0.000000
 40
0.000000
 40
0.000000
 40
0.000000
 40
1.617322
 40
4.384220
 40
7.319232
 40
7.319232
 40
7.319232
 40
7.319232
 10
25.425097
 20
51.690389
 30
0.0
 10
24.947340
 20
51.930853
 30
0.0
 10
23.652241
 20
52.582702
 30
0.0
 10
21.603638
 20
54.227317
 30
0.0
 10
19.651007
 20
53.736375
 30
0.0
 10
18.645906
 20
53.483667
 30
0.0
 11
25.425097
 21
51.690389
 31
0.0
 11
24.001078
 21
52.457136
 31
0.0
 11
21.566696
 21
53.772245
 31
0.0
 11
18.645906
 21
53.483667
 31
0.0
  0
LINE
  5
11e
100
AcDbEntity
  8
Layer_1
 62
7
100
AcDbLine
 10
21.036845
 20
54.954779
 30
0.0
 11
21.036845
 21
54.954779
 31
0.0
  0
SPLINE
  5
11f
100
AcDbEntity
  8
Layer_1
 62
7
100
AcDbSpline
 70
0
 71
3
 72
16
 73
12
 74
10
 40
0.000000
 40
0.000000
 40
0.000000
 40
0.000000
 40
1.164282
 40
1.562698
 40
1.857650
 40
2.371162
 40
3.177196
 40
4.105084
 40
4.789753
 40
5.308504
 40
5.728998
 40
5.728998
 40
5.728998
 40
5.728998
 10
18.645906
 20
53.483667
 30
0.0
 10
18.324480
 20
53.509745
 30
0.0
 10
17.893063
 20
53.544748
 30
0.0
 10
16.965146
 20
53.675460
 30
0.0
 10
17.406302
 20
54.032667
 30
0.0
 10
17.857304
 20
54.178376
 30
0.0
 10
18.591376
 20
54.442349
 30
0.0
 10
19.361440
 20
54.648280
 30
0.0
 10
20.053312
 20
54.815534
 30
0.0
 10
20.583633
 20
54.929688
 30
0.0
 10
20.896691
 20
54.947019
 30
0.0
 10
21.036845
 20
54.954779
 30
0.0
 11
18.645906
 21
53.483667
 31
0.0
 11
17.487808
 21
53.603510
 31
0.0
 11
17.111503
 21
53.734390
 31
0.0
 11
17.317136
 21
53.945841
 31
0.0
 11
17.785038
 21
54.157412
 31
0.0
 11
18.548490
 21
54.415930
 31
0.0
 11
19.442206
 21
54.665428
 31
0.0
 11
20.107931
 21
54.825368
 31
0.0
 11
20.617652
 21
54.921741
 31
0.0
 11
21.036845
 21
54.954779
 31
0.0
  0
LINE
  5
120
100
AcDbEntity
  8
Layer_1
 62
7
100
AcDbLine
 10
33.408509
 20
53.333595
 30
0.0
 11
33.408509
 21
53.333595
 31
0.0
  0
SPLINE
  5
121
100
AcDbEntity
  8
Layer_1
 62
7
100
AcDbSpline
 70
0
 71
3
 72
22
 73
18
 74
16
 40
0.000000
 40
0.000000
 40
0.000000
 40
0.000000
 40
0.128428
 40
0.267809
 40
0.436636
 40
0.741123
 40
0.882172
 40
1.152275
 40
1.616496
 40
1.945552
 40
2.308205
 40
2.520510
 40
2.695216
 40
3.065800
 40
3.287646
 40
3.461755
 40
3.602705
 40
3.602705
 40
3.602705
 40
3.602705
 10
33.408509
 20
53.333595
 30
0.0
 10
33.451241
 20
53.327662
 30
0.0
 10
33.540351
 20
53.315289
 30
0.0
 10
33.668581
 20
53.237790
 30
0.0
 10
33.809286
 20
53.095652
 30
0.0
 10
34.003336
 20
52.970563
 30
0.0
 10
33.985267
 20
52.695982
 30
0.0
 10
33.654586
 20
52.610156
 30
0.0
 10
33.363588
 20
52.440206
 30
0.0
 10
32.946265
 20
52.440192
 30
0.0
 10
32.709209
 20
52.600339
 30
0.0
 10
32.467331
 20
52.783857
 30
0.0
 10
32.631245
 20
53.039141
 30
0.0
 10
32.862197
 20
53.135185
 30
0.0
 10
33.087605
 20
53.257080
 30
0.0
 10
33.256094
 20
53.323220
 30
0.0
 10
33.361398
 20
53.330388
 30
0.0
 10
33.408509
 20
53.333595
 30
0.0
 11
33.408509
 21
53.333595
 31
0.0
 11
33.534301
 21
53.307709
 31
0.0
 11
33.655898
 21
53.239581
 31
0.0
 11
33.783323
 21
53.128832
 31
0.0
 11
33.983978
 21
52.899813
 31
0.0
 11
33.971468
 21
52.759320
 31
0.0
 11
33.738259
 21
52.623051
 31
0.0
 11
33.302864
 21
52.462018
 31
0.0
 11
32.973860
 21
52.467925
 31
0.0
 11
32.655962
 21
52.642448
 31
0.0
 11
32.517976
 21
52.803796
 31
0.0
 11
32.593605
 21
52.961283
 31
0.0
 11
32.905353
 21
53.161647
 31
0.0
 11
33.104098
 21
53.260217
 31
0.0
 11
33.268465
 21
53.317641
 31
0.0
 11
33.408509
 21
53.333595
 31
0.0
  0
SPLINE
  5
122
100
AcDbEntity
  8
Layer_1
 62
7
100
AcDbSpline
 70
0
 71
3
 72
22
 73
18
 74
16
 40
0.000000
 40
0.000000
 40
0.000000
 40
0.000000
 40
0.482730
 40
1.077768
 40
1.807425
 40
4.039478
 40
5.545406
 40
6.223603
 40
6.337587
 40
6.489063
 40
6.677356
 40
6.922919
 40
7.226807
 40
7.535367
 40
8.052346
 40
8.987757
 40
10.540720
 40
10.540720
 40
10.540720
 40
10.540720
 10
16.163815
 20
51.844982
 30
0.0
 10
16.324683
 20
51.844300
 30
0.0
 10
16.683846
 20
51.842777
 30
0.0
 10
17.287028
 20
51.819043
 30
0.0
 10
18.462545
 20
51.773498
 30
0.0
 10
20.044013
 20
51.633726
 30
0.0
 10
21.251398
 20
51.437150
 30
0.0
 10
22.289868
 20
51.032252
 30
0.0
 10
22.145799
 20
50.717432
 30
0.0
 10
21.998934
 20
50.653124
 30
0.0
 10
21.805013
 20
50.640895
 30
0.0
 10
21.561647
 20
50.595050
 30
0.0
 10
21.298883
 20
50.471654
 30
0.0
 10
21.011229
 20
50.226129
 30
0.0
 10
20.459587
 20
49.991050
 30
0.0
 10
19.449268
 20
49.937736
 30
0.0
 10
18.621996
 20
49.923048
 30
0.0
 10
18.105706
 20
49.913881
 30
0.0
 11
16.163815
 21
51.844982
 31
0.0
 11
16.646523
 21
51.840402
 31
0.0
 11
17.241241
 21
51.820898
 31
0.0
 11
17.970219
 21
51.789415
 31
0.0
 11
20.193647
 21
51.593380
 31
0.0
 11
21.663019
 21
51.263585
 31
0.0
 11
22.193814
 21
50.841439
 31
0.0
 11
22.143154
 21
50.739331
 31
0.0
 11
22.010336
 21
50.666502
 31
0.0
 11
21.824103
 21
50.638721
 31
0.0
 11
21.583480
 21
50.589711
 31
0.0
 11
21.308088
 21
50.461232
 31
0.0
 11
21.057556
 21
50.281112
 31
0.0
 11
20.586451
 21
50.068210
 31
0.0
 11
19.658181
 21
49.952854
 31
0.0
 11
18.105706
 21
49.913881
 31
0.0
  0
LINE
  5
123
100
AcDbEntity
  8
Layer_1
 62
7
100
AcDbLine
 10
11.973471
 20
48.794543
 30
0.0
 11
11.462440
 21
48.613843
 31
0.0
  0
LINE
  5
124
100
AcDbEntity
  8
Layer_1
 62
7
100
AcDbLine
 10
11.462440
 20
48.613843
 30
0.0
 11
11.871236
 21
49.190942
 31
0.0
  0
SPLINE
  5
125
100
AcDbEntity
  8
Layer_1
 62
7
100
AcDbSpline
 70
0
 71
3
 72
13
 73
9
 74
7
 40
0.000000
 40
0.000000
 40
0.000000
 40
0.000000
 40
1.626629
 40
2.957203
 40
4.129096
 40
5.010154
 40
5.780177
 40
6.272566
 40
6.272566
 40
6.272566
 40
6.272566
 10
18.105706
 20
49.913881
 30
0.0
 10
17.563470
 20
49.905289
 30
0.0
 10
16.577688
 20
49.889667
 30
0.0
 10
15.205532
 20
49.744503
 30
0.0
 10
14.107011
 20
49.478087
 30
0.0
 10
13.211019
 20
49.190668
 30
0.0
 10
12.528250
 20
48.979977
 30
0.0
 10
12.129140
 20
48.846575
 30
0.0
 10
11.973471
 20
48.794543
 30
0.0
 11
18.105706
 21
49.913881
 31
0.0
 11
16.479925
 21
49.861374
 31
0.0
 11
15.158210
 21
49.708091
 31
0.0
 11
14.017452
 21
49.439751
 31
0.0
 11
13.175241
 21
49.181018
 31
0.0
 11
12.440934
 21
48.949222
 31
0.0
 11
11.973471
 21
48.794543
 31
0.0
  0
LINE
  5
126
100
AcDbEntity
  8
Layer_1
 62
7
100
AcDbLine
 10
16.163815
 20
51.844982
 30
0.0
 11
16.163815
 21
51.844982
 31
0.0
  0
SPLINE
  5
127
100
AcDbEntity
  8
Layer_1
 62
7
100
AcDbSpline
 70
0
 71
3
 72
13
 73
9
 74
7
 40
0.000000
 40
0.000000
 40
0.000000
 40
0.000000
 40
1.101684
 40
2.054687
 40
3.157538
 40
3.855473
 40
4.460682
 40
5.240023
 40
5.240023
 40
5.240023
 40
5.240023
 10
11.871236
 20
49.190942
 30
0.0
 10
12.088152
 20
49.488171
 30
0.0
 10
12.492709
 20
50.042516
 30
0.0
 10
13.280041
 20
50.753984
 30
0.0
 10
14.070486
 20
51.224157
 30
0.0
 10
14.768076
 20
51.622887
 30
0.0
 10
15.439411
 20
51.829790
 30
0.0
 10
15.902915
 20
51.839511
 30
0.0
 10
16.163815
 20
51.844982
 30
0.0
 11
11.871236
 21
49.190942
 31
0.0
 11
12.552969
 21
50.056360
 31
0.0
 11
13.259326
 21
50.696105
 31
0.0
 11
14.188671
 21
51.289905
 31
0.0
 11
14.807084
 21
51.613445
 31
0.0
 11
15.386555
 21
51.788063
 31
0.0
 11
16.163815
 21
51.844982
 31
0.0
  0
LINE
  5
128
100
AcDbEntity
  8
Layer_1
 62
7
100
AcDbLine
 10
23.564586
 20
50.226566
 30
0.0
 11
23.564586
 21
50.226569
 31
0.0
  0
SPLINE
  5
129
100
AcDbEntity
  8
Layer_1
 62
7
100
AcDbSpline
 70
0
 71
3
 72
19
 73
15
 74
13
 40
0.000000
 40
0.000000
 40
0.000000
 40
0.000000
 40
0.244076
 40
0.414122
 40
0.505427
 40
0.669146
 40
1.023578
 40
1.512923
 40
2.200521
 40
2.322848
 40
3.151003
 40
3.255181
 40
3.354931
 40
3.449443
 40
3.449443
 40
3.449443
 40
3.449443
 10
23.564586
 20
50.226569
 30
0.0
 10
23.646318
 20
50.222776
 30
0.0
 10
23.784992
 20
50.216340
 30
0.0
 10
23.949087
 20
50.202733
 30
0.0
 10
24.080708
 20
50.078099
 30
0.0
 10
23.806748
 20
49.963121
 30
0.0
 10
23.508809
 20
49.933296
 30
0.0
 10
23.086186
 20
49.960264
 30
0.0
 10
22.227586
 20
49.794940
 30
0.0
 10
22.612250
 20
50.302184
 30
0.0
 10
23.030092
 20
50.173443
 30
0.0
 10
23.368839
 20
50.218363
 30
0.0
 10
23.468391
 20
50.224340
 30
0.0
 10
23.533103
 20
50.225838
 30
0.0
 10
23.564586
 20
50.226566
 30
0.0
 11
23.564586
 21
50.226569
 31
0.0
 11
23.808315
 21
50.213552
 31
0.0
 11
23.972990
 21
50.171151
 31
0.0
 11
24.033469
 21
50.102749
 31
0.0
 11
23.900432
 21
50.007328
 31
0.0
 11
23.551646
 21
49.944319
 31
0.0
 11
23.062596
 21
49.927301
 31
0.0
 11
22.376874
 21
49.978052
 31
0.0
 11
22.449043
 21
50.076822
 31
0.0
 11
23.266922
 21
50.206881
 31
0.0
 11
23.370578
 21
50.217305
 31
0.0
 11
23.470114
 21
50.223814
 31
0.0
 11
23.564586
 21
50.226566
 31
0.0
  0
SPLINE
  5
12a
100
AcDbEntity
  8
Layer_1
 62
7
100
AcDbSpline
 70
0
 71
3
 72
10
 73
6
 74
4
 40
0.000000
 40
0.000000
 40
0.000000
 40
0.000000
 40
1.023632
 40
2.310530
 40
3.636085
 40
3.636085
 40
3.636085
 40
3.636085
 10
34.918594
 20
49.141594
 30
0.0
 10
34.609795
 20
48.996322
 30
0.0
 10
33.912777
 20
48.668413
 30
0.0
 10
32.779340
 20
48.234222
 30
0.0
 10
32.007721
 20
47.828920
 30
0.0
 10
31.616203
 20
47.623270
 30
0.0
 11
34.918594
 21
49.141594
 31
0.0
 11
33.987639
 21
48.715983
 31
0.0
 11
32.801759
 21
48.216188
 31
0.0
 11
31.616203
 21
47.623270
 31
0.0
  0
SPLINE
  5
12b
100
AcDbEntity
  8
Layer_1
 62
7
100
AcDbSpline
 70
0
 71
3
 72
10
 73
6
 74
4
 40
0.000000
 40
0.000000
 40
0.000000
 40
0.000000
 40
1.119883
 40
2.317374
 40
3.486143
 40
3.486143
 40
3.486143
 40
3.486143
 10
31.616203
 20
47.623270
 30
0.0
 10
31.968705
 20
47.748361
 30
0.0
 10
32.698138
 20
48.007213
 30
0.0
 10
33.853191
 20
48.180556
 30
0.0
 10
34.640149
 20
48.229131
 30
0.0
 10
35.028852
 20
48.253123
 30
0.0
 11
31.616203
 21
47.623270
 31
0.0
 11
32.682672
 21
47.965003
 31
0.0
 11
33.863464
 21
48.164291
 31
0.0
 11
35.028852
 21
48.253123
 31
0.0
  0
LINE
  5
12c
100
AcDbEntity
  8
Layer_1
 62
7
100
AcDbLine
 10
34.918594
 20
49.141594
 30
0.0
 11
34.918594
 21
49.141594
 31
0.0
  0
SPLINE
  5
12d
100
AcDbEntity
  8
Layer_1
 62
7
100
AcDbSpline
 70
0
 71
3
 72
10
 73
6
 74
4
 40
0.000000
 40
0.000000
 40
0.000000
 40
0.000000
 40
0.290938
 40
0.589141
 40
0.895326
 40
0.895326
 40
0.895326
 40
0.895326
 10
35.028852
 20
48.253123
 30
0.0
 10
35.018250
 20
48.349522
 30
0.0
 10
34.996782
 20
48.544727
 30
0.0
 10
34.960153
 20
48.840926
 30
0.0
 10
34.932569
 20
49.040493
 30
0.0
 10
34.918594
 20
49.141594
 30
0.0
 11
35.028852
 21
48.253123
 31
0.0
 11
34.996404
 21
48.542246
 31
0.0
 11
34.959784
 21
48.838193
 31
0.0
 11
34.918594
 21
49.141594
 31
0.0
  0
LINE
  5
12e
100
AcDbEntity
  8
Layer_1
 62
7
100
AcDbLine
 10
19.173418
 20
49.356036
 30
0.0
 11
19.173418
 21
49.356301
 31
0.0
  0
SPLINE
  5
12f
100
AcDbEntity
  8
Layer_1
 62
7
100
AcDbSpline
 70
0
 71
3
 72
10
 73
6
 74
4
 40
0.000000
 40
0.000000
 40
0.000000
 40
0.000000
 40
0.296355
 40
0.582245
 40
0.842121
 40
0.842121
 40
0.842121
 40
0.842121
 10
18.332491
 20
49.394248
 30
0.0
 10
18.431274
 20
49.393451
 30
0.0
 10
18.625352
 20
49.391885
 30
0.0
 10
18.905931
 20
49.380211
 30
0.0
 10
19.087135
 20
49.363834
 30
0.0
 10
19.173418
 20
49.356036
 30
0.0
 11
18.332491
 21
49.394248
 31
0.0
 11
18.628818
 21
49.390171
 31
0.0
 11
18.914424
 21
49.377432
 31
0.0
 11
19.173418
 21
49.356036
 31
0.0
  0
LINE
  5
130
100
AcDbEntity
  8
Layer_1
 62
7
100
AcDbLine
 10
18.332491
 20
49.394221
 30
0.0
 11
18.332491
 21
49.394248
 31
0.0
  0
SPLINE
  5
131
100
AcDbEntity
  8
Layer_1
 62
7
100
AcDbSpline
 70
0
 71
3
 72
16
 73
12
 74
10
 40
0.000000
 40
0.000000
 40
0.000000
 40
0.000000
 40
0.221333
 40
0.496919
 40
1.200950
 40
1.920455
 40
2.236305
 40
2.402576
 40
2.636705
 40
2.907140
 40
3.198350
 40
3.198350
 40
3.198350
 40
3.198350
 10
19.173418
 20
49.356301
 30
0.0
 10
19.279105
 20
49.339222
 30
0.0
 10
19.516383
 20
49.300878
 30
0.0
 10
18.861187
 20
49.255135
 30
0.0
 10
18.399652
 20
49.261014
 30
0.0
 10
17.969200
 20
49.268290
 30
0.0
 10
17.247808
 20
49.281677
 30
0.0
 10
17.582078
 20
49.371563
 30
0.0
 10
17.775444
 20
49.374600
 30
0.0
 10
18.050427
 20
49.392913
 30
0.0
 10
18.236179
 20
49.393774
 30
0.0
 10
18.332491
 20
49.394221
 30
0.0
 11
19.173418
 21
49.356301
 31
0.0
 11
19.389620
 21
49.308917
 31
0.0
 11
19.116169
 21
49.274676
 31
0.0
 11
18.412267
 21
49.261212
 31
0.0
 11
17.692866
 21
49.273458
 31
0.0
 11
17.378803
 21
49.307006
 31
0.0
 11
17.538088
 21
49.354695
 31
0.0
 11
17.771205
 21
49.376444
 31
0.0
 11
18.041318
 21
49.389638
 31
0.0
 11
18.332491
 21
49.394221
 31
0.0
  0
LINE
  5
132
100
AcDbEntity
  8
Layer_1
 62
7
100
AcDbLine
 10
15.802126
 20
49.102706
 30
0.0
 11
15.802126
 21
49.102970
 31
0.0
  0
SPLINE
  5
133
100
AcDbEntity
  8
Layer_1
 62
7
100
AcDbSpline
 70
0
 71
3
 72
10
 73
6
 74
4
 40
0.000000
 40
0.000000
 40
0.000000
 40
0.000000
 40
0.112740
 40
0.225435
 40
0.333337
 40
0.333337
 40
0.333337
 40
0.333337
 10
15.472813
 20
49.146314
 30
0.0
 10
15.510400
 20
49.145753
 30
0.0
 10
15.585558
 20
49.144629
 30
0.0
 10
15.696209
 20
49.130836
 30
0.0
 10
15.767335
 20
49.111946
 30
0.0
 10
15.802126
 20
49.102706
 30
0.0
 11
15.472813
 21
49.146314
 31
0.0
 11
15.585491
 21
49.142577
 31
0.0
 11
15.697251
 21
49.128090
 31
0.0
 11
15.802126
 21
49.102706
 31
0.0
  0
LINE
  5
134
100
AcDbEntity
  8
Layer_1
 62
7
100
AcDbLine
 10
15.472813
 20
49.146285
 30
0.0
 11
15.472813
 21
49.146314
 31
0.0
  0
SPLINE
  5
135
100
AcDbEntity
  8
Layer_1
 62
7
100
AcDbSpline
 70
0
 71
3
 72
16
 73
12
 74
10
 40
0.000000
 40
0.000000
 40
0.000000
 40
0.000000
 40
0.113929
 40
0.214326
 40
0.474390
 40
0.749047
 40
0.885044
 40
0.958617
 40
1.043019
 40
1.141162
 40
1.248987
 40
1.248987
 40
1.248987
 40
1.248987
 10
15.802126
 20
49.102970
 30
0.0
 10
15.853052
 20
49.083440
 30
0.0
 10
15.948855
 20
49.046700
 30
0.0
 10
15.732724
 20
48.970733
 30
0.0
 10
15.543192
 20
48.983609
 30
0.0
 10
15.358947
 20
48.988280
 30
0.0
 10
15.108097
 20
49.003381
 30
0.0
 10
15.190708
 20
49.108163
 30
0.0
 10
15.272694
 20
49.121896
 30
0.0
 10
15.368177
 20
49.142988
 30
0.0
 10
15.436859
 20
49.145152
 30
0.0
 10
15.472813
 20
49.146285
 30
0.0
 11
15.802126
 21
49.102970
 31
0.0
 11
15.900241
 21
49.045064
 31
0.0
 11
15.809863
 21
49.001346
 31
0.0
 11
15.550548
 21
48.981630
 31
0.0
 11
15.276155
 21
48.993695
 31
0.0
 11
15.146278
 21
49.034032
 31
0.0
 11
15.189004
 21
49.093927
 31
0.0
 11
15.268635
 21
49.121901
 31
0.0
 11
15.365210
 21
49.139379
 31
0.0
 11
15.472813
 21
49.146285
 31
0.0
  0
LINE
  5
136
100
AcDbEntity
  8
Layer_1
 62
7
100
AcDbLine
 10
14.426394
 20
48.902321
 30
0.0
 11
14.426394
 21
48.902321
 31
0.0
  0
LINE
  5
137
100
AcDbEntity
  8
Layer_1
 62
7
100
AcDbLine
 10
19.751683
 20
48.688223
 30
0.0
 11
19.956445
 21
48.046664
 31
0.0
  0
SPLINE
  5
138
100
AcDbEntity
  8
Layer_1
 62
7
100
AcDbSpline
 70
0
 71
3
 72
19
 73
15
 74
13
 40
0.000000
 40
0.000000
 40
0.000000
 40
0.000000
 40
0.091929
 40
0.180310
 40
0.262155
 40
0.347488
 40
0.449297
 40
0.672285
 40
0.895268
 40
0.997155
 40
1.082448
 40
1.164331
 40
1.252779
 40
1.344745
 40
1.344745
 40
1.344745
 40
1.344745
 10
14.426394
 20
48.902321
 30
0.0
 10
14.456945
 20
48.901448
 30
0.0
 10
14.516866
 20
48.899735
 30
0.0
 10
14.604585
 20
48.880531
 30
0.0
 10
14.679734
 20
48.860737
 30
0.0
 10
14.779351
 20
48.777519
 30
0.0
 10
14.585772
 20
48.726217
 30
0.0
 10
14.426391
 20
48.730503
 30
0.0
 10
14.267012
 20
48.726261
 30
0.0
 10
14.073363
 20
48.777464
 30
0.0
 10
14.172918
 20
48.860767
 30
0.0
 10
14.248111
 20
48.880531
 30
0.0
 10
14.335875
 20
48.899735
 30
0.0
 10
14.395832
 20
48.901448
 30
0.0
 10
14.426394
 20
48.902321
 30
0.0
 11
14.426394
 21
48.902321
 31
0.0
 11
14.518153
 21
48.896713
 31
0.0
 11
14.604912
 21
48.879859
 31
0.0
 11
14.681764
 21
48.851714
 31
0.0
 11
14.740473
 21
48.789787
 31
0.0
 11
14.648745
 21
48.745617
 31
0.0
 11
14.426394
 21
48.728768
 31
0.0
 11
14.204049
 21
48.745614
 31
0.0
 11
14.112233
 21
48.789782
 31
0.0
 11
14.170879
 21
48.851714
 31
0.0
 11
14.247772
 21
48.879862
 31
0.0
 11
14.334600
 21
48.896714
 31
0.0
 11
14.426394
 21
48.902321
 31
0.0
  0
LINE
  5
139
100
AcDbEntity
  8
Layer_1
 62
7
100
AcDbLine
 10
9.313161
 20
37.683832
 30
0.0
 11
8.735333
 21
36.424775
 31
0.0
  0
LINE
  5
13a
100
AcDbEntity
  8
Layer_1
 62
7
100
AcDbLine
 10
8.735333
 20
36.424775
 30
0.0
 11
8.589491
 21
37.351457
 31
0.0
  0
SPLINE
  5
13b
100
AcDbEntity
  8
Layer_1
 62
7
100
AcDbSpline
 70
0
 71
3
 72
22
 73
18
 74
16
 40
0.000000
 40
0.000000
 40
0.000000
 40
0.000000
 40
0.342803
 40
0.595067
 40
0.705650
 40
1.001054
 40
1.708581
 40
2.675209
 40
3.838808
 40
5.067245
 40
6.100088
 40
8.251217
 40
10.662843
 40
12.860127
 40
13.766343
 40
14.773869
 40
15.665692
 40
15.665692
 40
15.665692
 40
15.665692
 10
19.956445
 20
48.046664
 30
0.0
 10
19.989553
 20
47.936111
 30
0.0
 10
20.047025
 20
47.744203
 30
0.0
 10
20.100759
 20
47.525089
 30
0.0
 10
20.125799
 20
47.281924
 30
0.0
 10
19.634368
 20
47.239715
 30
0.0
 10
19.129298
 20
46.929340
 30
0.0
 10
18.194269
 20
46.632266
 30
0.0
 10
17.182236
 20
46.177621
 30
0.0
 10
16.161900
 20
45.658075
 30
0.0
 10
14.899471
 20
44.899113
 30
0.0
 10
13.499304
 20
43.649124
 30
0.0
 10
11.957544
 20
42.007063
 30
0.0
 10
10.840981
 20
40.536010
 30
0.0
 10
10.163384
 20
39.344146
 30
0.0
 10
9.717459
 20
38.521937
 30
0.0
 10
9.442340
 20
37.951619
 30
0.0
 10
9.313161
 20
37.683832
 30
0.0
 11
19.956445
 21
48.046664
 31
0.0
 11
20.051734
 21
47.717371
 31
0.0
 11
20.104864
 21
47.470765
 31
0.0
 11
20.104329
 21
47.360184
 31
0.0
 11
19.832339
 21
47.244924
 31
0.0
 11
19.173896
 21
46.985989
 31
0.0
 11
18.271529
 21
46.639430
 31
0.0
 11
17.203698
 21
46.177153
 31
0.0
 11
16.111511
 21
45.614851
 31
0.0
 11
15.231444
 21
45.074250
 31
0.0
 11
13.586958
 21
43.687520
 31
0.0
 11
11.940983
 21
41.924936
 31
0.0
 11
10.638139
 21
40.155569
 31
0.0
 11
10.182606
 21
39.372169
 31
0.0
 11
9.706601
 21
38.484177
 31
0.0
 11
9.313161
 21
37.683832
 31
0.0
  0
LINE
  5
13c
100
AcDbEntity
  8
Layer_1
 62
7
100
AcDbLine
 10
17.795791
 20
48.554923
 30
0.0
 11
19.751683
 21
48.688223
 31
0.0
  0
SPLINE
  5
13d
100
AcDbEntity
  8
Layer_1
 62
7
100
AcDbSpline
 70
0
 71
3
 72
13
 73
9
 74
7
 40
0.000000
 40
0.000000
 40
0.000000
 40
0.000000
 40
1.789462
 40
4.005115
 40
5.896339
 40
9.037930
 40
12.517652
 40
16.804448
 40
16.804448
 40
16.804448
 40
16.804448
 10
8.589491
 20
37.351457
 30
0.0
 10
8.550917
 20
37.947631
 30
0.0
 10
8.464580
 20
39.281970
 30
0.0
 10
8.649111
 20
41.242178
 30
0.0
 10
8.968325
 20
43.647989
 30
0.0
 10
10.497915
 20
46.206144
 30
0.0
 10
13.786328
 20
48.052922
 30
0.0
 10
16.369814
 20
48.376385
 30
0.0
 10
17.795791
 20
48.554923
 30
0.0
 11
8.589491
 21
37.351457
 31
0.0
 11
8.516024
 21
39.139410
 31
0.0
 11
8.674496
 21
41.349389
 31
0.0
 11
9.009663
 21
43.210676
 31
0.0
 11
10.618677
 21
45.908947
 31
0.0
 11
13.591634
 21
47.717260
 31
0.0
 11
17.795791
 21
48.554923
 31
0.0
  0
LINE
  5
13e
100
AcDbEntity
  8
Layer_1
 62
7
100
AcDbLine
 10
20.898442
 20
47.111520
 30
0.0
 11
20.898442
 21
47.111520
 31
0.0
  0
SPLINE
  5
13f
100
AcDbEntity
  8
Layer_1
 62
7
100
AcDbSpline
 70
0
 71
3
 72
22
 73
18
 74
16
 40
0.000000
 40
0.000000
 40
0.000000
 40
0.000000
 40
0.052096
 40
0.110881
 40
0.176750
 40
0.352433
 40
0.491423
 40
0.570887
 40
0.634841
 40
0.750276
 40
0.905297
 40
1.063069
 40
1.202009
 40
1.328025
 40
1.399592
 40
1.464839
 40
1.538693
 40
1.538693
 40
1.538693
 40
1.538693
 10
20.898442
 20
47.111520
 30
0.0
 10
20.915849
 20
47.111475
 30
0.0
 10
20.952900
 20
47.111377
 30
0.0
 10
21.010758
 20
47.097659
 30
0.0
 10
21.103596
 20
47.061051
 30
0.0
 10
21.218329
 20
46.997011
 30
0.0
 10
21.315412
 20
46.926949
 30
0.0
 10
21.398083
 20
46.841103
 30
0.0
 10
21.318636
 20
46.770568
 30
0.0
 10
21.212231
 20
46.752562
 30
0.0
 10
21.068618
 20
46.733999
 30
0.0
 10
20.916968
 20
46.761354
 30
0.0
 10
20.797423
 20
46.846979
 30
0.0
 10
20.753937
 20
46.959128
 30
0.0
 10
20.772470
 20
47.048864
 30
0.0
 10
20.826903
 20
47.100687
 30
0.0
 10
20.873631
 20
47.107763
 30
0.0
 10
20.898442
 20
47.111520
 30
0.0
 11
20.898442
 21
47.111520
 31
0.0
 11
20.950498
 21
47.109505
 31
0.0
 11
21.007934
 21
47.096981
 31
0.0
 11
21.069514
 21
47.073603
 31
0.0
 11
21.223980
 21
46.989907
 31
0.0
 11
21.334179
 21
46.905206
 31
0.0
 11
21.376221
 21
46.837775
 31
0.0
 11
21.334179
 21
46.789581
 31
0.0
 11
21.223980
 21
46.755211
 31
0.0
 11
21.069514
 21
46.742101
 31
0.0
 11
20.915085
 21
46.774407
 31
0.0
 11
20.804957
 21
46.859119
 31
0.0
 11
20.762954
 21
46.977930
 31
0.0
 11
20.779949
 21
47.047449
 31
0.0
 11
20.827052
 21
47.092598
 31
0.0
 11
20.898442
 21
47.111520
 31
0.0
  0
LINE
  5
140
100
AcDbEntity
  8
Layer_1
 62
7
100
AcDbLine
 10
21.979863
 20
46.288240
 30
0.0
 11
21.979863
 21
46.288240
 31
0.0
  0
SPLINE
  5
141
100
AcDbEntity
  8
Layer_1
 62
7
100
AcDbSpline
 70
0
 71
3
 72
25
 73
21
 74
19
 40
0.000000
 40
0.000000
 40
0.000000
 40
0.000000
 40
0.149474
 40
0.404028
 40
0.779015
 40
1.301429
 40
1.728792
 40
1.971238
 40
2.131578
 40
2.359997
 40
2.756935
 40
3.002492
 40
3.283598
 40
3.548439
 40
3.788625
 40
4.019245
 40
4.223182
 40
4.323858
 40
4.388149
 40
4.452383
 40
4.452383
 40
4.452383
 40
4.452383
 10
21.979863
 20
46.288240
 30
0.0
 10
22.029541
 20
46.282533
 30
0.0
 10
22.163820
 20
46.267107
 30
0.0
 10
22.405520
 20
46.165438
 30
0.0
 10
22.757155
 20
46.014138
 30
0.0
 10
23.158943
 20
45.829880
 30
0.0
 10
23.497133
 20
45.614876
 30
0.0
 10
23.751074
 20
45.512715
 30
0.0
 10
23.837608
 20
45.226137
 30
0.0
 10
23.456287
 20
45.355576
 30
0.0
 10
23.268965
 20
45.496480
 30
0.0
 10
22.992998
 20
45.658517
 30
0.0
 10
22.741173
 20
45.739429
 30
0.0
 10
22.479493
 20
45.760586
 30
0.0
 10
22.234192
 20
45.795403
 30
0.0
 10
22.035663
 20
45.915168
 30
0.0
 10
21.930384
 20
46.068491
 30
0.0
 10
21.899405
 20
46.185176
 30
0.0
 10
21.910997
 20
46.272426
 30
0.0
 10
21.956914
 20
46.282970
 30
0.0
 10
21.979863
 20
46.288240
 30
0.0
 11
21.979863
 21
46.288240
 31
0.0
 11
22.127675
 21
46.266014
 31
0.0
 11
22.367638
 21
46.181070
 31
0.0
 11
22.711846
 21
46.032288
 31
0.0
 11
23.182131
 21
45.804806
 31
0.0
 11
23.555650
 21
45.597146
 31
0.0
 11
23.751556
 21
45.454313
 31
0.0
 11
23.787113
 21
45.297965
 31
0.0
 11
23.560621
 21
45.327567
 31
0.0
 11
23.215877
 21
45.524319
 31
0.0
 11
23.001403
 21
45.643898
 31
0.0
 11
22.733869
 21
45.730191
 31
0.0
 11
22.471206
 21
45.764085
 31
0.0
 11
22.235808
 21
45.811806
 31
0.0
 11
22.039749
 21
45.933240
 31
0.0
 11
21.925463
 21
46.102146
 31
0.0
 11
21.904616
 21
46.200640
 31
0.0
 11
21.920863
 21
46.262844
 31
0.0
 11
21.979863
 21
46.288240
 31
0.0
  0
LINE
  5
142
100
AcDbEntity
  8
Layer_1
 62
7
100
AcDbLine
 10
13.918717
 20
29.024294
 30
0.0
 11
13.918571
 21
29.024294
 31
0.0
  0
SPLINE
  5
143
100
AcDbEntity
  8
Layer_1
 62
7
100
AcDbSpline
 70
0
 71
3
 72
16
 73
12
 74
10
 40
0.000000
 40
0.000000
 40
0.000000
 40
0.000000
 40
0.199919
 40
0.660351
 40
1.603283
 40
4.079332
 40
6.798046
 40
9.547960
 40
12.678946
 40
15.496418
 40
19.408850
 40
19.408850
 40
19.408850
 40
19.408850
 10
20.976905
 20
46.167630
 30
0.0
 10
21.046382
 20
46.131746
 30
0.0
 10
21.275871
 20
46.013219
 30
0.0
 10
20.637105
 20
45.521457
 30
0.0
 10
19.852276
 20
44.800477
 30
0.0
 10
18.240857
 20
43.289841
 30
0.0
 10
16.758302
 20
41.139823
 30
0.0
 10
15.468403
 20
38.560153
 30
0.0
 10
14.434325
 20
35.840863
 30
0.0
 10
13.907543
 20
32.575573
 30
0.0
 10
13.914609
 20
30.329847
 30
0.0
 10
13.918717
 20
29.024294
 30
0.0
 11
20.976905
 21
46.167630
 31
0.0
 11
21.140188
 21
46.052279
 31
0.0
 11
20.858963
 21
45.687710
 31
0.0
 11
20.146770
 21
45.069728
 31
0.0
 11
18.394185
 21
43.320653
 31
0.0
 11
16.813613
 21
41.108595
 31
0.0
 11
15.565569
 21
38.658205
 31
0.0
 11
14.504933
 21
35.712339
 31
0.0
 11
14.030288
 21
32.935135
 31
0.0
 11
13.918717
 21
29.024294
 31
0.0
  0
LINE
  5
144
100
AcDbEntity
  8
Layer_1
 62
7
100
AcDbLine
 10
10.810961
 20
30.091131
 30
0.0
 11
9.837609
 21
32.315084
 31
0.0
  0
LINE
  5
145
100
AcDbEntity
  8
Layer_1
 62
7
100
AcDbLine
 10
9.837609
 20
32.315084
 30
0.0
 11
10.104209
 21
33.853721
 31
0.0
  0
SPLINE
  5
146
100
AcDbEntity
  8
Layer_1
 62
7
100
AcDbSpline
 70
0
 71
3
 72
16
 73
12
 74
10
 40
0.000000
 40
0.000000
 40
0.000000
 40
0.000000
 40
2.115334
 40
3.623062
 40
4.197198
 40
4.452823
 40
5.120280
 40
6.054997
 40
7.317080
 40
8.848087
 40
10.320887
 40
10.320887
 40
10.320887
 40
10.320887
 10
13.918571
 20
29.024294
 30
0.0
 10
13.935297
 20
28.264297
 30
0.0
 10
13.963943
 20
26.962604
 30
0.0
 10
13.821665
 20
26.014210
 30
0.0
 10
14.011867
 20
24.625422
 30
0.0
 10
13.672306
 20
25.209168
 30
0.0
 10
13.346437
 20
25.626838
 30
0.0
 10
12.774273
 20
26.445246
 30
0.0
 10
12.124934
 20
27.484668
 30
0.0
 10
11.441474
 20
28.739783
 30
0.0
 10
11.018399
 20
29.646539
 30
0.0
 10
10.810961
 20
30.091131
 30
0.0
 11
13.918571
 21
29.024294
 31
0.0
 11
13.917116
 21
26.908961
 31
0.0
 11
13.915882
 21
25.401233
 31
0.0
 11
13.915362
 21
24.827098
 31
0.0
 11
13.769345
 21
25.036915
 31
0.0
 11
13.386544
 21
25.583690
 31
0.0
 11
12.849838
 21
26.348963
 31
0.0
 11
12.179746
 21
27.418462
 31
0.0
 11
11.447263
 21
28.762876
 31
0.0
 11
10.810961
 21
30.091131
 31
0.0
  0
LINE
  5
147
100
AcDbEntity
  8
Layer_1
 62
7
100
AcDbLine
 10
20.976904
 20
46.167630
 30
0.0
 11
20.976905
 21
46.167630
 31
0.0
  0
SPLINE
  5
148
100
AcDbEntity
  8
Layer_1
 62
7
100
AcDbSpline
 70
0
 71
3
 72
16
 73
12
 74
10
 40
0.000000
 40
0.000000
 40
0.000000
 40
0.000000
 40
1.961161
 40
4.064620
 40
6.005723
 40
9.138546
 40
12.288669
 40
15.104053
 40
16.185765
 40
16.946563
 40
17.396667
 40
17.396667
 40
17.396667
 40
17.396667
 10
10.104209
 20
33.853721
 30
0.0
 10
10.245887
 20
34.492603
 30
0.0
 10
10.539523
 20
35.816724
 30
0.0
 10
11.237121
 20
37.698307
 30
0.0
 10
12.258051
 20
39.868682
 30
0.0
 10
13.936667
 20
42.068101
 30
0.0
 10
16.179495
 20
44.129631
 30
0.0
 10
18.237334
 20
45.323885
 30
0.0
 10
19.706449
 20
45.823940
 30
0.0
 10
20.428997
 20
46.081917
 30
0.0
 10
20.828431
 20
46.144403
 30
0.0
 10
20.976904
 20
46.167630
 30
0.0
 11
10.104209
 21
33.853721
 31
0.0
 11
10.570796
 21
35.758569
 31
0.0
 11
11.284517
 21
37.737241
 31
0.0
 11
12.134481
 21
39.482361
 31
0.0
 11
13.999368
 21
41.999656
 31
0.0
 11
16.337694
 21
44.110463
 31
0.0
 11
18.791164
 21
45.491358
 31
0.0
 11
19.807514
 21
45.861674
 31
0.0
 11
20.533944
 21
46.087757
 31
0.0
 11
20.976904
 21
46.167630
 31
0.0
  0
LINE
  5
149
100
AcDbEntity
  8
Layer_1
 62
7
100
AcDbLine
 10
22.874752
 20
44.947512
 30
0.0
 11
23.413056
 21
44.786502
 31
0.0
  0
LINE
  5
14a
100
AcDbEntity
  8
Layer_1
 62
7
100
AcDbLine
 10
23.413056
 20
44.786502
 30
0.0
 11
22.689677
 21
43.657536
 31
0.0
  0
SPLINE
  5
14b
100
AcDbEntity
  8
Layer_1
 62
7
100
AcDbSpline
 70
0
 71
3
 72
10
 73
6
 74
4
 40
0.000000
 40
0.000000
 40
0.000000
 40
0.000000
 40
0.102666
 40
0.204369
 40
0.306344
 40
0.306344
 40
0.306344
 40
0.306344
 10
22.572566
 20
44.991412
 30
0.0
 10
22.606795
 20
44.990512
 30
0.0
 10
22.674931
 20
44.988722
 30
0.0
 10
22.776299
 20
44.973932
 30
0.0
 10
22.841905
 20
44.956326
 30
0.0
 10
22.874752
 20
44.947512
 30
0.0
 11
22.572566
 21
44.991412
 31
0.0
 11
22.675123
 21
44.986675
 31
0.0
 11
22.775763
 21
44.972007
 31
0.0
 11
22.874752
 21
44.947512
 31
0.0
  0
LINE
  5
14c
100
AcDbEntity
  8
Layer_1
 62
7
100
AcDbLine
 10
22.572566
 20
44.991412
 30
0.0
 11
22.572566
 21
44.991412
 31
0.0
  0
SPLINE
  5
14d
100
AcDbEntity
  8
Layer_1
 62
7
100
AcDbSpline
 70
0
 71
3
 72
28
 73
24
 74
22
 40
0.000000
 40
0.000000
 40
0.000000
 40
0.000000
 40
2.678405
 40
5.530676
 40
8.866804
 40
12.880891
 40
17.215459
 40
21.549962
 40
22.468180
 40
23.111215
 40
23.346230
 40
24.460299
 40
26.191213
 40
27.596649
 40
29.197257
 40
30.305279
 40
31.787109
 40
38.072501
 40
43.946625
 40
49.665969
 40
51.554586
 40
52.824588
 40
53.656836
 40
53.656836
 40
53.656836
 40
53.656836
 10
22.689677
 20
43.657536
 30
0.0
 10
22.246324
 20
42.879142
 30
0.0
 10
21.330836
 20
41.271825
 30
0.0
 10
20.531540
 20
38.401617
 30
0.0
 10
20.048074
 20
35.030411
 30
0.0
 10
19.997938
 20
31.126339
 30
0.0
 10
20.437356
 20
26.901652
 30
0.0
 10
21.161170
 20
23.808872
 30
0.0
 10
21.674330
 20
21.882247
 30
0.0
 10
21.820664
 20
21.334624
 30
0.0
 10
21.864482
 20
20.576260
 30
0.0
 10
20.338128
 20
21.557040
 30
0.0
 10
19.267446
 20
21.698478
 30
0.0
 10
17.750723
 20
22.399425
 30
0.0
 10
16.517930
 20
22.995311
 30
0.0
 10
15.632918
 20
24.156004
 30
0.0
 10
15.285811
 20
27.153145
 30
0.0
 10
15.041430
 20
31.686244
 30
0.0
 10
16.446259
 20
37.575582
 30
0.0
 10
18.726846
 20
41.547870
 30
0.0
 10
20.648680
 20
43.761131
 30
0.0
 10
21.610031
 20
44.748287
 30
0.0
 10
22.299583
 20
44.922459
 30
0.0
 10
22.572566
 20
44.991412
 30
0.0
 11
22.689677
 21
43.657536
 31
0.0
 11
21.457397
 21
41.279440
 31
0.0
 11
20.631367
 21
38.549399
 31
0.0
 11
20.145457
 21
35.248847
 31
0.0
 11
20.074461
 21
31.235389
 31
0.0
 11
20.525896
 21
26.924393
 31
0.0
 11
21.460372
 21
22.691820
 31
0.0
 11
21.695272
 21
21.804157
 31
0.0
 11
21.825898
 21
21.174529
 31
0.0
 11
21.823957
 21
20.939522
 31
0.0
 11
20.750121
 21
21.236211
 31
0.0
 11
19.120224
 21
21.818876
 31
0.0
 11
17.826709
 21
22.368486
 31
0.0
 11
16.453991
 21
23.191645
 31
0.0
 11
15.793443
 21
24.081246
 31
0.0
 11
15.479668
 21
25.529474
 31
0.0
 11
15.347556
 21
31.813477
 31
0.0
 11
16.728017
 21
37.523088
 31
0.0
 11
19.578276
 21
42.481608
 31
0.0
 11
20.810164
 21
43.913155
 31
0.0
 11
21.782320
 21
44.730356
 31
0.0
 11
22.572566
 21
44.991412
 31
0.0
  0
LINE
  5
14e
100
AcDbEntity
  8
Layer_1
 62
7
100
AcDbLine
 10
30.670463
 20
22.245979
 30
0.0
 11
31.920479
 21
20.727030
 31
0.0
  0
LINE
  5
14f
100
AcDbEntity
  8
Layer_1
 62
7
100
AcDbLine
 10
31.920479
 20
20.727030
 30
0.0
 11
34.364798
 21
20.634711
 31
0.0
  0
SPLINE
  5
150
100
AcDbEntity
  8
Layer_1
 62
7
100
AcDbSpline
 70
0
 71
3
 72
10
 73
6
 74
4
 40
0.000000
 40
0.000000
 40
0.000000
 40
0.000000
 40
3.608190
 40
6.979242
 40
10.287931
 40
10.287931
 40
10.287931
 40
10.287931
 10
26.611088
 20
31.578725
 30
0.0
 10
26.854880
 20
30.399366
 30
0.0
 10
27.326440
 20
28.118160
 30
0.0
 10
28.690517
 20
24.932422
 30
0.0
 10
30.014602
 20
23.135869
 30
0.0
 10
30.670463
 20
22.245979
 30
0.0
 11
26.611088
 21
31.578725
 31
0.0
 11
27.463758
 21
28.072731
 31
0.0
 11
28.810446
 21
24.982356
 31
0.0
 11
30.670463
 21
22.245979
 31
0.0
  0
SPLINE
  5
151
100
AcDbEntity
  8
Layer_1
 62
7
100
AcDbSpline
 70
0
 71
3
 72
10
 73
6
 74
4
 40
0.000000
 40
0.000000
 40
0.000000
 40
0.000000
 40
1.929804
 40
2.290900
 40
4.211899
 40
4.211899
 40
4.211899
 40
4.211899
 10
34.364798
 20
20.634711
 30
0.0
 10
35.040299
 20
20.387596
 30
0.0
 10
35.842198
 20
20.094242
 30
0.0
 10
37.051680
 20
21.097947
 30
0.0
 10
36.032066
 20
21.616832
 30
0.0
 10
35.173785
 20
22.053613
 30
0.0
 11
34.364798
 21
20.634711
 31
0.0
 11
36.289087
 21
20.488920
 31
0.0
 11
36.561806
 21
20.725594
 31
0.0
 11
35.173785
 21
22.053613
 31
0.0
  0
SPLINE
  5
152
100
AcDbEntity
  8
Layer_1
 62
7
100
AcDbSpline
 70
0
 71
3
 72
10
 73
6
 74
4
 40
0.000000
 40
0.000000
 40
0.000000
 40
0.000000
 40
2.200293
 40
4.324687
 40
6.322643
 40
6.322643
 40
6.322643
 40
6.322643
 10
35.173785
 20
22.053613
 30
0.0
 10
34.752628
 20
22.655198
 30
0.0
 10
33.924843
 20
23.837615
 30
0.0
 10
32.970623
 20
25.722016
 30
0.0
 10
32.395863
 20
26.969674
 30
0.0
 10
32.117297
 20
27.574370
 30
0.0
 11
35.173785
 21
22.053613
 31
0.0
 11
33.955640
 21
23.885937
 31
0.0
 11
32.964126
 21
25.764754
 31
0.0
 11
32.117297
 21
27.574370
 31
0.0
  0
SPLINE
  5
153
100
AcDbEntity
  8
Layer_1
 62
7
100
AcDbSpline
 70
0
 71
3
 72
10
 73
6
 74
4
 40
0.000000
 40
0.000000
 40
0.000000
 40
0.000000
 40
0.242645
 40
0.503656
 40
0.778995
 40
0.778995
 40
0.778995
 40
0.778995
 10
32.117297
 20
27.574370
 30
0.0
 10
32.040345
 20
27.599277
 30
0.0
 10
31.880617
 20
27.650977
 30
0.0
 10
31.635513
 20
27.736854
 30
0.0
 10
31.468768
 20
27.801375
 30
0.0
 10
31.383168
 20
27.834497
 30
0.0
 11
32.117297
 21
27.574370
 31
0.0
 11
31.886733
 21
27.649979
 31
0.0
 11
31.640498
 21
27.736552
 31
0.0
 11
31.383168
 21
27.834497
 31
0.0
  0
LINE
  5
154
100
AcDbEntity
  8
Layer_1
 62
7
100
AcDbLine
 10
34.855849
 20
21.399071
 30
0.0
 11
34.068591
 21
21.413227
 31
0.0
  0
LINE
  5
155
100
AcDbEntity
  8
Layer_1
 62
7
100
AcDbLine
 10
34.068591
 20
21.413227
 30
0.0
 11
32.164912
 21
21.413227
 31
0.0
  0
LINE
  5
156
100
AcDbEntity
  8
Layer_1
 62
7
100
AcDbLine
 10
32.164912
 20
21.413227
 30
0.0
 11
31.012027
 21
22.846128
 31
0.0
  0
SPLINE
  5
157
100
AcDbEntity
  8
Layer_1
 62
7
100
AcDbSpline
 70
0
 71
3
 72
10
 73
6
 74
4
 40
0.000000
 40
0.000000
 40
0.000000
 40
0.000000
 40
2.242466
 40
4.710629
 40
7.327998
 40
7.327998
 40
7.327998
 40
7.327998
 10
31.383168
 20
27.834497
 30
0.0
 10
31.683063
 20
27.150006
 30
0.0
 10
32.313037
 20
25.712131
 30
0.0
 10
33.403254
 20
23.520000
 30
0.0
 10
34.362271
 20
22.119742
 30
0.0
 10
34.855849
 20
21.399071
 30
0.0
 11
31.383168
 21
27.834497
 31
0.0
 11
32.298909
 21
25.787530
 31
0.0
 11
33.428736
 21
23.593147
 31
0.0
 11
34.855849
 21
21.399071
 31
0.0
  0
SPLINE
  5
158
100
AcDbEntity
  8
Layer_1
 62
7
100
AcDbSpline
 70
0
 71
3
 72
10
 73
6
 74
4
 40
0.000000
 40
0.000000
 40
0.000000
 40
0.000000
 40
2.768905
 40
5.635515
 40
8.630041
 40
8.630041
 40
8.630041
 40
8.630041
 10
31.012027
 20
22.846128
 30
0.0
 10
30.470330
 20
23.595313
 30
0.0
 10
29.367823
 20
25.120120
 30
0.0
 10
28.158179
 20
27.754003
 30
0.0
 10
27.646014
 20
29.641000
 30
0.0
 10
27.384343
 20
30.605090
 30
0.0
 11
31.012027
 21
22.846128
 31
0.0
 11
29.462400
 21
25.140794
 31
0.0
 11
28.250112
 21
27.738449
 31
0.0
 11
27.384343
 21
30.605090
 31
0.0
  0
LINE
  5
159
100
AcDbEntity
  8
Layer_1
 62
7
100
AcDbLine
 10
26.611088
 20
31.578733
 30
0.0
 11
26.611088
 21
31.578725
 31
0.0
  0
SPLINE
  5
15a
100
AcDbEntity
  8
Layer_1
 62
7
100
AcDbSpline
 70
0
 71
3
 72
10
 73
6
 74
4
 40
0.000000
 40
0.000000
 40
0.000000
 40
0.000000
 40
0.415903
 40
0.830483
 40
1.243896
 40
1.243896
 40
1.243896
 40
1.243896
 10
27.384343
 20
30.605090
 30
0.0
 10
27.293462
 20
30.709793
 30
0.0
 10
27.111989
 20
30.918866
 30
0.0
 10
26.853975
 20
31.243676
 30
0.0
 10
26.691974
 20
31.467152
 30
0.0
 10
26.611088
 20
31.578733
 30
0.0
 11
27.384343
 21
30.605090
 31
0.0
 11
27.114010
 21
30.921151
 31
0.0
 11
26.856176
 21
31.245803
 31
0.0
 11
26.611088
 21
31.578733
 31
0.0
  0
SPLINE
  5
15b
100
AcDbEntity
  8
Layer_1
 62
7
100
AcDbSpline
 70
0
 71
3
 72
19
 73
15
 74
13
 40
0.000000
 40
0.000000
 40
0.000000
 40
0.000000
 40
0.034775
 40
0.069344
 40
0.103071
 40
0.117629
 40
0.132559
 40
0.147582
 40
0.160658
 40
0.173394
 40
0.186026
 40
0.635749
 40
1.111167
 40
1.571908
 40
1.571908
 40
1.571908
 40
1.571908
 10
41.266592
 20
28.996166
 30
0.0
 10
41.257234
 20
28.989323
 30
0.0
 10
41.238574
 20
28.975677
 30
0.0
 10
41.209994
 20
28.956597
 30
0.0
 10
41.187511
 20
28.940555
 30
0.0
 10
41.170426
 20
28.928218
 30
0.0
 10
41.158102
 20
28.919953
 30
0.0
 10
41.146334
 20
28.911756
 30
0.0
 10
41.134989
 20
28.904224
 30
0.0
 10
41.123902
 20
28.897791
 30
0.0
 10
40.986387
 20
28.819268
 30
0.0
 10
40.715680
 20
28.662936
 30
0.0
 10
40.314172
 20
28.434471
 30
0.0
 10
40.043660
 20
28.278904
 30
0.0
 10
39.910525
 20
28.202340
 30
0.0
 11
41.266592
 21
28.996166
 31
0.0
 11
41.238376
 21
28.975840
 31
0.0
 11
41.209864
 21
28.956292
 31
0.0
 11
41.182335
 21
28.936807
 31
0.0
 11
41.170480
 21
28.928359
 31
0.0
 11
41.158153
 21
28.919935
 31
0.0
 11
41.145767
 21
28.911434
 31
0.0
 11
41.134825
 21
28.904275
 31
0.0
 11
41.123865
 21
28.897787
 31
0.0
 11
41.112903
 21
28.891510
 31
0.0
 11
40.722869
 21
28.667625
 31
0.0
 11
40.310102
 21
28.431732
 31
0.0
 11
39.910525
 21
28.202340
 31
0.0
  0
SPLINE
  5
15c
100
AcDbEntity
  8
Layer_1
 62
7
100
AcDbSpline
 70
0
 71
3
 72
13
 73
9
 74
7
 40
0.000000
 40
0.000000
 40
0.000000
 40
0.000000
 40
0.535060
 40
0.866827
 40
1.005939
 40
1.435102
 40
1.941493
 40
2.381500
 40
2.381500
 40
2.381500
 40
2.381500
 10
39.910525
 20
28.202340
 30
0.0
 10
39.839598
 20
28.052645
 30
0.0
 10
39.724693
 20
27.810131
 30
0.0
 10
39.581500
 20
27.405547
 30
0.0
 10
39.255683
 20
27.482653
 30
0.0
 10
39.014498
 20
27.772941
 30
0.0
 10
38.474272
 20
27.690456
 30
0.0
 10
38.266498
 20
27.449415
 30
0.0
 10
38.169898
 20
27.337348
 30
0.0
 11
39.910525
 21
28.202340
 31
0.0
 11
39.694511
 21
27.712822
 31
0.0
 11
39.502731
 21
27.442102
 31
0.0
 11
39.365367
 21
27.464086
 31
0.0
 11
38.998697
 21
27.687097
 31
0.0
 11
38.495127
 21
27.633712
 31
0.0
 11
38.169898
 21
27.337348
 31
0.0
  0
SPLINE
  5
15d
100
AcDbEntity
  8
Layer_1
 62
7
100
AcDbSpline
 70
0
 71
3
 72
10
 73
6
 74
4
 40
0.000000
 40
0.000000
 40
0.000000
 40
0.000000
 40
1.249555
 40
1.789781
 40
2.837167
 40
2.837167
 40
2.837167
 40
2.837167
 10
38.169898
 20
27.337348
 30
0.0
 10
37.987170
 20
26.937028
 30
0.0
 10
37.725443
 20
26.363636
 30
0.0
 10
36.629825
 20
26.128497
 30
0.0
 10
36.476014
 20
26.760160
 30
0.0
 10
36.374541
 20
27.176883
 30
0.0
 11
38.169898
 21
27.337348
 31
0.0
 11
37.412401
 21
26.343574
 31
0.0
 11
36.878851
 21
26.258903
 31
0.0
 11
36.374541
 21
27.176883
 31
0.0
  0
SPLINE
  5
15e
100
AcDbEntity
  8
Layer_1
 62
7
100
AcDbSpline
 70
0
 71
3
 72
13
 73
9
 74
7
 40
0.000000
 40
0.000000
 40
0.000000
 40
0.000000
 40
0.406606
 40
0.809546
 40
1.173085
 40
1.648642
 40
2.086440
 40
2.520307
 40
2.520307
 40
2.520307
 40
2.520307
 10
36.374541
 20
27.176883
 30
0.0
 10
36.240048
 20
27.159503
 30
0.0
 10
35.972274
 20
27.124898
 30
0.0
 10
35.581001
 20
27.112560
 30
0.0
 10
35.167037
 20
27.112660
 30
0.0
 10
34.741468
 20
27.119965
 30
0.0
 10
34.292572
 20
27.141195
 30
0.0
 10
34.004183
 20
27.177456
 30
0.0
 10
33.860639
 20
27.195505
 30
0.0
 11
36.374541
 21
27.176883
 31
0.0
 11
35.970496
 21
27.131323
 31
0.0
 11
35.567911
 21
27.114390
 31
0.0
 11
35.204374
 21
27.113540
 31
0.0
 11
34.728904
 21
27.122667
 31
0.0
 11
34.291779
 21
27.146939
 31
0.0
 11
33.860639
 21
27.195505
 31
0.0
  0
SPLINE
  5
15f
100
AcDbEntity
  8
Layer_1
 62
7
100
AcDbSpline
 70
0
 71
3
 72
16
 73
12
 74
10
 40
0.000000
 40
0.000000
 40
0.000000
 40
0.000000
 40
0.176713
 40
0.439461
 40
0.616127
 40
4.812019
 40
7.504300
 40
9.185517
 40
9.890916
 40
10.540989
 40
10.920178
 40
10.920178
 40
10.920178
 40
10.920178
 10
33.860639
 20
27.195505
 30
0.0
 10
33.875172
 20
27.138355
 30
0.0
 10
33.911312
 20
26.996233
 30
0.0
 10
33.929160
 20
26.790716
 30
0.0
 10
34.336222
 20
25.295193
 30
0.0
 10
36.135983
 20
23.570311
 30
0.0
 10
37.577586
 20
21.105245
 30
0.0
 10
38.046219
 20
19.439896
 30
0.0
 10
38.088957
 20
18.445100
 30
0.0
 10
38.167046
 20
17.830801
 30
0.0
 10
38.432867
 20
17.601076
 30
0.0
 10
38.530797
 20
17.516443
 30
0.0
 11
33.860639
 21
27.195505
 31
0.0
 11
33.900451
 21
27.023334
 31
0.0
 11
33.940899
 21
26.763719
 31
0.0
 11
33.984454
 21
26.592506
 31
0.0
 11
36.297884
 21
23.091999
 31
0.0
 11
37.621788
 21
20.747718
 31
0.0
 11
38.043649
 21
19.120289
 31
0.0
 11
38.101094
 21
18.417233
 31
0.0
 11
38.266795
 21
17.788633
 31
0.0
 11
38.530797
 21
17.516443
 31
0.0
  0
SPLINE
  5
160
100
AcDbEntity
  8
Layer_1
 62
7
100
AcDbSpline
 70
0
 71
3
 72
13
 73
9
 74
7
 40
0.000000
 40
0.000000
 40
0.000000
 40
0.000000
 40
0.907315
 40
2.057827
 40
3.220572
 40
3.919208
 40
4.324485
 40
4.846837
 40
4.846837
 40
4.846837
 40
4.846837
 10
38.530797
 20
17.516443
 30
0.0
 10
38.649712
 20
17.796683
 30
0.0
 10
38.919416
 20
18.432279
 30
0.0
 10
38.974329
 20
19.520236
 30
0.0
 10
38.987988
 20
20.518426
 30
0.0
 10
39.033540
 20
21.277240
 30
0.0
 10
38.905348
 20
21.813727
 30
0.0
 10
38.729432
 20
22.071230
 30
0.0
 10
38.630373
 20
22.216232
 30
0.0
 11
38.530797
 21
17.516443
 31
0.0
 11
38.841932
 21
18.368743
 31
0.0
 11
38.966959
 21
19.512442
 31
0.0
 11
39.001396
 21
20.674677
 31
0.0
 11
38.995697
 21
21.373289
 31
0.0
 11
38.894956
 21
21.765846
 31
0.0
 11
38.630373
 21
22.216232
 31
0.0
  0
SPLINE
  5
161
100
AcDbEntity
  8
Layer_1
 62
7
100
AcDbSpline
 70
0
 71
3
 72
31
 73
27
 74
25
 40
0.000000
 40
0.000000
 40
0.000000
 40
0.000000
 40
1.582970
 40
2.554049
 40
2.828475
 40
3.076367
 40
3.230735
 40
3.457483
 40
3.634057
 40
3.852455
 40
4.386937
 40
5.281024
 40
5.756800
 40
6.201575
 40
6.473045
 40
6.682375
 40
7.342171
 40
7.895813
 40
8.370444
 40
8.670885
 40
9.111823
 40
9.504345
 40
10.130722
 40
11.538415
 40
13.000190
 40
14.623368
 40
14.623368
 40
14.623368
 40
14.623368
 10
38.630373
 20
22.216232
 30
0.0
 10
38.411144
 20
22.707084
 30
0.0
 10
38.057428
 20
23.499051
 30
0.0
 10
37.518036
 20
24.211217
 30
0.0
 10
37.641014
 20
24.899705
 30
0.0
 10
37.902364
 20
24.697877
 30
0.0
 10
38.107582
 20
24.840414
 30
0.0
 10
38.088018
 20
25.021218
 30
0.0
 10
38.139809
 20
25.299967
 30
0.0
 10
38.470260
 20
25.003136
 30
0.0
 10
38.748391
 20
24.627836
 30
0.0
 10
39.133614
 20
24.143175
 30
0.0
 10
39.873203
 20
23.828136
 30
0.0
 10
39.939841
 20
24.323343
 30
0.0
 10
39.788055
 20
24.734503
 30
0.0
 10
40.283426
 20
24.586132
 30
0.0
 10
40.576360
 20
24.295421
 30
0.0
 10
41.080174
 20
24.000843
 30
0.0
 10
41.474434
 20
23.803299
 30
0.0
 10
41.852161
 20
23.664191
 30
0.0
 10
42.308959
 20
23.786585
 30
0.0
 10
42.303218
 20
24.368227
 30
0.0
 10
41.712167
 20
24.942547
 30
0.0
 10
41.047709
 20
25.932284
 30
0.0
 10
40.889575
 20
27.478903
 30
0.0
 10
41.150943
 20
28.477079
 30
0.0
 10
41.288465
 20
29.002278
 30
0.0
 11
38.630373
 21
22.216232
 31
0.0
 11
37.921464
 21
23.631591
 31
0.0
 11
37.591914
 21
24.545041
 31
0.0
 11
37.687012
 21
24.802462
 31
0.0
 11
37.929324
 21
24.750163
 31
0.0
 11
38.061374
 21
24.830114
 31
0.0
 11
38.101349
 21
25.053311
 31
0.0
 11
38.157814
 21
25.220614
 31
0.0
 11
38.346056
 21
25.109877
 31
0.0
 11
38.694344
 21
24.704455
 31
0.0
 11
39.338026
 21
24.083919
 31
0.0
 11
39.799364
 21
23.967600
 31
0.0
 11
39.888795
 21
24.403291
 31
0.0
 11
39.869571
 21
24.674079
 31
0.0
 11
40.076269
 21
24.640986
 31
0.0
 11
40.631425
 21
24.284429
 31
0.0
 11
41.103239
 21
23.994756
 31
0.0
 11
41.530162
 21
23.787364
 31
0.0
 11
41.819748
 21
23.707333
 31
0.0
 11
42.233570
 21
23.859575
 31
0.0
 11
42.267901
 21
24.250592
 31
0.0
 11
41.912794
 21
24.766585
 31
0.0
 11
41.164940
 21
25.959193
 31
0.0
 11
40.978320
 21
27.409007
 31
0.0
 11
41.288465
 21
29.002278
 31
0.0
  0
LINE
  5
162
100
AcDbEntity
  8
Layer_1
 62
7
100
AcDbLine
 10
41.266584
 20
28.996166
 30
0.0
 11
41.266592
 21
28.996166
 31
0.0
  0
SPLINE
  5
163
100
AcDbEntity
  8
Layer_1
 62
7
100
AcDbSpline
 70
0
 71
3
 72
10
 73
6
 74
4
 40
0.000000
 40
0.000000
 40
0.000000
 40
0.000000
 40
0.007720
 40
0.018040
 40
0.024394
 40
0.024394
 40
0.024394
 40
0.024394
 10
41.288465
 20
29.002278
 30
0.0
 10
41.285953
 20
29.003438
 30
0.0
 10
41.280085
 20
29.006148
 30
0.0
 10
41.273043
 20
29.000033
 30
0.0
 10
41.268366
 20
28.997233
 30
0.0
 10
41.266584
 20
28.996166
 30
0.0
 11
41.288465
 21
29.002278
 31
0.0
 11
41.281051
 21
29.004433
 31
0.0
 11
41.271951
 21
28.999568
 31
0.0
 11
41.266584
 21
28.996166
 31
0.0
  0
SPLINE
  5
164
100
AcDbEntity
  8
Layer_1
 62
7
100
AcDbSpline
 70
0
 71
3
 72
22
 73
18
 74
16
 40
0.000000
 40
0.000000
 40
0.000000
 40
0.000000
 40
0.031930
 40
0.082944
 40
0.167101
 40
0.653543
 40
1.092687
 40
1.393153
 40
1.742304
 40
2.007962
 40
2.713674
 40
3.007852
 40
3.481432
 40
3.671276
 40
3.957158
 40
4.297112
 40
4.641712
 40
4.641712
 40
4.641712
 40
4.641712
 10
40.325286
 20
26.517290
 30
0.0
 10
40.336170
 20
26.514981
 30
0.0
 10
40.364443
 20
26.508983
 30
0.0
 10
40.388722
 20
26.452052
 30
0.0
 10
40.438973
 20
26.257044
 30
0.0
 10
40.514306
 20
25.929611
 30
0.0
 10
40.656002
 20
25.522103
 30
0.0
 10
40.775267
 20
25.246630
 30
0.0
 10
41.087021
 20
24.801902
 30
0.0
 10
40.545226
 20
25.207793
 30
0.0
 10
40.488701
 20
25.652387
 30
0.0
 10
39.876918
 20
25.602720
 30
0.0
 10
39.833059
 20
25.291512
 30
0.0
 10
39.637420
 20
24.873745
 30
0.0
 10
39.655861
 20
25.354138
 30
0.0
 10
39.536250
 20
25.590470
 30
0.0
 10
39.441591
 20
25.807279
 30
0.0
 10
39.393940
 20
25.916419
 30
0.0
 11
40.325286
 21
26.517290
 31
0.0
 11
40.355534
 21
26.507064
 31
0.0
 11
40.382666
 21
26.463863
 31
0.0
 11
40.406376
 21
26.383115
 31
0.0
 11
40.528307
 21
25.912203
 31
0.0
 11
40.670458
 21
25.496702
 31
0.0
 11
40.802047
 21
25.226584
 31
0.0
 11
40.966568
 21
24.918625
 31
0.0
 11
40.752339
 21
25.075724
 31
0.0
 11
40.285763
 21
25.605192
 31
0.0
 11
39.993044
 21
25.575934
 31
0.0
 11
39.765877
 21
25.160394
 31
0.0
 11
39.674538
 21
24.993968
 31
0.0
 11
39.635590
 21
25.277185
 31
0.0
 11
39.534287
 21
25.601694
 31
0.0
 11
39.393940
 21
25.916419
 31
0.0
  0
LINE
  5
165
100
AcDbEntity
  8
Layer_1
 62
7
100
AcDbLine
 10
40.325286
 20
26.517290
 30
0.0
 11
40.325286
 21
26.517290
 31
0.0
  0
SPLINE
  5
166
100
AcDbEntity
  8
Layer_1
 62
7
100
AcDbSpline
 70
0
 71
3
 72
13
 73
9
 74
7
 40
0.000000
 40
0.000000
 40
0.000000
 40
0.000000
 40
0.154830
 40
0.298773
 40
0.425130
 40
0.697274
 40
1.131276
 40
1.408347
 40
1.408347
 40
1.408347
 40
1.408347
 10
39.393940
 20
25.916419
 30
0.0
 10
39.436082
 20
25.885890
 30
0.0
 10
39.517403
 20
25.826978
 30
0.0
 10
39.641294
 20
25.766640
 30
0.0
 10
39.820087
 20
25.676846
 30
0.0
 10
40.029331
 20
25.963959
 30
0.0
 10
40.119253
 20
26.252124
 30
0.0
 10
40.267515
 20
26.442939
 30
0.0
 10
40.325286
 20
26.517290
 30
0.0
 11
39.393940
 21
25.916419
 31
0.0
 11
39.521910
 21
25.829264
 31
0.0
 11
39.649346
 21
25.762335
 31
0.0
 11
39.768899
 21
25.721429
 31
0.0
 11
39.971880
 21
25.902705
 31
0.0
 11
40.164610
 21
26.291566
 31
0.0
 11
40.325286
 21
26.517290
 31
0.0
  0
SPLINE
  5
167
100
AcDbEntity
  8
Layer_1
 62
7
100
AcDbSpline
 70
0
 71
3
 72
10
 73
6
 74
4
 40
0.000000
 40
0.000000
 40
0.000000
 40
0.000000
 40
0.051797
 40
0.125126
 40
0.226363
 40
0.226363
 40
0.226363
 40
0.226363
 10
38.845863
 20
26.454724
 30
0.0
 10
38.863081
 20
26.451418
 30
0.0
 10
38.904674
 20
26.443431
 30
0.0
 10
38.962361
 20
26.390539
 30
0.0
 10
38.999857
 20
26.346610
 30
0.0
 10
39.021602
 20
26.321134
 30
0.0
 11
38.845863
 21
26.454724
 31
0.0
 11
38.895854
 21
26.441164
 31
0.0
 11
38.954015
 21
26.396506
 31
0.0
 11
39.021602
 21
26.321134
 31
0.0
  0
LINE
  5
168
100
AcDbEntity
  8
Layer_1
 62
7
100
AcDbLine
 10
38.922576
 20
26.158809
 30
0.0
 11
38.806194
 21
25.571357
 31
0.0
  0
LINE
  5
169
100
AcDbEntity
  8
Layer_1
 62
7
100
AcDbLine
 10
38.806194
 20
25.571357
 30
0.0
 11
38.572554
 21
25.996342
 31
0.0
  0
SPLINE
  5
16a
100
AcDbEntity
  8
Layer_1
 62
7
100
AcDbSpline
 70
0
 71
3
 72
10
 73
6
 74
4
 40
0.000000
 40
0.000000
 40
0.000000
 40
0.000000
 40
0.047152
 40
0.109883
 40
0.198733
 40
0.198733
 40
0.198733
 40
0.198733
 10
39.021602
 20
26.321134
 30
0.0
 10
39.007085
 20
26.314259
 30
0.0
 10
38.973255
 20
26.298239
 30
0.0
 10
38.941143
 20
26.236160
 30
0.0
 10
38.929438
 20
26.187394
 30
0.0
 10
38.922576
 20
26.158809
 30
0.0
 11
39.021602
 21
26.321134
 31
0.0
 11
38.981011
 21
26.297140
 31
0.0
 11
38.947554
 21
26.244077
 31
0.0
 11
38.922576
 21
26.158809
 31
0.0
  0
LINE
  5
16b
100
AcDbEntity
  8
Layer_1
 62
7
100
AcDbLine
 10
38.845863
 20
26.454724
 30
0.0
 11
38.845863
 21
26.454724
 31
0.0
  0
SPLINE
  5
16c
100
AcDbEntity
  8
Layer_1
 62
7
100
AcDbSpline
 70
0
 71
3
 72
13
 73
9
 74
7
 40
0.000000
 40
0.000000
 40
0.000000
 40
0.000000
 40
0.127228
 40
0.241843
 40
0.337777
 40
0.430562
 40
0.496565
 40
0.545919
 40
0.545919
 40
0.545919
 40
0.545919
 10
38.572554
 20
25.996342
 30
0.0
 10
38.593899
 20
26.032998
 30
0.0
 10
38.634474
 20
26.102676
 30
0.0
 10
38.686077
 20
26.202762
 30
0.0
 10
38.723572
 20
26.297220
 30
0.0
 10
38.753416
 20
26.375197
 30
0.0
 10
38.791889
 20
26.438220
 30
0.0
 10
38.829690
 20
26.449779
 30
0.0
 10
38.845863
 20
26.454724
 30
0.0
 11
38.572554
 21
25.996342
 31
0.0
 11
38.635586
 21
26.106858
 31
0.0
 11
38.687111
 21
26.209239
 31
0.0
 11
38.723647
 21
26.297943
 31
0.0
 11
38.760223
 21
26.383215
 31
0.0
 11
38.800361
 21
26.435611
 31
0.0
 11
38.845863
 21
26.454724
 31
0.0
  0
SPLINE
  5
16d
100
AcDbEntity
  8
Layer_1
 62
7
100
AcDbSpline
 70
0
 71
3
 72
19
 73
15
 74
13
 40
0.000000
 40
0.000000
 40
0.000000
 40
0.000000
 40
5.520384
 40
10.877700
 40
16.398083
 40
21.918467
 40
27.275783
 40
32.796166
 40
38.316549
 40
43.673864
 40
49.194247
 40
54.714631
 40
60.071947
 40
65.592331
 40
65.592331
 40
65.592331
 40
65.592331
 10
45.815747
 20
37.530249
 30
0.0
 10
45.498283
 20
35.673712
 30
0.0
 10
44.872732
 20
32.015477
 30
0.0
 10
40.617560
 20
28.034924
 30
0.0
 10
35.117909
 20
26.604749
 30
0.0
 10
29.594595
 20
28.159471
 30
0.0
 10
25.599402
 20
32.233950
 30
0.0
 10
24.147911
 20
37.773421
 30
0.0
 10
25.682767
 20
43.290373
 30
0.0
 10
29.738944
 20
47.304145
 30
0.0
 10
35.285073
 20
48.775404
 30
0.0
 10
40.762533
 20
47.262463
 30
0.0
 10
44.957200
 20
43.218199
 30
0.0
 10
45.527518
 20
39.550948
 30
0.0
 10
45.816951
 20
37.689835
 30
0.0
 11
45.815747
 21
37.530249
 31
0.0
 11
44.297481
 21
32.222754
 31
0.0
 11
40.459634
 21
28.484872
 31
0.0
 11
35.113926
 21
27.107179
 31
0.0
 11
29.800745
 21
28.605426
 31
0.0
 11
26.048421
 21
32.429154
 31
0.0
 11
24.650585
 21
37.769631
 31
0.0
 11
26.128791
 21
43.088421
 31
0.0
 11
29.938346
 21
46.855133
 31
0.0
 11
35.273514
 21
48.273092
 31
0.0
 11
40.597841
 21
46.814948
 31
0.0
 11
44.378889
 21
43.019620
 31
0.0
 11
45.816951
 21
37.689835
 31
0.0
  0
ENDSEC
  0
SECTION
  2
OBJECTS
  0
DICTIONARY
  5
C
330
0
100
AcDbDictionary
  3
ACAD_GROUP
350
D
  3
ACAD_MLINESTYLE
350
17
  0
DICTIONARY
  5
D
330
C
100
AcDbDictionary
  0
DICTIONARY
  5
1A
330
C
100
AcDbDictionary
  0
DICTIONARY
  5
17
330
C
100
AcDbDictionary
  3
STANDARD
350
18
  0
DICTIONARY
  5
19
330
C
100
AcDbDictionary
  0
ENDSEC
  0
EOF
