  0
SECTION
  2
HEADER
  9
$ACADVER
  1
AC1014
  9
$HANDSEED
  5
FFFF
  9
$MEASUREMENT
 70
     1
  0
ENDSEC
  0
SECTION
  2
TABLES
  0
TABLE
  2
VPORT
  5
8
330
0
100
AcDbSymbolTable
 70
     4
  0
VPORT
  5
2E
330
8
100
AcDbSymbolTableRecord
100
AcDbViewportTableRecord
  2
*ACTIVE
 70
     0
 10
0.0
 20
0.0
 11
1.0
 21
1.0
 12
210.0
 22
148.5
 13
0.0
 23
0.0
 14
10.0
 24
10.0
 15
10.0
 25
10.0
 16
0.0
 26
0.0
 36
1.0
 17
0.0
 27
0.0
 37
0.0
 40
341.0
 41
1.24
 42
50.0
 43
0.0
 44
0.0
 50
0.0
 51
0.0
 71
     0
 72
   100
 73
     1
 74
     3
 75
     0
 76
     0
 77
     0
 78
     0
  0
ENDTAB
  0
TABLE
  2
LTYPE
  5
5
330
0
100
AcDbSymbolTable
 70
     1
  0
LTYPE
  5
14
330
5
100
AcDbSymbolTableRecord
100
AcDbLinetypeTableRecord
  2
BYBLOCK
 70
     0
  3

 72
    65
 73
     0
 40
0.0
  0
LTYPE
  5
15
330
5
100
AcDbSymbolTableRecord
100
AcDbLinetypeTableRecord
  2
BYLAYER
 70
     0
  3

 72
    65
 73
     0
 40
0.0
  0
LTYPE
  5
16
330
5
100
AcDbSymbolTableRecord
100
AcDbLinetypeTableRecord
  2
CONTINUOUS
 70
     0
  3
Solid line
 72
    65
 73
     0
 40
0.0
  0
ENDTAB
  0
TABLE
  2
LAYER
  5
2
100
AcDbSymbolTable
 70
2
  0
LAYER
  5
50
100
AcDbSymbolTableRecord
100
AcDbLayerTableRecord
  2
0
 70
0
  6
CONTINUOUS
  0
LAYER
  5
51
100
AcDbSymbolTableRecord
100
AcDbLayerTableRecord
  2
Capa_1
 70
0
  6
CONTINUOUS
  0
ENDTAB
  0
TABLE
  2
STYLE
  5
3
330
0
100
AcDbSymbolTable
 70
     1
  0
STYLE
  5
11
330
3
100
AcDbSymbolTableRecord
100
AcDbTextStyleTableRecord
  2
STANDARD
 70
     0
 40
0.0
 41
1.0
 50
0.0
 71
     0
 42
2.5
  3
txt
  4

  0
ENDTAB
  0
TABLE
  2
VIEW
  5
6
330
0
100
AcDbSymbolTable
 70
     0
  0
ENDTAB
  0
TABLE
  2
UCS
  5
7
330
0
100
AcDbSymbolTable
 70
     0
  0
ENDTAB
  0
TABLE
  2
APPID
  5
9
330
0
100
AcDbSymbolTable
 70
     2
  0
APPID
  5
12
330
9
100
AcDbSymbolTableRecord
100
AcDbRegAppTableRecord
  2
ACAD
 70
     0
  0
ENDTAB
  0
TABLE
  2
DIMSTYLE
  5
A
330
0
100
AcDbSymbolTable
 70
     1
  0
DIMSTYLE
105
27
330
A
100
AcDbSymbolTableRecord
100
AcDbDimStyleTableRecord
  2
ISO-25
 70
     0
  3

  4

  5

  6

  7

 40
1.0
 41
2.5
 42
0.625
 43
3.75
 44
1.25
 45
0.0
 46
0.0
 47
0.0
 48
0.0
140
2.5
141
2.5
142
0.0
143
0.03937007874016
144
1.0
145
0.0
146
1.0
147
0.625
 71
     0
 72
     0
 73
     0
 74
     0
 75
     0
 76
     0
 77
     1
 78
     8
170
     0
171
     3
172
     1
173
     0
174
     0
175
     0
176
     0
177
     0
178
     0
270
     2
271
     2
272
     2
273
     2
274
     3
340
11
275
     0
280
     0
281
     0
282
     0
283
     0
284
     8
285
     0
286
     0
287
     3
288
     0
  0
ENDTAB
  0
TABLE
  2
BLOCK_RECORD
  5
1
330
0
100
AcDbSymbolTable
 70
     1
  0
BLOCK_RECORD
  5
1F
330
1
100
AcDbSymbolTableRecord
100
AcDbBlockTableRecord
  2
*MODEL_SPACE
  0
BLOCK_RECORD
  5
1B
330
1
100
AcDbSymbolTableRecord
100
AcDbBlockTableRecord
  2
*PAPER_SPACE
  0
ENDTAB
  0
ENDSEC
  0
SECTION
  2
BLOCKS
  0
BLOCK
  5
20
330
1F
100
AcDbEntity
  8
0
100
AcDbBlockBegin
  2
*MODEL_SPACE
 70
     0
 10
0.0
 20
0.0
 30
0.0
  3
*MODEL_SPACE
  1

  0
ENDBLK
  5
21
330
1F
100
AcDbEntity
  8
0
100
AcDbBlockEnd
  0
BLOCK
  5
1C
330
1B
100
AcDbEntity
 67
     1
  8
0
100
AcDbBlockBegin
  2
*PAPER_SPACE
  1

  0
ENDBLK
  5
1D
330
1B
100
AcDbEntity
 67
     1
  8
0
100
AcDbBlockEnd
  0
ENDSEC
  0
SECTION
  2
ENTITIES
  0
LINE
  5
100
100
AcDbEntity
  8
Capa_1
 62
7
100
AcDbLine
 10
16.508735
 20
57.658755
 30
0.0
 11
16.848178
 21
57.634021
 31
0.0
  0
LINE
  5
101
100
AcDbEntity
  8
Capa_1
 62
7
100
AcDbLine
 10
16.848178
 20
57.634021
 30
0.0
 11
16.776306
 21
57.501323
 31
0.0
  0
SPLINE
  5
102
100
AcDbEntity
  8
Capa_1
 62
7
100
AcDbSpline
 70
0
 71
3
 72
70
 73
66
 74
64
 40
0.000000
 40
0.000000
 40
0.000000
 40
0.000000
 40
1.545834
 40
3.258958
 40
5.024061
 40
6.968513
 40
8.731382
 40
10.342584
 40
10.804714
 40
11.279768
 40
11.613095
 40
11.660392
 40
11.712925
 40
11.837274
 40
12.417499
 40
13.178910
 40
13.816578
 40
15.778768
 40
17.857128
 40
20.080007
 40
21.991068
 40
23.830791
 40
25.608857
 40
26.083473
 40
26.460150
 40
27.313683
 40
28.009666
 40
28.857474
 40
29.673523
 40
30.356849
 40
30.856767
 40
31.065111
 40
31.094014
 40
31.128966
 40
31.167317
 40
31.262660
 40
31.444805
 40
31.674445
 40
31.897504
 40
32.062380
 40
32.133504
 40
32.193025
 40
32.338448
 40
32.539043
 40
34.326335
 40
36.312147
 40
38.561145
 40
40.770570
 40
43.040385
 40
45.342931
 40
46.464860
 40
47.324125
 40
47.957098
 40
48.349656
 40
48.892111
 40
49.640782
 40
51.916769
 40
54.357556
 40
56.708640
 40
58.256750
 40
59.682304
 40
60.998842
 40
61.740885
 40
62.494736
 40
63.318773
 40
63.318773
 40
63.318773
 40
63.318773
 10
48.126428
 20
69.605385
 30
0.0
 10
47.611487
 20
69.577418
 30
0.0
 10
46.525877
 20
69.518456
 30
0.0
 10
44.874598
 20
69.216085
 30
0.0
 10
43.125733
 20
68.754468
 30
0.0
 10
41.414061
 20
68.107887
 30
0.0
 10
39.848518
 20
67.269562
 30
0.0
 10
38.816627
 20
66.492344
 30
0.0
 10
38.221340
 20
65.894876
 30
0.0
 10
37.926613
 20
65.571007
 30
0.0
 10
37.765246
 20
65.372003
 30
0.0
 10
37.666757
 20
65.231911
 30
0.0
 10
37.592656
 20
65.287861
 30
0.0
 10
37.449870
 20
65.473008
 30
0.0
 10
37.080850
 20
65.823826
 30
0.0
 10
36.605818
 20
66.268926
 30
0.0
 10
35.748162
 20
66.996107
 30
0.0
 10
34.401625
 20
67.802865
 30
0.0
 10
32.457445
 20
68.581667
 30
0.0
 10
30.430226
 20
69.052968
 30
0.0
 10
28.454707
 20
69.258900
 30
0.0
 10
26.579284
 20
69.264290
 30
0.0
 10
25.300539
 20
68.974414
 30
0.0
 10
24.351255
 20
68.883032
 30
0.0
 10
24.075520
 20
68.328259
 30
0.0
 10
24.044606
 20
67.694383
 30
0.0
 10
23.899339
 20
66.905091
 30
0.0
 10
23.781926
 20
66.128297
 30
0.0
 10
23.654337
 20
65.355875
 30
0.0
 10
23.555609
 20
64.697479
 30
0.0
 10
23.471252
 20
64.239750
 30
0.0
 10
23.451834
 20
63.995922
 30
0.0
 10
23.428912
 20
63.906381
 30
0.0
 10
23.402552
 20
63.882040
 30
0.0
 10
23.350692
 20
63.860373
 30
0.0
 10
23.253824
 20
63.819178
 30
0.0
 10
23.102387
 20
63.742830
 30
0.0
 10
22.914951
 20
63.649929
 30
0.0
 10
22.727850
 20
63.545443
 30
0.0
 10
22.599950
 20
63.501674
 30
0.0
 10
22.495278
 20
63.422506
 30
0.0
 10
22.457257
 20
63.533328
 30
0.0
 10
22.405265
 20
63.642214
 30
0.0
 10
22.171774
 20
64.335445
 30
0.0
 10
21.512697
 20
65.488832
 30
0.0
 10
20.032131
 20
66.889529
 30
0.0
 10
18.165753
 20
67.975968
 30
0.0
 10
16.069571
 20
68.791330
 30
0.0
 10
13.871016
 20
69.344738
 30
0.0
 10
11.986091
 20
69.580500
 30
0.0
 10
10.550660
 20
69.623886
 30
0.0
 10
9.693137
 20
69.515583
 30
0.0
 10
9.063683
 20
69.322584
 30
0.0
 10
8.742448
 20
68.879284
 30
0.0
 10
8.665784
 20
68.310993
 30
0.0
 10
8.706280
 20
67.124437
 30
0.0
 10
9.084830
 20
65.325584
 30
0.0
 10
9.896808
 20
63.109572
 30
0.0
 10
10.917672
 20
61.245025
 30
0.0
 10
12.027014
 20
59.851334
 30
0.0
 10
13.086630
 20
58.881006
 30
0.0
 10
14.083006
 20
58.266846
 30
0.0
 10
14.957394
 20
57.922330
 30
0.0
 10
15.710980
 20
57.735944
 30
0.0
 10
16.235046
 20
57.685236
 30
0.0
 10
16.508735
 20
57.658755
 30
0.0
 11
48.126428
 21
69.605385
 31
0.0
 11
46.584861
 21
69.490619
 31
0.0
 11
44.896883
 21
69.198168
 31
0.0
 11
43.191744
 21
68.741998
 31
0.0
 11
41.376056
 21
68.046178
 31
0.0
 11
39.827240
 21
67.204229
 31
0.0
 11
38.551856
 21
66.219664
 31
0.0
 11
38.224728
 21
65.893243
 31
0.0
 11
37.905849
 21
65.541116
 31
0.0
 11
37.699982
 21
65.278961
 31
0.0
 11
37.665636
 21
65.246445
 31
0.0
 11
37.618609
 21
65.269859
 31
0.0
 11
37.534460
 21
65.361410
 31
0.0
 11
37.129400
 21
65.776847
 31
0.0
 11
36.569838
 21
66.293216
 31
0.0
 11
36.081015
 21
66.702694
 31
0.0
 11
34.413555
 21
67.736989
 31
0.0
 11
32.486314
 21
68.515016
 31
0.0
 11
30.323235
 21
69.027149
 31
0.0
 11
28.422837
 21
69.228742
 31
0.0
 11
26.583385
 21
69.197172
 31
0.0
 11
24.825095
 21
68.932721
 31
0.0
 11
24.368631
 21
68.802717
 31
0.0
 11
24.169448
 21
68.483011
 31
0.0
 11
24.021134
 21
67.642463
 31
0.0
 11
23.911940
 21
66.955098
 31
0.0
 11
23.778357
 21
66.117880
 31
0.0
 11
23.649333
 21
65.312096
 31
0.0
 11
23.542117
 21
64.637234
 31
0.0
 11
23.465672
 21
64.143195
 31
0.0
 11
23.436519
 21
63.936900
 31
0.0
 11
23.427149
 21
63.909559
 31
0.0
 11
23.402602
 21
63.884678
 31
0.0
 11
23.368226
 21
63.867674
 31
0.0
 11
23.280711
 21
63.829841
 31
0.0
 11
23.116841
 21
63.750320
 31
0.0
 11
22.912109
 21
63.646304
 31
0.0
 11
22.713346
 21
63.545070
 31
0.0
 11
22.565124
 21
63.472860
 31
0.0
 11
22.499550
 21
63.445314
 31
0.0
 11
22.469252
 21
63.496547
 31
0.0
 11
22.413484
 21
63.630851
 31
0.0
 11
22.344296
 21
63.819137
 31
0.0
 11
21.477897
 21
65.382392
 31
0.0
 11
20.056083
 21
66.768716
 31
0.0
 11
18.129412
 21
67.928859
 31
0.0
 11
16.074615
 21
68.740873
 31
0.0
 11
13.873925
 21
69.296772
 31
0.0
 11
11.588985
 21
69.580962
 31
0.0
 11
10.467129
 21
69.593790
 31
0.0
 11
9.615970
 21
69.476041
 31
0.0
 11
9.033827
 21
69.227517
 31
0.0
 11
8.799419
 21
68.912630
 31
0.0
 11
8.688139
 21
68.381712
 31
0.0
 11
8.699673
 21
67.633129
 31
0.0
 11
9.123518
 21
65.396956
 31
0.0
 11
9.964472
 21
63.105616
 31
0.0
 11
11.114045
 21
61.054743
 31
0.0
 11
12.083696
 21
59.847920
 31
0.0
 11
13.142451
 21
58.893331
 31
0.0
 11
14.268284
 21
58.210856
 31
0.0
 11
14.958851
 21
57.939294
 31
0.0
 11
15.690810
 21
57.758944
 31
0.0
 11
16.508735
 21
57.658755
 31
0.0
  0
SPLINE
  5
103
100
AcDbEntity
  8
Capa_1
 62
7
100
AcDbSpline
 70
0
 71
3
 72
28
 73
24
 74
22
 40
0.000000
 40
0.000000
 40
0.000000
 40
0.000000
 40
0.307232
 40
0.736399
 40
1.140955
 40
1.363079
 40
1.651793
 40
2.177306
 40
3.289632
 40
4.269519
 40
5.287819
 40
8.479899
 40
11.639106
 40
14.835005
 40
16.030886
 40
17.360604
 40
18.622457
 40
23.747942
 40
29.463569
 40
34.502388
 40
35.139068
 40
35.825762
 40
36.210021
 40
36.210021
 40
36.210021
 40
36.210021
 10
16.776306
 20
57.501323
 30
0.0
 10
16.731215
 20
57.409381
 30
0.0
 10
16.623136
 20
57.189008
 30
0.0
 10
16.470138
 20
56.840324
 30
0.0
 10
16.341342
 20
56.513781
 30
0.0
 10
16.219363
 20
56.231643
 30
0.0
 10
15.986554
 20
55.971405
 30
0.0
 10
15.534689
 20
55.518112
 30
0.0
 10
14.924566
 20
54.892265
 30
0.0
 10
14.248141
 20
54.105852
 30
0.0
 10
13.202114
 20
52.727203
 30
0.0
 10
11.923428
 20
50.612422
 30
0.0
 10
10.812693
 20
47.613291
 30
0.0
 10
10.352824
 20
45.121365
 30
0.0
 10
10.280021
 20
43.214180
 30
0.0
 10
10.314067
 20
41.951255
 30
0.0
 10
10.555067
 20
39.387823
 30
0.0
 10
11.445296
 20
35.448427
 30
0.0
 10
13.052849
 20
30.346740
 30
0.0
 10
15.366157
 20
27.261040
 30
0.0
 10
16.829208
 20
25.720404
 30
0.0
 10
17.133007
 20
25.235998
 30
0.0
 10
17.356837
 20
24.957804
 30
0.0
 10
17.437148
 20
24.857987
 30
0.0
 11
16.776306
 21
57.501323
 31
0.0
 11
16.642656
 21
57.224684
 31
0.0
 11
16.469514
 21
56.831993
 31
0.0
 11
16.316145
 21
56.457636
 31
0.0
 11
16.219409
 21
56.257683
 31
0.0
 11
16.038736
 21
56.032488
 31
0.0
 11
15.672571
 21
55.655542
 31
0.0
 11
14.902929
 21
54.852474
 31
0.0
 11
14.264148
 21
54.109414
 31
0.0
 11
13.647112
 21
53.299351
 31
0.0
 11
12.009437
 21
50.559388
 31
0.0
 11
10.904029
 21
47.599885
 31
0.0
 11
10.343063
 21
44.453603
 31
0.0
 11
10.294020
 21
43.258729
 31
0.0
 11
10.329851
 21
41.929493
 31
0.0
 11
10.444959
 21
40.672902
 31
0.0
 11
11.468957
 21
35.650748
 31
0.0
 11
13.430744
 21
30.282342
 31
0.0
 11
16.380393
 21
26.197093
 31
0.0
 11
16.801762
 21
25.719798
 31
0.0
 11
17.200503
 21
25.160733
 31
0.0
 11
17.437148
 21
24.857987
 31
0.0
  0
LINE
  5
104
100
AcDbEntity
  8
Capa_1
 62
7
100
AcDbLine
 10
19.478163
 20
19.736314
 30
0.0
 11
19.478322
 21
19.736154
 31
0.0
  0
SPLINE
  5
105
100
AcDbEntity
  8
Capa_1
 62
7
100
AcDbSpline
 70
0
 71
3
 72
16
 73
12
 74
10
 40
0.000000
 40
0.000000
 40
0.000000
 40
0.000000
 40
0.842735
 40
1.719390
 40
2.544822
 40
3.053719
 40
3.519433
 40
3.865194
 40
4.782239
 40
5.912440
 40
7.605785
 40
7.605785
 40
7.605785
 40
7.605785
 10
17.437148
 20
24.857987
 30
0.0
 10
17.275677
 20
24.627458
 30
0.0
 10
16.946236
 20
24.157121
 30
0.0
 10
16.597850
 20
23.378780
 30
0.0
 10
16.387178
 20
22.669289
 30
0.0
 10
16.309034
 20
22.073166
 30
0.0
 10
16.283852
 20
21.633536
 30
0.0
 10
16.316112
 20
21.055411
 30
0.0
 10
16.764818
 20
20.311538
 30
0.0
 10
17.980741
 20
19.854900
 30
0.0
 10
18.916792
 20
19.780771
 30
0.0
 10
19.478163
 20
19.736314
 30
0.0
 11
17.437148
 21
24.857987
 31
0.0
 11
16.975331
 21
24.153057
 31
0.0
 11
16.609628
 21
23.356322
 31
0.0
 11
16.383504
 21
22.562467
 31
0.0
 11
16.313627
 21
22.058390
 31
0.0
 11
16.291650
 21
21.593196
 31
0.0
 11
16.321434
 21
21.248719
 31
0.0
 11
16.781354
 21
20.455344
 31
0.0
 11
17.800605
 21
19.966996
 31
0.0
 11
19.478163
 21
19.736314
 31
0.0
  0
LINE
  5
106
100
AcDbEntity
  8
Capa_1
 62
7
100
AcDbLine
 10
28.499082
 20
21.330696
 30
0.0
 11
28.525217
 21
21.485795
 31
0.0
  0
LINE
  5
107
100
AcDbEntity
  8
Capa_1
 62
7
100
AcDbLine
 10
28.525217
 20
21.485795
 30
0.0
 11
29.894346
 21
21.555021
 31
0.0
  0
LINE
  5
108
100
AcDbEntity
  8
Capa_1
 62
7
100
AcDbLine
 10
29.894346
 20
21.555021
 30
0.0
 11
31.091109
 21
21.485795
 31
0.0
  0
LINE
  5
109
100
AcDbEntity
  8
Capa_1
 62
7
100
AcDbLine
 10
31.091109
 20
21.485795
 30
0.0
 11
31.137468
 21
21.275937
 31
0.0
  0
SPLINE
  5
10a
100
AcDbEntity
  8
Capa_1
 62
7
100
AcDbSpline
 70
0
 71
3
 72
16
 73
12
 74
10
 40
0.000000
 40
0.000000
 40
0.000000
 40
0.000000
 40
1.399244
 40
3.425230
 40
5.027149
 40
6.360414
 40
7.339425
 40
8.109676
 40
8.670500
 40
9.165637
 40
9.629407
 40
9.629407
 40
9.629407
 40
9.629407
 10
19.478322
 20
19.736154
 30
0.0
 10
19.944620
 20
19.724824
 30
0.0
 10
21.086076
 20
19.697089
 30
0.0
 10
22.761913
 20
19.704752
 30
0.0
 10
24.415684
 20
19.719119
 30
0.0
 10
25.719145
 20
19.795574
 30
0.0
 10
26.737898
 20
19.943118
 30
0.0
 10
27.477705
 20
20.178649
 30
0.0
 10
28.004201
 20
20.490602
 30
0.0
 10
28.363654
 20
20.870224
 30
0.0
 10
28.454934
 20
21.180589
 30
0.0
 10
28.499082
 20
21.330696
 30
0.0
 11
19.478322
 21
19.736154
 31
0.0
 11
20.877276
 21
19.707663
 31
0.0
 11
22.903263
 21
19.706950
 31
0.0
 11
24.504946
 21
19.734442
 31
0.0
 11
25.835181
 21
19.824274
 31
0.0
 11
26.801280
 21
19.982749
 31
0.0
 11
27.530533
 21
20.230695
 31
0.0
 11
28.007717
 21
20.525346
 31
0.0
 11
28.334939
 21
20.896945
 31
0.0
 11
28.499082
 21
21.330696
 31
0.0
  0
LINE
  5
10b
100
AcDbEntity
  8
Capa_1
 62
7
100
AcDbLine
 10
43.845589
 20
55.845482
 30
0.0
 11
43.299711
 21
56.366158
 31
0.0
  0
LINE
  5
10c
100
AcDbEntity
  8
Capa_1
 62
7
100
AcDbLine
 10
43.299711
 20
56.366158
 30
0.0
 11
43.070252
 21
56.897414
 31
0.0
  0
SPLINE
  5
10d
100
AcDbEntity
  8
Capa_1
 62
7
100
AcDbSpline
 70
0
 71
3
 72
40
 73
36
 74
34
 40
0.000000
 40
0.000000
 40
0.000000
 40
0.000000
 40
0.473347
 40
0.964257
 40
1.507130
 40
2.648176
 40
4.377357
 40
7.128175
 40
8.660580
 40
9.755303
 40
10.542118
 40
11.920834
 40
12.903423
 40
13.934218
 40
15.054277
 40
16.127566
 40
17.198149
 40
17.361374
 40
17.486372
 40
17.546857
 40
17.642003
 40
17.868810
 40
18.179117
 40
23.520986
 40
29.516403
 40
34.957800
 40
36.251803
 40
37.678016
 40
38.965733
 40
42.561818
 40
46.120606
 40
49.769861
 40
50.410346
 40
51.037087
 40
51.771278
 40
51.771278
 40
51.771278
 40
51.771278
 10
31.137468
 20
21.275937
 30
0.0
 10
31.188030
 20
21.124704
 30
0.0
 10
31.291030
 20
20.816627
 30
0.0
 10
31.650999
 20
20.444663
 30
0.0
 10
32.289258
 20
20.090365
 30
0.0
 10
33.410900
 20
19.827583
 30
0.0
 10
35.280892
 20
19.707507
 30
0.0
 10
37.286210
 20
19.693862
 30
0.0
 10
39.078288
 20
19.702792
 30
0.0
 10
40.216943
 20
19.734905
 30
0.0
 10
41.297856
 20
19.833778
 30
0.0
 10
42.342843
 20
20.028326
 30
0.0
 10
43.290952
 20
20.801899
 30
0.0
 10
43.367108
 20
21.916091
 30
0.0
 10
43.171037
 20
22.963052
 30
0.0
 10
42.784352
 20
23.994925
 30
0.0
 10
42.360976
 20
24.634034
 30
0.0
 10
42.068545
 20
24.990838
 30
0.0
 10
42.010156
 20
25.081994
 30
0.0
 10
41.939431
 20
25.167781
 30
0.0
 10
42.080853
 20
25.256009
 30
0.0
 10
42.211581
 20
25.389668
 30
0.0
 10
43.847679
 20
26.574356
 30
0.0
 10
46.100455
 20
29.827522
 30
0.0
 10
48.126406
 20
35.057374
 30
0.0
 10
49.149594
 20
39.201243
 30
0.0
 10
49.410509
 20
41.911324
 30
0.0
 10
49.441473
 20
43.248112
 30
0.0
 10
49.355246
 20
45.351137
 30
0.0
 10
48.791927
 20
48.133656
 30
0.0
 10
47.386570
 20
51.473945
 30
0.0
 10
45.880883
 20
53.638018
 30
0.0
 10
44.808638
 20
54.877374
 30
0.0
 10
44.348918
 20
55.361268
 30
0.0
 10
44.021970
 20
55.675799
 30
0.0
 10
43.845589
 20
55.845482
 30
0.0
 11
31.137468
 21
21.275937
 31
0.0
 11
31.319832
 21
20.839130
 31
0.0
 11
31.651324
 21
20.477045
 31
0.0
 11
32.119861
 21
20.202849
 31
0.0
 11
33.219459
 21
19.898099
 31
0.0
 11
34.941586
 21
19.742074
 31
0.0
 11
37.692052
 21
19.698040
 31
0.0
 11
39.224407
 21
19.710443
 31
0.0
 11
40.318373
 21
19.751126
 31
0.0
 11
41.101729
 21
19.824825
 31
0.0
 11
42.432123
 21
20.186640
 31
0.0
 11
43.155102
 21
20.852060
 31
0.0
 11
43.322890
 21
21.869107
 31
0.0
 11
43.135213
 21
22.973331
 31
0.0
 11
42.749085
 21
23.974757
 31
0.0
 11
42.165018
 21
24.871982
 31
0.0
 11
42.064734
 21
25.000767
 31
0.0
 11
41.992229
 21
25.102589
 31
0.0
 11
41.962783
 21
25.155422
 31
0.0
 11
42.027582
 21
25.225093
 31
0.0
 11
42.201167
 21
25.371070
 31
0.0
 11
42.445969
 21
25.561759
 31
0.0
 11
45.791154
 21
29.726528
 31
0.0
 11
48.066408
 21
35.273441
 31
0.0
 11
49.270147
 21
40.580023
 31
0.0
 11
49.391359
 21
41.868336
 31
0.0
 11
49.426511
 21
43.294116
 31
0.0
 11
49.368775
 21
44.580539
 31
0.0
 11
48.674934
 21
48.109053
 31
0.0
 11
47.289809
 21
51.387223
 31
0.0
 11
45.222185
 21
54.394213
 31
0.0
 11
44.801884
 21
54.877503
 31
0.0
 11
44.370557
 21
55.332212
 31
0.0
 11
43.845589
 21
55.845482
 31
0.0
  0
LINE
  5
10e
100
AcDbEntity
  8
Capa_1
 62
7
100
AcDbLine
 10
48.126432
 20
69.605380
 30
0.0
 11
48.126428
 21
69.605385
 31
0.0
  0
SPLINE
  5
10f
100
AcDbEntity
  8
Capa_1
 62
7
100
AcDbSpline
 70
0
 71
3
 72
31
 73
27
 74
25
 40
0.000000
 40
0.000000
 40
0.000000
 40
0.000000
 40
0.307802
 40
0.558607
 40
0.698196
 40
0.761089
 40
0.810596
 40
0.836344
 40
0.863669
 40
0.930576
 40
1.023857
 40
1.884766
 40
2.886472
 40
3.887541
 40
5.239553
 40
6.743270
 40
8.359329
 40
10.444374
 40
12.596693
 40
14.566571
 40
15.499429
 40
16.124186
 40
16.739101
 40
17.215381
 40
17.766047
 40
18.383497
 40
18.383497
 40
18.383497
 40
18.383497
 10
43.070252
 20
56.897414
 30
0.0
 10
43.029423
 20
56.991441
 30
0.0
 10
42.955326
 20
57.162086
 30
0.0
 10
42.858673
 20
57.374836
 30
0.0
 10
42.796742
 20
57.510775
 30
0.0
 10
42.753566
 20
57.586083
 30
0.0
 10
42.739151
 20
57.624413
 30
0.0
 10
42.716303
 20
57.663093
 30
0.0
 10
42.768754
 20
57.672328
 30
0.0
 10
42.822804
 20
57.677558
 30
0.0
 10
43.174858
 20
57.681618
 30
0.0
 10
43.811659
 20
57.776708
 30
0.0
 10
44.727226
 20
58.074825
 30
0.0
 10
45.736144
 20
58.565554
 30
0.0
 10
46.753221
 20
59.369063
 30
0.0
 10
47.761068
 20
60.472871
 30
0.0
 10
48.746881
 20
61.907883
 30
0.0
 10
49.593123
 20
63.674018
 30
0.0
 10
50.253227
 20
65.640203
 30
0.0
 10
50.560180
 20
67.305122
 30
0.0
 10
50.626051
 20
68.479617
 30
0.0
 10
50.363940
 20
69.210935
 30
0.0
 10
49.804073
 20
69.461127
 30
0.0
 10
49.269553
 20
69.553353
 30
0.0
 10
48.721549
 20
69.605328
 30
0.0
 10
48.332224
 20
69.605362
 30
0.0
 10
48.126432
 20
69.605380
 30
0.0
 11
43.070252
 21
56.897414
 31
0.0
 11
42.946784
 21
57.179367
 31
0.0
 11
42.843568
 21
57.407949
 31
0.0
 11
42.782922
 21
57.533675
 31
0.0
 11
42.753630
 21
57.589330
 31
0.0
 11
42.732816
 21
57.634249
 31
0.0
 11
42.724897
 21
57.658749
 31
0.0
 11
42.750270
 21
57.668893
 31
0.0
 11
42.816782
 21
57.676154
 31
0.0
 11
42.910020
 21
57.678973
 31
0.0
 11
43.763485
 21
57.791941
 31
0.0
 11
44.717923
 21
58.096022
 31
0.0
 11
45.614832
 21
58.540649
 31
0.0
 11
46.688679
 21
59.362103
 31
0.0
 11
47.709674
 21
60.466065
 31
0.0
 11
48.626418
 21
61.796939
 31
0.0
 11
49.544176
 21
63.669140
 31
0.0
 11
50.221358
 21
65.712153
 31
0.0
 11
50.566939
 21
67.651481
 31
0.0
 11
50.553967
 21
68.584249
 31
0.0
 11
50.298010
 21
69.154168
 31
0.0
 11
49.759088
 21
69.450281
 31
0.0
 11
49.292069
 21
69.543748
 31
0.0
 11
48.743796
 21
69.595020
 31
0.0
 11
48.126432
 21
69.605380
 31
0.0
  0
LINE
  5
110
100
AcDbEntity
  8
Capa_1
 62
7
100
AcDbLine
 10
41.646049
 20
58.678329
 30
0.0
 11
41.335385
 21
59.124646
 31
0.0
  0
LINE
  5
111
100
AcDbEntity
  8
Capa_1
 62
7
100
AcDbLine
 10
41.335385
 20
59.124646
 30
0.0
 11
41.645892
 21
59.170382
 31
0.0
  0
SPLINE
  5
112
100
AcDbEntity
  8
Capa_1
 62
7
100
AcDbSpline
 70
0
 71
3
 72
25
 73
21
 74
19
 40
0.000000
 40
0.000000
 40
0.000000
 40
0.000000
 40
0.671072
 40
1.190766
 40
1.502510
 40
2.314757
 40
3.839449
 40
5.710890
 40
8.522234
 40
10.991311
 40
13.116273
 40
13.846037
 40
14.549821
 40
15.333912
 40
15.599962
 40
15.811709
 40
15.923722
 40
15.997371
 40
16.160656
 40
16.517016
 40
16.517016
 40
16.517016
 40
16.517016
 10
48.289772
 20
68.949677
 30
0.0
 10
48.514774
 20
68.943876
 30
0.0
 10
48.914023
 20
68.933581
 30
0.0
 10
49.399592
 20
68.872654
 30
0.0
 10
49.966704
 20
68.690985
 30
0.0
 10
49.867626
 20
67.589658
 30
0.0
 10
49.694484
 20
66.325904
 30
0.0
 10
49.095275
 20
64.281233
 30
0.0
 10
48.110156
 20
62.119542
 30
0.0
 10
46.640936
 20
60.102294
 30
0.0
 10
45.203555
 20
59.000549
 30
0.0
 10
44.103206
 20
58.547517
 30
0.0
 10
43.382356
 20
58.369686
 30
0.0
 10
42.797440
 20
58.325986
 30
0.0
 10
42.378691
 20
58.297864
 30
0.0
 10
42.180790
 20
58.289324
 30
0.0
 10
42.053036
 20
58.256227
 30
0.0
 10
41.930496
 20
58.265632
 30
0.0
 10
41.817186
 20
58.452619
 30
0.0
 10
41.715668
 20
58.586510
 30
0.0
 10
41.646049
 20
58.678329
 30
0.0
 11
48.289772
 21
68.949677
 31
0.0
 11
48.960196
 21
68.920206
 31
0.0
 11
49.473895
 21
68.841491
 31
0.0
 11
49.760951
 21
68.719908
 31
0.0
 11
49.893222
 21
67.918503
 31
0.0
 11
49.670836
 21
66.410116
 31
0.0
 11
49.155180
 21
64.611120
 31
0.0
 11
47.972222
 21
62.060773
 31
0.0
 11
46.477660
 21
60.095417
 31
0.0
 11
44.764820
 21
58.837784
 31
0.0
 11
44.089289
 21
58.561715
 31
0.0
 11
43.405652
 21
58.394526
 31
0.0
 11
42.625643
 21
58.314618
 31
0.0
 11
42.360124
 21
58.297810
 31
0.0
 11
42.149273
 21
58.278352
 31
0.0
 11
42.038695
 21
58.260481
 31
0.0
 11
41.965641
 21
58.269814
 31
0.0
 11
41.853836
 21
58.388817
 31
0.0
 11
41.646049
 21
58.678329
 31
0.0
  0
LINE
  5
113
100
AcDbEntity
  8
Capa_1
 62
7
100
AcDbLine
 10
48.289772
 20
68.949677
 30
0.0
 11
48.289772
 21
68.949677
 31
0.0
  0
SPLINE
  5
114
100
AcDbEntity
  8
Capa_1
 62
7
100
AcDbSpline
 70
0
 71
3
 72
52
 73
48
 74
46
 40
0.000000
 40
0.000000
 40
0.000000
 40
0.000000
 40
0.639881
 40
1.299996
 40
1.971942
 40
2.699256
 40
3.527296
 40
4.359120
 40
5.535310
 40
6.833245
 40
8.123140
 40
8.688209
 40
9.251395
 40
9.610859
 40
9.935866
 40
10.331967
 40
10.876067
 40
12.160986
 40
13.622897
 40
15.110172
 40
16.677432
 40
18.211990
 40
19.734067
 40
19.763612
 40
19.821038
 40
19.930967
 40
20.284163
 40
20.760997
 40
21.327383
 40
21.611813
 40
21.786066
 40
21.847060
 40
21.940676
 40
22.140712
 40
22.404399
 40
23.341812
 40
24.243997
 40
25.249249
 40
25.922075
 40
26.542419
 40
27.224337
 40
29.510221
 40
31.971891
 40
34.475577
 40
34.733750
 40
34.987122
 40
35.233323
 40
35.233323
 40
35.233323
 40
35.233323
 10
41.645892
 20
59.170382
 30
0.0
 10
41.855691
 20
59.210984
 30
0.0
 10
42.281921
 20
59.293471
 30
0.0
 10
42.896738
 20
59.533916
 30
0.0
 10
43.506660
 20
59.853520
 30
0.0
 10
44.094455
 20
60.312911
 30
0.0
 10
44.655159
 20
60.879301
 30
0.0
 10
45.246869
 20
61.620002
 30
0.0
 10
45.783125
 20
62.588741
 30
0.0
 10
46.254895
 20
63.752884
 30
0.0
 10
46.555750
 20
64.762739
 30
0.0
 10
46.674931
 20
65.564105
 30
0.0
 10
46.691805
 20
66.053948
 30
0.0
 10
46.707809
 20
66.484591
 30
0.0
 10
46.464587
 20
66.789492
 30
0.0
 10
46.045107
 20
66.910071
 30
0.0
 10
45.301556
 20
66.911124
 30
0.0
 10
44.219077
 20
66.667318
 30
0.0
 10
42.913865
 20
66.125782
 30
0.0
 10
41.610468
 20
65.344138
 30
0.0
 10
40.512191
 20
64.289711
 30
0.0
 10
39.455682
 20
63.091507
 30
0.0
 10
39.394704
 20
62.000310
 30
0.0
 10
38.967198
 20
61.594012
 30
0.0
 10
38.903458
 20
61.646260
 30
0.0
 10
38.779463
 20
61.745681
 30
0.0
 10
38.529883
 20
61.954343
 30
0.0
 10
38.155338
 20
62.222722
 30
0.0
 10
37.787378
 20
62.468006
 30
0.0
 10
37.505617
 20
62.667728
 30
0.0
 10
37.366626
 20
62.760693
 30
0.0
 10
37.292375
 20
62.859514
 30
0.0
 10
37.386151
 20
62.965254
 30
0.0
 10
37.421208
 20
63.141724
 30
0.0
 10
37.584954
 20
63.584466
 30
0.0
 10
37.822537
 20
64.243405
 30
0.0
 10
38.353489
 20
65.041034
 30
0.0
 10
38.952943
 20
65.660364
 30
0.0
 10
39.525095
 20
66.170698
 30
0.0
 10
40.054119
 20
66.564212
 30
0.0
 10
41.073172
 20
67.192085
 30
0.0
 10
42.727316
 20
67.949754
 30
0.0
 10
45.056679
 20
68.618676
 30
0.0
 10
46.785455
 20
68.878759
 30
0.0
 10
47.788698
 20
68.939851
 30
0.0
 10
48.041171
 20
68.948716
 30
0.0
 10
48.207702
 20
68.949360
 30
0.0
 10
48.289772
 20
68.949677
 30
0.0
 11
41.645892
 21
59.170382
 31
0.0
 11
42.270220
 21
59.310607
 31
0.0
 11
42.887942
 21
59.543354
 31
0.0
 11
43.479851
 21
59.861403
 31
0.0
 11
44.058002
 21
60.302682
 31
0.0
 11
44.643430
 21
60.888280
 31
0.0
 11
45.159022
 21
61.541040
 31
0.0
 11
45.742759
 21
62.562154
 31
0.0
 11
46.236429
 21
63.762539
 31
0.0
 11
46.583532
 21
65.004855
 31
0.0
 11
46.664286
 21
65.564124
 31
0.0
 11
46.694626
 21
66.126492
 31
0.0
 11
46.663338
 21
66.484592
 31
0.0
 11
46.464994
 21
66.742059
 31
0.0
 11
46.093740
 21
66.880141
 31
0.0
 11
45.549957
 21
66.898706
 31
0.0
 11
44.289717
 21
66.648085
 31
0.0
 11
42.935940
 21
66.096295
 31
0.0
 11
41.669227
 21
65.316919
 31
0.0
 11
40.512944
 21
64.258943
 31
0.0
 11
39.613638
 21
63.015514
 31
0.0
 11
38.998017
 21
61.623490
 31
0.0
 11
38.974024
 21
61.606250
 31
0.0
 11
38.922139
 21
61.630863
 31
0.0
 11
38.836696
 21
61.700028
 31
0.0
 11
38.562306
 21
61.922418
 31
0.0
 11
38.177410
 21
62.203889
 31
0.0
 11
37.710093
 21
62.523901
 31
0.0
 11
37.476640
 21
62.686382
 31
0.0
 11
37.341713
 21
62.796650
 31
0.0
 11
37.311536
 21
62.849655
 31
0.0
 11
37.351997
 21
62.934075
 31
0.0
 11
37.421861
 21
63.121514
 31
0.0
 11
37.505992
 21
63.371421
 31
0.0
 11
37.861711
 21
64.238719
 31
0.0
 11
38.353749
 21
64.994918
 31
0.0
 11
39.040176
 21
65.729322
 31
0.0
 11
39.544782
 21
66.174370
 31
0.0
 11
40.042401
 21
66.544777
 31
0.0
 11
40.620873
 21
66.905862
 31
0.0
 11
42.692005
 21
67.873166
 31
0.0
 11
45.055048
 21
68.562983
 31
0.0
 11
47.532636
 21
68.923543
 31
0.0
 11
47.790356
 21
68.938832
 31
0.0
 11
48.043581
 21
68.947462
 31
0.0
 11
48.289772
 21
68.949677
 31
0.0
  0
LINE
  5
115
100
AcDbEntity
  8
Capa_1
 62
7
100
AcDbLine
 10
20.647395
 20
61.701117
 30
0.0
 11
20.332686
 21
61.445056
 31
0.0
  0
LINE
  5
116
100
AcDbEntity
  8
Capa_1
 62
7
100
AcDbLine
 10
20.332686
 20
61.445056
 30
0.0
 11
20.167320
 21
61.904441
 31
0.0
  0
SPLINE
  5
117
100
AcDbEntity
  8
Capa_1
 62
7
100
AcDbSpline
 70
0
 71
3
 72
25
 73
21
 74
19
 40
0.000000
 40
0.000000
 40
0.000000
 40
0.000000
 40
0.180612
 40
0.364024
 40
0.549068
 40
1.960749
 40
3.372310
 40
4.841904
 40
8.049101
 40
10.703198
 40
12.973035
 40
13.131902
 40
13.278074
 40
13.380236
 40
13.458804
 40
13.499071
 40
13.532898
 40
13.890879
 40
14.543315
 40
15.125415
 40
15.125415
 40
15.125415
 40
15.125415
 10
11.025217
 20
68.944699
 30
0.0
 10
11.085418
 20
68.943954
 30
0.0
 10
11.206753
 20
68.942453
 30
0.0
 10
11.389682
 20
68.936060
 30
0.0
 10
11.982194
 20
68.903918
 30
0.0
 10
12.981054
 20
68.801147
 30
0.0
 10
14.388805
 20
68.535381
 30
0.0
 10
16.348031
 20
68.001812
 30
0.0
 10
18.624120
 20
67.065879
 30
0.0
 10
20.820420
 20
65.387687
 30
0.0
 10
21.651499
 20
63.837662
 30
0.0
 10
21.856247
 20
63.003170
 30
0.0
 10
21.895520
 20
62.873950
 30
0.0
 10
21.932649
 20
62.769445
 30
0.0
 10
21.964246
 20
62.707182
 30
0.0
 10
21.975170
 20
62.648528
 30
0.0
 10
21.832789
 20
62.576438
 30
0.0
 10
21.568459
 20
62.381366
 30
0.0
 10
21.123736
 20
62.071297
 30
0.0
 10
20.800027
 20
61.819733
 30
0.0
 10
20.647395
 20
61.701117
 30
0.0
 11
11.025217
 21
68.944699
 31
0.0
 11
11.205806
 21
68.941791
 31
0.0
 11
11.389109
 21
68.935493
 31
0.0
 11
11.573896
 21
68.925720
 31
0.0
 11
12.978196
 21
68.781557
 31
0.0
 11
14.365534
 21
68.521181
 31
0.0
 11
15.783645
 21
68.135605
 31
0.0
 11
18.725001
 21
66.857115
 31
0.0
 11
20.771706
 21
65.167373
 31
0.0
 11
21.818486
 21
63.153318
 31
0.0
 11
21.858657
 21
62.999615
 31
0.0
 11
21.901239
 21
62.859782
 31
0.0
 11
21.937026
 21
62.764094
 31
0.0
 11
21.966012
 21
62.691068
 31
0.0
 11
21.966854
 21
62.650810
 31
0.0
 11
21.939830
 21
62.630463
 31
0.0
 11
21.639681
 21
62.435371
 31
0.0
 11
21.109972
 21
62.054476
 31
0.0
 11
20.647395
 21
61.701117
 31
0.0
  0
LINE
  5
118
100
AcDbEntity
  8
Capa_1
 62
7
100
AcDbLine
 10
11.025217
 20
68.944699
 30
0.0
 11
11.025217
 21
68.944699
 31
0.0
  0
SPLINE
  5
119
100
AcDbEntity
  8
Capa_1
 62
7
100
AcDbSpline
 70
0
 71
3
 72
55
 73
51
 74
49
 40
0.000000
 40
0.000000
 40
0.000000
 40
0.000000
 40
1.968310
 40
3.977768
 40
6.072339
 40
7.555746
 40
8.743963
 40
9.510017
 40
9.733004
 40
9.990762
 40
10.420913
 40
11.876479
 40
13.508646
 40
15.058063
 40
16.354297
 40
17.569736
 40
18.705487
 40
19.087722
 40
19.453825
 40
19.740798
 40
19.837685
 40
19.907005
 40
19.934615
 40
20.011914
 40
20.201277
 40
20.461825
 40
20.720600
 40
20.905277
 40
20.975974
 40
21.070097
 40
21.308366
 40
21.639239
 40
22.007729
 40
22.344711
 40
22.577436
 40
23.338660
 40
24.152670
 40
24.962415
 40
25.872993
 40
26.883794
 40
27.950476
 40
30.375476
 40
32.863947
 40
35.016038
 40
35.496162
 40
35.734826
 40
35.986476
 40
36.332049
 40
36.776845
 40
37.289844
 40
37.289844
 40
37.289844
 40
37.289844
 10
20.167320
 20
61.904441
 30
0.0
 10
19.892445
 20
62.504810
 30
0.0
 10
19.336949
 20
63.718100
 30
0.0
 10
17.890758
 20
65.187841
 30
0.0
 10
16.301485
 20
66.179285
 30
0.0
 10
14.796261
 20
66.736843
 30
0.0
 10
13.686836
 20
66.952622
 30
0.0
 10
12.901217
 20
66.875533
 30
0.0
 10
12.606732
 20
66.555675
 30
0.0
 10
12.558768
 20
66.245729
 30
0.0
 10
12.583422
 20
65.535099
 30
0.0
 10
12.793437
 20
64.369903
 30
0.0
 10
13.316919
 20
62.912085
 30
0.0
 10
14.015501
 20
61.582867
 30
0.0
 10
14.890977
 20
60.537793
 30
0.0
 10
15.847897
 20
59.774193
 30
0.0
 10
16.684035
 20
59.383019
 30
0.0
 10
17.292606
 20
59.228010
 30
0.0
 10
17.632734
 20
59.161838
 30
0.0
 10
17.879612
 20
59.138613
 30
0.0
 10
18.034224
 20
59.137084
 30
0.0
 10
18.093450
 20
59.134490
 30
0.0
 10
18.162492
 20
59.120361
 30
0.0
 10
18.045618
 20
59.012321
 30
0.0
 10
17.994155
 20
58.885174
 30
0.0
 10
17.839045
 20
58.684256
 30
0.0
 10
17.711794
 20
58.488134
 30
0.0
 10
17.606215
 20
58.362940
 30
0.0
 10
17.543415
 20
58.246760
 30
0.0
 10
17.392074
 20
58.297103
 30
0.0
 10
17.182983
 20
58.279060
 30
0.0
 10
16.865379
 20
58.305182
 30
0.0
 10
16.522083
 20
58.319012
 30
0.0
 10
16.209812
 20
58.343099
 30
0.0
 10
15.768292
 20
58.388034
 30
0.0
 10
15.182355
 20
58.545951
 30
0.0
 10
14.445711
 20
58.848157
 30
0.0
 10
13.711905
 20
59.273943
 30
0.0
 10
13.008989
 20
59.857856
 30
0.0
 10
12.322117
 20
60.581393
 30
0.0
 10
11.403541
 20
61.772101
 30
0.0
 10
10.468142
 20
63.547150
 30
0.0
 10
9.658617
 20
65.764183
 30
0.0
 10
9.411421
 20
67.480311
 30
0.0
 10
9.374003
 20
68.420212
 30
0.0
 10
9.472029
 20
68.761088
 30
0.0
 10
9.766772
 20
68.841689
 30
0.0
 10
10.098109
 20
68.906069
 30
0.0
 10
10.535909
 20
68.940356
 30
0.0
 10
10.854551
 20
68.943184
 30
0.0
 10
11.025217
 20
68.944699
 30
0.0
 11
20.167320
 21
61.904441
 31
0.0
 11
19.246749
 21
63.644209
 31
0.0
 11
17.865498
 21
65.103684
 31
0.0
 11
16.089175
 21
66.213597
 31
0.0
 11
14.697342
 21
66.726722
 31
0.0
 11
13.523065
 21
66.908194
 31
0.0
 11
12.779214
 21
66.725095
 31
0.0
 11
12.633928
 21
66.555936
 31
0.0
 11
12.574042
 21
66.305232
 31
0.0
 11
12.576357
 21
65.875087
 31
0.0
 11
12.819391
 21
64.439954
 31
0.0
 11
13.362366
 21
62.900750
 31
0.0
 11
14.105252
 21
61.541040
 31
0.0
 11
14.939688
 21
60.549102
 31
0.0
 11
15.896159
 21
59.799133
 31
0.0
 11
16.929072
 21
59.326881
 31
0.0
 11
17.298895
 21
59.230267
 31
0.0
 11
17.658866
 21
59.163542
 31
0.0
 11
17.944757
 21
59.138647
 31
0.0
 11
18.041619
 21
59.136426
 31
0.0
 11
18.110692
 21
59.130575
 31
0.0
 11
18.137036
 21
59.122312
 31
0.0
 11
18.096837
 21
59.056287
 31
0.0
 11
17.991440
 21
58.898967
 31
0.0
 11
17.843639
 21
58.684397
 31
0.0
 11
17.694687
 21
58.472790
 31
0.0
 11
17.586236
 21
58.323310
 31
0.0
 11
17.541688
 21
58.268415
 31
0.0
 11
17.447799
 21
58.275047
 31
0.0
 11
17.209833
 21
58.287071
 31
0.0
 11
16.879291
 21
58.301862
 31
0.0
 11
16.511340
 21
58.321805
 31
0.0
 11
16.175331
 21
58.347388
 31
0.0
 11
15.944033
 21
58.373110
 31
0.0
 11
15.205061
 21
58.555822
 31
0.0
 11
14.452279
 21
58.865549
 31
0.0
 11
13.753364
 21
59.274455
 31
0.0
 11
13.046651
 21
59.848660
 31
0.0
 11
12.347679
 21
60.578835
 31
0.0
 11
11.696169
 21
61.423433
 31
0.0
 11
10.528150
 21
63.548605
 31
0.0
 11
9.708548
 21
65.898231
 31
0.0
 11
9.392716
 21
68.027020
 31
0.0
 11
9.407431
 21
68.506919
 31
0.0
 11
9.499946
 21
68.726922
 31
0.0
 11
9.729981
 21
68.828959
 31
0.0
 11
10.069267
 21
68.894578
 31
0.0
 11
10.512335
 21
68.933738
 31
0.0
 11
11.025217
 21
68.944699
 31
0.0
  0
LINE
  5
11a
100
AcDbEntity
  8
Capa_1
 62
7
100
AcDbLine
 10
26.388991
 20
68.359000
 30
0.0
 11
26.388991
 21
68.358997
 31
0.0
  0
SPLINE
  5
11b
100
AcDbEntity
  8
Capa_1
 62
7
100
AcDbSpline
 70
0
 71
3
 72
34
 73
30
 74
28
 40
0.000000
 40
0.000000
 40
0.000000
 40
0.000000
 40
0.019308
 40
0.032335
 40
0.038894
 40
0.190125
 40
0.840953
 40
2.321467
 40
3.483187
 40
3.885514
 40
3.966170
 40
4.070755
 40
4.270672
 40
4.522704
 40
4.801538
 40
5.071699
 40
5.274715
 40
5.455898
 40
5.528880
 40
5.568627
 40
6.570007
 40
8.389609
 40
9.440675
 40
9.508226
 40
9.638635
 40
9.900845
 40
10.351043
 40
10.785499
 40
11.065136
 40
11.065136
 40
11.065136
 40
11.065136
 10
26.388991
 20
68.358997
 30
0.0
 10
26.395414
 20
68.359150
 30
0.0
 10
26.406170
 20
68.359407
 30
0.0
 10
26.419225
 20
68.359682
 30
0.0
 10
26.474719
 20
68.341619
 30
0.0
 10
26.301301
 20
67.973136
 30
0.0
 10
26.357956
 20
67.356652
 30
0.0
 10
26.111989
 20
66.167354
 30
0.0
 10
25.872985
 20
65.245004
 30
0.0
 10
25.908438
 20
64.629925
 30
0.0
 10
25.749610
 20
64.498167
 30
0.0
 10
25.617309
 20
64.491324
 30
0.0
 10
25.439517
 20
64.441660
 30
0.0
 10
25.200484
 20
64.393056
 30
0.0
 10
24.940120
 20
64.330735
 30
0.0
 10
24.698870
 20
64.273868
 30
0.0
 10
24.480708
 20
64.214845
 30
0.0
 10
24.351202
 20
64.186206
 30
0.0
 10
24.228482
 20
64.149041
 30
0.0
 10
24.133056
 20
64.560469
 30
0.0
 10
24.498065
 20
65.437479
 30
0.0
 10
24.683775
 20
66.719908
 30
0.0
 10
24.642961
 20
67.739563
 30
0.0
 10
24.866743
 20
68.108451
 30
0.0
 10
25.030502
 20
68.137919
 30
0.0
 10
25.295402
 20
68.201531
 30
0.0
 10
25.677287
 20
68.263028
 30
0.0
 10
26.059249
 20
68.325301
 30
0.0
 10
26.296201
 20
68.349517
 30
0.0
 10
26.388991
 20
68.359000
 30
0.0
 11
26.388991
 21
68.358997
 31
0.0
 11
26.408294
 21
68.359447
 31
0.0
 11
26.421302
 21
68.358751
 31
0.0
 11
26.427572
 21
68.356822
 31
0.0
 11
26.415269
 21
68.206093
 31
0.0
 11
26.317585
 21
67.562637
 31
0.0
 11
26.085017
 21
66.100504
 31
0.0
 11
25.899709
 21
64.953658
 31
0.0
 11
25.817554
 21
64.559809
 31
0.0
 11
25.753508
 21
64.510784
 31
0.0
 11
25.650919
 21
64.490450
 31
0.0
 11
25.455492
 21
64.448321
 31
0.0
 11
25.209496
 21
64.393487
 31
0.0
 11
24.937900
 21
64.330369
 31
0.0
 11
24.675388
 21
64.266541
 31
0.0
 11
24.478806
 21
64.215832
 31
0.0
 11
24.303210
 21
64.171187
 31
0.0
 11
24.230287
 21
64.168262
 31
0.0
 11
24.215746
 21
64.205253
 31
0.0
 11
24.365360
 21
65.195394
 31
0.0
 11
24.649296
 21
66.992706
 31
0.0
 11
24.819961
 21
68.029824
 31
0.0
 11
24.859554
 21
68.084554
 31
0.0
 11
24.981799
 21
68.129974
 31
0.0
 11
25.238120
 21
68.185234
 31
0.0
 11
25.681402
 21
68.263841
 31
0.0
 11
26.111033
 21
68.328407
 31
0.0
 11
26.388991
 21
68.359000
 31
0.0
  0
LINE
  5
11c
100
AcDbEntity
  8
Capa_1
 62
7
100
AcDbLine
 10
30.496069
 20
65.042035
 30
0.0
 11
30.469778
 21
64.904982
 31
0.0
  0
LINE
  5
11d
100
AcDbEntity
  8
Capa_1
 62
7
100
AcDbLine
 10
30.469778
 20
64.904982
 30
0.0
 11
29.680751
 21
64.895959
 31
0.0
  0
LINE
  5
11e
100
AcDbEntity
  8
Capa_1
 62
7
100
AcDbLine
 10
29.680751
 20
64.895959
 30
0.0
 11
28.891569
 21
64.886937
 31
0.0
  0
LINE
  5
11f
100
AcDbEntity
  8
Capa_1
 62
7
100
AcDbLine
 10
28.891569
 20
64.886937
 30
0.0
 11
28.911948
 21
64.996454
 31
0.0
  0
SPLINE
  5
120
100
AcDbEntity
  8
Capa_1
 62
7
100
AcDbSpline
 70
0
 71
3
 72
28
 73
24
 74
22
 40
0.000000
 40
0.000000
 40
0.000000
 40
0.000000
 40
0.105694
 40
0.241943
 40
0.429628
 40
0.655489
 40
0.819099
 40
0.885051
 40
0.911359
 40
0.973613
 40
1.058618
 40
1.216157
 40
1.468541
 40
1.761132
 40
2.061255
 40
2.333396
 40
2.518655
 40
2.703970
 40
2.976199
 40
3.276382
 40
3.565151
 40
3.807503
 40
3.951036
 40
3.951036
 40
3.951036
 40
3.951036
 10
30.110578
 20
68.218365
 30
0.0
 10
30.145751
 20
68.216263
 30
0.0
 10
30.226266
 20
68.211452
 30
0.0
 10
30.368073
 20
68.187641
 30
0.0
 10
30.545686
 20
68.153133
 30
0.0
 10
30.746189
 20
68.126313
 30
0.0
 10
30.868319
 20
68.077232
 30
0.0
 10
30.988397
 20
68.087069
 30
0.0
 10
30.979656
 20
68.028360
 30
0.0
 10
30.972485
 20
67.974504
 30
0.0
 10
30.951757
 20
67.873115
 30
0.0
 10
30.923392
 20
67.711676
 30
0.0
 10
30.885264
 20
67.480096
 30
0.0
 10
30.841739
 20
67.201964
 30
0.0
 10
30.797639
 20
66.917020
 30
0.0
 10
30.758144
 20
66.667630
 30
0.0
 10
30.723217
 20
66.456256
 30
0.0
 10
30.688102
 20
66.244885
 30
0.0
 10
30.648594
 20
65.995417
 30
0.0
 10
30.604514
 20
65.711761
 30
0.0
 10
30.561666
 20
65.437994
 30
0.0
 10
30.526327
 20
65.215896
 30
0.0
 10
30.504272
 20
65.089172
 30
0.0
 10
30.496069
 20
65.042035
 30
0.0
 11
30.110578
 21
68.218365
 31
0.0
 11
30.215973
 21
68.210419
 31
0.0
 11
30.350694
 21
68.190071
 31
0.0
 11
30.535427
 21
68.156917
 31
0.0
 11
30.757437
 21
68.115391
 31
0.0
 11
30.917961
 21
68.083757
 31
0.0
 11
30.982209
 21
68.068867
 31
0.0
 11
30.981809
 21
68.042562
 31
0.0
 11
30.972723
 21
67.980975
 31
0.0
 11
30.957008
 21
67.897435
 31
0.0
 11
30.929012
 21
67.742404
 31
0.0
 11
30.887770
 21
67.493412
 31
0.0
 11
30.842201
 21
67.204391
 31
0.0
 11
30.796032
 21
66.907841
 31
0.0
 11
30.753257
 21
66.639082
 31
0.0
 11
30.723194
 21
66.456279
 31
0.0
 11
30.693037
 21
66.273434
 31
0.0
 11
30.650175
 21
66.004601
 31
0.0
 11
30.603875
 21
65.708010
 31
0.0
 11
30.559142
 21
65.422726
 31
0.0
 11
30.520424
 21
65.183487
 31
0.0
 11
30.496069
 21
65.042035
 31
0.0
  0
LINE
  5
121
100
AcDbEntity
  8
Capa_1
 62
7
100
AcDbLine
 10
30.110578
 20
68.218365
 30
0.0
 11
30.110578
 21
68.218365
 31
0.0
  0
SPLINE
  5
122
100
AcDbEntity
  8
Capa_1
 62
7
100
AcDbSpline
 70
0
 71
3
 72
19
 73
15
 74
13
 40
0.000000
 40
0.000000
 40
0.000000
 40
0.000000
 40
0.258666
 40
0.829779
 40
1.589698
 40
2.340146
 40
2.886449
 40
3.110380
 40
3.171481
 40
3.302526
 40
3.476873
 40
3.620830
 40
3.730704
 40
3.827531
 40
3.827531
 40
3.827531
 40
3.827531
 10
28.911948
 20
64.996454
 30
0.0
 10
28.926086
 20
65.081494
 30
0.0
 10
28.971441
 20
65.354292
 30
0.0
 10
29.053794
 20
65.878606
 30
0.0
 10
29.171997
 20
66.557676
 30
0.0
 10
29.251054
 20
67.255714
 30
0.0
 10
29.401481
 20
67.707562
 30
0.0
 10
29.357690
 20
68.045170
 30
0.0
 10
29.490603
 20
68.106804
 30
0.0
 10
29.606795
 20
68.137285
 30
0.0
 10
29.753732
 20
68.170659
 30
0.0
 10
29.893734
 20
68.196992
 30
0.0
 10
30.009295
 20
68.216434
 30
0.0
 10
30.078268
 20
68.217749
 30
0.0
 10
30.110578
 20
68.218365
 30
0.0
 11
28.911948
 21
64.996454
 31
0.0
 11
28.954132
 21
65.251657
 31
0.0
 11
29.045234
 21
65.815458
 31
0.0
 11
29.165519
 21
66.565797
 31
0.0
 11
29.285168
 21
67.306645
 31
0.0
 11
29.374630
 21
67.845573
 31
0.0
 11
29.414579
 21
68.065912
 31
0.0
 11
29.468213
 21
68.095181
 31
0.0
 11
29.593627
 21
68.133183
 31
0.0
 11
29.763667
 21
68.171696
 31
0.0
 11
29.905089
 21
68.198594
 31
0.0
 11
30.013836
 21
68.214291
 31
0.0
 11
30.110578
 21
68.218365
 31
0.0
  0
LINE
  5
123
100
AcDbEntity
  8
Capa_1
 62
7
100
AcDbLine
 10
33.856588
 20
67.075582
 30
0.0
 11
33.856588
 21
67.075584
 31
0.0
  0
SPLINE
  5
124
100
AcDbEntity
  8
Capa_1
 62
7
100
AcDbSpline
 70
0
 71
3
 72
34
 73
30
 74
28
 40
0.000000
 40
0.000000
 40
0.000000
 40
0.000000
 40
0.071463
 40
0.193111
 40
0.347456
 40
0.824075
 40
1.338588
 40
1.608569
 40
1.715548
 40
1.969920
 40
2.317034
 40
2.704891
 40
3.065985
 40
3.322166
 40
3.566764
 40
3.672027
 40
3.842993
 40
3.984434
 40
4.238709
 40
4.550808
 40
4.902460
 40
5.090418
 40
5.158771
 40
5.844281
 40
6.991442
 40
7.615294
 40
7.618568
 40
7.622769
 40
7.628139
 40
7.628139
 40
7.628139
 40
7.628139
 10
33.856588
 20
67.075584
 30
0.0
 10
33.879956
 20
67.070747
 30
0.0
 10
33.943103
 20
67.057678
 30
0.0
 10
34.049851
 20
67.010808
 30
0.0
 10
34.275063
 20
66.903037
 30
0.0
 10
34.622008
 20
66.717800
 30
0.0
 10
34.921217
 20
66.476708
 30
0.0
 10
35.283495
 20
66.364068
 30
0.0
 10
35.242305
 20
66.137579
 30
0.0
 10
35.219568
 20
65.911299
 30
0.0
 10
35.164292
 20
65.582041
 30
0.0
 10
35.104320
 20
65.223075
 30
0.0
 10
35.056061
 20
64.890790
 30
0.0
 10
34.997374
 20
64.610287
 30
0.0
 10
35.004233
 20
64.401955
 30
0.0
 10
34.872406
 20
64.253084
 30
0.0
 10
34.724143
 20
64.330439
 30
0.0
 10
34.544257
 20
64.361066
 30
0.0
 10
34.312004
 20
64.416638
 30
0.0
 10
34.011407
 20
64.473361
 30
0.0
 10
33.739335
 20
64.543367
 30
0.0
 10
33.531878
 20
64.573319
 30
0.0
 10
33.286150
 20
64.786863
 30
0.0
 10
33.687405
 20
65.542141
 30
0.0
 10
33.781152
 20
66.212349
 30
0.0
 10
33.678622
 20
66.944667
 30
0.0
 10
33.847320
 20
67.074531
 30
0.0
 10
33.851628
 20
67.075411
 30
0.0
 10
33.854805
 20
67.075521
 30
0.0
 10
33.856588
 20
67.075582
 30
0.0
 11
33.856588
 21
67.075584
 31
0.0
 11
33.926170
 21
67.059297
 31
0.0
 11
34.039377
 21
67.014774
 31
0.0
 11
34.178763
 21
66.948486
 31
0.0
 11
34.595489
 21
66.717175
 31
0.0
 11
35.036304
 21
66.451833
 31
0.0
 11
35.258542
 21
66.298536
 31
0.0
 11
35.252971
 21
66.191702
 31
0.0
 11
35.219986
 21
65.939478
 31
0.0
 11
35.166758
 21
65.596469
 31
0.0
 11
35.104202
 21
65.213691
 31
0.0
 11
35.046783
 21
64.857191
 31
0.0
 11
35.006992
 21
64.604119
 31
0.0
 11
34.960591
 21
64.363962
 31
0.0
 11
34.884950
 21
64.290759
 31
0.0
 11
34.717174
 21
64.323635
 31
0.0
 11
34.579534
 21
64.356204
 31
0.0
 11
34.331056
 21
64.410189
 31
0.0
 11
34.025532
 21
64.473912
 31
0.0
 11
33.682050
 21
64.549276
 31
0.0
 11
33.502136
 21
64.603673
 31
0.0
 11
33.450096
 21
64.647988
 31
0.0
 11
33.545626
 21
65.326810
 31
0.0
 11
33.729826
 21
66.459086
 31
0.0
 11
33.844454
 21
67.072317
 31
0.0
 11
33.847171
 21
67.074144
 31
0.0
 11
33.851230
 21
67.075226
 31
0.0
 11
33.856588
 21
67.075582
 31
0.0
  0
LINE
  5
125
100
AcDbEntity
  8
Capa_1
 62
7
100
AcDbLine
 10
43.196723
 20
53.315219
 30
0.0
 11
43.403624
 21
52.806521
 31
0.0
  0
LINE
  5
126
100
AcDbEntity
  8
Capa_1
 62
7
100
AcDbLine
 10
43.403624
 20
52.806521
 30
0.0
 11
43.399426
 21
51.802970
 31
0.0
  0
LINE
  5
127
100
AcDbEntity
  8
Capa_1
 62
7
100
AcDbLine
 10
43.399426
 20
51.802970
 30
0.0
 11
43.399585
 21
51.802970
 31
0.0
  0
SPLINE
  5
128
100
AcDbEntity
  8
Capa_1
 62
7
100
AcDbSpline
 70
0
 71
3
 72
13
 73
9
 74
7
 40
0.000000
 40
0.000000
 40
0.000000
 40
0.000000
 40
2.701964
 40
5.416747
 40
8.168784
 40
11.208608
 40
14.206775
 40
17.302637
 40
17.302637
 40
17.302637
 40
17.302637
 10
29.669706
 20
62.428851
 30
0.0
 10
30.571869
 20
62.384756
 30
0.0
 10
32.380476
 20
62.296357
 30
0.0
 10
35.017199
 20
61.525881
 30
0.0
 10
37.568158
 20
60.256158
 30
0.0
 10
39.894714
 20
58.443576
 30
0.0
 10
41.887554
 20
56.097139
 30
0.0
 10
42.755694
 20
54.252384
 30
0.0
 10
43.196723
 20
53.315219
 30
0.0
 11
29.669706
 21
62.428851
 31
0.0
 11
32.361220
 21
62.191439
 31
0.0
 11
34.974299
 21
61.455324
 31
0.0
 11
37.435832
 21
60.224648
 31
0.0
 11
39.834577
 21
58.357417
 31
0.0
 11
41.754541
 21
56.054649
 31
0.0
 11
43.196723
 21
53.315219
 31
0.0
  0
LINE
  5
129
100
AcDbEntity
  8
Capa_1
 62
7
100
AcDbLine
 10
43.362095
 20
50.640431
 30
0.0
 11
43.328803
 21
50.481599
 31
0.0
  0
LINE
  5
12a
100
AcDbEntity
  8
Capa_1
 62
7
100
AcDbLine
 10
43.328803
 20
50.481599
 30
0.0
 11
43.197040
 21
50.822909
 31
0.0
  0
SPLINE
  5
12b
100
AcDbEntity
  8
Capa_1
 62
7
100
AcDbSpline
 70
0
 71
3
 72
10
 73
6
 74
4
 40
0.000000
 40
0.000000
 40
0.000000
 40
0.000000
 40
0.527362
 40
0.945234
 40
1.163489
 40
1.163489
 40
1.163489
 40
1.163489
 10
43.399585
 20
51.802970
 30
0.0
 10
43.397575
 20
51.627219
 30
0.0
 10
43.393971
 20
51.312207
 30
0.0
 10
43.387012
 20
50.924188
 30
0.0
 10
43.368460
 20
50.712918
 30
0.0
 10
43.362095
 20
50.640431
 30
0.0
 11
43.399585
 21
51.802970
 31
0.0
 11
43.392915
 21
51.275650
 31
0.0
 11
43.379454
 21
50.857995
 31
0.0
 11
43.362095
 21
50.640431
 31
0.0
  0
LINE
  5
12c
100
AcDbEntity
  8
Capa_1
 62
7
100
AcDbLine
 10
29.669713
 20
62.428851
 30
0.0
 11
29.669706
 21
62.428851
 31
0.0
  0
SPLINE
  5
12d
100
AcDbEntity
  8
Capa_1
 62
7
100
AcDbSpline
 70
0
 71
3
 72
43
 73
39
 74
37
 40
0.000000
 40
0.000000
 40
0.000000
 40
0.000000
 40
1.421479
 40
2.884787
 40
4.330256
 40
5.766748
 40
7.241563
 40
8.679155
 40
11.145380
 40
13.605023
 40
16.118083
 40
17.020728
 40
18.127224
 40
19.008206
 40
22.020831
 40
24.956178
 40
27.912481
 40
29.305118
 40
30.652177
 40
32.010421
 40
32.675544
 40
33.433623
 40
34.083875
 40
34.323710
 40
34.515528
 40
34.617812
 40
34.769914
 40
35.334471
 40
36.116186
 40
36.816887
 40
37.354567
 40
38.143028
 40
41.419848
 40
44.705521
 40
48.003059
 40
50.152628
 40
52.274767
 40
54.381888
 40
54.381888
 40
54.381888
 40
54.381888
 10
43.197040
 20
50.822909
 30
0.0
 10
43.011404
 20
51.259319
 30
0.0
 10
42.634671
 20
52.144982
 30
0.0
 10
41.900896
 20
53.392106
 30
0.0
 10
41.058836
 20
54.573260
 30
0.0
 10
40.083596
 20
55.653218
 30
0.0
 10
39.014722
 20
56.635558
 30
0.0
 10
37.581664
 20
57.717108
 30
0.0
 10
35.715813
 20
58.752669
 30
0.0
 10
33.361844
 20
59.560009
 30
0.0
 10
31.420715
 20
59.906837
 30
0.0
 10
29.912724
 20
59.942775
 30
0.0
 10
28.949352
 20
59.924988
 30
0.0
 10
27.284934
 20
59.818097
 30
0.0
 10
25.051696
 20
59.274772
 30
0.0
 10
22.329653
 20
58.049378
 30
0.0
 10
20.369512
 20
56.582749
 30
0.0
 10
19.018902
 20
55.245665
 30
0.0
 10
18.143839
 20
54.194415
 30
0.0
 10
17.505855
 20
53.266262
 30
0.0
 10
17.049953
 20
52.459806
 30
0.0
 10
16.734142
 20
51.840634
 30
0.0
 10
16.501741
 20
51.353913
 30
0.0
 10
16.364777
 20
51.003135
 30
0.0
 10
16.296479
 20
50.870103
 30
0.0
 10
16.237822
 20
50.661849
 30
0.0
 10
16.140753
 20
51.100074
 30
0.0
 10
16.177590
 20
51.454492
 30
0.0
 10
16.161870
 20
52.201331
 30
0.0
 10
16.172847
 20
52.861564
 30
0.0
 10
16.343789
 20
53.524116
 30
0.0
 10
17.009395
 20
54.907704
 30
0.0
 10
18.272280
 20
57.029745
 30
0.0
 10
20.628501
 20
59.367197
 30
0.0
 10
23.113540
 20
60.932662
 30
0.0
 10
25.475293
 20
61.840613
 30
0.0
 10
27.556174
 20
62.330009
 30
0.0
 10
28.966870
 20
62.395982
 30
0.0
 10
29.669713
 20
62.428851
 30
0.0
 11
43.197040
 21
50.822909
 31
0.0
 11
42.612915
 21
52.118826
 31
0.0
 11
41.879959
 21
53.385335
 31
0.0
 11
41.035306
 21
54.558340
 31
0.0
 11
40.076627
 21
55.628127
 31
0.0
 11
38.990148
 21
56.625444
 31
0.0
 11
37.841552
 21
57.489967
 31
0.0
 11
35.685204
 21
58.686808
 31
0.0
 11
33.361780
 21
59.493992
 31
0.0
 11
30.882965
 21
59.907450
 31
0.0
 11
29.980754
 21
59.935437
 31
0.0
 11
28.874462
 21
59.914222
 31
0.0
 11
27.995675
 21
59.852069
 31
0.0
 11
25.058963
 21
59.180036
 31
0.0
 11
22.389598
 21
57.959070
 31
0.0
 11
20.013002
 21
56.200798
 31
0.0
 11
19.024786
 21
55.219540
 31
0.0
 11
18.162492
 21
54.184641
 31
0.0
 11
17.397796
 21
53.062114
 31
0.0
 11
17.068794
 21
52.484060
 31
0.0
 11
16.722332
 21
51.809785
 31
0.0
 11
16.450715
 21
51.218978
 31
0.0
 11
16.358522
 21
50.997571
 31
0.0
 11
16.284583
 21
50.820576
 31
0.0
 11
16.244902
 21
50.726303
 31
0.0
 11
16.194261
 21
50.869727
 31
0.0
 11
16.164613
 21
51.433504
 31
0.0
 11
16.166653
 21
52.215217
 31
0.0
 11
16.205016
 21
52.914867
 31
0.0
 11
16.335776
 21
53.436405
 31
0.0
 11
16.653728
 21
54.157916
 31
0.0
 11
18.380659
 21
56.942742
 31
0.0
 11
20.700440
 21
59.269599
 31
0.0
 11
23.495019
 21
61.020052
 31
0.0
 11
25.499209
 21
61.797142
 31
0.0
 11
27.568889
 21
62.266076
 31
0.0
 11
29.669713
 21
62.428851
 31
0.0
  0
LINE
  5
12e
100
AcDbEntity
  8
Capa_1
 62
7
100
AcDbLine
 10
30.645722
 20
55.220893
 30
0.0
 11
30.496846
 21
55.007613
 31
0.0
  0
LINE
  5
12f
100
AcDbEntity
  8
Capa_1
 62
7
100
AcDbLine
 10
30.496846
 20
55.007613
 30
0.0
 11
29.636882
 21
54.999213
 31
0.0
  0
LINE
  5
130
100
AcDbEntity
  8
Capa_1
 62
7
100
AcDbLine
 10
29.636882
 20
54.999213
 30
0.0
 11
28.776917
 21
54.990967
 31
0.0
  0
LINE
  5
131
100
AcDbEntity
  8
Capa_1
 62
7
100
AcDbLine
 10
28.776917
 20
54.990967
 30
0.0
 11
28.623530
 21
55.212647
 31
0.0
  0
SPLINE
  5
132
100
AcDbEntity
  8
Capa_1
 62
7
100
AcDbSpline
 70
0
 71
3
 72
19
 73
15
 74
13
 40
0.000000
 40
0.000000
 40
0.000000
 40
0.000000
 40
1.099232
 40
2.188761
 40
3.253050
 40
3.515417
 40
3.627959
 40
3.658930
 40
4.304839
 40
4.832656
 40
5.319028
 40
5.867627
 40
6.437244
 40
6.973804
 40
6.973804
 40
6.973804
 40
6.973804
 10
29.801781
 20
57.473010
 30
0.0
 10
30.170725
 20
57.463979
 30
0.0
 10
30.905356
 20
57.445996
 30
0.0
 10
31.947047
 20
57.315194
 30
0.0
 10
32.842120
 20
57.184651
 30
0.0
 10
33.188710
 20
57.051599
 30
0.0
 10
33.415524
 20
57.031019
 30
0.0
 10
33.208696
 20
56.805939
 30
0.0
 10
32.773221
 20
56.857756
 30
0.0
 10
32.274722
 20
56.597856
 30
0.0
 10
31.813841
 20
56.357262
 30
0.0
 10
31.386681
 20
56.031207
 30
0.0
 10
30.981512
 20
55.654523
 30
0.0
 10
30.755400
 20
55.362528
 30
0.0
 10
30.645722
 20
55.220893
 30
0.0
 11
29.801781
 21
57.473010
 31
0.0
 11
30.900102
 21
57.428254
 31
0.0
 11
31.982813
 21
57.306563
 31
0.0
 11
33.028514
 21
57.108521
 31
0.0
 11
33.283178
 21
57.045413
 31
0.0
 11
33.388666
 21
57.006194
 31
0.0
 11
33.369669
 21
56.981735
 31
0.0
 11
32.752286
 21
56.791899
 31
0.0
 11
32.263753
 21
56.592083
 31
0.0
 11
31.838752
 21
56.355585
 31
0.0
 11
31.398026
 21
56.028902
 31
0.0
 11
30.985280
 21
55.636341
 31
0.0
 11
30.645722
 21
55.220893
 31
0.0
  0
LINE
  5
133
100
AcDbEntity
  8
Capa_1
 62
7
100
AcDbLine
 10
29.801781
 20
57.473010
 30
0.0
 11
29.801781
 21
57.473010
 31
0.0
  0
SPLINE
  5
134
100
AcDbEntity
  8
Capa_1
 62
7
100
AcDbSpline
 70
0
 71
3
 72
19
 73
15
 74
13
 40
0.000000
 40
0.000000
 40
0.000000
 40
0.000000
 40
0.727435
 40
1.479254
 40
2.234225
 40
2.606798
 40
2.997048
 40
3.238263
 40
3.333709
 40
3.863245
 40
4.609705
 40
5.431683
 40
6.272030
 40
7.123574
 40
7.123574
 40
7.123574
 40
7.123574
 10
28.623530
 20
55.212647
 30
0.0
 10
28.474049
 20
55.404274
 30
0.0
 10
28.170076
 20
55.793951
 30
0.0
 10
27.581581
 20
56.264111
 30
0.0
 10
27.058591
 20
56.591719
 30
0.0
 10
26.551556
 20
56.768298
 30
0.0
 10
26.335792
 20
56.906599
 30
0.0
 10
25.895361
 20
56.910384
 30
0.0
 10
26.210155
 20
57.109639
 30
0.0
 10
26.624010
 20
57.115286
 30
0.0
 10
27.326156
 20
57.298395
 30
0.0
 10
28.116727
 20
57.393475
 30
0.0
 10
28.954097
 20
57.465208
 30
0.0
 10
29.517976
 20
57.470398
 30
0.0
 10
29.801781
 20
57.473010
 30
0.0
 11
28.623530
 21
55.212647
 31
0.0
 11
28.154371
 21
55.768572
 31
0.0
 11
27.576829
 21
56.249900
 31
0.0
 11
26.923980
 21
56.629069
 31
0.0
 11
26.579146
 21
56.770136
 31
0.0
 11
26.209465
 21
56.895162
 31
0.0
 11
25.974566
 21
56.950000
 31
0.0
 11
26.051499
 21
57.006490
 31
0.0
 11
26.565782
 21
57.132668
 31
0.0
 11
27.298582
 21
57.274820
 31
0.0
 11
28.112688
 21
57.388305
 31
0.0
 11
28.950444
 21
57.454259
 31
0.0
 11
29.801781
 21
57.473010
 31
0.0
  0
LINE
  5
135
100
AcDbEntity
  8
Capa_1
 62
7
100
AcDbLine
 10
34.313016
 20
56.384209
 30
0.0
 11
34.313016
 21
56.384209
 31
0.0
  0
SPLINE
  5
136
100
AcDbEntity
  8
Capa_1
 62
7
100
AcDbSpline
 70
0
 71
3
 72
40
 73
36
 74
34
 40
0.000000
 40
0.000000
 40
0.000000
 40
0.000000
 40
0.321804
 40
0.619454
 40
0.869163
 40
1.308122
 40
1.776567
 40
2.197865
 40
2.684238
 40
3.222192
 40
3.686636
 40
4.162001
 40
4.653929
 40
5.127012
 40
6.861427
 40
8.588830
 40
10.432251
 40
11.130677
 40
11.811712
 40
12.508860
 40
13.070099
 40
13.592786
 40
14.125785
 40
14.977675
 40
15.786837
 40
16.628711
 40
17.111218
 40
17.542523
 40
18.021100
 40
19.040782
 40
20.069365
 40
21.155310
 40
21.403542
 40
21.700349
 40
22.021889
 40
22.021889
 40
22.021889
 40
22.021889
 10
34.313016
 20
56.384209
 30
0.0
 10
34.420274
 20
56.381629
 30
0.0
 10
34.626739
 20
56.376663
 30
0.0
 10
34.915518
 20
56.350076
 30
0.0
 10
35.239773
 20
56.291998
 30
0.0
 10
35.605426
 20
56.164459
 30
0.0
 10
36.011421
 20
55.987837
 30
0.0
 10
36.415552
 20
55.766883
 30
0.0
 10
36.786484
 20
55.455546
 30
0.0
 10
37.133796
 20
55.100991
 30
0.0
 10
37.439467
 20
54.711350
 30
0.0
 10
37.648432
 20
54.279424
 30
0.0
 10
37.806216
 20
53.824877
 30
0.0
 10
37.983330
 20
52.940487
 30
0.0
 10
37.755906
 20
51.569603
 30
0.0
 10
36.564514
 20
50.163238
 30
0.0
 10
35.179501
 20
49.626815
 30
0.0
 10
34.103143
 20
49.568198
 30
0.0
 10
33.412298
 20
49.661466
 30
0.0
 10
32.798048
 20
49.873453
 30
0.0
 10
32.267078
 20
50.142576
 30
0.0
 10
31.827289
 20
50.458754
 30
0.0
 10
31.379489
 20
50.912866
 30
0.0
 10
30.955972
 20
51.517921
 30
0.0
 10
30.674770
 20
52.315955
 30
0.0
 10
30.637623
 20
53.033230
 30
0.0
 10
30.690386
 20
53.617374
 30
0.0
 10
30.811318
 20
54.068208
 30
0.0
 10
31.081014
 20
54.653703
 30
0.0
 10
31.575713
 20
55.352111
 30
0.0
 10
32.430126
 20
55.977019
 30
0.0
 10
33.174669
 20
56.269771
 30
0.0
 10
33.711180
 20
56.361172
 30
0.0
 10
33.999709
 20
56.382000
 30
0.0
 10
34.205832
 20
56.383454
 30
0.0
 10
34.313016
 20
56.384209
 30
0.0
 11
34.313016
 21
56.384209
 31
0.0
 11
34.634614
 21
56.372696
 31
0.0
 11
34.930880
 21
56.344029
 31
0.0
 11
35.176402
 21
56.298493
 31
0.0
 11
35.593890
 21
56.162887
 31
0.0
 11
36.022897
 21
55.974754
 31
0.0
 11
36.389189
 21
55.766615
 31
0.0
 11
36.767868
 21
55.461392
 31
0.0
 11
37.143312
 21
55.076117
 31
0.0
 11
37.423231
 21
54.705505
 31
0.0
 11
37.637509
 21
54.281174
 31
0.0
 11
37.797264
 21
53.815909
 31
0.0
 11
37.888060
 21
53.351621
 31
0.0
 11
37.610582
 21
51.639546
 31
0.0
 11
36.507132
 21
50.310516
 31
0.0
 11
34.795268
 21
49.626612
 31
0.0
 11
34.097792
 21
49.590195
 31
0.0
 11
33.423030
 21
49.682412
 31
0.0
 11
32.762187
 21
49.904452
 31
0.0
 11
32.263178
 21
50.161316
 31
0.0
 11
31.839732
 21
50.467740
 31
0.0
 11
31.462906
 21
50.844688
 31
0.0
 11
30.982974
 21
51.548521
 31
0.0
 11
30.716094
 21
52.312406
 31
0.0
 11
30.656767
 21
53.152186
 31
0.0
 11
30.706396
 21
53.632134
 31
0.0
 11
30.818031
 21
54.048741
 31
0.0
 11
31.013945
 21
54.485380
 31
0.0
 11
31.612972
 21
55.310557
 31
0.0
 11
32.435757
 21
55.927816
 31
0.0
 11
33.450873
 21
56.313583
 31
0.0
 11
33.695654
 21
56.354831
 31
0.0
 11
33.991530
 21
56.378316
 31
0.0
 11
34.313016
 21
56.384209
 31
0.0
  0
LINE
  5
137
100
AcDbEntity
  8
Capa_1
 62
7
100
AcDbLine
 10
24.975681
 20
56.378610
 30
0.0
 11
24.975681
 21
56.378610
 31
0.0
  0
SPLINE
  5
138
100
AcDbEntity
  8
Capa_1
 62
7
100
AcDbSpline
 70
0
 71
3
 72
37
 73
33
 74
31
 40
0.000000
 40
0.000000
 40
0.000000
 40
0.000000
 40
0.494742
 40
0.879911
 40
1.320840
 40
2.431327
 40
3.527925
 40
4.631314
 40
5.308493
 40
6.039412
 40
6.741641
 40
7.862583
 40
9.006054
 40
10.167799
 40
11.374524
 40
12.554791
 40
13.739633
 40
14.208722
 40
14.691177
 40
15.147910
 40
16.273741
 40
17.390087
 40
18.513395
 40
18.930217
 40
19.405034
 40
19.822494
 40
20.241737
 40
20.709650
 40
21.148566
 40
21.387558
 40
21.657606
 40
22.042408
 40
22.042408
 40
22.042408
 40
22.042408
 10
24.975681
 20
56.378610
 30
0.0
 10
25.140785
 20
56.379139
 30
0.0
 10
25.434426
 20
56.380079
 30
0.0
 10
25.871745
 20
56.314006
 30
0.0
 10
26.488400
 20
56.119943
 30
0.0
 10
27.287193
 20
55.711436
 30
0.0
 10
28.061727
 20
54.901871
 30
0.0
 10
28.507435
 20
54.030087
 30
0.0
 10
28.636422
 20
53.195313
 30
0.0
 10
28.597447
 20
52.488770
 30
0.0
 10
28.389656
 20
51.656013
 30
0.0
 10
27.845281
 20
50.803219
 30
0.0
 10
26.953124
 20
50.063869
 30
0.0
 10
25.847602
 20
49.622721
 30
0.0
 10
24.647303
 20
49.544801
 30
0.0
 10
23.474335
 20
49.834367
 30
0.0
 10
22.654715
 20
50.341896
 30
0.0
 10
22.155587
 20
50.852160
 30
0.0
 10
21.871876
 20
51.227896
 30
0.0
 10
21.530366
 20
51.827651
 30
0.0
 10
21.303099
 20
52.721507
 30
0.0
 10
21.406960
 20
53.856189
 30
0.0
 10
21.780728
 20
54.684931
 30
0.0
 10
22.218315
 20
55.196643
 30
0.0
 10
22.531661
 20
55.500560
 30
0.0
 10
22.870427
 20
55.779577
 30
0.0
 10
23.254082
 20
55.988063
 30
0.0
 10
23.658942
 20
56.165736
 30
0.0
 10
24.021695
 20
56.288212
 30
0.0
 10
24.331423
 20
56.354109
 30
0.0
 10
24.629148
 20
56.376679
 30
0.0
 10
24.847420
 20
56.377895
 30
0.0
 10
24.975681
 20
56.378610
 30
0.0
 11
24.975681
 21
56.378610
 31
0.0
 11
25.470262
 21
56.365984
 31
0.0
 11
25.851009
 21
56.307783
 31
0.0
 11
26.273096
 21
56.180264
 31
0.0
 11
27.253560
 21
55.658852
 31
0.0
 11
28.016928
 21
54.871580
 31
0.0
 11
28.502656
 21
53.880855
 31
0.0
 11
28.610922
 21
53.212387
 31
0.0
 11
28.573474
 21
52.482428
 31
0.0
 11
28.396094
 21
51.802970
 31
0.0
 11
27.806745
 21
50.849462
 31
0.0
 11
26.927030
 21
50.118964
 31
0.0
 11
25.848402
 21
49.687439
 31
0.0
 11
24.644356
 21
49.607071
 31
0.0
 11
23.498928
 21
49.891720
 31
0.0
 11
22.494884
 21
50.520802
 31
0.0
 11
22.166150
 21
50.855433
 31
0.0
 11
21.875636
 21
51.240615
 31
0.0
 11
21.651720
 21
51.638694
 31
0.0
 11
21.367347
 21
52.728018
 31
0.0
 11
21.467865
 21
53.839830
 31
0.0
 11
21.942783
 21
54.857805
 31
0.0
 11
22.210044
 21
55.177667
 31
0.0
 11
22.550175
 21
55.508970
 31
0.0
 11
22.877418
 21
55.768172
 31
0.0
 11
23.241995
 21
55.975170
 31
0.0
 11
23.670518
 21
56.163079
 31
0.0
 11
24.087871
 21
56.298961
 31
0.0
 11
24.321989
 21
56.346983
 31
0.0
 11
24.590951
 21
56.371176
 31
0.0
 11
24.975681
 21
56.378610
 31
0.0
  0
LINE
  5
139
100
AcDbEntity
  8
Capa_1
 62
7
100
AcDbLine
 10
43.716933
 20
55.194448
 30
0.0
 11
43.716933
 21
55.194448
 31
0.0
  0
SPLINE
  5
13a
100
AcDbEntity
  8
Capa_1
 62
7
100
AcDbSpline
 70
0
 71
3
 72
40
 73
36
 74
34
 40
0.000000
 40
0.000000
 40
0.000000
 40
0.000000
 40
0.004285
 40
0.009598
 40
0.016110
 40
0.390027
 40
1.033111
 40
1.614341
 40
4.298974
 40
6.903319
 40
9.504163
 40
10.687548
 40
11.872579
 40
13.200033
 40
13.581484
 40
13.670724
 40
13.905156
 40
15.400186
 40
16.843860
 40
18.283526
 40
20.413131
 40
22.452721
 40
24.550019
 40
24.922818
 40
25.237135
 40
25.424924
 40
25.566954
 40
25.730717
 40
25.986950
 40
26.244169
 40
26.546482
 40
26.828543
 40
27.073868
 40
27.203494
 40
27.242207
 40
27.242207
 40
27.242207
 40
27.242207
 10
43.716933
 20
55.194448
 30
0.0
 10
43.718342
 20
55.194181
 30
0.0
 10
43.721500
 20
55.193584
 30
0.0
 10
43.726305
 20
55.191037
 30
0.0
 10
43.830333
 20
55.115659
 30
0.0
 10
44.050435
 20
54.848984
 30
0.0
 10
44.419701
 20
54.467947
 30
0.0
 10
45.274912
 20
53.482902
 30
0.0
 10
46.419822
 20
51.887411
 30
0.0
 10
47.625880
 20
49.537804
 30
0.0
 10
48.287073
 20
47.506728
 30
0.0
 10
48.627660
 20
45.878792
 30
0.0
 10
48.797762
 20
44.675994
 30
0.0
 10
48.825625
 20
43.649413
 30
0.0
 10
48.885228
 20
43.129456
 30
0.0
 10
48.847916
 20
42.823259
 30
0.0
 10
48.775257
 20
43.912934
 30
0.0
 10
48.655869
 20
44.472353
 30
0.0
 10
48.331032
 20
46.075816
 30
0.0
 10
47.815630
 20
47.615019
 30
0.0
 10
47.074993
 20
49.356183
 30
0.0
 10
46.018391
 20
51.158967
 30
0.0
 10
45.091488
 20
52.348948
 30
0.0
 10
44.483085
 20
53.049437
 30
0.0
 10
44.294335
 20
53.272109
 30
0.0
 10
44.151902
 20
53.432097
 30
0.0
 10
44.051367
 20
53.564479
 30
0.0
 10
43.995374
 20
53.745953
 30
0.0
 10
43.957177
 20
53.967820
 30
0.0
 10
43.905520
 20
54.235120
 30
0.0
 10
43.848584
 20
54.509231
 30
0.0
 10
43.780628
 20
54.779398
 30
0.0
 10
43.743004
 20
54.990024
 30
0.0
 10
43.692231
 20
55.128970
 30
0.0
 10
43.712314
 20
55.182205
 30
0.0
 10
43.716933
 20
55.194448
 30
0.0
 11
43.716933
 21
55.194448
 31
0.0
 11
43.721103
 21
55.193464
 31
0.0
 11
43.725879
 21
55.191138
 31
0.0
 11
43.731245
 21
55.187446
 31
0.0
 11
43.994752
 21
54.922159
 31
0.0
 11
44.429850
 21
54.448611
 31
0.0
 11
44.812267
 21
54.010906
 31
0.0
 11
46.378010
 21
51.830148
 31
0.0
 11
47.562088
 21
49.510543
 31
0.0
 11
48.371287
 21
47.038785
 31
0.0
 11
48.614235
 21
45.880607
 31
0.0
 11
48.770864
 21
44.705973
 31
0.0
 11
48.858984
 21
43.381447
 31
0.0
 11
48.868309
 21
43.000110
 31
0.0
 11
48.855918
 21
42.911735
 31
0.0
 11
48.825693
 21
43.144210
 31
0.0
 11
48.626125
 21
44.625860
 31
0.0
 11
48.310045
 21
46.034508
 31
0.0
 11
47.869590
 21
47.405142
 31
0.0
 11
47.023333
 21
49.359385
 31
0.0
 11
45.990991
 21
51.118418
 31
0.0
 11
44.713950
 21
52.782097
 31
0.0
 11
44.470866
 21
53.064744
 31
0.0
 11
44.265978
 21
53.303105
 31
0.0
 11
44.143648
 21
53.445583
 31
0.0
 11
44.062658
 21
53.562258
 31
0.0
 11
44.007346
 21
53.716397
 31
0.0
 11
43.956347
 21
53.967504
 31
0.0
 11
43.907863
 21
54.220112
 31
0.0
 11
43.844985
 21
54.515814
 31
0.0
 11
43.781336
 21
54.790600
 31
0.0
 11
43.725869
 21
55.029572
 31
0.0
 11
43.705232
 21
55.157545
 31
0.0
 11
43.716933
 21
55.194448
 31
0.0
  0
LINE
  5
13b
100
AcDbEntity
  8
Capa_1
 62
7
100
AcDbLine
 10
10.988037
 20
43.864945
 30
0.0
 11
10.988196
 21
43.864945
 31
0.0
  0
SPLINE
  5
13c
100
AcDbEntity
  8
Capa_1
 62
7
100
AcDbSpline
 70
0
 71
3
 72
22
 73
18
 74
16
 40
0.000000
 40
0.000000
 40
0.000000
 40
0.000000
 40
0.008458
 40
0.023418
 40
0.047890
 40
0.475442
 40
1.008529
 40
1.379104
 40
1.548498
 40
1.689654
 40
1.904547
 40
2.959132
 40
4.143533
 40
5.266641
 40
7.612037
 40
9.990065
 40
12.337929
 40
12.337929
 40
12.337929
 40
12.337929
 10
15.818803
 20
54.985990
 30
0.0
 10
15.821361
 20
54.984401
 30
0.0
 10
15.828443
 20
54.980003
 30
0.0
 10
15.825128
 20
54.961609
 30
0.0
 10
15.796114
 20
54.816008
 30
0.0
 10
15.719637
 20
54.486597
 30
0.0
 10
15.644245
 20
54.052976
 30
0.0
 10
15.579914
 20
53.701602
 30
0.0
 10
15.563306
 20
53.472207
 30
0.0
 10
15.478122
 20
53.314731
 30
0.0
 10
15.149842
 20
52.976688
 30
0.0
 10
14.631849
 20
52.342956
 30
0.0
 10
13.957968
 20
51.447220
 30
0.0
 10
13.093403
 20
50.157951
 30
0.0
 10
12.205633
 20
48.416291
 30
0.0
 10
11.396036
 20
46.191260
 30
0.0
 10
11.123457
 20
44.637076
 30
0.0
 10
10.988037
 20
43.864945
 30
0.0
 11
15.818803
 21
54.985990
 31
0.0
 11
15.825341
 21
54.980625
 31
0.0
 11
15.825826
 21
54.965673
 31
0.0
 11
15.821137
 21
54.941654
 31
0.0
 11
15.731826
 21
54.523534
 31
0.0
 11
15.633998
 21
53.999500
 31
0.0
 11
15.576899
 21
53.633351
 31
0.0
 11
15.549891
 21
53.466123
 31
0.0
 11
15.486125
 21
53.340191
 31
0.0
 11
15.346040
 21
53.177234
 31
0.0
 11
14.664545
 21
52.372426
 31
0.0
 11
13.954572
 21
51.424406
 31
0.0
 11
13.332871
 21
50.489067
 31
0.0
 11
12.254091
 21
48.406492
 31
0.0
 11
11.460565
 21
46.164767
 31
0.0
 11
10.988037
 21
43.864945
 31
0.0
  0
LINE
  5
13d
100
AcDbEntity
  8
Capa_1
 62
7
100
AcDbLine
 10
10.893457
 20
43.062072
 30
0.0
 11
10.860944
 21
42.733519
 31
0.0
  0
LINE
  5
13e
100
AcDbEntity
  8
Capa_1
 62
7
100
AcDbLine
 10
10.860944
 20
42.733519
 30
0.0
 11
10.855496
 21
43.025515
 31
0.0
  0
SPLINE
  5
13f
100
AcDbEntity
  8
Capa_1
 62
7
100
AcDbSpline
 70
0
 71
3
 72
10
 73
6
 74
4
 40
0.000000
 40
0.000000
 40
0.000000
 40
0.000000
 40
0.286231
 40
0.576671
 40
0.808463
 40
0.808463
 40
0.808463
 40
0.808463
 10
10.988196
 20
43.864945
 30
0.0
 10
10.976141
 20
43.770299
 30
0.0
 10
10.951855
 20
43.579616
 30
0.0
 10
10.919947
 20
43.312016
 30
0.0
 10
10.901600
 20
43.138907
 30
0.0
 10
10.893457
 20
43.062072
 30
0.0
 11
10.988196
 21
43.864945
 31
0.0
 11
10.952408
 21
43.580959
 31
0.0
 11
10.918333
 21
43.292526
 31
0.0
 11
10.893457
 21
43.062072
 31
0.0
  0
LINE
  5
140
100
AcDbEntity
  8
Capa_1
 62
7
100
AcDbLine
 10
15.818803
 20
54.985990
 30
0.0
 11
15.818803
 21
54.985990
 31
0.0
  0
SPLINE
  5
141
100
AcDbEntity
  8
Capa_1
 62
7
100
AcDbSpline
 70
0
 71
3
 72
19
 73
15
 74
13
 40
0.000000
 40
0.000000
 40
0.000000
 40
0.000000
 40
1.253012
 40
2.680128
 40
4.052002
 40
6.369056
 40
8.724749
 40
11.079594
 40
11.721072
 40
12.497198
 40
13.072067
 40
13.181966
 40
13.249127
 40
13.279321
 40
13.279321
 40
13.279321
 40
13.279321
 10
10.855496
 20
43.025515
 30
0.0
 10
10.865532
 20
43.443310
 30
0.0
 10
10.886996
 20
44.336952
 30
0.0
 10
11.062239
 20
45.678329
 30
0.0
 10
11.381137
 20
47.354813
 30
0.0
 10
12.011917
 20
49.277543
 30
0.0
 10
13.031977
 20
51.391672
 30
0.0
 10
14.005002
 20
52.895703
 30
0.0
 10
14.799321
 20
53.871367
 30
0.0
 10
15.233082
 20
54.373149
 30
0.0
 10
15.551965
 20
54.743878
 30
0.0
 10
15.731818
 20
54.916722
 30
0.0
 10
15.780115
 20
54.967825
 30
0.0
 10
15.809645
 20
54.981690
 30
0.0
 10
15.818803
 20
54.985990
 30
0.0
 11
10.855496
 21
43.025515
 31
0.0
 11
10.906246
 21
44.277499
 31
0.0
 11
11.078515
 21
45.694179
 31
0.0
 11
11.343659
 21
47.040186
 31
0.0
 11
12.054758
 21
49.245425
 31
0.0
 11
13.075281
 21
51.368588
 31
0.0
 11
14.369714
 21
53.335754
 31
0.0
 11
14.773043
 21
53.834572
 31
0.0
 11
15.277154
 21
54.424694
 31
0.0
 11
15.663550
 21
54.850338
 31
0.0
 11
15.741621
 21
54.927685
 31
0.0
 11
15.791986
 21
54.972115
 31
0.0
 11
15.818803
 21
54.985990
 31
0.0
  0
LINE
  5
142
100
AcDbEntity
  8
Capa_1
 62
7
100
AcDbLine
 10
42.903482
 20
49.042777
 30
0.0
 11
43.043179
 21
48.726358
 31
0.0
  0
LINE
  5
143
100
AcDbEntity
  8
Capa_1
 62
7
100
AcDbLine
 10
43.043179
 20
48.726358
 30
0.0
 11
42.960263
 21
48.412427
 31
0.0
  0
SPLINE
  5
144
100
AcDbEntity
  8
Capa_1
 62
7
100
AcDbSpline
 70
0
 71
3
 72
16
 73
12
 74
10
 40
0.000000
 40
0.000000
 40
0.000000
 40
0.000000
 40
0.314820
 40
1.037748
 40
1.863374
 40
3.081715
 40
4.232340
 40
5.400311
 40
6.090803
 40
6.833972
 40
7.464525
 40
7.464525
 40
7.464525
 40
7.464525
 10
38.216924
 20
54.746108
 30
0.0
 10
38.304901
 20
54.688747
 30
0.0
 10
38.594899
 20
54.499667
 30
0.0
 10
39.059640
 20
54.084656
 30
0.0
 10
39.753006
 20
53.477522
 30
0.0
 10
40.504985
 20
52.721043
 30
0.0
 10
41.264027
 20
51.817371
 30
0.0
 10
41.839907
 20
50.994135
 30
0.0
 10
42.283464
 20
50.248764
 30
0.0
 10
42.616163
 20
49.646064
 30
0.0
 10
42.813090
 20
49.232573
 30
0.0
 10
42.903482
 20
49.042777
 30
0.0
 11
38.216924
 21
54.746108
 31
0.0
 11
38.477984
 21
54.570156
 31
0.0
 11
39.034426
 21
54.108640
 31
0.0
 11
39.649525
 21
53.557901
 31
0.0
 11
40.507900
 21
52.693293
 31
0.0
 11
41.247044
 21
51.811474
 31
0.0
 11
41.915954
 21
50.854023
 31
0.0
 11
42.271385
 21
50.262035
 31
0.0
 11
42.627149
 21
49.609554
 31
0.0
 11
42.903482
 21
49.042777
 31
0.0
  0
LINE
  5
145
100
AcDbEntity
  8
Capa_1
 62
7
100
AcDbLine
 10
38.216924
 20
54.746108
 30
0.0
 11
38.216924
 21
54.746108
 31
0.0
  0
SPLINE
  5
146
100
AcDbEntity
  8
Capa_1
 62
7
100
AcDbSpline
 70
0
 71
3
 72
31
 73
27
 74
25
 40
0.000000
 40
0.000000
 40
0.000000
 40
0.000000
 40
0.220882
 40
0.487906
 40
0.743304
 40
0.958635
 40
1.120665
 40
1.194571
 40
1.262123
 40
1.442931
 40
1.699407
 40
2.702780
 40
3.724029
 40
4.717751
 40
5.449946
 40
6.331517
 40
7.085495
 40
7.413777
 40
7.556665
 40
7.658794
 40
8.442880
 40
9.237375
 40
10.009109
 40
10.132705
 40
10.222449
 40
10.259481
 40
10.259481
 40
10.259481
 40
10.259481
 10
42.960263
 20
48.412427
 30
0.0
 10
42.941029
 20
48.341421
 30
0.0
 10
42.898543
 20
48.184575
 30
0.0
 10
42.830922
 20
47.944976
 30
0.0
 10
42.762257
 20
47.713250
 30
0.0
 10
42.701793
 20
47.498394
 30
0.0
 10
42.651194
 20
47.385905
 30
0.0
 10
42.620991
 20
47.239271
 30
0.0
 10
42.533040
 20
47.365286
 30
0.0
 10
42.456320
 20
47.480137
 30
0.0
 10
42.203818
 20
47.916714
 30
0.0
 10
41.818056
 20
48.550081
 30
0.0
 10
41.226524
 20
49.373347
 30
0.0
 10
40.652871
 20
50.086031
 30
0.0
 10
40.044837
 20
50.709768
 30
0.0
 10
39.477667
 20
51.253146
 30
0.0
 10
38.979599
 20
51.694123
 30
0.0
 10
38.674470
 20
51.941371
 30
0.0
 10
38.517266
 20
52.082100
 30
0.0
 10
38.576248
 20
52.440792
 30
0.0
 10
38.638256
 20
52.980306
 30
0.0
 10
38.557909
 20
53.773772
 30
0.0
 10
38.385417
 20
54.312333
 30
0.0
 10
38.259336
 20
54.614888
 30
0.0
 10
38.226564
 20
54.692269
 30
0.0
 10
38.219104
 20
54.733937
 30
0.0
 10
38.216924
 20
54.746108
 30
0.0
 11
42.960263
 21
48.412427
 31
0.0
 11
42.902172
 21
48.199320
 31
0.0
 11
42.829578
 21
47.942353
 31
0.0
 11
42.758184
 21
47.697138
 31
0.0
 11
42.694664
 21
47.491389
 31
0.0
 11
42.642716
 21
47.337911
 31
0.0
 11
42.613664
 21
47.269956
 31
0.0
 11
42.566171
 21
47.317995
 31
0.0
 11
42.466077
 21
47.468570
 31
0.0
 11
42.335047
 21
47.689049
 31
0.0
 11
41.807719
 21
48.542679
 31
0.0
 11
41.214485
 21
49.373956
 31
0.0
 11
40.584316
 21
50.142312
 31
0.0
 11
40.077560
 21
50.670807
 31
0.0
 11
39.440413
 21
51.280079
 31
0.0
 11
38.874032
 21
51.777768
 31
0.0
 11
38.622543
 21
51.988772
 31
0.0
 11
38.533715
 21
52.100694
 31
0.0
 11
38.536922
 21
52.202773
 31
0.0
 11
38.610190
 21
52.983429
 31
0.0
 11
38.529769
 21
53.773842
 31
0.0
 11
38.302019
 21
54.511205
 31
0.0
 11
38.254796
 21
54.625423
 31
0.0
 11
38.224242
 21
54.709806
 31
0.0
 11
38.216924
 21
54.746108
 31
0.0
  0
LINE
  5
147
100
AcDbEntity
  8
Capa_1
 62
7
100
AcDbLine
 10
20.752402
 20
52.110834
 30
0.0
 11
20.798604
 21
51.939090
 31
0.0
  0
LINE
  5
148
100
AcDbEntity
  8
Capa_1
 62
7
100
AcDbLine
 10
20.798604
 20
51.939090
 30
0.0
 11
20.471139
 21
51.665139
 31
0.0
  0
SPLINE
  5
149
100
AcDbEntity
  8
Capa_1
 62
7
100
AcDbSpline
 70
0
 71
3
 72
13
 73
9
 74
7
 40
0.000000
 40
0.000000
 40
0.000000
 40
0.000000
 40
0.007419
 40
0.017136
 40
0.033133
 40
0.818711
 40
1.651632
 40
2.407248
 40
2.407248
 40
2.407248
 40
2.407248
 10
20.926008
 20
54.477603
 30
0.0
 10
20.928496
 20
54.476546
 30
0.0
 10
20.934243
 20
54.474104
 30
0.0
 10
20.933008
 20
54.461144
 30
0.0
 10
20.839142
 20
54.218690
 30
0.0
 10
20.693387
 20
53.675650
 30
0.0
 10
20.623158
 20
52.885069
 30
0.0
 10
20.710741
 20
52.360401
 30
0.0
 10
20.752402
 20
52.110834
 30
0.0
 11
20.926008
 21
54.477603
 31
0.0
 11
20.932275
 21
54.473633
 31
0.0
 11
20.932954
 21
54.463939
 31
0.0
 11
20.928191
 21
54.448668
 31
0.0
 11
20.720332
 21
53.691088
 31
0.0
 11
20.657869
 21
52.860513
 31
0.0
 11
20.752402
 21
52.110834
 31
0.0
  0
LINE
  5
14a
100
AcDbEntity
  8
Capa_1
 62
7
100
AcDbLine
 10
17.143600
 20
47.672714
 30
0.0
 11
16.939032
 21
47.306669
 31
0.0
  0
LINE
  5
14b
100
AcDbEntity
  8
Capa_1
 62
7
100
AcDbLine
 10
16.939032
 20
47.306669
 30
0.0
 11
16.855649
 21
47.563508
 31
0.0
  0
SPLINE
  5
14c
100
AcDbEntity
  8
Capa_1
 62
7
100
AcDbSpline
 70
0
 71
3
 72
13
 73
9
 74
7
 40
0.000000
 40
0.000000
 40
0.000000
 40
0.000000
 40
1.429327
 40
2.890200
 40
4.282317
 40
4.602386
 40
4.940277
 40
5.222929
 40
5.222929
 40
5.222929
 40
5.222929
 10
20.471139
 20
51.665139
 30
0.0
 10
20.115623
 20
51.347394
 30
0.0
 10
19.396744
 20
50.704892
 30
0.0
 10
18.451997
 20
49.630948
 30
0.0
 10
17.820514
 20
48.780127
 30
0.0
 10
17.457361
 20
48.201171
 30
0.0
 10
17.293783
 20
47.933660
 30
0.0
 10
17.190599
 20
47.754376
 30
0.0
 10
17.143600
 20
47.672714
 30
0.0
 11
20.471139
 21
51.665139
 31
0.0
 11
19.424463
 21
50.691772
 31
0.0
 11
18.452988
 21
49.600724
 31
0.0
 11
17.631919
 21
48.476520
 31
0.0
 11
17.461022
 21
48.205894
 31
0.0
 11
17.285579
 21
47.917120
 31
0.0
 11
17.143600
 21
47.672714
 31
0.0
  0
LINE
  5
14d
100
AcDbEntity
  8
Capa_1
 62
7
100
AcDbLine
 10
16.632724
 20
48.340711
 30
0.0
 11
16.493182
 21
48.861233
 31
0.0
  0
LINE
  5
14e
100
AcDbEntity
  8
Capa_1
 62
7
100
AcDbLine
 10
16.493182
 20
48.861233
 30
0.0
 11
16.619967
 21
49.136738
 31
0.0
  0
SPLINE
  5
14f
100
AcDbEntity
  8
Capa_1
 62
7
100
AcDbSpline
 70
0
 71
3
 72
10
 73
6
 74
4
 40
0.000000
 40
0.000000
 40
0.000000
 40
0.000000
 40
0.209755
 40
0.500221
 40
0.808588
 40
0.808588
 40
0.808588
 40
0.808588
 10
16.855649
 20
47.563508
 30
0.0
 10
16.835085
 20
47.630335
 30
0.0
 10
16.786043
 20
47.789704
 30
0.0
 10
16.712393
 20
48.048996
 30
0.0
 10
16.659804
 20
48.241554
 30
0.0
 10
16.632724
 20
48.340711
 30
0.0
 11
16.855649
 21
47.563508
 31
0.0
 11
16.794567
 21
47.764172
 31
0.0
 11
16.714483
 21
48.043380
 31
0.0
 11
16.632724
 21
48.340711
 31
0.0
  0
LINE
  5
150
100
AcDbEntity
  8
Capa_1
 62
7
100
AcDbLine
 10
20.926012
 20
54.477603
 30
0.0
 11
20.926008
 21
54.477603
 31
0.0
  0
SPLINE
  5
151
100
AcDbEntity
  8
Capa_1
 62
7
100
AcDbSpline
 70
0
 71
3
 72
13
 73
9
 74
7
 40
0.000000
 40
0.000000
 40
0.000000
 40
0.000000
 40
1.995942
 40
4.037551
 40
6.067063
 40
6.537036
 40
6.816638
 40
6.926134
 40
6.926134
 40
6.926134
 40
6.926134
 10
16.619967
 20
49.136738
 30
0.0
 10
16.925877
 20
49.728946
 30
0.0
 10
17.544695
 20
50.926911
 30
0.0
 10
18.785130
 20
52.534851
 30
0.0
 10
19.849986
 20
53.620515
 30
0.0
 10
20.563340
 20
54.208000
 30
0.0
 10
20.777646
 20
54.401858
 30
0.0
 10
20.893430
 20
54.460969
 30
0.0
 10
20.926012
 20
54.477603
 30
0.0
 11
16.619967
 21
49.136738
 31
0.0
 11
17.588202
 21
50.882105
 31
0.0
 11
18.818359
 21
52.511486
 31
0.0
 11
20.252260
 21
53.947747
 31
0.0
 11
20.610077
 21
54.252447
 31
0.0
 11
20.829747
 21
54.425428
 31
0.0
 11
20.926012
 21
54.477603
 31
0.0
  0
LINE
  5
152
100
AcDbEntity
  8
Capa_1
 62
7
100
AcDbLine
 10
25.964143
 20
53.575014
 30
0.0
 11
25.964143
 21
53.575014
 31
0.0
  0
SPLINE
  5
153
100
AcDbEntity
  8
Capa_1
 62
7
100
AcDbSpline
 70
0
 71
3
 72
25
 73
21
 74
19
 40
0.000000
 40
0.000000
 40
0.000000
 40
0.000000
 40
0.232715
 40
0.472093
 40
0.721652
 40
1.261069
 40
1.759164
 40
2.264177
 40
2.792043
 40
3.319477
 40
3.859673
 40
4.393296
 40
4.914404
 40
5.440882
 40
5.618036
 40
5.770666
 40
5.961145
 40
6.643344
 40
7.299855
 40
7.970955
 40
7.970955
 40
7.970955
 40
7.970955
 10
25.964143
 20
53.575014
 30
0.0
 10
25.886559
 20
53.569855
 30
0.0
 10
25.729170
 20
53.559389
 30
0.0
 10
25.496530
 20
53.490652
 30
0.0
 10
25.188190
 20
53.339091
 30
0.0
 10
24.856261
 20
53.047794
 30
0.0
 10
24.638889
 20
52.562493
 30
0.0
 10
24.666032
 20
52.034589
 30
0.0
 10
24.915945
 20
51.560923
 30
0.0
 10
25.340114
 20
51.217466
 30
0.0
 10
25.866910
 20
51.064381
 30
0.0
 10
26.408177
 20
51.128122
 30
0.0
 10
26.883476
 20
51.387558
 30
0.0
 10
27.138327
 20
51.719901
 30
0.0
 10
27.259317
 20
51.979525
 30
0.0
 10
27.296829
 20
52.150210
 30
0.0
 10
27.308039
 20
52.492428
 30
0.0
 10
27.168904
 20
53.008844
 30
0.0
 10
26.636881
 20
53.488113
 30
0.0
 10
26.190026
 20
53.545835
 30
0.0
 10
25.964143
 20
53.575014
 30
0.0
 11
25.964143
 21
53.575014
 31
0.0
 11
25.732655
 21
53.551153
 31
0.0
 11
25.502453
 21
53.485512
 31
0.0
 11
25.278411
 21
53.375579
 31
0.0
 11
24.878410
 21
53.013681
 31
0.0
 11
24.679103
 21
52.557200
 31
0.0
 11
24.700798
 21
52.052653
 31
0.0
 11
24.943919
 21
51.584108
 31
0.0
 11
25.353172
 21
51.251393
 31
0.0
 11
25.871893
 21
51.100593
 31
0.0
 11
26.401956
 21
51.162129
 31
0.0
 11
26.857882
 21
51.414487
 31
0.0
 11
27.184708
 21
51.827239
 31
0.0
 11
27.256197
 21
51.989328
 31
0.0
 11
27.289947
 21
52.138179
 31
0.0
 11
27.298425
 21
52.328470
 31
0.0
 11
27.106171
 21
52.983019
 31
0.0
 11
26.617410
 21
53.421332
 31
0.0
 11
25.964143
 21
53.575014
 31
0.0
  0
LINE
  5
154
100
AcDbEntity
  8
Capa_1
 62
7
100
AcDbLine
 10
33.359557
 20
53.574536
 30
0.0
 11
33.359557
 21
53.574536
 31
0.0
  0
LINE
  5
155
100
AcDbEntity
  8
Capa_1
 62
7
100
AcDbLine
 10
29.298994
 20
52.532871
 30
0.0
 11
29.632214
 21
52.532871
 31
0.0
  0
LINE
  5
156
100
AcDbEntity
  8
Capa_1
 62
7
100
AcDbLine
 10
29.632214
 20
52.532871
 30
0.0
 11
29.965280
 21
52.532871
 31
0.0
  0
LINE
  5
157
100
AcDbEntity
  8
Capa_1
 62
7
100
AcDbLine
 10
29.965280
 20
52.532871
 30
0.0
 11
30.011639
 21
52.259854
 31
0.0
  0
SPLINE
  5
158
100
AcDbEntity
  8
Capa_1
 62
7
100
AcDbSpline
 70
0
 71
3
 72
25
 73
21
 74
19
 40
0.000000
 40
0.000000
 40
0.000000
 40
0.000000
 40
0.062810
 40
0.126450
 40
0.190994
 40
0.705245
 40
1.197214
 40
1.701997
 40
1.875539
 40
2.010019
 40
2.159214
 40
2.704701
 40
3.232657
 40
3.766357
 40
4.342460
 40
4.881890
 40
5.435048
 40
6.262160
 40
7.078255
 40
7.944872
 40
7.944872
 40
7.944872
 40
7.944872
 10
33.359557
 20
53.574536
 30
0.0
 10
33.338635
 20
53.573659
 30
0.0
 10
33.296516
 20
53.571893
 30
0.0
 10
33.233130
 20
53.565499
 30
0.0
 10
33.021225
 20
53.534982
 30
0.0
 10
32.675833
 20
53.413295
 30
0.0
 10
32.288535
 20
53.069648
 30
0.0
 10
32.124490
 20
52.705086
 30
0.0
 10
32.061953
 20
52.441205
 30
0.0
 10
32.053223
 20
52.287783
 30
0.0
 10
32.102425
 20
52.014690
 30
0.0
 10
32.265342
 20
51.629406
 30
0.0
 10
32.669211
 20
51.251934
 30
0.0
 10
33.201293
 20
51.075535
 30
0.0
 10
33.764995
 20
51.111475
 30
0.0
 10
34.274392
 20
51.370698
 30
0.0
 10
34.689744
 20
51.884091
 30
0.0
 10
34.769387
 20
52.677128
 30
0.0
 10
34.224589
 20
53.428369
 30
0.0
 10
33.653616
 20
53.524848
 30
0.0
 10
33.359557
 20
53.574536
 30
0.0
 11
33.359557
 21
53.574536
 31
0.0
 11
33.296830
 21
53.571296
 31
0.0
 11
33.233494
 21
53.565086
 31
0.0
 11
33.169612
 21
53.555868
 31
0.0
 11
32.686056
 21
53.380858
 31
0.0
 11
32.320022
 21
53.052145
 31
0.0
 11
32.101812
 21
52.596964
 31
0.0
 11
32.064603
 21
52.427457
 31
0.0
 11
32.058504
 21
52.293116
 31
0.0
 11
32.081278
 21
52.145669
 31
0.0
 11
32.300400
 21
51.646129
 31
0.0
 11
32.687089
 21
51.286670
 31
0.0
 11
33.191858
 21
51.113339
 31
0.0
 11
33.766661
 21
51.152009
 31
0.0
 11
34.246524
 21
51.398418
 31
0.0
 11
34.590545
 21
51.831584
 31
0.0
 11
34.664319
 21
52.655399
 31
0.0
 11
34.187169
 21
53.317470
 31
0.0
 11
33.359557
 21
53.574536
 31
0.0
  0
LINE
  5
159
100
AcDbEntity
  8
Capa_1
 62
7
100
AcDbLine
 10
31.111640
 20
50.220083
 30
0.0
 11
31.366144
 21
49.966667
 31
0.0
  0
LINE
  5
15a
100
AcDbEntity
  8
Capa_1
 62
7
100
AcDbLine
 10
31.366144
 20
49.966667
 30
0.0
 11
31.190822
 21
49.991091
 31
0.0
  0
SPLINE
  5
15b
100
AcDbEntity
  8
Capa_1
 62
7
100
AcDbSpline
 70
0
 71
3
 72
10
 73
6
 74
4
 40
0.000000
 40
0.000000
 40
0.000000
 40
0.000000
 40
0.750245
 40
1.543838
 40
2.348398
 40
2.348398
 40
2.348398
 40
2.348398
 10
30.011639
 20
52.259854
 30
0.0
 10
30.072750
 20
52.016660
 30
0.0
 10
30.198504
 20
51.516221
 30
0.0
 10
30.579576
 20
50.820351
 30
0.0
 10
30.933476
 20
50.421086
 30
0.0
 10
31.111640
 20
50.220083
 30
0.0
 11
30.011639
 21
52.259854
 31
0.0
 11
30.224437
 21
51.540421
 31
0.0
 11
30.601115
 21
50.841921
 31
0.0
 11
31.111640
 21
50.220083
 31
0.0
  0
LINE
  5
15c
100
AcDbEntity
  8
Capa_1
 62
7
100
AcDbLine
 10
28.034560
 20
49.953289
 30
0.0
 11
27.859238
 21
49.930420
 31
0.0
  0
LINE
  5
15d
100
AcDbEntity
  8
Capa_1
 62
7
100
AcDbLine
 10
27.859238
 20
49.930420
 30
0.0
 11
28.132255
 21
50.200637
 31
0.0
  0
SPLINE
  5
15e
100
AcDbEntity
  8
Capa_1
 62
7
100
AcDbSpline
 70
0
 71
3
 72
13
 73
9
 74
7
 40
0.000000
 40
0.000000
 40
0.000000
 40
0.000000
 40
0.678649
 40
1.649043
 40
2.436901
 40
2.736698
 40
2.996729
 40
3.160734
 40
3.160734
 40
3.160734
 40
3.160734
 10
31.190822
 20
49.991091
 30
0.0
 10
30.965056
 20
50.006229
 30
0.0
 10
30.416468
 20
50.043012
 30
0.0
 10
29.603909
 20
50.043381
 30
0.0
 10
28.917402
 20
50.034780
 30
0.0
 10
28.469860
 20
49.994717
 30
0.0
 10
28.229429
 20
49.974510
 30
0.0
 10
28.088909
 20
49.959207
 30
0.0
 10
28.034560
 20
49.953289
 30
0.0
 11
31.190822
 21
49.991091
 31
0.0
 11
30.513308
 21
50.030317
 31
0.0
 11
29.542974
 21
50.041089
 31
0.0
 11
28.755449
 21
50.018160
 31
0.0
 11
28.456642
 21
49.993826
 31
0.0
 11
28.197657
 21
49.970526
 31
0.0
 11
28.034560
 21
49.953289
 31
0.0
  0
LINE
  5
15f
100
AcDbEntity
  8
Capa_1
 62
7
100
AcDbLine
 10
29.252636
 20
52.259854
 30
0.0
 11
29.298994
 21
52.532871
 31
0.0
  0
LINE
  5
160
100
AcDbEntity
  8
Capa_1
 62
7
100
AcDbLine
 10
44.108179
 20
50.863813
 30
0.0
 11
44.422732
 21
50.521257
 31
0.0
  0
SPLINE
  5
161
100
AcDbEntity
  8
Capa_1
 62
7
100
AcDbSpline
 70
0
 71
3
 72
10
 73
6
 74
4
 40
0.000000
 40
0.000000
 40
0.000000
 40
0.000000
 40
0.819494
 40
1.619217
 40
2.376380
 40
2.376380
 40
2.376380
 40
2.376380
 10
28.132255
 20
50.200637
 30
0.0
 10
28.314828
 20
50.404381
 30
0.0
 10
28.675569
 20
50.806952
 30
0.0
 10
29.064559
 20
51.509511
 30
0.0
 10
29.191096
 20
52.014340
 30
0.0
 10
29.252636
 20
52.259854
 30
0.0
 11
28.132255
 21
50.200637
 31
0.0
 11
28.655463
 21
50.831370
 31
0.0
 11
29.037670
 21
51.533848
 31
0.0
 11
29.252636
 21
52.259854
 31
0.0
  0
LINE
  5
162
100
AcDbEntity
  8
Capa_1
 62
7
100
AcDbLine
 10
44.097133
 20
50.740293
 30
0.0
 11
44.108179
 21
50.863813
 31
0.0
  0
SPLINE
  5
163
100
AcDbEntity
  8
Capa_1
 62
7
100
AcDbSpline
 70
0
 71
3
 72
34
 73
30
 74
28
 40
0.000000
 40
0.000000
 40
0.000000
 40
0.000000
 40
1.447589
 40
2.951790
 40
4.472481
 40
6.302364
 40
8.159708
 40
10.004758
 40
10.360214
 40
10.606525
 40
10.904221
 40
11.609803
 40
12.321591
 40
13.030518
 40
13.384703
 40
13.659441
 40
13.795266
 40
13.883841
 40
14.002025
 40
14.314070
 40
17.845249
 40
21.464951
 40
25.076027
 40
25.590376
 40
25.826729
 40
26.140543
 40
26.655107
 40
27.314293
 40
27.824261
 40
27.824261
 40
27.824261
 40
27.824261
 10
44.422732
 20
50.521257
 30
0.0
 10
44.738812
 20
50.156223
 30
0.0
 10
45.383334
 20
49.411880
 30
0.0
 10
46.226965
 20
48.179361
 30
0.0
 10
47.042389
 20
46.779812
 30
0.0
 10
47.756576
 20
45.193567
 30
0.0
 10
48.335097
 20
43.438305
 30
0.0
 10
48.606522
 20
42.111176
 30
0.0
 10
48.735589
 20
41.305305
 30
0.0
 10
48.745001
 20
41.004377
 30
0.0
 10
48.684652
 20
40.591288
 30
0.0
 10
48.595816
 20
40.026702
 30
0.0
 10
48.452541
 20
39.333348
 30
0.0
 10
48.305090
 20
38.756238
 30
0.0
 10
48.190412
 20
38.333135
 30
0.0
 10
48.115511
 20
38.073597
 30
0.0
 10
48.086885
 20
37.936112
 30
0.0
 10
48.026790
 20
37.774428
 30
0.0
 10
47.996373
 20
38.056718
 30
0.0
 10
47.989096
 20
39.092020
 30
0.0
 10
47.598656
 20
41.922553
 30
0.0
 10
46.283978
 20
45.131328
 30
0.0
 10
44.928324
 20
47.414890
 30
0.0
 10
43.915470
 20
48.450845
 30
0.0
 10
43.757287
 20
48.789317
 30
0.0
 10
43.885153
 20
49.141930
 30
0.0
 10
43.940426
 20
49.628586
 30
0.0
 10
44.033820
 20
50.184480
 30
0.0
 10
44.077904
 20
50.571487
 30
0.0
 10
44.097133
 20
50.740293
 30
0.0
 11
44.422732
 21
50.521257
 31
0.0
 11
45.349873
 21
49.409536
 31
0.0
 11
46.208398
 21
48.174402
 31
0.0
 11
46.969178
 21
46.857697
 31
0.0
 11
47.723239
 21
45.190404
 31
0.0
 11
48.301271
 21
43.425296
 31
0.0
 11
48.684285
 21
41.620438
 31
0.0
 11
48.732468
 21
41.268264
 31
0.0
 11
48.737910
 21
41.022013
 31
0.0
 11
48.704042
 21
40.726250
 31
0.0
 11
48.590664
 21
40.029836
 31
0.0
 11
48.446752
 21
39.332748
 31
0.0
 11
48.274371
 21
38.645098
 31
0.0
 11
48.181164
 21
38.303398
 31
0.0
 11
48.109368
 21
38.038206
 31
0.0
 11
48.074469
 21
37.906942
 31
0.0
 11
48.036415
 21
37.826957
 31
0.0
 11
48.009583
 21
37.942055
 31
0.0
 11
47.993731
 21
38.253696
 31
0.0
 11
47.481501
 21
41.747526
 31
0.0
 11
46.187117
 21
45.127883
 31
0.0
 11
44.205562
 21
48.146710
 31
0.0
 11
43.880383
 21
48.545223
 31
0.0
 11
43.796079
 21
48.766030
 31
0.0
 11
43.851185
 21
49.074968
 31
0.0
 11
43.939183
 21
49.581952
 31
0.0
 11
44.035495
 21
50.234064
 31
0.0
 11
44.097133
 21
50.740293
 31
0.0
  0
LINE
  5
164
100
AcDbEntity
  8
Capa_1
 62
7
100
AcDbLine
 10
15.477337
 20
50.668111
 30
0.0
 11
15.477337
 21
50.668111
 31
0.0
  0
SPLINE
  5
165
100
AcDbEntity
  8
Capa_1
 62
7
100
AcDbSpline
 70
0
 71
3
 72
37
 73
33
 74
31
 40
0.000000
 40
0.000000
 40
0.000000
 40
0.000000
 40
0.035677
 40
0.095356
 40
0.189571
 40
0.584499
 40
1.235437
 40
1.709303
 40
1.817350
 40
1.996084
 40
2.392910
 40
4.873268
 40
7.298312
 40
9.717673
 40
10.719129
 40
11.708569
 40
12.533784
 40
12.722823
 40
12.858285
 40
12.911807
 40
13.239549
 40
13.998458
 40
14.891311
 40
15.243073
 40
15.716679
 40
16.453812
 40
19.495490
 40
22.580140
 40
25.682844
 40
25.801288
 40
25.880788
 40
25.927022
 40
25.927022
 40
25.927022
 40
25.927022
 10
15.477337
 20
50.668111
 30
0.0
 10
15.488003
 20
50.661783
 30
0.0
 10
15.516509
 20
50.644871
 30
0.0
 10
15.522883
 20
50.575194
 30
0.0
 10
15.527314
 20
50.397838
 30
0.0
 10
15.588779
 20
50.016609
 30
0.0
 10
15.652479
 20
49.513843
 30
0.0
 10
15.740590
 20
49.118885
 30
0.0
 10
15.770023
 20
48.857429
 30
0.0
 10
15.611167
 20
48.671532
 30
0.0
 10
14.976741
 20
47.906333
 30
0.0
 10
13.881865
 20
46.480904
 30
0.0
 10
12.733526
 20
44.325017
 30
0.0
 10
12.065262
 20
42.483769
 30
0.0
 10
11.719620
 20
41.055447
 30
0.0
 10
11.540949
 20
40.130833
 30
0.0
 10
11.464522
 20
39.472361
 30
0.0
 10
11.432670
 20
39.084175
 30
0.0
 10
11.424132
 20
38.966017
 30
0.0
 10
11.370322
 20
38.773102
 30
0.0
 10
11.252534
 20
39.529508
 30
0.0
 10
11.149925
 20
39.900502
 30
0.0
 10
11.014659
 20
40.648330
 30
0.0
 10
10.973645
 20
41.211468
 30
0.0
 10
11.046020
 20
41.732519
 30
0.0
 10
11.301505
 20
43.122752
 30
0.0
 10
11.951445
 20
45.336746
 30
0.0
 10
13.359614
 20
48.077850
 30
0.0
 10
14.608947
 20
49.804908
 30
0.0
 10
15.361585
 20
50.594102
 30
0.0
 10
15.421086
 20
50.653702
 30
0.0
 10
15.462214
 20
50.664237
 30
0.0
 10
15.477337
 20
50.668111
 30
0.0
 11
15.477337
 21
50.668111
 31
0.0
 11
15.505792
 21
50.646589
 31
0.0
 11
15.521130
 21
50.588915
 31
0.0
 11
15.525718
 21
50.494811
 31
0.0
 11
15.573188
 21
50.102747
 31
0.0
 11
15.671035
 21
49.459205
 31
0.0
 11
15.754088
 21
48.992674
 31
0.0
 11
15.756253
 21
48.884649
 31
0.0
 11
15.663222
 21
48.732034
 31
0.0
 11
15.409355
 21
48.427038
 31
0.0
 11
13.932798
 21
46.434062
 31
0.0
 11
12.784181
 21
44.298292
 31
0.0
 11
11.964675
 21
42.021953
 31
0.0
 11
11.726198
 21
41.049305
 31
0.0
 11
11.544180
 21
40.076752
 31
0.0
 11
11.447265
 21
39.257248
 31
0.0
 11
11.431749
 21
39.068846
 31
0.0
 11
11.414363
 21
38.934505
 31
0.0
 11
11.398884
 21
38.883269
 31
0.0
 11
11.302164
 21
39.196414
 31
0.0
 11
11.151401
 21
39.940197
 31
0.0
 11
11.006082
 21
40.821145
 31
0.0
 11
10.987076
 21
41.172393
 31
0.0
 11
11.036363
 21
41.643428
 31
0.0
 11
11.168025
 21
42.368707
 31
0.0
 11
12.034792
 21
45.284272
 31
0.0
 11
13.426898
 21
48.036926
 31
0.0
 11
15.289570
 21
50.518301
 31
0.0
 11
15.371575
 21
50.603767
 31
0.0
 11
15.433386
 21
50.653764
 31
0.0
 11
15.477337
 21
50.668111
 31
0.0
  0
LINE
  5
166
100
AcDbEntity
  8
Capa_1
 62
7
100
AcDbLine
 10
41.755877
 20
46.158743
 30
0.0
 11
42.027183
 21
45.751784
 31
0.0
  0
LINE
  5
167
100
AcDbEntity
  8
Capa_1
 62
7
100
AcDbLine
 10
42.027183
 20
45.751784
 30
0.0
 11
41.828993
 21
45.340159
 31
0.0
  0
SPLINE
  5
168
100
AcDbEntity
  8
Capa_1
 62
7
100
AcDbSpline
 70
0
 71
3
 72
13
 73
9
 74
7
 40
0.000000
 40
0.000000
 40
0.000000
 40
0.000000
 40
0.094609
 40
0.299124
 40
0.569396
 40
2.384202
 40
4.162689
 40
5.905329
 40
5.905329
 40
5.905329
 40
5.905329
 10
37.557173
 20
50.258352
 30
0.0
 10
37.584199
 20
50.242090
 30
0.0
 10
37.669647
 20
50.190674
 30
0.0
 10
37.825529
 20
50.082206
 30
0.0
 10
38.453704
 20
49.648936
 30
0.0
 10
39.461305
 20
48.842567
 30
0.0
 10
40.725782
 20
47.582116
 30
0.0
 10
41.414850
 20
46.629969
 30
0.0
 10
41.755877
 20
46.158743
 30
0.0
 11
37.557173
 21
50.258352
 31
0.0
 11
37.637895
 21
50.209009
 31
0.0
 11
37.807579
 21
50.094844
 31
0.0
 11
38.029469
 21
49.940533
 31
0.0
 11
39.448943
 21
48.809773
 31
0.0
 11
40.697196
 21
47.542936
 31
0.0
 11
41.755877
 21
46.158743
 31
0.0
  0
LINE
  5
169
100
AcDbEntity
  8
Capa_1
 62
7
100
AcDbLine
 10
35.780618
 20
48.755437
 30
0.0
 11
35.207204
 21
49.016320
 31
0.0
  0
LINE
  5
16a
100
AcDbEntity
  8
Capa_1
 62
7
100
AcDbLine
 10
35.207204
 20
49.016320
 30
0.0
 11
35.521447
 21
49.101414
 31
0.0
  0
SPLINE
  5
16b
100
AcDbEntity
  8
Capa_1
 62
7
100
AcDbSpline
 70
0
 71
3
 72
22
 73
18
 74
16
 40
0.000000
 40
0.000000
 40
0.000000
 40
0.000000
 40
0.269230
 40
0.536291
 40
0.744080
 40
0.891328
 40
0.998679
 40
1.043156
 40
1.104767
 40
1.256955
 40
1.466939
 40
2.773597
 40
4.102957
 40
5.376909
 40
6.280326
 40
7.150003
 40
8.068969
 40
8.068969
 40
8.068969
 40
8.068969
 10
41.828993
 20
45.340159
 30
0.0
 10
41.788441
 20
45.260157
 30
0.0
 10
41.707664
 20
45.100797
 30
0.0
 10
41.582665
 20
44.885385
 30
0.0
 10
41.469282
 20
44.714390
 30
0.0
 10
41.372123
 20
44.587601
 30
0.0
 10
41.311631
 20
44.523067
 30
0.0
 10
41.260802
 20
44.446778
 30
0.0
 10
41.199725
 20
44.551485
 30
0.0
 10
41.109269
 20
44.630975
 30
0.0
 10
40.752316
 20
45.087670
 30
0.0
 10
40.116082
 20
45.763621
 30
0.0
 10
39.156266
 20
46.658983
 30
0.0
 10
38.229621
 20
47.371551
 30
0.0
 10
37.377886
 20
47.926396
 30
0.0
 10
36.597607
 20
48.371166
 30
0.0
 10
36.057905
 20
48.625015
 30
0.0
 10
35.780618
 20
48.755437
 30
0.0
 11
41.828993
 21
45.340159
 31
0.0
 11
41.704990
 21
45.101186
 31
0.0
 11
41.570565
 21
44.870423
 31
0.0
 11
41.454859
 21
44.697829
 31
0.0
 11
41.364409
 21
44.581637
 31
0.0
 11
41.296190
 21
44.498748
 31
0.0
 11
41.264914
 21
44.467127
 31
0.0
 11
41.221553
 21
44.510897
 31
0.0
 11
41.121577
 21
44.625639
 31
0.0
 11
40.986607
 21
44.786502
 31
0.0
 11
40.106956
 21
45.752714
 31
0.0
 11
39.129923
 21
46.654162
 31
0.0
 11
38.120319
 21
47.431110
 31
0.0
 11
37.363707
 21
47.924771
 31
0.0
 11
36.606864
 21
48.353173
 31
0.0
 11
35.780618
 21
48.755437
 31
0.0
  0
LINE
  5
16c
100
AcDbEntity
  8
Capa_1
 62
7
100
AcDbLine
 10
37.557173
 20
50.258352
 30
0.0
 11
37.557173
 21
50.258352
 31
0.0
  0
LINE
  5
16d
100
AcDbEntity
  8
Capa_1
 62
7
100
AcDbLine
 10
21.821753
 20
50.191625
 30
0.0
 11
22.093369
 21
49.969011
 31
0.0
  0
SPLINE
  5
16e
100
AcDbEntity
  8
Capa_1
 62
7
100
AcDbSpline
 70
0
 71
3
 72
13
 73
9
 74
7
 40
0.000000
 40
0.000000
 40
0.000000
 40
0.000000
 40
0.657266
 40
1.340726
 40
1.999644
 40
2.171112
 40
2.299900
 40
2.360344
 40
2.360344
 40
2.360344
 40
2.360344
 10
35.521447
 20
49.101414
 30
0.0
 10
35.729718
 20
49.170487
 30
0.0
 10
36.154561
 20
49.311385
 30
0.0
 10
36.742257
 20
49.634324
 30
0.0
 10
37.141991
 20
49.945778
 30
0.0
 10
37.384555
 20
50.151854
 30
0.0
 10
37.478550
 20
50.229937
 30
0.0
 10
37.538139
 20
50.251473
 30
0.0
 10
37.557173
 20
50.258352
 30
0.0
 11
35.521447
 21
49.101414
 31
0.0
 11
36.138858
 21
49.326807
 31
0.0
 11
36.739083
 21
49.653682
 31
0.0
 11
37.264866
 21
50.050828
 31
0.0
 11
37.396102
 21
50.161183
 31
0.0
 11
37.501120
 21
50.235733
 31
0.0
 11
37.557173
 21
50.258352
 31
0.0
  0
LINE
  5
16f
100
AcDbEntity
  8
Capa_1
 62
7
100
AcDbLine
 10
21.625741
 20
50.059239
 30
0.0
 11
21.821753
 21
50.191625
 31
0.0
  0
SPLINE
  5
170
100
AcDbEntity
  8
Capa_1
 62
7
100
AcDbSpline
 70
0
 71
3
 72
28
 73
24
 74
22
 40
0.000000
 40
0.000000
 40
0.000000
 40
0.000000
 40
0.769970
 40
1.532831
 40
2.251048
 40
2.332192
 40
2.479523
 40
2.946396
 40
5.103956
 40
7.230004
 40
9.333544
 40
9.532334
 40
9.678015
 40
9.739511
 40
10.018347
 40
10.547322
 40
10.975845
 40
11.210551
 40
11.392865
 40
11.795905
 40
13.575834
 40
15.400743
 40
17.184927
 40
17.184927
 40
17.184927
 40
17.184927
 10
22.093369
 20
49.969011
 30
0.0
 10
22.297688
 20
49.817465
 30
0.0
 10
22.704438
 20
49.515773
 30
0.0
 10
23.424419
 20
49.176086
 30
0.0
 10
23.834790
 20
49.079428
 30
0.0
 10
24.238455
 20
48.977441
 30
0.0
 10
23.891949
 20
48.827468
 30
0.0
 10
23.267166
 20
48.512225
 30
0.0
 10
21.679183
 20
47.682021
 30
0.0
 10
20.049829
 20
46.403538
 30
0.0
 10
19.017095
 20
45.335962
 30
0.0
 10
18.489839
 20
44.700585
 30
0.0
 10
18.403120
 20
44.605258
 30
0.0
 10
18.279361
 20
44.472429
 30
0.0
 10
18.098726
 20
44.906001
 30
0.0
 10
17.861415
 20
45.131476
 30
0.0
 10
17.672864
 20
45.497901
 30
0.0
 10
17.517674
 20
45.753097
 30
0.0
 10
17.610496
 20
46.029414
 30
0.0
 10
18.101834
 20
46.640085
 30
0.0
 10
18.891352
 20
47.725469
 30
0.0
 10
20.179538
 20
48.989251
 30
0.0
 10
21.147313
 20
49.705270
 30
0.0
 10
21.625741
 20
50.059239
 30
0.0
 11
22.093369
 21
49.969011
 31
0.0
 11
22.727397
 21
49.532134
 31
0.0
 11
23.416239
 21
49.204331
 31
0.0
 11
24.107784
 21
49.010418
 31
0.0
 11
24.183584
 21
48.981460
 31
0.0
 11
24.060828
 21
48.899990
 31
0.0
 11
23.639221
 21
48.699444
 31
0.0
 11
21.754695
 21
47.648908
 31
0.0
 11
20.067481
 21
46.355312
 31
0.0
 11
18.607153
 21
44.841271
 31
0.0
 11
18.478604
 21
44.689638
 31
0.0
 11
18.380934
 21
44.581547
 31
0.0
 11
18.335226
 21
44.540408
 31
0.0
 11
18.152228
 21
44.750792
 31
0.0
 11
17.852009
 21
45.186319
 31
0.0
 11
17.635182
 21
45.555938
 31
0.0
 11
17.547254
 21
45.773551
 31
0.0
 11
17.590880
 21
45.950568
 31
0.0
 11
17.815016
 21
46.285539
 31
0.0
 11
18.919445
 21
47.681383
 31
0.0
 11
20.216135
 21
48.965474
 31
0.0
 11
21.625741
 21
50.059239
 31
0.0
  0
SPLINE
  5
171
100
AcDbEntity
  8
Capa_1
 62
7
100
AcDbSpline
 70
0
 71
3
 72
10
 73
6
 74
4
 40
0.000000
 40
0.000000
 40
0.000000
 40
0.000000
 40
4.650848
 40
8.889821
 40
13.102700
 40
13.102700
 40
13.102700
 40
13.102700
 10
29.877197
 20
48.742039
 30
0.0
 10
31.429751
 20
48.479993
 30
0.0
 10
34.397366
 20
47.979108
 30
0.0
 10
37.948847
 20
45.249868
 30
0.0
 10
39.913716
 20
43.244312
 30
0.0
 10
40.893118
 20
42.244630
 30
0.0
 11
29.877197
 21
48.742039
 31
0.0
 11
34.382124
 21
47.586177
 31
0.0
 11
37.873915
 21
45.182787
 31
0.0
 11
40.893118
 21
42.244630
 31
0.0
  0
SPLINE
  5
172
100
AcDbEntity
  8
Capa_1
 62
7
100
AcDbSpline
 70
0
 71
3
 72
31
 73
27
 74
25
 40
0.000000
 40
0.000000
 40
0.000000
 40
0.000000
 40
0.817419
 40
1.509619
 40
2.381326
 40
3.898020
 40
5.307230
 40
6.782661
 40
7.508642
 40
8.343537
 40
9.045571
 40
9.255816
 40
9.417756
 40
9.487780
 40
9.488587
 40
9.490046
 40
9.491061
 40
9.781570
 40
10.094308
 40
10.400462
 40
10.874899
 40
11.349908
 40
11.468680
 40
11.962025
 40
13.147294
 40
14.820677
 40
14.820677
 40
14.820677
 40
14.820677
 10
40.893118
 20
42.244630
 30
0.0
 10
41.098152
 20
42.065186
 30
0.0
 10
41.476812
 20
41.733786
 30
0.0
 10
42.073642
 20
41.210374
 30
0.0
 10
42.828210
 20
40.513946
 30
0.0
 10
43.729452
 20
39.622915
 30
0.0
 10
44.665549
 20
38.490704
 30
0.0
 10
45.348727
 20
37.496672
 30
0.0
 10
45.860659
 20
36.625249
 30
0.0
 10
46.217166
 20
35.953770
 30
0.0
 10
46.480940
 20
35.451390
 30
0.0
 10
46.621840
 20
35.099444
 30
0.0
 10
46.706729
 20
35.010902
 30
0.0
 10
46.724240
 20
34.888394
 30
0.0
 10
46.747554
 20
34.895507
 30
0.0
 10
46.748429
 20
34.896193
 30
0.0
 10
46.840238
 20
34.931591
 30
0.0
 10
46.542621
 20
34.572574
 30
0.0
 10
46.486371
 20
34.383030
 30
0.0
 10
46.263694
 20
34.043180
 30
0.0
 10
46.114763
 20
33.717563
 30
0.0
 10
45.658480
 20
33.401989
 30
0.0
 10
46.016405
 20
33.101559
 30
0.0
 10
45.848278
 20
34.239287
 30
0.0
 10
44.834882
 20
34.466976
 30
0.0
 10
44.114213
 20
35.152260
 30
0.0
 10
43.692352
 20
35.553409
 30
0.0
 11
40.893118
 21
42.244630
 31
0.0
 11
41.508131
 21
41.706177
 31
0.0
 11
42.026910
 21
41.247908
 31
0.0
 11
42.667800
 21
40.657034
 31
0.0
 11
43.735593
 21
39.579917
 31
0.0
 11
44.635306
 21
38.495303
 31
0.0
 11
45.470152
 21
37.278780
 31
0.0
 11
45.838561
 21
36.653221
 31
0.0
 11
46.235117
 21
35.918515
 31
0.0
 11
46.544486
 21
35.288323
 31
0.0
 11
46.635397
 21
35.098749
 31
0.0
 11
46.711176
 21
34.955633
 31
0.0
 11
46.746565
 21
34.895210
 31
0.0
 11
46.747327
 21
34.895474
 31
0.0
 11
46.748587
 21
34.896209
 31
0.0
 11
46.749520
 21
34.896612
 31
0.0
 11
46.613822
 21
34.639743
 31
0.0
 11
46.463553
 21
34.365473
 31
0.0
 11
46.308181
 21
34.101674
 31
0.0
 11
46.041685
 21
33.709155
 31
0.0
 11
45.793737
 21
33.303995
 31
0.0
 11
45.883338
 21
33.226030
 31
0.0
 11
45.882728
 21
33.719375
 31
0.0
 11
45.007134
 21
34.518248
 31
0.0
 11
43.692352
 21
35.553409
 31
0.0
  0
SPLINE
  5
173
100
AcDbEntity
  8
Capa_1
 62
7
100
AcDbSpline
 70
0
 71
3
 72
10
 73
6
 74
4
 40
0.000000
 40
0.000000
 40
0.000000
 40
0.000000
 40
1.851104
 40
2.485259
 40
3.911703
 40
3.911703
 40
3.911703
 40
3.911703
 10
43.692352
 20
35.553409
 30
0.0
 10
43.265318
 20
36.004701
 30
0.0
 10
42.691990
 20
36.610598
 30
0.0
 10
41.279395
 20
36.948323
 30
0.0
 10
40.955983
 20
36.188927
 30
0.0
 10
40.732102
 20
35.663237
 30
0.0
 11
43.692352
 21
35.553409
 31
0.0
 11
42.231420
 21
36.690186
 31
0.0
 11
41.605353
 21
36.791145
 31
0.0
 11
40.732102
 21
35.663237
 31
0.0
  0
LINE
  5
174
100
AcDbEntity
  8
Capa_1
 62
7
100
AcDbLine
 10
44.320578
 20
32.328853
 30
0.0
 11
45.096639
 21
31.612320
 31
0.0
  0
SPLINE
  5
175
100
AcDbEntity
  8
Capa_1
 62
7
100
AcDbSpline
 70
0
 71
3
 72
13
 73
9
 74
7
 40
0.000000
 40
0.000000
 40
0.000000
 40
0.000000
 40
0.297151
 40
0.590464
 40
0.878953
 40
2.169322
 40
3.599095
 40
4.907376
 40
4.907376
 40
4.907376
 40
4.907376
 10
40.732102
 20
35.663237
 30
0.0
 10
40.812918
 20
35.605961
 30
0.0
 10
40.973504
 20
35.492150
 30
0.0
 10
41.208931
 20
35.317744
 30
0.0
 10
41.706068
 20
34.940340
 30
0.0
 10
42.445717
 20
34.259613
 30
0.0
 10
43.380400
 20
33.296049
 30
0.0
 10
44.016595
 20
32.641571
 30
0.0
 10
44.320578
 20
32.328853
 30
0.0
 11
40.732102
 21
35.663237
 31
0.0
 11
40.973933
 21
35.490561
 31
0.0
 11
41.209882
 21
35.316320
 31
0.0
 11
41.438990
 21
35.141005
 31
0.0
 11
42.402986
 21
34.283237
 31
0.0
 11
43.408836
 21
33.267109
 31
0.0
 11
44.320578
 21
32.328853
 31
0.0
  0
LINE
  5
176
100
AcDbEntity
  8
Capa_1
 62
7
100
AcDbLine
 10
41.883907
 20
25.836650
 30
0.0
 11
41.536063
 21
25.580590
 31
0.0
  0
LINE
  5
177
100
AcDbEntity
  8
Capa_1
 62
7
100
AcDbLine
 10
41.536063
 20
25.580590
 30
0.0
 11
41.221510
 21
25.828094
 31
0.0
  0
SPLINE
  5
178
100
AcDbEntity
  8
Capa_1
 62
7
100
AcDbSpline
 70
0
 71
3
 72
10
 73
6
 74
4
 40
0.000000
 40
0.000000
 40
0.000000
 40
0.000000
 40
2.055959
 40
4.466746
 40
6.658109
 40
6.658109
 40
6.658109
 40
6.658109
 10
45.096639
 20
31.612320
 30
0.0
 10
44.834630
 20
30.980611
 30
0.0
 10
44.265394
 20
29.608172
 30
0.0
 10
43.406775
 20
27.533919
 30
0.0
 10
42.375134
 20
26.384133
 30
0.0
 10
41.883907
 20
25.836650
 30
0.0
 11
45.096639
 21
31.612320
 31
0.0
 11
44.309175
 21
29.713144
 31
0.0
 11
43.258245
 21
27.543481
 31
0.0
 11
41.883907
 21
25.836650
 31
0.0
  0
LINE
  5
179
100
AcDbEntity
  8
Capa_1
 62
7
100
AcDbLine
 10
31.127662
 20
22.206692
 30
0.0
 11
31.101994
 21
22.033392
 31
0.0
  0
LINE
  5
17a
100
AcDbEntity
  8
Capa_1
 62
7
100
AcDbLine
 10
31.101994
 20
22.033392
 30
0.0
 11
29.917676
 21
22.075239
 31
0.0
  0
LINE
  5
17b
100
AcDbEntity
  8
Capa_1
 62
7
100
AcDbLine
 10
29.917676
 20
22.075239
 30
0.0
 11
28.519923
 21
22.033392
 31
0.0
  0
LINE
  5
17c
100
AcDbEntity
  8
Capa_1
 62
7
100
AcDbLine
 10
28.519923
 20
22.033392
 30
0.0
 11
28.503278
 21
22.115531
 31
0.0
  0
SPLINE
  5
17d
100
AcDbEntity
  8
Capa_1
 62
7
100
AcDbSpline
 70
0
 71
3
 72
19
 73
15
 74
13
 40
0.000000
 40
0.000000
 40
0.000000
 40
0.000000
 40
0.746252
 40
1.473696
 40
2.207392
 40
4.145262
 40
6.047059
 40
7.985862
 40
8.651935
 40
9.425750
 40
10.084105
 40
11.008709
 40
11.934900
 40
12.881990
 40
12.881990
 40
12.881990
 40
12.881990
 10
41.221510
 20
25.828094
 30
0.0
 10
41.021201
 20
25.976031
 30
0.0
 10
40.625632
 20
26.268176
 30
0.0
 10
39.973431
 20
26.614844
 30
0.0
 10
38.917215
 20
27.027794
 30
0.0
 10
37.390375
 20
27.299339
 30
0.0
 10
35.457493
 20
27.054665
 30
0.0
 10
34.045907
 20
26.459101
 30
0.0
 10
33.148470
 20
25.774740
 30
0.0
 10
32.634238
 20
25.299922
 30
0.0
 10
32.101959
 20
24.718668
 30
0.0
 10
31.669998
 20
23.996442
 30
0.0
 10
31.305784
 20
23.132231
 30
0.0
 10
31.187476
 20
22.517491
 30
0.0
 10
31.127662
 20
22.206692
 30
0.0
 11
41.221510
 21
25.828094
 31
0.0
 11
40.610365
 21
26.256339
 31
0.0
 11
39.969745
 21
26.600984
 31
0.0
 11
39.286745
 21
26.868981
 31
0.0
 11
37.377703
 21
27.201997
 31
0.0
 11
35.489908
 21
26.971656
 31
0.0
 11
33.715956
 21
26.189316
 31
0.0
 11
33.183417
 21
25.789248
 31
0.0
 11
32.613980
 21
25.265291
 31
0.0
 11
32.176794
 21
24.773051
 31
0.0
 11
31.689662
 21
23.987179
 31
0.0
 11
31.339195
 21
23.129856
 31
0.0
 11
31.127662
 21
22.206692
 31
0.0
  0
LINE
  5
17e
100
AcDbEntity
  8
Capa_1
 62
7
100
AcDbLine
 10
18.381116
 20
25.816116
 30
0.0
 11
18.082898
 21
25.577323
 31
0.0
  0
LINE
  5
17f
100
AcDbEntity
  8
Capa_1
 62
7
100
AcDbLine
 10
18.082898
 20
25.577323
 30
0.0
 11
17.889686
 21
26.005594
 31
0.0
  0
SPLINE
  5
180
100
AcDbEntity
  8
Capa_1
 62
7
100
AcDbSpline
 70
0
 71
3
 72
16
 73
12
 74
10
 40
0.000000
 40
0.000000
 40
0.000000
 40
0.000000
 40
0.092930
 40
0.256058
 40
0.454121
 40
2.207557
 40
4.028139
 40
5.914730
 40
8.284522
 40
10.619049
 40
12.957785
 40
12.957785
 40
12.957785
 40
12.957785
 10
28.503278
 20
22.115531
 30
0.0
 10
28.497542
 20
22.145971
 30
0.0
 10
28.481737
 20
22.229847
 30
0.0
 10
28.454889
 20
22.378835
 30
0.0
 10
28.338660
 20
23.073893
 30
0.0
 10
27.887391
 20
24.278654
 30
0.0
 10
26.699724
 20
25.696255
 30
0.0
 10
24.971120
 20
26.813719
 30
0.0
 10
22.791974
 20
27.323597
 30
0.0
 10
20.381240
 20
27.076925
 30
0.0
 10
19.048224
 20
26.236638
 30
0.0
 10
18.381116
 20
25.816116
 30
0.0
 11
28.503278
 21
22.115531
 31
0.0
 11
28.486157
 21
22.206870
 31
0.0
 11
28.457261
 21
22.367419
 31
0.0
 11
28.422850
 21
22.562470
 31
0.0
 11
27.811237
 21
24.205779
 31
0.0
 11
26.654218
 21
25.611419
 31
0.0
 11
25.069954
 21
26.635789
 31
0.0
 11
22.766399
 21
27.192163
 31
0.0
 11
20.449204
 21
26.908224
 31
0.0
 11
18.381116
 21
25.816116
 31
0.0
  0
SPLINE
  5
181
100
AcDbEntity
  8
Capa_1
 62
7
100
AcDbSpline
 70
0
 71
3
 72
10
 73
6
 74
4
 40
0.000000
 40
0.000000
 40
0.000000
 40
0.000000
 40
1.861695
 40
4.195750
 40
5.996077
 40
5.996077
 40
5.996077
 40
5.996077
 10
17.889686
 20
26.005594
 30
0.0
 10
17.627427
 20
26.568002
 30
0.0
 10
17.036366
 20
27.835517
 30
0.0
 10
16.192398
 20
29.647573
 30
0.0
 10
15.567674
 20
30.876067
 30
0.0
 10
15.295636
 20
31.411019
 30
0.0
 11
17.889686
 21
26.005594
 31
0.0
 11
17.103005
 21
27.692912
 31
0.0
 11
16.103635
 21
29.802194
 31
0.0
 11
15.295636
 21
31.411019
 31
0.0
  0
SPLINE
  5
182
100
AcDbEntity
  8
Capa_1
 62
7
100
AcDbSpline
 70
0
 71
3
 72
10
 73
6
 74
4
 40
0.000000
 40
0.000000
 40
0.000000
 40
0.000000
 40
0.514186
 40
0.696809
 40
1.208247
 40
1.208247
 40
1.208247
 40
1.208247
 10
15.295636
 20
31.411019
 30
0.0
 10
15.150719
 20
31.522120
 30
0.0
 10
14.954331
 20
31.672681
 30
0.0
 10
14.908221
 20
32.094212
 30
0.0
 10
15.056307
 20
32.288509
 30
0.0
 10
15.165428
 20
32.431682
 30
0.0
 11
15.295636
 21
31.411019
 31
0.0
 11
14.953341
 21
31.794712
 31
0.0
 11
14.932856
 21
31.976183
 31
0.0
 11
15.165428
 21
32.431682
 31
0.0
  0
SPLINE
  5
183
100
AcDbEntity
  8
Capa_1
 62
7
100
AcDbSpline
 70
0
 71
3
 72
10
 73
6
 74
4
 40
0.000000
 40
0.000000
 40
0.000000
 40
0.000000
 40
1.539352
 40
3.090441
 40
4.652524
 40
4.652524
 40
4.652524
 40
4.652524
 10
15.165428
 20
32.431682
 30
0.0
 10
15.500395
 20
32.820703
 30
0.0
 10
16.172882
 20
33.601713
 30
0.0
 10
17.310250
 20
34.661963
 30
0.0
 10
18.138512
 20
35.287777
 30
0.0
 10
18.554105
 20
35.601789
 30
0.0
 11
15.165428
 21
32.431682
 31
0.0
 11
16.190923
 21
33.579708
 31
0.0
 11
17.324246
 21
34.638696
 31
0.0
 11
18.554105
 21
35.601789
 31
0.0
  0
SPLINE
  5
184
100
AcDbEntity
  8
Capa_1
 62
7
100
AcDbSpline
 70
0
 71
3
 72
10
 73
6
 74
4
 40
0.000000
 40
0.000000
 40
0.000000
 40
0.000000
 40
1.420082
 40
1.923266
 40
2.672920
 40
2.672920
 40
2.672920
 40
2.672920
 10
18.554105
 20
35.601789
 30
0.0
 10
18.398280
 20
36.030822
 30
0.0
 10
18.187239
 20
36.611877
 30
0.0
 10
17.441512
 20
37.363521
 30
0.0
 10
17.099691
 20
36.978812
 30
0.0
 10
16.895158
 20
36.748616
 30
0.0
 11
18.554105
 21
35.601789
 31
0.0
 11
17.909148
 21
36.866962
 31
0.0
 11
17.511520
 21
37.175323
 31
0.0
 11
16.895158
 21
36.748616
 31
0.0
  0
LINE
  5
185
100
AcDbEntity
  8
Capa_1
 62
7
100
AcDbLine
 10
12.953758
 20
34.905791
 30
0.0
 11
12.790259
 21
35.216610
 31
0.0
  0
LINE
  5
186
100
AcDbEntity
  8
Capa_1
 62
7
100
AcDbLine
 10
12.790259
 20
35.216610
 30
0.0
 11
12.991561
 21
35.635702
 31
0.0
  0
SPLINE
  5
187
100
AcDbEntity
  8
Capa_1
 62
7
100
AcDbSpline
 70
0
 71
3
 72
16
 73
12
 74
10
 40
0.000000
 40
0.000000
 40
0.000000
 40
0.000000
 40
1.435495
 40
2.804953
 40
4.136040
 40
4.341466
 40
4.489228
 40
4.547372
 40
4.936453
 40
5.730160
 40
6.438336
 40
6.438336
 40
6.438336
 40
6.438336
 10
16.895158
 20
36.748616
 30
0.0
 10
16.548544
 20
36.418674
 30
0.0
 10
15.871261
 20
35.773968
 30
0.0
 10
14.964583
 20
34.729296
 30
0.0
 10
14.393942
 20
33.953324
 30
0.0
 10
14.079372
 20
33.480358
 30
0.0
 10
14.002898
 20
33.373934
 30
0.0
 10
13.881353
 20
33.190711
 30
0.0
 10
13.645347
 20
33.899913
 30
0.0
 10
13.317647
 20
34.216930
 30
0.0
 10
13.070360
 20
34.685057
 30
0.0
 10
12.953758
 20
34.905791
 30
0.0
 11
16.895158
 21
36.748616
 31
0.0
 11
15.871658
 21
35.742089
 31
0.0
 11
14.972037
 21
34.709570
 31
0.0
 11
14.183968
 21
33.636845
 31
0.0
 11
14.068704
 21
33.466804
 31
0.0
 11
13.984289
 21
33.345528
 31
0.0
 11
13.949064
 21
33.299269
 31
0.0
 11
13.724462
 21
33.616977
 31
0.0
 11
13.306451
 21
34.291689
 31
0.0
 11
12.953758
 21
34.905791
 31
0.0
  0
SPLINE
  5
188
100
AcDbEntity
  8
Capa_1
 62
7
100
AcDbSpline
 70
0
 71
3
 72
10
 73
6
 74
4
 40
0.000000
 40
0.000000
 40
0.000000
 40
0.000000
 40
3.591022
 40
6.908323
 40
10.193777
 40
10.193777
 40
10.193777
 40
10.193777
 10
12.991561
 20
35.635702
 30
0.0
 10
13.436010
 20
36.764279
 30
0.0
 10
14.291032
 20
38.935407
 30
0.0
 10
16.819086
 20
41.299238
 30
0.0
 10
18.493695
 20
42.715582
 30
0.0
 10
19.326961
 20
43.420338
 30
0.0
 11
12.991561
 21
35.635702
 31
0.0
 11
14.556809
 21
38.867643
 31
0.0
 11
16.836355
 21
41.277654
 31
0.0
 11
19.326961
 21
43.420338
 31
0.0
  0
LINE
  5
189
100
AcDbEntity
  8
Capa_1
 62
7
100
AcDbLine
 10
29.676241
 20
48.760884
 30
0.0
 11
29.877197
 21
48.742039
 31
0.0
  0
SPLINE
  5
18a
100
AcDbEntity
  8
Capa_1
 62
7
100
AcDbSpline
 70
0
 71
3
 72
10
 73
6
 74
4
 40
0.000000
 40
0.000000
 40
0.000000
 40
0.000000
 40
4.157341
 40
8.082900
 40
11.852249
 40
11.852249
 40
11.852249
 40
11.852249
 10
19.326961
 20
43.420338
 30
0.0
 10
20.407024
 20
44.279498
 30
0.0
 10
22.506934
 20
45.949918
 30
0.0
 10
25.841287
 20
48.227089
 30
0.0
 10
28.415341
 20
48.585377
 30
0.0
 10
29.676241
 20
48.760884
 30
0.0
 11
19.326961
 21
43.420338
 31
0.0
 11
22.613188
 21
45.966747
 31
0.0
 11
25.991747
 21
47.965583
 31
0.0
 11
29.676241
 21
48.760884
 31
0.0
  0
LINE
  5
18b
100
AcDbEntity
  8
Capa_1
 62
7
100
AcDbLine
 10
43.981083
 20
49.135649
 30
0.0
 11
43.981082
 21
49.135649
 31
0.0
  0
SPLINE
  5
18c
100
AcDbEntity
  8
Capa_1
 62
7
100
AcDbSpline
 70
0
 71
3
 72
16
 73
12
 74
10
 40
0.000000
 40
0.000000
 40
0.000000
 40
0.000000
 40
0.002818
 40
0.007211
 40
0.015519
 40
0.031986
 40
0.052639
 40
0.072008
 40
0.090784
 40
0.117561
 40
0.136068
 40
0.136068
 40
0.136068
 40
0.136068
 10
43.981082
 20
49.135649
 30
0.0
 10
43.980055
 20
49.135776
 30
0.0
 10
43.977426
 20
49.136102
 30
0.0
 10
43.975503
 20
49.130095
 30
0.0
 10
43.974142
 20
49.121088
 30
0.0
 10
43.977540
 20
49.105555
 30
0.0
 10
43.974275
 20
49.087176
 30
0.0
 10
43.999338
 20
49.067663
 30
0.0
 10
43.998295
 20
49.099811
 30
0.0
 10
43.993550
 20
49.117684
 30
0.0
 10
43.984700
 20
49.130437
 30
0.0
 10
43.981083
 20
49.135649
 30
0.0
 11
43.981082
 21
49.135649
 31
0.0
 11
43.978265
 21
49.135555
 31
0.0
 11
43.976106
 21
49.131730
 31
0.0
 11
43.974861
 21
49.123515
 31
0.0
 11
43.976258
 21
49.107107
 31
0.0
 11
43.979359
 21
49.086689
 31
0.0
 11
43.995240
 21
49.075600
 31
0.0
 11
43.997975
 21
49.094176
 31
0.0
 11
43.991016
 21
49.120033
 31
0.0
 11
43.981083
 21
49.135649
 31
0.0
  0
LINE
  5
18d
100
AcDbEntity
  8
Capa_1
 62
7
100
AcDbLine
 10
43.944060
 20
48.978839
 30
0.0
 11
43.944058
 21
48.978839
 31
0.0
  0
SPLINE
  5
18e
100
AcDbEntity
  8
Capa_1
 62
7
100
AcDbSpline
 70
0
 71
3
 72
19
 73
15
 74
13
 40
0.000000
 40
0.000000
 40
0.000000
 40
0.000000
 40
0.007650
 40
0.020560
 40
0.039049
 40
0.071308
 40
0.090010
 40
0.101565
 40
0.121408
 40
0.146511
 40
0.174553
 40
0.187394
 40
0.194705
 40
0.199111
 40
0.199111
 40
0.199111
 40
0.199111
 10
43.944058
 20
48.978839
 30
0.0
 10
43.942759
 20
48.976621
 30
0.0
 10
43.939268
 20
48.970661
 30
0.0
 10
43.937544
 20
48.957570
 30
0.0
 10
43.935043
 20
48.936142
 30
0.0
 10
43.936277
 20
48.915437
 30
0.0
 10
43.940236
 20
48.888888
 30
0.0
 10
43.960963
 20
48.892471
 30
0.0
 10
43.966502
 20
48.913045
 30
0.0
 10
43.967747
 20
48.936571
 30
0.0
 10
43.961652
 20
48.959051
 30
0.0
 10
43.954840
 20
48.972317
 30
0.0
 10
43.949603
 20
48.980789
 30
0.0
 10
43.945575
 20
48.979372
 30
0.0
 10
43.944060
 20
48.978839
 30
0.0
 11
43.944058
 21
48.978839
 31
0.0
 11
43.940519
 21
48.972056
 31
0.0
 11
43.937816
 21
48.959433
 31
0.0
 11
43.935968
 21
48.941037
 31
0.0
 11
43.937448
 21
48.908811
 31
0.0
 11
43.944739
 21
48.891588
 31
0.0
 11
43.956191
 21
48.893123
 31
0.0
 11
43.965277
 21
48.910764
 31
0.0
 11
43.966399
 21
48.935842
 31
0.0
 11
43.959306
 21
48.962971
 31
0.0
 11
43.953470
 21
48.974409
 31
0.0
 11
43.948388
 21
48.979666
 31
0.0
 11
43.944060
 21
48.978839
 31
0.0
  0
LINE
  5
18f
100
AcDbEntity
  8
Capa_1
 62
7
100
AcDbLine
 10
43.905013
 20
48.832919
 30
0.0
 11
43.905011
 21
48.832919
 31
0.0
  0
LINE
  5
190
100
AcDbEntity
  8
Capa_1
 62
7
100
AcDbLine
 10
16.318167
 20
46.919000
 30
0.0
 11
16.522424
 21
46.391945
 31
0.0
  0
SPLINE
  5
191
100
AcDbEntity
  8
Capa_1
 62
7
100
AcDbSpline
 70
0
 71
3
 72
19
 73
15
 74
13
 40
0.000000
 40
0.000000
 40
0.000000
 40
0.000000
 40
0.007686
 40
0.020669
 40
0.039198
 40
0.071459
 40
0.090191
 40
0.101784
 40
0.121664
 40
0.146842
 40
0.174922
 40
0.187782
 40
0.195145
 40
0.199591
 40
0.199591
 40
0.199591
 40
0.199591
 10
43.905011
 20
48.832919
 30
0.0
 10
43.903712
 20
48.830687
 30
0.0
 10
43.900219
 20
48.824687
 30
0.0
 10
43.898503
 20
48.811545
 30
0.0
 10
43.895994
 20
48.790082
 30
0.0
 10
43.897236
 20
48.769329
 30
0.0
 10
43.901312
 20
48.742812
 30
0.0
 10
43.922077
 20
48.746383
 30
0.0
 10
43.927611
 20
48.767030
 30
0.0
 10
43.928854
 20
48.790598
 30
0.0
 10
43.922775
 20
48.813119
 30
0.0
 10
43.915923
 20
48.826432
 30
0.0
 10
43.910597
 20
48.834869
 30
0.0
 10
43.906541
 20
48.833452
 30
0.0
 10
43.905013
 20
48.832919
 30
0.0
 11
43.905011
 21
48.832919
 31
0.0
 11
43.901472
 21
48.826096
 31
0.0
 11
43.898770
 21
48.813397
 31
0.0
 11
43.896921
 21
48.794961
 31
0.0
 11
43.898442
 21
48.762736
 31
0.0
 11
43.905809
 21
48.745513
 31
0.0
 11
43.917300
 21
48.747046
 31
0.0
 11
43.926385
 21
48.764729
 31
0.0
 11
43.927508
 21
48.789882
 31
0.0
 11
43.920414
 21
48.817051
 31
0.0
 11
43.914538
 21
48.828490
 31
0.0
 11
43.909381
 21
48.833746
 31
0.0
 11
43.905013
 21
48.832919
 31
0.0
  0
LINE
  5
192
100
AcDbEntity
  8
Capa_1
 62
7
100
AcDbLine
 10
17.448348
 20
44.546164
 30
0.0
 11
17.756056
 21
44.132516
 31
0.0
  0
LINE
  5
193
100
AcDbEntity
  8
Capa_1
 62
7
100
AcDbLine
 10
17.756056
 20
44.132516
 30
0.0
 11
17.079503
 21
43.520212
 31
0.0
  0
SPLINE
  5
194
100
AcDbEntity
  8
Capa_1
 62
7
100
AcDbSpline
 70
0
 71
3
 72
10
 73
6
 74
4
 40
0.000000
 40
0.000000
 40
0.000000
 40
0.000000
 40
0.863746
 40
1.512938
 40
2.071092
 40
2.071092
 40
2.071092
 40
2.071092
 10
16.522424
 20
46.391945
 30
0.0
 10
16.628492
 20
46.124375
 30
0.0
 10
16.814280
 20
45.655701
 30
0.0
 10
17.113421
 20
45.031013
 30
0.0
 10
17.342463
 20
44.699447
 30
0.0
 10
17.448348
 20
44.546164
 30
0.0
 11
16.522424
 21
46.391945
 31
0.0
 11
16.851297
 21
45.593258
 31
0.0
 11
17.142373
 21
45.012978
 31
0.0
 11
17.448348
 21
44.546164
 31
0.0
  0
LINE
  5
195
100
AcDbEntity
  8
Capa_1
 62
7
100
AcDbLine
 10
11.765862
 20
37.569376
 30
0.0
 11
11.620876
 21
37.989091
 31
0.0
  0
LINE
  5
196
100
AcDbEntity
  8
Capa_1
 62
7
100
AcDbLine
 10
11.620876
 20
37.989091
 30
0.0
 11
11.688080
 21
38.335690
 31
0.0
  0
SPLINE
  5
197
100
AcDbEntity
  8
Capa_1
 62
7
100
AcDbSpline
 70
0
 71
3
 72
19
 73
15
 74
13
 40
0.000000
 40
0.000000
 40
0.000000
 40
0.000000
 40
1.385841
 40
2.636876
 40
3.934776
 40
5.411973
 40
6.800241
 40
8.218643
 40
8.465695
 40
8.644756
 40
8.717079
 40
8.946570
 40
9.466204
 40
10.000837
 40
10.000837
 40
10.000837
 40
10.000837
 10
17.079503
 20
43.520212
 30
0.0
 10
16.740645
 20
43.205971
 30
0.0
 10
16.095890
 20
42.608056
 30
0.0
 10
15.218855
 20
41.630108
 30
0.0
 10
14.410242
 20
40.557454
 30
0.0
 10
13.641275
 20
39.402413
 30
0.0
 10
12.958123
 20
38.139624
 30
0.0
 10
12.563006
 20
37.216927
 30
0.0
 10
12.342418
 20
36.625088
 30
0.0
 10
12.282288
 20
36.488531
 30
0.0
 10
12.219797
 20
36.297266
 30
0.0
 10
12.096379
 20
36.785292
 30
0.0
 10
11.948839
 20
37.033785
 30
0.0
 10
11.827430
 20
37.389160
 30
0.0
 10
11.765862
 20
37.569376
 30
0.0
 11
17.079503
 21
43.520212
 31
0.0
 11
16.078676
 21
42.561619
 31
0.0
 11
15.242842
 21
41.630776
 31
0.0
 11
14.456051
 21
40.598542
 31
0.0
 11
13.644062
 21
39.364531
 31
0.0
 11
12.983586
 21
38.143441
 31
0.0
 11
12.423281
 21
36.840397
 31
0.0
 11
12.334137
 21
36.609989
 31
0.0
 11
12.268224
 21
36.443501
 31
0.0
 11
12.239870
 21
36.376968
 31
0.0
 11
12.142455
 21
36.584757
 31
0.0
 11
11.950504
 21
37.067639
 31
0.0
 11
11.765862
 21
37.569376
 31
0.0
  0
LINE
  5
198
100
AcDbEntity
  8
Capa_1
 62
7
100
AcDbLine
 10
15.958967
 20
46.537399
 30
0.0
 11
16.318167
 21
46.919000
 31
0.0
  0
SPLINE
  5
199
100
AcDbEntity
  8
Capa_1
 62
7
100
AcDbSpline
 70
0
 71
3
 72
10
 73
6
 74
4
 40
0.000000
 40
0.000000
 40
0.000000
 40
0.000000
 40
3.073320
 40
6.184981
 40
9.356498
 40
9.356498
 40
9.356498
 40
9.356498
 10
11.688080
 20
38.335690
 30
0.0
 10
11.943208
 20
39.330139
 30
0.0
 10
12.456646
 20
41.331444
 30
0.0
 10
13.921479
 20
44.126022
 30
0.0
 10
15.275505
 20
45.728518
 30
0.0
 10
15.958967
 20
46.537399
 30
0.0
 11
11.688080
 21
38.335690
 31
0.0
 11
12.565775
 21
41.281017
 31
0.0
 11
14.002939
 21
44.040906
 31
0.0
 11
15.958967
 21
46.537399
 31
0.0
  0
LINE
  5
19a
100
AcDbEntity
  8
Capa_1
 62
7
100
AcDbLine
 10
47.806741
 20
37.665359
 30
0.0
 11
47.863989
 21
37.305381
 31
0.0
  0
LINE
  5
19b
100
AcDbEntity
  8
Capa_1
 62
7
100
AcDbLine
 10
47.863989
 20
37.305381
 30
0.0
 11
47.734870
 21
36.972006
 31
0.0
  0
SPLINE
  5
19c
100
AcDbEntity
  8
Capa_1
 62
7
100
AcDbSpline
 70
0
 71
3
 72
19
 73
15
 74
13
 40
0.000000
 40
0.000000
 40
0.000000
 40
0.000000
 40
0.084479
 40
0.276289
 40
0.596350
 40
2.617034
 40
4.604095
 40
6.520047
 40
6.815884
 40
7.062909
 40
7.207662
 40
8.106752
 40
9.246937
 40
10.352148
 40
10.352148
 40
10.352148
 40
10.352148
 10
43.174788
 20
46.727033
 30
0.0
 10
43.199797
 20
46.713800
 30
0.0
 10
43.281589
 20
46.670520
 30
0.0
 10
43.415395
 20
46.519076
 30
0.0
 10
43.998485
 20
45.913994
 30
0.0
 10
44.903627
 20
44.779786
 30
0.0
 10
45.974016
 20
43.118053
 30
0.0
 10
46.576417
 20
41.849399
 30
0.0
 10
46.876772
 20
41.086873
 30
0.0
 10
46.961550
 20
40.873925
 30
0.0
 10
47.123783
 20
40.475346
 30
0.0
 10
47.340503
 20
39.779033
 30
0.0
 10
47.603145
 20
38.763882
 30
0.0
 10
47.739584
 20
38.027711
 30
0.0
 10
47.806741
 20
37.665359
 30
0.0
 11
43.174788
 21
46.727033
 31
0.0
 11
43.247963
 21
46.684820
 31
0.0
 11
43.387040
 21
46.552726
 31
0.0
 11
43.606014
 21
46.319296
 31
0.0
 11
44.881674
 21
44.752179
 31
0.0
 11
45.949204
 21
43.076233
 31
0.0
 11
46.773478
 21
41.346654
 31
0.0
 11
46.882918
 21
41.071805
 31
0.0
 11
46.974531
 21
40.842396
 31
0.0
 11
47.028449
 21
40.708060
 31
0.0
 11
47.310354
 21
39.854308
 31
0.0
 11
47.592889
 21
38.749683
 31
0.0
 11
47.806741
 21
37.665359
 31
0.0
  0
LINE
  5
19d
100
AcDbEntity
  8
Capa_1
 62
7
100
AcDbLine
 10
42.541171
 20
43.292309
 30
0.0
 11
41.788391
 21
43.997018
 31
0.0
  0
LINE
  5
19e
100
AcDbEntity
  8
Capa_1
 62
7
100
AcDbLine
 10
41.788391
 20
43.997018
 30
0.0
 11
42.021427
 21
44.297415
 31
0.0
  0
SPLINE
  5
19f
100
AcDbEntity
  8
Capa_1
 62
7
100
AcDbSpline
 70
0
 71
3
 72
22
 73
18
 74
16
 40
0.000000
 40
0.000000
 40
0.000000
 40
0.000000
 40
0.233001
 40
0.500228
 40
0.743863
 40
0.939523
 40
1.081080
 40
1.138376
 40
1.206951
 40
1.378631
 40
1.616622
 40
2.859707
 40
4.188390
 40
5.464169
 40
6.984913
 40
8.428149
 40
9.992667
 40
9.992667
 40
9.992667
 40
9.992667
 10
47.734870
 20
36.972006
 30
0.0
 10
47.706433
 20
36.899809
 30
0.0
 10
47.645382
 20
36.744809
 30
0.0
 10
47.551305
 20
36.514040
 30
0.0
 10
47.462185
 20
36.300568
 30
0.0
 10
47.382076
 20
36.111891
 30
0.0
 10
47.331628
 20
36.017085
 30
0.0
 10
47.280395
 20
35.898387
 30
0.0
 10
47.238580
 20
36.045361
 30
0.0
 10
47.185439
 20
36.158570
 30
0.0
 10
47.007592
 20
36.714284
 30
0.0
 10
46.669046
 20
37.556879
 30
0.0
 10
46.108725
 20
38.724280
 30
0.0
 10
45.416373
 20
39.910436
 30
0.0
 10
44.606676
 20
41.071781
 30
0.0
 10
43.638925
 20
42.233570
 30
0.0
 10
42.916795
 20
42.930034
 30
0.0
 10
42.541171
 20
43.292309
 30
0.0
 11
47.734870
 21
36.972006
 31
0.0
 11
47.649079
 21
36.755374
 31
0.0
 11
47.548367
 21
36.507851
 31
0.0
 11
47.454542
 21
36.283007
 31
0.0
 11
47.375754
 21
36.103911
 31
0.0
 11
47.314434
 21
35.976326
 31
0.0
 11
47.283887
 21
35.927852
 31
0.0
 11
47.253645
 21
35.989398
 31
0.0
 11
47.193060
 21
36.150033
 31
0.0
 11
47.115254
 21
36.374946
 31
0.0
 11
46.664253
 21
37.533333
 31
0.0
 11
46.085970
 21
38.729571
 31
0.0
 11
45.444017
 21
39.832072
 31
0.0
 11
44.574142
 21
41.079461
 31
0.0
 11
43.646570
 21
42.185146
 31
0.0
 11
42.541171
 21
43.292309
 31
0.0
  0
LINE
  5
1a0
100
AcDbEntity
  8
Capa_1
 62
7
100
AcDbLine
 10
43.174788
 20
46.727033
 30
0.0
 11
43.174788
 21
46.727033
 31
0.0
  0
SPLINE
  5
1a1
100
AcDbEntity
  8
Capa_1
 62
7
100
AcDbSpline
 70
0
 71
3
 72
16
 73
12
 74
10
 40
0.000000
 40
0.000000
 40
0.000000
 40
0.000000
 40
0.273862
 40
0.598589
 40
0.959825
 40
1.644516
 40
2.315466
 40
2.655348
 40
2.675544
 40
2.689608
 40
2.702405
 40
2.702405
 40
2.702405
 40
2.702405
 10
42.021427
 20
44.297415
 30
0.0
 10
42.074636
 20
44.371648
 30
0.0
 10
42.190935
 20
44.533902
 30
0.0
 10
42.349459
 20
44.812500
 30
0.0
 10
42.553099
 20
45.220984
 30
0.0
 10
42.791559
 20
45.745051
 30
0.0
 10
42.978028
 20
46.268624
 30
0.0
 10
43.152110
 20
46.585424
 30
0.0
 10
43.153925
 20
46.708704
 30
0.0
 10
43.160953
 20
46.724752
 30
0.0
 10
43.170324
 20
46.726297
 30
0.0
 10
43.174788
 20
46.727033
 30
0.0
 11
42.021427
 21
44.297415
 31
0.0
 11
42.177402
 21
44.522520
 31
0.0
 11
42.340879
 21
44.803096
 31
0.0
 11
42.503835
 21
45.125489
 31
0.0
 11
42.783468
 21
45.750474
 31
0.0
 11
43.040654
 21
46.370176
 31
0.0
 11
43.153475
 21
46.690786
 31
0.0
 11
43.155675
 21
46.710862
 31
0.0
 11
43.162611
 21
46.723096
 31
0.0
 11
43.174788
 21
46.727033
 31
0.0
  0
SPLINE
  5
1a2
100
AcDbEntity
  8
Capa_1
 62
7
100
AcDbSpline
 70
0
 71
3
 72
19
 73
15
 74
13
 40
0.000000
 40
0.000000
 40
0.000000
 40
0.000000
 40
5.888409
 40
11.602880
 40
17.491289
 40
23.379698
 40
29.094168
 40
34.982577
 40
40.870987
 40
46.585458
 40
52.473868
 40
58.362277
 40
64.076747
 40
69.965156
 40
69.965156
 40
69.965156
 40
69.965156
 10
41.047343
 20
37.225867
 30
0.0
 10
40.708714
 20
35.245561
 30
0.0
 10
40.041460
 20
31.343444
 30
0.0
 10
35.502609
 20
27.097521
 30
0.0
 10
29.636315
 20
25.572001
 30
0.0
 10
23.744780
 20
27.230371
 30
0.0
 10
19.483241
 20
31.576483
 30
0.0
 10
17.934985
 20
37.485251
 30
0.0
 10
19.572163
 20
43.370002
 30
0.0
 10
23.898754
 20
47.651360
 30
0.0
 10
29.814626
 20
49.220703
 30
0.0
 10
35.657250
 20
47.606897
 30
0.0
 10
40.131560
 20
43.293015
 30
0.0
 10
40.739898
 20
39.381280
 30
0.0
 10
41.048627
 20
37.396093
 30
0.0
 11
41.047343
 21
37.225867
 31
0.0
 11
39.427859
 21
31.564540
 31
0.0
 11
35.334155
 21
27.577465
 31
0.0
 11
29.632066
 21
26.107926
 31
0.0
 11
23.964673
 21
27.706056
 31
0.0
 11
19.962195
 21
31.784700
 31
0.0
 11
18.471170
 21
37.481208
 31
0.0
 11
20.047923
 21
43.154586
 31
0.0
 11
24.111449
 21
47.172413
 31
0.0
 11
29.802297
 21
48.684902
 31
0.0
 11
35.481578
 21
47.129548
 31
0.0
 11
39.514695
 21
43.081197
 31
0.0
 11
41.048627
 21
37.396093
 31
0.0
  0
ENDSEC
  0
SECTION
  2
OBJECTS
  0
DICTIONARY
  5
C
330
0
100
AcDbDictionary
  3
ACAD_GROUP
350
D
  3
ACAD_MLINESTYLE
350
17
  0
DICTIONARY
  5
D
330
C
100
AcDbDictionary
  0
DICTIONARY
  5
1A
330
C
100
AcDbDictionary
  0
DICTIONARY
  5
17
330
C
100
AcDbDictionary
  3
STANDARD
350
18
  0
DICTIONARY
  5
19
330
C
100
AcDbDictionary
  0
ENDSEC
  0
EOF
