  0
SECTION
  2
HEADER
  9
$ACADVER
  1
AC1014
  9
$HANDSEED
  5
FFFF
  9
$MEASUREMENT
 70
     1
  0
ENDSEC
  0
SECTION
  2
TABLES
  0
TABLE
  2
VPORT
  5
8
330
0
100
AcDbSymbolTable
 70
     4
  0
VPORT
  5
2E
330
8
100
AcDbSymbolTableRecord
100
AcDbViewportTableRecord
  2
*ACTIVE
 70
     0
 10
0.0
 20
0.0
 11
1.0
 21
1.0
 12
210.0
 22
148.5
 13
0.0
 23
0.0
 14
10.0
 24
10.0
 15
10.0
 25
10.0
 16
0.0
 26
0.0
 36
1.0
 17
0.0
 27
0.0
 37
0.0
 40
341.0
 41
1.24
 42
50.0
 43
0.0
 44
0.0
 50
0.0
 51
0.0
 71
     0
 72
   100
 73
     1
 74
     3
 75
     0
 76
     0
 77
     0
 78
     0
  0
ENDTAB
  0
TABLE
  2
LTYPE
  5
5
330
0
100
AcDbSymbolTable
 70
     1
  0
LTYPE
  5
14
330
5
100
AcDbSymbolTableRecord
100
AcDbLinetypeTableRecord
  2
BYBLOCK
 70
     0
  3

 72
    65
 73
     0
 40
0.0
  0
LTYPE
  5
15
330
5
100
AcDbSymbolTableRecord
100
AcDbLinetypeTableRecord
  2
BYLAYER
 70
     0
  3

 72
    65
 73
     0
 40
0.0
  0
LTYPE
  5
16
330
5
100
AcDbSymbolTableRecord
100
AcDbLinetypeTableRecord
  2
CONTINUOUS
 70
     0
  3
Solid line
 72
    65
 73
     0
 40
0.0
  0
ENDTAB
  0
TABLE
  2
LAYER
  5
2
100
AcDbSymbolTable
 70
1
  0
LAYER
  5
50
100
AcDbSymbolTableRecord
100
AcDbLayerTableRecord
  2
0
 70
0
  6
CONTINUOUS
  0
ENDTAB
  0
TABLE
  2
STYLE
  5
3
330
0
100
AcDbSymbolTable
 70
     1
  0
STYLE
  5
11
330
3
100
AcDbSymbolTableRecord
100
AcDbTextStyleTableRecord
  2
STANDARD
 70
     0
 40
0.0
 41
1.0
 50
0.0
 71
     0
 42
2.5
  3
txt
  4

  0
ENDTAB
  0
TABLE
  2
VIEW
  5
6
330
0
100
AcDbSymbolTable
 70
     0
  0
ENDTAB
  0
TABLE
  2
UCS
  5
7
330
0
100
AcDbSymbolTable
 70
     0
  0
ENDTAB
  0
TABLE
  2
APPID
  5
9
330
0
100
AcDbSymbolTable
 70
     2
  0
APPID
  5
12
330
9
100
AcDbSymbolTableRecord
100
AcDbRegAppTableRecord
  2
ACAD
 70
     0
  0
ENDTAB
  0
TABLE
  2
DIMSTYLE
  5
A
330
0
100
AcDbSymbolTable
 70
     1
  0
DIMSTYLE
105
27
330
A
100
AcDbSymbolTableRecord
100
AcDbDimStyleTableRecord
  2
ISO-25
 70
     0
  3

  4

  5

  6

  7

 40
1.0
 41
2.5
 42
0.625
 43
3.75
 44
1.25
 45
0.0
 46
0.0
 47
0.0
 48
0.0
140
2.5
141
2.5
142
0.0
143
0.03937007874016
144
1.0
145
0.0
146
1.0
147
0.625
 71
     0
 72
     0
 73
     0
 74
     0
 75
     0
 76
     0
 77
     1
 78
     8
170
     0
171
     3
172
     1
173
     0
174
     0
175
     0
176
     0
177
     0
178
     0
270
     2
271
     2
272
     2
273
     2
274
     3
340
11
275
     0
280
     0
281
     0
282
     0
283
     0
284
     8
285
     0
286
     0
287
     3
288
     0
  0
ENDTAB
  0
TABLE
  2
BLOCK_RECORD
  5
1
330
0
100
AcDbSymbolTable
 70
     1
  0
BLOCK_RECORD
  5
1F
330
1
100
AcDbSymbolTableRecord
100
AcDbBlockTableRecord
  2
*MODEL_SPACE
  0
BLOCK_RECORD
  5
1B
330
1
100
AcDbSymbolTableRecord
100
AcDbBlockTableRecord
  2
*PAPER_SPACE
  0
ENDTAB
  0
ENDSEC
  0
SECTION
  2
BLOCKS
  0
BLOCK
  5
20
330
1F
100
AcDbEntity
  8
0
100
AcDbBlockBegin
  2
*MODEL_SPACE
 70
     0
 10
0.0
 20
0.0
 30
0.0
  3
*MODEL_SPACE
  1

  0
ENDBLK
  5
21
330
1F
100
AcDbEntity
  8
0
100
AcDbBlockEnd
  0
BLOCK
  5
1C
330
1B
100
AcDbEntity
 67
     1
  8
0
100
AcDbBlockBegin
  2
*PAPER_SPACE
  1

  0
ENDBLK
  5
1D
330
1B
100
AcDbEntity
 67
     1
  8
0
100
AcDbBlockEnd
  0
ENDSEC
  0
SECTION
  2
ENTITIES
  0
LINE
  5
100
100
AcDbEntity
  8
0
 62
7
100
AcDbLine
 10
73.403677
 20
242.523380
 30
0.0
 11
74.963632
 21
242.437940
 31
0.0
  0
LINE
  5
101
100
AcDbEntity
  8
0
 62
7
100
AcDbLine
 10
74.963632
 20
242.437940
 30
0.0
 11
74.633461
 21
241.981533
 31
0.0
  0
SPLINE
  5
102
100
AcDbEntity
  8
0
 62
7
100
AcDbSpline
 70
0
 71
3
 72
70
 73
66
 74
64
 40
0.000000
 40
0.000000
 40
0.000000
 40
0.000000
 40
7.095827
 40
14.918618
 40
22.910978
 40
31.592602
 40
39.278322
 40
46.049202
 40
47.926100
 40
49.827895
 40
51.135381
 40
51.328762
 40
51.559190
 40
52.057952
 40
54.405384
 40
57.531445
 40
60.183511
 40
68.633495
 40
77.886763
 40
87.982979
 40
96.744336
 40
105.198720
 40
113.330573
 40
115.475721
 40
116.907243
 40
119.879774
 40
122.298381
 40
125.244776
 40
128.081052
 40
130.455960
 40
132.192818
 40
132.915621
 40
133.019004
 40
133.160301
 40
133.328578
 40
133.751314
 40
134.552607
 40
135.559344
 40
136.537066
 40
137.262218
 40
137.578212
 40
137.802940
 40
138.331493
 40
139.053382
 40
145.747554
 40
153.839055
 40
163.552548
 40
173.400939
 40
183.694130
 40
194.240618
 40
199.396688
 40
203.329386
 40
206.138208
 40
207.666561
 40
209.564661
 40
212.142192
 40
220.082157
 40
228.865319
 40
237.682828
 40
243.775084
 40
249.646512
 40
255.328938
 40
258.637385
 40
262.057869
 40
265.832508
 40
265.832508
 40
265.832508
 40
265.832508
 10
218.713408
 20
283.646242
 30
0.0
 10
216.348991
 20
283.550273
 30
0.0
 10
211.377923
 20
283.348503
 30
0.0
 10
203.800893
 20
282.311961
 30
0.0
 10
195.787022
 20
280.729829
 30
0.0
 10
187.955925
 20
278.522578
 30
0.0
 10
180.787906
 20
275.656806
 30
0.0
 10
175.995376
 20
272.982898
 30
0.0
 10
173.199416
 20
270.877025
 30
0.0
 10
171.853665
 20
269.784301
 30
0.0
 10
171.087464
 20
269.050892
 30
0.0
 10
170.633810
 20
268.590710
 30
0.0
 10
170.322969
 20
268.774536
 30
0.0
 10
169.610365
 20
269.436220
 30
0.0
 10
167.948660
 20
270.635540
 30
0.0
 10
165.749116
 20
272.172237
 30
0.0
 10
161.733825
 20
274.719811
 30
0.0
 10
155.500897
 20
277.486784
 30
0.0
 10
146.607089
 20
280.142791
 30
0.0
 10
137.343978
 20
281.752637
 30
0.0
 10
128.289004
 20
282.441224
 30
0.0
 10
119.726908
 20
282.515914
 30
0.0
 10
113.780988
 20
281.371714
 30
0.0
 10
109.599101
 20
281.247106
 30
0.0
 10
108.190305
 20
279.363334
 30
0.0
 10
108.035854
 20
277.051425
 30
0.0
 10
107.370457
 20
274.357044
 30
0.0
 10
106.830176
 20
271.675649
 30
0.0
 10
106.243380
 20
269.020002
 30
0.0
 10
105.791531
 20
266.750702
 30
0.0
 10
105.399491
 20
265.180998
 30
0.0
 10
105.315472
 20
264.332690
 30
0.0
 10
105.203081
 20
264.021803
 30
0.0
 10
105.080276
 20
263.943082
 30
0.0
 10
104.849187
 20
263.870549
 30
0.0
 10
104.405609
 20
263.729616
 30
0.0
 10
103.709106
 20
263.466242
 30
0.0
 10
102.845318
 20
263.148000
 30
0.0
 10
101.987927
 20
262.781069
 30
0.0
 10
101.390634
 20
262.646323
 30
0.0
 10
100.937766
 20
262.356006
 30
0.0
 10
100.739172
 20
262.730453
 30
0.0
 10
100.507236
 20
263.122222
 30
0.0
 10
99.381165
 20
265.576913
 30
0.0
 10
96.163478
 20
269.707418
 30
0.0
 10
89.364899
 20
274.410551
 30
0.0
 10
80.877466
 20
278.086043
 30
0.0
 10
71.301960
 20
280.862369
 30
0.0
 10
61.231006
 20
282.757416
 30
0.0
 10
52.602052
 20
283.555037
 30
0.0
 10
46.032211
 20
283.718082
 30
0.0
 10
42.113149
 20
283.320643
 30
0.0
 10
39.328997
 20
282.749294
 30
0.0
 10
37.754071
 20
281.239089
 30
0.0
 10
37.348088
 20
279.196357
 30
0.0
 10
37.559209
 20
275.070760
 30
0.0
 10
39.327963
 20
268.787863
 30
0.0
 10
43.107445
 20
261.132604
 30
0.0
 10
47.832738
 20
254.731552
 30
0.0
 10
52.913331
 20
249.984826
 30
0.0
 10
57.797254
 20
246.662529
 30
0.0
 10
62.328412
 20
244.592508
 30
0.0
 10
66.303624
 20
243.424074
 30
0.0
 10
69.754490
 20
242.787380
 30
0.0
 10
72.148010
 20
242.614221
 30
0.0
 10
73.403677
 20
242.523380
 30
0.0
 11
218.713408
 21
283.646242
 31
0.0
 11
211.628581
 21
283.251288
 31
0.0
 11
203.870811
 21
282.244785
 31
0.0
 11
196.034200
 21
280.674643
 31
0.0
 11
187.689579
 21
278.279253
 31
0.0
 11
180.571401
 21
275.380660
 31
0.0
 11
174.709884
 21
271.991348
 31
0.0
 11
173.206426
 21
270.867801
 31
0.0
 11
171.740835
 21
269.655832
 31
0.0
 11
170.794615
 21
268.753508
 31
0.0
 11
170.636909
 21
268.641593
 31
0.0
 11
170.421047
 21
268.722221
 31
0.0
 11
170.034478
 21
269.037384
 31
0.0
 11
168.172898
 21
270.467404
 31
0.0
 11
165.601335
 21
272.244853
 31
0.0
 11
163.354842
 21
273.654365
 31
0.0
 11
155.691527
 21
277.214678
 31
0.0
 11
146.834318
 21
279.892890
 31
0.0
 11
136.893207
 21
281.655805
 31
0.0
 11
128.159370
 21
282.349687
 31
0.0
 11
119.705685
 21
282.240928
 31
0.0
 11
111.624948
 21
281.330586
 31
0.0
 11
109.526985
 21
280.883140
 31
0.0
 11
108.611350
 21
279.782745
 31
0.0
 11
107.929615
 21
276.889447
 31
0.0
 11
107.427766
 21
274.523478
 31
0.0
 11
106.813832
 21
271.641755
 31
0.0
 11
106.220844
 21
268.868161
 31
0.0
 11
105.728009
 21
266.544951
 31
0.0
 11
105.376511
 21
264.844032
 31
0.0
 11
105.242436
 21
264.133773
 31
0.0
 11
105.199570
 21
264.039696
 31
0.0
 11
105.087126
 21
263.954131
 31
0.0
 11
104.929339
 21
263.895648
 31
0.0
 11
104.527144
 21
263.765476
 31
0.0
 11
103.774015
 21
263.491856
 31
0.0
 11
102.833077
 21
263.133868
 31
0.0
 11
101.919555
 21
262.785418
 31
0.0
 11
101.238321
 21
262.536892
 31
0.0
 11
100.936882
 21
262.442094
 31
0.0
 11
100.797511
 21
262.618385
 31
0.0
 11
100.541094
 21
263.080573
 31
0.0
 11
100.223058
 21
263.728629
 31
0.0
 11
96.241225
 21
269.109795
 31
0.0
 11
89.706824
 21
273.882007
 31
0.0
 11
80.852256
 21
277.875571
 31
0.0
 11
71.408801
 21
280.670563
 31
0.0
 11
61.294987
 21
282.583818
 31
0.0
 11
50.793952
 21
283.561909
 31
0.0
 11
45.638072
 21
283.606241
 31
0.0
 11
41.726284
 21
283.201237
 31
0.0
 11
39.050855
 21
282.345926
 31
0.0
 11
37.973556
 21
281.261817
 31
0.0
 11
37.462150
 21
279.433909
 31
0.0
 11
37.515171
 21
276.856924
 31
0.0
 11
39.463071
 21
269.159605
 31
0.0
 11
43.327912
 21
261.272467
 31
0.0
 11
48.611132
 21
254.213002
 31
0.0
 11
53.067494
 21
250.058917
 31
0.0
 11
57.933424
 21
246.773129
 31
0.0
 11
63.107533
 21
244.423969
 31
0.0
 11
66.281166
 21
243.489157
 31
0.0
 11
69.644829
 21
242.868281
 31
0.0
 11
73.403677
 21
242.523380
 31
0.0
  0
SPLINE
  5
103
100
AcDbEntity
  8
0
 62
7
100
AcDbSpline
 70
0
 71
3
 72
43
 73
39
 74
37
 40
0.000000
 40
0.000000
 40
0.000000
 40
0.000000
 40
1.133186
 40
2.701747
 40
4.170525
 40
4.990008
 40
6.126186
 40
8.251305
 40
12.740350
 40
16.633730
 40
20.610628
 40
32.677187
 40
44.060871
 40
55.193627
 40
59.312853
 40
63.891431
 40
68.249190
 40
83.572335
 40
100.017965
 40
117.951407
 40
120.553153
 40
123.292934
 40
124.858907
 40
125.068832
 40
125.637961
 40
126.444310
 40
129.668075
 40
132.884648
 40
135.808236
 40
137.572954
 40
139.177677
 40
140.371466
 40
143.824791
 40
148.801630
 40
156.552239
 40
162.982338
 40
172.293432
 40
179.655040
 40
179.655040
 40
179.655040
 40
179.655040
 10
74.633461
 20
241.981533
 30
0.0
 10
74.426589
 20
241.665525
 30
0.0
 10
73.933366
 20
240.912096
 30
0.0
 10
73.228479
 20
239.711466
 30
0.0
 10
72.634207
 20
238.575674
 30
0.0
 10
72.051470
 20
237.582654
 30
0.0
 10
70.987330
 20
236.707407
 30
0.0
 10
68.934731
 20
235.156843
 30
0.0
 10
66.148951
 20
233.022264
 30
0.0
 10
63.040015
 20
230.316508
 30
0.0
 10
58.307917
 20
225.648862
 30
0.0
 10
52.486962
 20
218.511616
 30
0.0
 10
47.287027
 20
208.129444
 30
0.0
 10
45.116265
 20
199.413424
 30
0.0
 10
44.775638
 20
192.802558
 30
0.0
 10
44.942914
 20
188.448674
 30
0.0
 10
45.885354
 20
180.408145
 30
0.0
 10
50.154180
 20
168.877093
 30
0.0
 10
60.501078
 20
155.618746
 30
0.0
 10
69.786669
 20
147.783876
 30
0.0
 10
76.958686
 20
143.901081
 30
0.0
 10
78.203602
 20
142.569701
 30
0.0
 10
80.845547
 20
142.134042
 30
0.0
 10
80.276888
 20
141.498718
 30
0.0
 10
79.916268
 20
141.139899
 30
0.0
 10
78.791549
 20
140.075030
 30
0.0
 10
77.193530
 20
138.264568
 30
0.0
 10
75.547748
 20
135.591455
 30
0.0
 10
74.567346
 20
133.123402
 30
0.0
 10
74.202863
 20
131.049989
 30
0.0
 10
74.084301
 20
129.534502
 30
0.0
 10
74.252225
 20
127.426051
 30
0.0
 10
76.633516
 20
124.785919
 30
0.0
 10
81.968091
 20
123.465766
 30
0.0
 10
88.320463
 20
122.922708
 30
0.0
 10
96.158947
 20
122.902478
 30
0.0
 10
103.857502
 20
122.868748
 30
0.0
 10
109.414828
 20
122.956677
 30
0.0
 10
111.868591
 20
122.995501
 30
0.0
 11
74.633461
 21
241.981533
 31
0.0
 11
74.019282
 21
241.029222
 31
0.0
 11
73.223710
 21
239.677391
 31
0.0
 11
72.518995
 21
238.388714
 31
0.0
 11
72.074252
 21
237.700415
 31
0.0
 11
71.243604
 21
236.925222
 31
0.0
 11
69.560601
 21
235.627675
 31
0.0
 11
66.023664
 21
232.863328
 31
0.0
 11
63.088357
 21
230.305521
 31
0.0
 11
60.252799
 21
227.517094
 31
0.0
 11
52.726197
 21
218.085651
 31
0.0
 11
47.645621
 21
207.898600
 31
0.0
 11
45.067353
 21
197.068513
 31
0.0
 11
44.842033
 21
192.955454
 31
0.0
 11
45.006819
 21
188.379843
 31
0.0
 11
45.535898
 21
184.054321
 31
0.0
 11
50.686830
 21
169.622873
 31
0.0
 11
60.528954
 21
156.447466
 31
0.0
 11
74.529829
 21
145.241047
 31
0.0
 11
76.754049
 21
143.891259
 31
0.0
 11
79.120917
 21
142.511283
 31
0.0
 11
80.496176
 21
141.762328
 31
0.0
 11
80.364844
 21
141.598558
 31
0.0
 11
79.966204
 21
141.192362
 31
0.0
 11
79.386591
 21
140.631785
 31
0.0
 11
77.264172
 21
138.205266
 31
0.0
 11
75.583425
 21
135.462743
 31
0.0
 11
74.544137
 21
132.730116
 31
0.0
 11
74.223114
 21
130.994843
 31
0.0
 11
74.122249
 21
129.393293
 31
0.0
 11
74.259178
 21
128.207383
 31
0.0
 11
76.372903
 21
125.476519
 31
0.0
 11
81.057315
 21
123.795683
 31
0.0
 11
88.767150
 21
123.001710
 31
0.0
 11
95.196497
 21
122.903386
 31
0.0
 11
104.507590
 21
122.900917
 31
0.0
 11
111.868591
 21
122.995501
 31
0.0
  0
LINE
  5
104
100
AcDbEntity
  8
0
 62
7
100
AcDbLine
 10
130.224606
 20
128.490029
 30
0.0
 11
130.345877
 21
129.024163
 31
0.0
  0
LINE
  5
105
100
AcDbEntity
  8
0
 62
7
100
AcDbLine
 10
130.345877
 20
129.024163
 30
0.0
 11
134.771037
 21
129.024163
 31
0.0
  0
LINE
  5
106
100
AcDbEntity
  8
0
 62
7
100
AcDbLine
 10
134.771037
 20
129.024163
 30
0.0
 11
139.196733
 21
129.024163
 31
0.0
  0
LINE
  5
107
100
AcDbEntity
  8
0
 62
7
100
AcDbLine
 10
139.196733
 20
129.024163
 30
0.0
 11
139.409500
 21
128.301504
 31
0.0
  0
SPLINE
  5
108
100
AcDbEntity
  8
0
 62
7
100
AcDbSpline
 70
0
 71
3
 72
13
 73
9
 74
7
 40
0.000000
 40
0.000000
 40
0.000000
 40
0.000000
 40
6.121306
 40
10.594610
 40
14.053039
 40
16.469256
 40
18.443576
 40
20.116475
 40
20.116475
 40
20.116475
 40
20.116475
 10
111.868591
 20
122.995501
 30
0.0
 10
113.908431
 20
123.069872
 30
0.0
 10
117.438938
 20
123.198590
 30
0.0
 10
122.097981
 20
123.710973
 30
0.0
 10
125.477774
 20
124.506084
 30
0.0
 10
127.869281
 20
125.560252
 30
0.0
 10
129.546210
 20
126.821166
 30
0.0
 10
130.011286
 20
127.965259
 30
0.0
 10
130.224606
 20
128.490029
 30
0.0
 11
111.868591
 21
122.995501
 31
0.0
 11
117.982087
 21
123.304595
 31
0.0
 11
122.422038
 21
123.849840
 31
0.0
 11
125.773538
 21
124.703171
 31
0.0
 11
127.966523
 21
125.717530
 31
0.0
 11
129.470277
 21
126.996852
 31
0.0
 11
130.224606
 21
128.490029
 31
0.0
  0
SPLINE
  5
109
100
AcDbEntity
  8
0
 62
7
100
AcDbSpline
 70
0
 71
3
 72
13
 73
9
 74
7
 40
0.000000
 40
0.000000
 40
0.000000
 40
0.000000
 40
1.721383
 40
3.689748
 40
6.040857
 40
11.202164
 40
19.135024
 40
31.776616
 40
31.776616
 40
31.776616
 40
31.776616
 10
139.409500
 20
128.301504
 30
0.0
 10
139.652339
 20
127.772892
 30
0.0
 10
140.172860
 20
126.639821
 30
0.0
 10
141.849656
 20
125.403699
 30
0.0
 10
144.774623
 20
124.199371
 30
0.0
 10
149.894186
 20
123.317612
 30
0.0
 10
158.457248
 20
122.897182
 30
0.0
 10
165.317974
 20
122.880238
 30
0.0
 10
169.533420
 20
122.869827
 30
0.0
 11
139.409500
 21
128.301504
 31
0.0
 11
140.247641
 21
126.797949
 31
0.0
 11
141.771167
 21
125.551623
 31
0.0
 11
143.924520
 21
124.607808
 31
0.0
 11
148.978089
 21
123.558746
 31
0.0
 11
156.892739
 21
123.021554
 31
0.0
 11
169.533420
 21
122.869827
 31
0.0
  0
LINE
  5
10a
100
AcDbEntity
  8
0
 62
7
100
AcDbLine
 10
199.038879
 20
236.281826
 30
0.0
 11
196.530290
 21
238.073827
 31
0.0
  0
LINE
  5
10b
100
AcDbEntity
  8
0
 62
7
100
AcDbLine
 10
196.530290
 20
238.073827
 30
0.0
 11
195.475823
 21
239.902210
 31
0.0
  0
SPLINE
  5
10c
100
AcDbEntity
  8
0
 62
7
100
AcDbSpline
 70
0
 71
3
 72
34
 73
30
 74
28
 40
0.000000
 40
0.000000
 40
0.000000
 40
0.000000
 40
7.042308
 40
12.071512
 40
15.680403
 40
21.920283
 40
25.956148
 40
29.540989
 40
33.438570
 40
37.315590
 40
41.407495
 40
42.047518
 40
42.531618
 40
42.757385
 40
43.139882
 40
44.082839
 40
45.385462
 40
64.828260
 40
82.497347
 40
98.980914
 40
103.450363
 40
108.360778
 40
112.796822
 40
125.354199
 40
138.309874
 40
152.360882
 40
154.910306
 40
157.436345
 40
160.426881
 40
160.426881
 40
160.426881
 40
160.426881
 10
169.533420
 20
122.869827
 30
0.0
 10
171.881230
 20
122.875530
 30
0.0
 10
175.905707
 20
122.885306
 30
0.0
 10
181.128565
 20
122.996724
 30
0.0
 10
186.090282
 20
123.336048
 30
0.0
 10
190.615299
 20
123.971424
 30
0.0
 10
195.072342
 20
126.359861
 30
0.0
 10
195.665114
 20
130.525833
 30
0.0
 10
194.677689
 20
134.174641
 30
0.0
 10
192.874150
 20
137.761048
 30
0.0
 10
190.960457
 20
139.884138
 30
0.0
 10
189.648795
 20
141.088197
 30
0.0
 10
189.378538
 20
141.395073
 30
0.0
 10
189.052365
 20
141.708274
 30
0.0
 10
189.725297
 20
142.003384
 30
0.0
 10
190.300798
 20
142.464989
 30
0.0
 10
196.926294
 20
146.052465
 30
0.0
 10
207.099725
 20
153.505137
 30
0.0
 10
218.681518
 20
167.508268
 30
0.0
 10
223.572248
 20
179.738888
 30
0.0
 10
224.605939
 20
188.311266
 30
0.0
 10
224.759195
 20
192.919840
 30
0.0
 10
224.355518
 20
200.220466
 30
0.0
 10
221.675453
 20
209.992848
 30
0.0
 10
215.081634
 20
221.547790
 30
0.0
 10
208.272760
 20
228.787367
 30
0.0
 10
203.452638
 20
232.959269
 30
0.0
 10
201.339774
 20
234.624088
 30
0.0
 10
199.847721
 20
235.699075
 30
0.0
 10
199.038879
 20
236.281826
 30
0.0
 11
169.533420
 21
122.869827
 31
0.0
 11
176.575598
 21
122.912801
 31
0.0
 11
181.602852
 21
123.052791
 31
0.0
 11
185.202822
 21
123.306397
 31
0.0
 11
191.317150
 21
124.551825
 31
0.0
 11
194.640076
 21
126.842322
 31
0.0
 11
195.411336
 21
130.343213
 31
0.0
 11
194.548778
 21
134.144151
 31
0.0
 11
192.774197
 21
137.591200
 31
0.0
 11
190.089894
 21
140.679599
 31
0.0
 11
189.628265
 21
141.122913
 31
0.0
 11
189.294337
 21
141.473406
 31
0.0
 11
189.160537
 21
141.655252
 31
0.0
 11
189.458453
 21
141.895148
 31
0.0
 11
190.256291
 21
142.397764
 31
0.0
 11
191.381400
 21
143.054237
 31
0.0
 11
207.073032
 21
154.534441
 31
0.0
 11
218.119875
 21
168.324433
 31
0.0
 11
223.969797
 21
183.735026
 31
0.0
 11
224.526821
 21
188.169628
 31
0.0
 11
224.688295
 21
193.077388
 31
0.0
 11
224.422905
 21
197.505487
 31
0.0
 11
221.234105
 21
209.651238
 31
0.0
 11
214.868224
 21
220.935078
 31
0.0
 11
205.365737
 21
231.285613
 31
0.0
 11
203.434024
 21
232.949358
 31
0.0
 11
201.451592
 21
234.514874
 31
0.0
 11
199.038879
 21
236.281826
 31
0.0
  0
LINE
  5
10d
100
AcDbEntity
  8
0
 62
7
100
AcDbLine
 10
218.713408
 20
283.646101
 30
0.0
 11
218.713408
 21
283.646242
 31
0.0
  0
SPLINE
  5
10e
100
AcDbEntity
  8
0
 62
7
100
AcDbSpline
 70
0
 71
3
 72
31
 73
27
 74
25
 40
0.000000
 40
0.000000
 40
0.000000
 40
0.000000
 40
1.124352
 40
2.043330
 40
2.558200
 40
2.792211
 40
2.974137
 40
3.066007
 40
3.187772
 40
3.494591
 40
3.923289
 40
7.864911
 40
12.374596
 40
16.771645
 40
22.459573
 40
28.497793
 40
34.721873
 40
42.423916
 40
50.114311
 40
56.976288
 40
60.187619
 40
62.474941
 40
65.153201
 40
67.323438
 40
69.849242
 40
72.686688
 40
72.686688
 40
72.686688
 40
72.686688
 10
195.475823
 20
239.902210
 30
0.0
 10
195.287902
 20
240.226066
 30
0.0
 10
194.946386
 20
240.814622
 30
0.0
 10
194.503460
 20
241.547634
 30
0.0
 10
194.215760
 20
242.015448
 30
0.0
 10
194.023106
 20
242.272621
 30
0.0
 10
193.950513
 20
242.402616
 30
0.0
 10
193.852268
 20
242.547374
 30
0.0
 10
194.100168
 20
242.564008
 30
0.0
 10
194.334459
 20
242.590778
 30
0.0
 10
195.965488
 20
242.592125
 30
0.0
 10
198.839259
 20
242.927730
 30
0.0
 10
203.041747
 20
243.939726
 30
0.0
 10
207.621932
 20
245.598598
 30
0.0
 10
212.291458
 20
248.330297
 30
0.0
 10
216.941512
 20
252.122792
 30
0.0
 10
221.473904
 20
257.032608
 30
0.0
 10
225.394961
 20
263.115010
 30
0.0
 10
228.461491
 20
269.920139
 30
0.0
 10
229.883253
 20
275.664920
 30
0.0
 10
230.220832
 20
279.861159
 30
0.0
 10
228.802043
 20
282.448120
 30
0.0
 10
226.367772
 20
283.139999
 30
0.0
 10
223.962165
 20
283.472539
 30
0.0
 10
221.445409
 20
283.644583
 30
0.0
 10
219.658682
 20
283.645576
 30
0.0
 10
218.713408
 20
283.646101
 30
0.0
 11
195.475823
 21
239.902210
 31
0.0
 11
194.908347
 21
240.872847
 31
0.0
 11
194.433871
 21
241.659863
 31
0.0
 11
194.155108
 21
242.092740
 31
0.0
 11
194.020755
 21
242.284339
 31
0.0
 11
193.924896
 21
242.438963
 31
0.0
 11
193.888323
 21
242.523239
 31
0.0
 11
194.005000
 21
242.558068
 31
0.0
 11
194.310804
 21
242.583013
 31
0.0
 11
194.739393
 21
242.592691
 31
0.0
 11
198.661783
 21
242.981580
 31
0.0
 11
203.048316
 21
244.028283
 31
0.0
 11
207.170407
 21
245.558778
 31
0.0
 11
212.105685
 21
248.386417
 31
0.0
 11
216.798133
 21
252.186553
 31
0.0
 11
221.011431
 21
256.767742
 31
0.0
 11
225.229052
 21
263.212363
 31
0.0
 11
228.340914
 21
270.245037
 31
0.0
 11
229.928976
 21
276.920723
 31
0.0
 11
229.869428
 21
280.131502
 31
0.0
 11
228.693265
 21
282.093257
 31
0.0
 11
226.216540
 21
283.112526
 31
0.0
 11
224.070273
 21
283.434182
 31
0.0
 11
221.550631
 21
283.610521
 31
0.0
 11
218.713408
 21
283.646101
 31
0.0
  0
LINE
  5
10f
100
AcDbEntity
  8
0
 62
7
100
AcDbLine
 10
188.930130
 20
246.032965
 30
0.0
 11
187.503046
 21
247.569203
 31
0.0
  0
LINE
  5
110
100
AcDbEntity
  8
0
 62
7
100
AcDbLine
 10
187.503046
 20
247.569203
 30
0.0
 11
188.929594
 21
247.726299
 31
0.0
  0
SPLINE
  5
111
100
AcDbEntity
  8
0
 62
7
100
AcDbSpline
 70
0
 71
3
 72
25
 73
21
 74
19
 40
0.000000
 40
0.000000
 40
0.000000
 40
0.000000
 40
3.082825
 40
5.459157
 40
6.843197
 40
9.667900
 40
14.959622
 40
21.590090
 40
31.916213
 40
41.557453
 40
50.541351
 40
53.788061
 40
56.982024
 40
60.577244
 40
61.798917
 40
62.770341
 40
63.282241
 40
63.619574
 40
64.276697
 40
65.656928
 40
65.656928
 40
65.656928
 40
65.656928
 10
219.464148
 20
281.389018
 30
0.0
 10
220.500901
 20
281.373344
 30
0.0
 10
222.336813
 20
281.345589
 30
0.0
 10
224.523775
 20
281.096742
 30
0.0
 10
226.914325
 20
280.663887
 30
0.0
 10
226.899155
 20
276.687840
 30
0.0
 10
225.826715
 20
272.303793
 30
0.0
 10
223.138218
 20
265.174673
 30
0.0
 10
218.450593
 20
257.637216
 30
0.0
 10
211.583548
 20
250.695161
 30
0.0
 10
205.115044
 20
247.085446
 30
0.0
 10
200.191193
 20
245.574877
 30
0.0
 10
196.892445
 20
244.968767
 30
0.0
 10
194.221062
 20
244.819000
 30
0.0
 10
192.297136
 20
244.723682
 30
0.0
 10
191.390932
 20
244.692435
 30
0.0
 10
190.798304
 20
244.582949
 30
0.0
 10
190.275498
 20
244.601690
 30
0.0
 10
189.711517
 20
245.237481
 30
0.0
 10
189.245702
 20
245.711700
 30
0.0
 10
188.930130
 20
246.032965
 30
0.0
 11
219.464148
 21
281.389018
 31
0.0
 11
222.545303
 21
281.287542
 31
0.0
 11
224.906132
 21
281.016555
 31
0.0
 11
226.225374
 21
280.598022
 31
0.0
 11
226.833173
 21
277.839485
 31
0.0
 11
225.811057
 21
272.647415
 31
0.0
 11
223.441167
 21
266.454941
 31
0.0
 11
218.004393
 21
257.675971
 31
0.0
 11
211.135410
 21
250.910574
 31
0.0
 11
203.263379
 21
246.581425
 31
0.0
 11
200.158850
 21
245.631148
 31
0.0
 11
197.017161
 21
245.055657
 31
0.0
 11
193.432478
 21
244.780604
 31
0.0
 11
192.212168
 21
244.722906
 31
0.0
 11
191.243036
 21
244.656218
 31
0.0
 11
190.734829
 21
244.594846
 31
0.0
 11
190.399024
 21
244.626925
 31
0.0
 11
189.885131
 21
245.036466
 31
0.0
 11
188.930130
 21
246.032965
 31
0.0
  0
LINE
  5
112
100
AcDbEntity
  8
0
 62
7
100
AcDbLine
 10
219.464148
 20
281.389018
 30
0.0
 11
219.464148
 21
281.389018
 31
0.0
  0
SPLINE
  5
113
100
AcDbEntity
  8
0
 62
7
100
AcDbSpline
 70
0
 71
3
 72
52
 73
48
 74
46
 40
0.000000
 40
0.000000
 40
0.000000
 40
0.000000
 40
2.909632
 40
5.859547
 40
8.791964
 40
11.852551
 40
15.214397
 40
18.479871
 40
22.901541
 40
27.615257
 40
32.179304
 40
34.139986
 40
36.080896
 40
37.321963
 40
38.593415
 40
40.364720
 40
42.864650
 40
48.720599
 40
55.226086
 40
61.636265
 40
68.078422
 40
74.028328
 40
79.592951
 40
79.718032
 40
79.971164
 40
80.430515
 40
81.905616
 40
83.922356
 40
86.335997
 40
87.545926
 40
88.273031
 40
88.502353
 40
88.847279
 40
89.567853
 40
90.510932
 40
93.914698
 40
97.362778
 40
101.405371
 40
104.184871
 40
106.803384
 40
109.738195
 40
119.822231
 40
130.938776
 40
142.392648
 40
143.578442
 40
144.742932
 40
145.874583
 40
145.874583
 40
145.874583
 40
145.874583
 10
188.929594
 20
247.726299
 30
0.0
 10
189.890585
 20
247.865135
 30
0.0
 10
191.825872
 20
248.144729
 30
0.0
 10
194.646468
 20
248.967540
 30
0.0
 10
197.429609
 20
250.053947
 30
0.0
 10
200.135554
 20
251.627013
 30
0.0
 10
202.717652
 20
253.574706
 30
0.0
 10
205.418957
 20
256.094133
 30
0.0
 10
207.905095
 20
259.427349
 30
0.0
 10
210.085102
 20
263.448733
 30
0.0
 10
211.488378
 20
266.939862
 30
0.0
 10
212.037809
 20
269.732063
 30
0.0
 10
212.133204
 20
271.409597
 30
0.0
 10
212.165915
 20
272.986493
 30
0.0
 10
210.963539
 20
273.999322
 30
0.0
 10
209.134025
 20
274.358994
 30
0.0
 10
205.747052
 20
274.379952
 30
0.0
 10
200.831573
 20
273.548250
 30
0.0
 10
194.851245
 20
271.700299
 30
0.0
 10
188.904816
 20
269.063090
 30
0.0
 10
183.845885
 20
265.423579
 30
0.0
 10
179.063262
 20
261.486732
 30
0.0
 10
178.344442
 20
257.268329
 30
0.0
 10
176.614523
 20
256.068294
 30
0.0
 10
176.338578
 20
256.243759
 30
0.0
 10
175.745724
 20
256.595331
 30
0.0
 10
174.603450
 20
257.314046
 30
0.0
 10
172.877223
 20
258.239080
 30
0.0
 10
171.203344
 20
259.070470
 30
0.0
 10
169.899600
 20
259.771171
 30
0.0
 10
169.289701
 20
260.063660
 30
0.0
 10
168.920998
 20
260.423342
 30
0.0
 10
169.346405
 20
260.783826
 30
0.0
 10
169.514967
 20
261.394841
 30
0.0
 10
170.271182
 20
262.937871
 30
0.0
 10
171.408866
 20
265.267308
 30
0.0
 10
173.873085
 20
268.000200
 30
0.0
 10
176.588635
 20
270.091029
 30
0.0
 10
179.208102
 20
271.839192
 30
0.0
 10
181.638679
 20
273.190061
 30
0.0
 10
186.375432
 20
275.372666
 30
0.0
 10
194.017177
 20
277.977181
 30
0.0
 10
204.676911
 20
280.260393
 30
0.0
 10
212.564494
 20
281.145778
 30
0.0
 10
217.161159
 20
281.355297
 30
0.0
 10
218.321528
 20
281.385727
 30
0.0
 10
219.086923
 20
281.387931
 30
0.0
 10
219.464148
 20
281.389018
 30
0.0
 11
188.929594
 21
247.726299
 31
0.0
 11
191.798893
 21
248.209081
 31
0.0
 11
194.637875
 21
249.010445
 31
0.0
 11
197.358217
 21
250.105345
 31
0.0
 11
200.015264
 21
251.624323
 31
0.0
 11
202.705745
 21
253.640091
 31
0.0
 11
205.075245
 21
255.887042
 31
0.0
 11
207.758050
 21
259.401829
 31
0.0
 11
210.026853
 21
263.533614
 31
0.0
 11
211.622011
 21
267.809828
 31
0.0
 11
211.993421
 21
269.735010
 31
0.0
 11
212.132921
 21
271.670900
 31
0.0
 11
211.989125
 21
272.903609
 31
0.0
 11
211.077591
 21
273.790004
 31
0.0
 11
209.371320
 21
274.265566
 31
0.0
 11
206.872211
 21
274.329601
 31
0.0
 11
201.080178
 21
273.466756
 31
0.0
 11
194.858232
 21
271.567085
 31
0.0
 11
189.036528
 21
268.884146
 31
0.0
 11
183.722542
 21
265.242314
 31
0.0
 11
179.589643
 21
260.962066
 31
0.0
 11
176.760398
 21
256.170365
 31
0.0
 11
176.650211
 21
256.111170
 31
0.0
 11
176.411776
 21
256.196170
 31
0.0
 11
176.019028
 21
256.434398
 31
0.0
 11
174.758033
 21
257.199783
 31
0.0
 11
172.989145
 21
258.168428
 31
0.0
 11
170.841464
 21
259.269851
 31
0.0
 11
169.768618
 21
259.829251
 31
0.0
 11
169.148570
 21
260.209016
 31
0.0
 11
169.009785
 21
260.391574
 31
0.0
 11
169.195674
 21
260.682125
 31
0.0
 11
169.516677
 21
261.327247
 31
0.0
 11
169.903301
 21
262.187433
 31
0.0
 11
171.538072
 21
265.172923
 31
0.0
 11
173.799276
 21
267.776039
 31
0.0
 11
176.953889
 21
270.304077
 31
0.0
 11
179.273120
 21
271.835998
 31
0.0
 11
181.560279
 21
273.110957
 31
0.0
 11
184.218910
 21
274.353855
 31
0.0
 11
193.737368
 21
277.683532
 31
0.0
 11
204.597353
 21
280.058037
 31
0.0
 11
215.983783
 21
281.299169
 31
0.0
 11
217.168410
 21
281.351769
 31
0.0
 11
218.332522
 21
281.381420
 31
0.0
 11
219.464148
 21
281.389018
 31
0.0
  0
LINE
  5
114
100
AcDbEntity
  8
0
 62
7
100
AcDbLine
 10
92.424496
 20
256.437706
 30
0.0
 11
90.977570
 21
255.556865
 31
0.0
  0
LINE
  5
115
100
AcDbEntity
  8
0
 62
7
100
AcDbLine
 10
90.977570
 20
255.556865
 30
0.0
 11
90.217998
 21
257.137749
 31
0.0
  0
SPLINE
  5
116
100
AcDbEntity
  8
0
 62
7
100
AcDbSpline
 70
0
 71
3
 72
25
 73
21
 74
19
 40
0.000000
 40
0.000000
 40
0.000000
 40
0.000000
 40
0.830055
 40
1.672842
 40
2.522809
 40
8.995736
 40
15.434318
 40
22.085481
 40
36.301680
 40
47.360972
 40
55.799422
 40
56.359719
 40
56.879228
 40
57.247367
 40
57.532055
 40
57.670814
 40
57.813446
 40
59.347707
 40
62.112873
 40
64.562218
 40
64.562218
 40
64.562218
 40
64.562218
 10
48.202136
 20
281.372479
 30
0.0
 10
48.478812
 20
281.369902
 30
0.0
 10
49.036409
 20
281.364707
 30
0.0
 10
49.877102
 20
281.342529
 30
0.0
 10
52.596752
 20
281.231875
 30
0.0
 10
57.173964
 20
280.879799
 30
0.0
 10
63.634972
 20
279.966929
 30
0.0
 10
72.557650
 20
278.150869
 30
0.0
 10
82.770060
 20
275.012975
 30
0.0
 10
92.749058
 20
269.520117
 30
0.0
 10
96.992514
 20
263.938209
 30
0.0
 10
97.979891
 20
260.917545
 30
0.0
 10
98.162667
 20
260.473403
 30
0.0
 10
98.329025
 20
260.112058
 30
0.0
 10
98.480501
 20
259.909590
 30
0.0
 10
98.518531
 20
259.686505
 30
0.0
 10
97.853165
 20
259.476673
 30
0.0
 10
96.684964
 20
258.765069
 30
0.0
 10
94.617625
 20
257.722017
 30
0.0
 10
93.125413
 20
256.848168
 30
0.0
 10
92.424496
 20
256.437706
 30
0.0
 11
48.202136
 21
281.372479
 31
0.0
 11
49.032130
 21
281.362405
 31
0.0
 11
49.874635
 21
281.340595
 31
0.0
 11
50.723933
 21
281.306885
 31
0.0
 11
57.177800
 21
280.810515
 31
0.0
 11
63.553661
 21
279.914003
 31
0.0
 11
70.071028
 21
278.586638
 31
0.0
 11
83.588915
 21
274.185838
 31
0.0
 11
92.995170
 21
268.369455
 31
0.0
 11
97.805994
 21
261.436677
 31
0.0
 11
97.990663
 21
260.907687
 31
0.0
 11
98.186540
 21
260.426520
 31
0.0
 11
98.351134
 21
260.097225
 31
0.0
 11
98.484659
 21
259.845792
 31
0.0
 11
98.488599
 21
259.707089
 31
0.0
 11
98.364398
 21
259.636960
 31
0.0
 11
96.984945
 21
258.965345
 31
0.0
 11
94.550445
 21
257.654105
 31
0.0
 11
92.424496
 21
256.437706
 31
0.0
  0
LINE
  5
117
100
AcDbEntity
  8
0
 62
7
100
AcDbLine
 10
48.202164
 20
281.372479
 30
0.0
 11
48.202136
 21
281.372479
 31
0.0
  0
SPLINE
  5
118
100
AcDbEntity
  8
0
 62
7
100
AcDbSpline
 70
0
 71
3
 72
55
 73
51
 74
49
 40
0.000000
 40
0.000000
 40
0.000000
 40
0.000000
 40
7.332395
 40
15.427844
 40
24.441324
 40
31.077305
 40
36.510078
 40
39.986237
 40
40.872200
 40
41.777889
 40
43.258564
 40
48.323261
 40
54.179709
 40
59.973018
 40
65.107769
 40
70.205557
 40
75.223219
 40
76.955025
 40
78.625107
 40
79.941778
 40
80.387088
 40
80.705435
 40
80.829962
 40
81.122856
 40
81.849422
 40
82.852865
 40
83.852494
 40
84.568977
 40
84.847704
 40
85.279801
 40
86.374299
 40
87.894307
 40
89.586725
 40
91.133504
 40
92.200250
 40
95.654025
 40
99.274022
 40
102.780878
 40
106.583067
 40
110.662039
 40
114.835619
 40
123.909130
 40
132.831152
 40
140.301286
 40
141.954453
 40
142.822746
 40
143.936747
 40
145.512308
 40
147.553000
 40
149.910406
 40
149.910406
 40
149.910406
 40
149.910406
 10
90.217998
 20
257.137749
 30
0.0
 10
88.919913
 20
259.230828
 30
0.0
 10
86.188658
 20
263.634805
 30
0.0
 10
79.501510
 20
268.574074
 30
0.0
 10
72.301763
 20
271.896036
 30
0.0
 10
65.481698
 20
273.798964
 30
0.0
 10
60.395417
 20
274.476338
 30
0.0
 10
56.974701
 20
274.312534
 30
0.0
 10
55.503077
 20
273.201955
 30
0.0
 10
55.241219
 20
272.087449
 30
0.0
 10
55.376173
 20
269.615634
 30
0.0
 10
56.353081
 20
265.541684
 30
0.0
 10
58.792159
 20
260.505756
 30
0.0
 10
62.053367
 20
255.908822
 30
0.0
 10
66.088675
 20
252.347184
 30
0.0
 10
70.490415
 20
249.748615
 30
0.0
 10
74.256429
 20
248.449404
 30
0.0
 10
77.011332
 20
247.924070
 30
0.0
 10
78.575455
 20
247.697491
 30
0.0
 10
79.701834
 20
247.616544
 30
0.0
 10
80.417583
 20
247.613398
 30
0.0
 10
80.680045
 20
247.600749
 30
0.0
 10
80.990805
 20
247.562894
 30
0.0
 10
80.484519
 20
247.177003
 30
0.0
 10
80.220300
 20
246.746208
 30
0.0
 10
79.520520
 20
246.050723
 30
0.0
 10
78.927172
 20
245.380318
 30
0.0
 10
78.453069
 20
244.940180
 30
0.0
 10
78.131568
 20
244.535252
 30
0.0
 10
77.471424
 20
244.734864
 30
0.0
 10
76.497805
 20
244.651343
 30
0.0
 10
75.044123
 20
244.750968
 30
0.0
 10
73.464873
 20
244.795416
 30
0.0
 10
72.030370
 20
244.879099
 30
0.0
 10
70.013485
 20
245.032482
 30
0.0
 10
67.342122
 20
245.568565
 30
0.0
 10
63.966421
 20
246.602363
 30
0.0
 10
60.612087
 20
248.051474
 30
0.0
 10
57.373522
 20
250.054346
 30
0.0
 10
54.210534
 20
252.542630
 30
0.0
 10
50.048260
 20
256.566202
 30
0.0
 10
45.738487
 20
262.627256
 30
0.0
 10
41.949354
 20
270.308158
 30
0.0
 10
40.816528
 20
276.269795
 30
0.0
 10
40.594751
 20
279.606522
 30
0.0
 10
41.150755
 20
280.809246
 30
0.0
 10
42.435634
 20
280.997948
 30
0.0
 10
43.945469
 20
281.248136
 30
0.0
 10
45.955250
 20
281.354591
 30
0.0
 10
47.418079
 20
281.366237
 30
0.0
 10
48.202164
 20
281.372479
 30
0.0
 11
90.217998
 21
257.137749
 31
0.0
 11
85.987225
 21
263.126454
 31
0.0
 11
79.639253
 21
268.150352
 31
0.0
 11
71.475563
 21
271.970952
 31
0.0
 11
65.078959
 21
273.737218
 31
0.0
 11
59.682212
 21
274.361830
 31
0.0
 11
56.263673
 21
273.731533
 31
0.0
 11
55.595919
 21
273.149265
 31
0.0
 11
55.320963
 21
272.286322
 31
0.0
 11
55.331577
 21
270.805684
 31
0.0
 11
56.448445
 21
265.865668
 31
0.0
 11
58.943786
 21
260.567437
 31
0.0
 11
62.357923
 21
255.887042
 31
0.0
 11
66.192893
 21
252.472562
 31
0.0
 11
70.588677
 21
249.890988
 31
0.0
 11
75.335714
 21
248.265388
 31
0.0
 11
77.035301
 21
247.932893
 31
0.0
 11
78.689532
 21
247.703338
 31
0.0
 11
80.003416
 21
247.617711
 31
0.0
 11
80.448658
 21
247.609901
 31
0.0
 11
80.766348
 21
247.589475
 31
0.0
 11
80.887562
 21
247.560936
 31
0.0
 11
80.702697
 21
247.333755
 31
0.0
 11
80.218093
 21
246.792407
 31
0.0
 11
79.538737
 21
246.053912
 31
0.0
 11
78.854049
 21
245.325585
 31
0.0
 11
78.355433
 21
244.811065
 31
0.0
 11
78.150768
 21
244.621854
 31
0.0
 11
77.719278
 21
244.644747
 31
0.0
 11
76.625564
 21
244.686167
 31
0.0
 11
75.106409
 21
244.737060
 31
0.0
 11
73.415383
 21
244.805703
 31
0.0
 11
71.871113
 21
244.893780
 31
0.0
 11
70.808051
 21
244.982351
 31
0.0
 11
67.412033
 21
245.611332
 31
0.0
 11
63.952621
 21
246.677563
 31
0.0
 11
60.740648
 21
248.085142
 31
0.0
 11
57.492586
 21
250.061687
 31
0.0
 11
54.280021
 21
252.575139
 31
0.0
 11
51.285640
 21
255.482448
 31
0.0
 11
45.917703
 21
262.797765
 31
0.0
 11
42.151032
 21
270.885698
 31
0.0
 11
40.699569
 21
278.213464
 31
0.0
 11
40.767156
 21
279.865249
 31
0.0
 11
41.192362
 21
280.622304
 31
0.0
 11
42.249590
 21
280.973400
 31
0.0
 11
43.808848
 21
281.199461
 31
0.0
 11
45.845063
 21
281.334580
 31
0.0
 11
48.202164
 21
281.372479
 31
0.0
  0
LINE
  5
119
100
AcDbEntity
  8
0
 62
7
100
AcDbLine
 10
118.812245
 20
279.356145
 30
0.0
 11
118.812245
 21
279.356134
 31
0.0
  0
SPLINE
  5
11a
100
AcDbEntity
  8
0
 62
7
100
AcDbSpline
 70
0
 71
3
 72
34
 73
30
 74
28
 40
0.000000
 40
0.000000
 40
0.000000
 40
0.000000
 40
0.088490
 40
0.147902
 40
0.177226
 40
0.699254
 40
2.959414
 40
8.104737
 40
12.143154
 40
13.550271
 40
13.889409
 40
14.366158
 40
15.276016
 40
16.422218
 40
17.689137
 40
18.915376
 40
19.835490
 40
20.657424
 40
20.992918
 40
21.136613
 40
24.613685
 40
30.936698
 40
34.591915
 40
34.853804
 40
35.436876
 40
36.630158
 40
38.685352
 40
40.672525
 40
41.954307
 40
41.954307
 40
41.954307
 40
41.954307
 10
118.812245
 20
279.356134
 30
0.0
 10
118.841759
 20
279.356664
 30
0.0
 10
118.891089
 20
279.357548
 30
0.0
 10
118.949983
 20
279.358258
 30
0.0
 10
119.154487
 20
279.310551
 30
0.0
 10
118.511219
 20
277.997382
 30
0.0
 10
118.575878
 20
275.934573
 30
0.0
 10
117.521584
 20
271.779331
 30
0.0
 10
116.526637
 20
268.682698
 30
0.0
 10
116.530652
 20
266.451064
 30
0.0
 10
115.854157
 20
266.062018
 30
0.0
 10
115.271744
 20
266.044489
 30
0.0
 10
114.445912
 20
265.870262
 30
0.0
 10
113.350950
 20
265.704430
 30
0.0
 10
112.153814
 20
265.488349
 30
0.0
 10
111.044012
 20
265.297139
 30
0.0
 10
110.044931
 20
265.082166
 30
0.0
 10
109.436120
 20
265.012703
 30
0.0
 10
108.903319
 20
264.844163
 30
0.0
 10
108.386139
 20
266.200783
 30
0.0
 10
110.178886
 20
269.383354
 30
0.0
 10
110.922862
 20
273.618597
 30
0.0
 10
110.840904
 20
277.338860
 30
0.0
 10
111.843890
 20
278.513566
 30
0.0
 10
112.568827
 20
278.583254
 30
0.0
 10
113.790882
 20
278.822383
 30
0.0
 10
115.542001
 20
279.023564
 30
0.0
 10
117.298945
 20
279.240735
 30
0.0
 10
118.386002
 20
279.323638
 30
0.0
 10
118.812245
 20
279.356145
 30
0.0
 11
118.812245
 21
279.356134
 31
0.0
 11
118.900723
 21
279.357617
 31
0.0
 11
118.960081
 21
279.355112
 31
0.0
 11
118.988634
 21
279.348430
 31
0.0
 11
118.932109
 21
278.829470
 31
0.0
 11
118.483170
 21
276.614346
 31
0.0
 11
117.414370
 21
271.581253
 31
0.0
 11
116.562873
 21
267.633626
 31
0.0
 11
116.185560
 21
266.278040
 31
0.0
 11
115.891358
 21
266.109340
 31
0.0
 11
115.419786
 21
266.039278
 31
0.0
 11
114.521581
 21
265.894123
 31
0.0
 11
113.391038
 21
265.705299
 31
0.0
 11
112.142878
 21
265.488093
 31
0.0
 11
110.936462
 21
265.268498
 31
0.0
 11
110.033046
 21
265.094003
 31
0.0
 11
109.225601
 21
264.940347
 31
0.0
 11
108.890259
 21
264.930289
 31
0.0
 11
108.823667
 21
265.057622
 31
0.0
 11
109.511593
 21
268.465963
 31
0.0
 11
110.816758
 21
274.652807
 31
0.0
 11
111.601242
 21
278.222848
 31
0.0
 11
111.783085
 21
278.411313
 31
0.0
 11
112.344767
 21
278.567792
 31
0.0
 11
113.522780
 21
278.758077
 31
0.0
 11
115.560086
 21
279.028649
 31
0.0
 11
117.534794
 21
279.250870
 31
0.0
 11
118.812245
 21
279.356145
 31
0.0
  0
LINE
  5
11b
100
AcDbEntity
  8
0
 62
7
100
AcDbLine
 10
137.686957
 20
267.937711
 30
0.0
 11
137.566787
 21
267.466420
 31
0.0
  0
LINE
  5
11c
100
AcDbEntity
  8
0
 62
7
100
AcDbLine
 10
137.566787
 20
267.466420
 30
0.0
 11
133.940908
 21
267.435553
 31
0.0
  0
LINE
  5
11d
100
AcDbEntity
  8
0
 62
7
100
AcDbLine
 10
133.940908
 20
267.435553
 30
0.0
 11
130.314466
 21
267.404133
 31
0.0
  0
LINE
  5
11e
100
AcDbEntity
  8
0
 62
7
100
AcDbLine
 10
130.314466
 20
267.404133
 30
0.0
 11
130.407627
 21
267.781165
 31
0.0
  0
SPLINE
  5
11f
100
AcDbEntity
  8
0
 62
7
100
AcDbSpline
 70
0
 71
3
 72
28
 73
24
 74
22
 40
0.000000
 40
0.000000
 40
0.000000
 40
0.000000
 40
0.485263
 40
1.108587
 40
1.965347
 40
2.995526
 40
3.740945
 40
4.040371
 40
4.131008
 40
4.347151
 40
4.643687
 40
5.192489
 40
6.070036
 40
7.086582
 40
8.129358
 40
9.075472
 40
9.719954
 40
10.364314
 40
11.310238
 40
12.353009
 40
13.356473
 40
14.199306
 40
14.699063
 40
14.699063
 40
14.699063
 40
14.699063
 10
135.915900
 20
278.871615
 30
0.0
 10
136.077458
 20
278.864358
 30
0.0
 10
136.446540
 20
278.847778
 30
0.0
 10
137.099141
 20
278.766427
 30
0.0
 10
137.914796
 20
278.643594
 30
0.0
 10
138.840698
 20
278.568032
 30
0.0
 10
139.390896
 20
278.360093
 30
0.0
 10
139.942661
 20
278.444977
 30
0.0
 10
139.914087
 20
278.217976
 30
0.0
 10
139.874601
 20
278.031394
 30
0.0
 10
139.783096
 20
277.683888
 30
0.0
 10
139.650838
 20
277.128224
 30
0.0
 10
139.476540
 20
276.331194
 30
0.0
 10
139.276124
 20
275.373524
 30
0.0
 10
139.073480
 20
274.392267
 30
0.0
 10
138.892017
 20
273.533460
 30
0.0
 10
138.730990
 20
272.806076
 30
0.0
 10
138.569780
 20
272.078806
 30
0.0
 10
138.388083
 20
271.220122
 30
0.0
 10
138.185400
 20
270.243546
 30
0.0
 10
137.988468
 20
269.300885
 30
0.0
 10
137.825834
 20
268.535927
 30
0.0
 10
137.724629
 20
268.099984
 30
0.0
 10
137.686957
 20
267.937711
 30
0.0
 11
135.915900
 21
278.871615
 31
0.0
 11
136.400389
 21
278.844227
 31
0.0
 11
137.019756
 21
278.774110
 31
0.0
 11
137.868877
 21
278.659948
 31
0.0
 11
138.889106
 21
278.517120
 31
0.0
 11
139.626561
 21
278.408447
 31
0.0
 11
139.921592
 21
278.357333
 31
0.0
 11
139.919512
 21
278.266719
 31
0.0
 11
139.877971
 21
278.054606
 31
0.0
 11
139.805825
 21
277.766980
 31
0.0
 11
139.677218
 21
277.233460
 31
0.0
 11
139.487721
 21
276.376617
 31
0.0
 11
139.278323
 21
275.381872
 31
0.0
 11
139.066152
 21
274.360909
 31
0.0
 11
138.869465
 21
273.435466
 31
0.0
 11
138.730953
 21
272.806044
 31
0.0
 11
138.592352
 21
272.176767
 31
0.0
 11
138.395337
 21
271.251588
 31
0.0
 11
138.182511
 21
270.230767
 31
0.0
 11
137.976887
 21
269.248595
 31
0.0
 11
137.798845
 21
268.424782
 31
0.0
 11
137.686957
 21
267.937711
 31
0.0
  0
LINE
  5
120
100
AcDbEntity
  8
0
 62
7
100
AcDbLine
 10
135.915900
 20
278.871615
 30
0.0
 11
135.915900
 21
278.871615
 31
0.0
  0
SPLINE
  5
121
100
AcDbEntity
  8
0
 62
7
100
AcDbSpline
 70
0
 71
3
 72
19
 73
15
 74
13
 40
0.000000
 40
0.000000
 40
0.000000
 40
0.000000
 40
0.899569
 40
2.884883
 40
5.526175
 40
8.134953
 40
10.035075
 40
10.815416
 40
11.081803
 40
11.672973
 40
12.465683
 40
13.122120
 40
13.624703
 40
14.069460
 40
14.069460
 40
14.069460
 40
14.069460
 10
130.407627
 20
267.781165
 30
0.0
 10
130.472546
 20
268.073850
 30
0.0
 10
130.680738
 20
269.012478
 30
0.0
 10
131.061364
 20
270.818041
 30
0.0
 10
131.593096
 20
273.152832
 30
0.0
 10
131.997011
 20
275.566400
 30
0.0
 10
132.596089
 20
277.098235
 30
0.0
 10
132.516081
 20
278.314503
 30
0.0
 10
133.077125
 20
278.484383
 30
0.0
 10
133.600398
 20
278.595209
 30
0.0
 10
134.277781
 20
278.707282
 30
0.0
 10
134.920226
 20
278.798497
 30
0.0
 10
135.451624
 20
278.865069
 30
0.0
 10
135.767569
 20
278.869524
 30
0.0
 10
135.915900
 20
278.871615
 30
0.0
 11
130.407627
 21
267.781165
 31
0.0
 11
130.601461
 21
268.659603
 31
0.0
 11
131.020112
 21
270.600273
 31
0.0
 11
131.572895
 21
273.183073
 31
0.0
 11
132.122737
 21
275.733249
 31
0.0
 11
132.533788
 21
277.588377
 31
0.0
 11
132.717193
 21
278.346860
 31
0.0
 11
132.963767
 21
278.447671
 31
0.0
 11
133.540259
 21
278.578587
 31
0.0
 11
134.321796
 21
278.711214
 31
0.0
 11
134.971678
 21
278.803744
 31
0.0
 11
135.471362
 21
278.857655
 31
0.0
 11
135.915900
 21
278.871615
 31
0.0
  0
LINE
  5
122
100
AcDbEntity
  8
0
 62
7
100
AcDbLine
 10
153.131455
 20
274.938140
 30
0.0
 11
153.131455
 21
274.938143
 31
0.0
  0
SPLINE
  5
123
100
AcDbEntity
  8
0
 62
7
100
AcDbSpline
 70
0
 71
3
 72
34
 73
30
 74
28
 40
0.000000
 40
0.000000
 40
0.000000
 40
0.000000
 40
0.324651
 40
0.867018
 40
1.547020
 40
3.621113
 40
5.843365
 40
6.992972
 40
7.361712
 40
8.243237
 40
9.449117
 40
10.797697
 40
12.052872
 40
12.943033
 40
13.796675
 40
14.225868
 40
15.005131
 40
15.647611
 40
16.804670
 40
18.225863
 40
19.824901
 40
20.671882
 40
20.956517
 40
23.333969
 40
27.322208
 40
29.497772
 40
29.511778
 40
29.530810
 40
29.555396
 40
29.555396
 40
29.555396
 40
29.555396
 10
153.131455
 20
274.938143
 30
0.0
 10
153.238508
 20
274.921593
 30
0.0
 10
153.524407
 20
274.877397
 30
0.0
 10
154.016807
 20
274.716394
 30
0.0
 10
155.044974
 20
274.345696
 30
0.0
 10
156.652370
 20
273.727182
 30
0.0
 10
157.991172
 20
272.826054
 30
0.0
 10
159.672725
 20
272.571438
 30
0.0
 10
159.513219
 20
271.706005
 30
0.0
 10
159.388821
 20
270.930321
 30
0.0
 10
159.143375
 20
269.795645
 30
0.0
 10
158.867088
 20
268.563006
 30
0.0
 10
158.640059
 20
267.413400
 30
0.0
 10
158.385937
 20
266.461403
 30
0.0
 10
158.373373
 20
265.680155
 30
0.0
 10
157.761064
 20
265.216631
 30
0.0
 10
157.126154
 20
265.491994
 30
0.0
 10
156.288436
 20
265.592871
 30
0.0
 10
155.224880
 20
265.786487
 30
0.0
 10
153.847071
 20
265.978546
 30
0.0
 10
152.585417
 20
266.226779
 30
0.0
 10
151.668987
 20
266.315602
 30
0.0
 10
150.624088
 20
266.957202
 30
0.0
 10
152.285622
 20
269.740005
 30
0.0
 10
152.684429
 20
271.893656
 30
0.0
 10
152.446044
 20
274.564653
 30
0.0
 10
153.089477
 20
274.934470
 30
0.0
 10
153.108789
 20
274.937465
 30
0.0
 10
153.123284
 20
274.937897
 30
0.0
 10
153.131455
 20
274.938140
 30
0.0
 11
153.131455
 21
274.938143
 31
0.0
 11
153.451222
 21
274.882040
 31
0.0
 11
153.971461
 21
274.728701
 31
0.0
 11
154.612021
 21
274.500478
 31
0.0
 11
156.527242
 21
273.704367
 31
0.0
 11
158.553213
 21
272.791217
 31
0.0
 11
159.574617
 21
272.263647
 31
0.0
 11
159.549021
 21
271.895796
 31
0.0
 11
159.397511
 21
271.027389
 31
0.0
 11
159.152948
 21
269.846569
 31
0.0
 11
158.865583
 21
268.528962
 31
0.0
 11
158.601831
 21
267.301811
 31
0.0
 11
158.418719
 21
266.430687
 31
0.0
 11
158.205532
 21
265.604094
 31
0.0
 11
157.857987
 21
265.352262
 31
0.0
 11
157.086997
 21
265.465509
 31
0.0
 11
156.454363
 21
265.577558
 31
0.0
 11
155.312304
 21
265.763267
 31
0.0
 11
153.908131
 21
265.982549
 31
0.0
 11
152.330274
 21
266.241956
 31
0.0
 11
151.504245
 21
266.429183
 31
0.0
 11
151.263934
 21
266.581721
 31
0.0
 11
151.702796
 21
268.918316
 31
0.0
 11
152.548999
 21
272.815750
 31
0.0
 11
153.075801
 21
274.926569
 31
0.0
 11
153.088273
 21
274.932943
 31
0.0
 11
153.106904
 21
274.936827
 31
0.0
 11
153.131455
 21
274.938140
 31
0.0
  0
LINE
  5
124
100
AcDbEntity
  8
0
 62
7
100
AcDbLine
 10
196.056806
 20
227.571664
 30
0.0
 11
197.008205
 21
225.821003
 31
0.0
  0
LINE
  5
125
100
AcDbEntity
  8
0
 62
7
100
AcDbLine
 10
197.008205
 20
225.821003
 30
0.0
 11
196.989014
 21
222.366538
 31
0.0
  0
SPLINE
  5
126
100
AcDbEntity
  8
0
 62
7
100
AcDbSpline
 70
0
 71
3
 72
13
 73
9
 74
7
 40
0.000000
 40
0.000000
 40
0.000000
 40
0.000000
 40
12.396687
 40
24.670349
 40
36.750295
 40
49.511332
 40
61.372721
 40
72.898765
 40
72.898765
 40
72.898765
 40
72.898765
 10
133.889092
 20
258.942978
 30
0.0
 10
138.025327
 20
258.792951
 30
0.0
 10
146.256748
 20
258.494385
 30
0.0
 10
158.288725
 20
255.883446
 30
0.0
 10
169.935434
 20
251.579247
 30
0.0
 10
180.572622
 20
245.431425
 30
0.0
 10
189.801147
 20
237.448909
 30
0.0
 10
193.991615
 20
230.832456
 30
0.0
 10
196.056806
 20
227.571664
 30
0.0
 11
133.889092
 21
258.942978
 31
0.0
 11
146.258811
 21
258.125724
 31
0.0
 11
158.268056
 21
255.591793
 31
0.0
 11
169.580834
 21
251.355502
 31
0.0
 11
180.605006
 21
244.928083
 31
0.0
 11
189.428847
 21
237.001397
 31
0.0
 11
196.056806
 21
227.571664
 31
0.0
  0
LINE
  5
127
100
AcDbEntity
  8
0
 62
7
100
AcDbLine
 10
196.816492
 20
218.364714
 30
0.0
 11
196.663810
 21
217.817909
 31
0.0
  0
LINE
  5
128
100
AcDbEntity
  8
0
 62
7
100
AcDbLine
 10
196.663810
 20
217.817909
 30
0.0
 11
196.058556
 21
218.993102
 31
0.0
  0
SPLINE
  5
129
100
AcDbEntity
  8
0
 62
7
100
AcDbSpline
 70
0
 71
3
 72
10
 73
6
 74
4
 40
0.000000
 40
0.000000
 40
0.000000
 40
0.000000
 40
1.815437
 40
3.254491
 40
4.007662
 40
4.007662
 40
4.007662
 40
4.007662
 10
196.989014
 20
222.366538
 30
0.0
 10
196.979810
 20
221.761616
 30
0.0
 10
196.963311
 20
220.677187
 30
0.0
 10
196.930926
 20
219.340160
 30
0.0
 10
196.845754
 20
218.614147
 30
0.0
 10
196.816492
 20
218.364714
 30
0.0
 11
196.989014
 21
222.366538
 31
0.0
 11
196.958353
 21
220.551360
 31
0.0
 11
196.896316
 21
219.113644
 31
0.0
 11
196.816492
 21
218.364714
 31
0.0
  0
LINE
  5
12a
100
AcDbEntity
  8
0
 62
7
100
AcDbLine
 10
133.889205
 20
258.942978
 30
0.0
 11
133.889092
 21
258.942978
 31
0.0
  0
SPLINE
  5
12b
100
AcDbEntity
  8
0
 62
7
100
AcDbSpline
 70
0
 71
3
 72
43
 73
39
 74
37
 40
0.000000
 40
0.000000
 40
0.000000
 40
0.000000
 40
5.206348
 40
10.715765
 40
16.316899
 40
22.058998
 40
28.118424
 40
34.178139
 40
44.910612
 40
55.944438
 40
67.425314
 40
71.572802
 40
76.657621
 40
80.702033
 40
94.395371
 40
107.363117
 40
119.850214
 40
125.510226
 40
130.838967
 40
136.062125
 40
138.561213
 40
141.375841
 40
143.762034
 40
144.634062
 40
145.331751
 40
145.704041
 40
146.249958
 40
148.195647
 40
150.886635
 40
153.301329
 40
155.194287
 40
158.075793
 40
170.520848
 40
183.855552
 40
198.042067
 40
207.633513
 40
217.281336
 40
226.952554
 40
226.952554
 40
226.952554
 40
226.952554
 10
196.058556
 20
218.993102
 30
0.0
 10
195.199203
 20
220.503266
 30
0.0
 10
193.430475
 20
223.611503
 30
0.0
 10
190.050155
 20
227.895152
 30
0.0
 10
186.165475
 20
231.964665
 30
0.0
 10
181.685186
 20
235.667856
 30
0.0
 10
176.771672
 20
239.042556
 30
0.0
 10
170.128158
 20
242.787437
 30
0.0
 10
161.517517
 20
246.338721
 30
0.0
 10
150.755770
 20
249.085482
 30
0.0
 10
141.911596
 20
250.261981
 30
0.0
 10
135.005753
 20
250.385099
 30
0.0
 10
130.580160
 20
250.323847
 30
0.0
 10
122.978562
 20
249.958618
 30
0.0
 10
112.850652
 20
248.128511
 30
0.0
 10
100.425003
 20
243.982414
 30
0.0
 10
91.295866
 20
238.922556
 30
0.0
 10
84.997812
 20
234.264035
 30
0.0
 10
80.971053
 20
230.649992
 30
0.0
 10
78.015786
 20
227.440932
 30
0.0
 10
75.899621
 20
224.640156
 30
0.0
 10
74.447594
 20
222.507804
 30
0.0
 10
73.375797
 20
220.829182
 30
0.0
 10
72.742006
 20
219.612590
 30
0.0
 10
72.427779
 20
219.156085
 30
0.0
 10
72.160545
 20
218.439298
 30
0.0
 10
71.722568
 20
219.898194
 30
0.0
 10
71.876334
 20
221.190181
 30
0.0
 10
71.810494
 20
223.730191
 30
0.0
 10
71.862653
 20
226.035085
 30
0.0
 10
72.667819
 20
228.335034
 30
0.0
 10
75.785860
 20
233.165666
 30
0.0
 10
81.827429
 20
240.673305
 30
0.0
 10
92.693133
 20
248.603265
 30
0.0
 10
103.969816
 20
253.863398
 30
0.0
 10
114.700872
 20
256.937235
 30
0.0
 10
124.222042
 20
258.606112
 30
0.0
 10
130.664217
 20
258.830599
 30
0.0
 10
133.889205
 20
258.942978
 30
0.0
 11
196.058556
 21
218.993102
 31
0.0
 11
193.373984
 21
223.453947
 31
0.0
 11
190.005387
 21
227.813560
 31
0.0
 11
186.123459
 21
231.851299
 31
0.0
 11
181.717583
 21
235.533684
 31
0.0
 11
176.724397
 21
238.966574
 31
0.0
 11
171.445702
 21
241.942397
 31
0.0
 11
161.535394
 21
246.062080
 31
0.0
 11
150.857091
 21
248.840417
 31
0.0
 11
139.464759
 21
250.263544
 31
0.0
 11
135.318390
 21
250.359857
 31
0.0
 11
130.234096
 21
250.286791
 31
0.0
 11
126.195348
 21
250.072824
 31
0.0
 11
112.698812
 21
247.759595
 31
0.0
 11
100.430991
 21
243.556860
 31
0.0
 11
89.508660
 21
237.504563
 31
0.0
 11
84.966941
 21
234.126913
 31
0.0
 11
81.003877
 21
230.564666
 31
0.0
 11
77.489408
 21
226.700743
 31
0.0
 11
75.977399
 21
224.710953
 31
0.0
 11
74.385213
 21
222.389946
 31
0.0
 11
73.137006
 21
220.356255
 31
0.0
 11
72.713303
 21
219.594081
 31
0.0
 11
72.373502
 21
218.984733
 31
0.0
 11
72.191138
 21
218.660167
 31
0.0
 11
71.958477
 21
219.154023
 31
0.0
 11
71.822374
 21
221.094947
 31
0.0
 11
71.831728
 21
223.785918
 31
0.0
 11
72.008051
 21
226.194166
 31
0.0
 11
72.608949
 21
227.989219
 31
0.0
 11
74.070230
 21
230.472711
 31
0.0
 11
82.006852
 21
240.058608
 31
0.0
 11
92.668160
 21
248.068029
 31
0.0
 11
105.511535
 21
254.093387
 31
0.0
 11
114.722420
 21
256.768353
 31
0.0
 11
124.234235
 21
258.382621
 31
0.0
 11
133.889205
 21
258.942978
 31
0.0
  0
LINE
  5
12c
100
AcDbEntity
  8
0
 62
7
100
AcDbLine
 10
138.374874
 20
234.131677
 30
0.0
 11
137.690259
 21
233.397459
 31
0.0
  0
LINE
  5
12d
100
AcDbEntity
  8
0
 62
7
100
AcDbLine
 10
137.690259
 20
233.397459
 30
0.0
 11
133.738047
 21
233.368796
 31
0.0
  0
LINE
  5
12e
100
AcDbEntity
  8
0
 62
7
100
AcDbLine
 10
133.738047
 20
233.368796
 30
0.0
 11
129.785835
 21
233.340131
 31
0.0
  0
LINE
  5
12f
100
AcDbEntity
  8
0
 62
7
100
AcDbLine
 10
129.785835
 20
233.340131
 30
0.0
 11
129.081380
 21
234.103014
 31
0.0
  0
SPLINE
  5
130
100
AcDbEntity
  8
0
 62
7
100
AcDbSpline
 70
0
 71
3
 72
19
 73
15
 74
13
 40
0.000000
 40
0.000000
 40
0.000000
 40
0.000000
 40
5.050024
 40
10.043535
 40
14.897466
 40
16.087817
 40
16.590795
 40
16.711976
 40
19.623597
 40
21.971830
 40
24.087932
 40
26.404686
 40
28.733690
 40
30.850373
 40
30.850373
 40
30.850373
 40
30.850373
 10
134.496519
 20
241.883969
 30
0.0
 10
136.193215
 20
241.853678
 30
0.0
 10
139.567618
 20
241.793435
 30
0.0
 10
144.323980
 20
241.332662
 30
0.0
 10
148.508608
 20
240.914242
 30
0.0
 10
150.030622
 20
240.419964
 30
0.0
 10
151.115717
 20
240.377923
 30
0.0
 10
150.062744
 20
239.495495
 30
0.0
 10
148.201192
 20
239.802613
 30
0.0
 10
145.877903
 20
238.873808
 30
0.0
 10
143.776229
 20
238.059512
 30
0.0
 10
141.810463
 20
236.939477
 30
0.0
 10
139.951493
 20
235.652826
 30
0.0
 10
138.883410
 20
234.622321
 30
0.0
 10
138.374874
 20
234.131677
 30
0.0
 11
134.496519
 21
241.883969
 31
0.0
 11
139.544189
 21
241.729789
 31
0.0
 11
144.520081
 21
241.310675
 31
0.0
 11
149.325886
 21
240.628853
 31
0.0
 11
150.496291
 21
240.411855
 31
0.0
 11
150.980940
 21
240.277311
 31
0.0
 11
150.893518
 21
240.193393
 31
0.0
 11
148.056197
 21
239.539823
 31
0.0
 11
145.811024
 21
238.851790
 31
0.0
 11
143.857830
 21
238.037587
 31
0.0
 11
141.832299
 21
236.913057
 31
0.0
 11
139.935397
 21
235.561752
 31
0.0
 11
138.374874
 21
234.131677
 31
0.0
  0
LINE
  5
131
100
AcDbEntity
  8
0
 62
7
100
AcDbLine
 10
134.496519
 20
241.883969
 30
0.0
 11
134.496519
 21
241.883969
 31
0.0
  0
SPLINE
  5
132
100
AcDbEntity
  8
0
 62
7
100
AcDbSpline
 70
0
 71
3
 72
19
 73
15
 74
13
 40
0.000000
 40
0.000000
 40
0.000000
 40
0.000000
 40
2.882916
 40
6.011913
 40
9.283907
 40
10.941399
 40
12.694035
 40
13.790041
 40
14.193472
 40
16.596540
 40
19.999748
 40
23.761600
 40
27.618546
 40
31.531710
 40
31.531710
 40
31.531710
 40
31.531710
 10
129.081380
 20
234.103014
 30
0.0
 10
128.385213
 20
234.768050
 30
0.0
 10
126.933454
 20
236.154886
 30
0.0
 10
124.237475
 20
237.749998
 30
0.0
 10
121.855435
 20
238.862431
 30
0.0
 10
119.549444
 20
239.457988
 30
0.0
 10
118.573643
 20
239.942912
 30
0.0
 10
116.528387
 20
239.933769
 30
0.0
 10
118.041382
 20
240.662635
 30
0.0
 10
119.874170
 20
240.635611
 30
0.0
 10
123.133911
 20
241.289873
 30
0.0
 10
126.755325
 20
241.608613
 30
0.0
 10
130.603611
 20
241.857600
 30
0.0
 10
133.192639
 20
241.875137
 30
0.0
 10
134.496519
 20
241.883969
 30
0.0
 11
129.081380
 21
234.103014
 31
0.0
 11
126.925258
 21
236.016739
 31
0.0
 11
124.271045
 21
237.673776
 31
0.0
 11
121.270683
 21
238.979064
 31
0.0
 11
119.685840
 21
239.464402
 31
0.0
 11
117.986797
 21
239.894501
 31
0.0
 11
116.907245
 21
240.083698
 31
0.0
 11
117.260759
 21
240.278082
 31
0.0
 11
119.624272
 21
240.712300
 31
0.0
 11
122.992126
 21
241.201564
 31
0.0
 11
126.733635
 21
241.592252
 31
0.0
 11
130.583889
 21
241.819371
 31
0.0
 11
134.496519
 21
241.883969
 31
0.0
  0
LINE
  5
133
100
AcDbEntity
  8
0
 62
7
100
AcDbLine
 10
155.228846
 20
238.135705
 30
0.0
 11
155.228846
 21
238.135705
 31
0.0
  0
SPLINE
  5
134
100
AcDbEntity
  8
0
 62
7
100
AcDbSpline
 70
0
 71
3
 72
40
 73
36
 74
34
 40
0.000000
 40
0.000000
 40
0.000000
 40
0.000000
 40
1.478594
 40
2.843845
 40
3.983067
 40
5.957830
 40
8.033215
 40
9.862759
 40
11.895801
 40
14.072256
 40
15.884114
 40
17.645585
 40
19.407156
 40
21.058804
 40
27.088567
 40
33.918535
 40
42.130649
 40
45.338580
 40
48.455878
 40
51.587641
 40
54.045619
 40
56.259237
 40
58.423233
 40
61.699424
 40
64.600536
 40
67.503939
 40
69.171740
 40
70.694841
 40
72.446899
 40
76.402550
 40
80.739967
 40
85.590579
 40
86.724420
 40
88.086548
 40
89.564153
 40
89.564153
 40
89.564153
 40
89.564153
 10
155.228846
 20
238.135705
 30
0.0
 10
155.721686
 20
238.126873
 30
0.0
 10
156.669587
 20
238.109887
 30
0.0
 10
157.994866
 20
238.018961
 30
0.0
 10
159.476488
 20
237.821110
 30
0.0
 10
161.154658
 20
237.384439
 30
0.0
 10
163.017576
 20
236.777243
 30
0.0
 10
164.856226
 20
236.028924
 30
0.0
 10
166.570806
 20
234.958797
 30
0.0
 10
168.165682
 20
233.740206
 30
0.0
 10
169.566338
 20
232.415388
 30
0.0
 10
170.545974
 20
230.916352
 30
0.0
 10
171.274350
 20
229.347143
 30
0.0
 10
172.109161
 20
226.292592
 30
0.0
 10
170.831863
 20
221.130509
 30
0.0
 10
165.115249
 20
216.532622
 30
0.0
 10
159.119681
 20
214.874580
 30
0.0
 10
154.268957
 20
214.674006
 30
0.0
 10
151.119703
 20
214.990266
 30
0.0
 10
148.299601
 20
215.713973
 30
0.0
 10
145.862308
 20
216.635424
 30
0.0
 10
143.844795
 20
217.713735
 30
0.0
 10
141.804361
 20
219.255512
 30
0.0
 10
139.866096
 20
221.290383
 30
0.0
 10
138.518356
 20
224.074319
 30
0.0
 10
138.336497
 20
226.603864
 30
0.0
 10
138.583848
 20
228.628537
 30
0.0
 10
139.149302
 20
230.191738
 30
0.0
 10
140.422998
 20
232.249146
 30
0.0
 10
142.795112
 20
234.692609
 30
0.0
 10
146.700928
 20
236.779889
 30
0.0
 10
150.035259
 20
237.747798
 30
0.0
 10
152.466004
 20
238.057085
 30
0.0
 10
153.789708
 20
238.128192
 30
0.0
 10
154.736302
 20
238.133133
 30
0.0
 10
155.228846
 20
238.135705
 30
0.0
 11
155.228846
 21
238.135705
 31
0.0
 11
156.706914
 21
238.096252
 31
0.0
 11
158.068618
 21
237.997917
 31
0.0
 11
159.197032
 21
237.841355
 31
0.0
 11
161.115814
 21
237.374494
 31
0.0
 11
163.087530
 21
236.726758
 31
0.0
 11
164.770920
 21
236.010219
 31
0.0
 11
166.511388
 21
234.959489
 31
0.0
 11
168.236992
 21
233.633124
 31
0.0
 11
169.523514
 21
232.357315
 31
0.0
 11
170.508199
 21
230.896775
 31
0.0
 11
171.242227
 21
229.295420
 31
0.0
 11
171.659457
 21
227.697340
 31
0.0
 11
170.384139
 21
221.803988
 31
0.0
 11
165.312724
 21
217.229141
 31
0.0
 11
157.445278
 21
214.874972
 31
0.0
 11
154.239798
 21
214.749611
 31
0.0
 11
151.138703
 21
215.067030
 31
0.0
 11
148.101634
 21
215.831330
 31
0.0
 11
145.808217
 21
216.715578
 31
0.0
 11
143.862115
 21
217.770468
 31
0.0
 11
142.130320
 21
219.068066
 31
0.0
 11
139.924810
 21
221.490700
 31
0.0
 11
138.698611
 21
224.119936
 31
0.0
 11
138.426153
 21
227.010527
 31
0.0
 11
138.654061
 21
228.662684
 31
0.0
 11
139.166851
 21
230.096867
 31
0.0
 11
140.067106
 21
231.599946
 31
0.0
 11
142.820086
 21
234.440419
 31
0.0
 11
146.601401
 21
236.565233
 31
0.0
 11
151.266700
 21
237.893171
 31
0.0
 11
152.391635
 21
238.035007
 31
0.0
 11
153.751378
 21
238.115570
 31
0.0
 11
155.228846
 21
238.135705
 31
0.0
  0
LINE
  5
135
100
AcDbEntity
  8
0
 62
7
100
AcDbLine
 10
112.316167
 20
238.116965
 30
0.0
 11
112.316167
 21
238.116965
 31
0.0
  0
SPLINE
  5
136
100
AcDbEntity
  8
0
 62
7
100
AcDbSpline
 70
0
 71
3
 72
37
 73
33
 74
31
 40
0.000000
 40
0.000000
 40
0.000000
 40
0.000000
 40
2.273546
 40
4.035002
 40
6.023959
 40
10.874349
 40
15.307482
 40
19.383477
 40
21.737547
 40
24.255861
 40
26.732567
 40
30.988043
 40
35.749322
 40
40.924295
 40
46.464748
 40
51.819226
 40
56.916402
 40
58.816361
 40
60.698205
 40
62.411956
 40
66.382918
 40
70.237905
 40
74.366215
 40
76.015704
 40
77.950571
 40
79.699233
 40
81.519975
 40
83.592844
 40
85.567073
 40
86.655618
 40
87.894452
 40
89.662749
 40
89.662749
 40
89.662749
 40
89.662749
 10
112.316167
 20
238.116965
 30
0.0
 10
113.074472
 20
238.118760
 30
0.0
 10
114.420282
 20
238.121944
 30
0.0
 10
116.421084
 20
237.896831
 30
0.0
 10
119.213193
 20
237.239531
 30
0.0
 10
122.773931
 20
235.906413
 30
0.0
 10
126.358890
 20
233.177424
 30
0.0
 10
128.515722
 20
230.132818
 30
0.0
 10
129.143137
 20
227.168902
 30
0.0
 10
128.959171
 20
224.698434
 30
0.0
 10
127.950366
 20
221.740379
 30
0.0
 10
125.333811
 20
218.788635
 30
0.0
 10
121.246180
 20
216.315706
 30
0.0
 10
116.240583
 20
214.853770
 30
0.0
 10
110.841059
 20
214.596990
 30
0.0
 10
105.554240
 20
215.554683
 30
0.0
 10
101.743655
 20
217.273475
 30
0.0
 10
99.382514
 20
219.069960
 30
0.0
 10
98.075047
 20
220.361554
 30
0.0
 10
96.535684
 20
222.367728
 30
0.0
 10
95.423807
 20
225.483040
 30
0.0
 10
95.944576
 20
229.563815
 30
0.0
 10
97.721497
 20
232.373064
 30
0.0
 10
99.664158
 20
234.063064
 30
0.0
 10
101.103619
 20
235.108173
 30
0.0
 10
102.672431
 20
236.070077
 30
0.0
 10
104.421121
 20
236.777516
 30
0.0
 10
106.279361
 20
237.388266
 30
0.0
 10
107.941866
 20
237.807445
 30
0.0
 10
109.359735
 20
238.032551
 30
0.0
 10
110.724421
 20
238.109521
 30
0.0
 10
111.726758
 20
238.114209
 30
0.0
 10
112.316167
 20
238.116965
 30
0.0
 11
112.316167
 21
238.116965
 31
0.0
 11
114.589296
 21
238.073465
 31
0.0
 11
116.339312
 21
237.873024
 31
0.0
 11
118.279212
 21
237.434010
 31
0.0
 11
122.785273
 21
235.639101
 31
0.0
 11
126.293516
 21
232.928953
 31
0.0
 11
128.525770
 21
229.518560
 31
0.0
 11
129.023405
 21
227.217690
 31
0.0
 11
128.851452
 21
224.705253
 31
0.0
 11
128.036283
 21
222.366541
 31
0.0
 11
125.327708
 21
219.084363
 31
0.0
 11
121.284572
 21
216.569838
 31
0.0
 11
116.327363
 21
215.084437
 31
0.0
 11
110.793823
 21
214.807767
 31
0.0
 11
105.529748
 21
215.787541
 31
0.0
 11
100.915405
 21
217.952961
 31
0.0
 11
99.404434
 21
219.104834
 31
0.0
 11
98.069006
 21
220.430717
 31
0.0
 11
97.039788
 21
221.800993
 31
0.0
 11
95.732908
 21
225.550740
 31
0.0
 11
96.194959
 21
229.377936
 31
0.0
 11
98.377606
 21
232.882076
 31
0.0
 11
99.605968
 21
233.982959
 31
0.0
 11
101.169227
 21
235.123103
 31
0.0
 11
102.673226
 21
236.015183
 31
0.0
 11
104.348732
 21
236.727771
 31
0.0
 11
106.318070
 21
237.374685
 31
0.0
 11
108.236080
 21
237.842462
 31
0.0
 11
109.312024
 21
238.007612
 31
0.0
 11
110.548063
 21
238.090776
 31
0.0
 11
112.316167
 21
238.116965
 31
0.0
  0
LINE
  5
137
100
AcDbEntity
  8
0
 62
7
100
AcDbLine
 10
198.447962
 20
234.040736
 30
0.0
 11
198.447962
 21
234.040728
 31
0.0
  0
SPLINE
  5
138
100
AcDbEntity
  8
0
 62
7
100
AcDbSpline
 70
0
 71
3
 72
40
 73
36
 74
34
 40
0.000000
 40
0.000000
 40
0.000000
 40
0.000000
 40
0.019422
 40
0.042753
 40
0.070493
 40
1.587205
 40
4.166968
 40
6.481869
 40
16.880519
 40
26.543343
 40
35.829046
 40
39.969095
 40
44.075934
 40
48.653161
 40
49.966570
 40
50.276222
 40
51.088348
 40
56.270367
 40
61.332226
 40
66.466182
 40
74.236582
 40
81.929066
 40
90.129154
 40
91.610611
 40
92.859488
 40
93.605501
 40
94.153170
 40
94.741721
 40
95.637412
 40
96.534991
 40
97.592989
 40
98.582999
 40
99.444203
 40
99.894825
 40
100.032763
 40
100.032763
 40
100.032763
 40
100.032763
 10
198.447962
 20
234.040728
 30
0.0
 10
198.454399
 20
234.039863
 30
0.0
 10
198.468568
 20
234.037960
 30
0.0
 10
198.490546
 20
234.029082
 30
0.0
 10
198.949151
 20
233.779145
 30
0.0
 10
199.985499
 20
232.852930
 30
0.0
 10
201.667697
 20
231.546267
 30
0.0
 10
205.533953
 20
228.216387
 30
0.0
 10
210.731786
 20
222.824515
 30
0.0
 10
216.323058
 20
214.733509
 30
0.0
 10
219.431193
 20
207.644946
 30
0.0
 10
221.012103
 20
201.993657
 30
0.0
 10
221.797169
 20
197.842668
 30
0.0
 10
221.926992
 20
194.307737
 30
0.0
 10
222.199784
 20
192.505706
 30
0.0
 10
222.028551
 20
191.456320
 30
0.0
 10
221.694757
 20
195.206157
 30
0.0
 10
221.139848
 20
197.158305
 30
0.0
 10
219.637958
 20
202.697492
 30
0.0
 10
217.253097
 20
208.013482
 30
0.0
 10
213.809546
 20
214.053233
 30
0.0
 10
208.924977
 20
220.257851
 30
0.0
 10
204.727106
 20
224.277625
 30
0.0
 10
201.969513
 20
226.656403
 30
0.0
 10
201.099431
 20
227.424000
 30
0.0
 10
200.454164
 20
227.968968
 30
0.0
 10
199.997555
 20
228.411268
 30
0.0
 10
199.727453
 20
229.046047
 30
0.0
 10
199.551901
 20
229.818425
 30
0.0
 10
199.313711
 20
230.739934
 30
0.0
 10
199.052397
 20
231.683067
 30
0.0
 10
198.740823
 20
232.613862
 30
0.0
 10
198.568021
 20
233.330759
 30
0.0
 10
198.335719
 20
233.819578
 30
0.0
 10
198.426651
 20
233.998746
 30
0.0
 10
198.447962
 20
234.040736
 30
0.0
 11
198.447962
 21
234.040728
 31
0.0
 11
198.467100
 21
234.037416
 31
0.0
 11
198.488966
 21
234.029280
 31
0.0
 11
198.513579
 21
234.016485
 31
0.0
 11
199.724602
 21
233.103336
 31
0.0
 11
201.724178
 21
231.473346
 31
0.0
 11
203.481678
 21
229.966706
 31
0.0
 11
210.677573
 21
222.459975
 31
0.0
 11
216.119438
 21
214.475223
 31
0.0
 11
219.838431
 21
205.966794
 31
0.0
 11
220.954925
 21
201.980135
 31
0.0
 11
221.674696
 21
197.936862
 31
0.0
 11
222.079670
 21
193.377586
 31
0.0
 11
222.122450
 21
192.064873
 31
0.0
 11
222.065367
 21
191.760528
 31
0.0
 11
221.926452
 21
192.560685
 31
0.0
 11
221.009366
 21
197.660908
 31
0.0
 11
219.556854
 21
202.509890
 31
0.0
 11
217.532704
 21
207.227974
 31
0.0
 11
213.643319
 21
213.954920
 31
0.0
 11
208.898713
 21
220.009920
 31
0.0
 11
203.029670
 21
225.736681
 31
0.0
 11
201.912444
 21
226.709573
 31
0.0
 11
200.970834
 21
227.529979
 31
0.0
 11
200.408644
 21
228.020364
 31
0.0
 11
200.036420
 21
228.422099
 31
0.0
 11
199.782103
 21
228.952867
 31
0.0
 11
199.547641
 21
229.817326
 31
0.0
 11
199.324980
 21
230.686849
 31
0.0
 11
199.036317
 21
231.704706
 31
0.0
 11
198.743985
 21
232.650572
 31
0.0
 11
198.489049
 21
233.473178
 31
0.0
 11
198.394203
 21
233.913705
 31
0.0
 11
198.447962
 21
234.040736
 31
0.0
  0
LINE
  5
139
100
AcDbEntity
  8
0
 62
7
100
AcDbLine
 10
47.596826
 20
192.278454
 30
0.0
 11
47.446909
 21
191.147361
 31
0.0
  0
LINE
  5
13a
100
AcDbEntity
  8
0
 62
7
100
AcDbLine
 10
47.446909
 20
191.147361
 30
0.0
 11
47.423203
 21
192.152778
 31
0.0
  0
SPLINE
  5
13b
100
AcDbEntity
  8
0
 62
7
100
AcDbSpline
 70
0
 71
3
 72
25
 73
21
 74
19
 40
0.000000
 40
0.000000
 40
0.000000
 40
0.000000
 40
0.035080
 40
0.086672
 40
0.172266
 40
1.668754
 40
3.527486
 40
4.814716
 40
5.403636
 40
5.926901
 40
6.780803
 40
10.962225
 40
15.576949
 40
19.881561
 40
28.597683
 40
37.132602
 40
45.341569
 40
46.332819
 40
47.337950
 40
48.139488
 40
48.139488
 40
48.139488
 40
48.139488
 10
70.233644
 20
233.323048
 30
0.0
 10
70.245511
 20
233.318129
 30
0.0
 10
70.274829
 20
233.305977
 30
0.0
 10
70.263711
 20
233.237862
 30
0.0
 10
70.115848
 20
232.743839
 30
0.0
 10
69.785717
 20
231.604864
 30
0.0
 10
69.428240
 20
230.113158
 30
0.0
 10
69.138520
 20
228.906831
 30
0.0
 10
69.052608
 20
228.094346
 30
0.0
 10
68.648082
 20
227.552449
 30
0.0
 10
67.178062
 20
226.426272
 30
0.0
 10
64.802421
 20
224.247166
 30
0.0
 10
61.706340
 20
221.168492
 30
0.0
 10
57.780161
 20
216.786640
 30
0.0
 10
53.681935
 20
210.840909
 30
0.0
 10
50.015766
 20
203.148975
 30
0.0
 10
48.418742
 20
197.416693
 30
0.0
 10
47.866114
 20
194.060250
 30
0.0
 10
47.718782
 20
193.139273
 30
0.0
 10
47.634305
 20
192.542996
 30
0.0
 10
47.596826
 20
192.278454
 30
0.0
 11
70.233644
 21
233.323048
 31
0.0
 11
70.263524
 21
233.304669
 31
0.0
 11
70.265402
 21
233.253111
 31
0.0
 11
70.243522
 21
233.170360
 31
0.0
 11
69.833117
 21
231.731248
 31
0.0
 11
69.383608
 21
229.927690
 31
0.0
 11
69.121237
 21
228.667482
 31
0.0
 11
68.997260
 21
228.091759
 31
0.0
 11
68.704439
 21
227.658098
 31
0.0
 11
68.060703
 21
227.097071
 31
0.0
 11
64.928672
 21
224.326751
 31
0.0
 11
61.665758
 21
221.063458
 31
0.0
 11
58.808555
 21
217.843820
 31
0.0
 11
53.850615
 21
210.675165
 31
0.0
 11
50.203535
 21
202.958712
 31
0.0
 11
48.031730
 21
195.042248
 31
0.0
 11
47.867600
 21
194.064680
 31
0.0
 11
47.711360
 21
193.071767
 31
0.0
 11
47.596826
 21
192.278454
 31
0.0
  0
LINE
  5
13c
100
AcDbEntity
  8
0
 62
7
100
AcDbLine
 10
70.233588
 20
233.323048
 30
0.0
 11
70.233644
 21
233.323048
 31
0.0
  0
SPLINE
  5
13d
100
AcDbEntity
  8
0
 62
7
100
AcDbSpline
 70
0
 71
3
 72
19
 73
15
 74
13
 40
0.000000
 40
0.000000
 40
0.000000
 40
0.000000
 40
4.315791
 40
9.255924
 40
14.046587
 40
22.311232
 40
30.995399
 40
40.008994
 40
42.535606
 40
45.616674
 40
47.918800
 40
48.365705
 40
48.643222
 40
48.775424
 40
48.775424
 40
48.775424
 40
48.775424
 10
47.423203
 20
192.152778
 30
0.0
 10
47.469528
 20
193.592123
 30
0.0
 10
47.568880
 20
196.679036
 30
0.0
 10
48.376926
 20
201.304010
 30
0.0
 10
49.858620
 20
207.124221
 30
0.0
 10
52.805163
 20
213.797997
 30
0.0
 10
57.522351
 20
221.082282
 30
0.0
 10
61.966907
 20
226.193888
 30
0.0
 10
65.556684
 20
229.493356
 30
0.0
 10
67.546010
 20
231.219586
 30
0.0
 10
69.019297
 20
232.496794
 30
0.0
 10
69.833796
 20
233.085958
 30
0.0
 10
70.062259
 20
233.263478
 30
0.0
 10
70.191792
 20
233.308516
 30
0.0
 10
70.233588
 20
233.323048
 30
0.0
 11
47.423203
 21
192.152778
 31
0.0
 11
47.656340
 21
196.462267
 31
0.0
 11
48.447751
 21
201.338597
 31
0.0
 11
49.666107
 21
205.971744
 31
0.0
 11
52.934304
 21
213.562742
 31
0.0
 11
57.624720
 21
220.871283
 31
0.0
 11
63.573821
 21
227.642773
 31
0.0
 11
65.427368
 21
229.359786
 31
0.0
 11
67.744035
 21
231.391049
 31
0.0
 11
69.519763
 21
232.856168
 31
0.0
 11
69.878715
 21
233.122397
 31
0.0
 11
70.110310
 21
233.275301
 31
0.0
 11
70.233588
 21
233.323048
 31
0.0
  0
LINE
  5
13e
100
AcDbEntity
  8
0
 62
7
100
AcDbLine
 10
194.709082
 20
212.865245
 30
0.0
 11
195.351787
 21
211.776042
 31
0.0
  0
LINE
  5
13f
100
AcDbEntity
  8
0
 62
7
100
AcDbLine
 10
195.351787
 20
211.776042
 30
0.0
 11
194.970900
 21
210.695661
 31
0.0
  0
SPLINE
  5
140
100
AcDbEntity
  8
0
 62
7
100
AcDbSpline
 70
0
 71
3
 72
16
 73
12
 74
10
 40
0.000000
 40
0.000000
 40
0.000000
 40
0.000000
 40
1.344189
 40
4.355121
 40
7.758985
 40
12.700688
 40
17.256301
 40
21.763289
 40
24.374829
 40
27.152698
 40
29.480473
 40
29.480473
 40
29.480473
 40
29.480473
 10
173.170334
 20
232.497328
 30
0.0
 10
173.573341
 20
232.300849
 30
0.0
 10
174.879069
 20
231.664263
 30
0.0
 10
177.036746
 20
230.226741
 30
0.0
 10
180.199668
 20
228.150909
 30
0.0
 10
183.642343
 20
225.563226
 30
0.0
 10
187.133142
 20
222.456749
 30
0.0
 10
189.798235
 20
219.611311
 30
0.0
 10
191.851264
 20
217.028273
 30
0.0
 10
193.379042
 20
214.956526
 30
0.0
 10
194.292580
 20
213.520129
 30
0.0
 10
194.709082
 20
212.865245
 30
0.0
 11
173.170334
 21
232.497328
 31
0.0
 11
174.370341
 21
231.891667
 31
0.0
 11
176.928076
 21
230.303050
 31
0.0
 11
179.755171
 21
228.407310
 31
0.0
 11
183.700159
 21
225.431156
 31
0.0
 11
187.097228
 21
222.395775
 31
0.0
 11
190.171485
 21
219.100039
 31
0.0
 11
191.804760
 21
217.062257
 31
0.0
 11
193.439365
 21
214.816233
 31
0.0
 11
194.709082
 21
212.865245
 31
0.0
  0
LINE
  5
141
100
AcDbEntity
  8
0
 62
7
100
AcDbLine
 10
173.170334
 20
232.497328
 30
0.0
 11
173.170334
 21
232.497328
 31
0.0
  0
SPLINE
  5
142
100
AcDbEntity
  8
0
 62
7
100
AcDbSpline
 70
0
 71
3
 72
31
 73
27
 74
25
 40
0.000000
 40
0.000000
 40
0.000000
 40
0.000000
 40
0.780664
 40
1.726090
 40
2.631728
 40
3.397844
 40
3.977725
 40
4.247297
 40
4.521006
 40
5.213828
 40
6.182517
 40
9.991493
 40
13.944030
 40
17.866232
 40
20.821449
 40
24.423117
 40
27.539214
 40
28.904562
 40
29.465952
 40
29.817766
 40
32.525872
 40
35.271488
 40
38.016948
 40
38.466152
 40
38.788903
 40
38.918277
 40
38.918277
 40
38.918277
 40
38.918277
 10
194.970900
 20
210.695661
 30
0.0
 10
194.882480
 20
210.451106
 30
0.0
 10
194.686979
 20
209.910380
 30
0.0
 10
194.375922
 20
209.086558
 30
0.0
 10
194.061155
 20
208.285665
 30
0.0
 10
193.779940
 20
207.552637
 30
0.0
 10
193.553860
 20
207.149253
 30
0.0
 10
193.399010
 20
206.655787
 30
0.0
 10
193.022979
 20
207.084277
 30
0.0
 10
192.652296
 20
207.482774
 30
0.0
 10
191.496332
 20
208.995300
 30
0.0
 10
189.692238
 20
211.199159
 30
0.0
 10
186.977787
 20
214.028996
 30
0.0
 10
184.334786
 20
216.483475
 30
0.0
 10
181.555023
 20
218.613921
 30
0.0
 10
178.958524
 20
220.485979
 30
0.0
 10
176.645811
 20
221.993789
 30
0.0
 10
175.310316
 20
222.839232
 30
0.0
 10
174.559860
 20
223.296340
 30
0.0
 10
174.794656
 20
224.579293
 30
0.0
 10
175.120758
 20
226.408657
 30
0.0
 10
174.725122
 20
229.194588
 30
0.0
 10
173.933947
 20
231.022543
 30
0.0
 10
173.366490
 20
232.044614
 30
0.0
 10
173.215536
 20
232.308300
 30
0.0
 10
173.180390
 20
232.455272
 30
0.0
 10
173.170334
 20
232.497328
 30
0.0
 11
194.970900
 21
210.695661
 31
0.0
 11
194.703898
 21
209.962076
 31
0.0
 11
194.370218
 21
209.077494
 31
0.0
 11
194.042106
 21
208.233383
 31
0.0
 11
193.750120
 21
207.525091
 31
0.0
 11
193.511255
 21
206.996691
 31
0.0
 11
193.377332
 21
206.762739
 31
0.0
 11
193.159208
 21
206.928085
 31
0.0
 11
192.699428
 21
207.446355
 31
0.0
 11
192.097426
 21
208.205270
 31
0.0
 11
189.673906
 21
211.143782
 31
0.0
 11
186.947493
 21
214.005463
 31
0.0
 11
184.051327
 21
216.650437
 31
0.0
 11
181.722296
 21
218.469482
 31
0.0
 11
178.794026
 21
220.566444
 31
0.0
 11
176.191014
 21
222.279450
 31
0.0
 11
175.034973
 21
223.005908
 31
0.0
 11
174.626876
 21
223.391416
 31
0.0
 11
174.641530
 21
223.742925
 31
0.0
 11
174.978228
 21
226.430018
 31
0.0
 11
174.608512
 21
229.150628
 31
0.0
 11
173.561719
 21
231.688694
 31
0.0
 11
173.344481
 21
232.081875
 31
0.0
 11
173.203826
 21
232.372365
 31
0.0
 11
173.170334
 21
232.497328
 31
0.0
  0
LINE
  5
143
100
AcDbEntity
  8
0
 62
7
100
AcDbLine
 10
92.907293
 20
223.426528
 30
0.0
 11
93.119496
 21
222.835075
 31
0.0
  0
LINE
  5
144
100
AcDbEntity
  8
0
 62
7
100
AcDbLine
 10
93.119496
 20
222.835075
 30
0.0
 11
91.614687
 21
221.891945
 31
0.0
  0
SPLINE
  5
145
100
AcDbEntity
  8
0
 62
7
100
AcDbSpline
 70
0
 71
3
 72
13
 73
9
 74
7
 40
0.000000
 40
0.000000
 40
0.000000
 40
0.000000
 40
0.031818
 40
0.065143
 40
0.122024
 40
2.899148
 40
5.772460
 40
8.389322
 40
8.389322
 40
8.389322
 40
8.389322
 10
93.704938
 20
231.572937
 30
0.0
 10
93.716501
 20
231.570002
 30
0.0
 10
93.740176
 20
231.563992
 30
0.0
 10
93.738132
 20
231.515386
 30
0.0
 10
93.282499
 20
230.704068
 30
0.0
 10
92.656850
 20
228.846962
 30
0.0
 10
92.309480
 20
226.082700
 30
0.0
 10
92.714326
 20
224.283911
 30
0.0
 10
92.907293
 20
223.426528
 30
0.0
 11
93.704938
 21
231.572937
 31
0.0
 11
93.733720
 21
231.559374
 31
0.0
 11
93.736777
 21
231.526190
 31
0.0
 11
93.714816
 21
231.473719
 31
0.0
 11
92.759670
 21
228.866016
 31
0.0
 11
92.472776
 21
226.007063
 31
0.0
 11
92.907293
 21
223.426528
 31
0.0
  0
LINE
  5
146
100
AcDbEntity
  8
0
 62
7
100
AcDbLine
 10
76.322307
 20
208.149596
 30
0.0
 11
75.381378
 21
206.888966
 31
0.0
  0
LINE
  5
147
100
AcDbEntity
  8
0
 62
7
100
AcDbLine
 10
75.381378
 20
206.888966
 30
0.0
 11
74.998289
 21
207.773118
 31
0.0
  0
SPLINE
  5
148
100
AcDbEntity
  8
0
 62
7
100
AcDbSpline
 70
0
 71
3
 72
13
 73
9
 74
7
 40
0.000000
 40
0.000000
 40
0.000000
 40
0.000000
 40
5.862232
 40
11.696598
 40
17.101688
 40
18.319953
 40
19.599523
 40
20.664016
 40
20.664016
 40
20.664016
 40
20.664016
 10
91.614687
 20
221.891945
 30
0.0
 10
89.989024
 20
220.805132
 30
0.0
 10
86.745425
 20
218.636674
 30
0.0
 10
82.390639
 20
214.941800
 30
0.0
 10
79.457171
 20
211.990344
 30
0.0
 10
77.765488
 20
209.970606
 30
0.0
 10
77.014576
 20
209.050600
 30
0.0
 10
76.538503
 20
208.430980
 30
0.0
 10
76.322307
 20
208.149596
 30
0.0
 11
91.614687
 21
221.891945
 31
0.0
 11
86.804305
 21
218.541423
 31
0.0
 11
82.339376
 21
214.785863
 31
0.0
 11
78.565748
 21
210.916145
 31
0.0
 11
77.780551
 21
209.984674
 31
0.0
 11
76.974614
 21
208.990810
 31
0.0
 11
76.322307
 21
208.149596
 31
0.0
  0
LINE
  5
149
100
AcDbEntity
  8
0
 62
7
100
AcDbLine
 10
73.974133
 20
210.448717
 30
0.0
 11
73.331965
 21
212.240165
 31
0.0
  0
LINE
  5
14a
100
AcDbEntity
  8
0
 62
7
100
AcDbLine
 10
73.331965
 20
212.240165
 30
0.0
 11
73.915149
 21
213.188807
 31
0.0
  0
SPLINE
  5
14b
100
AcDbEntity
  8
0
 62
7
100
AcDbSpline
 70
0
 71
3
 72
10
 73
6
 74
4
 40
0.000000
 40
0.000000
 40
0.000000
 40
0.000000
 40
0.745634
 40
1.774867
 40
2.865171
 40
2.865171
 40
2.865171
 40
2.865171
 10
74.998289
 20
207.773118
 30
0.0
 10
74.903857
 20
208.003033
 30
0.0
 10
74.679074
 20
208.550311
 30
0.0
 10
74.340554
 20
209.443481
 30
0.0
 10
74.098597
 20
210.107263
 30
0.0
 10
73.974133
 20
210.448717
 30
0.0
 11
74.998289
 21
207.773118
 31
0.0
 11
74.717653
 21
208.463924
 31
0.0
 11
74.349766
 21
209.425163
 31
0.0
 11
73.974133
 21
210.448717
 31
0.0
  0
LINE
  5
14c
100
AcDbEntity
  8
0
 62
7
100
AcDbLine
 10
93.704881
 20
231.572937
 30
0.0
 11
93.704938
 21
231.572937
 31
0.0
  0
SPLINE
  5
14d
100
AcDbEntity
  8
0
 62
7
100
AcDbSpline
 70
0
 71
3
 72
13
 73
9
 74
7
 40
0.000000
 40
0.000000
 40
0.000000
 40
0.000000
 40
7.476321
 40
15.439961
 40
23.678255
 40
25.628710
 40
26.800688
 40
27.278090
 40
27.278090
 40
27.278090
 40
27.278090
 10
73.915149
 20
213.188807
 30
0.0
 10
75.336639
 20
215.242401
 30
0.0
 10
78.272274
 20
219.483446
 30
0.0
 10
83.986805
 20
224.987059
 30
0.0
 10
88.823042
 20
228.658711
 30
0.0
 10
92.038156
 20
230.646948
 30
0.0
 10
93.041188
 20
231.320192
 30
0.0
 10
93.555901
 20
231.516203
 30
0.0
 10
93.704881
 20
231.572937
 30
0.0
 11
73.915149
 21
213.188807
 31
0.0
 11
78.365003
 21
219.196649
 31
0.0
 11
84.018704
 21
224.805145
 31
0.0
 11
90.608706
 21
229.748966
 31
0.0
 11
92.253143
 21
230.797823
 31
0.0
 11
93.262561
 21
231.393314
 31
0.0
 11
93.704881
 21
231.572937
 31
0.0
  0
LINE
  5
14e
100
AcDbEntity
  8
0
 62
7
100
AcDbLine
 10
116.859296
 20
228.466289
 30
0.0
 11
116.859296
 21
228.466289
 31
0.0
  0
SPLINE
  5
14f
100
AcDbEntity
  8
0
 62
7
100
AcDbSpline
 70
0
 71
3
 72
25
 73
21
 74
19
 40
0.000000
 40
0.000000
 40
0.000000
 40
0.000000
 40
1.066995
 40
2.148702
 40
3.245608
 40
5.466339
 40
7.285307
 40
9.025017
 40
10.986996
 40
13.189010
 40
15.628819
 40
18.074134
 40
20.342505
 40
22.410088
 40
23.057378
 40
23.592455
 40
24.248481
 40
26.668734
 40
29.374810
 40
32.423411
 40
32.423411
 40
32.423411
 40
32.423411
 10
116.859296
 20
228.466289
 30
0.0
 10
116.503617
 20
228.448672
 30
0.0
 10
115.787355
 20
228.413196
 30
0.0
 10
114.725065
 20
228.180546
 30
0.0
 10
113.347024
 20
227.674632
 30
0.0
 10
111.864850
 20
226.746233
 30
0.0
 10
110.768680
 20
225.041670
 30
0.0
 10
110.908906
 20
223.083518
 30
0.0
 10
112.142484
 20
221.448216
 30
0.0
 10
114.081676
 20
220.322004
 30
0.0
 10
116.431387
 20
219.828360
 30
0.0
 10
118.837359
 20
220.035539
 30
0.0
 10
120.982607
 20
220.873968
 30
0.0
 10
122.226530
 20
222.039003
 30
0.0
 10
122.806485
 20
222.962426
 30
0.0
 10
122.983553
 20
223.556425
 30
0.0
 10
123.040545
 20
224.766356
 30
0.0
 10
122.257951
 20
226.695358
 30
0.0
 10
119.801701
 20
228.193861
 30
0.0
 10
117.878259
 20
228.371946
 30
0.0
 10
116.859296
 20
228.466289
 30
0.0
 11
116.859296
 21
228.466289
 31
0.0
 11
115.795462
 21
228.384207
 31
0.0
 11
114.737593
 21
228.158371
 31
0.0
 11
113.708002
 21
227.780026
 31
0.0
 11
111.869637
 21
226.534208
 31
0.0
 11
110.953605
 21
224.962734
 31
0.0
 11
111.053335
 21
223.225885
 31
0.0
 11
112.170627
 21
221.613117
 31
0.0
 11
114.051436
 21
220.467944
 31
0.0
 11
116.435398
 21
219.948910
 31
0.0
 11
118.871518
 21
220.160767
 31
0.0
 11
120.966940
 21
221.029511
 31
0.0
 11
122.468998
 21
222.450327
 31
0.0
 11
122.797405
 21
223.008120
 31
0.0
 11
122.952545
 21
223.520213
 31
0.0
 11
122.991561
 21
224.175077
 31
0.0
 11
122.107960
 21
226.428269
 31
0.0
 11
119.861633
 21
227.937198
 31
0.0
 11
116.859296
 21
228.466289
 31
0.0
  0
LINE
  5
150
100
AcDbEntity
  8
0
 62
7
100
AcDbLine
 10
150.847769
 20
228.464595
 30
0.0
 11
150.847769
 21
228.464595
 31
0.0
  0
LINE
  5
151
100
AcDbEntity
  8
0
 62
7
100
AcDbLine
 10
132.185825
 20
224.878940
 30
0.0
 11
133.716570
 21
224.878940
 31
0.0
  0
LINE
  5
152
100
AcDbEntity
  8
0
 62
7
100
AcDbLine
 10
133.716570
 20
224.878940
 30
0.0
 11
135.247823
 21
224.878940
 31
0.0
  0
LINE
  5
153
100
AcDbEntity
  8
0
 62
7
100
AcDbLine
 10
135.247823
 20
224.878940
 30
0.0
 11
135.460619
 21
223.939120
 31
0.0
  0
SPLINE
  5
154
100
AcDbEntity
  8
0
 62
7
100
AcDbSpline
 70
0
 71
3
 72
25
 73
21
 74
19
 40
0.000000
 40
0.000000
 40
0.000000
 40
0.000000
 40
0.288531
 40
0.580483
 40
0.875836
 40
3.178398
 40
5.205756
 40
7.066031
 40
7.674068
 40
8.137298
 40
8.655472
 40
10.648257
 40
12.813870
 40
15.209258
 40
17.854342
 40
20.217353
 40
22.390697
 40
25.246605
 40
28.409133
 40
32.314221
 40
32.314221
 40
32.314221
 40
32.314221
 10
150.847769
 20
228.464595
 30
0.0
 10
150.751632
 20
228.461560
 30
0.0
 10
150.558217
 20
228.455453
 30
0.0
 10
150.266999
 20
228.433339
 30
0.0
 10
149.309422
 20
228.329821
 30
0.0
 10
147.795307
 20
227.941501
 30
0.0
 10
146.006907
 20
226.811603
 30
0.0
 10
145.181802
 20
225.502548
 30
0.0
 10
144.884655
 20
224.568449
 30
0.0
 10
144.843416
 20
224.032854
 30
0.0
 10
145.078401
 20
223.061143
 30
0.0
 10
145.906537
 20
221.672431
 30
0.0
 10
147.777699
 20
220.431570
 30
0.0
 10
150.148001
 20
219.866351
 30
0.0
 10
152.653194
 20
219.978160
 30
0.0
 10
154.927551
 20
220.822766
 30
0.0
 10
156.885501
 20
222.466513
 30
0.0
 10
157.312520
 20
225.600126
 30
0.0
 10
154.516498
 20
228.063735
 30
0.0
 10
152.153437
 20
228.321933
 30
0.0
 10
150.847769
 20
228.464595
 30
0.0
 11
150.847769
 21
228.464595
 31
0.0
 11
150.559456
 21
228.453376
 31
0.0
 11
150.268296
 21
228.431890
 31
0.0
 11
149.974658
 21
228.400105
 31
0.0
 11
147.752295
 21
227.797696
 31
0.0
 11
146.070043
 21
226.666234
 31
0.0
 11
145.067181
 21
225.099426
 31
0.0
 11
144.896005
 21
224.515981
 31
0.0
 11
144.867790
 21
224.053611
 31
0.0
 11
144.972382
 21
223.546103
 31
0.0
 11
145.979478
 21
221.826524
 31
0.0
 11
147.756745
 21
220.589107
 31
0.0
 11
150.076625
 21
219.992417
 31
0.0
 11
152.718353
 21
220.125626
 31
0.0
 11
154.923815
 21
220.974011
 31
0.0
 11
156.504914
 21
222.465169
 31
0.0
 11
156.844055
 21
225.300868
 31
0.0
 11
154.651293
 21
227.579767
 31
0.0
 11
150.847769
 21
228.464595
 31
0.0
  0
SPLINE
  5
155
100
AcDbEntity
  8
0
 62
7
100
AcDbSpline
 70
0
 71
3
 72
10
 73
6
 74
4
 40
0.000000
 40
0.000000
 40
0.000000
 40
0.000000
 40
2.239088
 40
4.701041
 40
7.338482
 40
7.338482
 40
7.338482
 40
7.338482
 10
135.460619
 20
223.939120
 30
0.0
 10
135.689527
 20
223.225875
 30
0.0
 10
136.170127
 20
221.728393
 30
0.0
 10
137.548782
 20
219.667222
 30
0.0
 10
138.756665
 20
218.469741
 30
0.0
 10
139.381391
 20
217.850395
 30
0.0
 11
135.460619
 21
223.939120
 31
0.0
 11
136.238669
 21
221.839560
 31
0.0
 11
137.574058
 21
219.771239
 31
0.0
 11
139.381391
 21
217.850395
 31
0.0
  0
SPLINE
  5
156
100
AcDbEntity
  8
0
 62
7
100
AcDbSpline
 70
0
 71
3
 72
10
 73
6
 74
4
 40
0.000000
 40
0.000000
 40
0.000000
 40
0.000000
 40
10.901689
 40
21.705299
 40
32.606988
 40
32.606988
 40
32.606988
 40
32.606988
 10
139.381391
 20
217.850395
 30
0.0
 10
142.952365
 20
217.098491
 30
0.0
 10
150.062188
 20
215.601447
 30
0.0
 10
159.636945
 20
209.915623
 30
0.0
 10
164.354099
 20
204.389397
 30
0.0
 10
166.723334
 20
201.613798
 30
0.0
 11
139.381391
 21
217.850395
 31
0.0
 11
149.908585
 21
215.017551
 31
0.0
 11
159.197775
 21
209.501306
 31
0.0
 11
166.723334
 21
201.613798
 31
0.0
  0
LINE
  5
157
100
AcDbEntity
  8
0
 62
7
100
AcDbLine
 10
180.260066
 20
194.183968
 30
0.0
 11
182.122620
 21
192.864356
 31
0.0
  0
LINE
  5
158
100
AcDbEntity
  8
0
 62
7
100
AcDbLine
 10
182.122620
 20
192.864356
 30
0.0
 11
180.996497
 21
191.975799
 31
0.0
  0
SPLINE
  5
159
100
AcDbEntity
  8
0
 62
7
100
AcDbSpline
 70
0
 71
3
 72
10
 73
6
 74
4
 40
0.000000
 40
0.000000
 40
0.000000
 40
0.000000
 40
5.219672
 40
10.368057
 40
15.470715
 40
15.470715
 40
15.470715
 40
15.470715
 10
166.723334
 20
201.613798
 30
0.0
 10
168.317305
 20
200.915144
 30
0.0
 10
171.483477
 20
199.527378
 30
0.0
 10
176.015146
 20
197.045970
 30
0.0
 10
178.849307
 20
195.135128
 30
0.0
 10
180.260066
 20
194.183968
 30
0.0
 11
166.723334
 21
201.613798
 31
0.0
 11
171.472509
 21
199.448085
 31
0.0
 11
175.986022
 21
196.971381
 31
0.0
 11
180.260066
 21
194.183968
 31
0.0
  0
SPLINE
  5
15a
100
AcDbEntity
  8
0
 62
7
100
AcDbSpline
 70
0
 71
3
 72
10
 73
6
 74
4
 40
0.000000
 40
0.000000
 40
0.000000
 40
0.000000
 40
2.530823
 40
5.674039
 40
9.189083
 40
9.189083
 40
9.189083
 40
9.189083
 10
180.996497
 20
191.975799
 30
0.0
 10
180.318148
 20
191.473940
 30
0.0
 10
178.797306
 20
190.348784
 30
0.0
 10
176.210923
 20
188.703715
 30
0.0
 10
174.300997
 20
187.573496
 30
0.0
 10
173.292705
 20
186.976828
 30
0.0
 11
180.996497
 21
191.975799
 31
0.0
 11
178.946291
 21
190.491978
 31
0.0
 11
176.307584
 21
188.784047
 31
0.0
 11
173.292705
 21
186.976828
 31
0.0
  0
SPLINE
  5
15b
100
AcDbEntity
  8
0
 62
7
100
AcDbSpline
 70
0
 71
3
 72
10
 73
6
 74
4
 40
0.000000
 40
0.000000
 40
0.000000
 40
0.000000
 40
0.906773
 40
1.813488
 40
2.720262
 40
2.720262
 40
2.720262
 40
2.720262
 10
173.292705
 20
186.976828
 30
0.0
 10
173.358303
 20
186.681766
 30
0.0
 10
173.489495
 20
186.091660
 30
0.0
 10
173.662086
 20
185.201324
 30
0.0
 10
173.760895
 20
184.604942
 30
0.0
 10
173.810301
 20
184.306741
 30
0.0
 11
173.292705
 21
186.976828
 31
0.0
 11
173.485466
 21
186.090780
 31
0.0
 11
173.658020
 21
185.200636
 31
0.0
 11
173.810301
 21
184.306741
 31
0.0
  0
LINE
  5
15c
100
AcDbEntity
  8
0
 62
7
100
AcDbLine
 10
180.905000
 20
188.715359
 30
0.0
 11
183.233334
 21
190.326010
 31
0.0
  0
LINE
  5
15d
100
AcDbEntity
  8
0
 62
7
100
AcDbLine
 10
183.233334
 20
190.326010
 30
0.0
 11
185.031936
 21
189.354770
 31
0.0
  0
SPLINE
  5
15e
100
AcDbEntity
  8
0
 62
7
100
AcDbSpline
 70
0
 71
3
 72
10
 73
6
 74
4
 40
0.000000
 40
0.000000
 40
0.000000
 40
0.000000
 40
2.866594
 40
5.674364
 40
8.355421
 40
8.355421
 40
8.355421
 40
8.355421
 10
173.810301
 20
184.306741
 30
0.0
 10
174.638902
 20
184.782674
 30
0.0
 10
176.279101
 20
185.724776
 30
0.0
 10
178.647823
 20
187.191394
 30
0.0
 10
180.164277
 20
188.215250
 30
0.0
 10
180.905000
 20
188.715359
 30
0.0
 11
173.810301
 21
184.306741
 31
0.0
 11
176.288054
 21
185.748301
 31
0.0
 11
178.673383
 21
187.229443
 31
0.0
 11
180.905000
 21
188.715359
 31
0.0
  0
LINE
  5
15f
100
AcDbEntity
  8
0
 62
7
100
AcDbLine
 10
188.797853
 20
144.000776
 30
0.0
 11
187.199318
 21
143.119385
 31
0.0
  0
LINE
  5
160
100
AcDbEntity
  8
0
 62
7
100
AcDbLine
 10
187.199318
 20
143.119385
 30
0.0
 11
185.753494
 21
143.971010
 31
0.0
  0
SPLINE
  5
161
100
AcDbEntity
  8
0
 62
7
100
AcDbSpline
 70
0
 71
3
 72
31
 73
27
 74
25
 40
0.000000
 40
0.000000
 40
0.000000
 40
0.000000
 40
3.407118
 40
6.444435
 40
10.133368
 40
16.283835
 40
21.854806
 40
27.534294
 40
30.273628
 40
33.391072
 40
35.984840
 40
36.731640
 40
37.281867
 40
37.516741
 40
37.630064
 40
37.914401
 40
38.312282
 40
38.717476
 40
39.020899
 40
39.159867
 40
39.945173
 40
41.896332
 40
44.162923
 40
53.056949
 40
62.399182
 40
72.028965
 40
72.028965
 40
72.028965
 40
72.028965
 10
185.031936
 20
189.354770
 30
0.0
 10
186.029538
 20
188.811506
 30
0.0
 10
187.916465
 20
187.783943
 30
0.0
 10
190.780225
 20
185.988892
 30
0.0
 10
194.307919
 20
183.543789
 30
0.0
 10
198.444849
 20
180.489606
 30
0.0
 10
202.754117
 20
176.595280
 30
0.0
 10
205.919285
 20
173.155942
 30
0.0
 10
208.290297
 20
170.133595
 30
0.0
 10
209.932121
 20
167.821765
 30
0.0
 10
211.136405
 20
166.093045
 30
0.0
 10
211.787565
 20
164.897909
 30
0.0
 10
212.075506
 20
164.580160
 30
0.0
 10
212.210993
 20
164.157964
 30
0.0
 10
212.399343
 20
164.333864
 30
0.0
 10
212.552479
 20
164.521498
 30
0.0
 10
212.774219
 20
164.818862
 30
0.0
 10
213.001207
 20
165.115306
 30
0.0
 10
213.160392
 20
165.327220
 30
0.0
 10
213.535989
 20
165.635256
 30
0.0
 10
212.401306
 20
164.043943
 30
0.0
 10
211.834657
 20
163.287551
 30
0.0
 10
208.841012
 20
159.480221
 30
0.0
 10
204.284923
 20
154.860797
 30
0.0
 10
196.983321
 20
148.859470
 30
0.0
 10
191.553773
 20
145.636623
 30
0.0
 10
188.797853
 20
144.000776
 30
0.0
 11
185.031936
 21
189.354770
 31
0.0
 11
188.006383
 21
187.693108
 31
0.0
 11
190.584213
 21
186.086843
 31
0.0
 11
193.625941
 21
183.999714
 31
0.0
 11
198.533271
 21
180.292106
 31
0.0
 11
202.668216
 21
176.558749
 31
0.0
 11
206.505096
 21
172.371275
 31
0.0
 11
208.198184
 21
170.217812
 31
0.0
 11
210.020579
 21
167.688517
 31
0.0
 11
211.442320
 21
165.519120
 31
0.0
 11
211.829323
 21
164.880419
 31
0.0
 11
212.120452
 21
164.413521
 31
0.0
 11
212.252608
 21
164.219354
 31
0.0
 11
212.345020
 21
164.284943
 31
0.0
 11
212.531977
 21
164.499174
 31
0.0
 11
212.772969
 21
164.815768
 31
0.0
 11
213.018069
 21
165.138426
 31
0.0
 11
213.215862
 21
165.368521
 31
0.0
 11
213.323613
 21
165.456280
 31
0.0
 11
212.924774
 21
164.779795
 31
0.0
 11
211.766530
 21
163.209606
 31
0.0
 11
210.356978
 21
161.434613
 31
0.0
 11
204.211848
 21
155.004911
 31
0.0
 11
196.947513
 21
149.130665
 31
0.0
 11
188.797853
 21
144.000776
 31
0.0
  0
SPLINE
  5
162
100
AcDbEntity
  8
0
 62
7
100
AcDbSpline
 70
0
 71
3
 72
13
 73
9
 74
7
 40
0.000000
 40
0.000000
 40
0.000000
 40
0.000000
 40
3.172008
 40
6.346137
 40
9.617767
 40
15.214950
 40
20.757317
 40
26.246352
 40
26.246352
 40
26.246352
 40
26.246352
 10
185.753494
 20
143.971010
 30
0.0
 10
184.827141
 20
144.482601
 30
0.0
 10
182.973818
 20
145.506125
 30
0.0
 10
179.985341
 20
146.689207
 30
0.0
 10
176.128291
 20
147.817787
 30
0.0
 10
171.378082
 20
148.619720
 30
0.0
 10
165.813158
 20
148.841671
 30
0.0
 10
162.164567
 20
148.337702
 30
0.0
 10
160.349091
 20
148.086936
 30
0.0
 11
185.753494
 21
143.971010
 31
0.0
 11
182.944813
 21
145.445102
 31
0.0
 11
180.000709
 21
146.631421
 31
0.0
 11
176.861828
 21
147.553911
 31
0.0
 11
171.345838
 21
148.503810
 31
0.0
 11
165.806210
 21
148.678002
 31
0.0
 11
160.349091
 21
148.086936
 31
0.0
  0
SPLINE
  5
163
100
AcDbEntity
  8
0
 62
7
100
AcDbSpline
 70
0
 71
3
 72
10
 73
6
 74
4
 40
0.000000
 40
0.000000
 40
0.000000
 40
0.000000
 40
6.383933
 40
12.747677
 40
19.131610
 40
19.131610
 40
19.131610
 40
19.131610
 10
160.349091
 20
148.086936
 30
0.0
 10
158.666447
 20
146.779400
 30
0.0
 10
155.306480
 20
144.168462
 30
0.0
 10
149.567922
 20
141.264706
 30
0.0
 10
145.474134
 20
140.103985
 30
0.0
 10
143.423998
 20
139.522705
 30
0.0
 11
160.349091
 21
148.086936
 31
0.0
 11
155.184861
 21
144.333893
 31
0.0
 11
149.506666
 21
141.460682
 31
0.0
 11
143.423998
 21
139.522705
 31
0.0
  0
LINE
  5
164
100
AcDbEntity
  8
0
 62
7
100
AcDbLine
 10
139.364316
 20
131.505277
 30
0.0
 11
139.246348
 21
130.908862
 31
0.0
  0
LINE
  5
165
100
AcDbEntity
  8
0
 62
7
100
AcDbLine
 10
139.246348
 20
130.908862
 30
0.0
 11
134.783709
 21
130.908862
 31
0.0
  0
LINE
  5
166
100
AcDbEntity
  8
0
 62
7
100
AcDbLine
 10
134.783709
 20
130.908862
 30
0.0
 11
130.321070
 21
130.908862
 31
0.0
  0
LINE
  5
167
100
AcDbEntity
  8
0
 62
7
100
AcDbLine
 10
130.321070
 20
130.908862
 30
0.0
 11
130.244446
 21
131.191085
 31
0.0
  0
SPLINE
  5
168
100
AcDbEntity
  8
0
 62
7
100
AcDbSpline
 70
0
 71
3
 72
10
 73
6
 74
4
 40
0.000000
 40
0.000000
 40
0.000000
 40
0.000000
 40
3.103306
 40
6.104182
 40
9.083177
 40
9.083177
 40
9.083177
 40
9.083177
 10
143.423998
 20
139.522705
 30
0.0
 10
142.773892
 20
138.716120
 30
0.0
 10
141.495138
 20
137.129573
 30
0.0
 10
140.102930
 20
134.405146
 30
0.0
 10
139.609920
 20
132.469539
 30
0.0
 10
139.364316
 20
131.505277
 30
0.0
 11
143.423998
 21
139.522705
 31
0.0
 11
141.562370
 21
137.039794
 31
0.0
 11
140.206239
 21
134.362825
 31
0.0
 11
139.364316
 21
131.505277
 31
0.0
  0
SPLINE
  5
169
100
AcDbEntity
  8
0
 62
7
100
AcDbSpline
 70
0
 71
3
 72
13
 73
9
 74
7
 40
0.000000
 40
0.000000
 40
0.000000
 40
0.000000
 40
0.324229
 40
0.892822
 40
1.582708
 40
3.980249
 40
6.479160
 40
9.105549
 40
9.105549
 40
9.105549
 40
9.105549
 10
130.244446
 20
131.191085
 30
0.0
 10
130.218095
 20
131.295899
 30
0.0
 10
130.145533
 20
131.584525
 30
0.0
 10
130.022549
 20
132.097590
 30
0.0
 10
129.755370
 20
133.286556
 30
0.0
 10
129.164710
 20
135.062178
 30
0.0
 10
127.954453
 20
137.277283
 30
0.0
 10
126.872195
 20
138.602655
 30
0.0
 10
126.317606
 20
139.281823
 30
0.0
 11
130.244446
 21
131.191085
 31
0.0
 11
130.165813
 21
131.505634
 31
0.0
 11
130.033162
 21
132.058537
 31
0.0
 11
129.875130
 21
132.730079
 31
0.0
 11
129.110691
 21
135.002487
 31
0.0
 11
127.913699
 21
137.196060
 31
0.0
 11
126.317606
 21
139.281823
 31
0.0
  0
SPLINE
  5
16a
100
AcDbEntity
  8
0
 62
7
100
AcDbSpline
 70
0
 71
3
 72
10
 73
6
 74
4
 40
0.000000
 40
0.000000
 40
0.000000
 40
0.000000
 40
6.786621
 40
13.549027
 40
20.335648
 40
20.335648
 40
20.335648
 40
20.335648
 10
126.317606
 20
139.281823
 30
0.0
 10
124.125958
 20
139.856683
 30
0.0
 10
119.750481
 20
141.004352
 30
0.0
 10
113.620709
 20
144.047509
 30
0.0
 10
110.061374
 20
146.839118
 30
0.0
 10
108.278526
 20
148.237417
 30
0.0
 11
126.317606
 21
139.281823
 31
0.0
 11
119.815770
 21
141.227164
 31
0.0
 11
113.758727
 21
144.234214
 31
0.0
 11
108.278526
 21
148.237417
 31
0.0
  0
LINE
  5
16b
100
AcDbEntity
  8
0
 62
7
100
AcDbLine
 10
83.725193
 20
143.929670
 30
0.0
 11
82.354327
 21
143.107808
 31
0.0
  0
LINE
  5
16c
100
AcDbEntity
  8
0
 62
7
100
AcDbLine
 10
82.354327
 20
143.107808
 30
0.0
 11
80.859988
 21
143.932978
 31
0.0
  0
SPLINE
  5
16d
100
AcDbEntity
  8
0
 62
7
100
AcDbSpline
 70
0
 71
3
 72
10
 73
6
 74
4
 40
0.000000
 40
0.000000
 40
0.000000
 40
0.000000
 40
8.667644
 40
17.185376
 40
25.354292
 40
25.354292
 40
25.354292
 40
25.354292
 10
108.278526
 20
148.237417
 30
0.0
 10
105.394733
 20
148.486730
 30
0.0
 10
99.677023
 20
148.981043
 30
0.0
 10
91.195703
 20
147.581956
 30
0.0
 10
86.180416
 20
145.130014
 30
0.0
 10
83.725193
 20
143.929670
 30
0.0
 11
108.278526
 21
148.237417
 31
0.0
 11
99.619259
 21
148.618378
 31
0.0
 11
91.226653
 21
147.163750
 31
0.0
 11
83.725193
 21
143.929670
 31
0.0
  0
SPLINE
  5
16e
100
AcDbEntity
  8
0
 62
7
100
AcDbSpline
 70
0
 71
3
 72
16
 73
12
 74
10
 40
0.000000
 40
0.000000
 40
0.000000
 40
0.000000
 40
5.113463
 40
10.421238
 40
15.213204
 40
17.541820
 40
18.351940
 40
19.738497
 40
30.039378
 40
40.888403
 40
52.210932
 40
52.210932
 40
52.210932
 40
52.210932
 10
80.859988
 20
143.932978
 30
0.0
 10
79.390600
 20
144.795852
 30
0.0
 10
76.395987
 20
146.554391
 30
0.0
 10
72.127907
 20
149.313469
 30
0.0
 10
69.022553
 20
152.078439
 30
0.0
 10
66.684141
 20
153.364968
 30
0.0
 10
66.008485
 20
154.961323
 30
0.0
 10
70.354591
 20
157.477170
 30
0.0
 10
74.910977
 20
162.470929
 30
0.0
 10
84.802149
 20
167.863344
 30
0.0
 10
91.588623
 20
170.650355
 30
0.0
 10
95.054327
 20
172.073621
 30
0.0
 11
80.859988
 21
143.932978
 31
0.0
 11
76.468900
 21
146.553253
 31
0.0
 11
72.068806
 21
149.521695
 31
0.0
 11
68.261955
 21
152.432165
 31
0.0
 11
66.487853
 21
153.940478
 31
0.0
 11
66.243057
 21
154.712728
 31
0.0
 11
67.230631
 21
155.685990
 31
0.0
 11
75.314009
 21
162.070904
 31
0.0
 11
84.665814
 21
167.570460
 31
0.0
 11
95.054327
 21
172.073621
 31
0.0
  0
SPLINE
  5
16f
100
AcDbEntity
  8
0
 62
7
100
AcDbSpline
 70
0
 71
3
 72
10
 73
6
 74
4
 40
0.000000
 40
0.000000
 40
0.000000
 40
0.000000
 40
2.091370
 40
4.182022
 40
6.273392
 40
6.273392
 40
6.273392
 40
6.273392
 10
95.054327
 20
172.073621
 30
0.0
 10
94.953345
 20
172.763495
 30
0.0
 10
94.751417
 20
174.143007
 30
0.0
 10
94.579125
 20
176.228950
 30
0.0
 10
94.551974
 20
177.622898
 30
0.0
 10
94.538396
 20
178.319992
 30
0.0
 11
95.054327
 21
172.073621
 31
0.0
 11
94.773158
 21
174.146004
 31
0.0
 11
94.601063
 21
176.229561
 31
0.0
 11
94.538396
 21
178.319992
 31
0.0
  0
SPLINE
  5
170
100
AcDbEntity
  8
0
 62
7
100
AcDbSpline
 70
0
 71
3
 72
10
 73
6
 74
4
 40
0.000000
 40
0.000000
 40
0.000000
 40
0.000000
 40
0.747201
 40
1.494369
 40
2.241569
 40
2.241569
 40
2.241569
 40
2.241569
 10
94.538396
 20
178.319992
 30
0.0
 10
94.545295
 20
178.568968
 30
0.0
 10
94.559093
 20
179.066909
 30
0.0
 10
94.596581
 20
179.813245
 30
0.0
 10
94.632749
 20
180.310063
 30
0.0
 10
94.650834
 20
180.558477
 30
0.0
 11
94.538396
 21
178.319992
 31
0.0
 11
94.561892
 21
179.066823
 31
0.0
 11
94.599374
 21
179.813050
 31
0.0
 11
94.650834
 21
180.558477
 31
0.0
  0
LINE
  5
171
100
AcDbEntity
  8
0
 62
7
100
AcDbLine
 10
57.065664
 20
164.202265
 30
0.0
 11
56.314360
 21
165.272726
 31
0.0
  0
LINE
  5
172
100
AcDbEntity
  8
0
 62
7
100
AcDbLine
 10
56.314360
 20
165.272726
 30
0.0
 11
57.239287
 21
166.715257
 31
0.0
  0
SPLINE
  5
173
100
AcDbEntity
  8
0
 62
7
100
AcDbSpline
 70
0
 71
3
 72
19
 73
15
 74
13
 40
0.000000
 40
0.000000
 40
0.000000
 40
0.000000
 40
7.553041
 40
14.765011
 40
21.945542
 40
27.787600
 40
33.239693
 40
38.411960
 40
39.201371
 40
39.771257
 40
39.998523
 40
41.502374
 40
44.516455
 40
47.180260
 40
47.180260
 40
47.180260
 40
47.180260
 10
94.650834
 20
180.558477
 30
0.0
 10
92.308319
 20
179.632236
 30
0.0
 10
87.729071
 20
177.821581
 30
0.0
 10
81.221079
 20
174.453949
 30
0.0
 10
75.503868
 20
170.861703
 30
0.0
 10
70.535947
 20
167.218485
 30
0.0
 10
66.352740
 20
163.643466
 30
0.0
 10
63.698241
 20
160.938507
 30
0.0
 10
62.239050
 20
159.295432
 30
0.0
 10
61.885765
 20
158.927179
 30
0.0
 10
61.333303
 20
158.302949
 30
0.0
 10
60.257227
 20
160.706225
 30
0.0
 10
58.745979
 20
161.828392
 30
0.0
 10
57.602249
 20
163.444201
 30
0.0
 10
57.065664
 20
164.202265
 30
0.0
 11
94.650834
 21
180.558477
 31
0.0
 11
87.675799
 21
177.660664
 31
0.0
 11
81.262368
 21
174.362117
 31
0.0
 11
75.179702
 21
170.546203
 31
0.0
 11
70.475988
 21
167.081421
 31
0.0
 11
66.341735
 21
163.527088
 31
0.0
 11
62.720042
 21
159.834436
 31
0.0
 11
62.190342
 21
159.249125
 31
0.0
 11
61.802375
 21
158.831693
 31
0.0
 11
61.640204
 21
158.672474
 31
0.0
 11
60.607885
 21
159.766039
 31
0.0
 11
58.686660
 21
162.088447
 31
0.0
 11
57.065664
 21
164.202265
 31
0.0
  0
SPLINE
  5
174
100
AcDbEntity
  8
0
 62
7
100
AcDbSpline
 70
0
 71
3
 72
19
 73
15
 74
13
 40
0.000000
 40
0.000000
 40
0.000000
 40
0.000000
 40
10.965804
 40
22.616080
 40
34.697206
 40
35.899629
 40
36.818442
 40
37.254699
 40
37.474972
 40
37.905099
 40
38.562636
 40
41.381170
 40
45.031718
 40
48.768000
 40
48.768000
 40
48.768000
 40
48.768000
 10
57.239287
 20
166.715257
 30
0.0
 10
59.410982
 20
169.666385
 30
0.0
 10
63.889928
 20
175.752846
 30
0.0
 10
72.748737
 20
183.354182
 30
0.0
 10
79.834544
 20
187.685278
 30
0.0
 10
84.012914
 20
189.956031
 30
0.0
 10
84.785931
 20
190.284943
 30
0.0
 10
85.222020
 20
190.636821
 30
0.0
 10
85.599352
 20
190.593607
 30
0.0
 10
85.971482
 20
190.355231
 30
0.0
 10
87.034002
 20
189.611060
 30
0.0
 10
88.992968
 20
188.258652
 30
0.0
 10
91.883912
 20
186.467070
 30
0.0
 10
94.009131
 20
185.223119
 30
0.0
 10
95.084073
 20
184.593924
 30
0.0
 11
57.239287
 21
166.715257
 31
0.0
 11
64.058903
 21
175.302555
 31
0.0
 11
72.803834
 21
183.000289
 31
0.0
 11
83.036176
 21
189.423122
 31
0.0
 11
84.101842
 21
189.980057
 31
0.0
 11
84.915941
 21
190.406039
 31
0.0
 11
85.302223
 21
190.608785
 31
0.0
 11
85.521803
 21
190.591323
 31
0.0
 11
85.904652
 21
190.395273
 31
0.0
 11
86.446549
 21
190.022844
 31
0.0
 11
88.774575
 21
188.433999
 31
0.0
 11
91.867612
 21
186.495024
 31
0.0
 11
95.084073
 21
184.593924
 31
0.0
  0
SPLINE
  5
175
100
AcDbEntity
  8
0
 62
7
100
AcDbSpline
 70
0
 71
3
 72
10
 73
6
 74
4
 40
0.000000
 40
0.000000
 40
0.000000
 40
0.000000
 40
0.899476
 40
1.798894
 40
2.698370
 40
2.698370
 40
2.698370
 40
2.698370
 10
95.084073
 20
184.593924
 30
0.0
 10
95.132196
 20
184.889871
 30
0.0
 10
95.228439
 20
185.481744
 30
0.0
 10
95.396804
 20
186.365458
 30
0.0
 10
95.524931
 20
186.951257
 30
0.0
 10
95.588997
 20
187.244166
 30
0.0
 11
95.084073
 21
184.593924
 31
0.0
 11
95.232442
 21
185.481079
 31
0.0
 11
95.400772
 21
186.364605
 31
0.0
 11
95.588997
 21
187.244166
 31
0.0
  0
SPLINE
  5
176
100
AcDbEntity
  8
0
 62
7
100
AcDbSpline
 70
0
 71
3
 72
16
 73
12
 74
10
 40
0.000000
 40
0.000000
 40
0.000000
 40
0.000000
 40
4.488157
 40
8.538464
 40
10.394453
 40
11.669846
 40
14.338022
 40
16.926447
 40
20.538554
 40
24.192654
 40
27.893945
 40
27.893945
 40
27.893945
 40
27.893945
 10
95.588997
 20
187.244166
 30
0.0
 10
94.246611
 20
188.036456
 30
0.0
 10
91.692798
 20
189.543742
 30
0.0
 10
89.564413
 20
191.396241
 30
0.0
 10
86.305262
 20
192.929270
 30
0.0
 10
88.599933
 20
194.136447
 30
0.0
 10
90.064119
 20
195.338618
 30
0.0
 10
92.653243
 20
196.966052
 30
0.0
 10
95.475646
 20
198.576367
 30
0.0
 10
98.750732
 20
200.230612
 30
0.0
 10
101.005551
 20
201.191104
 30
0.0
 10
102.140193
 20
201.674431
 30
0.0
 11
95.588997
 21
187.244166
 31
0.0
 11
91.784386
 21
189.625025
 31
0.0
 11
88.423347
 21
191.885203
 31
0.0
 11
86.976252
 21
193.047360
 31
0.0
 11
87.978118
 21
193.836596
 31
0.0
 11
90.173796
 21
195.352563
 31
0.0
 11
92.348408
 21
196.756488
 31
0.0
 11
95.485550
 21
198.546924
 31
0.0
 11
98.751046
 21
200.186737
 31
0.0
 11
102.140193
 21
201.674431
 31
0.0
  0
SPLINE
  5
177
100
AcDbEntity
  8
0
 62
7
100
AcDbSpline
 70
0
 71
3
 72
10
 73
6
 74
4
 40
0.000000
 40
0.000000
 40
0.000000
 40
0.000000
 40
10.333069
 40
20.582297
 40
30.915365
 40
30.915365
 40
30.915365
 40
30.915365
 10
102.140193
 20
201.674431
 30
0.0
 10
104.375985
 20
204.311606
 30
0.0
 10
108.829429
 20
209.564558
 30
0.0
 10
117.773408
 20
215.127127
 30
0.0
 10
124.454117
 20
216.798890
 30
0.0
 10
127.808078
 20
217.638176
 30
0.0
 11
102.140193
 21
201.674431
 31
0.0
 11
109.225914
 21
209.195392
 31
0.0
 11
117.929212
 21
214.608274
 31
0.0
 11
127.808078
 21
217.638176
 31
0.0
  0
LINE
  5
178
100
AcDbEntity
  8
0
 62
7
100
AcDbLine
 10
131.972521
 20
223.939120
 30
0.0
 11
132.185825
 21
224.878940
 31
0.0
  0
LINE
  5
179
100
AcDbEntity
  8
0
 62
7
100
AcDbLine
 10
132.185825
 20
224.878940
 30
0.0
 11
132.185825
 21
224.878940
 31
0.0
  0
LINE
  5
17a
100
AcDbEntity
  8
0
 62
7
100
AcDbLine
 10
200.246028
 20
219.133623
 30
0.0
 11
201.691881
 21
217.954575
 31
0.0
  0
SPLINE
  5
17b
100
AcDbEntity
  8
0
 62
7
100
AcDbSpline
 70
0
 71
3
 72
10
 73
6
 74
4
 40
0.000000
 40
0.000000
 40
0.000000
 40
0.000000
 40
2.767263
 40
5.330297
 40
7.661121
 40
7.661121
 40
7.661121
 40
7.661121
 10
127.808078
 20
217.638176
 30
0.0
 10
128.476012
 20
218.275256
 30
0.0
 10
129.762585
 20
219.502398
 30
0.0
 10
131.229697
 20
221.638352
 30
0.0
 10
131.732871
 20
223.196847
 30
0.0
 10
131.972521
 20
223.939120
 30
0.0
 11
127.808078
 21
217.638176
 31
0.0
 11
129.740236
 21
219.619214
 31
0.0
 11
131.155123
 21
221.756323
 31
0.0
 11
131.972521
 21
223.939120
 31
0.0
  0
LINE
  5
17c
100
AcDbEntity
  8
0
 62
7
100
AcDbLine
 10
200.195341
 20
218.708636
 30
0.0
 11
200.246028
 21
219.133623
 31
0.0
  0
LINE
  5
17d
100
AcDbEntity
  8
0
 62
7
100
AcDbLine
 10
200.246028
 20
219.133623
 30
0.0
 11
200.246028
 21
219.133623
 31
0.0
  0
SPLINE
  5
17e
100
AcDbEntity
  8
0
 62
7
100
AcDbSpline
 70
0
 71
3
 72
34
 73
30
 74
28
 40
0.000000
 40
0.000000
 40
0.000000
 40
0.000000
 40
5.727081
 40
11.527362
 40
17.251617
 40
23.956026
 40
30.587402
 40
37.044739
 40
38.277054
 40
39.125071
 40
40.154964
 40
42.608150
 40
45.097178
 40
47.593313
 40
48.845140
 40
49.815873
 40
50.295275
 40
50.621392
 40
51.036166
 40
52.111343
 40
64.366282
 40
77.434941
 40
91.252335
 40
93.280771
 40
94.133638
 40
95.226720
 40
97.018162
 40
99.306170
 40
101.071643
 40
101.071643
 40
101.071643
 40
101.071643
 10
201.691881
 20
217.954575
 30
0.0
 10
203.137515
 20
216.705648
 30
0.0
 10
206.047262
 20
214.191831
 30
0.0
 10
209.941105
 20
209.944699
 30
0.0
 10
213.681324
 20
205.146301
 30
0.0
 10
216.974066
 20
199.692206
 30
0.0
 10
219.651137
 20
193.636659
 30
0.0
 10
220.915298
 20
189.021633
 30
0.0
 10
221.512422
 20
186.235659
 30
0.0
 10
221.556154
 20
185.192215
 30
0.0
 10
221.277881
 20
183.769526
 30
0.0
 10
220.869060
 20
181.823199
 30
0.0
 10
220.208620
 20
179.434443
 30
0.0
 10
219.533047
 20
177.454138
 30
0.0
 10
219.005537
 20
175.999016
 30
0.0
 10
218.665284
 20
175.110812
 30
0.0
 10
218.525803
 20
174.624610
 30
0.0
 10
218.260621
 20
174.078833
 30
0.0
 10
218.113870
 20
175.028592
 30
0.0
 10
218.089305
 20
178.719313
 30
0.0
 10
216.194271
 20
188.594011
 30
0.0
 10
210.061261
 20
199.694923
 30
0.0
 10
203.809486
 20
207.471873
 30
0.0
 10
199.413280
 20
210.769198
 30
0.0
 10
198.632710
 20
211.975602
 30
0.0
 10
199.219494
 20
213.209969
 30
0.0
 10
199.475589
 20
214.876856
 30
0.0
 10
199.903788
 20
216.792910
 30
0.0
 10
200.106884
 20
218.127404
 30
0.0
 10
200.195341
 20
218.708636
 30
0.0
 11
201.691881
 21
217.954575
 31
0.0
 11
205.952780
 21
214.127801
 31
0.0
 11
209.898336
 21
209.876231
 31
0.0
 11
213.394733
 21
205.343870
 31
0.0
 11
216.860275
 21
199.604609
 31
0.0
 11
219.516836
 21
193.528604
 31
0.0
 11
221.277115
 21
187.315825
 31
0.0
 11
221.498509
 21
186.103561
 31
0.0
 11
221.523608
 21
185.255915
 31
0.0
 11
221.368047
 21
184.237839
 31
0.0
 11
220.846753
 21
181.840679
 31
0.0
 11
220.184982
 21
179.441238
 31
0.0
 11
219.392492
 21
177.074246
 31
0.0
 11
218.964146
 21
175.897985
 31
0.0
 11
218.634215
 21
174.985040
 31
0.0
 11
218.474169
 21
174.533142
 31
0.0
 11
218.299481
 21
174.257757
 31
0.0
 11
218.176359
 21
174.653836
 31
0.0
 11
218.103216
 21
175.726522
 31
0.0
 11
215.749147
 21
187.753238
 31
0.0
 11
209.800451
 21
199.389512
 31
0.0
 11
200.693632
 21
209.781154
 31
0.0
 11
199.199278
 21
211.152817
 31
0.0
 11
198.811988
 21
211.912677
 31
0.0
 11
199.065323
 21
212.975997
 31
0.0
 11
199.469687
 21
214.721206
 31
0.0
 11
199.912163
 21
216.966022
 31
0.0
 11
200.195341
 21
218.708636
 31
0.0
  0
LINE
  5
17f
100
AcDbEntity
  8
0
 62
7
100
AcDbLine
 10
200.512276
 20
217.931975
 30
0.0
 11
200.599370
 21
217.152556
 31
0.0
  0
LINE
  5
180
100
AcDbEntity
  8
0
 62
7
100
AcDbLine
 10
200.599370
 20
217.152556
 30
0.0
 11
200.656690
 21
217.829999
 31
0.0
  0
SPLINE
  5
181
100
AcDbEntity
  8
0
 62
7
100
AcDbSpline
 70
0
 71
3
 72
10
 73
6
 74
4
 40
0.000000
 40
0.000000
 40
0.000000
 40
0.000000
 40
0.113759
 40
0.353304
 40
0.691819
 40
0.691819
 40
0.691819
 40
0.691819
 10
200.542587
 20
218.614379
 30
0.0
 10
200.526333
 20
218.579715
 30
0.0
 10
200.475851
 20
218.472056
 30
0.0
 10
200.490629
 20
218.234275
 30
0.0
 10
200.504282
 20
218.043622
 30
0.0
 10
200.512276
 20
217.931975
 30
0.0
 11
200.542587
 21
218.614379
 31
0.0
 11
200.499840
 21
218.508957
 31
0.0
 11
200.488739
 21
218.269669
 31
0.0
 11
200.512276
 21
217.931975
 31
0.0
  0
LINE
  5
182
100
AcDbEntity
  8
0
 62
7
100
AcDbLine
 10
200.542502
 20
218.614385
 30
0.0
 11
200.542587
 21
218.614379
 31
0.0
  0
SPLINE
  5
183
100
AcDbEntity
  8
0
 62
7
100
AcDbSpline
 70
0
 71
3
 72
13
 73
9
 74
7
 40
0.000000
 40
0.000000
 40
0.000000
 40
0.000000
 40
0.355343
 40
0.637105
 40
0.795228
 40
0.806108
 40
0.815233
 40
0.824046
 40
0.824046
 40
0.824046
 40
0.824046
 10
200.656690
 20
217.829999
 30
0.0
 10
200.663451
 20
217.949801
 30
0.0
 10
200.675573
 20
218.164597
 30
0.0
 10
200.645999
 20
218.415933
 30
0.0
 10
200.612069
 20
218.583956
 30
0.0
 10
200.560866
 20
218.614927
 30
0.0
 10
200.551128
 20
218.617164
 30
0.0
 10
200.545344
 20
218.615301
 30
0.0
 10
200.542502
 20
218.614385
 30
0.0
 11
200.656690
 21
217.829999
 31
0.0
 11
200.665831
 21
218.185225
 31
0.0
 11
200.634528
 21
218.465242
 31
0.0
 11
200.569596
 21
218.609418
 31
0.0
 11
200.560063
 21
218.614663
 31
0.0
 11
200.551095
 21
218.616346
 31
0.0
 11
200.542502
 21
218.614385
 31
0.0
  0
LINE
  5
184
100
AcDbEntity
  8
0
 62
7
100
AcDbLine
 10
68.661582
 20
218.460038
 30
0.0
 11
68.661582
 21
218.460038
 31
0.0
  0
SPLINE
  5
185
100
AcDbEntity
  8
0
 62
7
100
AcDbSpline
 70
0
 71
3
 72
37
 73
33
 74
31
 40
0.000000
 40
0.000000
 40
0.000000
 40
0.000000
 40
0.149987
 40
0.360788
 40
0.685491
 40
2.052667
 40
4.313175
 40
5.963865
 40
6.335804
 40
7.013049
 40
8.582551
 40
18.232064
 40
27.282843
 40
35.976724
 40
39.499485
 40
42.949908
 40
45.805625
 40
46.458132
 40
46.927553
 40
47.117787
 40
48.283872
 40
50.936398
 40
54.041566
 40
55.253627
 40
56.890460
 40
59.459123
 40
70.256940
 40
81.690213
 40
93.783296
 40
94.261039
 40
94.592336
 40
94.799391
 40
94.799391
 40
94.799391
 40
94.799391
 10
68.661582
 20
218.460038
 30
0.0
 10
68.710327
 20
218.440176
 30
0.0
 10
68.827581
 20
218.392398
 30
0.0
 10
68.876666
 20
218.142668
 30
0.0
 10
68.887698
 20
217.526462
 30
0.0
 10
69.181254
 20
216.217492
 30
0.0
 10
69.463620
 20
214.475871
 30
0.0
 10
69.881511
 20
213.141261
 30
0.0
 10
70.002983
 20
212.199516
 30
0.0
 10
69.251194
 20
211.581208
 30
0.0
 10
66.453939
 20
208.989546
 30
0.0
 10
61.447643
 20
204.201008
 30
0.0
 10
56.142808
 20
196.771384
 30
0.0
 10
53.005097
 20
190.353304
 30
0.0
 10
51.398028
 20
185.384622
 30
0.0
 10
50.575945
 20
182.201847
 30
0.0
 10
50.220977
 20
179.922860
 30
0.0
 10
50.075952
 20
178.586354
 30
0.0
 10
50.034565
 20
178.173472
 30
0.0
 10
49.788915
 20
177.515498
 30
0.0
 10
49.254719
 20
180.085065
 30
0.0
 10
48.775016
 20
181.403729
 30
0.0
 10
48.155755
 20
183.955819
 30
0.0
 10
47.965110
 20
185.911252
 30
0.0
 10
48.300257
 20
187.710126
 30
0.0
 10
49.487212
 20
192.550382
 30
0.0
 10
52.576218
 20
200.327429
 30
0.0
 10
59.110895
 20
209.776087
 30
0.0
 10
64.783281
 20
215.554950
 30
0.0
 10
68.134998
 20
218.209485
 30
0.0
 10
68.415032
 20
218.414037
 30
0.0
 10
68.593097
 20
218.447260
 30
0.0
 10
68.661582
 20
218.460038
 30
0.0
 11
68.661582
 21
218.460038
 31
0.0
 11
68.792018
 21
218.385992
 31
0.0
 11
68.863049
 21
218.187520
 31
0.0
 11
68.885920
 21
217.863623
 31
0.0
 11
69.104197
 21
216.513984
 31
0.0
 11
69.553821
 21
214.298643
 31
0.0
 11
69.935448
 21
212.692674
 31
0.0
 11
69.945461
 21
212.320870
 31
0.0
 11
69.517954
 21
211.795610
 31
0.0
 11
68.351250
 21
210.745781
 31
0.0
 11
61.565332
 21
203.885431
 31
0.0
 11
56.286568
 21
196.533474
 31
0.0
 11
52.520334
 21
188.697720
 31
0.0
 11
51.424309
 21
185.349799
 31
0.0
 11
50.587803
 21
182.002312
 31
0.0
 11
50.142414
 21
179.181540
 31
0.0
 11
50.071143
 21
178.532937
 31
0.0
 11
49.991350
 21
178.070348
 31
0.0
 11
49.920248
 21
177.893901
 31
0.0
 11
49.475573
 21
178.971870
 31
0.0
 11
48.782466
 21
181.532241
 31
0.0
 11
48.114478
 21
184.564709
 31
0.0
 11
48.027124
 21
185.773617
 31
0.0
 11
48.253601
 21
187.394707
 31
0.0
 11
48.858613
 21
189.891103
 31
0.0
 11
52.842282
 21
199.927199
 31
0.0
 11
59.240469
 21
209.402585
 31
0.0
 11
67.801143
 21
217.944102
 31
0.0
 11
68.177504
 21
218.238365
 31
0.0
 11
68.460519
 21
218.410587
 31
0.0
 11
68.661582
 21
218.460038
 31
0.0
  0
LINE
  5
186
100
AcDbEntity
  8
0
 62
7
100
AcDbLine
 10
189.435619
 20
202.937816
 30
0.0
 11
190.682448
 21
201.537178
 31
0.0
  0
LINE
  5
187
100
AcDbEntity
  8
0
 62
7
100
AcDbLine
 10
190.682448
 20
201.537178
 30
0.0
 11
189.770758
 21
200.120004
 31
0.0
  0
SPLINE
  5
188
100
AcDbEntity
  8
0
 62
7
100
AcDbSpline
 70
0
 71
3
 72
13
 73
9
 74
7
 40
0.000000
 40
0.000000
 40
0.000000
 40
0.000000
 40
0.407936
 40
1.281015
 40
2.430740
 40
10.027479
 40
17.233759
 40
24.043848
 40
24.043848
 40
24.043848
 40
24.043848
 10
170.138674
 20
217.049480
 30
0.0
 10
170.262654
 20
216.993590
 30
0.0
 10
170.651981
 20
216.818082
 30
0.0
 10
171.370809
 20
216.443472
 30
0.0
 10
174.219305
 20
214.971693
 30
0.0
 10
178.790044
 20
212.239264
 30
0.0
 10
184.598619
 20
207.931252
 30
0.0
 10
187.853958
 20
204.570630
 30
0.0
 10
189.435619
 20
202.937816
 30
0.0
 11
170.138674
 21
217.049480
 31
0.0
 11
170.509550
 21
216.879588
 31
0.0
 11
171.289146
 21
216.486527
 31
0.0
 11
172.308794
 21
215.955316
 31
0.0
 11
178.832659
 21
212.063064
 31
0.0
 11
184.569865
 21
207.702452
 31
0.0
 11
189.435619
 21
202.937816
 31
0.0
  0
LINE
  5
189
100
AcDbEntity
  8
0
 62
7
100
AcDbLine
 10
161.973506
 20
211.876324
 30
0.0
 11
159.339243
 21
212.774253
 31
0.0
  0
LINE
  5
18a
100
AcDbEntity
  8
0
 62
7
100
AcDbLine
 10
159.339243
 20
212.774253
 30
0.0
 11
160.782895
 21
213.066949
 31
0.0
  0
SPLINE
  5
18b
100
AcDbEntity
  8
0
 62
7
100
AcDbSpline
 70
0
 71
3
 72
22
 73
18
 74
16
 40
0.000000
 40
0.000000
 40
0.000000
 40
0.000000
 40
1.000574
 40
2.006603
 40
2.803806
 40
3.380734
 40
3.804810
 40
3.985111
 40
4.235073
 40
4.841191
 40
5.672779
 40
10.907699
 40
16.365617
 40
21.720990
 40
25.591455
 40
29.369826
 40
33.411821
 40
33.411821
 40
33.411821
 40
33.411821
 10
189.770758
 20
200.120004
 30
0.0
 10
189.583878
 20
199.843883
 30
0.0
 10
189.209100
 20
199.290136
 30
0.0
 10
188.634653
 20
198.548951
 30
0.0
 10
188.112210
 20
197.959634
 30
0.0
 10
187.671598
 20
197.529895
 30
0.0
 10
187.389824
 20
197.303401
 30
0.0
 10
187.160106
 20
197.044881
 30
0.0
 10
186.882872
 20
197.400911
 30
0.0
 10
186.463977
 20
197.679307
 30
0.0
 10
184.807329
 20
199.263981
 30
0.0
 10
181.845448
 20
201.618300
 30
0.0
 10
177.434156
 20
204.694073
 30
0.0
 10
173.189838
 20
207.133195
 30
0.0
 10
169.290988
 20
209.033627
 30
0.0
 10
165.704044
 20
210.562772
 30
0.0
 10
163.244654
 20
211.428743
 30
0.0
 10
161.973506
 20
211.876324
 30
0.0
 11
189.770758
 21
200.120004
 31
0.0
 11
189.201084
 21
199.297435
 31
0.0
 11
188.583664
 21
198.503151
 31
0.0
 11
188.052052
 21
197.909078
 31
0.0
 11
187.636307
 21
197.509078
 31
0.0
 11
187.322644
 21
197.223672
 31
0.0
 11
187.178942
 21
197.114778
 31
0.0
 11
186.979553
 21
197.265526
 31
0.0
 11
186.519923
 21
197.660647
 31
0.0
 11
185.899572
 21
198.214454
 31
0.0
 11
181.856965
 21
201.540372
 31
0.0
 11
177.366930
 21
204.643345
 31
0.0
 11
172.727160
 21
207.317772
 31
0.0
 11
169.249663
 21
209.017040
 31
0.0
 11
165.770930
 21
210.491660
 31
0.0
 11
161.973506
 21
211.876324
 31
0.0
  0
LINE
  5
18c
100
AcDbEntity
  8
0
 62
7
100
AcDbLine
 10
170.138674
 20
217.049480
 30
0.0
 11
170.138674
 21
217.049480
 31
0.0
  0
LINE
  5
18d
100
AcDbEntity
  8
0
 62
7
100
AcDbLine
 10
97.821967
 20
216.819621
 30
0.0
 11
99.069926
 21
216.053433
 31
0.0
  0
SPLINE
  5
18e
100
AcDbEntity
  8
0
 62
7
100
AcDbSpline
 70
0
 71
3
 72
13
 73
9
 74
7
 40
0.000000
 40
0.000000
 40
0.000000
 40
0.000000
 40
2.941635
 40
5.920842
 40
8.697188
 40
9.409917
 40
9.956531
 40
10.225674
 40
10.225674
 40
10.225674
 40
10.225674
 10
160.782895
 20
213.066949
 30
0.0
 10
161.735540
 20
213.303024
 30
0.0
 10
163.652999
 20
213.778190
 30
0.0
 10
166.347795
 20
214.878687
 30
0.0
 10
168.218871
 20
215.964156
 30
0.0
 10
169.348898
 20
216.686421
 30
0.0
 10
169.788280
 20
216.955485
 30
0.0
 10
170.051748
 20
217.026161
 30
0.0
 10
170.138674
 20
217.049480
 30
0.0
 11
160.782895
 21
213.066949
 31
0.0
 11
163.620367
 21
213.842815
 31
0.0
 11
166.378918
 21
214.968013
 31
0.0
 11
168.795353
 21
216.335105
 31
0.0
 11
169.398418
 21
216.714966
 31
0.0
 11
169.881049
 21
216.971587
 31
0.0
 11
170.138674
 21
217.049480
 31
0.0
  0
LINE
  5
18f
100
AcDbEntity
  8
0
 62
7
100
AcDbLine
 10
96.920747
 20
216.363767
 30
0.0
 11
97.821967
 21
216.819621
 31
0.0
  0
LINE
  5
190
100
AcDbEntity
  8
0
 62
7
100
AcDbLine
 10
97.821967
 20
216.819621
 30
0.0
 11
97.821967
 21
216.819621
 31
0.0
  0
SPLINE
  5
191
100
AcDbEntity
  8
0
 62
7
100
AcDbSpline
 70
0
 71
3
 72
28
 73
24
 74
22
 40
0.000000
 40
0.000000
 40
0.000000
 40
0.000000
 40
3.278992
 40
6.639711
 40
9.887218
 40
10.249635
 40
10.879463
 40
12.936310
 40
22.321837
 40
31.263523
 40
39.760826
 40
40.549132
 40
41.132075
 40
41.385156
 40
42.495172
 40
44.532894
 40
46.149142
 40
47.000184
 40
47.641654
 40
49.187830
 40
56.176945
 40
63.596364
 40
71.089158
 40
71.089158
 40
71.089158
 40
71.089158
 10
99.069926
 20
216.053433
 30
0.0
 10
100.016094
 20
215.528565
 30
0.0
 10
101.932014
 20
214.465748
 30
0.0
 10
105.244912
 20
213.315437
 30
0.0
 10
107.036317
 20
212.990018
 30
0.0
 10
108.923810
 20
212.644828
 30
0.0
 10
107.315674
 20
212.110415
 30
0.0
 10
104.527302
 20
211.073524
 30
0.0
 10
97.310080
 20
208.242652
 30
0.0
 10
89.825734
 20
203.881797
 30
0.0
 10
84.970317
 20
200.141709
 30
0.0
 10
82.508442
 20
197.916916
 30
0.0
 10
82.104161
 20
197.586353
 30
0.0
 10
81.555103
 20
197.139879
 30
0.0
 10
80.726425
 20
198.585245
 30
0.0
 10
79.626733
 20
199.399290
 30
0.0
 10
78.776993
 20
200.642426
 30
0.0
 10
78.038066
 20
201.528055
 30
0.0
 10
78.495941
 20
202.546065
 30
0.0
 10
80.745151
 20
204.566180
 30
0.0
 10
84.452648
 20
208.441441
 30
0.0
 10
90.385635
 20
212.741190
 30
0.0
 10
94.735242
 20
215.152287
 30
0.0
 10
96.920747
 20
216.363767
 30
0.0
 11
99.069926
 21
216.053433
 31
0.0
 11
101.983752
 21
214.549637
 31
0.0
 11
105.149402
 21
213.421323
 31
0.0
 11
108.327577
 21
212.753857
 31
0.0
 11
108.676016
 21
212.654176
 31
0.0
 11
108.112074
 21
212.373725
 31
0.0
 11
106.174532
 21
211.683400
 31
0.0
 11
97.513657
 21
208.067135
 31
0.0
 11
89.759651
 21
203.614143
 31
0.0
 11
83.048311
 21
198.402417
 31
0.0
 11
82.457472
 21
197.880559
 31
0.0
 11
82.008546
 21
197.508688
 31
0.0
 11
81.798688
 21
197.367234
 31
0.0
 11
80.957504
 21
198.091489
 31
0.0
 11
79.577413
 21
199.590709
 31
0.0
 11
78.580705
 21
200.863042
 31
0.0
 11
78.176719
 21
201.612087
 31
0.0
 11
78.377378
 21
202.221365
 31
0.0
 11
79.407532
 21
203.374379
 31
0.0
 11
84.483245
 21
208.179050
 31
0.0
 11
90.442483
 21
212.598922
 31
0.0
 11
96.920747
 21
216.363767
 31
0.0
  0
LINE
  5
192
100
AcDbEntity
  8
0
 62
7
100
AcDbLine
 10
200.427384
 20
216.606854
 30
0.0
 11
200.427384
 21
216.606854
 31
0.0
  0
SPLINE
  5
193
100
AcDbEntity
  8
0
 62
7
100
AcDbSpline
 70
0
 71
3
 72
19
 73
15
 74
13
 40
0.000000
 40
0.000000
 40
0.000000
 40
0.000000
 40
0.035823
 40
0.130126
 40
0.283676
 40
0.475373
 40
0.559639
 40
0.624763
 40
0.768838
 40
0.926886
 40
1.070960
 40
1.098923
 40
1.118734
 40
1.131609
 40
1.131609
 40
1.131609
 40
1.131609
 10
200.427384
 20
216.606854
 30
0.0
 10
200.417792
 20
216.599161
 30
0.0
 10
200.382950
 20
216.571217
 30
0.0
 10
200.385482
 20
216.466711
 30
0.0
 10
200.374210
 20
216.318025
 30
0.0
 10
200.376055
 20
216.205922
 30
0.0
 10
200.407880
 20
216.032242
 30
0.0
 10
200.484433
 20
216.150237
 30
0.0
 10
200.488890
 20
216.257678
 30
0.0
 10
200.494977
 20
216.411554
 30
0.0
 10
200.474153
 20
216.520830
 30
0.0
 10
200.449278
 20
216.579369
 30
0.0
 10
200.439801
 20
216.597835
 30
0.0
 10
200.430893
 20
216.604305
 30
0.0
 10
200.427384
 20
216.606854
 30
0.0
 11
200.427384
 21
216.606854
 31
0.0
 11
200.401337
 21
216.582260
 31
0.0
 11
200.383713
 21
216.489619
 31
0.0
 11
200.377233
 21
216.336205
 31
0.0
 11
200.388369
 21
216.144832
 31
0.0
 11
200.417631
 21
216.065809
 31
0.0
 11
200.458795
 21
216.116273
 31
0.0
 11
200.488824
 21
216.257184
 31
0.0
 11
200.488824
 21
216.415232
 31
0.0
 11
200.458795
 21
216.556141
 31
0.0
 11
200.447786
 21
216.581846
 31
0.0
 11
200.437321
 21
216.598668
 31
0.0
 11
200.427384
 21
216.606854
 31
0.0
  0
LINE
  5
194
100
AcDbEntity
  8
0
 62
7
100
AcDbLine
 10
200.248258
 20
215.601437
 30
0.0
 11
200.248258
 21
215.601437
 31
0.0
  0
SPLINE
  5
195
100
AcDbEntity
  8
0
 62
7
100
AcDbSpline
 70
0
 71
3
 72
19
 73
15
 74
13
 40
0.000000
 40
0.000000
 40
0.000000
 40
0.000000
 40
0.035740
 40
0.129781
 40
0.283189
 40
0.474887
 40
0.559159
 40
0.624287
 40
0.768222
 40
0.926004
 40
1.069939
 40
1.097903
 40
1.117713
 40
1.130588
 40
1.130588
 40
1.130588
 40
1.130588
 10
200.248258
 20
215.601437
 30
0.0
 10
200.238658
 20
215.593795
 30
0.0
 10
200.203800
 20
215.566044
 30
0.0
 10
200.206324
 20
215.461632
 30
0.0
 10
200.195051
 20
215.313136
 30
0.0
 10
200.196901
 20
215.201050
 30
0.0
 10
200.228746
 20
215.027376
 30
0.0
 10
200.305273
 20
215.145313
 30
0.0
 10
200.309773
 20
215.252633
 30
0.0
 10
200.315850
 20
215.406324
 30
0.0
 10
200.295007
 20
215.515455
 30
0.0
 10
200.270151
 20
215.573953
 30
0.0
 10
200.260675
 20
215.592418
 30
0.0
 10
200.251767
 20
215.598888
 30
0.0
 10
200.248258
 20
215.601437
 30
0.0
 11
200.248258
 21
215.601437
 31
0.0
 11
200.222191
 21
215.576986
 31
0.0
 11
200.204559
 21
215.484612
 31
0.0
 11
200.198078
 21
215.331342
 31
0.0
 11
200.209222
 21
215.139968
 31
0.0
 11
200.238497
 21
215.060944
 31
0.0
 11
200.279669
 21
215.111406
 31
0.0
 11
200.309697
 21
215.252174
 31
0.0
 11
200.309697
 21
215.409957
 31
0.0
 11
200.279669
 21
215.550725
 31
0.0
 11
200.268659
 21
215.576429
 31
0.0
 11
200.258195
 21
215.593251
 31
0.0
 11
200.248258
 21
215.601437
 31
0.0
  0
LINE
  5
196
100
AcDbEntity
  8
0
 62
7
100
AcDbLine
 10
200.027249
 20
214.655550
 30
0.0
 11
200.027193
 21
214.655550
 31
0.0
  0
SPLINE
  5
197
100
AcDbEntity
  8
0
 62
7
100
AcDbSpline
 70
0
 71
3
 72
19
 73
15
 74
13
 40
0.000000
 40
0.000000
 40
0.000000
 40
0.000000
 40
0.028840
 40
0.074188
 40
0.138025
 40
0.249157
 40
0.317388
 40
0.370285
 40
0.444028
 40
0.530735
 40
0.629689
 40
0.677635
 40
0.708082
 40
0.729172
 40
0.729172
 40
0.729172
 40
0.729172
 10
200.027193
 20
214.655550
 30
0.0
 10
200.021043
 20
214.648007
 30
0.0
 10
200.005221
 20
214.628604
 30
0.0
 10
199.996749
 20
214.582036
 30
0.0
 10
199.988598
 20
214.508801
 30
0.0
 10
199.990364
 20
214.432028
 30
0.0
 10
200.020415
 20
214.343739
 30
0.0
 10
200.099405
 20
214.355528
 30
0.0
 10
200.134568
 20
214.424754
 30
0.0
 10
200.138023
 20
214.512006
 30
0.0
 10
200.110153
 20
214.588357
 30
0.0
 10
200.078264
 20
214.635554
 30
0.0
 10
200.051995
 20
214.662452
 30
0.0
 10
200.034435
 20
214.657554
 30
0.0
 10
200.027249
 20
214.655550
 30
0.0
 11
200.027193
 21
214.655550
 31
0.0
 11
200.010445
 21
214.632071
 31
0.0
 11
199.998343
 21
214.588368
 31
0.0
 11
199.991379
 21
214.524912
 31
0.0
 11
199.999085
 21
214.414047
 31
0.0
 11
200.033006
 21
214.354845
 31
0.0
 11
200.085641
 21
214.360100
 31
0.0
 11
200.127297
 21
214.420950
 31
0.0
 11
200.132490
 21
214.507501
 31
0.0
 11
200.100034
 21
214.600982
 31
0.0
 11
200.072647
 21
214.640335
 31
0.0
 11
200.048145
 21
214.658409
 31
0.0
 11
200.027249
 21
214.655550
 31
0.0
  0
LINE
  5
198
100
AcDbEntity
  8
0
 62
7
100
AcDbLine
 10
199.881679
 20
214.016692
 30
0.0
 11
199.881679
 21
214.016692
 31
0.0
  0
SPLINE
  5
199
100
AcDbEntity
  8
0
 62
7
100
AcDbSpline
 70
0
 71
3
 72
19
 73
15
 74
13
 40
0.000000
 40
0.000000
 40
0.000000
 40
0.000000
 40
0.033587
 40
0.102344
 40
0.212052
 40
0.349302
 40
0.414427
 40
0.472492
 40
0.578314
 40
0.690941
 40
0.796763
 40
0.818885
 40
0.835809
 40
0.848421
 40
0.848421
 40
0.848421
 40
0.848421
 10
199.881679
 20
214.016692
 30
0.0
 10
199.871069
 20
214.011713
 30
0.0
 10
199.838738
 20
213.996543
 30
0.0
 10
199.832187
 20
213.916461
 30
0.0
 10
199.824806
 20
213.812961
 30
0.0
 10
199.824625
 20
213.722032
 30
0.0
 10
199.864680
 20
213.607147
 30
0.0
 10
199.937595
 20
213.683046
 30
0.0
 10
199.952619
 20
213.767340
 30
0.0
 10
199.956460
 20
213.878296
 30
0.0
 10
199.932507
 20
213.957221
 30
0.0
 10
199.906138
 20
213.997520
 30
0.0
 10
199.894603
 20
214.010849
 30
0.0
 10
199.885546
 20
214.014943
 30
0.0
 10
199.881679
 20
214.016692
 30
0.0
 11
199.881679
 21
214.016692
 31
0.0
 11
199.852990
 21
213.999227
 31
0.0
 11
199.833651
 21
213.933246
 31
0.0
 11
199.826561
 21
213.823767
 31
0.0
 11
199.838953
 21
213.687077
 31
0.0
 11
199.871432
 21
213.630630
 31
0.0
 11
199.916957
 21
213.666671
 31
0.0
 11
199.950071
 21
213.767179
 31
0.0
 11
199.950071
 21
213.879806
 31
0.0
 11
199.916957
 21
213.980313
 31
0.0
 11
199.904675
 21
213.998713
 31
0.0
 11
199.892832
 21
214.010804
 31
0.0
 11
199.881679
 21
214.016692
 31
0.0
  0
LINE
  5
19a
100
AcDbEntity
  8
0
 62
7
100
AcDbLine
 10
199.669533
 20
213.273654
 30
0.0
 11
199.669476
 21
213.273654
 31
0.0
  0
SPLINE
  5
19b
100
AcDbEntity
  8
0
 62
7
100
AcDbSpline
 70
0
 71
3
 72
19
 73
15
 74
13
 40
0.000000
 40
0.000000
 40
0.000000
 40
0.000000
 40
0.028844
 40
0.074196
 40
0.138034
 40
0.249165
 40
0.317230
 40
0.369919
 40
0.443661
 40
0.530366
 40
0.629320
 40
0.677174
 40
0.707403
 40
0.728335
 40
0.728335
 40
0.728335
 40
0.728335
 10
199.669476
 20
213.273654
 30
0.0
 10
199.663323
 20
213.266112
 30
0.0
 10
199.647497
 20
213.246710
 30
0.0
 10
199.639011
 20
213.200145
 30
0.0
 10
199.630828
 20
213.126887
 30
0.0
 10
199.632750
 20
213.050292
 30
0.0
 10
199.662269
 20
212.961840
 30
0.0
 10
199.741165
 20
212.973703
 30
0.0
 10
199.776243
 20
213.042856
 30
0.0
 10
199.779734
 20
213.130110
 30
0.0
 10
199.751803
 20
213.206426
 30
0.0
 10
199.720101
 20
213.253554
 30
0.0
 10
199.694109
 20
213.280558
 30
0.0
 10
199.676668
 20
213.275659
 30
0.0
 10
199.669533
 20
213.273654
 30
0.0
 11
199.669476
 21
213.273654
 31
0.0
 11
199.652721
 21
213.250176
 31
0.0
 11
199.640606
 21
213.206472
 31
0.0
 11
199.633634
 21
213.143016
 31
0.0
 11
199.641319
 21
213.032151
 31
0.0
 11
199.674905
 21
212.972950
 31
0.0
 11
199.727332
 21
212.978204
 31
0.0
 11
199.768988
 21
213.039054
 31
0.0
 11
199.774181
 21
213.125603
 31
0.0
 11
199.741725
 21
213.219084
 31
0.0
 11
199.714498
 21
213.258437
 31
0.0
 11
199.690269
 21
213.276512
 31
0.0
 11
199.669533
 21
213.273654
 31
0.0
  0
LINE
  5
19c
100
AcDbEntity
  8
0
 62
7
100
AcDbLine
 10
199.490378
 20
212.645269
 30
0.0
 11
199.490322
 21
212.645269
 31
0.0
  0
SPLINE
  5
19d
100
AcDbEntity
  8
0
 62
7
100
AcDbSpline
 70
0
 71
3
 72
19
 73
15
 74
13
 40
0.000000
 40
0.000000
 40
0.000000
 40
0.000000
 40
0.028705
 40
0.073789
 40
0.137492
 40
0.248765
 40
0.317058
 40
0.369746
 40
0.443483
 40
0.530190
 40
0.629141
 40
0.677006
 40
0.707240
 40
0.728173
 40
0.728173
 40
0.728173
 40
0.728173
 10
199.490322
 20
212.645269
 30
0.0
 10
199.484182
 20
212.637775
 30
0.0
 10
199.468399
 20
212.618511
 30
0.0
 10
199.459947
 20
212.572122
 30
0.0
 10
199.451639
 20
212.498966
 30
0.0
 10
199.453706
 20
212.422311
 30
0.0
 10
199.483013
 20
212.333654
 30
0.0
 10
199.562053
 20
212.345240
 30
0.0
 10
199.597095
 20
212.414504
 30
0.0
 10
199.600602
 20
212.501712
 30
0.0
 10
199.572685
 20
212.578054
 30
0.0
 10
199.540955
 20
212.625167
 30
0.0
 10
199.514957
 20
212.652173
 30
0.0
 10
199.497514
 20
212.647274
 30
0.0
 10
199.490378
 20
212.645269
 30
0.0
 11
199.490322
 21
212.645269
 31
0.0
 11
199.473605
 21
212.621934
 31
0.0
 11
199.461535
 21
212.578496
 31
0.0
 11
199.454508
 21
212.515182
 31
0.0
 11
199.462186
 21
212.404174
 31
0.0
 11
199.495766
 21
212.344707
 31
0.0
 11
199.548205
 21
212.349817
 31
0.0
 11
199.589849
 21
212.410669
 31
0.0
 11
199.595048
 21
212.497220
 31
0.0
 11
199.562599
 21
212.590699
 31
0.0
 11
199.535352
 21
212.630052
 31
0.0
 11
199.511115
 21
212.648127
 31
0.0
 11
199.490378
 21
212.645269
 31
0.0
  0
LINE
  5
19e
100
AcDbEntity
  8
0
 62
7
100
AcDbLine
 10
199.311223
 20
212.142561
 30
0.0
 11
199.311167
 21
212.142561
 31
0.0
  0
LINE
  5
19f
100
AcDbEntity
  8
0
 62
7
100
AcDbLine
 10
72.528365
 20
205.554436
 30
0.0
 11
73.466528
 21
203.740385
 31
0.0
  0
SPLINE
  5
1a0
100
AcDbEntity
  8
0
 62
7
100
AcDbSpline
 70
0
 71
3
 72
19
 73
15
 74
13
 40
0.000000
 40
0.000000
 40
0.000000
 40
0.000000
 40
0.028724
 40
0.073816
 40
0.137512
 40
0.248634
 40
0.316730
 40
0.369482
 40
0.443224
 40
0.529929
 40
0.628883
 40
0.676628
 40
0.706699
 40
0.727665
 40
0.727665
 40
0.727665
 40
0.727665
 10
199.311167
 20
212.142561
 30
0.0
 10
199.305017
 20
212.135067
 30
0.0
 10
199.289213
 20
212.115810
 30
0.0
 10
199.280698
 20
212.069420
 30
0.0
 10
199.272585
 20
211.996308
 30
0.0
 10
199.274284
 20
211.919712
 30
0.0
 10
199.303943
 20
211.831294
 30
0.0
 10
199.382864
 20
211.843141
 30
0.0
 10
199.417966
 20
211.912312
 30
0.0
 10
199.421449
 20
211.999572
 30
0.0
 10
199.393542
 20
212.075835
 30
0.0
 10
199.361879
 20
212.122931
 30
0.0
 10
199.335721
 20
212.149628
 30
0.0
 10
199.318356
 20
212.144619
 30
0.0
 10
199.311223
 20
212.142561
 30
0.0
 11
199.311167
 21
212.142561
 31
0.0
 11
199.294419
 21
212.119225
 31
0.0
 11
199.282317
 21
212.075787
 31
0.0
 11
199.275353
 21
212.012474
 31
0.0
 11
199.282912
 21
211.901609
 31
0.0
 11
199.316561
 21
211.842407
 31
0.0
 11
199.369051
 21
211.847661
 31
0.0
 11
199.410707
 21
211.908511
 31
0.0
 11
199.415900
 21
211.995061
 31
0.0
 11
199.383444
 21
212.088541
 31
0.0
 11
199.356203
 21
212.127752
 31
0.0
 11
199.331973
 21
212.145561
 31
0.0
 11
199.311223
 21
212.142561
 31
0.0
  0
LINE
  5
1a1
100
AcDbEntity
  8
0
 62
7
100
AcDbLine
 10
77.722468
 20
197.387077
 30
0.0
 11
79.136316
 21
195.963289
 31
0.0
  0
LINE
  5
1a2
100
AcDbEntity
  8
0
 62
7
100
AcDbLine
 10
79.136316
 20
195.963289
 30
0.0
 11
76.026933
 21
193.855442
 31
0.0
  0
SPLINE
  5
1a3
100
AcDbEntity
  8
0
 62
7
100
AcDbSpline
 70
0
 71
3
 72
10
 73
6
 74
4
 40
0.000000
 40
0.000000
 40
0.000000
 40
0.000000
 40
3.137322
 40
5.541392
 40
7.676744
 40
7.676744
 40
7.676744
 40
7.676744
 10
73.466528
 20
203.740385
 30
0.0
 10
73.955387
 20
202.816223
 30
0.0
 10
74.818848
 20
201.183894
 30
0.0
 10
76.209436
 20
199.023273
 30
0.0
 10
77.238428
 20
197.910519
 30
0.0
 10
77.722468
 20
197.387077
 30
0.0
 11
73.466528
 21
203.740385
 31
0.0
 11
74.978082
 21
200.991204
 31
0.0
 11
76.316088
 21
198.993883
 31
0.0
 11
77.722468
 21
197.387077
 31
0.0
  0
LINE
  5
1a4
100
AcDbEntity
  8
0
 62
7
100
AcDbLine
 10
51.606442
 20
173.371180
 30
0.0
 11
50.940002
 21
174.815915
 31
0.0
  0
LINE
  5
1a5
100
AcDbEntity
  8
0
 62
7
100
AcDbLine
 10
50.940002
 20
174.815915
 30
0.0
 11
51.249233
 21
176.009297
 31
0.0
  0
SPLINE
  5
1a6
100
AcDbEntity
  8
0
 62
7
100
AcDbSpline
 70
0
 71
3
 72
19
 73
15
 74
13
 40
0.000000
 40
0.000000
 40
0.000000
 40
0.000000
 40
5.660765
 40
10.662920
 40
15.732366
 40
21.386588
 40
26.571431
 40
31.743478
 40
32.636020
 40
33.284048
 40
33.547554
 40
34.391394
 40
36.273206
 40
38.197526
 40
38.197526
 40
38.197526
 40
38.197526
 10
76.026933
 20
193.855442
 30
0.0
 10
74.476268
 20
192.779113
 30
0.0
 10
71.555352
 20
190.751682
 30
0.0
 10
67.519964
 20
187.390341
 30
0.0
 10
63.795414
 20
183.694557
 30
0.0
 10
60.268485
 20
179.733680
 30
0.0
 10
57.120167
 20
175.388619
 30
0.0
 10
55.277080
 20
172.172341
 30
0.0
 10
54.255971
 20
170.121136
 30
0.0
 10
53.979603
 20
169.648445
 30
0.0
 10
53.691600
 20
168.991052
 30
0.0
 10
53.133465
 20
170.657569
 30
0.0
 10
52.448606
 20
171.526403
 30
0.0
 10
51.889246
 20
172.751693
 30
0.0
 10
51.606442
 20
173.371180
 30
0.0
 11
76.026933
 21
193.855442
 31
0.0
 11
71.427318
 21
190.555775
 31
0.0
 11
67.586065
 21
187.351662
 31
0.0
 11
63.970202
 21
183.798520
 31
0.0
 11
60.238361
 21
179.550747
 31
0.0
 11
57.202774
 21
175.347437
 31
0.0
 11
54.627630
 21
170.862049
 31
0.0
 11
54.218221
 21
170.068944
 31
0.0
 11
53.915686
 21
169.495871
 31
0.0
 11
53.785395
 21
169.266830
 31
0.0
 11
53.337578
 21
169.982041
 31
0.0
 11
52.455164
 21
171.644137
 31
0.0
 11
51.606442
 21
173.371180
 31
0.0
  0
LINE
  5
1a7
100
AcDbEntity
  8
0
 62
7
100
AcDbLine
 10
70.877478
 20
204.241440
 30
0.0
 11
72.528365
 21
205.554436
 31
0.0
  0
LINE
  5
1a8
100
AcDbEntity
  8
0
 62
7
100
AcDbLine
 10
72.528365
 20
205.554436
 30
0.0
 11
72.528365
 21
205.554436
 31
0.0
  0
SPLINE
  5
1a9
100
AcDbEntity
  8
0
 62
7
100
AcDbSpline
 70
0
 71
3
 72
10
 73
6
 74
4
 40
0.000000
 40
0.000000
 40
0.000000
 40
0.000000
 40
10.911440
 40
22.482042
 40
34.918308
 40
34.918308
 40
34.918308
 40
34.918308
 10
51.249233
 20
176.009297
 30
0.0
 10
52.438977
 20
179.461018
 30
0.0
 10
54.890339
 20
186.572979
 30
0.0
 10
61.760192
 20
196.190316
 30
0.0
 10
67.766192
 20
201.493983
 30
0.0
 10
70.877478
 20
204.241440
 30
0.0
 11
51.249233
 21
176.009297
 31
0.0
 11
55.282927
 21
186.147780
 31
0.0
 11
61.887886
 21
195.647956
 31
0.0
 11
70.877478
 21
204.241440
 31
0.0
  0
LINE
  5
1aa
100
AcDbEntity
  8
0
 62
7
100
AcDbLine
 10
217.244414
 20
173.701910
 30
0.0
 11
217.507332
 21
172.462227
 31
0.0
  0
LINE
  5
1ab
100
AcDbEntity
  8
0
 62
7
100
AcDbLine
 10
217.507332
 20
172.462227
 30
0.0
 11
216.913677
 21
171.315149
 31
0.0
  0
SPLINE
  5
1ac
100
AcDbEntity
  8
0
 62
7
100
AcDbSpline
 70
0
 71
3
 72
19
 73
15
 74
13
 40
0.000000
 40
0.000000
 40
0.000000
 40
0.000000
 40
0.366305
 40
1.150591
 40
2.438303
 40
10.405200
 40
17.978435
 40
25.035119
 40
26.106660
 40
27.001724
 40
27.526455
 40
30.738064
 40
34.755850
 40
38.615470
 40
38.615470
 40
38.615470
 40
38.615470
 10
195.956476
 20
204.894078
 30
0.0
 10
196.070586
 20
204.849298
 30
0.0
 10
196.429015
 20
204.708640
 30
0.0
 10
197.061827
 20
204.182055
 30
0.0
 10
199.688993
 20
202.129002
 30
0.0
 10
203.814854
 20
198.286029
 30
0.0
 10
208.743978
 20
192.573502
 30
0.0
 10
211.570920
 20
188.141397
 30
0.0
 10
212.970423
 20
185.479256
 30
0.0
 10
213.359818
 20
184.745780
 30
0.0
 10
214.096855
 20
183.389030
 30
0.0
 10
215.094423
 20
180.997467
 30
0.0
 10
216.303230
 20
177.501436
 30
0.0
 10
216.934913
 20
174.951352
 30
0.0
 10
217.244414
 20
173.701910
 30
0.0
 11
195.956476
 21
204.894078
 31
0.0
 11
196.292744
 21
204.748809
 31
0.0
 11
196.931817
 21
204.294177
 31
0.0
 11
197.938099
 21
203.490686
 31
0.0
 11
203.800902
 21
198.096338
 31
0.0
 11
208.707329
 21
192.327381
 31
0.0
 11
212.495686
 21
186.373798
 31
0.0
 11
212.998495
 21
185.427552
 31
0.0
 11
213.419303
 21
184.637577
 31
0.0
 11
213.667021
 21
184.174999
 31
0.0
 11
214.962687
 21
181.236346
 31
0.0
 11
216.261413
 21
177.434252
 31
0.0
 11
217.244414
 21
173.701910
 31
0.0
  0
LINE
  5
1ad
100
AcDbEntity
  8
0
 62
7
100
AcDbLine
 10
193.044422
 20
193.071064
 30
0.0
 11
189.584971
 21
195.496411
 31
0.0
  0
LINE
  5
1ae
100
AcDbEntity
  8
0
 62
7
100
AcDbLine
 10
189.584971
 20
195.496411
 30
0.0
 11
190.656004
 21
196.530491
 31
0.0
  0
SPLINE
  5
1af
100
AcDbEntity
  8
0
 62
7
100
AcDbSpline
 70
0
 71
3
 72
22
 73
18
 74
16
 40
0.000000
 40
0.000000
 40
0.000000
 40
0.000000
 40
0.843547
 40
1.813224
 40
2.699216
 40
3.414185
 40
3.935908
 40
4.153722
 40
4.407027
 40
5.025870
 40
5.878496
 40
10.372444
 40
15.273321
 40
20.080280
 40
25.947123
 40
31.662018
 40
38.012907
 40
38.012907
 40
38.012907
 40
38.012907
 10
216.913677
 20
171.315149
 30
0.0
 10
216.782908
 20
171.066476
 30
0.0
 10
216.501817
 20
170.531949
 30
0.0
 10
216.069946
 20
169.738137
 30
0.0
 10
215.659069
 20
169.001215
 30
0.0
 10
215.292814
 20
168.354095
 30
0.0
 10
215.055489
 20
168.021961
 30
0.0
 10
214.827686
 20
167.620446
 30
0.0
 10
214.634889
 20
168.115081
 30
0.0
 10
214.389231
 20
168.517084
 30
0.0
 10
213.565249
 20
170.435340
 30
0.0
 10
211.991487
 20
173.371686
 30
0.0
 10
209.410418
 20
177.388330
 30
0.0
 10
206.217536
 20
181.477964
 30
0.0
 10
202.484134
 20
185.480007
 30
0.0
 10
198.025683
 20
189.476586
 30
0.0
 10
194.762183
 20
191.831528
 30
0.0
 10
193.044422
 20
193.071064
 30
0.0
 11
216.913677
 21
171.315149
 31
0.0
 11
216.519417
 21
170.569407
 31
0.0
 11
216.056640
 21
169.717286
 31
0.0
 11
215.625502
 21
168.943268
 31
0.0
 11
215.263347
 21
168.326807
 31
0.0
 11
214.981507
 21
167.887762
 31
0.0
 11
214.841122
 21
167.721224
 31
0.0
 11
214.702082
 21
167.932957
 31
0.0
 11
214.423648
 21
168.485625
 31
0.0
 11
214.066112
 21
169.259665
 31
0.0
 11
211.993433
 21
173.247092
 31
0.0
 11
209.335795
 21
177.364805
 31
0.0
 11
206.385462
 21
181.159853
 31
0.0
 11
202.387648
 21
185.453724
 31
0.0
 11
198.124652
 21
189.259889
 31
0.0
 11
193.044422
 21
193.071064
 31
0.0
  0
LINE
  5
1b0
100
AcDbEntity
  8
0
 62
7
100
AcDbLine
 10
195.956476
 20
204.894078
 30
0.0
 11
195.956476
 21
204.894078
 31
0.0
  0
SPLINE
  5
1b1
100
AcDbEntity
  8
0
 62
7
100
AcDbSpline
 70
0
 71
3
 72
16
 73
12
 74
10
 40
0.000000
 40
0.000000
 40
0.000000
 40
0.000000
 40
1.055596
 40
2.279201
 40
3.618004
 40
6.124025
 40
8.562831
 40
9.782220
 40
9.852015
 40
9.904801
 40
9.962407
 40
9.962407
 40
9.962407
 40
9.962407
 10
190.656004
 20
196.530491
 30
0.0
 10
190.899521
 20
196.784753
 30
0.0
 10
191.425313
 20
197.333745
 30
0.0
 10
192.157603
 20
198.295461
 30
0.0
 10
193.091730
 20
199.700559
 30
0.0
 10
194.193585
 20
201.501834
 30
0.0
 10
195.043023
 20
203.325275
 30
0.0
 10
195.851930
 20
204.381942
 30
0.0
 10
195.860383
 20
204.834125
 30
0.0
 10
195.897948
 20
204.888955
 30
0.0
 10
195.936407
 20
204.892322
 30
0.0
 10
195.956476
 20
204.894078
 30
0.0
 11
190.656004
 21
196.530491
 31
0.0
 11
191.372724
 21
197.305471
 31
0.0
 11
192.123712
 21
198.271508
 31
0.0
 11
192.872436
 21
199.381375
 31
0.0
 11
194.157679
 21
201.532722
 31
0.0
 11
195.339798
 21
203.665881
 31
0.0
 11
195.858376
 21
204.769506
 31
0.0
 11
195.868525
 21
204.838559
 31
0.0
 11
195.900475
 21
204.880578
 31
0.0
 11
195.956476
 21
204.894078
 31
0.0
  0
SPLINE
  5
1b2
100
AcDbEntity
  8
0
 62
7
100
AcDbSpline
 70
0
 71
3
 72
10
 73
6
 74
4
 40
0.000000
 40
0.000000
 40
0.000000
 40
0.000000
 40
0.627735
 40
1.255451
 40
1.883186
 40
1.883186
 40
1.883186
 40
1.883186
 10
174.228131
 20
180.201841
 30
0.0
 10
174.239490
 20
179.992902
 30
0.0
 10
174.262208
 20
179.575030
 30
0.0
 10
174.284441
 20
178.947643
 30
0.0
 10
174.291360
 20
178.529211
 30
0.0
 10
174.294820
 20
178.319992
 30
0.0
 11
174.228131
 21
180.201841
 31
0.0
 11
174.260234
 21
179.574927
 31
0.0
 11
174.282465
 21
178.947605
 31
0.0
 11
174.294820
 21
178.319992
 31
0.0
  0
SPLINE
  5
1b3
100
AcDbEntity
  8
0
 62
7
100
AcDbSpline
 70
0
 71
3
 72
10
 73
6
 74
4
 40
0.000000
 40
0.000000
 40
0.000000
 40
0.000000
 40
2.187179
 40
4.373536
 40
6.560715
 40
6.560715
 40
6.560715
 40
6.560715
 10
174.294820
 20
178.319992
 30
0.0
 10
174.277724
 20
177.591015
 30
0.0
 10
174.243538
 20
176.133336
 30
0.0
 10
174.048386
 20
173.952955
 30
0.0
 10
173.823166
 20
172.512375
 30
0.0
 10
173.710535
 20
171.791949
 30
0.0
 11
174.294820
 21
178.319992
 31
0.0
 11
174.219546
 21
176.134109
 31
0.0
 11
174.024637
 21
173.956456
 31
0.0
 11
173.710535
 21
171.791949
 31
0.0
  0
LINE
  5
1b4
100
AcDbEntity
  8
0
 62
7
100
AcDbLine
 10
201.075620
 20
155.332661
 30
0.0
 11
202.622339
 21
153.904462
 31
0.0
  0
LINE
  5
1b5
100
AcDbEntity
  8
0
 62
7
100
AcDbLine
 10
202.622339
 20
153.904462
 30
0.0
 11
204.041155
 21
155.189343
 31
0.0
  0
SPLINE
  5
1b6
100
AcDbEntity
  8
0
 62
7
100
AcDbSpline
 70
0
 71
3
 72
13
 73
9
 74
7
 40
0.000000
 40
0.000000
 40
0.000000
 40
0.000000
 40
5.300462
 40
10.665207
 40
15.811538
 40
21.111577
 40
26.852977
 40
32.119720
 40
32.119720
 40
32.119720
 40
32.119720
 10
173.710535
 20
171.791949
 30
0.0
 10
175.351370
 20
171.135476
 30
0.0
 10
178.652939
 20
169.814570
 30
0.0
 10
183.408180
 20
167.535395
 30
0.0
 10
188.061755
 20
165.052388
 30
0.0
 10
192.584935
 20
162.101749
 30
0.0
 10
196.978141
 20
158.891207
 30
0.0
 10
199.749628
 20
156.484248
 30
0.0
 10
201.075620
 20
155.332661
 30
0.0
 11
173.710535
 21
171.791949
 31
0.0
 11
178.609806
 21
169.769071
 31
0.0
 11
183.456283
 21
167.468602
 31
0.0
 11
187.978731
 21
165.012551
 31
0.0
 11
192.436085
 21
162.145078
 31
0.0
 11
197.053246
 21
158.732526
 31
0.0
 11
201.075620
 21
155.332661
 31
0.0
  0
LINE
  5
1b7
100
AcDbEntity
  8
0
 62
7
100
AcDbLine
 10
174.228131
 20
180.201841
 30
0.0
 11
174.228131
 21
180.201841
 31
0.0
  0
SPLINE
  5
1b8
100
AcDbEntity
  8
0
 62
7
100
AcDbSpline
 70
0
 71
3
 72
19
 73
15
 74
13
 40
0.000000
 40
0.000000
 40
0.000000
 40
0.000000
 40
2.151228
 40
3.396477
 40
3.871196
 40
6.307153
 40
11.149518
 40
15.888682
 40
20.407008
 40
25.483114
 40
30.466536
 40
34.603911
 40
39.173385
 40
43.762991
 40
43.762991
 40
43.762991
 40
43.762991
 10
204.041155
 20
155.189343
 30
0.0
 10
204.572852
 20
155.678419
 30
0.0
 10
205.412325
 20
156.450598
 30
0.0
 10
206.334484
 20
157.301032
 30
0.0
 10
207.277203
 20
158.458942
 30
0.0
 10
204.032051
 20
160.437367
 30
0.0
 10
202.114220
 20
163.229244
 30
0.0
 10
198.386637
 20
166.449584
 30
0.0
 10
194.637047
 20
169.321022
 30
0.0
 10
190.589106
 20
172.043507
 30
0.0
 10
186.550886
 20
174.508424
 30
0.0
 10
182.493165
 20
176.603658
 30
0.0
 10
178.473605
 20
178.474182
 30
0.0
 10
175.645361
 20
179.625111
 30
0.0
 10
174.228131
 20
180.201841
 30
0.0
 11
204.041155
 21
155.189343
 31
0.0
 11
205.624053
 21
156.646127
 31
0.0
 11
206.507779
 21
157.523437
 31
0.0
 11
206.782351
 21
157.910694
 31
0.0
 11
205.250430
 21
159.804659
 31
0.0
 11
201.841317
 21
163.243620
 31
0.0
 11
198.334988
 21
166.431931
 31
0.0
 11
194.748737
 21
169.180398
 31
0.0
 11
190.546038
 21
172.027182
 31
0.0
 11
186.277693
 21
174.599287
 31
0.0
 11
182.609621
 21
176.513213
 31
0.0
 11
178.464900
 21
178.437112
 31
0.0
 11
174.228131
 21
180.201841
 31
0.0
  0
LINE
  5
1b9
100
AcDbEntity
  8
0
 62
7
100
AcDbLine
 10
214.005942
 20
166.413730
 30
0.0
 11
214.006026
 21
166.413742
 31
0.0
  0
SPLINE
  5
1ba
100
AcDbEntity
  8
0
 62
7
100
AcDbSpline
 70
0
 71
3
 72
19
 73
15
 74
13
 40
0.000000
 40
0.000000
 40
0.000000
 40
0.000000
 40
0.037638
 40
0.083436
 40
0.160895
 40
0.356657
 40
0.453788
 40
0.568819
 40
0.642996
 40
0.737640
 40
0.842341
 40
0.867866
 40
0.889292
 40
0.907040
 40
0.907040
 40
0.907040
 40
0.907040
 10
214.006026
 20
166.413742
 30
0.0
 10
214.019518
 20
166.409961
 30
0.0
 10
214.049425
 20
166.401580
 30
0.0
 10
214.044269
 20
166.336825
 30
0.0
 10
213.996208
 20
166.246534
 30
0.0
 10
213.943461
 20
166.137996
 30
0.0
 10
213.784727
 20
166.061507
 30
0.0
 10
213.755247
 20
166.195135
 30
0.0
 10
213.789589
 20
166.280622
 30
0.0
 10
213.854811
 20
166.348503
 30
0.0
 10
213.918899
 20
166.388529
 30
0.0
 10
213.966068
 20
166.406757
 30
0.0
 10
213.986948
 20
166.412680
 30
0.0
 10
214.000020
 20
166.413403
 30
0.0
 10
214.005942
 20
166.413730
 30
0.0
 11
214.006026
 21
166.413742
 31
0.0
 11
214.039870
 21
166.397272
 31
0.0
 11
214.043265
 21
166.351600
 31
0.0
 11
214.014211
 21
166.279796
 31
0.0
 11
213.897135
 21
166.122902
 31
0.0
 11
213.804417
 21
166.093954
 31
0.0
 11
213.766702
 21
166.202625
 31
0.0
 11
213.790942
 21
166.272731
 31
0.0
 11
213.854504
 21
166.342853
 31
0.0
 11
213.943655
 21
166.397757
 31
0.0
 11
213.967505
 21
166.406852
 31
0.0
 11
213.988263
 21
166.412160
 31
0.0
 11
214.005942
 21
166.413730
 31
0.0
  0
ENDSEC
  0
SECTION
  2
OBJECTS
  0
DICTIONARY
  5
C
330
0
100
AcDbDictionary
  3
ACAD_GROUP
350
D
  3
ACAD_MLINESTYLE
350
17
  0
DICTIONARY
  5
D
330
C
100
AcDbDictionary
  0
DICTIONARY
  5
1A
330
C
100
AcDbDictionary
  0
DICTIONARY
  5
17
330
C
100
AcDbDictionary
  3
STANDARD
350
18
  0
DICTIONARY
  5
19
330
C
100
AcDbDictionary
  0
ENDSEC
  0
EOF
