<?xml version="1.0" encoding="UTF-8" standalone="no"?>
<svg
   xmlns:dc="http://purl.org/dc/elements/1.1/"
   xmlns:cc="http://creativecommons.org/ns#"
   xmlns:rdf="http://www.w3.org/1999/02/22-rdf-syntax-ns#"
   xmlns:svg="http://www.w3.org/2000/svg"
   xmlns="http://www.w3.org/2000/svg"
   xmlns:sodipodi="http://sodipodi.sourceforge.net/DTD/sodipodi-0.dtd"
   xmlns:inkscape="http://www.inkscape.org/namespaces/inkscape"
   width="744.094488189"
   height="1052.36220472"
   id="svg2"
   version="1.1"
   inkscape:version="0.91 r13725"
   sodipodi:docname="Alce-Breakers.svg">
  <metadata
     id="metadata90">
    <rdf:RDF>
      <cc:Work
         rdf:about="">
        <dc:format>image/svg+xml</dc:format>
        <dc:type
           rdf:resource="http://purl.org/dc/dcmitype/StillImage" />
        <dc:title></dc:title>
      </cc:Work>
    </rdf:RDF>
  </metadata>
  <sodipodi:namedview
     pagecolor="#ffffff"
     bordercolor="#666666"
     borderopacity="1"
     objecttolerance="10"
     gridtolerance="10"
     guidetolerance="10"
     inkscape:pageopacity="0"
     inkscape:pageshadow="2"
     inkscape:window-width="640"
     inkscape:window-height="480"
     id="namedview88"
     showgrid="false"
     inkscape:zoom="0.22425739"
     inkscape:cx="294.01191"
     inkscape:cy="526.18109"
     inkscape:window-x="0"
     inkscape:window-y="24"
     inkscape:window-maximized="0"
     inkscape:current-layer="g22" />
  <desc
     id="desc4">/media/hua/BREAKERS17/Diseños finales Breakers primavera 2017/Alce-Breakers.dxf - scale = 1.000000, origin = (0.000000, 0.000000), auto = True</desc>
  <defs
     id="defs6">
    <marker
       id="DistanceX"
       orient="auto"
       refX="0.0"
       refY="0.0"
       style="overflow:visible">
      <path
         d="M 3,-3 L -3,3 M 0,-5 L  0,5"
         style="stroke:#000000; stroke-width:0.5"
         id="path9" />
    </marker>
    <pattern
       height="8"
       id="Hatch"
       patternUnits="userSpaceOnUse"
       width="8"
       x="0"
       y="0">
      <path
         d="M8 4 l-4,4"
         linecap="square"
         stroke="#000000"
         stroke-width="0.25"
         id="path12" />
      <path
         d="M6 2 l-4,4"
         linecap="square"
         stroke="#000000"
         stroke-width="0.25"
         id="path14" />
      <path
         d="M4 0 l-4,4"
         linecap="square"
         stroke="#000000"
         stroke-width="0.25"
         id="path16" />
    </pattern>
    <symbol
       id="*MODEL_SPACE" />
    <symbol
       id="*PAPER_SPACE" />
  </defs>
  <g
     inkscape:groupmode="layer"
     inkscape:label="0"
     id="g20" />
  <g
     inkscape:groupmode="layer"
     inkscape:label="Capa_1"
     id="g22">
    <path
       d="m 142.58402,699.32118 -0.81956,1.48038"
       style="fill:none;stroke:#000000;stroke-width:2.61995578"
       id="path24"
       inkscape:connector-curvature="0" />
    <path
       d="m 141.76446,700.80156 -2.90967,0"
       style="fill:none;stroke:#000000;stroke-width:2.61995578"
       id="path26"
       inkscape:connector-curvature="0" />
    <path
       d="m 348.61485,584.67079 c -0.0724,0.003 -0.14488,0.007 -0.21704,0.013 -0.0714,0.006 -0.14254,0.0159 -0.21336,0.0276 -0.0704,0.0117 -0.14045,0.0255 -0.20949,0.0428 -0.44902,0.11262 -0.85457,0.37286 -1.21804,0.67097 -0.45271,0.37129 -0.84016,0.80132 -1.17613,1.27144 -0.35575,0.49781 -0.65377,1.04058 -0.88762,1.60495 -0.61405,1.48195 -0.78567,3.11288 -0.88532,4.73384 -0.1667,2.71155 -0.13203,5.3952 -0.0408,8.05596 0.13792,4.02258 0.40509,7.99287 0.79987,12.15299 0.26936,2.83837 0.59811,5.76512 0.53965,8.29214 -0.0501,2.16433 -0.38418,4.03545 0.21589,7.11375 0.27995,1.43617 0.76325,3.1351 -0.18752,3.31512 -0.20044,0.038 -0.46461,0.008 -0.69677,-0.0672 -0.52616,-0.17142 -0.88781,-0.57952 -1.25388,-0.97205 -0.53499,-0.57365 -1.07941,-1.11405 -1.57919,-1.69775 -0.8407,-0.98186 -1.55508,-2.08625 -2.19589,-3.22348 -0.87971,-1.56119 -1.62079,-3.18428 -2.31736,-4.82697 -1.04256,-2.45864 -1.98541,-4.96119 -2.93248,-7.45822 -0.55141,-1.45387 -1.10427,-2.90586 -1.67022,-4.35689 -0.48413,-1.24123 -0.97784,-2.48175 -1.49513,-3.70081 -0.31814,-0.74974 -0.6452,-1.49137 -0.99628,-2.24355 -1.05754,-2.26581 -2.33299,-4.62746 -4.66634,-5.73635 -1.39818,-0.66446 -3.17622,-0.8791 -4.4235,-0.25758 -1.6872,0.84074 -2.40323,3.21148 -2.79575,5.30184 -0.25814,1.37474 -0.37637,2.6282 -0.44741,3.91638 -0.10507,1.90518 -0.10693,3.88627 -0.0844,5.8293 0.0349,3.00845 0.12844,5.92567 0.26052,9.02287 0.1308,3.06702 0.29943,6.31054 0.24835,8.93522 -0.0326,1.67615 -0.15484,3.09992 -0.0623,5.70797 0.0368,1.03592 0.10745,2.25869 -0.37031,2.2369 -0.23988,-0.0109 -0.61799,-0.3356 -0.93032,-0.65605 -0.78883,-0.80932 -1.15803,-1.59176 -1.56618,-2.41104 -0.57925,-1.16271 -1.23696,-2.39962 -1.8564,-3.63347 -1.20107,-2.39242 -2.25826,-4.77335 -3.53147,-7.07955 -0.83937,-1.52037 -1.77263,-3.00826 -2.91404,-4.32567 -0.90362,-1.04295 -1.93769,-1.97904 -3.08568,-2.74364 -0.70629,-0.47041 -1.4557,-0.87591 -2.22164,-1.23197 -0.79414,-0.36917 -1.60605,-0.6852 -2.44842,-0.97092 -0.61382,-0.20821 -1.24381,-0.40032 -1.87842,-0.39387 -0.49233,0.005 -0.98745,0.1295 -1.45836,0.30041 -0.55198,0.20034 -1.07071,0.46442 -1.56062,0.78139 -0.4757,0.30776 -0.92424,0.66537 -1.30379,1.08255 -0.49589,0.54502 -0.87403,1.19171 -1.21171,1.85297 -0.51407,1.00669 -0.93435,2.04714 -1.32192,3.1005 -0.56632,1.53916 -1.06279,3.10587 -1.56888,4.66845 -0.46306,1.42973 -0.93418,2.85599 -1.45019,4.26657 -0.47158,1.28912 -0.98066,2.56513 -1.5346,3.82166 -0.48143,1.09204 -0.99674,2.16936 -1.55709,3.22274 -0.92612,1.74098 -1.97525,3.41655 -3.09835,5.03922 -1.09362,1.58009 -2.25737,3.11003 -3.51884,4.56053 -1.08819,1.25125 -2.24909,2.44338 -3.50634,3.52084 -2.47378,2.12003 -5.32057,3.79609 -8.27356,5.2095 -3.56524,1.70645 -7.28529,3.03002 -11.07615,4.08131 -4.58037,1.27024 -9.26412,2.14297 -13.94801,2.97888 -0.74205,0.13243 -1.4841,0.26393 -2.22934,0.36824 -0.54866,0.0768 -1.09904,0.13885 -1.63624,0.29989 -0.22892,0.0686 -0.45544,0.15522 -0.68901,0.16653 -0.14062,0.007 -0.28379,-0.0137 -0.42488,-0.0398 -0.3219,-0.0595 -0.63291,-0.14828 -0.94334,-0.24107 -0.41978,-0.12548 -0.83848,-0.25834 -1.25744,-0.39038 -2.23139,-0.70324 -4.4699,-1.38301 -6.74313,-1.92496 -2.24158,-0.5344 -4.51692,-0.93479 -6.80309,-1.23848 -2.51528,-0.33413 -5.04367,-0.55121 -7.57728,-0.68185 -3.32058,-0.17122 -6.65011,-0.19396 -9.97103,-0.002 -3.15461,0.1826 -6.30146,0.55918 -9.40008,1.16262 -3.12543,0.60867 -6.20179,1.44815 -9.25259,2.37951 -0.64308,0.19632 -1.28502,0.39673 -1.92889,0.57865 -0.4863,0.1374 -0.97371,0.26427 -1.47719,0.36244 -0.23466,0.0458 -0.47281,0.0853 -0.70569,0.0675 -0.26604,-0.0204 -0.52519,-0.11555 -0.78702,-0.19103 -0.55587,-0.16025 -1.12377,-0.23162 -1.69034,-0.31491 -0.74421,-0.10941 -1.48613,-0.23936 -2.22794,-0.37046 -4.00091,-0.70709 -7.99854,-1.44759 -11.93155,-2.45382 -3.39663,-0.86901 -6.74507,-1.9362 -10.00436,-3.2532 -2.71071,-1.09534 -5.35975,-2.36346 -7.80067,-3.96243 -2.75543,-1.805 -5.24565,-4.03159 -7.41725,-6.52177 -2.39401,-2.74522 -4.4008,-5.81077 -6.07473,-9.03611 -1.90341,-3.66751 -3.37646,-7.54161 -4.67429,-11.46464 -0.51626,-1.56055 -1.0048,-3.12885 -1.56892,-4.66845 -0.38607,-1.05366 -0.80754,-2.09387 -1.32193,-3.1005 -0.33788,-0.66121 -0.71586,-1.30793 -1.21168,-1.85297 -0.37952,-0.41718 -0.82808,-0.77479 -1.30378,-1.08255 -0.48992,-0.31696 -1.00863,-0.58105 -1.5606,-0.78138 -0.47091,-0.17092 -0.96603,-0.29542 -1.45837,-0.30042 -0.63461,-0.006 -1.26461,0.18566 -1.87843,0.39386 -0.84237,0.28573 -1.65429,0.60176 -2.44843,0.97093 -0.76594,0.35606 -1.51535,0.76155 -2.22164,1.23197 -1.14798,0.76459 -2.18205,1.70069 -3.08567,2.74364 -1.14141,1.31741 -2.07468,2.8053 -2.91404,4.32567 -1.27319,2.30621 -2.33033,4.68716 -3.53146,7.07955 -0.61949,1.23388 -1.27728,2.47081 -1.85671,3.63347 -0.40832,0.81931 -0.77771,1.60173 -1.566738,2.41104 -0.312445,0.32048 -0.690691,0.64517 -0.930624,0.65605 -0.47778,0.0217 -0.407112,-1.20102 -0.370336,-2.2369 0.09259,-2.60794 -0.02967,-4.03178 -0.06229,-5.70797 -0.05109,-2.62474 0.117578,-5.86821 0.248413,-8.93521 0.132122,-3.09719 0.225665,-6.01443 0.260827,-9.02288 0.02271,-1.94303 0.02107,-3.92411 -0.0838,-5.82931 -0.07091,-1.28817 -0.189012,-2.54165 -0.447132,-3.91636 -0.392504,-2.09039 -1.108763,-4.46107 -2.796036,-5.30184 -1.247465,-0.62162 -3.025705,-0.40697 -4.42406,0.25758 -2.333393,1.1089 -3.609007,3.47051 -4.666628,5.73634 -0.351095,0.75218 -0.678166,1.4938 -0.996317,2.24355 -0.517295,1.21905 -1.011005,2.45958 -1.495125,3.70081 -0.56595,1.45103 -1.118792,2.90302 -1.670212,4.35689 -0.947067,2.49703 -1.889934,4.99958 -2.93249,7.45821 -0.696565,1.6427 -1.437628,3.26579 -2.317346,4.82698 -0.640817,1.13723 -1.355209,2.24162 -2.195892,3.22349 -0.499723,0.58364 -1.044068,1.124 -1.578914,1.69775 -0.36589,0.3925 -0.727331,0.80064 -1.253311,0.97204 -0.232034,0.0756 -0.496089,0.10516 -0.696455,0.0672 -0.950855,-0.17992 -0.4675,-1.87891 -0.187505,-3.31512 0.600145,-3.07838 0.266015,-4.94945 0.215918,-7.11375 -0.05849,-2.52698 0.27022,-5.45371 0.539604,-8.29214 0.394827,-4.16021 0.662204,-8.13073 0.799776,-12.15298 0.091,-2.66055 0.125199,-5.34374 -0.04085,-8.05597 -0.09927,-1.62138 -0.2701,-3.25313 -0.885417,-4.73384 -0.234332,-0.5639 -0.533127,-1.1059 -0.887639,-1.60495 -0.334783,-0.47129 -0.719251,-0.90428 -1.176116,-1.27145 -0.36681,-0.29479 -0.780286,-0.54714 -1.218007,-0.67097 -1.025286,-0.29004 -2.183579,0.1251 -3.18692,0.67311 -1.545074,0.84391 -2.722702,2.00294 -3.823846,3.24614 -1.543825,1.743 -2.937312,3.65146 -4.226807,5.62037 -3.311603,5.05643 -5.937352,10.51147 -8.110215,16.1367 -2.223326,5.75588 -3.972484,11.68994 -5.134707,17.7519 -1.065869,5.5594 -1.638083,11.22637 -1.441361,16.88614 0.156566,4.50451 0.800197,9.00445 2.157846,13.3145 1.181073,3.74949 2.902515,7.35526 5.269491,10.4842 2.297444,3.03702 5.203054,5.6248 8.399633,7.69165 3.76281,2.43297 7.928802,4.14412 12.129149,5.71172 5.739988,2.1422 11.544128,4.01633 17.423317,5.66438 6.645188,1.86277 13.386252,3.43669 20.148322,4.78178 4.0767,0.81092 8.16103,1.53867 12.3063,2.10104 4.39488,0.59624 8.85825,1.0066 13.10871,1.83212 2.68833,0.52213 5.29149,1.21034 8.3348,0.78389 0.52234,-0.0732 1.05764,-0.17923 1.43257,0.11083 0.16468,0.1274 0.29842,0.33122 0.34226,0.53024 0.0948,0.43038 -0.23083,0.8383 -0.55648,1.24622"
       style="fill:none;stroke:#000000;stroke-width:2.61995578"
       id="path28"
       inkscape:connector-curvature="0" />
    <path
       d="m 115.81857,746.51031 2.36599,0.18422"
       style="fill:none;stroke:#000000;stroke-width:2.61995578"
       id="path30"
       inkscape:connector-curvature="0" />
    <path
       d="m 118.18456,746.69453 -2.13646,4.24641"
       style="fill:none;stroke:#000000;stroke-width:2.61995578"
       id="path32"
       inkscape:connector-curvature="0" />
    <path
       d="m 138.85479,700.80156 c -3.11853,0.40387 -6.23704,0.80774 -9.15033,1.83368 -3.40369,1.19865 -6.52724,3.24644 -9.41113,5.50546 -3.52993,2.76509 -6.7008,5.84665 -9.68318,9.18391 -2.17059,2.42887 -4.24133,4.99319 -6.0332,7.61209 -1.71987,2.51368 -3.18282,5.07765 -5.15358,7.76888 -1.109433,1.51502 -2.379795,3.07037 -2.182609,4.77288 0.0653,0.56382 0.291562,1.14379 0.627495,1.62086 0.53822,0.76434 1.357973,1.26455 2.173134,1.74129 1.37763,0.80569 2.74215,1.54436 4.15474,2.21045 1.28749,0.60709 2.61491,1.15387 3.96292,1.64131 1.33428,0.48247 2.68873,0.90678 4.06926,1.21118 1.18396,0.26106 2.38711,0.43391 3.59026,0.60676"
       style="fill:none;stroke:#000000;stroke-width:2.61995578"
       id="path34"
       inkscape:connector-curvature="0" />
    <path
       d="m 116.0481,750.94094 c -3.5789,8.10522 -7.1578,16.21046 -9.9388,24.60911 -2.83875,8.57308 -4.84612,17.4519 -6.05397,26.40643 -1.234749,9.15388 -1.633993,18.38688 -2.033248,27.61988"
       style="fill:none;stroke:#000000;stroke-width:2.61995578"
       id="path36"
       inkscape:connector-curvature="0" />
    <path
       d="m 152.22766,985.70185 0,10e-4"
       style="fill:none;stroke:#000000;stroke-width:2.61995578"
       id="path38"
       inkscape:connector-curvature="0" />
    <path
       d="m 98.022082,829.57636 c 0.930299,14.16975 1.860593,28.3395 4.923928,42.12844 2.92812,13.18029 7.80512,26.01264 14.0527,38.02965 5.90835,11.36449 13.04249,21.99978 22.19575,31.26373 0.51002,0.5162 1.02632,1.02814 1.46974,1.55054 0.32236,0.37979 0.60621,0.76512 1.0482,1.14617 0.18075,0.15584 0.38796,0.31096 0.39981,0.49359 0.009,0.14157 -0.099,0.29967 -0.19154,0.4536 -0.21731,0.3615 -0.34827,0.70005 -0.50221,1.04156 -0.20912,0.46395 -0.46065,0.93337 -0.70428,1.40418 -1.07234,2.0723 -1.9917,4.17162 -2.7665,6.33684 -0.75064,2.09769 -1.36559,4.25723 -1.82975,6.44405 -0.49163,2.3162 -0.81411,4.66302 -1.02601,7.02055 -0.16947,1.8855 -0.26821,3.77786 -0.13814,5.67286 0.0987,1.43787 0.32912,2.87726 0.82721,4.22549 0.43848,1.18688 1.08441,2.30312 1.89138,3.28483 0.92564,1.12609 2.06319,2.07515 3.31712,2.81086 1.455,0.85369 3.0667,1.4201 4.70547,1.81982 2.14662,0.52359 4.33966,0.76116 6.5327,0.99873"
       style="fill:none;stroke:#000000;stroke-width:2.61995578"
       id="path40"
       inkscape:connector-curvature="0" />
    <path
       d="m 203.21521,974.3758 0.40572,-1.80961"
       style="fill:none;stroke:#000000;stroke-width:2.61995578"
       id="path42"
       inkscape:connector-curvature="0" />
    <path
       d="m 203.62093,972.56619 5.38577,0"
       style="fill:none;stroke:#000000;stroke-width:2.61995578"
       id="path44"
       inkscape:connector-curvature="0" />
    <path
       d="m 209.0067,972.56619 5.38578,0"
       style="fill:none;stroke:#000000;stroke-width:2.61995578"
       id="path46"
       inkscape:connector-curvature="0" />
    <path
       d="m 214.39248,972.56619 0.41615,1.94178"
       style="fill:none;stroke:#000000;stroke-width:2.61995578"
       id="path48"
       inkscape:connector-curvature="0" />
    <path
       d="m 152.22766,985.70301 c 3.37326,0.0835 6.74652,0.16701 10.11775,0.18411 4.93185,0.025 9.85934,-0.0921 14.80325,-0.1432 3.2006,-0.0331 6.40807,-0.0385 9.57649,-0.37476 2.86146,-0.30367 5.69107,-0.87715 8.42373,-1.98885 2.04454,-0.83175 4.03482,-1.96479 5.38814,-3.59216 1.26198,-1.51754 1.97009,-3.46494 2.67819,-5.41235"
       style="fill:none;stroke:#000000;stroke-width:2.61995578"
       id="path50"
       inkscape:connector-curvature="0" />
    <path
       d="m 276.30346,945.28658 -1.13605,-1.8525"
       style="fill:none;stroke:#000000;stroke-width:2.61995578"
       id="path52"
       inkscape:connector-curvature="0" />
    <path
       d="m 275.16741,943.43408 0.58541,-0.61441"
       style="fill:none;stroke:#000000;stroke-width:2.61995578"
       id="path54"
       inkscape:connector-curvature="0" />
    <path
       d="m 214.80863,974.50797 c 0.70664,1.93601 1.41327,3.87202 2.67617,5.36392 1.39063,1.6428 3.45572,2.74712 5.55866,3.55961 2.87862,1.11217 5.82814,1.67752 8.81281,1.99329 3.60513,0.38141 7.26156,0.39867 10.90634,0.40156 5.27799,0.004 10.53157,-0.0217 15.80413,0.002 3.37904,0.0155 6.76587,0.0516 10.12058,-0.39911 2.58265,-0.34695 5.14626,-0.98239 7.48756,-2.17645 1.80844,-0.9223 3.48426,-2.17787 4.66734,-3.80662 1.18868,-1.63646 1.87997,-3.64963 2.12682,-5.66525 0.13973,-1.14086 0.13707,-2.28251 0.10488,-3.42352 -0.0438,-1.55178 -0.14221,-3.10239 -0.28842,-4.64928 -0.14016,-1.48301 -0.32424,-2.96261 -0.59198,-4.42643 -0.35233,-1.92628 -0.84953,-3.82524 -1.42478,-5.70135 -0.57878,-1.88764 -1.23658,-3.75214 -2.04317,-5.54855 -0.72683,-1.61875 -1.57447,-3.18221 -2.42211,-4.74567"
       style="fill:none;stroke:#000000;stroke-width:2.61995578"
       id="path56"
       inkscape:connector-curvature="0" />
    <path
       d="m 278.65324,700.8991 -3.91006,-0.18544"
       style="fill:none;stroke:#000000;stroke-width:2.61995578"
       id="path58"
       inkscape:connector-curvature="0" />
    <path
       d="m 274.74318,700.71366 -0.6944,-1.42242"
       style="fill:none;stroke:#000000;stroke-width:2.61995578"
       id="path60"
       inkscape:connector-curvature="0" />
    <path
       d="m 275.75282,942.81967 c 1.96867,-2.11702 3.93735,-4.23403 5.8362,-6.41336 1.76029,-2.0203 3.46058,-4.09415 5.09231,-6.21991 1.52123,-1.9818 2.98287,-4.00871 4.38841,-6.07498 6.46124,-9.49864 11.73677,-19.82899 15.88448,-30.57047 4.25959,-11.03126 7.32968,-22.49613 9.23206,-34.15463 1.97147,-12.08188 2.68887,-24.37169 2.27023,-36.59487 -0.29429,-8.59277 -1.15001,-17.1526 -2.66744,-25.6369 -1.47479,-8.24591 -3.57462,-16.42047 -6.08943,-24.29971 -2.44763,-7.66881 -5.28837,-15.05786 -9.39549,-22.49907 -0.33512,-0.60716 -0.67866,-1.21467 -0.90102,-1.77369 -0.16215,-0.40765 -0.25985,-0.78952 -0.64258,-1.30064 -0.1579,-0.21087 -0.36431,-0.44375 -0.24509,-0.54604 0.0395,-0.0339 0.11492,-0.0535 0.18641,-0.0683 0.17692,-0.0366 0.33008,-0.0439 0.48883,-0.0492 0.22165,-0.007 0.45418,-0.0112 0.6857,-0.0193 1.74229,-0.0613 3.42737,-0.37514 5.0981,-0.81076 2.07857,-0.54197 4.13492,-1.27248 6.05904,-2.12932 1.94888,-0.86785 3.76211,-1.86529 5.76761,-3.00812 0.90068,-0.51325 1.84013,-1.05582 2.21814,-1.90113 0.30198,-0.6753 0.24565,-1.54381 0.0552,-2.33317 -0.36839,-1.52673 -1.23855,-2.75736 -2.07854,-4.00692 -1.18136,-1.75736 -2.30302,-3.55218 -3.49413,-5.30029 -1.37811,-2.02258 -2.84919,-3.98264 -4.35668,-5.91356 -1.25453,-1.6069 -2.53429,-3.19363 -3.8864,-4.71797 -2.08718,-2.35304 -4.34677,-4.55744 -6.75455,-6.58838 -2.09375,-1.76607 -4.29955,-3.40098 -6.65466,-4.79971 -2.1253,-1.26224 -4.37219,-2.33214 -6.71269,-3.12476 -0.62374,-0.21124 -1.25413,-0.40278 -1.89517,-0.54962 -0.6575,-0.1506 -1.3262,-0.25417 -1.99716,-0.32817 -0.86127,-0.095 -1.72626,-0.1413 -2.59125,-0.1876"
       style="fill:none;stroke:#000000;stroke-width:2.61995578"
       id="path62"
       inkscape:connector-curvature="0" />
    <path
       d="m 348.61507,584.6699 -2.2e-4,8.9e-4"
       style="fill:none;stroke:#000000;stroke-width:2.61995578"
       id="path64"
       inkscape:connector-curvature="0" />
    <path
       d="m 274.04878,699.29124 c -0.127,-0.2519 -0.254,-0.50381 -0.34923,-0.74661 -0.0739,-0.18845 -0.12869,-0.37142 -0.24902,-0.5893 -0.06,-0.10862 -0.13626,-0.22591 -0.095,-0.30447 0.0262,-0.0499 0.0999,-0.0842 0.17044,-0.10953 0.15793,-0.0568 0.30004,-0.0689 0.44687,-0.0784 0.203,-0.013 0.41505,-0.0208 0.62653,-0.0299 1.85486,-0.0799 3.66626,-0.2585 5.48239,-0.45814 3.00292,-0.3301 6.0188,-0.71763 9.02588,-1.1318 3.23077,-0.44498 6.45138,-0.92072 9.66633,-1.44154 6.45949,-1.04643 12.89612,-2.27485 19.27309,-3.7599 5.78796,-1.34788 11.52676,-2.90718 17.19869,-4.6748 5.3085,-1.65435 10.55843,-3.49119 15.66338,-5.7362 3.13353,-1.37803 6.21244,-2.90985 8.98571,-4.90856 2.45476,-1.76914 4.67004,-3.90408 6.4928,-6.32311 1.87523,-2.48865 3.335,-5.27798 4.46141,-8.18721 1.29551,-3.34595 2.15005,-6.8505 2.62502,-10.39726 0.52327,-3.9074 0.58585,-7.86602 0.34518,-11.80884 -0.27243,-4.46326 -0.93344,-8.90628 -1.93385,-13.2327 -1.53491,-6.63802 -3.86878,-13.00154 -6.47988,-19.46851 -2.22994,-5.52293 -4.66208,-11.1213 -8.71807,-15.20074 -2.33272,-2.34622 -5.20256,-4.19 -8.07242,-6.03379"
       style="fill:none;stroke:#000000;stroke-width:2.61995578"
       id="path66"
       inkscape:connector-curvature="0" />
    <path
       d="m 181.97458,725.29571 -1.2e-4,0"
       style="fill:none;stroke:#000000;stroke-width:2.61995578"
       id="path68"
       inkscape:connector-curvature="0" />
    <path
       d="m 181.97446,725.29571 c 2.96464,0.44101 5.92928,0.88201 8.50203,2.18027 2.81824,1.42213 5.16621,3.87293 7.01241,6.57783 2.16317,3.16928 3.63747,6.68739 4.42894,10.35823 0.32729,1.51799 0.53781,3.0621 0.65612,4.61209 0.12649,1.6571 0.14758,3.32092 0.0562,4.98014 -0.0829,1.50502 -0.25834,3.00624 -0.55339,4.48359 -0.32368,1.62068 -0.79129,3.21262 -1.37281,4.76197 -0.5379,1.43316 -1.17327,2.82988 -1.93054,4.15793 -0.7412,1.29986 -1.59919,2.53394 -2.55191,3.69062 -0.89981,1.09243 -1.88411,2.11583 -2.96844,3.0244 -1.00528,0.84234 -2.09653,1.58598 -3.25663,2.19777 -1.13684,0.59953 -2.33979,1.07243 -3.58665,1.39955 -2.09558,0.54976 -4.31519,0.68769 -6.46043,0.36431 -2.173,-0.32756 -4.26971,-1.12845 -6.15143,-2.26282 -2.0572,-1.24015 -3.85744,-2.87889 -5.38866,-4.72321 -0.96048,-1.15689 -1.81511,-2.39468 -2.55572,-3.6975 -0.7558,-1.32956 -1.39286,-2.72685 -1.9301,-4.1612 -0.579,-1.54585 -1.04207,-3.13473 -1.36364,-4.75182 -0.29519,-1.48451 -0.47114,-2.99279 -0.55325,-4.50446 -0.0901,-1.65828 -0.0673,-3.32064 0.0541,-4.9782 0.11284,-1.54154 0.31087,-3.07892 0.65218,-4.58387 0.13702,-0.60413 0.29712,-1.20304 0.46565,-1.79936 0.1717,-0.60758 0.35215,-1.21248 0.54848,-1.81252 0.15782,-0.48232 0.32591,-0.9615 0.51258,-1.43328 0.61592,-1.55663 1.4342,-3.0327 2.35599,-4.43555 0.91922,-1.39895 1.94138,-2.72509 3.09444,-3.93819 1.02229,-1.07551 2.14748,-2.06218 3.38637,-2.8723 0.92664,-0.60594 1.91689,-1.11311 2.94259,-1.54018 0.96462,-0.40163 1.96059,-0.73242 2.9796,-0.93712 0.97788,-0.19644 1.97697,-0.27678 2.97606,-0.35712"
       style="fill:none;stroke:#000000;stroke-width:2.61995578"
       id="path70"
       inkscape:connector-curvature="0" />
    <path
       d="m 234.87021,725.31045 -1.2e-4,0"
       style="fill:none;stroke:#000000;stroke-width:2.61995578"
       id="path72"
       inkscape:connector-curvature="0" />
    <path
       d="m 234.87009,725.31045 c 0.67214,0.0405 1.34427,0.081 2.00967,0.17465 0.67666,0.0953 1.34634,0.2456 2.00564,0.43088 0.67694,0.19023 1.34293,0.4173 1.99066,0.68821 3.24642,1.35777 6.03399,3.81651 8.18216,6.67046 2.39334,3.17966 3.99302,6.8499 4.90814,10.68842 0.9704,4.0704 1.17104,8.33004 0.60136,12.45747 -0.23306,1.68857 -0.59504,3.35502 -1.08443,4.98583 -0.44919,1.49688 -1.00571,2.96373 -1.69149,4.36723 -0.67588,1.38324 -1.47731,2.70493 -2.37916,3.95535 -0.95541,1.32466 -2.02352,2.56933 -3.22262,3.67767 -1.10661,1.02285 -2.32478,1.92959 -3.63523,2.67384 -1.25795,0.71443 -2.60092,1.27913 -4.00879,1.64163 -3.37838,0.86987 -7.1304,0.5754 -10.36714,-0.76098 -3.45399,-1.42606 -6.3212,-4.03858 -8.54211,-7.0768 -2.60606,-3.56512 -4.32221,-7.7164 -5.0381,-12.00192 -0.20918,-1.25226 -0.33296,-2.51597 -0.40028,-3.78237 -0.0783,-1.47328 -0.0802,-2.95018 -0.0115,-4.42482 0.0597,-1.28252 0.17279,-2.56332 0.38062,-3.82949 0.40605,-2.47384 1.17382,-4.89182 2.20156,-7.18936 0.9578,-2.14117 2.14139,-4.17773 3.60733,-6.00731 1.3579,-1.69473 2.95806,-3.21186 4.76329,-4.40912 0.99033,-0.65679 2.04236,-1.21732 3.1414,-1.67636 1.0506,-0.4388 2.14415,-0.78486 3.26018,-0.97817 1.09523,-0.18972 2.21211,-0.23233 3.32899,-0.27494"
       style="fill:none;stroke:#000000;stroke-width:2.61995578"
       id="path74"
       inkscape:connector-curvature="0" />
    <path
       d="m 187.84595,747.27276 0,0"
       style="fill:none;stroke:#000000;stroke-width:2.61995578"
       id="path76"
       inkscape:connector-curvature="0" />
    <path
       d="m 187.84595,747.27276 c -0.31318,0.0162 -0.62636,0.0323 -0.9351,0.0826 -0.31119,0.0507 -0.61788,0.13613 -0.91278,0.24916 -0.30263,0.11599 -0.59284,0.26106 -0.87515,0.42061 -0.57217,0.32335 -1.11185,0.70615 -1.59569,1.15178 -0.44515,0.40999 -0.84303,0.87316 -1.17717,1.37564 -0.38082,0.57267 -0.67884,1.19639 -0.95522,1.8291 -0.19126,0.43786 -0.37215,0.88002 -0.49657,1.33887 -0.11376,0.41954 -0.1803,0.85303 -0.21794,1.28733 -0.0538,0.62011 -0.0486,1.24188 -0.046,1.86366 0.003,0.61068 0.003,1.22137 0.054,1.83016 0.0371,0.43915 0.1008,0.87731 0.20686,1.30444 0.10951,0.44106 0.26416,0.87036 0.44162,1.29033 0.28745,0.68022 0.63477,1.33598 1.0475,1.94482 0.39831,0.58757 0.85753,1.13144 1.37649,1.6278 0.45077,0.43115 0.94661,0.82644 1.50696,1.07603 0.58073,0.25866 1.23076,0.36082 1.87589,0.40475 0.75264,0.0512 1.49861,0.0233 2.23596,-0.11365 0.60933,-0.11313 1.21277,-0.30063 1.75384,-0.58905 1.53748,-0.81955 2.57135,-2.45399 3.23798,-4.14164 0.71688,-1.8149 1.00904,-3.69133 0.87045,-5.58612 -0.13798,-1.88636 -0.70289,-3.79091 -1.75983,-5.34619 -0.45784,-0.67373 -1.00802,-1.28191 -1.64239,-1.80197 -0.58081,-0.47615 -1.2322,-0.87841 -1.93296,-1.11664 -0.65793,-0.22368 -1.35937,-0.30275 -2.06081,-0.38182"
       style="fill:none;stroke:#000000;stroke-width:2.61995578"
       id="path78"
       inkscape:connector-curvature="0" />
    <path
       d="m 229.67327,747.32484 0,0"
       style="fill:none;stroke:#000000;stroke-width:2.61995578"
       id="path80"
       inkscape:connector-curvature="0" />
    <path
       d="m 229.67327,747.32484 c -0.31199,0.005 -0.62398,0.0104 -0.93271,0.0479 -0.32191,0.0391 -0.64028,0.11329 -0.95101,0.2094 -0.33014,0.10212 -0.65165,0.22898 -0.96219,0.38028 -0.96663,0.47094 -1.827,1.17868 -2.50853,2.01948 -0.72961,0.90014 -1.25424,1.95278 -1.59944,3.05421 -0.38802,1.23806 -0.54934,2.53777 -0.55561,3.8353 -0.006,1.21473 0.12413,2.42756 0.45344,3.59959 0.28708,1.02173 0.72562,2.01247 1.35067,2.8599 0.61397,0.83241 1.40789,1.52657 2.25551,2.13648 0.37432,0.26934 0.75911,0.52226 1.18205,0.69648 0.31518,0.12983 0.65155,0.21596 0.9901,0.25506 0.45893,0.053 0.92187,0.0196 1.38552,-0.0346 0.96036,-0.11222 1.92378,-0.31359 2.76975,-0.75463 0.82957,-0.43248 1.5462,-1.09542 2.1241,-1.84737 0.69016,-0.89802 1.18244,-1.923 1.53641,-2.99029 0.6704,-2.02146 0.84459,-4.19471 0.43181,-6.35284 -0.36396,-1.9029 -1.18426,-3.79404 -2.55328,-5.00028 -1.19396,-1.05199 -2.80528,-1.58304 -4.41659,-2.1141"
       style="fill:none;stroke:#000000;stroke-width:2.61995578"
       id="path82"
       inkscape:connector-curvature="0" />
    <path
       d="m 208.03045,780.27121 0,0"
       style="fill:none;stroke:#000000;stroke-width:2.61995578"
       id="path84"
       inkscape:connector-curvature="0" />
    <path
       d="m 208.03045,780.27121 c 15.78355,2.39175 31.5671,4.78349 45.21508,12.00406 13.24402,7.00685 24.47703,18.56089 32.26551,31.93431 8.02626,13.78172 12.39445,29.4956 12.47099,45.08989 2.2e-4,0.0458 4.1e-4,0.0916 6e-4,0.13735 3.6e-4,0.085 7.3e-4,0.17006 0.001,0.25508 2.1e-4,0.0458 4.2e-4,0.0916 6e-4,0.13735 0.0607,15.59475 -4.24728,31.49849 -12.20406,45.16327 -7.72103,13.25994 -18.87786,24.41163 -32.07635,32.12481 -13.60108,7.94844 -29.37028,12.24541 -45.14373,12.27113 -15.77323,0.0257 -31.55071,-4.21969 -45.17905,-12.13791 -13.22497,-7.68385 -24.42613,-18.82632 -32.17067,-32.0295 -7.98098,-13.60629 -12.29105,-29.40105 -12.33754,-45.12632 -0.0465,-15.72535 4.17066,-31.38121 12.07013,-45.19885 7.66543,-13.40827 18.79823,-25.08561 31.98066,-32.21957 13.58452,-7.35155 29.34561,-9.87832 45.1067,-12.4051"
       style="fill:none;stroke:#000000;stroke-width:2.61995578"
       id="path86"
       inkscape:connector-curvature="0" />
  </g>
</svg>
