<?xml version="1.0" encoding="UTF-8" standalone="no"?>
<!-- Created with Inkscape (http://www.inkscape.org/) -->

<svg
   xmlns:dc="http://purl.org/dc/elements/1.1/"
   xmlns:cc="http://creativecommons.org/ns#"
   xmlns:rdf="http://www.w3.org/1999/02/22-rdf-syntax-ns#"
   xmlns:svg="http://www.w3.org/2000/svg"
   xmlns="http://www.w3.org/2000/svg"
   xmlns:sodipodi="http://sodipodi.sourceforge.net/DTD/sodipodi-0.dtd"
   xmlns:inkscape="http://www.inkscape.org/namespaces/inkscape"
   width="900mm"
   height="900mm"
   viewBox="0 0 3188.9763 3188.9764"
   id="svg3334"
   version="1.1"
   inkscape:version="0.91 r13725"
   sodipodi:docname="BASE TOTAL.svg">
  <defs
     id="defs3336" />
  <sodipodi:namedview
     id="base"
     pagecolor="#ffffff"
     bordercolor="#666666"
     borderopacity="1.0"
     inkscape:pageopacity="0.0"
     inkscape:pageshadow="2"
     inkscape:zoom="0.14278372"
     inkscape:cx="-94.204403"
     inkscape:cy="781.63152"
     inkscape:document-units="mm"
     inkscape:current-layer="layer1"
     showgrid="false"
     showguides="true"
     inkscape:guide-bbox="true"
     inkscape:snap-bbox="true"
     inkscape:bbox-nodes="true"
     inkscape:snap-nodes="false"
     inkscape:bbox-paths="true"
     inkscape:snap-bbox-edge-midpoints="true"
     inkscape:snap-bbox-midpoints="true"
     inkscape:snap-others="false"
     inkscape:snap-to-guides="true"
     inkscape:snap-grids="false"
     inkscape:window-width="1920"
     inkscape:window-height="1017"
     inkscape:window-x="-8"
     inkscape:window-y="-8"
     inkscape:window-maximized="1">
    <sodipodi:guide
       position="0,0"
       orientation="1,0"
       id="guide3342"
       inkscape:label=""
       inkscape:color="rgb(0,0,255)" />
    <sodipodi:guide
       position="0,0"
       orientation="0,1"
       id="guide3344"
       inkscape:label=""
       inkscape:color="rgb(0,0,255)" />
    <sodipodi:guide
       position="2657.4804,0"
       orientation="1,0"
       id="guide3346"
       inkscape:label=""
       inkscape:color="rgb(0,0,255)" />
    <sodipodi:guide
       position="0,2657.4804"
       orientation="0,1"
       id="guide3348"
       inkscape:label=""
       inkscape:color="rgb(0,0,255)" />
    <sodipodi:guide
       position="265.74804,267.32835"
       orientation="0,1"
       id="guide4215"
       inkscape:label=""
       inkscape:color="rgb(0,0,255)" />
    <sodipodi:guide
       position="265.74804,265.74804"
       orientation="1,0"
       id="guide4217"
       inkscape:label=""
       inkscape:color="rgb(0,0,255)" />
    <sodipodi:guide
       position="1084.5521,1066.5355"
       orientation="0,1"
       id="guide4219"
       inkscape:label=""
       inkscape:color="rgb(0,0,255)" />
    <sodipodi:guide
       position="533.26771,1867.3229"
       orientation="0,1"
       id="guide4221"
       inkscape:label=""
       inkscape:color="rgb(0,0,255)" />
    <sodipodi:guide
       position="1066.5355,534.84803"
       orientation="1,0"
       id="guide4223"
       inkscape:label=""
       inkscape:color="rgb(0,0,255)" />
    <sodipodi:guide
       position="1867.3229,802.3677"
       orientation="1,0"
       id="guide4225"
       inkscape:label=""
       inkscape:color="rgb(0,0,255)" />
  </sodipodi:namedview>
  <metadata
     id="metadata3339">
    <rdf:RDF>
      <cc:Work
         rdf:about="">
        <dc:format>image/svg+xml</dc:format>
        <dc:type
           rdf:resource="http://purl.org/dc/dcmitype/StillImage" />
        <dc:title></dc:title>
      </cc:Work>
    </rdf:RDF>
  </metadata>
  <g
     inkscape:label="Capa 1"
     inkscape:groupmode="layer"
     id="layer1"
     transform="translate(0,2136.614)">
    <path
       style="fill:none;fill-rule:evenodd;stroke:#000000;stroke-width:3.54330707;stroke-linecap:butt;stroke-linejoin:miter;stroke-miterlimit:4;stroke-dasharray:none;stroke-opacity:1"
       d="m 0,-1605.118 2657.4805,0 0,2657.4804 -2657.4805,0 z"
       id="rect3352"
       inkscape:connector-curvature="0" />
    <path
       inkscape:connector-curvature="0"
       id="path4242"
       d="M 673.21198,517.51438 A 139.94428,139.94427 0 0 1 533.26771,657.45866 139.94428,139.94427 0 0 1 393.32343,517.51438 139.94428,139.94427 0 0 1 533.26771,377.57011 139.94428,139.94427 0 0 1 673.21198,517.51438 Z"
       style="fill:none;stroke:#000000;stroke-width:3.5760169;stroke-miterlimit:4;stroke-dasharray:none;stroke-opacity:1" />
    <path
       inkscape:connector-curvature="0"
       id="path4242-8"
       d="M 673.21196,-281.69274 A 139.94428,139.94427 0 0 1 533.26771,-141.74846 139.94428,139.94427 0 0 1 393.32343,-281.69274 139.94428,139.94427 0 0 1 533.26771,-421.63701 139.94428,139.94427 0 0 1 673.21196,-281.69274 Z"
       style="fill:none;stroke:#000000;stroke-width:3.5760169;stroke-miterlimit:4;stroke-dasharray:none;stroke-opacity:1" />
    <path
       inkscape:connector-curvature="0"
       id="path4242-1"
       d="m 673.21198,-1082.4801 a 139.94428,139.94427 0 0 1 -139.94427,139.94429 139.94428,139.94427 0 0 1 -139.94428,-139.94429 139.94428,139.94427 0 0 1 139.94428,-139.9443 139.94428,139.94427 0 0 1 139.94427,139.9443 z"
       style="fill:none;stroke:#000000;stroke-width:3.5760169;stroke-miterlimit:4;stroke-dasharray:none;stroke-opacity:1" />
    <path
       inkscape:connector-curvature="0"
       id="path4242-6"
       d="m 1473.9994,-1082.4802 a 139.94428,139.94427 0 0 1 -139.9443,139.94435 139.94428,139.94427 0 0 1 -139.9443,-139.94435 139.94428,139.94427 0 0 1 139.9443,-139.9443 139.94428,139.94427 0 0 1 139.9443,139.9443 z"
       style="fill:none;stroke:#000000;stroke-width:3.5760169;stroke-miterlimit:4;stroke-dasharray:none;stroke-opacity:1" />
    <path
       inkscape:connector-curvature="0"
       id="path4242-5"
       d="m 1468.6846,-276.37783 a 139.94428,139.94427 0 0 1 -139.9443,139.94428 139.94428,139.94427 0 0 1 -139.9443,-139.94428 139.94428,139.94427 0 0 1 139.9443,-139.94427 139.94428,139.94427 0 0 1 139.9443,139.94427 z"
       style="fill:none;stroke:#000000;stroke-width:3.5760169;stroke-miterlimit:4;stroke-dasharray:none;stroke-opacity:1" />
    <path
       inkscape:connector-curvature="0"
       id="path4242-83"
       d="M 1473.9994,517.51435 A 139.94428,139.94427 0 0 1 1334.0551,657.45863 139.94428,139.94427 0 0 1 1194.1108,517.51435 139.94428,139.94427 0 0 1 1334.0551,377.57008 139.94428,139.94427 0 0 1 1473.9994,517.51435 Z"
       style="fill:none;stroke:#000000;stroke-width:3.5760169;stroke-miterlimit:4;stroke-dasharray:none;stroke-opacity:1" />
    <path
       inkscape:connector-curvature="0"
       id="path4242-13"
       d="M 2274.7868,517.51438 A 139.94428,139.94427 0 0 1 2134.8426,657.45866 139.94428,139.94427 0 0 1 1994.8983,517.51438 139.94428,139.94427 0 0 1 2134.8426,377.57011 139.94428,139.94427 0 0 1 2274.7868,517.51438 Z"
       style="fill:none;stroke:#000000;stroke-width:3.5760169;stroke-miterlimit:4;stroke-dasharray:none;stroke-opacity:1" />
    <path
       inkscape:connector-curvature="0"
       id="path4242-57"
       d="m 2274.7868,-281.69276 a 139.94428,139.94427 0 0 1 -139.9442,139.94428 139.94428,139.94427 0 0 1 -139.9443,-139.94428 139.94428,139.94427 0 0 1 139.9443,-139.94427 139.94428,139.94427 0 0 1 139.9442,139.94427 z"
       style="fill:none;stroke:#000000;stroke-width:3.5760169;stroke-miterlimit:4;stroke-dasharray:none;stroke-opacity:1" />
    <path
       inkscape:connector-curvature="0"
       id="path4242-0"
       d="m 2274.7868,-1082.4802 a 139.94428,139.94427 0 0 1 -139.9442,139.94435 139.94428,139.94427 0 0 1 -139.9443,-139.94435 139.94428,139.94427 0 0 1 139.9443,-139.9443 139.94428,139.94427 0 0 1 139.9442,139.9443 z"
       style="fill:none;stroke:#000000;stroke-width:3.5760169;stroke-miterlimit:4;stroke-dasharray:none;stroke-opacity:1" />
  </g>
</svg>
