<?xml version="1.0" encoding="UTF-8" standalone="no"?>
<svg
   xmlns:dc="http://purl.org/dc/elements/1.1/"
   xmlns:cc="http://creativecommons.org/ns#"
   xmlns:rdf="http://www.w3.org/1999/02/22-rdf-syntax-ns#"
   xmlns:svg="http://www.w3.org/2000/svg"
   xmlns="http://www.w3.org/2000/svg"
   xmlns:sodipodi="http://sodipodi.sourceforge.net/DTD/sodipodi-0.dtd"
   xmlns:inkscape="http://www.inkscape.org/namespaces/inkscape"
   width="744.094488189"
   height="1052.36220472"
   id="svg2"
   version="1.1"
   inkscape:version="0.91 r13725"
   sodipodi:docname="morsa juego rana.svg">
  <metadata
     id="metadata202">
    <rdf:RDF>
      <cc:Work
         rdf:about="">
        <dc:format>image/svg+xml</dc:format>
        <dc:type
           rdf:resource="http://purl.org/dc/dcmitype/StillImage" />
        <dc:title></dc:title>
      </cc:Work>
    </rdf:RDF>
  </metadata>
  <sodipodi:namedview
     pagecolor="#ffffff"
     bordercolor="#666666"
     borderopacity="1"
     objecttolerance="10"
     gridtolerance="10"
     guidetolerance="10"
     inkscape:pageopacity="0"
     inkscape:pageshadow="2"
     inkscape:window-width="640"
     inkscape:window-height="480"
     id="namedview200"
     showgrid="false"
     inkscape:object-paths="true"
     inkscape:zoom="0.22425739"
     inkscape:cx="726.07661"
     inkscape:cy="526.18109"
     inkscape:window-x="0"
     inkscape:window-y="24"
     inkscape:window-maximized="0"
     inkscape:current-layer="g20" />
  <desc
     id="desc4">/media/hua/BREAKERS17/Diseños finales Breakers primavera 2017/morsa juego rana.dxf - scale = 1.000000, origin = (0.000000, 0.000000), auto = True</desc>
  <defs
     id="defs6">
    <marker
       id="DistanceX"
       orient="auto"
       refX="0.0"
       refY="0.0"
       style="overflow:visible">
      <path
         d="M 3,-3 L -3,3 M 0,-5 L  0,5"
         style="stroke:#000000; stroke-width:0.5"
         id="path9" />
    </marker>
    <pattern
       height="8"
       id="Hatch"
       patternUnits="userSpaceOnUse"
       width="8"
       x="0"
       y="0">
      <path
         d="M8 4 l-4,4"
         linecap="square"
         stroke="#000000"
         stroke-width="0.25"
         id="path12" />
      <path
         d="M6 2 l-4,4"
         linecap="square"
         stroke="#000000"
         stroke-width="0.25"
         id="path14" />
      <path
         d="M4 0 l-4,4"
         linecap="square"
         stroke="#000000"
         stroke-width="0.25"
         id="path16" />
    </pattern>
    <symbol
       id="*MODEL_SPACE" />
    <symbol
       id="*PAPER_SPACE" />
  </defs>
  <g
     inkscape:groupmode="layer"
     inkscape:label="0"
     id="g20">
    <path
       d="m 223.73633,307.95986 0,8.4043"
       style="fill:none;stroke:#000000"
       id="path22"
       inkscape:connector-curvature="0" />
    <path
       d="m 223.73633,316.36416 -5.49024,4.6582"
       style="fill:none;stroke:#000000"
       id="path24"
       inkscape:connector-curvature="0" />
    <path
       d="m 363.83594,173.11026 c -2.00774,0.0127 -4.01547,0.0254 -6.0231,0.0631 -1.79798,0.0338 -3.59588,0.0877 -5.39108,0.19004 -1.37741,0.0785 -2.75323,0.18559 -4.12684,0.31712 -7.73489,0.74067 -15.39946,2.25715 -22.90098,4.33202 -7.23589,2.00139 -14.32006,4.52233 -21.15828,7.5999 -6.99573,3.14847 -13.73404,6.87949 -20.13019,11.12472 -6.16713,4.09322 -12.01616,8.66448 -17.44618,13.68981 -5.50743,5.09696 -10.58381,10.66103 -15.18204,16.59536 -4.58196,5.91333 -8.68915,12.19431 -12.24873,18.76952 -3.43324,6.34184 -6.35705,12.9574 -8.71566,19.78227 -2.30564,6.67164 -4.07118,13.54331 -5.10962,20.50474 -1.07836,7.22912 -1.37264,14.55504 -1.66691,21.88096"
       style="fill:none;stroke:#000000"
       id="path26"
       inkscape:connector-curvature="0" />
    <path
       d="m 200.64258,684.16299 21.99219,-1.93165"
       style="fill:none;stroke:#000000"
       id="path28"
       inkscape:connector-curvature="0" />
    <path
       d="m 222.63477,682.23134 3.99023,1.88087"
       style="fill:none;stroke:#000000"
       id="path30"
       inkscape:connector-curvature="0" />
    <path
       d="m 218.24609,321.02236 c -11.33808,10.99831 -22.67615,21.99662 -32.29199,34.40554 -9.56837,12.34766 -17.43147,26.09205 -23.80893,40.46876 -6.31089,14.22662 -11.16701,29.07243 -14.01236,44.29953 -1.3676,7.31881 -2.27068,14.72571 -2.80244,22.15555 -0.55732,7.7869 -0.70677,15.59899 -0.44661,23.40105 0.24998,7.49669 0.87814,14.98413 1.95218,22.40433 0.88064,6.08408 2.06103,12.12295 3.50456,18.10358 1.41043,5.84346 3.07206,11.63132 4.99387,17.31084 1.91276,5.6528 4.08324,11.19828 6.53477,16.69886 0.39029,0.87571 0.7877,1.75028 1.13931,2.61763 0.26321,0.64931 0.50075,1.29457 0.81251,1.97669 0.1399,0.30611 0.29476,0.61964 0.3099,0.90765 0.039,0.74201 -0.84938,1.31453 -1.60945,1.87503 -1.47697,1.08916 -2.46942,2.13291 -3.63375,3.1389 -1.1654,1.00692 -2.503,1.976 -3.86618,2.85521 -1.64826,1.06307 -3.33392,1.99472 -5.06964,2.84082 -2.21675,1.08059 -4.51515,2.02162 -6.83134,2.90122 -3.24882,1.23377 -6.53265,2.34669 -9.81191,3.47866 -11.17897,3.85886 -22.30486,7.93917 -33.11375,12.76411 -8.7893,3.92342 -17.369,8.3392 -25.48281,13.54236 -6.68081,4.28422 -13.04577,9.10225 -18.63781,14.73844 -4.07135,4.10349 -7.73299,8.64066 -10.52523,13.72927 -2.28577,4.16562 -3.98891,8.70077 -4.38394,13.46604 -0.34051,4.10762 0.29096,8.38622 2.14354,12.01758 1.00932,1.97843 2.38109,3.76474 3.92227,5.37102 1.83596,1.9135 3.91233,3.57152 6.09976,5.05603 2.58715,1.75578 5.32967,3.26886 8.14594,4.63155 4.87785,2.36024 9.97694,4.26935 15.20183,5.68516 5.91533,1.60289 11.99191,2.57349 18.08923,3.22699 7.98292,0.8556 16.00138,1.16765 24.02144,1.31246 7.12694,0.12869 14.25515,0.12532 21.37815,-0.0681 8.31447,-0.22575 16.62184,-0.71042 24.92077,-1.29094 11.86304,-0.82983 23.70882,-1.85552 35.5546,-2.88121"
       style="fill:none;stroke:#000000"
       id="path32"
       inkscape:connector-curvature="0" />
    <path
       d="m 326.41406,724.19228 0,0.002"
       style="fill:none;stroke:#000000"
       id="path34"
       inkscape:connector-curvature="0" />
    <path
       d="m 226.625,684.11221 c 7.09027,2.91517 14.18053,5.83035 21.6011,7.77429 6.96733,1.82521 14.22585,2.7942 21.29657,3.32978 6.08815,0.46116 12.03707,0.60099 18.49881,-1.50447 0.33407,-0.10885 0.66951,-0.2237 0.9519,-0.12085 0.21133,0.077 0.39294,0.27585 0.52734,0.4874 0.27776,0.43721 0.35382,0.92849 0.4485,1.4147 0.97047,4.98348 3.89805,9.43528 7.34592,13.31987 3.73105,4.20364 8.07137,7.74307 12.935,10.18018 5.02259,2.51675 10.60325,3.85797 16.18392,5.19917"
       style="fill:none;stroke:#000000"
       id="path36"
       inkscape:connector-curvature="0" />
    <path
       d="m 446.92383,672.86025 6.42187,-2.48046"
       style="fill:none;stroke:#000000"
       id="path38"
       inkscape:connector-curvature="0" />
    <path
       d="m 453.3457,670.37979 2.55078,1.75781"
       style="fill:none;stroke:#000000"
       id="path40"
       inkscape:connector-curvature="0" />
    <path
       d="m 326.41406,724.19423 c 1.20802,0.14565 2.41604,0.29131 3.65446,0.41243 0.58459,0.0572 1.17596,0.10889 1.73602,-7.9e-4 0.38341,-0.0751 0.75215,-0.22581 1.11343,-0.41554 0.70745,-0.37154 1.38632,-0.89269 1.6937,-1.59601 0.28092,-0.64278 0.25156,-1.43773 0.0339,-2.12659 -0.30428,-0.9631 -0.97661,-1.71882 -1.62801,-2.48834 -2.46618,-2.91339 -4.63232,-6.02464 -5.95343,-9.55502 -1.20004,-3.20685 -1.70283,-6.75953 -1.29842,-10.14352 0.38725,-3.24052 1.6064,-6.32635 3.56239,-9.12177 0.51849,-0.741 1.08876,-1.4616 1.80826,-1.86242 1.12087,-0.62441 2.6039,-0.47275 4.02973,-0.33841 3.65297,0.34417 6.93053,0.57468 10.32608,0.8434 2.34003,0.18519 4.73609,0.38853 7.12123,0.51552 2.32643,0.12387 4.64247,0.17511 6.96151,0.19132 2.85965,0.02 5.72387,-0.0133 8.58718,-0.0838 9.07947,-0.22352 18.14982,-0.82125 27.15768,-1.99661 8.64247,-1.12768 17.22743,-2.78707 25.63071,-5.06511 8.7903,-2.38295 17.38181,-5.44284 25.97333,-8.50273"
       style="fill:none;stroke:#000000"
       id="path42"
       inkscape:connector-curvature="0" />
    <path
       d="m 455.89648,672.1376 c 2.14002,1.23088 4.28004,2.46177 6.52262,3.46844 2.63585,1.1832 5.41339,2.05665 8.21948,2.79887 2.95932,0.78276 5.9504,1.41957 8.97665,1.80885 1.14889,0.14779 2.30285,0.25991 3.45693,0.36754 1.76609,0.16472 3.53244,0.31895 5.29989,0.46156 1.99753,0.16118 3.99645,0.30753 5.99514,0.45606 2.68094,0.19924 5.36147,0.40241 8.04141,0.61338 3.55578,0.27992 7.11053,0.57358 10.66472,0.87369 3.66033,0.30906 7.32006,0.62497 10.97941,0.94457 11.34928,0.99125 22.6948,2.01814 34.05815,2.85787 7.33943,0.54238 14.68629,1.00668 22.03975,1.24659 7.10844,0.23192 14.22305,0.25416 21.33765,0.2764"
       style="fill:none;stroke:#000000"
       id="path44"
       inkscape:connector-curvature="0" />
    <path
       d="m 565.82031,568.55362 -2.83008,-2.65236"
       style="fill:none;stroke:#000000"
       id="path46"
       inkscape:connector-curvature="0" />
    <path
       d="m 562.99023,565.90126 0.84375,-1.85937"
       style="fill:none;stroke:#000000"
       id="path48"
       inkscape:connector-curvature="0" />
    <path
       d="m 601.48828,688.31142 c 4.62348,-0.006 9.24697,-0.0114 13.87181,-0.0667 2.8845,-0.0345 5.76954,-0.0883 8.64797,-0.26127 2.09156,-0.12567 4.17964,-0.31426 6.26342,-0.54115 4.50273,-0.49026 8.9854,-1.15936 13.43028,-2.04257 3.73632,-0.74241 7.44593,-1.63612 11.07389,-2.78681 3.3673,-1.06802 6.66425,-2.35743 9.88451,-3.82492 4.3025,-1.96066 8.46811,-4.2392 12.17566,-7.23039 2.86894,-2.3146 5.4636,-5.05591 7.14297,-8.30951 1.52087,-2.94653 2.29106,-6.3132 2.33176,-9.64565 0.0427,-3.49513 -0.71706,-6.9526 -1.9037,-10.23237 -1.35524,-3.74579 -3.26727,-7.25979 -5.52262,-10.52598 -2.5749,-3.72897 -5.59729,-7.13494 -8.85884,-10.28071 -5.69798,-5.4957 -12.12587,-10.19726 -18.85234,-14.37689 -8.2651,-5.1357 -16.98099,-9.48338 -25.89443,-13.34741 -11.28957,-4.89409 -22.89604,-9.01229 -34.4876,-13.11749 -3.61664,-1.28084 -7.23182,-2.56042 -10.76238,-4.08737 -2.75301,-1.19066 -5.45457,-2.53173 -7.94054,-4.18736 -2.20203,-1.46654 -4.23491,-3.17988 -6.26779,-4.89323"
       style="fill:none;stroke:#000000"
       id="path50"
       inkscape:connector-curvature="0" />
    <path
       d="m 572.20117,543.04579 2.15625,-6.42578"
       style="fill:none;stroke:#000000"
       id="path52"
       inkscape:connector-curvature="0" />
    <path
       d="m 574.35742,536.62001 4.86914,-3.06053"
       style="fill:none;stroke:#000000"
       id="path54"
       inkscape:connector-curvature="0" />
    <path
       d="m 563.83398,564.04189 c 1.02306,-2.33666 2.04612,-4.67332 3.0326,-7.0257 1.03668,-2.4721 2.03296,-4.96155 2.97694,-7.47037 0.81166,-2.15714 1.58465,-4.32858 2.35765,-6.50003"
       style="fill:none;stroke:#000000"
       id="path56"
       inkscape:connector-curvature="0" />
    <path
       d="m 507.52734,319.63955 -4.07031,-3.34766"
       style="fill:none;stroke:#000000"
       id="path58"
       inkscape:connector-curvature="0" />
    <path
       d="m 503.45703,316.29189 0.30274,-5.1543"
       style="fill:none;stroke:#000000"
       id="path60"
       inkscape:connector-curvature="0" />
    <path
       d="m 579.22656,533.55948 c 1.69739,-1.23338 3.39478,-2.46676 5.03316,-3.77241 3.31455,-2.64143 6.38757,-5.57866 9.47084,-8.49883 5.95339,-5.63845 11.94496,-11.21325 17.91202,-16.81862 11.24646,-10.56474 22.40585,-21.23806 33.33841,-32.14186 7.19311,-7.17419 14.28802,-14.44815 20.97658,-22.09892 4.84969,-5.54737 9.48575,-11.29283 13.65571,-17.36664 2.19545,-3.19781 4.26171,-6.48664 6.09501,-9.90676 1.66036,-3.09751 3.12965,-6.3027 4.35269,-9.59309 1.05693,-2.84348 1.92996,-5.75059 2.38629,-8.78531 0.41032,-2.72871 0.48373,-5.5606 -0.30448,-8.18001 -0.69543,-2.31106 -2.06157,-4.45672 -3.83732,-6.1183 -2.04243,-1.91112 -4.62672,-3.18187 -7.30547,-3.95364 -2.06299,-0.59436 -4.182,-0.89278 -6.31057,-1.04949 -2.58341,-0.19021 -5.1809,-0.17168 -7.7642,0.0251 -2.55958,0.19499 -5.10522,0.56499 -7.61468,1.09468 -3.50678,0.74021 -6.9429,1.79225 -10.33493,2.95952 -3.7539,1.29179 -7.4538,2.72471 -11.09563,4.29304 -4.14587,1.7854 -8.21649,3.74629 -12.24913,5.7787 -2.45697,1.23828 -4.89985,2.50312 -7.3123,3.82403 -2.43229,1.33178 -4.83365,2.72057 -7.21697,4.13918 -3.40596,2.0273 -6.77509,4.11549 -10.15042,6.19108 -1.7752,1.09163 -3.55212,2.17977 -5.33918,3.25489 -1.55129,0.93328 -3.11023,1.85676 -4.66679,2.77227 -0.98341,0.5784 -1.96587,1.15362 -2.98426,1.68964 -1.30888,0.68893 -2.6771,1.31312 -4.03043,1.78399 -1.51873,0.52843 -3.0187,0.86378 -4.6474,1.6933 -0.99727,0.50792 -2.0428,1.20112 -2.9335,0.75318 -0.11004,-0.0553 -0.21772,-0.12809 -0.30413,-0.21797 -0.15012,-0.15614 -0.23604,-0.36396 -0.31025,-0.57127 -0.0957,-0.26735 -0.17196,-0.53385 -0.2489,-0.80061 -0.54641,-1.8943 -1.12828,-3.80149 -1.74017,-5.69382 -0.94845,-2.93313 -1.96904,-5.83055 -3.01264,-8.72288 -0.91849,-2.54561 -1.85478,-5.08728 -2.85266,-7.60478 -3.58804,-9.05211 -7.9722,-17.79169 -12.90572,-26.19864 -4.97475,-8.47719 -10.50809,-16.61617 -16.5926,-24.32949 -6.07528,-7.70162 -12.70006,-14.97887 -19.7927,-21.74531 -1.34678,-1.28483 -2.71042,-2.55124 -4.07969,-3.81185 -1.31406,-1.20978 -2.6333,-2.41422 -3.97431,-3.59388 -0.99485,-0.87515 -2.00167,-1.73666 -3.0085,-2.59817"
       style="fill:none;stroke:#000000"
       id="path62"
       inkscape:connector-curvature="0" />
    <path
       d="m 363.83594,173.11026 0,0"
       style="fill:none;stroke:#000000"
       id="path64"
       inkscape:connector-curvature="0" />
    <path
       d="m 503.75977,311.13759 c 0.0124,-3.83023 0.0249,-7.66046 -0.19499,-11.47943 -0.25481,-4.42631 -0.82164,-8.8375 -1.5493,-13.21648 -0.69883,-4.20557 -1.546,-8.38143 -2.61704,-12.50916 -4.56063,-17.57646 -13.18043,-34.28019 -24.64104,-48.52054 -11.41514,-14.18384 -25.64858,-25.92382 -41.60076,-34.74688 -16.59979,-9.18126 -35.0607,-15.20394 -53.78555,-16.98454 -1.37278,-0.13054 -2.74698,-0.23828 -4.12296,-0.31706 -1.79446,-0.10275 -3.59194,-0.15625 -5.38943,-0.18992 -2.00758,-0.0376 -4.01517,-0.0505 -6.02276,-0.0633"
       style="fill:none;stroke:#000000"
       id="path66"
       inkscape:connector-curvature="0" />
    <path
       d="m 361.87305,179.72939 c 3.67464,0.0325 7.34928,0.0649 11.01504,0.28048 3.69756,0.21745 7.38608,0.62122 11.05396,1.1552 3.70561,0.53948 7.39013,1.21187 11.04037,2.04674 9.17536,2.09858 18.13404,5.22385 26.67375,9.22621 8.59553,4.02851 16.7666,8.94561 24.33015,14.6664 7.46732,5.64802 14.34248,12.07941 20.45899,19.18552 6.8118,7.91388 12.68266,16.6646 17.29094,26.0132 4.49366,9.11606 7.78677,18.80064 10.20177,28.69938 2.4076,9.8684 3.94246,19.94965 2.70651,30.24445 -0.25238,2.10218 -0.62029,4.21326 -0.12763,6.19921 0.30307,1.22169 0.93179,2.39603 1.72155,3.40374 1.54144,1.96683 3.69632,3.29891 5.69124,4.79939 2.62594,1.97511 4.97473,4.24201 7.32329,6.51167 2.68988,2.59952 5.37945,5.20267 7.98928,7.88328 2.48725,2.55471 4.90207,5.17978 7.24797,7.86678 6.86893,7.86766 13.14694,16.26616 18.7316,25.10184 5.45556,8.63143 10.24946,17.68007 14.29565,27.05145 4.10908,9.51702 7.44702,19.3669 10.06846,29.39553 1.22701,4.69409 2.29705,9.42733 3.15555,14.19738 0.84642,4.70287 1.48722,9.44153 1.95379,14.20529 0.49987,5.10375 0.79975,10.23631 0.90628,15.33562 0.19123,9.1541 -0.24066,18.20101 -1.15211,27.55396 -0.90298,9.26616 -2.27668,18.83271 -4.97838,26.86473 -2.7551,8.19075 -6.89122,14.78572 -8.84998,26.41919 -0.2724,1.61787 -0.5027,3.33318 -1.67164,3.49565 -0.36989,0.0514 -0.83376,-0.0527 -1.20215,-0.24111 -1.33016,-0.68043 -1.4155,-2.46086 -1.5598,-4.14321 -0.55256,-6.44232 -1.96958,-11.44654 -2.09043,-16.82351 -0.14169,-6.30402 1.49826,-13.12041 3.54148,-19.55771 2.38381,-7.51041 5.31653,-14.50482 9.00598,-21.36878 0.43545,-0.81012 0.88144,-1.61842 1.25658,-2.43137 0.28352,-0.61438 0.52657,-1.23142 0.89591,-1.86429 0.17086,-0.29278 0.36875,-0.58894 0.34165,-0.8938 -0.0128,-0.14381 -0.0756,-0.28956 -0.14439,-0.42768 -0.11355,-0.22811 -0.24318,-0.43541 -0.37877,-0.6421 -0.16237,-0.24754 -0.33328,-0.49423 -0.53153,-0.71733 -0.43656,-0.49129 -1.00569,-0.8682 -1.63365,-1.09384 -0.62038,-0.22292 -1.29818,-0.2982 -1.9355,-0.16216 -0.58456,0.12478 -1.13506,0.42733 -1.57928,0.82436 -0.64918,0.58024 -1.07136,1.36227 -1.49719,2.12991 -0.65176,1.17493 -1.31207,2.31614 -1.9351,3.48342 -0.8303,1.55563 -1.59439,3.15757 -2.33529,4.7695 -2.6512,5.76805 -5.00541,11.66395 -6.80536,17.74258 -1.58705,5.35962 -2.7432,10.8613 -3.24882,16.43724 -0.44801,4.94062 -0.3853,9.93954 0.36473,14.84166 0.53199,3.477 1.40976,6.9053 2.69284,10.18001 1.22295,3.12125 2.81413,6.10297 4.73517,8.84945 1.99037,2.84559 4.33485,5.43866 6.91183,7.76937 2.15977,1.95336 4.48285,3.72244 6.94552,5.2646 2.84265,1.78009 5.87128,3.25782 8.95891,4.57619 4.11537,1.7572 8.33557,3.23128 12.55846,4.69826 7.01149,2.43572 14.0304,4.85187 20.94731,7.53978 5.72141,2.22334 11.37303,4.63261 16.92906,7.24722 5.18149,2.43835 10.27985,5.05529 15.22519,7.94543 3.68621,2.15428 7.28741,4.46035 10.74499,6.95801 3.36672,2.43202 6.59726,5.0457 9.70446,7.82261 2.61429,2.3364 5.14126,4.78834 7.26735,7.56117 1.10816,1.44526 2.10741,2.97769 3.03238,4.54804 1.01586,1.72467 1.94212,3.49507 2.79627,5.31244 0.67296,1.43185 1.30115,2.89285 1.68697,4.41883 0.3301,1.30557 0.48278,2.65871 0.54314,4.01011 0.0609,1.36398 0.0278,2.72619 -0.15804,4.0813 -0.15335,1.11823 -0.4107,2.23163 -0.82455,3.26796 -1.27662,3.19682 -4.04247,5.66027 -6.92917,7.75111 -3.94192,2.85514 -8.10921,5.01547 -12.47634,6.77529 -5.17735,2.08633 -10.63557,3.60978 -16.13941,4.77634 -3.5616,0.75489 -7.1423,1.36034 -10.74764,1.76595 -4.0069,0.45079 -8.04422,0.65475 -12.0801,0.77411 -6.44583,0.19062 -12.88796,0.16543 -19.33242,0.16111 -6.82227,-0.005 -13.64714,0.0142 -20.46561,-0.19004 -6.39814,-0.19168 -12.79066,-0.57977 -19.17668,-1.03901 -10.65587,-0.76629 -21.29368,-1.73065 -31.93583,-2.64987 -4.71039,-0.40686 -9.42163,-0.80487 -14.13306,-1.19967 -4.26983,-0.35779 -8.53981,-0.71294 -12.81113,-1.05391 -2.90498,-0.2319 -5.81058,-0.45724 -8.71597,-0.68 -1.89321,-0.14516 -3.78633,-0.28923 -5.67929,-0.44583 -1.6182,-0.13388 -3.23629,-0.27692 -4.84996,-0.44 -0.99077,-0.10012 -1.97987,-0.20781 -2.97075,-0.33879 -7.00603,-0.92608 -14.1012,-3.01681 -19.95493,-6.9809 -5.3465,-3.62059 -9.6574,-8.80393 -12.70776,-14.53774 -3.85193,-7.2405 -5.69381,-15.35876 -6.65176,-23.45791 -0.35693,-3.01775 -0.59115,-6.03284 -0.73094,-9.05558 -0.1775,-3.83818 -0.20275,-7.6887 -0.14127,-11.53502 0.067,-4.19382 0.2372,-8.38267 0.40736,-12.57151"
       style="fill:none;stroke:#000000"
       id="path68"
       inkscape:connector-curvature="0" />
    <path
       d="m 439.95312,595.27237 c -0.81121,0.49159 -1.62242,0.98319 -2.43949,1.46495 -0.81703,0.48174 -1.63993,0.95364 -2.46835,1.41551 -0.82846,0.46189 -1.66246,0.91376 -2.49645,1.36563"
       style="fill:none;stroke:#000000"
       id="path70"
       inkscape:connector-curvature="0" />
    <path
       d="m 292.1875,651.87978 -2.69141,-2.71288"
       style="fill:none;stroke:#000000"
       id="path72"
       inkscape:connector-curvature="0" />
    <path
       d="m 289.49609,649.1669 1.01563,-3.13087"
       style="fill:none;stroke:#000000"
       id="path74"
       inkscape:connector-curvature="0" />
    <path
       d="m 432.54883,599.51846 c -0.0253,1.05624 -0.0506,2.11249 -0.0691,3.16886 -0.0196,1.11628 -0.0316,2.23269 -0.0388,3.34915 -0.008,1.19126 -0.01,2.38256 -0.0112,3.57379 -0.003,3.28794 0.002,6.57527 0.0802,9.86387 0.05,2.08882 0.12968,4.17815 0.32263,6.25711 0.16743,1.80403 0.42012,3.60025 0.70652,5.39074 0.39155,2.44785 0.84612,4.88496 1.3921,7.30141 0.49449,2.18855 1.06397,4.36014 1.70999,6.51113 0.601,2.0011 1.26825,3.98437 2.0776,5.90816 0.67823,1.6121 1.45625,3.18243 2.28638,4.72392 0.91688,1.70257 1.89733,3.36995 2.93425,4.99902 0.74016,1.16282 1.50908,2.30612 2.44539,3.33761 0.16915,0.18634 0.34376,0.36904 0.50243,0.55344 0.12586,0.14629 0.24168,0.29364 0.3587,0.47217 0.0631,0.0962 0.1265,0.20153 0.13691,0.28883 0.033,0.27674 -0.46667,0.37279 -0.89029,0.48361 -1.05877,0.27696 -1.64252,0.64613 -2.33386,0.98247 -0.95805,0.46609 -2.1227,0.86912 -3.27194,1.26829 -5.79153,2.0116 -11.19172,3.92505 -16.78993,5.55237 -5.61012,1.63078 -11.41911,2.97421 -17.23551,4.12312 -6.25647,1.23583 -12.5215,2.24661 -18.83003,2.96905 -1.96121,0.2246 -3.92662,0.42133 -5.90093,0.54717 -2.60102,0.16579 -5.21748,0.20854 -7.80283,0.2683 -4.00975,0.0927 -7.94466,0.22629 -12.10874,0.0712 -4.30503,-0.16029 -8.85501,-0.6291 -12.5186,-0.0725 -1.68744,0.2564 -3.18683,0.73035 -5.75929,-0.28078 -0.49855,-0.19596 -1.0374,-0.4477 -0.95258,-0.58426 0.0617,-0.0994 0.45405,-0.13781 0.79413,-0.1767 0.79278,-0.0906 1.30178,-0.18402 1.87765,-0.26682 0.78103,-0.11229 1.68508,-0.20512 2.55478,-0.29866 1.48249,-0.15946 2.86515,-0.32099 4.34245,-0.60628 0.76752,-0.14823 1.56059,-0.32986 2.12403,-0.82322 0.40001,-0.35027 0.68428,-0.85765 0.81868,-1.39473 0.14993,-0.59913 0.11333,-1.2352 -0.0809,-1.80231 -0.26735,-0.78083 -0.83344,-1.43094 -1.4207,-2.0376 -0.97511,-1.0073 -2.00858,-1.89477 -3.08439,-2.73822 -4.21827,-3.30716 -9.08739,-5.93737 -14.23941,-7.66668 -5.11622,-1.71731 -10.51141,-2.54619 -15.87159,-2.45145 -5.1133,0.0904 -10.19473,1.02128 -14.99251,3.15134 -0.65479,0.29071 -1.3043,0.60375 -1.92016,0.82746 -0.44336,0.16105 -0.86928,0.2758 -1.39832,0.55711 -0.21007,0.11169 -0.4364,0.24965 -0.5741,0.16621 -0.0889,-0.0539 -0.14087,-0.20002 -0.19732,-0.33161 -0.12478,-0.29088 -0.27148,-0.5106 -0.40995,-0.74799 -0.18432,-0.31602 -0.35404,-0.66333 -0.53336,-1.00242 -0.62799,-1.18754 -1.37375,-2.27421 -2.14843,-3.34625 -0.98451,-1.36242 -2.01574,-2.70123 -3.10625,-3.98633 -1.07343,-1.26498 -2.2043,-2.47792 -3.33516,-3.69087"
       style="fill:none;stroke:#000000"
       id="path76"
       inkscape:connector-curvature="0" />
    <path
       d="m 290.51172,646.03603 c 0.54821,-1.97934 1.09643,-3.95868 1.56785,-5.95602 0.57525,-2.43722 1.03616,-4.90124 1.45741,-7.37266 0.39203,-2.29999 0.7497,-4.60639 0.97864,-6.92523 0.27233,-2.75823 0.36253,-5.53405 0.42645,-8.30841 0.0849,-3.68299 0.12342,-7.3634 0.0841,-11.04372 -0.0379,-3.54739 -0.14825,-7.0947 -0.25856,-10.642"
       style="fill:none;stroke:#000000"
       id="path78"
       inkscape:connector-curvature="0" />
    <path
       d="m 294.76758,595.78799 c -0.85243,-0.49364 -1.70486,-0.98728 -2.55101,-1.49156 -0.84612,-0.50424 -1.68595,-1.01913 -2.51916,-1.54443 -0.83325,-0.52533 -1.65986,-1.06108 -2.48647,-1.59683"
       style="fill:none;stroke:#000000"
       id="path80"
       inkscape:connector-curvature="0" />
    <path
       d="m 224.91602,324.39931 5.92187,-5.00195"
       style="fill:none;stroke:#000000"
       id="path82"
       inkscape:connector-curvature="0" />
    <path
       d="m 230.83789,319.39736 -0.0117,-10.61719"
       style="fill:none;stroke:#000000"
       id="path84"
       inkscape:connector-curvature="0" />
    <path
       d="m 287.21094,591.15517 c 0.0287,0.32162 0.0574,0.64323 0.087,0.96475 0.0301,0.32741 0.0612,0.65473 0.0904,0.98224 0.0256,0.28709 0.0497,0.57433 0.0726,0.8616 0.32924,4.14493 0.38204,8.299 0.37775,12.4697 -0.005,4.66445 -0.081,9.3497 -0.28827,13.94931 -0.15145,3.3607 -0.37288,6.67568 -0.84534,10.15913 -0.2859,2.10791 -0.66371,4.27751 -1.17236,6.05635 -0.44459,1.55482 -0.98915,2.8111 -1.25223,5.2445 -0.11601,1.07306 -0.17729,2.37503 -0.80783,2.23625 -0.14978,-0.033 -0.33168,-0.14722 -0.50364,-0.25564 -0.37617,-0.23715 -0.70475,-0.44631 -1.03801,-0.67013 -0.44297,-0.2975 -0.89421,-0.6209 -1.34703,-0.93947 -3.2502,-2.28654 -6.58215,-4.32428 -10.00195,-6.2378 -3.79373,-2.12275 -7.69555,-4.09265 -11.66975,-5.90027 -3.50448,-1.59398 -7.06523,-3.06177 -10.72283,-4.24082 -2.15139,-0.69352 -4.3363,-1.28714 -6.5358,-1.81259 -2.30396,-0.55041 -4.62394,-1.02601 -6.95532,-1.44864 -2.36091,-0.42799 -4.73351,-0.80166 -7.12021,-1.03175 -2.59752,-0.2504 -5.21174,-0.33073 -7.82244,-0.34609 -3.1506,-0.0185 -6.29609,0.0576 -9.44722,0.20193 -2.41295,0.11056 -4.8292,0.26115 -7.20494,0.66759 -1.64103,0.28075 -3.26273,0.68358 -4.87132,1.11867 -1.71816,0.46473 -3.42136,0.96626 -5.12329,1.5007 -1.24559,0.39113 -2.49051,0.79989 -3.65579,1.37868 -0.98701,0.49025 -1.91688,1.10248 -2.7946,1.77262 -0.89049,0.6799 -1.72729,1.41941 -2.49234,2.24976 -0.59474,0.64552 -1.14612,1.34595 -1.5197,2.12215 -0.75785,1.57463 -0.78397,3.4611 -0.58911,5.26222 0.25755,2.38062 0.90116,4.61212 1.7581,6.77437 1.0243,2.58455 2.35338,5.07016 3.87789,7.41263 1.72452,2.6498 3.6991,5.11643 5.76821,7.50207 2.33509,2.69233 4.79056,5.28151 7.3771,7.72242 2.4619,2.32329 5.04254,4.51225 7.71797,6.61536 0.56539,0.44445 1.13501,0.88506 1.69747,1.3165 0.39916,0.30617 0.79471,0.60773 1.16744,0.98031 0.14145,0.14138 0.27962,0.293 0.38509,0.43171 1.57078,2.06567 -4.10837,1.26834 -8.5656,0.92432 -10.02243,-0.77356 -13.86672,0.74488 -19.29865,1.68673 -6.00264,1.0408 -13.94406,1.37748 -21.34083,1.68972 -6.14359,0.25935 -11.91146,0.50183 -17.7684,0.66117 -7.8451,0.21343 -15.85002,0.27768 -23.81328,0.3867 -4.91908,0.0674 -9.82225,0.15178 -14.71129,-0.13381 -3.9777,-0.23235 -7.94604,-0.70963 -11.90824,-1.20985 -2.64248,-0.3336 -5.28224,-0.6774 -7.90054,-1.14281 -2.32913,-0.41401 -4.64128,-0.92425 -6.93731,-1.51648 -4.56545,-1.17758 -9.06713,-2.67932 -13.34751,-4.60624 -3.69948,-1.66541 -7.23365,-3.64842 -10.53664,-6.15704 -2.4781,-1.8821 -4.82607,-4.06006 -6.1471,-6.78554 -1.20043,-2.47666 -1.55287,-5.40545 -1.3242,-8.21399 0.28003,-3.43949 1.43158,-6.69864 2.95459,-9.75138 1.84167,-3.69148 4.22651,-7.08115 6.90477,-10.20456 5.03287,-5.86937 11.10186,-10.79853 17.51918,-15.13772 8.1039,-5.47961 16.76328,-10.01839 25.64248,-14.04785 11.37949,-5.1641 23.12003,-9.49165 34.92037,-13.58982 3.21513,-1.11659 6.4347,-2.21615 9.62207,-3.41322 2.22863,-0.837 4.44151,-1.72167 6.59132,-2.74105 1.68062,-0.7969 3.32268,-1.67613 4.91942,-2.63478 3.457,-2.07554 6.70151,-4.52339 9.59289,-7.34549 2.71645,-2.65136 5.1212,-5.63305 7.07505,-8.87659 2.01407,-3.3435 3.549,-6.96524 4.77542,-10.68222 0.37713,-1.14302 0.72509,-2.29503 0.94642,-3.47149 0.23855,-1.26799 0.32999,-2.56437 0.38744,-3.85873 0.10149,-2.28626 0.0969,-4.5662 0.09,-6.84946 -0.01,-3.19514 -0.0243,-6.39681 -0.31291,-9.58067 -0.24619,-2.71574 -0.6918,-5.41853 -1.30567,-8.07148 -0.72948,-3.15256 -1.69654,-6.23474 -2.7447,-9.32051 -1.19671,-3.52311 -2.49912,-7.0509 -4.02837,-10.33601 -1.4573,-3.13053 -3.12058,-6.04067 -4.56574,-9.53445 -0.79827,-1.92988 -1.52998,-4.03784 -3.24574,-4.85415 -0.67544,-0.32136 -1.50338,-0.44254 -2.2738,-0.33773 -0.81024,0.11023 -1.55688,0.47042 -2.17408,1.05727 -0.54812,0.52116 -0.99416,1.22107 -0.97009,1.91522 0.0137,0.39528 0.17985,0.78869 0.34193,1.17375 0.29838,0.70891 0.58296,1.38951 0.89661,2.06448 0.39095,0.84131 0.82708,1.67388 1.25756,2.50786 1.62452,3.14723 3.16864,6.31463 4.55814,9.55576 1.36739,3.18956 2.58505,6.45051 3.65011,9.75844 1.01453,3.15103 1.89061,6.34468 2.59839,9.57838 0.301,1.37519 0.57156,2.75762 0.76138,4.15135 0.18744,1.37634 0.29615,2.76369 0.36171,4.15218 0.0886,1.8765 0.0984,3.75509 0.0917,5.63203 -0.006,1.62763 -0.0239,3.25403 -0.0795,4.88396 -0.0421,1.23448 -0.10566,2.47099 -0.23577,3.692 -0.0863,0.81021 -0.20196,1.61361 -0.38783,2.42404 -0.32248,1.40609 -0.85638,2.83337 -1.30507,4.05432 -0.37887,1.03096 -0.69698,1.9148 -1.42908,3.30033 -0.29535,0.55897 -0.65809,1.1996 -0.93187,1.11213 -0.20778,-0.0664 -0.36433,-0.55212 -0.51832,-0.97154 -0.33103,-0.90163 -0.65024,-1.49677 -0.96135,-2.1632 -0.41066,-0.87969 -0.80722,-1.88361 -1.19611,-2.88674 -5.95981,-15.37304 -10.12006,-30.56055 -12.36403,-46.26315 -2.22569,-15.57473 -2.56618,-31.65619 -0.9707,-47.48697 1.59522,-15.82817 5.12577,-31.40575 10.47145,-46.32019 4.03007,-11.2439 9.09179,-22.11091 15.05106,-32.48426 5.94243,-10.34402 12.77734,-20.19717 20.5613,-29.18489 8.04625,-9.29058 17.1066,-17.65642 26.16694,-26.02226"
       style="fill:none;stroke:#000000"
       id="path86"
       inkscape:connector-curvature="0" />
    <path
       d="m 361.87305,179.72939 0,0"
       style="fill:none;stroke:#000000"
       id="path88"
       inkscape:connector-curvature="0" />
    <path
       d="m 230.82617,308.78017 c 0.0152,-1.9951 0.0304,-3.9902 0.0711,-5.98504 0.0372,-1.82881 0.0958,-3.65741 0.19852,-5.48372 0.0712,-1.26655 0.16366,-2.53201 0.28316,-3.79491 0.77059,-8.14404 2.66632,-16.18166 5.24025,-23.97419 2.5375,-7.68226 5.73414,-15.12632 9.63507,-22.19153 3.97039,-7.19103 8.67036,-13.98959 13.97233,-20.27569 8.26239,-9.79602 17.98672,-18.34752 28.74059,-25.42533 10.70773,-7.04744 22.43618,-12.63381 34.67784,-16.04073 12.39209,-3.44877 25.31007,-4.6642 38.22806,-5.87964"
       style="fill:none;stroke:#000000"
       id="path90"
       inkscape:connector-curvature="0" />
    <path
       d="m 416.45508,213.44619 0,0"
       style="fill:none;stroke:#000000"
       id="path92"
       inkscape:connector-curvature="0" />
    <path
       d="m 416.45508,213.44619 c -3.968,0.40145 -7.936,0.80291 -11.73778,1.88807 -3.83269,1.09399 -7.49644,2.88285 -10.82936,5.13554 -3.25603,2.20071 -6.19633,4.8441 -8.66333,7.87678 -1.80891,2.2237 -3.36335,4.6567 -4.61628,7.23875 -1.18867,2.44965 -2.10595,5.03345 -2.69333,7.68696 -0.61204,2.76488 -0.8659,5.60544 -0.87789,8.44147 -0.009,2.0506 0.10912,4.09884 0.41567,6.12246 0.28533,1.88349 0.73418,3.74566 1.33995,5.55222 0.63674,1.8989 1.44686,3.73635 2.39086,5.50696 1.92116,3.60342 4.39684,6.92999 7.33194,9.77358 2.9532,2.8611 6.37149,5.23325 10.05542,7.07206 3.78954,1.89153 7.86015,3.2187 12.04428,3.85358 5.42628,0.82337 11.04349,0.48241 16.37414,-0.91834 5.32427,-1.39907 10.36268,-3.85539 14.69577,-7.23509 4.28222,-3.34003 7.8756,-7.58189 10.50627,-12.31532 0.98876,-1.77909 1.84151,-3.62763 2.49143,-5.55085 0.58303,-1.72528 1.00283,-3.51067 1.24447,-5.31438 0.29024,-2.16644 0.32347,-4.35931 0.34222,-6.54687 0.0136,-1.58296 0.0195,-3.16314 -0.0808,-4.74323 -0.0664,-1.04529 -0.1793,-2.09053 -0.39017,-3.11394 -0.21981,-1.0668 -0.54606,-2.10988 -0.90795,-3.14284 -1.65639,-4.72798 -4.05928,-9.24414 -7.27298,-13.08837 -3.14623,-3.76353 -7.06958,-6.88305 -11.41207,-9.20063 -4.58445,-2.44672 -9.63606,-3.99965 -14.7544,-4.66998 -0.54974,-0.072 -1.10025,-0.13381 -1.65219,-0.18207 -0.5544,-0.0485 -1.11025,-0.0833 -1.66647,-0.1021 -0.55889,-0.0189 -1.11816,-0.0217 -1.67743,-0.0244"
       style="fill:none;stroke:#000000"
       id="path94"
       inkscape:connector-curvature="0" />
    <path
       d="m 309.33008,213.50478 0,0"
       style="fill:none;stroke:#000000"
       id="path96"
       inkscape:connector-curvature="0" />
    <path
       d="m 309.33008,213.50478 c -3.98103,0.49357 -7.96206,0.98713 -11.7577,2.17661 -3.7954,1.1894 -7.40542,3.07463 -10.66425,5.40708 -3.18908,2.28253 -6.04182,4.99333 -8.41008,8.13506 -5.27946,7.00374 -8.1512,16.14902 -7.59008,24.95544 0.53173,8.3451 4.14608,16.38592 9.8207,22.68306 6.22494,6.90781 14.92914,11.71735 23.92172,12.76579 1.52476,0.17777 3.0578,0.24742 4.59053,0.25333 1.9758,0.008 3.95107,-0.0906 5.92042,-0.26932 1.63088,-0.14795 3.25769,-0.35104 4.86014,-0.68322 4.65532,-0.96502 9.105,-3.01958 13.07016,-5.69783 3.87833,-2.6196 7.29312,-5.83587 10.14803,-9.56583 2.83673,-3.70618 5.12069,-7.9195 6.149,-12.41797 0.42409,-1.85522 0.6346,-3.75894 0.76777,-5.66297 0.16554,-2.36686 0.21155,-4.7342 0.10059,-7.10318 -0.0837,-1.78704 -0.25673,-3.57502 -0.6125,-5.32371 -1.09362,-5.37546 -3.914,-10.37961 -7.46413,-14.68497 -3.37673,-4.09508 -7.41367,-7.55796 -12.01798,-10.05337 -4.83165,-2.61863 -10.2881,-4.1719 -15.7464,-4.73236 -0.56236,-0.0577 -1.12475,-0.10495 -1.6883,-0.13908 -0.56471,-0.0342 -1.13059,-0.0553 -1.69642,-0.0602 -0.56711,-0.005 -1.13417,0.006 -1.70122,0.0177"
       style="fill:none;stroke:#000000"
       id="path98"
       inkscape:connector-curvature="0" />
    <path
       d="m 417.11523,220.23525 0,0"
       style="fill:none;stroke:#000000"
       id="path100"
       inkscape:connector-curvature="0" />
    <path
       d="m 417.11523,220.23525 c 1.0941,0.0411 2.18819,0.0823 3.27636,0.19278 1.1021,0.11189 2.19813,0.2949 3.2816,0.52959 1.10175,0.23865 2.19051,0.53075 3.26431,0.87725 4.31349,1.39187 8.3856,3.66151 11.83239,6.6602 3.29121,2.86333 6.01228,6.39137 7.82306,10.33901 1.81902,3.96561 2.71944,8.35464 2.82697,12.71368 0.0414,1.67782 -0.0347,3.35121 -0.27972,5.0053 -0.21511,1.45224 -0.56045,2.88961 -1.03665,4.27751 -0.56384,1.6433 -1.31114,3.21724 -2.08988,4.77382 -0.5376,1.07459 -1.09019,2.1409 -1.73456,3.1518 -0.55779,0.87507 -1.18436,1.70862 -1.85992,2.49777 -0.8093,0.94538 -1.68892,1.82705 -2.60278,2.67269 -1.5383,1.42348 -3.17363,2.74486 -4.92115,3.90105 -1.72641,1.14222 -3.56233,2.1232 -5.47472,2.9182 -1.84823,0.76833 -3.76789,1.36293 -5.72718,1.7745 -2.41221,0.50672 -4.88449,0.73601 -7.34958,0.6891 -2.4218,-0.0461 -4.83667,-0.35876 -7.19428,-0.91447 -2.45253,-0.57808 -4.84311,-1.41915 -7.10848,-2.52658 -2.79704,-1.36733 -5.4032,-3.1407 -7.70393,-5.23576 -2.34157,-2.13226 -4.36678,-4.59773 -6.04902,-7.29937 -1.62796,-2.61447 -2.93473,-5.45011 -3.6201,-8.42971 -0.37827,-1.6445 -0.56725,-3.33286 -0.6417,-5.0226 -0.0827,-1.87722 -0.0241,-3.75616 0.1832,-5.62224 0.18771,-1.69003 0.49731,-3.36951 0.96826,-5.00164 1.30414,-4.51967 3.84549,-8.67623 7.09272,-12.19496 3.17149,-3.43664 7.01631,-6.26485 11.25312,-7.95073 4.26566,-1.69735 8.92866,-2.23677 13.59166,-2.77619"
       style="fill:none;stroke:#000000"
       id="path102"
       inkscape:connector-curvature="0" />
    <path
       d="m 310.2793,220.27626 0,0"
       style="fill:none;stroke:#000000"
       id="path104"
       inkscape:connector-curvature="0" />
    <path
       d="m 310.2793,220.27626 c 0.23136,0.001 0.46271,0.002 0.69403,0.006 0.23333,0.004 0.46663,0.0115 0.6998,0.0209 0.23535,0.01 0.47059,0.0211 0.70578,0.0352 3.61654,0.21549 7.22426,0.99236 10.61762,2.3103 3.29903,1.28131 6.39544,3.07402 9.12836,5.31704 2.70862,2.22307 5.06018,4.88848 6.88683,7.88633 2.39139,3.92468 3.88312,8.41916 4.31285,13.01091 0.4208,4.49625 -0.17668,9.08577 -1.75598,13.30665 -1.62172,4.33429 -4.27873,8.27986 -7.55101,11.5301 -1.25497,1.24651 -2.60044,2.39075 -4.03256,3.4174 -1.32977,0.95328 -2.73426,1.80517 -4.19509,2.54762 -1.55299,0.7893 -3.16966,1.45491 -4.8329,1.96661 -1.76712,0.54367 -3.58681,0.9136 -5.42168,1.15607 -2.02957,0.26819 -4.07771,0.38044 -6.12281,0.33202 -1.84026,-0.0436 -3.67806,-0.21721 -5.48871,-0.56426 -5.86066,-1.12331 -11.43686,-4.06328 -15.87859,-8.17479 -4.17439,-3.86402 -7.34678,-8.7628 -8.9586,-14.19363 -1.63184,-5.49829 -1.66409,-11.54194 -0.007,-16.99291 0.84611,-2.78252 2.13253,-5.4106 3.72928,-7.83168 1.65607,-2.51103 3.64596,-4.7994 5.90595,-6.78656 2.22287,-1.95453 4.70706,-3.61767 7.36086,-4.91105 1.54433,-0.75267 3.14611,-1.38012 4.7849,-1.90291 1.52952,-0.48793 3.09128,-0.8847 4.6744,-1.1172 1.56733,-0.23019 3.15558,-0.29938 4.74383,-0.36857"
       style="fill:none;stroke:#000000"
       id="path106"
       inkscape:connector-curvature="0" />
    <path
       d="m 321.26758,247.48915 0,0"
       style="fill:none;stroke:#000000"
       id="path108"
       inkscape:connector-curvature="0" />
    <path
       d="m 321.26758,247.48915 c -2.0568,0.26003 -4.11361,0.52006 -5.90835,1.43262 -1.64917,0.83854 -3.07707,2.22804 -4.03616,3.86231 -1.00049,1.70484 -1.49081,3.67604 -1.47932,5.63672 0.009,1.53983 0.32755,3.07318 0.94857,4.47737 0.60467,1.36725 1.49613,2.61206 2.59455,3.62317 1.1251,1.03566 2.46735,1.82614 3.92563,2.32914 2.88018,0.99346 6.21295,0.86552 9.00419,-0.44784 2.56701,-1.20785 4.67599,-3.41832 5.65683,-6.06154 1.03395,-2.78634 0.81429,-6.05357 -0.44032,-8.7289 -0.59792,-1.275 -1.43091,-2.41556 -2.46603,-3.35682 -1.00104,-0.91027 -2.19113,-1.63416 -3.45956,-2.0633 -1.38446,-0.46839 -2.86225,-0.58566 -4.34003,-0.70293"
       style="fill:none;stroke:#000000"
       id="path110"
       inkscape:connector-curvature="0" />
    <path
       d="m 407.92578,247.48915 0,0"
       style="fill:none;stroke:#000000"
       id="path112"
       inkscape:connector-curvature="0" />
    <path
       d="m 407.92578,247.48915 c -1.34294,0.0909 -2.68587,0.18186 -3.95873,0.5612 -1.16793,0.34806 -2.27685,0.93894 -3.25588,1.69068 -1.02139,0.78425 -1.90141,1.74358 -2.57445,2.83211 -0.58324,0.94329 -1.01106,1.98361 -1.28329,3.05834 -0.28786,1.13639 -0.40177,2.31126 -0.35676,3.48873 0.0425,1.11262 0.22695,2.22757 0.6381,3.25176 0.38313,0.95443 0.96315,1.83005 1.62133,2.62816 0.7198,0.87284 1.5331,1.65298 2.43261,2.3425 0.8249,0.63231 1.72231,1.18841 2.6941,1.52739 0.94095,0.32821 1.95165,0.45288 2.9566,0.50042 1.14416,0.0541 2.28088,0.008 3.41021,-0.16135 0.96059,-0.14429 1.91583,-0.37815 2.79921,-0.77266 1.26666,-0.56569 2.38557,-1.46167 3.326,-2.50501 0.92551,-1.02679 1.67814,-2.1963 2.1826,-3.46813 0.50716,-1.27866 0.76347,-2.66076 0.79413,-4.0425 0.0209,-0.94252 -0.0632,-1.88488 -0.28706,-2.79551 -0.20774,-0.84493 -0.53584,-1.66255 -0.96,-2.42432 -0.47278,-0.84909 -1.06489,-1.62881 -1.74122,-2.32703 -0.68604,-0.70825 -1.45872,-1.33264 -2.3082,-1.83392 -0.89131,-0.52598 -1.86716,-0.91641 -2.87087,-1.15163 -1.06522,-0.24963 -2.16183,-0.32443 -3.25843,-0.39923"
       style="fill:none;stroke:#000000"
       id="path114"
       inkscape:connector-curvature="0" />
    <path
       d="m 260.72266,359.09853 0.88476,3.27149"
       style="fill:none;stroke:#000000"
       id="path116"
       inkscape:connector-curvature="0" />
    <path
       d="m 261.60742,362.37002 -3.20508,3.34374"
       style="fill:none;stroke:#000000"
       id="path118"
       inkscape:connector-curvature="0" />
    <path
       d="m 394.75586,295.53798 c -3.01949,-0.003 -6.03897,-0.006 -9.05845,-0.003 -3.66412,0.003 -7.32823,0.0139 -10.99238,0.0235 -4.38804,0.0114 -8.77614,0.0207 -13.16401,0.0405 -11.57384,0.0522 -23.14614,0.17745 -34.72235,0.15868 -5.19171,-0.008 -10.38421,-0.0458 -15.56986,0.28505 -1.83925,0.11734 -3.67764,0.281 -5.49295,0.57774 -4.12519,0.67433 -8.13123,2.03586 -12.00557,3.66068 -3.56903,1.49678 -7.0263,3.21698 -10.28398,5.28429 -3.2075,2.03547 -6.22151,4.40743 -8.90967,7.08629 -1.44632,1.4413 -2.79831,2.97145 -4.10935,4.54191 -1.39525,1.67131 -2.74413,3.38827 -3.91468,5.21196 -0.89106,1.38824 -1.67878,2.83833 -2.51503,4.27737 -0.22382,0.38516 -0.45112,0.76953 -0.7351,1.10608 -0.37029,0.43886 -0.83696,0.79642 -1.31668,1.12487 -0.66347,0.45426 -1.35192,0.85286 -2.03611,1.26125 -4.90141,2.9256 -9.58422,6.3537 -13.65787,10.38569 -3.97603,3.93537 -7.37174,8.44604 -10.02085,13.418 -2.60041,4.88057 -4.48142,10.20563 -5.63183,15.44435 -0.42065,1.91553 -0.74361,3.8195 -0.74714,5.96431 -0.002,1.18387 0.0934,2.44111 0.80595,3.21847 0.57182,0.62387 1.54111,0.93867 2.48221,0.9637 0.69502,0.0185 1.37465,-0.12104 1.90566,-0.48521 0.55204,-0.37858 0.94344,-0.99993 1.21799,-1.64189 0.42508,-0.99392 0.57009,-2.03725 0.73767,-3.07798 0.57613,-3.57787 1.41911,-7.1249 2.65834,-10.55162 1.21472,-3.35893 2.81017,-6.60228 4.6883,-9.58045 1.86388,-2.95559 4.00616,-5.65 6.56743,-8.30152 1.23614,-1.27969 2.56987,-2.5494 3.71269,-3.50924 0.98507,-0.82735 1.82831,-1.42447 3.37814,-2.82471 0.67865,-0.61315 1.49278,-1.38029 1.65917,-0.98245 0.0569,0.13611 0.038,0.40861 0.0225,0.65935 -0.0375,0.60389 -0.0557,1.08161 -0.0897,1.58639 -0.0466,0.6919 -0.12304,1.43465 -0.18278,2.17028 -0.14721,1.81249 -0.19329,3.58178 -0.15401,5.36401 0.0411,1.86644 0.17588,3.74708 0.44854,5.60182 0.2522,1.71561 0.62239,3.40907 0.99258,5.10252"
       style="fill:none;stroke:#000000"
       id="path120"
       inkscape:connector-curvature="0" />
    <path
       d="m 258.40234,365.71376 c -2.73319,3.24343 -5.46638,6.48685 -7.73877,10.03547 -2.22036,3.46734 -4.00078,7.22606 -5.36187,11.16142 -1.27764,3.69406 -2.1858,7.54377 -2.53217,11.34413 -0.087,0.95454 -0.13856,1.90596 -0.0543,2.91891 0.0536,0.64449 0.16212,1.31389 0.52875,1.78063 0.29533,0.37597 0.75812,0.62044 1.22091,0.86491"
       style="fill:none;stroke:#000000"
       id="path122"
       inkscape:connector-curvature="0" />
    <path
       d="m 244.46484,403.81923 c 0.66195,-1.14483 1.3239,-2.28966 2.00501,-3.42315 0.68104,-1.13338 1.38123,-2.25543 2.10002,-3.36525 0.71886,-1.10993 1.45633,-2.20764 2.1938,-3.30535"
       style="fill:none;stroke:#000000"
       id="path124"
       inkscape:connector-curvature="0" />
    <path
       d="m 262.32031,371.85634 2.26953,-2.57616"
       style="fill:none;stroke:#000000"
       id="path126"
       inkscape:connector-curvature="0" />
    <path
       d="m 264.58984,369.28018 1.86133,2.94335"
       style="fill:none;stroke:#000000"
       id="path128"
       inkscape:connector-curvature="0" />
    <path
       d="m 250.76367,393.72548 c 0.7563,-2.56921 1.5126,-5.13842 2.51951,-7.61521 1.04936,-2.58122 2.37091,-5.06205 3.89965,-7.39408 1.56731,-2.39089 3.35239,-4.62537 5.13748,-6.85985"
       style="fill:none;stroke:#000000"
       id="path130"
       inkscape:connector-curvature="0" />
    <path
       d="m 266.45117,372.22353 c 0.1131,0.17692 0.22619,0.35383 0.3409,0.5297 0.11639,0.17847 0.23444,0.35586 0.3537,0.53242 0.12051,0.17843 0.24226,0.356 0.364,0.53358"
       style="fill:none;stroke:#000000"
       id="path132"
       inkscape:connector-curvature="0" />
    <path
       d="m 267.50977,373.81923 c 0.54728,-0.51868 1.09456,-1.03736 1.64679,-1.55077 0.55221,-0.51338 1.10937,-1.02149 1.67133,-1.52418 0.56198,-0.50271 1.12877,-1.00001 1.69555,-1.4973"
       style="fill:none;stroke:#000000"
       id="path134"
       inkscape:connector-curvature="0" />
    <path
       d="m 271.12305,366.89737 -1.13477,-2.16017"
       style="fill:none;stroke:#000000"
       id="path136"
       inkscape:connector-curvature="0" />
    <path
       d="m 269.98828,364.7372 1.19922,-0.91016"
       style="fill:none;stroke:#000000"
       id="path138"
       inkscape:connector-curvature="0" />
    <path
       d="m 272.52344,369.24698 c -0.17241,-0.26794 -0.34481,-0.53588 -0.51303,-0.80649 -0.1611,-0.25913 -0.31835,-0.52071 -0.46955,-0.78571 -0.14288,-0.25044 -0.28034,-0.50393 -0.41781,-0.75741"
       style="fill:none;stroke:#000000"
       id="path140"
       inkscape:connector-curvature="0" />
    <path
       d="m 271.1875,363.82704 c 0.98225,-0.65009 1.96451,-1.30018 2.97104,-1.91015 1.32917,-0.8055 2.70067,-1.54103 4.08393,-2.25331 1.26294,-0.65033 2.53569,-1.28128 3.83761,-1.8463 0.99534,-0.43196 2.00772,-0.82539 3.03091,-1.18902 0.9906,-0.35205 1.99133,-0.67616 3.00462,-0.95297 1.01811,-0.27813 2.0489,-0.5085 3.0797,-0.73886"
       style="fill:none;stroke:#000000"
       id="path142"
       inkscape:connector-curvature="0" />
    <path
       d="m 291.19531,354.93643 c 1.60586,-0.97898 3.21171,-1.95795 4.84044,-2.89814 1.62841,-0.94 3.27968,-1.84123 4.95119,-2.70225 1.67185,-0.86119 3.36394,-1.68216 5.05603,-2.50314"
       style="fill:none;stroke:#000000"
       id="path144"
       inkscape:connector-curvature="0" />
    <path
       d="m 267.28516,336.92471 0.88867,-3.28712"
       style="fill:none;stroke:#000000"
       id="path146"
       inkscape:connector-curvature="0" />
    <path
       d="m 268.17383,333.63759 2.79883,-1.0039"
       style="fill:none;stroke:#000000"
       id="path148"
       inkscape:connector-curvature="0" />
    <path
       d="m 306.04297,346.8329 c -0.20999,-0.004 -0.41998,-0.007 -0.62998,-0.0106 -0.22262,-0.004 -0.44524,-0.007 -0.66787,-0.009 -0.25813,-0.003 -0.51628,-0.004 -0.77442,-0.004 -4.0601,0.003 -8.11925,0.39679 -12.1277,1.13102 -3.94546,0.7227 -7.8418,1.77545 -11.54684,3.22565 -3.48341,1.36345 -6.79772,3.07823 -10.06764,5.0691 -0.46617,0.28383 -0.93144,0.57327 -1.3753,0.83115 -0.31894,0.1853 -0.62682,0.35431 -1.04056,0.50046 -0.1736,0.0613 -0.36584,0.11862 -0.48063,0.061 -0.15778,-0.0792 -0.16926,-0.37564 -0.1981,-0.63573 -0.0589,-0.53084 -0.19004,-0.91043 -0.2997,-1.32559 -0.14206,-0.53781 -0.24804,-1.13531 -0.33618,-1.72812 -0.26812,-1.80337 -0.37113,-3.56339 -0.3971,-5.34079 -0.0305,-2.09045 0.0455,-4.20494 0.29124,-6.29202 0.21281,-1.80733 0.55289,-3.5941 0.89297,-5.38086"
       style="fill:none;stroke:#000000"
       id="path150"
       inkscape:connector-curvature="0" />
    <path
       d="m 460.67969,355.24501 -0.63477,2.81055"
       style="fill:none;stroke:#000000"
       id="path152"
       inkscape:connector-curvature="0" />
    <path
       d="m 460.04492,358.05556 -2.17969,-1.44141"
       style="fill:none;stroke:#000000"
       id="path154"
       inkscape:connector-curvature="0" />
    <path
       d="m 270.97266,332.63369 c 2.48418,-0.76468 4.96836,-1.52935 7.49814,-2.10328 2.71641,-0.61627 5.4854,-1.01262 8.26476,-1.2718 2.82995,-0.2639 5.67065,-0.38561 8.50663,-0.3593 0.5369,0.005 1.07363,0.0153 1.61046,-0.0679 0.36271,-0.0562 0.72546,-0.15498 1.03701,-0.33271 0.30293,-0.1728 0.55745,-0.42022 0.79198,-0.70295 0.6025,-0.7263 1.07309,-1.6856 0.93382,-2.55511 -0.12776,-0.79764 -0.76872,-1.51973 -1.49166,-2.00069 -1.07438,-0.71478 -2.32981,-0.89701 -3.57497,-0.98717 -1.84258,-0.1334 -3.66269,-0.0652 -5.48804,0.0393 -2.22559,0.12736 -4.45896,0.30858 -6.66596,0.58473 -1.85567,0.23218 -3.69269,0.53148 -5.54913,0.92872 -0.62912,0.13462 -1.26047,0.28049 -1.86039,0.41758 -0.42352,0.0968 -0.83137,0.18918 -1.32685,0.22653 -0.18637,0.014 -0.38513,0.0203 -0.50612,-0.0133 -0.54621,-0.15149 0.49288,-1.11451 1.27709,-1.89567 1.51677,-1.51087 2.08007,-2.34141 2.93074,-3.30987 0.8752,-0.99639 2.0546,-2.13877 3.23358,-3.19876 2.41769,-2.17367 4.83361,-4.00083 7.45312,-5.60795 2.65064,-1.62622 5.50973,-3.02713 8.4373,-4.22963 3.17645,-1.30472 6.43353,-2.37586 9.78145,-3.03156 1.69097,-0.33118 3.40511,-0.55638 5.12275,-0.71389 4.71843,-0.43268 9.46325,-0.35458 14.20472,-0.32213 11.40124,0.0781 22.78307,-0.10787 34.16472,-0.17687 12.71921,-0.0771 25.43821,-0.008 38.18023,-0.0312 5.87856,-0.0106 11.76202,-0.0408 17.60525,0.57214 2.99681,0.31437 5.98304,0.79791 8.89812,1.56065 3.86587,1.01153 7.60661,2.51411 11.17569,4.31686 3.58178,1.80918 6.99067,3.92067 10.02228,6.64148 2.88268,2.58715 5.42423,5.72522 7.86257,8.29949 0.28236,0.2981 0.56334,0.58864 0.7485,1.09199 0.0519,0.14119 0.0963,0.29911 0.0613,0.36624 -0.0572,0.10979 -0.32682,-0.0233 -0.58913,-0.14769 -3.8552,-1.82805 -6.13778,-1.77154 -8.74169,-1.80653 -2.93328,-0.0394 -6.27432,-0.19496 -10.04119,-0.53614 -2.31287,-0.20948 -4.78627,-0.48896 -6.09017,1.01455 -0.32363,0.37317 -0.57522,0.85618 -0.70812,1.35901 -0.15905,0.60177 -0.14811,1.23191 -0.01,1.83395 0.12227,0.5326 0.34415,1.04321 0.69263,1.46718 0.22309,0.27142 0.49805,0.50734 0.80525,0.65602 0.54675,0.26463 1.19561,0.25298 1.83153,0.25024 1.70923,-0.007 3.32499,0.0498 4.96673,0.13281 3.03853,0.15369 6.16606,0.39614 9.15418,0.87266 2.77347,0.4423 5.42684,1.08624 8.33763,1.82544 1.82931,0.46456 3.76029,0.96674 4.89101,2.2023 1.12795,1.23252 1.45955,3.19483 1.7391,5.0603 0.44303,2.95635 0.75533,5.66952 0.73947,8.44752 -0.0147,2.578 -0.31208,5.21184 -0.60943,7.84568"
       style="fill:none;stroke:#000000"
       id="path156"
       inkscape:connector-curvature="0" />
    <path
       d="m 457.86523,356.61415 c -1.50082,-0.87454 -3.00165,-1.74909 -4.54267,-2.5465 -1.84146,-0.95286 -3.74032,-1.79558 -5.66173,-2.58277 -1.73819,-0.71212 -3.49484,-1.3788 -5.28583,-1.93713 -1.57092,-0.48972 -3.16827,-0.89608 -4.77718,-1.24949 -1.58359,-0.34785 -3.17839,-0.6444 -4.78349,-0.85988 -1.62508,-0.21816 -3.26072,-0.35322 -4.89636,-0.48828"
       style="fill:none;stroke:#000000"
       id="path158"
       inkscape:connector-curvature="0" />
    <path
       d="m 427.91797,346.9501 c 2.50598,1.25067 5.01197,2.50134 7.47142,3.84039 2.45836,1.33846 4.87021,2.76522 7.22707,4.27525 2.35791,1.51071 4.66076,3.10476 6.96362,4.6988"
       style="fill:none;stroke:#000000"
       id="path160"
       inkscape:connector-curvature="0" />
    <path
       d="m 449.58008,359.76454 c 0.56496,0.29646 1.12993,0.59291 1.68801,0.90227 0.55357,0.30686 1.10037,0.62642 1.63812,0.95965 0.53319,0.3304 1.05748,0.67423 1.58402,1.017 0.40426,0.26316 0.80984,0.52569 1.19944,0.80624 0.31331,0.22562 0.61629,0.4629 0.96463,0.64828 0.18826,0.10019 0.38978,0.18522 0.52148,0.35016 0.0471,0.059 0.0853,0.12823 0.10135,0.20052 0.0251,0.11293 -0.004,0.23336 -0.0364,0.34905 -0.0464,0.16433 -0.10061,0.3191 -0.15479,0.47387"
       style="fill:none;stroke:#000000"
       id="path162"
       inkscape:connector-curvature="0" />
    <path
       d="m 462.29102,370.16104 0.61132,-0.91212"
       style="fill:none;stroke:#000000"
       id="path164"
       inkscape:connector-curvature="0" />
    <path
       d="m 462.90234,369.24892 1.42578,1.61523"
       style="fill:none;stroke:#000000"
       id="path166"
       inkscape:connector-curvature="0" />
    <path
       d="m 457.08594,365.47158 c 0.58862,0.50955 1.17725,1.0191 1.76078,1.53445 0.58352,0.51533 1.16196,1.03646 1.73515,1.56325 0.57321,0.52681 1.14118,1.05928 1.70915,1.59176"
       style="fill:none;stroke:#000000"
       id="path168"
       inkscape:connector-curvature="0" />
    <path
       d="m 464.32812,370.86415 c 0.43553,0.50641 0.87105,1.01282 1.30173,1.52378 0.42773,0.50746 0.85067,1.01942 1.24181,1.55551 0.3884,0.53234 0.74544,1.08848 1.18107,1.58479 2e-4,2.2e-4 4e-4,4.5e-4 6.3e-4,6.6e-4 2.3e-4,2.1e-4 4.8e-4,4e-4 7.1e-4,6.1e-4 2.2e-4,2.1e-4 4.2e-4,4.4e-4 6.2e-4,6.7e-4 1.89589,2.18626 3.92324,4.23824 5.8364,6.39677 1.91226,2.15752 3.71043,4.42148 5.43152,6.73874 1.72189,2.31835 3.36663,4.69005 5.01137,7.06176"
       style="fill:none;stroke:#000000"
       id="path170"
       inkscape:connector-curvature="0" />
    <path
       d="m 469.16797,366.06923 -3.44141,-3.47656"
       style="fill:none;stroke:#000000"
       id="path172"
       inkscape:connector-curvature="0" />
    <path
       d="m 465.72656,362.59267 1.0625,-3.85741"
       style="fill:none;stroke:#000000"
       id="path174"
       inkscape:connector-curvature="0" />
    <path
       d="m 484.33398,395.72744 c -0.86984,-3.66345 -1.73968,-7.32689 -3.03866,-10.85513 -1.30191,-3.53617 -3.03489,-6.93653 -5.14018,-10.06071 -2.08549,-3.09479 -4.53633,-5.91858 -6.98717,-8.74237"
       style="fill:none;stroke:#000000"
       id="path176"
       inkscape:connector-curvature="0" />
    <path
       d="m 394.75586,295.53798 0,0"
       style="fill:none;stroke:#000000"
       id="path178"
       inkscape:connector-curvature="0" />
    <path
       d="m 466.78906,358.73526 c 0.37458,-1.90938 0.74916,-3.81875 0.99917,-5.74916 0.28605,-2.20868 0.40904,-4.44491 0.41324,-6.66369 0.003,-1.75024 -0.0673,-3.48962 -0.3167,-5.25708 -0.062,-0.43915 -0.13499,-0.88003 -0.20232,-1.29282 -0.0475,-0.29133 -0.0922,-0.56867 -0.0541,-0.92195 0.0152,-0.14049 0.0434,-0.29299 0.106,-0.35163 0.13043,-0.12228 0.40994,0.16335 0.65822,0.39115 0.5611,0.51479 0.96275,0.73419 1.39356,1.0257 0.57899,0.39177 1.21065,0.91379 1.82712,1.43861 3.51164,2.98955 6.53078,6.0699 9.15659,9.57272 2.59583,3.46285 4.80727,7.33859 6.41479,11.41699 1.5851,4.02148 2.583,8.24001 3.24503,12.49858 0.0864,0.5557 0.16706,1.11208 0.29872,1.65833 0.10645,0.44164 0.24623,0.87666 0.44723,1.28686 0.15027,0.30669 0.33476,0.59952 0.57045,0.84387 0.41591,0.43119 0.99125,0.71141 1.59135,0.83579 0.60164,0.1247 1.22818,0.0928 1.79986,-0.0898 0.60501,-0.19316 1.14858,-0.55496 1.62637,-0.99605 0.30585,-0.28235 0.58475,-0.59719 0.74848,-0.96447 0.16336,-0.36646 0.21206,-0.78512 0.22397,-1.19737 0.0208,-0.71828 -0.0701,-1.41709 -0.17167,-2.11549 -0.86179,-5.92679 -2.49167,-11.82476 -5.02421,-17.29656 -2.5555,-5.52144 -6.03011,-10.60894 -10.20887,-15.03679 -4.19497,-4.44502 -9.09957,-8.22527 -14.36067,-11.25455 -0.79098,-0.45543 -1.59002,-0.89389 -2.35156,-1.41237 -0.51681,-0.35186 -1.01635,-0.74057 -1.41055,-1.21486 -0.34305,-0.41276 -0.60632,-0.89033 -0.87265,-1.36496 -1.28994,-2.2988 -2.65163,-4.52845 -4.19871,-6.62878 -1.81576,-2.46509 -3.8869,-4.75203 -6.06665,-6.92876 -2.09391,-2.09101 -4.28804,-4.08031 -6.68191,-5.79793 -1.69599,-1.21688 -3.49223,-2.2974 -5.32876,-3.29963 -2.05906,-1.12368 -4.16877,-2.14895 -6.32526,-3.06124 -2.08204,-0.8808 -4.20768,-1.65627 -6.3616,-2.35788 -2.16953,-0.70668 -4.36776,-1.33842 -6.60308,-1.76029 -2.98125,-0.56265 -6.02849,-0.75198 -9.0716,-0.87939 -5.9915,-0.25084 -11.96701,-0.26164 -17.94251,-0.27243"
       style="fill:none;stroke:#000000"
       id="path180"
       inkscape:connector-curvature="0" />
    <path
       d="m 671.02734,392.09267 0,0"
       style="fill:none;stroke:#000000"
       id="path182"
       inkscape:connector-curvature="0" />
    <path
       d="m 671.02734,392.09267 c 1.54263,-0.006 3.08526,-0.0122 4.63847,0.0532 0.88844,0.0374 1.78035,0.0981 2.63597,0.30361 0.67927,0.16313 1.33567,0.41747 1.98338,0.70962 1.36044,0.61363 2.68252,1.39403 3.63693,2.51968 0.83773,0.98802 1.3922,2.24205 1.63563,3.52229 0.3088,1.62397 0.11713,3.29014 -0.18077,4.92288 -0.65841,3.60859 -1.83576,7.0539 -3.29069,10.37843 -1.77546,4.05693 -3.96429,7.934 -6.36764,11.6609 -2.8744,4.45737 -6.05567,8.69992 -9.38073,12.82589 -3.73279,4.63192 -7.6468,9.11692 -11.68346,13.48034 -5.39592,5.83271 -11.01101,11.44817 -16.67931,17.04156 -9.05274,8.93309 -18.24123,17.80988 -27.39895,26.45076 -4.93763,4.65897 -9.86632,9.24935 -14.88201,14.14772 -3.74817,3.6605 -7.54492,7.49299 -11.1805,10.50966 -1.61941,1.34373 -3.20683,2.52559 -5.05858,4.59653 -0.52523,0.58741 -1.07173,1.24635 -1.64011,1.03375 -0.18522,-0.0693 -0.37276,-0.23113 -0.48297,-0.40729 -0.36267,-0.57973 0.11213,-1.31463 0.46292,-2.02686 0.93908,-1.90665 0.98947,-3.65085 1.18356,-5.43836 0.30226,-2.78369 0.953,-5.67243 1.48596,-8.53907 0.52987,-2.85001 0.94332,-5.67817 1.2465,-8.52646 0.47454,-4.45821 0.67893,-8.96571 0.79853,-13.46401 0.15362,-5.7775 0.16736,-11.53981 0.0995,-17.32295 -0.0528,-4.49896 -0.15492,-9.01052 -0.64415,-13.4611 -0.27688,-2.51878 -0.67773,-5.01803 -1.08447,-7.54947 -0.51146,-3.18318 -1.03224,-6.41725 -1.57541,-9.46032 -0.38682,-2.16707 -0.78499,-4.23728 -1.28934,-6.707 -0.0649,-0.318 -0.13164,-0.64262 -0.0218,-0.87914 0.13307,-0.28642 0.5251,-0.44362 0.8972,-0.57382 0.8834,-0.3091 1.65447,-0.46604 2.43903,-0.66618 1.83467,-0.46804 3.74308,-1.17234 5.57616,-1.96577 2.51917,-1.09039 4.89607,-2.34912 7.24615,-3.6764 3.24344,-1.83183 6.43577,-3.79423 9.62886,-5.74846 6.99765,-4.28269 13.99888,-8.52618 21.20802,-12.41785 5.81841,-3.14092 11.77225,-6.05267 17.89918,-8.54683 5.26838,-2.14466 10.66473,-3.98057 16.16819,-5.42985 1.23372,-0.32488 2.47282,-0.63034 3.7285,-0.84645 1.15811,-0.19933 2.33033,-0.32265 3.50408,-0.39507 1.57753,-0.0973 3.15782,-0.10271 4.73812,-0.10809"
       style="fill:none;stroke:#000000"
       id="path184"
       inkscape:connector-curvature="0" />
    <path
       d="m 189.22266,637.16884 -0.26172,-2.76953"
       style="fill:none;stroke:#000000"
       id="path186"
       inkscape:connector-curvature="0" />
    <path
       d="m 188.96094,634.39931 2.00976,-1.27733"
       style="fill:none;stroke:#000000"
       id="path188"
       inkscape:connector-curvature="0" />
    <path
       d="m 217.62305,628.19618 c 2.47724,-0.004 4.95448,-0.008 7.4326,0.0703 1.59811,0.0504 3.19659,0.13482 4.78251,0.32326 1.45633,0.17305 2.90206,0.4338 4.34153,0.72562 4.99115,1.01187 9.90708,2.39746 14.69555,4.12091 4.92583,1.77288 9.71678,3.90329 14.38343,6.29394 4.68403,2.39955 9.24283,5.06128 13.45813,8.19844 2.13771,1.59095 4.18707,3.30418 6.1606,5.09061 2.22247,2.01177 4.34877,4.11639 6.4445,6.2821 1.49798,1.54801 2.98033,3.12723 4.12537,4.93589 0.36188,0.57161 0.69008,1.16615 1.01305,1.7627 0.35063,0.64764 0.69512,1.29765 1.01972,1.95751 0.28049,0.57019 0.54613,1.14774 0.80512,1.729 0.21712,0.48731 0.42956,0.97723 0.66248,1.45526 0.2036,0.41785 0.42284,0.8266 0.64618,1.2393 0.14379,0.26572 0.28928,0.53307 0.49016,0.75466 0.37862,0.41767 0.95401,0.67277 1.52428,0.74392 0.77924,0.0972 1.54894,-0.14903 2.27223,-0.45642 1.0844,-0.46084 2.06448,-1.05912 3.05115,-1.6625 1.60764,-0.98311 3.23276,-1.97977 4.97677,-2.69895 1.65755,-0.68352 3.42249,-1.11639 5.20237,-1.37426 2.21721,-0.32123 4.4576,-0.3709 6.69195,-0.38382 1.48461,-0.009 2.96656,-9.4e-4 4.45297,0.0847 1.03933,0.0599 2.08084,0.15798 3.09567,0.33908 0.97273,0.17359 1.92094,0.42346 2.89668,0.7207 1.63492,0.49805 3.34711,1.12908 4.69276,1.73023 1.23901,0.55352 2.16726,1.08171 4.15838,1.97894 0.87711,0.39523 1.96047,0.86208 1.59026,1.25958 -0.0792,0.0851 -0.22497,0.16693 -0.36582,0.23362 -0.24929,0.11803 -0.48325,0.18851 -0.72618,0.25056 -0.30156,0.077 -0.61696,0.14106 -0.92948,0.21308 -1.55793,0.35906 -3.04415,0.91667 -4.48606,1.57282 -1.78097,0.81044 -3.49432,1.77121 -5.13942,2.83941 -1.50196,0.97527 -2.94703,2.04008 -4.25733,3.2577 -2.93623,2.72857 -5.19573,6.22452 -6.60878,10.03149 -1.36927,3.68902 -1.94374,7.67008 -1.51337,11.54178 0.44745,4.02535 1.98108,7.93249 3.78621,11.49508 0.1769,0.34913 0.3564,0.69494 0.56287,1.04395 0.13823,0.23366 0.28855,0.46875 0.28924,0.73949 2.5e-4,0.0952 -0.018,0.19482 -0.0474,0.27516 -0.26716,0.72988 -1.45455,-0.13047 -2.43848,-0.69845 -1.61034,-0.92958 -2.67569,-1.076 -3.87546,-1.4883 -1.04445,-0.35892 -2.19076,-0.91932 -3.28763,-1.50075 -1.94037,-1.02854 -3.726,-2.12284 -5.41846,-3.39303 -1.54733,-1.16125 -3.01678,-2.46952 -4.36427,-3.88793 -1.40526,-1.47921 -2.67786,-3.07821 -3.76805,-4.79131 -0.73558,-1.15586 -1.38811,-2.36368 -1.9735,-3.60834 -0.59512,-1.26537 -1.12084,-2.56883 -1.47321,-3.91305 -0.27157,-1.03597 -0.44018,-2.09615 -0.57868,-3.17 -0.094,-0.7287 -0.17411,-1.46369 -0.37514,-2.15424 -0.19307,-0.66319 -0.49766,-1.28538 -0.9268,-1.88443 -0.31724,-0.44285 -0.70255,-0.87304 -1.18048,-1.00821 -0.35294,-0.0998 -0.75639,-0.0388 -1.14605,0.029 -0.69891,0.12152 -1.35344,0.26459 -2.00963,0.43537 -0.87417,0.22751 -1.75128,0.5042 -2.62362,0.78759 -1.19251,0.38739 -2.3761,0.78731 -3.59161,1.05957 -1.14937,0.25745 -2.32727,0.40076 -3.50573,0.49782 -1.84134,0.15167 -3.68403,0.19044 -5.52766,0.23557 -1.81858,0.0445 -3.63808,0.0952 -5.4572,0.0597 -1.43854,-0.0281 -2.87684,-0.11005 -4.30826,-0.25379 -1.59007,-0.15966 -3.17165,-0.39553 -4.74821,-0.66141 -3.80053,-0.64093 -7.5719,-1.45629 -11.29494,-2.44605 -3.83899,-1.02058 -7.6266,-2.22659 -11.36871,-3.57213 -3.57923,-1.28697 -7.11683,-2.7016 -10.51213,-4.40563 -1.99868,-1.0031 -3.94805,-2.10649 -5.8595,-3.26871 -2.25801,-1.37293 -4.46312,-2.82795 -6.63128,-4.34147 -2.01568,-1.40708 -3.99943,-2.86473 -5.89203,-4.42499 -3.49537,-2.88159 -6.67982,-6.1132 -9.69963,-9.54555 -2.71271,-3.0833 -5.29257,-6.32859 -7.08495,-9.96251 -1.32243,-2.68114 -2.21619,-5.57384 -3.10995,-8.46655"
       style="fill:none;stroke:#000000"
       id="path190"
       inkscape:connector-curvature="0" />
    <path
       d="m 217.62305,628.19618 0,0"
       style="fill:none;stroke:#000000"
       id="path192"
       inkscape:connector-curvature="0" />
    <path
       d="m 190.9707,633.12198 c 0.98091,-0.52885 1.96181,-1.0577 2.97982,-1.50162 1.28411,-0.55996 2.62726,-0.98479 3.97681,-1.3787 1.59966,-0.46692 3.20831,-0.89038 4.84025,-1.20954 1.09643,-0.21443 2.20338,-0.38177 3.31485,-0.49742 1.53531,-0.15976 3.07925,-0.22088 4.62287,-0.26014 2.3064,-0.0587 4.61207,-0.0685 6.91775,-0.0784"
       style="fill:none;stroke:#000000"
       id="path194"
       inkscape:connector-curvature="0" />
    <path
       d="m 214.80469,634.88368 0,0"
       style="fill:none;stroke:#000000"
       id="path196"
       inkscape:connector-curvature="0" />
    <path
       d="m 214.80469,634.88368 c -1.37271,0.27692 -2.74541,0.55383 -3.79283,1.35442 -0.99046,0.75706 -1.69004,1.98239 -1.94507,3.27427 -0.27748,1.40567 -0.0287,2.89014 0.66563,4.09007 0.16867,0.2915 0.36363,0.56622 0.57896,0.82356 0.23622,0.2823 0.49696,0.5437 0.77733,0.78444 0.25181,0.21622 0.51944,0.41577 0.80777,0.57559 0.6977,0.38675 1.51654,0.54082 2.32785,0.58481 0.884,0.0479 1.75906,-0.0348 2.60065,-0.27583 0.7523,-0.21542 1.47784,-0.55728 2.08713,-1.05311 1.16826,-0.95073 1.90908,-2.46756 2.01171,-4.00574 0.0949,-1.42176 -0.35551,-2.86177 -1.24956,-3.95032 -0.97138,-1.18271 -2.46651,-1.95052 -3.95746,-2.14552 -0.10277,-0.0134 -0.20553,-0.0242 -0.30856,-0.0329 -0.10112,-0.009 -0.2025,-0.0151 -0.30396,-0.0188 -0.0998,-0.004 -0.1997,-0.004 -0.29959,-0.005"
       style="fill:none;stroke:#000000"
       id="path198"
       inkscape:connector-curvature="0" />
  </g>
</svg>
