<?xml version="1.0" encoding="UTF-8" standalone="no"?>
<svg
   xmlns:dc="http://purl.org/dc/elements/1.1/"
   xmlns:cc="http://creativecommons.org/ns#"
   xmlns:rdf="http://www.w3.org/1999/02/22-rdf-syntax-ns#"
   xmlns:svg="http://www.w3.org/2000/svg"
   xmlns="http://www.w3.org/2000/svg"
   xmlns:sodipodi="http://sodipodi.sourceforge.net/DTD/sodipodi-0.dtd"
   xmlns:inkscape="http://www.inkscape.org/namespaces/inkscape"
   width="744.094488189"
   height="1052.36220472"
   id="svg4297"
   version="1.1"
   inkscape:version="0.91 r13725"
   sodipodi:docname="Zebra-Breakers.svg">
  <metadata
     id="metadata4647">
    <rdf:RDF>
      <cc:Work
         rdf:about="">
        <dc:format>image/svg+xml</dc:format>
        <dc:type
           rdf:resource="http://purl.org/dc/dcmitype/StillImage" />
        <dc:title></dc:title>
      </cc:Work>
    </rdf:RDF>
  </metadata>
  <sodipodi:namedview
     pagecolor="#ffffff"
     bordercolor="#666666"
     borderopacity="1"
     objecttolerance="10"
     gridtolerance="10"
     guidetolerance="10"
     inkscape:pageopacity="0"
     inkscape:pageshadow="2"
     inkscape:window-width="640"
     inkscape:window-height="480"
     id="namedview4645"
     showgrid="false"
     inkscape:zoom="0.22425739"
     inkscape:cx="294.01191"
     inkscape:cy="526.18109"
     inkscape:window-x="0"
     inkscape:window-y="24"
     inkscape:window-maximized="0"
     inkscape:current-layer="g4317" />
  <desc
     id="desc4299">/media/hua/BREAKERS17/Diseños finales Breakers primavera 2017/Zebra-Breakers.dxf - scale = 1.000000, origin = (0.000000, 0.000000), auto = False</desc>
  <defs
     id="defs4301">
    <marker
       id="DistanceX"
       orient="auto"
       refX="0.0"
       refY="0.0"
       style="overflow:visible">
      <path
         d="M 3,-3 L -3,3 M 0,-5 L  0,5"
         style="stroke:#000000; stroke-width:0.5"
         id="path4304" />
    </marker>
    <pattern
       height="8"
       id="Hatch"
       patternUnits="userSpaceOnUse"
       width="8"
       x="0"
       y="0">
      <path
         d="M8 4 l-4,4"
         linecap="square"
         stroke="#000000"
         stroke-width="0.25"
         id="path4307" />
      <path
         d="M6 2 l-4,4"
         linecap="square"
         stroke="#000000"
         stroke-width="0.25"
         id="path4309" />
      <path
         d="M4 0 l-4,4"
         linecap="square"
         stroke="#000000"
         stroke-width="0.25"
         id="path4311" />
    </pattern>
    <symbol
       id="*MODEL_SPACE" />
    <symbol
       id="*PAPER_SPACE" />
  </defs>
  <g
     inkscape:groupmode="layer"
     inkscape:label="0"
     id="g4315" />
  <g
     inkscape:groupmode="layer"
     inkscape:label="Capa_1"
     id="g4317">
    <path
       d="M 58.495518,848.059530 59.698269,848.147170"
       style="stroke:#000000;fill:none"
       id="path4319" />
    <path
       d="M 59.698269,848.147170 59.443604,848.617359"
       style="stroke:#000000;fill:none"
       id="path4321" />
    <path
       d="M 170.526713,805.728951 C 168.702119,805.828046 166.877523,805.927145 165.064467,806.135603 C 163.055202,806.366620 161.060109,806.731948 159.083446,807.171846 C 157.046809,807.625092 155.029738,808.157503 153.041617,808.788196 C 150.851487,809.482973 148.696489,810.297019 146.608071,811.253700 C 144.714680,812.121040 142.876014,813.105618 141.120142,814.236984 C 139.515335,815.271013 137.979688,816.427658 136.601067,817.725600 C 136.205647,818.097880 135.823144,818.481784 135.441949,818.882210 C 135.050093,819.293835 134.659618,819.722919 134.312065,820.129901 C 134.068201,820.415465 133.845468,820.690148 133.582613,821.058800 C 133.545316,821.111109 133.507211,821.165310 133.460914,821.174016 C 133.409492,821.183686 133.347964,821.137230 133.294284,821.091051 C 133.167219,820.981744 133.084124,820.873996 132.996119,820.766655 C 132.585480,820.265792 132.067961,819.773801 131.560866,819.294638 C 130.895420,818.665847 130.247922,818.059149 129.578167,817.464983 C 129.017259,816.967380 128.440741,816.478567 127.846116,816.014078 C 126.016375,814.584782 124.015188,813.385800 121.937793,812.349250 C 119.737409,811.251333 117.451526,810.335652 115.108988,809.592466 C 112.603562,808.797602 110.033327,808.200057 107.444535,807.777819 C 105.218891,807.414810 102.979531,807.181375 100.710839,807.063514 C 98.526835,806.950052 96.315647,806.943697 94.193096,807.175377 C 92.141680,807.399292 90.173060,807.845555 87.962935,808.112406 C 87.372990,808.183636 86.765838,808.242083 86.345543,808.573050 C 86.011978,808.835720 85.796109,809.270043 85.639779,809.705866 C 85.285540,810.693421 85.237002,811.688674 85.114253,812.684188 C 85.014162,813.495944 84.864729,814.307874 84.727348,815.119730 C 84.559998,816.108687 84.410533,817.097536 84.254021,818.086250 C 84.103372,819.037926 83.946194,819.989479 83.796849,820.941393 C 83.671793,821.738486 83.552229,822.535834 83.416951,823.332637 C 83.317983,823.915575 83.210604,824.498222 83.146083,825.083167 C 83.119193,825.326947 83.099747,825.571126 83.042785,825.814132 C 83.034883,825.847844 83.026259,825.881532 83.009583,825.911012 C 82.989417,825.946662 82.957476,825.976157 82.922606,825.999175 C 82.884345,826.024431 82.842558,826.041889 82.800802,826.059424 C 82.696995,826.103017 82.593383,826.147080 82.490708,826.193478 C 82.294558,826.282119 82.101832,826.379283 81.910068,826.475245 C 81.668300,826.596229 81.428062,826.715301 81.184640,826.843804 C 80.948194,826.968626 80.708744,827.102346 80.480358,827.202508 C 80.311545,827.276544 80.148778,827.332245 79.955162,827.458370 C 79.871640,827.512778 79.782378,827.580291 79.722815,827.555974 C 79.672970,827.535624 79.643924,827.450962 79.615461,827.374442 C 79.545919,827.187487 79.479858,827.049136 79.417859,826.898559 C 79.332337,826.690854 79.254543,826.459886 79.172703,826.231406 C 78.443516,824.195662 77.393138,822.357497 76.102785,820.692312 C 74.669108,818.842170 72.939186,817.205568 71.064862,815.780142 C 68.942128,814.165800 66.634179,812.822318 64.238076,811.669398 C 61.884134,810.536765 59.445112,809.588047 56.957298,808.792181 C 54.401485,807.974562 51.794176,807.318264 49.159578,806.822463 C 46.486989,806.319511 43.786319,805.981718 41.063332,805.815490 C 39.736541,805.734495 38.404451,805.694232 37.088253,805.770035 C 36.080201,805.828091 35.081471,805.954229 34.072335,806.187254 C 33.328961,806.358911 32.579941,806.588571 32.009624,807.067850 C 31.655924,807.365090 31.370958,807.758339 31.179042,808.183596 C 30.913843,808.771236 30.826324,809.419994 30.784743,810.064802 C 30.727355,810.954737 30.757470,811.837148 30.825611,812.717258 C 31.032761,815.392823 31.591329,818.047116 32.327425,820.640709 C 33.116820,823.422099 34.110383,826.133683 35.307186,828.759628 C 36.460005,831.289066 37.801401,833.739045 39.380473,836.026501 C 40.420239,837.532715 41.563057,838.968462 42.816244,840.302644 C 43.970223,841.531205 45.217788,842.673645 46.567741,843.685048 C 47.814459,844.619106 49.148504,845.441403 50.556913,846.103267 C 51.350737,846.476315 52.168184,846.798396 53.003801,847.065494 C 53.852714,847.336842 54.720379,847.551444 55.597360,847.704529 C 56.555991,847.871866 57.525754,847.965699 58.495518,848.059530"
       style="stroke:#000000;fill:none"
       id="path4323" />
    <path
       d="M 59.443604,848.617359 C 59.283833,848.943138 59.124060,849.268915 58.970041,849.597576 C 58.754896,850.056677 58.550979,850.521404 58.356545,850.989000 C 58.173260,851.429781 57.998401,851.873111 57.813113,852.315463 C 57.711379,852.558340 57.606502,852.800921 57.470348,853.023960 C 57.293378,853.313863 57.063567,853.570749 56.830165,853.821895 C 56.405329,854.279028 55.968592,854.717145 55.532735,855.157529 C 54.610178,856.089666 53.691562,857.031956 52.805654,858.003046 C 52.025226,858.858512 51.270182,859.736328 50.542257,860.635934 C 49.785797,861.570806 49.058624,862.529210 48.355909,863.506235 C 46.153099,866.568929 44.190628,869.814603 42.553124,873.214765 C 40.932483,876.579912 39.630150,880.096382 38.636323,883.701195 C 37.630954,887.347875 36.941298,891.084963 36.648649,894.849437 C 36.539142,896.258074 36.485224,897.670546 36.474872,899.083245 C 36.463362,900.654046 36.505715,902.225127 36.601834,903.793133 C 36.693048,905.281113 36.832679,906.766322 37.009696,908.245625 C 37.728716,914.254362 39.064554,920.165643 40.638035,926.040657 C 42.392685,932.592114 44.442853,939.098470 47.589249,945.062568 C 50.363070,950.320435 53.988874,955.156862 58.040764,959.537861 C 58.552741,960.091422 59.071520,960.637712 59.533803,961.229061 C 60.032401,961.866863 60.465277,962.557083 60.946665,963.210002 C 61.216039,963.575361 61.500604,963.929041 61.785170,964.282723"
       style="stroke:#000000;fill:none"
       id="path4325" />
    <path
       d="M 69.017113,982.430383 69.017676,982.430950"
       style="stroke:#000000;fill:none"
       id="path4327" />
    <path
       d="M 61.785170,964.282723 C 61.213029,965.099558 60.640888,965.916394 60.148810,966.780509 C 59.636925,967.679404 59.211679,968.629462 58.853012,969.603583 C 58.515302,970.520787 58.236618,971.459324 58.051786,972.416456 C 57.937833,973.006549 57.859553,973.603711 57.804191,974.202555 C 57.753526,974.750584 57.722054,975.300023 57.726319,975.850885 C 57.729486,976.259862 57.752351,976.669625 57.831854,977.071468 C 58.042717,978.137255 58.651998,979.147332 59.461493,979.882639 C 60.459145,980.788860 61.760903,981.277733 63.073008,981.613006 C 65.038893,982.115334 67.028003,982.272859 69.017113,982.430383"
       style="stroke:#000000;fill:none"
       id="path4329" />
    <path
       d="M 100.980999,976.780998 101.073604,976.231435"
       style="stroke:#000000;fill:none"
       id="path4331" />
    <path
       d="M 101.073604,976.231435 105.924848,975.986146"
       style="stroke:#000000;fill:none"
       id="path4333" />
    <path
       d="M 105.924848,975.986146 110.165347,976.231435"
       style="stroke:#000000;fill:none"
       id="path4335" />
    <path
       d="M 110.165347,976.231435 110.329611,976.975026"
       style="stroke:#000000;fill:none"
       id="path4337" />
    <path
       d="M 69.017676,982.430950 C 70.669913,982.471096 72.322148,982.511242 73.974601,982.531900 C 76.367212,982.561812 78.760281,982.550870 81.153293,982.534428 C 83.045413,982.521429 84.937498,982.504991 86.828548,982.437016 C 88.402454,982.380441 89.975643,982.288165 91.541978,982.118714 C 92.692132,981.994287 93.838591,981.828247 94.965165,981.557188 C 95.851513,981.343929 96.725553,981.065662 97.549132,980.678640 C 98.148784,980.396847 98.721685,980.057399 99.239942,979.634601 C 99.697498,979.261323 100.112461,978.823076 100.399390,978.317910 C 100.668143,977.844746 100.824569,977.312874 100.980999,976.780998"
       style="stroke:#000000;fill:none"
       id="path4339" />
    <path
       d="M 155.358386,854.484513 153.424173,852.639598"
       style="stroke:#000000;fill:none"
       id="path4341" />
    <path
       d="M 153.424173,852.639598 152.611129,850.757194"
       style="stroke:#000000;fill:none"
       id="path4343" />
    <path
       d="M 110.329611,976.975026 C 110.508768,977.510891 110.687924,978.046756 110.975782,978.522769 C 111.274321,979.016444 111.689777,979.445744 112.150359,979.805747 C 112.659693,980.203856 113.224213,980.517221 113.810532,980.777306 C 115.042895,981.323972 116.371565,981.635257 117.706743,981.857127 C 119.730117,982.193357 121.768435,982.324242 123.808771,982.409975 C 127.054580,982.546361 130.305496,982.568481 133.554516,982.566001 C 135.364455,982.564619 137.173806,982.555603 138.984119,982.522054 C 140.277374,982.498087 141.571120,982.461600 142.860378,982.377899 C 143.787013,982.317740 144.711329,982.233191 145.636048,982.116763 C 147.256410,981.912750 148.878008,981.610853 150.350042,980.834739 C 151.399138,980.281616 152.372266,979.487629 152.911776,978.476953 C 153.477755,977.416693 153.566524,976.117962 153.506302,974.873241 C 153.440865,973.520730 153.199514,972.231988 152.841308,970.960637 C 152.498059,969.742374 152.047510,968.540080 151.473136,967.412277 C 150.900209,966.287317 150.204081,965.236473 149.403605,964.233134 C 149.281561,964.080161 149.157092,963.928293 149.048269,963.776809 C 148.964931,963.660803 148.890770,963.545022 148.791363,963.416024 C 148.743261,963.353603 148.689248,963.288088 148.687028,963.228818 C 148.683535,963.135585 148.808204,963.057809 148.916629,962.981956 C 149.175091,962.801140 149.341255,962.631250 149.531695,962.464715 C 149.792246,962.236869 150.098236,962.015304 150.399102,961.789043 C 155.578450,957.894007 159.239316,952.607461 162.252121,947.031987 C 165.633526,940.774385 168.198596,934.152835 170.314042,927.377570 C 172.234004,921.228390 173.783600,914.952592 174.579262,908.574721 C 174.768476,907.058018 174.915053,905.535542 175.008754,904.009831 C 175.112029,902.328236 175.151071,900.642711 175.133305,898.957855 C 175.117265,897.436610 175.054914,895.915911 174.928730,894.399667 C 174.576349,890.165394 173.726156,885.965859 172.470239,881.897056 C 171.227349,877.870453 169.587107,873.971884 167.562314,870.281494 C 165.486049,866.497291 163.005434,862.931986 160.236086,859.626804 C 159.750035,859.046707 159.255089,858.474624 158.746832,857.914362 C 158.249482,857.366122 157.739385,856.829202 157.218507,856.303186 C 156.608330,855.686987 155.983358,855.085752 155.358386,854.484513"
       style="stroke:#000000;fill:none"
       id="path4345" />
    <path
       d="M 170.526728,805.728969 170.526713,805.728951"
       style="stroke:#000000;fill:none"
       id="path4347" />
    <path
       d="M 152.611129,850.757194 C 152.466459,850.424028 152.321791,850.090857 152.173645,849.758148 C 152.052931,849.487048 151.929909,849.216255 151.807918,848.948213 C 151.740023,848.799030 151.672446,848.650700 151.593033,848.502724 C 151.557253,848.436053 151.519070,848.369453 151.489241,848.305522 C 151.465760,848.255198 151.447456,848.206527 151.415490,848.146360 C 151.398865,848.115068 151.378544,848.080667 151.387432,848.059548 C 151.396863,848.037136 151.439190,848.029684 151.477335,848.023609 C 151.570737,848.008736 151.639073,848.002123 151.713006,847.997879 C 151.816083,847.991962 151.930040,847.990648 152.043378,847.987891 C 153.089392,847.962450 154.082563,847.814145 155.067467,847.587609 C 156.213446,847.324024 157.348232,846.954528 158.449330,846.510161 C 159.549728,846.066076 160.616481,845.547217 161.627355,844.934709 C 162.992608,844.107475 164.255937,843.109423 165.432328,842.024046 C 166.740718,840.816882 167.941567,839.501695 169.050027,838.112367 C 170.241299,836.619243 171.325862,835.040484 172.298332,833.396671 C 173.553017,831.275818 174.621110,829.046673 175.550231,826.762891 C 176.509330,824.405422 177.320346,821.989732 177.949697,819.523868 C 178.525701,817.267022 178.949533,814.968147 179.174193,812.652233 C 179.280584,811.555505 179.342307,810.454956 179.128229,809.347150 C 178.984856,808.605227 178.717777,807.860048 178.221296,807.327752 C 177.732635,806.803842 177.021743,806.486160 176.311729,806.278531 C 175.761790,806.117713 175.212377,806.022917 174.656939,805.947347 C 174.014752,805.859975 173.364511,805.798304 172.714236,805.765678 C 171.985095,805.729096 171.255912,805.729032 170.526728,805.728969"
       style="stroke:#000000;fill:none"
       id="path4349" />
    <path
       d="M 147.564741,844.446866 146.463963,842.865428"
       style="stroke:#000000;fill:none"
       id="path4351" />
    <path
       d="M 146.463963,842.865428 147.564184,842.703371"
       style="stroke:#000000;fill:none"
       id="path4353" />
    <path
       d="M 171.105491,808.052326 C 171.902743,808.072880 172.699994,808.093438 173.481010,808.156750 C 174.085847,808.205779 174.680947,808.280450 175.301200,808.435662 C 175.673265,808.528767 176.054381,808.650854 176.318333,808.866468 C 177.006057,809.428247 176.898399,810.624942 176.787005,811.706092 C 176.577904,813.735551 176.355635,815.357878 175.999027,817.050770 C 175.561318,819.128664 174.921217,821.312868 174.171900,823.425169 C 173.046250,826.598341 171.674129,829.609248 169.980315,832.461828 C 168.492715,834.967121 166.756982,837.350292 164.684622,839.425688 C 162.901086,841.211837 160.868215,842.770022 158.615503,843.881869 C 157.841866,844.263704 157.042302,844.592898 156.221891,844.860067 C 155.430688,845.117725 154.620096,845.317695 153.799552,845.452466 C 152.885378,845.602615 151.958852,845.671837 151.035741,845.735604 C 150.722521,845.757241 150.409693,845.778249 150.094928,845.795160 C 149.844410,845.808620 149.592664,845.819483 149.347821,845.864109 C 149.218300,845.887715 149.090711,845.920769 148.956009,845.927428 C 148.867442,845.931805 148.775800,845.924772 148.697152,845.894359 C 148.522784,845.826932 148.412286,845.644585 148.300993,845.472694 C 148.058102,845.097552 147.811422,844.772209 147.564741,844.446866"
       style="stroke:#000000;fill:none"
       id="path4355" />
    <path
       d="M 171.105491,808.052326 171.105491,808.052326"
       style="stroke:#000000;fill:none"
       id="path4357" />
    <path
       d="M 147.564184,842.703371 C 148.307567,842.559506 149.050945,842.415642 149.776370,842.206513 C 150.524733,841.990770 151.253989,841.705570 151.965147,841.381816 C 152.689051,841.052259 153.394202,840.682755 154.062464,840.254871 C 154.785790,839.791729 155.465898,839.260191 156.111031,838.691284 C 156.845507,838.043589 157.534650,837.347458 158.185381,836.616332 C 158.839087,835.881864 159.454029,835.112081 160.012284,834.303402 C 160.801649,833.159939 161.477673,831.938710 162.080643,830.685281 C 162.746025,829.302112 163.322446,827.879730 163.829865,826.431947 C 164.334140,824.993132 164.770264,823.529230 165.059760,822.030042 C 165.186580,821.373288 165.285261,820.709762 165.345893,820.048380 C 165.406323,819.389203 165.428957,818.732155 165.453400,818.055736 C 165.469001,817.623999 165.485339,817.184370 165.342535,816.786879 C 165.213420,816.427490 164.954211,816.102547 164.639743,815.874592 C 164.256487,815.596773 163.791154,815.463013 163.324276,815.385326 C 162.682955,815.278612 162.038719,815.277699 161.397485,815.319547 C 159.883180,815.418373 158.385616,815.755668 156.932066,816.207575 C 155.278296,816.721729 153.681501,817.384244 152.135220,818.162736 C 150.562111,818.954735 149.041283,819.866772 147.646868,820.924302 C 146.177463,822.038706 144.848433,823.314673 143.549803,824.673036 C 142.278269,826.003055 141.035881,827.412068 140.363287,829.078890 C 139.696163,830.732155 139.589602,832.639052 138.181949,834.011255 C 138.154625,834.037891 138.126811,834.064326 138.096933,834.072343 C 138.038860,834.087927 137.972990,834.033933 137.913092,833.985132 C 137.798430,833.891712 137.705648,833.817319 137.610341,833.740059 C 137.304122,833.491828 136.971826,833.214011 136.638093,832.952062 C 136.187537,832.598418 135.734362,832.273698 135.274290,831.954723 C 134.727813,831.575844 134.171604,831.205072 133.618442,830.820824 C 133.340653,830.627861 133.063632,830.431499 132.791245,830.245104 C 132.624370,830.130911 132.459234,830.020458 132.313158,829.854391 C 132.262026,829.796263 132.213230,829.731320 132.206229,829.666576 C 132.195483,829.567206 132.283195,829.468304 132.349595,829.367449 C 132.491479,829.151945 132.536062,828.927521 132.597145,828.703294 C 132.677665,828.407718 132.786857,828.112483 132.895246,827.817801 C 133.280573,826.770201 133.655768,825.729594 134.155669,824.744696 C 134.636783,823.796810 135.233407,822.900526 135.899108,822.065251 C 136.640860,821.134553 137.468375,820.279600 138.331330,819.463033 C 138.908916,818.916496 139.502378,818.387154 140.119304,817.886090 C 140.688107,817.424111 141.276857,816.986170 141.882523,816.573625 C 142.548307,816.120131 143.234534,815.697323 143.932228,815.294190 C 146.270995,813.942833 148.738617,812.812556 151.270885,811.866734 C 153.997885,810.848178 156.799855,810.043538 159.643871,809.422502 C 162.536428,808.790867 165.472477,808.349158 168.422726,808.144926 C 168.726948,808.123867 169.031320,808.105332 169.335907,808.090750 C 169.634829,808.076440 169.933959,808.065937 170.233159,808.060173 C 170.523892,808.054573 170.814692,808.053449 171.105491,808.052326"
       style="stroke:#000000;fill:none"
       id="path4359" />
    <path
       d="M 73.160061,833.736200 72.044950,834.643502"
       style="stroke:#000000;fill:none"
       id="path4361" />
    <path
       d="M 72.044950,834.643502 71.459008,833.015760"
       style="stroke:#000000;fill:none"
       id="path4363" />
    <path
       d="M 39.065730,808.069964 C 39.279040,808.072604 39.492350,808.075243 39.705612,808.080269 C 39.922179,808.085374 40.138697,808.092941 40.355112,808.102582 C 40.573453,808.112309 40.791689,808.124148 41.009864,808.137210 C 42.674298,808.236863 44.335150,808.407745 45.985732,808.648025 C 47.636174,808.888284 49.276349,809.197929 50.901499,809.570619 C 52.593463,809.958632 54.269142,810.414981 55.926300,810.936833 C 59.542829,812.075707 63.071142,813.526558 66.348429,815.466914 C 69.060529,817.072645 71.600720,819.013603 73.600535,821.454191 C 75.310818,823.541431 76.625869,825.994101 77.309594,828.590604 C 77.357449,828.772334 77.402210,828.954769 77.451935,829.135225 C 77.497686,829.301260 77.547638,829.465619 77.602814,829.630693 C 77.641377,829.746066 77.682491,829.861789 77.729621,829.969746 C 77.765866,830.052772 77.805669,830.131205 77.832327,830.228498 C 77.845989,830.278362 77.856199,830.333181 77.835308,830.371144 C 77.817759,830.403037 77.778262,830.423035 77.739555,830.443240 C 77.329936,830.657059 77.008856,830.894012 76.676034,831.134513 C 76.069453,831.572838 75.423869,832.022950 74.799113,832.484142 C 74.241709,832.895615 73.700883,833.315907 73.160061,833.736200"
       style="stroke:#000000;fill:none"
       id="path4365" />
    <path
       d="M 39.065730,808.069964 39.065730,808.069964"
       style="stroke:#000000;fill:none"
       id="path4367" />
    <path
       d="M 71.459008,833.015760 C 70.485041,830.888469 69.511075,828.761175 68.197142,826.851228 C 66.855740,824.901353 65.160007,823.178006 63.302944,821.679860 C 61.367223,820.118259 59.256215,818.801338 57.008889,817.747099 C 55.417299,817.000471 53.757336,816.385595 52.077199,815.928938 C 50.731400,815.563153 49.372657,815.298882 47.916372,815.285926 C 46.977492,815.277574 45.998069,815.373680 45.280681,815.934702 C 45.071860,816.098007 44.885241,816.300705 44.765886,816.534085 C 44.627919,816.803857 44.579827,817.114626 44.553692,817.422407 C 44.510077,817.936037 44.527607,818.441343 44.561895,818.946542 C 44.677919,820.656056 44.985819,822.364333 45.423037,824.031660 C 45.913302,825.901281 46.566168,827.719414 47.346966,829.485529 C 48.088178,831.162103 48.944680,832.791800 49.979243,834.303401 C 50.844753,835.567998 51.834886,836.749942 52.935901,837.818144 C 53.968289,838.819764 55.098167,839.721380 56.324975,840.475512 C 57.471351,841.180201 58.702364,841.756111 59.984900,842.148849 C 60.416535,842.281024 60.854006,842.392452 61.295297,842.491180 C 61.717963,842.585742 62.144134,842.668654 62.570784,842.727607 C 62.905218,842.773817 63.239946,842.805307 63.583784,842.815820 C 63.699870,842.819369 63.816995,842.820527 63.926996,842.823689 C 64.005698,842.825951 64.080755,842.829238 64.171742,842.844419 C 64.207983,842.850466 64.246750,842.858399 64.265089,842.873698 C 64.316432,842.916529 64.207651,843.017087 64.122653,843.107644 C 63.914430,843.329484 63.848934,843.491302 63.749195,843.665077 C 63.611962,843.904176 63.409901,844.165911 63.225494,844.425364 C 63.042342,844.683052 62.876605,844.938490 62.697709,845.175155 C 62.570038,845.344053 62.435666,845.503389 62.313436,845.704806 C 62.266645,845.781911 62.221633,845.865183 62.155587,845.899317 C 62.067655,845.944761 61.942439,845.903109 61.822909,845.875820 C 61.520323,845.806739 61.254174,845.829706 60.979724,845.833211 C 60.598609,845.838078 60.201488,845.805416 59.808511,845.780804 C 59.370857,845.753395 58.938344,845.735971 58.504750,845.710138 C 58.108231,845.686515 57.710808,845.655860 57.314165,845.619492 C 57.040237,845.594376 56.766680,845.566535 56.494601,845.528348 C 55.604653,845.403444 54.730508,845.167851 53.876200,844.880947 C 52.962651,844.574147 52.071787,844.208673 51.208861,843.783488 C 50.350456,843.360532 49.519698,842.878490 48.732390,842.334606 C 47.847044,841.722994 47.016642,841.033179 46.228291,840.300025 C 45.353170,839.486176 44.529865,838.618924 43.751618,837.712787 C 42.930347,836.756556 42.159254,835.757024 41.443120,834.720119 C 39.815056,832.362813 38.471038,829.812353 37.304470,827.189983 C 36.107368,824.498976 35.097127,821.732246 34.400368,818.864537 C 33.797794,816.384472 33.429680,813.828883 33.281275,811.321582 C 33.248166,810.762211 33.225993,810.205244 33.333417,809.621154 C 33.386816,809.330810 33.472238,809.033763 33.661226,808.841615 C 33.860496,808.639011 34.174910,808.553031 34.476311,808.480066 C 34.890203,808.379869 35.279556,808.304217 35.678504,808.247558 C 36.192000,808.174631 36.721393,808.133170 37.248432,808.108803 C 37.856285,808.080699 38.461007,808.075332 39.065730,808.069964"
       style="stroke:#000000;fill:none"
       id="path4369" />
    <path
       d="M 93.504299,810.145276 93.504299,810.145286"
       style="stroke:#000000;fill:none"
       id="path4371" />
    <path
       d="M 93.504299,810.145286 C 93.527057,810.144744 93.549815,810.144200 93.572696,810.143692 C 93.588133,810.143350 93.603626,810.143023 93.618789,810.146161 C 93.626423,810.147740 93.633973,810.150198 93.641002,810.152993 C 93.803075,810.217452 93.688154,810.461640 93.597409,810.687074 C 93.206887,811.657236 93.264125,812.280070 93.251288,812.967034 C 93.222085,814.529750 92.830255,816.424327 92.427226,818.147821 C 92.110981,819.500201 91.787841,820.747244 91.770625,822.211445 C 91.764662,822.718527 91.795392,823.251655 91.479524,823.606975 C 91.416201,823.678207 91.338948,823.742293 91.252588,823.780686 C 91.140608,823.830470 91.013315,823.837054 90.889082,823.852735 C 90.651607,823.882709 90.425310,823.945922 90.196622,824.002014 C 89.908320,824.072727 89.616218,824.132122 89.324987,824.196304 C 89.002786,824.267312 88.681651,824.344179 88.362638,824.419952 C 88.053549,824.493368 87.746453,824.565756 87.432475,824.646112 C 87.196532,824.706498 86.956703,824.771382 86.735928,824.825793 C 86.538896,824.874351 86.357040,824.914567 86.113736,824.983983 C 86.015731,825.011945 85.907757,825.044645 85.855346,824.994348 C 85.826802,824.966956 85.814740,824.914947 85.803823,824.863275 C 85.528798,823.561462 85.981523,822.473695 86.333951,821.354903 C 86.974345,819.321953 87.283574,817.186560 87.340026,814.986474 C 87.372636,813.715627 87.320903,812.423194 87.944741,811.311647 C 87.984834,811.240209 88.027718,811.169518 88.085034,811.117719 C 88.195685,811.017720 88.360123,810.988130 88.518182,810.956784 C 88.835988,810.893758 89.128004,810.823634 89.426408,810.760984 C 89.938748,810.653417 90.469917,810.567880 90.997094,810.482453 C 91.505837,810.400014 92.010863,810.317677 92.519408,810.253674 C 92.846733,810.212478 93.175515,810.178877 93.504299,810.145276"
       style="stroke:#000000;fill:none"
       id="path4373" />
    <path
       d="M 108.056937,821.898301 107.963780,822.383922"
       style="stroke:#000000;fill:none"
       id="path4375" />
    <path
       d="M 107.963780,822.383922 105.168015,822.415893"
       style="stroke:#000000;fill:none"
       id="path4377" />
    <path
       d="M 105.168015,822.415893 102.371701,822.447861"
       style="stroke:#000000;fill:none"
       id="path4379" />
    <path
       d="M 102.371701,822.447861 102.443910,822.059809"
       style="stroke:#000000;fill:none"
       id="path4381" />
    <path
       d="M 106.691024,810.643589 C 106.815653,810.651037 106.940283,810.658484 107.064469,810.671745 C 107.224556,810.688839 107.383904,810.715596 107.541827,810.743843 C 107.759369,810.782754 107.974208,810.824495 108.196394,810.861317 C 108.463774,810.905629 108.741795,810.942818 108.983046,811.008457 C 109.157803,811.056005 109.313266,811.118482 109.551827,811.120546 C 109.647992,811.121379 109.757660,811.112394 109.779482,811.173305 C 109.788187,811.197603 109.782913,811.233021 109.778062,811.266511 C 109.766583,811.345759 109.757470,811.414204 109.745867,811.484734 C 109.730025,811.581039 109.709541,811.681231 109.690187,811.780741 C 109.654318,811.965162 109.622326,812.147243 109.590986,812.330065 C 109.540778,812.622954 109.492242,812.917747 109.444854,813.212319 C 109.389917,813.553819 109.336522,813.895022 109.283389,814.236409 C 109.228888,814.586584 109.174662,814.936952 109.119798,815.287179 C 109.070049,815.604753 109.019774,815.922211 108.968234,816.239473 C 108.933148,816.455448 108.897476,816.671332 108.861710,816.887200 C 108.825933,817.103134 108.790063,817.319051 108.754854,817.535075 C 108.703133,817.852417 108.652839,818.169991 108.602983,818.487634 C 108.548007,818.837893 108.493564,819.188235 108.438927,819.538546 C 108.386368,819.875537 108.333629,820.212499 108.280424,820.549394 C 108.235772,820.832136 108.190791,821.114832 108.143235,821.397093 C 108.115071,821.564263 108.086003,821.731280 108.056937,821.898301"
       style="stroke:#000000;fill:none"
       id="path4383" />
    <path
       d="M 106.691024,810.643589 106.691024,810.643589"
       style="stroke:#000000;fill:none"
       id="path4385" />
    <path
       d="M 102.443910,822.059809 C 102.494006,821.758486 102.544102,821.457167 102.593384,821.155544 C 102.702192,820.489588 102.807025,819.822155 102.916185,819.157827 C 103.061432,818.273877 103.214341,817.395424 103.342392,816.499145 C 103.468846,815.614037 103.571059,814.711544 103.766343,813.874093 C 103.908504,813.264454 104.099987,812.689284 104.083336,811.964506 C 104.076511,811.667418 104.034715,811.345193 104.224886,811.183779 C 104.276775,811.139736 104.345935,811.107666 104.414928,811.080068 C 104.562901,811.020877 104.710112,810.982259 104.859308,810.945414 C 105.057803,810.896393 105.259812,810.850510 105.461812,810.808950 C 105.628601,810.774633 105.795384,810.743263 105.962914,810.713644 C 106.090780,810.691038 106.219081,810.669453 106.348238,810.658025 C 106.462057,810.647954 106.576540,810.645771 106.691024,810.643589"
       style="stroke:#000000;fill:none"
       id="path4387" />
    <path
       d="M 119.964288,814.692820 119.964288,814.692813"
       style="stroke:#000000;fill:none"
       id="path4389" />
    <path
       d="M 119.964288,814.692813 C 120.047088,814.709952 120.129889,814.727088 120.210838,814.750524 C 120.348632,814.790416 120.481058,814.848561 120.611967,814.908283 C 120.778062,814.984057 120.941714,815.062369 121.105853,815.143159 C 121.612718,815.392638 122.124228,815.665738 122.582443,815.962765 C 123.077089,816.283407 123.509629,816.631932 124.144384,816.902952 C 124.477460,817.045165 124.866215,817.166037 124.931841,817.446133 C 124.957845,817.557120 124.933114,817.693106 124.912103,817.824677 C 124.862144,818.137522 124.833217,818.425398 124.795228,818.718386 C 124.743387,819.118195 124.674669,819.527522 124.606622,819.933770 C 124.530588,820.387702 124.455393,820.837790 124.384968,821.290073 C 124.319402,821.711147 124.257972,822.134124 124.181512,822.553261 C 124.127267,822.850621 124.065458,823.146048 124.040524,823.449973 C 124.016717,823.740156 124.026526,824.038086 123.876110,824.300920 C 123.811379,824.414031 123.716974,824.520642 123.608091,824.560303 C 123.431245,824.624719 123.216205,824.512524 123.013611,824.443811 C 122.846003,824.386964 122.686914,824.359878 122.525909,824.328409 C 122.236464,824.271836 121.940830,824.201098 121.645475,824.137126 C 121.282953,824.058605 120.920851,823.990276 120.562907,823.911336 C 120.159600,823.822392 119.761571,823.719976 119.345849,823.644299 C 119.123645,823.603849 118.896386,823.571038 118.708357,823.451554 C 118.639979,823.408102 118.576788,823.353188 118.523962,823.294528 C 117.994172,822.706229 118.506863,821.741197 118.862455,820.889255 C 119.457516,819.463581 119.612637,818.354605 119.515133,816.877256 C 119.462108,816.073840 119.334370,815.161480 119.921291,814.704391 C 119.924371,814.701992 119.927471,814.699606 119.930918,814.697916 C 119.935340,814.695749 119.940332,814.694729 119.945302,814.694082 C 119.951654,814.693255 119.957970,814.693036 119.964288,814.692820"
       style="stroke:#000000;fill:none"
       id="path4391" />
    <path
       d="M 153.059255,863.450011 153.792369,865.252485"
       style="stroke:#000000;fill:none"
       id="path4393" />
    <path
       d="M 153.792369,865.252485 153.777494,868.808374"
       style="stroke:#000000;fill:none"
       id="path4395" />
    <path
       d="M 153.777494,868.808374 153.778057,868.808374"
       style="stroke:#000000;fill:none"
       id="path4397" />
    <path
       d="M 105.128880,831.157615 C 108.325520,831.313857 111.522162,831.470098 114.665741,831.998838 C 117.824233,832.530086 120.929157,833.437375 123.924682,834.607120 C 126.961313,835.792917 129.885521,837.248422 132.646647,838.967783 C 135.696510,840.866940 138.547401,843.088023 141.146139,845.583956 C 143.709265,848.045687 146.027103,850.774787 147.949163,853.743371 C 149.933853,856.808687 151.496554,860.129348 153.059255,863.450011"
       style="stroke:#000000;fill:none"
       id="path4399" />
    <path
       d="M 153.645219,872.927607 153.527255,873.490397"
       style="stroke:#000000;fill:none"
       id="path4401" />
    <path
       d="M 153.527255,873.490397 153.060378,872.281031"
       style="stroke:#000000;fill:none"
       id="path4403" />
    <path
       d="M 153.778057,868.808374 C 153.770935,869.431114 153.763810,870.053852 153.754425,870.676832 C 153.746989,871.170471 153.738133,871.664261 153.706728,872.156713 C 153.690325,872.413920 153.667772,872.670763 153.645219,872.927607"
       style="stroke:#000000;fill:none"
       id="path4405" />
    <path
       d="M 105.128904,831.157615 105.128880,831.157615"
       style="stroke:#000000;fill:none"
       id="path4407" />
    <path
       d="M 153.060378,872.281031 C 152.402613,870.734696 151.744850,869.188360 150.990643,867.689202 C 150.214242,866.145928 149.335636,864.652651 148.393557,863.201569 C 147.462962,861.768177 146.470431,860.375958 145.400690,859.045251 C 144.337592,857.722808 143.198239,856.461116 142.003794,855.254669 C 140.777484,854.016037 139.493104,852.835638 138.154066,851.720865 C 136.848823,850.634228 135.491647,849.609947 134.084240,848.657598 C 131.669798,847.023820 129.107526,845.601740 126.443638,844.416821 C 123.786859,843.235065 121.029006,842.289205 118.211032,841.556722 C 115.331860,840.808331 112.389930,840.282687 109.427830,840.091714 C 108.363898,840.023120 107.297364,839.997703 106.231019,839.992548 C 104.923853,839.986229 103.616971,840.010359 102.311084,840.067717 C 101.271349,840.113385 100.232245,840.180117 99.197273,840.287946 C 95.658062,840.656678 92.167184,841.505974 88.791599,842.669164 C 85.502602,843.802516 82.323060,845.233865 79.333222,846.995420 C 76.322039,848.769552 73.503280,850.878622 70.912213,853.225519 C 69.691630,854.331081 68.521573,855.489420 67.410659,856.702416 C 66.336102,857.875713 65.316879,859.100148 64.355286,860.369384 C 63.385709,861.649158 62.474724,862.974480 61.645734,864.346839 C 61.239783,865.018874 60.853494,865.702189 60.479979,866.395061 C 60.054261,867.184767 59.645136,867.986889 59.252358,868.784227 C 58.915447,869.468155 58.590564,870.148563 58.289937,870.877636 C 58.179055,871.146543 58.071473,871.422071 57.963269,871.662152 C 57.876728,871.854168 57.789789,872.023509 57.701278,872.289298 C 57.654082,872.431026 57.606438,872.600178 57.560679,872.623339 C 57.492632,872.657779 57.428751,872.369385 57.381240,872.115142 C 57.204894,871.171471 57.254073,870.698307 57.276187,870.117503 C 57.306807,869.313292 57.285535,868.302709 57.283418,867.347655 C 57.281520,866.491580 57.295011,865.680120 57.419350,864.868582 C 57.514760,864.245851 57.675440,863.623074 57.882671,863.020614 C 58.186558,862.137158 58.590546,861.297392 59.009270,860.464079 C 60.749474,857.000858 62.744192,853.649109 65.128321,850.596586 C 67.518891,847.535815 70.300979,844.775888 73.348016,842.351815 C 76.406056,839.918988 79.730961,837.824444 83.250065,836.149421 C 85.544066,835.057522 87.920589,834.143893 90.351527,833.395956 C 92.751443,832.657564 95.204395,832.080662 97.685038,831.734378 C 100.148126,831.390546 102.638516,831.274080 105.128904,831.157615"
       style="stroke:#000000;fill:none"
       id="path4409" />
    <path
       d="M 108.587204,856.697623 108.059691,857.453340"
       style="stroke:#000000;fill:none"
       id="path4411" />
    <path
       d="M 108.059691,857.453340 105.012574,857.483104"
       style="stroke:#000000;fill:none"
       id="path4413" />
    <path
       d="M 105.012574,857.483104 101.965454,857.512322"
       style="stroke:#000000;fill:none"
       id="path4415" />
    <path
       d="M 101.965454,857.512322 101.421957,856.726841"
       style="stroke:#000000;fill:none"
       id="path4417" />
    <path
       d="M 105.596862,848.717681 C 106.904144,848.749681 108.211425,848.781682 109.488547,848.876264 C 110.754396,848.970011 111.990616,849.125239 113.324928,849.307456 C 114.628329,849.485451 116.025330,849.689198 117.030168,850.009178 C 117.277880,850.088059 117.501759,850.174004 117.932522,850.232791 C 118.117297,850.258007 118.340138,850.278227 118.306298,850.371751 C 118.296985,850.397488 118.268234,850.428777 118.238982,850.458419 C 117.628939,851.076598 116.801634,850.978158 116.051406,851.131067 C 115.438343,851.256020 114.876748,851.548816 114.320384,851.839076 C 113.807706,852.106544 113.299469,852.371859 112.814474,852.677060 C 112.267428,853.021310 111.749952,853.416304 111.252848,853.834599 C 110.736700,854.268920 110.242516,854.728361 109.790362,855.225564 C 109.364448,855.693912 108.975827,856.195767 108.587204,856.697623"
       style="stroke:#000000;fill:none"
       id="path4419" />
    <path
       d="M 105.596862,848.717681 105.596862,848.717681"
       style="stroke:#000000;fill:none"
       id="path4421" />
    <path
       d="M 101.421957,856.726841 C 100.892300,856.047848 100.362642,855.368855 99.759583,854.757032 C 99.136310,854.124700 98.434631,853.564116 97.713175,853.051537 C 96.988693,852.536810 96.244267,852.070491 95.399929,851.708023 C 94.983254,851.529147 94.542247,851.375563 94.178074,851.208177 C 93.796623,851.032850 93.499470,850.842380 92.868184,850.765172 C 92.477983,850.717449 91.960126,850.712999 92.035863,850.570867 C 92.065831,850.514628 92.188738,850.436831 92.308461,850.370703 C 92.972684,850.003824 93.538890,849.996098 94.130724,849.923617 C 94.965003,849.821445 95.850205,849.590597 96.727257,849.419929 C 97.693039,849.231994 98.648938,849.117031 99.611889,849.017819 C 100.596359,848.916390 101.588200,848.831424 102.580312,848.784123 C 103.585644,848.736192 104.591254,848.726936 105.596862,848.717681"
       style="stroke:#000000;fill:none"
       id="path4423" />
    <path
       d="M 121.581553,852.575637 121.581553,852.575637"
       style="stroke:#000000;fill:none"
       id="path4425" />
    <path
       d="M 121.581553,852.575637 C 121.961601,852.584779 122.341648,852.593920 122.721072,852.616432 C 123.072017,852.637255 123.422429,852.669516 123.770836,852.718005 C 124.063127,852.758684 124.354006,852.810784 124.640795,852.879354 C 125.144937,852.999893 125.636440,853.171328 126.120082,853.359848 C 126.636212,853.561031 127.143390,853.781671 127.640184,854.026462 C 128.086978,854.246616 128.525373,854.486303 128.938072,854.763961 C 129.414517,855.084507 129.856715,855.455661 130.279846,855.845461 C 130.747850,856.276601 131.192528,856.730552 131.610159,857.210607 C 131.970721,857.625063 132.311123,858.058975 132.602000,858.523800 C 132.899717,858.999555 133.145554,859.507694 133.361253,860.027334 C 133.584467,860.565081 133.775407,861.115145 133.927312,861.675912 C 134.073398,862.215198 134.183381,862.764383 134.249032,863.321029 C 134.489719,865.361802 134.134526,867.502862 133.265840,869.387436 C 132.400666,871.264392 131.026143,872.886932 129.355979,874.096596 C 127.573642,875.387505 125.454620,876.208213 123.290322,876.519877 C 122.470323,876.637958 121.643826,876.682968 120.818950,876.648914 C 120.014614,876.615708 119.211820,876.507326 118.428059,876.322162 C 117.625755,876.132617 116.843395,875.862612 116.086489,875.535408 C 115.477142,875.271993 114.884293,874.971506 114.318345,874.625259 C 113.791273,874.302795 113.287535,873.940642 112.817948,873.539504 C 112.339096,873.130453 111.895755,872.680863 111.482738,872.203861 C 110.822614,871.441471 110.239952,870.609055 109.782190,869.709964 C 109.347388,868.855968 109.025270,867.941817 108.836555,867.003289 C 108.640211,866.026818 108.588274,865.023958 108.626338,864.027686 C 108.648154,863.456689 108.699534,862.887855 108.802189,862.327083 C 108.893951,861.825819 109.026682,861.330996 109.197749,860.850916 C 109.387565,860.318219 109.624580,859.803672 109.891932,859.303771 C 110.461566,858.238655 111.168920,857.240025 112.014467,856.379915 C 112.867396,855.512298 113.860941,854.785630 114.929846,854.192777 C 116.058362,853.566863 117.270876,853.090106 118.526715,852.825889 C 118.813783,852.765492 119.103114,852.716201 119.394049,852.679731 C 119.741915,852.636125 120.092073,852.610848 120.442430,852.596517 C 120.821982,852.580992 121.201767,852.578313 121.581553,852.575637"
       style="stroke:#000000;fill:none"
       id="path4427" />
    <path
       d="M 88.496507,852.595476 88.496507,852.595476"
       style="stroke:#000000;fill:none"
       id="path4429" />
    <path
       d="M 88.496507,852.595476 C 89.081522,852.593602 89.666535,852.591729 90.248960,852.640216 C 90.702393,852.677964 91.154258,852.746234 91.598061,852.846439 C 92.106113,852.961150 92.603602,853.117711 93.093646,853.298277 C 94.327829,853.753035 95.514789,854.360053 96.567733,855.145800 C 97.607508,855.921720 98.516597,856.871926 99.272578,857.935346 C 100.033240,859.005352 100.638892,860.189978 100.993660,861.445788 C 101.211391,862.216512 101.334624,863.014048 101.377281,863.814377 C 101.423322,864.678218 101.375491,865.545314 101.244594,866.400846 C 101.118835,867.222797 100.916403,868.034075 100.616080,868.808372 C 100.136685,870.044352 99.407858,871.186102 98.527838,872.186946 C 97.630131,873.207905 96.575093,874.082238 95.410737,874.775325 C 94.227773,875.479488 92.931967,875.996567 91.588827,876.304350 C 90.193684,876.624050 88.747469,876.717935 87.322522,876.589117 C 85.928818,876.463124 84.555460,876.124089 83.263920,875.580521 C 81.967374,875.034846 80.753282,874.283050 79.706281,873.351490 C 79.291765,872.982677 78.903439,872.585687 78.541475,872.165787 C 78.169197,871.733921 77.824805,871.277821 77.512097,870.800970 C 77.216061,870.349542 76.948421,869.879517 76.718693,869.390457 C 76.152422,868.184939 75.816507,866.863762 75.711074,865.530644 C 75.606530,864.208758 75.728601,862.875132 76.067236,861.591156 C 76.407983,860.299172 76.968003,859.057459 77.750016,857.984157 C 78.040195,857.585891 78.360941,857.210813 78.697006,856.850787 C 79.079831,856.440669 79.482535,856.050082 79.902197,855.676876 C 80.271164,855.348753 80.653239,855.034066 81.061717,854.758447 C 81.471939,854.481650 81.908789,854.244257 82.353525,854.024991 C 82.849890,853.780270 83.356078,853.558129 83.871916,853.359168 C 84.355787,853.172536 84.848149,853.006300 85.350725,852.877698 C 85.624381,852.807674 85.901065,852.748807 86.180275,852.707539 C 86.495767,852.660908 86.814483,852.636747 87.133291,852.621817 C 87.587572,852.600542 88.042039,852.598010 88.496507,852.595476"
       style="stroke:#000000;fill:none"
       id="path4431" />
    <path
       d="M 154.902519,856.791326 154.902519,856.791326"
       style="stroke:#000000;fill:none"
       id="path4433" />
    <path
       d="M 154.902519,856.791326 C 154.907511,856.792272 154.912507,856.793216 154.917294,856.794811 C 154.923229,856.796788 154.928844,856.799764 154.934218,856.803056 C 154.940803,856.807091 154.947026,856.811600 154.953227,856.816134 C 155.309291,857.076512 155.594206,857.421713 155.886915,857.756132 C 156.390333,858.331283 156.916806,858.874539 157.428601,859.434055 C 157.891170,859.939755 158.341748,860.458738 158.783623,860.984977 C 160.824591,863.415614 162.679880,866.001054 164.331531,868.712072 C 165.933786,871.342012 167.344400,874.090129 168.527085,876.931147 C 169.708180,879.768346 170.661958,882.698196 171.394326,885.689344 C 171.727553,887.050318 172.014943,888.423981 172.255164,889.793125 C 172.495719,891.164173 172.688974,892.530689 172.810147,893.955214 C 172.945883,895.550946 172.991170,897.219471 173.122386,898.648416 C 173.160092,899.059031 173.204894,899.449863 173.155427,899.999611 C 173.143854,900.128224 173.127122,900.265535 173.111520,900.312753 C 173.070534,900.436794 173.037348,899.939101 173.004424,899.489021 C 172.794460,896.618750 172.595150,895.684835 172.297293,894.239079 C 172.009668,892.842986 171.630151,890.969612 171.177324,889.247808 C 170.725754,887.530784 170.201281,885.964489 169.616657,884.391229 C 168.751862,882.064007 167.755451,879.721543 166.618109,877.466746 C 165.528841,875.307256 164.310305,873.228178 162.960204,871.233950 C 161.571904,869.183298 160.044490,867.222366 158.435256,865.339026 C 158.149212,865.004259 157.860582,864.671943 157.573934,864.337524 C 157.332253,864.055566 157.091982,863.772113 156.847956,863.492936 C 156.702162,863.326142 156.555028,863.160874 156.414501,862.988093 C 156.308217,862.857414 156.205711,862.722437 156.127529,862.574678 C 156.037383,862.404309 155.979573,862.216947 155.931543,862.028515 C 155.856392,861.733685 155.805183,861.436238 155.750838,861.138767 C 155.696285,860.840152 155.638571,860.541514 155.579044,860.243698 C 155.509081,859.893670 155.436612,859.544779 155.356246,859.195935 C 155.281263,858.870460 155.199406,858.545025 155.130718,858.222284 C 155.070977,857.941577 155.021198,857.662908 154.934181,857.375531 C 154.888203,857.223686 154.831828,857.069409 154.861058,856.922084 C 154.869787,856.878086 154.886152,856.834707 154.902519,856.791326"
       style="stroke:#000000;fill:none"
       id="path4435" />
    <path
       d="M 38.933989,896.935234 38.934553,896.935234"
       style="stroke:#000000;fill:none"
       id="path4437" />
    <path
       d="M 56.050877,857.529957 C 56.059941,857.535587 56.069004,857.541215 56.074044,857.548968 C 56.082960,857.562681 56.079290,857.583041 56.075764,857.601947 C 56.069995,857.632873 56.064607,857.659909 56.059147,857.687051 C 55.963751,858.161251 55.846141,858.667834 55.742690,859.168580 C 55.613704,859.792929 55.506728,860.408204 55.396056,861.025393 C 55.319123,861.454432 55.240403,861.884396 55.193735,862.322774 C 55.172403,862.523162 55.157768,862.725307 55.098039,862.915310 C 55.048267,863.073640 54.967182,863.223538 54.872097,863.361527 C 54.727343,863.571598 54.550144,863.754067 54.375733,863.938936 C 53.519811,864.846176 52.731021,865.811211 51.960988,866.790616 C 51.096165,867.890582 50.255001,869.008675 49.445336,870.149745 C 48.677571,871.231764 47.938129,872.334445 47.242456,873.463937 C 45.789676,875.822665 44.527769,878.298319 43.420009,880.843137 C 42.296835,883.423362 41.332127,886.074689 40.608301,888.786260 C 39.893657,891.463436 39.413824,894.199337 38.933989,896.935234"
       style="stroke:#000000;fill:none"
       id="path4439" />
    <path
       d="M 38.598863,899.780060 38.483660,900.944224"
       style="stroke:#000000;fill:none"
       id="path4441" />
    <path
       d="M 38.483660,900.944224 38.464356,899.909593"
       style="stroke:#000000;fill:none"
       id="path4443" />
    <path
       d="M 38.934553,896.935234 C 38.891838,897.270594 38.849126,897.605953 38.807746,897.941481 C 38.765757,898.281943 38.725141,898.622579 38.687005,898.963491 C 38.656571,899.235563 38.627717,899.507810 38.598863,899.780060"
       style="stroke:#000000;fill:none"
       id="path4445" />
    <path
       d="M 56.050877,857.529957 56.050877,857.529957"
       style="stroke:#000000;fill:none"
       id="path4447" />
    <path
       d="M 38.464356,899.909593 C 38.499917,898.429217 38.535473,896.948840 38.644177,895.473429 C 38.767985,893.793013 38.986680,892.119036 39.254580,890.453695 C 39.512109,888.852817 39.815108,887.259918 40.194070,885.684378 C 40.834125,883.023337 41.690874,880.411812 42.713710,877.870541 C 43.753603,875.286891 44.965168,872.775858 46.329737,870.347522 C 47.693815,867.920059 49.210788,865.575234 50.916308,863.377250 C 51.380905,862.778502 51.859494,862.190651 52.345428,861.609784 C 52.933361,860.906990 53.532047,860.214420 54.131648,859.518802 C 54.575767,859.003564 55.020389,858.486653 55.500766,858.010614 C 55.592600,857.919608 55.685742,857.830097 55.777396,857.736547 C 55.833407,857.679378 55.888862,857.620701 55.955856,857.579122 C 55.985976,857.560430 56.018427,857.545193 56.050877,857.529957"
       style="stroke:#000000;fill:none"
       id="path4449" />
    <path
       d="M 152.020212,878.588585 152.515201,879.709755"
       style="stroke:#000000;fill:none"
       id="path4451" />
    <path
       d="M 152.515201,879.709755 152.221404,880.822109"
       style="stroke:#000000;fill:none"
       id="path4453" />
    <path
       d="M 135.414298,858.379932 C 135.726027,858.583180 136.037754,858.786427 136.339315,859.003386 C 137.031795,859.501594 137.670668,860.072104 138.310959,860.638677 C 139.042209,861.285737 139.775307,861.927661 140.490440,862.590114 C 141.545732,863.567667 142.561906,864.589922 143.531929,865.653685 C 144.448038,866.658323 145.322984,867.699983 146.150941,868.778239 C 146.991380,869.872751 147.783403,871.004969 148.521098,872.170786 C 148.957216,872.860005 149.374346,873.560966 149.780496,874.268378 C 150.217632,875.029758 150.642049,875.798610 151.041078,876.580319 C 151.379640,877.243572 151.699925,877.916080 152.020212,878.588585"
       style="stroke:#000000;fill:none"
       id="path4455" />
    <path
       d="M 135.414298,858.379932 135.414298,858.379932"
       style="stroke:#000000;fill:none"
       id="path4457" />
    <path
       d="M 152.221404,880.822109 C 152.153252,881.073705 152.085100,881.325303 152.015568,881.577210 C 151.931511,881.881741 151.845436,882.186726 151.758346,882.487722 C 151.675048,882.775614 151.590822,883.059857 151.505376,883.356599 C 151.433334,883.606789 151.360427,883.865863 151.280304,884.085631 C 151.220015,884.251000 151.155641,884.394114 151.096237,884.629445 C 151.069142,884.736786 151.043080,884.863312 150.993295,884.870235 C 150.947791,884.876562 150.882467,884.782966 150.825017,884.700017 C 150.671247,884.477997 150.573886,884.332246 150.470353,884.166485 C 150.323492,883.931354 150.164213,883.655959 150.006072,883.385260 C 149.387403,882.326244 148.786164,881.339095 148.137589,880.360587 C 147.477458,879.364647 146.768289,878.377659 146.035576,877.415117 C 145.322612,876.478519 144.587357,875.565067 143.802694,874.692597 C 143.224538,874.049743 142.619558,873.429139 142.007100,872.819974 C 141.269693,872.086533 140.521447,871.369674 139.749494,870.661137 C 139.089268,870.055150 138.411702,869.455249 137.742633,868.897670 C 137.451321,868.654900 137.161619,868.420153 136.851531,868.150020 C 136.716562,868.032442 136.577731,867.908161 136.536785,867.753445 C 136.507519,867.642862 136.528260,867.516731 136.548149,867.391749 C 136.700844,866.432212 136.803345,865.540381 136.807758,864.625648 C 136.812230,863.698772 136.715992,862.748381 136.522805,861.824968 C 136.335152,860.928009 136.056023,860.056505 135.715815,859.212268 C 135.661329,859.077061 135.605276,858.942552 135.548488,858.807556 C 135.507253,858.709534 135.465630,858.611254 135.440226,858.508561 C 135.429743,858.466185 135.422022,858.423058 135.414298,858.379932"
       style="stroke:#000000;fill:none"
       id="path4459" />
    <path
       d="M 73.532133,867.717517 73.695841,868.326059"
       style="stroke:#000000;fill:none"
       id="path4461" />
    <path
       d="M 73.695841,868.326059 72.535532,869.296752"
       style="stroke:#000000;fill:none"
       id="path4463" />
    <path
       d="M 74.147272,859.331328 C 74.156088,859.335073 74.164904,859.338819 74.169480,859.345395 C 74.175472,859.354008 74.174188,859.367476 74.171885,859.379742 C 74.168092,859.399937 74.161534,859.416876 74.155006,859.433853 C 73.834425,860.267568 73.586204,861.192364 73.418498,862.118192 C 73.240684,863.099815 73.153382,864.082597 73.197173,865.061175 C 73.236900,865.948930 73.384515,866.833225 73.532133,867.717517"
       style="stroke:#000000;fill:none"
       id="path4465" />
    <path
       d="M 60.745039,883.443139 60.020192,884.740149"
       style="stroke:#000000;fill:none"
       id="path4467" />
    <path
       d="M 60.020192,884.740149 59.724741,883.830090"
       style="stroke:#000000;fill:none"
       id="path4469" />
    <path
       d="M 72.535532,869.296752 C 71.275830,870.422620 70.016126,871.548486 68.826838,872.745690 C 67.611302,873.969317 66.469323,875.267465 65.384601,876.611608 C 64.350932,877.892489 63.369256,879.215138 62.475303,880.595010 C 62.269770,880.912263 62.068873,881.232542 61.869762,881.553920 C 61.659564,881.893194 61.451355,882.233693 61.248117,882.577136 C 61.078105,882.864431 60.911571,883.153786 60.745039,883.443139"
       style="stroke:#000000;fill:none"
       id="path4471" />
    <path
       d="M 58.934849,881.076221 58.440409,879.231852"
       style="stroke:#000000;fill:none"
       id="path4473" />
    <path
       d="M 58.440409,879.231852 58.889647,878.255653"
       style="stroke:#000000;fill:none"
       id="path4475" />
    <path
       d="M 59.724741,883.830090 C 59.651876,883.593301 59.579010,883.356511 59.508311,883.119075 C 59.410409,882.790276 59.316663,882.460236 59.224548,882.129756 C 59.126756,881.778909 59.030802,881.427565 58.934849,881.076221"
       style="stroke:#000000;fill:none"
       id="path4477" />
    <path
       d="M 74.147287,859.331328 74.147272,859.331328"
       style="stroke:#000000;fill:none"
       id="path4479" />
    <path
       d="M 58.889647,878.255653 C 59.973580,876.157278 61.057511,874.058904 62.320402,872.071281 C 63.612189,870.038181 65.091218,868.120958 66.679224,866.297884 C 68.257820,864.485612 69.944104,862.766376 71.759975,861.208768 C 72.180476,860.848074 72.607925,860.496046 73.027832,860.129125 C 73.277648,859.910832 73.524794,859.687267 73.806190,859.516200 C 73.916388,859.449208 74.031839,859.390267 74.147287,859.331328"
       style="stroke:#000000;fill:none"
       id="path4481" />
    <path
       d="M 91.998932,862.529478 91.998932,862.529478"
       style="stroke:#000000;fill:none"
       id="path4483" />
    <path
       d="M 91.998932,862.529478 C 91.724028,862.547758 91.449125,862.566038 91.178698,862.614024 C 90.900529,862.663383 90.627097,862.744173 90.363022,862.846611 C 90.087716,862.953406 89.822579,863.083731 89.569174,863.236136 C 89.021445,863.565557 88.528525,863.998138 88.151847,864.518453 C 87.804023,864.998910 87.555314,865.554174 87.445639,866.135906 C 87.334440,866.725717 87.366165,867.342736 87.522512,867.923670 C 87.685934,868.530892 87.985512,869.098689 88.383967,869.583870 C 88.782096,870.068654 89.278940,870.470957 89.834075,870.762780 C 90.402642,871.061664 91.032355,871.244656 91.672061,871.297110 C 92.303983,871.348926 92.945656,871.273361 93.550236,871.079071 C 94.140637,870.889337 94.695664,870.586383 95.165725,870.184889 C 95.640630,869.779258 96.028809,869.273047 96.323768,868.722382 C 96.423018,868.537090 96.511714,868.346764 96.577076,868.148053 C 96.633390,867.976849 96.672384,867.799422 96.696662,867.620624 C 96.726961,867.397488 96.734340,867.172217 96.726705,866.946367 C 96.699359,866.137486 96.479424,865.321170 96.045490,864.627100 C 95.627895,863.959165 95.012114,863.404444 94.313656,863.074021 C 93.599677,862.736255 92.799305,862.632868 91.998932,862.529478"
       style="stroke:#000000;fill:none"
       id="path4485" />
    <path
       d="M 118.203155,862.531172 118.203155,862.531172"
       style="stroke:#000000;fill:none"
       id="path4487" />
    <path
       d="M 103.815333,866.222111 104.996034,866.222111"
       style="stroke:#000000;fill:none"
       id="path4489" />
    <path
       d="M 104.996034,866.222111 106.176189,866.222111"
       style="stroke:#000000;fill:none"
       id="path4491" />
    <path
       d="M 106.176189,866.222111 106.340453,867.189494"
       style="stroke:#000000;fill:none"
       id="path4493" />
    <path
       d="M 118.203155,862.531172 C 118.129022,862.534279 118.054891,862.537387 117.980895,862.542652 C 117.905921,862.547987 117.831084,862.555536 117.756475,862.564655 C 117.680806,862.573904 117.605370,862.584768 117.530120,862.597318 C 116.930570,862.697314 116.342807,862.904392 115.816736,863.217432 C 115.313460,863.516909 114.866646,863.913364 114.519763,864.382164 C 114.163844,864.863174 113.913128,865.420347 113.746578,865.995011 C 113.689319,866.192578 113.642007,866.392212 113.614737,866.595623 C 113.593604,866.753249 113.584506,866.913143 113.593125,867.071637 C 113.602688,867.247474 113.634057,867.421588 113.673818,867.594086 C 113.819192,868.224774 114.076742,868.833857 114.450236,869.364114 C 114.811727,869.877331 115.281830,870.316707 115.820391,870.637784 C 116.364811,870.962353 116.979187,871.166035 117.608944,871.251949 C 118.288735,871.344690 118.986448,871.300206 119.645651,871.114928 C 120.262891,870.941446 120.846369,870.644524 121.345950,870.241827 C 121.858245,869.828882 122.282318,869.304709 122.564923,868.706987 C 122.987488,867.813241 123.093760,866.755055 122.826327,865.787958 C 122.562457,864.833743 121.934772,863.968206 121.135639,863.442035 C 120.287034,862.883291 119.245096,862.707231 118.203155,862.531172"
       style="stroke:#000000;fill:none"
       id="path4495" />
    <path
       d="M 110.238094,874.417029 111.139880,875.314959"
       style="stroke:#000000;fill:none"
       id="path4497" />
    <path
       d="M 111.139880,875.314959 110.518661,875.228418"
       style="stroke:#000000;fill:none"
       id="path4499" />
    <path
       d="M 106.340453,867.189494 C 106.556988,868.051205 106.773525,868.912915 107.094461,869.738666 C 107.433941,870.612127 107.890232,871.445354 108.429149,872.213668 C 108.975514,872.992600 109.606805,873.704813 110.238094,874.417029"
       style="stroke:#000000;fill:none"
       id="path4501" />
    <path
       d="M 99.335055,875.362362 98.713835,875.443394"
       style="stroke:#000000;fill:none"
       id="path4503" />
    <path
       d="M 98.713835,875.443394 99.681219,874.485932"
       style="stroke:#000000;fill:none"
       id="path4505" />
    <path
       d="M 110.518661,875.228418 C 109.718702,875.174779 108.918742,875.121142 108.118021,875.089428 C 106.973077,875.044082 105.826578,875.043561 104.679827,875.051258 C 103.748786,875.057508 102.817580,875.069175 101.889386,875.132503 C 101.536188,875.156601 101.183427,875.188180 100.830619,875.218728 C 100.524608,875.245225 100.218563,875.270946 99.912956,875.301285 C 99.720206,875.320421 99.527630,875.341393 99.335055,875.362362"
       style="stroke:#000000;fill:none"
       id="path4507" />
    <path
       d="M 103.651072,867.189494 103.815333,866.222111"
       style="stroke:#000000;fill:none"
       id="path4509" />
    <path
       d="M 156.288823,872.136096 157.403381,873.349877"
       style="stroke:#000000;fill:none"
       id="path4511" />
    <path
       d="M 99.681219,874.485932 C 100.328131,873.764004 100.975042,873.042079 101.535106,872.251052 C 102.081657,871.479109 102.545500,870.641357 102.889383,869.761957 C 103.214966,868.929358 103.433017,868.059425 103.651072,867.189494"
       style="stroke:#000000;fill:none"
       id="path4513" />
    <path
       d="M 156.249684,872.573765 156.288823,872.136096"
       style="stroke:#000000;fill:none"
       id="path4515" />
    <path
       d="M 157.403381,873.349877 C 158.523350,874.643304 159.643320,875.936731 160.688524,877.289048 C 161.774605,878.694251 162.779958,880.163041 163.730544,881.665504 C 164.691551,883.184437 165.596584,884.737785 166.426224,886.330996 C 167.424551,888.248144 168.313711,890.223013 169.098091,892.238726 C 169.894242,894.284688 170.582444,896.372730 171.146236,898.493046 C 171.706297,900.599328 172.143588,902.737457 172.503371,904.888209 C 172.572684,905.302560 172.639121,905.717379 172.674099,906.136073 C 172.698337,906.426205 172.707470,906.718197 172.693383,907.008616 C 172.676358,907.359621 172.625415,907.708326 172.573375,908.056596 C 172.450035,908.882047 172.320537,909.705058 172.171642,910.524202 C 172.021437,911.350551 171.851493,912.172966 171.661719,912.994199 C 171.472708,913.812131 171.264027,914.628892 171.050919,915.430754 C 170.944448,915.831370 170.836873,916.228267 170.720659,916.641505 C 170.630512,916.962049 170.535168,917.292427 170.466265,917.581157 C 170.432201,917.723899 170.404600,917.856462 170.342606,918.046269 C 170.302178,918.170048 170.247123,918.318170 170.207771,918.329679 C 170.155265,918.345036 170.130713,918.117181 170.112694,917.921853 C 170.065119,917.406124 170.063088,917.117160 170.056525,916.817609 C 169.982258,913.427815 169.327662,908.682253 168.241538,904.437900 C 167.128186,900.087144 165.561400,896.263041 163.655139,892.460257 C 161.753422,888.666535 159.513846,884.894031 156.633882,881.763628 C 156.223671,881.317745 155.800466,880.884888 155.481672,880.351572 C 155.335180,880.106504 155.210735,879.840223 155.182959,879.569186 C 155.146079,879.209322 155.279614,878.841075 155.378214,878.474523 C 155.539890,877.873485 155.607636,877.277007 155.690019,876.678124 C 155.795557,875.910920 155.925116,875.139769 156.031282,874.367491 C 156.113416,873.770031 156.181550,873.171896 156.249684,872.573765"
       style="stroke:#000000;fill:none"
       id="path4517" />
    <path
       d="M 54.840958,872.829528 54.840958,872.829528"
       style="stroke:#000000;fill:none"
       id="path4519" />
    <path
       d="M 54.840958,872.829528 C 54.878751,872.851950 54.916542,872.874370 54.941783,872.905787 C 54.984007,872.958338 54.991117,873.036061 54.996132,873.110143 C 55.004049,873.227097 55.006744,873.334977 55.012387,873.443580 C 55.036040,873.898818 55.111483,874.366743 55.180586,874.832787 C 55.294485,875.600941 55.391162,876.363981 55.527287,877.113053 C 55.626382,877.658359 55.746383,878.196263 55.821571,878.766116 C 55.838715,878.896050 55.853529,879.027644 55.829243,879.148883 C 55.789069,879.349439 55.641901,879.521658 55.499606,879.689642 C 55.183680,880.062601 54.891771,880.414681 54.600077,880.770336 C 52.776847,882.993359 50.962043,885.356069 49.368183,887.832065 C 47.809868,890.252845 46.462752,892.781915 45.298276,895.399754 C 44.136529,898.011459 43.156568,900.711518 42.394517,903.465523 C 42.079079,904.605499 41.800977,905.754718 41.549518,906.911910 C 41.301077,908.055217 41.078642,909.206306 40.904576,910.357966 C 40.759401,911.318477 40.647871,912.279385 40.561175,913.261722 C 40.541315,913.486754 40.522758,913.712911 40.506198,913.929286 C 40.494332,914.084336 40.483491,914.234364 40.444593,914.405300 C 40.429224,914.472838 40.409475,914.543640 40.389748,914.586842 C 40.268951,914.851385 40.148981,914.080969 40.047040,913.477273 C 39.810987,912.079373 39.671598,911.575398 39.512839,910.841820 C 39.326060,909.978769 39.112469,908.797916 38.997929,907.720352 C 38.952803,907.295818 38.923051,906.887317 38.930585,906.475773 C 38.940727,905.921678 39.018458,905.362067 39.105222,904.806753 C 39.240263,903.942447 39.397185,903.088548 39.571744,902.236866 C 40.292037,898.722517 41.312629,895.245912 42.642962,891.906123 C 43.992090,888.519149 45.659772,885.272884 47.575624,882.152624 C 49.502688,879.014102 51.680836,876.003066 54.175642,873.360350 C 54.270880,873.259466 54.366579,873.159118 54.466209,873.057520 C 54.533081,872.989326 54.601724,872.920570 54.685225,872.880363 C 54.733786,872.856981 54.787372,872.843255 54.840958,872.829528"
       style="stroke:#000000;fill:none"
       id="path4521" />
    <path
       d="M 147.953895,888.807604 148.915215,890.249584"
       style="stroke:#000000;fill:none"
       id="path4523" />
    <path
       d="M 148.915215,890.249584 148.212967,891.708098"
       style="stroke:#000000;fill:none"
       id="path4525" />
    <path
       d="M 133.076597,874.281430 C 133.172359,874.339051 133.268120,874.396673 133.362621,874.456268 C 133.566902,874.585094 133.765290,874.723139 133.963863,874.860790 C 134.226283,875.042700 134.489027,875.223922 134.750087,875.407561 C 136.503035,876.640652 138.180059,877.982751 139.779717,879.414189 C 141.347362,880.816980 142.840707,882.305570 144.202664,883.902985 C 145.537170,885.468204 146.745531,887.137905 147.953895,888.807604"
       style="stroke:#000000;fill:none"
       id="path4527" />
    <path
       d="M 126.781717,879.606719 124.749935,878.682331"
       style="stroke:#000000;fill:none"
       id="path4529" />
    <path
       d="M 124.749935,878.682331 125.863395,878.380817"
       style="stroke:#000000;fill:none"
       id="path4531" />
    <path
       d="M 148.212967,891.708098 C 148.069279,891.991570 147.925591,892.275042 147.773585,892.554851 C 147.622804,892.832405 147.463837,893.106354 147.297277,893.372515 C 147.167684,893.579604 147.033494,893.781979 146.887296,893.984067 C 146.783695,894.127276 146.674063,894.270341 146.566804,894.395775 C 146.488607,894.487223 146.411671,894.569300 146.325084,894.689474 C 146.289211,894.739263 146.251680,894.795592 146.214260,894.801520 C 146.162424,894.809731 146.110799,894.721228 146.060623,894.646429 C 145.936680,894.461664 145.821578,894.360516 145.706375,894.239860 C 145.547422,894.073383 145.388277,893.869768 145.228136,893.669878 C 144.231638,892.426028 143.196609,891.326388 142.111261,890.246288 C 141.007056,889.147422 139.850768,888.068782 138.649337,887.052185 C 137.497981,886.077960 136.305166,885.160713 135.071994,884.299214 C 134.197496,883.688285 133.302703,883.105391 132.391084,882.550024 C 131.513512,882.015398 130.620346,881.506281 129.709360,881.032063 C 128.746744,880.530970 127.764230,880.068844 126.781717,879.606719"
       style="stroke:#000000;fill:none"
       id="path4533" />
    <path
       d="M 133.076597,874.281430 133.076597,874.281430"
       style="stroke:#000000;fill:none"
       id="path4535" />
    <path
       d="M 77.321172,874.517864 78.283591,875.306654"
       style="stroke:#000000;fill:none"
       id="path4537" />
    <path
       d="M 125.863395,878.380817 C 126.601363,878.136070 127.339332,877.891324 128.051071,877.582178 C 128.791175,877.260712 129.502916,876.869611 130.177854,876.423963 C 130.828557,875.994318 131.445052,875.513974 132.040864,875.016751 C 132.195911,874.887361 132.349557,874.756828 132.505875,874.625729 C 132.623284,874.527262 132.742201,874.428476 132.877984,874.361577 C 132.941711,874.330179 133.009154,874.305804 133.076597,874.281430"
       style="stroke:#000000;fill:none"
       id="path4539" />
    <path
       d="M 76.626641,874.986948 77.321172,874.517864"
       style="stroke:#000000;fill:none"
       id="path4541" />
    <path
       d="M 78.283591,875.306654 C 79.007556,875.843628 79.731518,876.380601 80.530148,876.854644 C 81.321403,877.324311 82.185954,877.732206 82.970925,878.016149 C 83.709959,878.283474 84.378454,878.440930 85.421280,878.703242 C 85.539098,878.732877 85.661694,878.763852 85.689865,878.805849 C 85.741013,878.882103 85.480871,878.994697 85.254903,879.094524 C 84.538839,879.410865 84.165950,879.599012 83.761021,879.805118 C 81.889726,880.757599 79.334202,882.093637 77.083565,883.527491 C 74.865798,884.940402 72.944077,886.448293 71.105249,888.111100 C 69.285888,889.756304 67.547673,891.553162 65.930858,893.475814 C 65.778065,893.657509 65.626356,893.840328 65.475366,894.013093 C 65.364716,894.139702 65.254451,894.260912 65.129294,894.396092 C 65.076462,894.453155 65.020975,894.512708 64.967334,894.541862 C 64.724112,894.674053 64.518813,894.181282 64.318918,893.796407 C 63.939700,893.066267 63.579929,892.724440 63.255151,892.253202 C 62.992048,891.871452 62.751910,891.404774 62.486867,890.943528 C 62.341701,890.690900 62.189064,890.439902 62.175312,890.172458 C 62.164631,889.964715 62.237750,889.747048 62.329891,889.545230 C 62.533587,889.099072 62.830244,888.730366 63.124069,888.358328 C 64.421679,886.715315 65.664072,885.007344 67.037404,883.412421 C 68.445440,881.777193 69.991117,880.260799 71.631972,878.862493 C 73.236209,877.495393 74.931424,876.241169 76.626641,874.986948"
       style="stroke:#000000;fill:none"
       id="path4543" />
    <path
       d="M 105.864084,879.654193 C 111.365259,880.582702 116.866435,881.511211 121.826423,883.749768 C 126.347160,885.790081 130.418320,888.918683 134.198913,892.265717 C 137.956233,895.592147 141.426553,899.134328 144.896875,902.676508"
       style="stroke:#000000;fill:none"
       id="path4545" />
    <path
       d="M 144.896875,902.676508 C 145.623373,903.312333 146.349873,903.948160 147.076056,904.584414 C 147.690996,905.123202 148.305709,905.662297 148.914247,906.208199 C 149.680597,906.895668 150.437155,907.593933 151.185119,908.301848 C 152.486511,909.533558 153.761885,910.794483 154.968637,912.118403 C 156.089869,913.348500 157.151860,914.632980 158.156597,915.961527 C 159.208549,917.352504 160.197738,918.791787 161.114714,920.272041 C 161.565909,921.000395 161.999620,921.738669 162.420099,922.488585 C 162.903659,923.351007 163.369719,924.228828 163.825217,925.091874 C 164.208230,925.817579 164.583776,926.532838 164.921406,927.324840 C 165.022520,927.562029 165.120233,927.806101 165.243533,927.996559 C 165.338503,928.143257 165.448654,928.258148 165.512041,928.503660 C 165.539450,928.609822 165.558116,928.740406 165.637436,928.717759 C 165.638350,928.717498 165.639272,928.717216 165.640137,928.716822 C 165.641702,928.716110 165.643081,928.715029 165.644602,928.714217 C 165.645660,928.713652 165.646787,928.713218 165.647904,928.712792 C 165.967576,928.590988 165.460584,929.202574 165.167085,929.622957 C 164.851129,930.075506 164.782587,930.306469 164.634634,930.594780 C 164.489797,930.877021 164.268858,931.214219 164.084106,931.529502 C 163.797803,932.018086 163.598405,932.454043 163.139831,932.920315 C 162.680705,933.387150 161.961777,933.884374 162.261273,934.355923 C 162.336160,934.473830 162.474719,934.590132 162.578754,934.632178 C 163.010888,934.806825 162.847374,933.700312 162.576594,932.884105 C 161.926040,930.923156 160.656340,930.637881 159.474098,930.053451 C 157.804988,929.228343 156.310204,927.806953 154.815420,926.385559"
       style="stroke:#000000;fill:none"
       id="path4547" />
    <path
       d="M 154.815420,926.385559 C 153.302308,924.786493 151.789196,923.187425 149.638889,922.357607 C 148.902232,922.073326 148.090793,921.879326 147.420542,921.999878 C 145.912904,922.271043 145.119625,924.133723 144.326346,925.996404"
       style="stroke:#000000;fill:none"
       id="path4549" />
    <path
       d="M 157.041418,937.811151 159.791241,940.350047"
       style="stroke:#000000;fill:none"
       id="path4551" />
    <path
       d="M 144.326346,925.996404 C 144.612702,926.199351 144.899054,926.402295 145.183224,926.608247 C 145.463725,926.811539 145.742100,927.017761 146.019266,927.225640 C 146.291873,927.430100 146.563310,927.636163 146.831067,927.846834 C 148.028708,928.789133 149.152742,929.823624 150.246800,930.886166 C 151.459055,932.063500 152.634508,933.275273 153.810836,934.486620 C 154.887208,935.595036 155.964313,936.703095 157.041418,937.811151"
       style="stroke:#000000;fill:none"
       id="path4553" />
    <path
       d="M 148.407544,960.815020 147.175026,961.722319"
       style="stroke:#000000;fill:none"
       id="path4555" />
    <path
       d="M 147.175026,961.722319 146.060469,960.845336"
       style="stroke:#000000;fill:none"
       id="path4557" />
    <path
       d="M 159.791241,940.350047 C 158.862862,942.588386 157.934485,944.826721 157.001012,947.079410 C 155.906436,949.720879 154.804853,952.382085 153.277247,954.767196 C 151.888680,956.935219 150.148113,958.875119 148.407544,960.815020"
       style="stroke:#000000;fill:none"
       id="path4559" />
    <path
       d="M 110.294865,973.677076 110.203916,974.291131"
       style="stroke:#000000;fill:none"
       id="path4561" />
    <path
       d="M 110.203916,974.291131 106.007513,974.142854"
       style="stroke:#000000;fill:none"
       id="path4563" />
    <path
       d="M 106.007513,974.142854 101.054845,974.291131"
       style="stroke:#000000;fill:none"
       id="path4565" />
    <path
       d="M 101.054845,974.291131 100.995867,974.000087"
       style="stroke:#000000;fill:none"
       id="path4567" />
    <path
       d="M 146.060469,960.845336 C 145.350712,960.321150 144.640957,959.796965 143.894992,959.327933 C 143.167828,958.870722 142.406258,958.465920 141.625078,958.106748 C 140.837185,957.744489 140.029346,957.428647 139.205004,957.157153 C 137.027717,956.440072 134.735313,956.032373 132.440683,955.977176 C 130.188766,955.923006 127.934706,956.208336 125.751641,956.793347 C 123.526097,957.389742 121.374338,958.297594 119.465987,959.565414 C 118.810376,960.000972 118.183494,960.479015 117.579035,960.982978 C 116.876801,961.568461 116.204832,962.188926 115.561347,962.839521 C 115.013875,963.393041 114.487021,963.968371 114.012263,964.583678 C 113.345505,965.447826 112.781501,966.390825 112.286203,967.368264 C 111.790056,968.347381 111.362851,969.361057 111.044390,970.406020 C 110.718744,971.474563 110.506805,972.575819 110.294865,973.677076"
       style="stroke:#000000;fill:none"
       id="path4569" />
    <path
       d="M 65.129939,960.887778 64.073261,961.733895"
       style="stroke:#000000;fill:none"
       id="path4571" />
    <path
       d="M 64.073261,961.733895 63.388651,960.216399"
       style="stroke:#000000;fill:none"
       id="path4573" />
    <path
       d="M 100.995867,974.000087 C 100.975543,973.892229 100.955218,973.784368 100.935205,973.676446 C 100.900073,973.487000 100.865901,973.297366 100.832813,973.107572 C 100.792640,972.877133 100.754066,972.646458 100.710886,972.416446 C 100.328616,970.380170 99.585335,968.395818 98.543755,966.593695 C 97.462288,964.722562 96.059240,963.047882 94.444079,961.613082 C 92.770356,960.126261 90.868861,958.897030 88.830545,957.983425 C 86.270167,956.835825 83.493908,956.186234 80.668344,956.012020 C 77.884828,955.840398 75.053462,956.130110 72.457809,957.018105 C 69.857477,957.907701 67.493707,959.397739 65.129939,960.887778"
       style="stroke:#000000;fill:none"
       id="path4575" />
    <path
       d="M 63.388651,960.216399 C 62.459387,958.223615 61.530121,956.230828 60.601200,954.237714 C 59.436589,951.738895 58.272520,949.239561 57.060122,946.763880 C 56.124962,944.854313 55.161050,942.958818 54.197135,941.063319"
       style="stroke:#000000;fill:none"
       id="path4577" />
    <path
       d="M 54.197135,941.063319 C 53.683650,940.669654 53.170162,940.275988 52.984278,939.703774 C 52.918258,939.500542 52.893563,939.274787 52.911694,939.060769 C 52.962469,938.461408 53.349119,937.954102 53.735769,937.446796"
       style="stroke:#000000;fill:none"
       id="path4579" />
    <path
       d="M 53.735769,937.446796 C 54.922659,936.068375 56.109549,934.689951 57.369413,933.378989 C 58.638883,932.058030 59.982446,930.805567 61.385123,929.626669 C 62.797743,928.439415 64.270318,927.326774 65.742892,926.214133"
       style="stroke:#000000;fill:none"
       id="path4581" />
    <path
       d="M 65.742892,926.214133 C 65.190756,924.693938 64.638615,923.173740 63.457609,921.731236 C 63.039138,921.220108 62.541710,920.718733 62.048692,920.638619 C 61.314182,920.519262 60.589456,921.334918 59.864733,922.150573"
       style="stroke:#000000;fill:none"
       id="path4583" />
    <path
       d="M 45.899143,928.680268 45.319815,927.578941"
       style="stroke:#000000;fill:none"
       id="path4585" />
    <path
       d="M 45.319815,927.578941 46.033090,926.093969"
       style="stroke:#000000;fill:none"
       id="path4587" />
    <path
       d="M 59.864733,922.150573 C 58.636573,923.319659 57.408413,924.488745 56.238160,925.717006 C 55.121741,926.888762 54.058025,928.114373 53.050524,929.375539 C 52.071253,930.601367 51.145091,931.860786 50.258152,933.176532 C 50.121271,933.379591 49.985324,933.583991 49.849738,933.779042 C 49.752211,933.919341 49.654871,934.054804 49.550631,934.208757 C 49.509613,934.269337 49.467526,934.332781 49.425817,934.372668 C 49.146714,934.639580 48.884520,933.851681 48.629983,933.246933 C 48.110741,932.013277 47.623367,931.541792 47.148844,930.856219 C 46.725456,930.244524 46.312299,929.462396 45.899143,928.680268"
       style="stroke:#000000;fill:none"
       id="path4589" />
    <path
       d="M 46.033090,926.093969 C 47.607909,922.095074 49.182732,918.096183 51.579245,914.642212 C 53.793087,911.451516 56.708129,908.725835 59.656378,906.102801 C 62.576323,903.504948 65.528841,901.007780 68.481358,898.510613"
       style="stroke:#000000;fill:none"
       id="path4591" />
    <path
       d="M 105.152035,879.587419 105.864084,879.654193"
       style="stroke:#000000;fill:none"
       id="path4593" />
    <path
       d="M 68.481358,898.510613 C 72.308353,895.466346 76.135348,892.422077 80.125467,889.487905 C 83.893127,886.717320 87.806228,884.044897 92.096742,882.405414 C 96.216524,880.831170 100.684279,880.209294 105.152035,879.587419"
       style="stroke:#000000;fill:none"
       id="path4595" />
    <path
       d="M 155.838483,878.259511 155.838480,878.259511"
       style="stroke:#000000;fill:none"
       id="path4597" />
    <path
       d="M 155.838480,878.259511 C 155.834841,878.259061 155.831200,878.258610 155.828499,878.259845 C 155.824288,878.261771 155.822359,878.267796 155.820846,878.273400 C 155.817985,878.283998 155.816612,878.293088 155.816437,878.302505 C 155.816091,878.321171 155.820455,878.341122 155.821388,878.360643 C 155.822557,878.385127 155.818327,878.408937 155.832377,878.432992 C 155.845554,878.455552 155.874808,878.478328 155.888647,878.472283 C 155.902064,878.466422 155.900995,878.433479 155.898335,878.406463 C 155.894543,878.367935 155.887515,878.341463 155.873678,878.314844 C 155.864115,878.296447 155.851299,878.277979 155.838483,878.259511"
       style="stroke:#000000;fill:none"
       id="path4599" />
    <path
       d="M 155.707299,878.815137 155.707292,878.815137"
       style="stroke:#000000;fill:none"
       id="path4601" />
    <path
       d="M 155.707292,878.815137 C 155.702689,878.822996 155.698087,878.830854 155.694752,878.839169 C 155.689123,878.853202 155.687103,878.868537 155.685175,878.883899 C 155.682414,878.905898 155.679840,878.927950 155.678628,878.949084 C 155.676513,878.985957 155.678544,879.020034 155.683872,879.063268 C 155.686960,879.088332 155.691157,879.116474 155.709705,879.124292 C 155.721165,879.129122 155.738104,879.126194 155.750286,879.118857 C 155.771206,879.106257 155.778098,879.080655 155.782477,879.056350 C 155.788017,879.025603 155.789535,878.996933 155.786454,878.967492 C 155.783014,878.934603 155.773836,878.900753 155.761320,878.871361 C 155.755589,878.857902 155.749158,878.845378 155.740642,878.830832 C 155.735793,878.822550 155.730269,878.813614 155.722635,878.812208 C 155.718034,878.811361 155.712667,878.813249 155.707299,878.815137"
       style="stroke:#000000;fill:none"
       id="path4603" />
    <path
       d="M 155.568944,879.332177 155.568937,879.332177"
       style="stroke:#000000;fill:none"
       id="path4605" />
    <path
       d="M 57.820277,886.113780 58.544022,887.981297"
       style="stroke:#000000;fill:none"
       id="path4607" />
    <path
       d="M 155.568937,879.332177 C 155.564334,879.340085 155.559731,879.347991 155.556397,879.356352 C 155.550765,879.370476 155.548751,879.385899 155.546821,879.401347 C 155.544067,879.423394 155.541484,879.445490 155.540271,879.466675 C 155.538160,879.503560 155.540202,879.537683 155.545662,879.580858 C 155.548832,879.605928 155.553155,879.634049 155.571765,879.641884 C 155.583282,879.646733 155.600272,879.643811 155.612482,879.636451 C 155.633419,879.623829 155.640300,879.598156 155.644674,879.573796 C 155.650213,879.542943 155.651729,879.514195 155.648650,879.484671 C 155.645217,879.451745 155.636069,879.417855 155.623515,879.388401 C 155.617766,879.374912 155.611302,879.362353 155.602693,879.347870 C 155.597763,879.339578 155.592131,879.330655 155.584423,879.329248 C 155.579769,879.328398 155.574358,879.330288 155.568944,879.332177"
       style="stroke:#000000;fill:none"
       id="path4609" />
    <path
       d="M 61.824855,894.521466 62.915159,895.987148"
       style="stroke:#000000;fill:none"
       id="path4611" />
    <path
       d="M 62.915159,895.987148 60.517924,898.156729"
       style="stroke:#000000;fill:none"
       id="path4613" />
    <path
       d="M 58.544022,887.981297 C 58.919854,888.929380 59.295683,889.877459 59.709319,890.811289 C 60.020207,891.513157 60.352453,892.206975 60.740691,892.867400 C 61.074486,893.435211 61.449672,893.978337 61.824855,894.521466"
       style="stroke:#000000;fill:none"
       id="path4615" />
    <path
       d="M 41.690062,919.242369 41.176332,917.755189"
       style="stroke:#000000;fill:none"
       id="path4617" />
    <path
       d="M 41.176332,917.755189 41.414457,916.527083"
       style="stroke:#000000;fill:none"
       id="path4619" />
    <path
       d="M 60.517924,898.156729 C 59.317246,899.270181 58.116566,900.383635 56.971686,901.553318 C 55.938173,902.609222 54.950131,903.710949 54.010067,904.851584 C 53.034788,906.034948 52.111148,907.260189 51.222229,908.509105 C 50.210511,909.930550 49.243769,911.382662 48.345099,912.881585 C 47.500530,914.290271 46.716083,915.740300 46.004830,917.208279 C 45.278138,918.708123 44.627853,920.226703 44.019502,921.825365 C 43.913542,922.103814 43.808854,922.384693 43.703635,922.641772 C 43.627374,922.828100 43.550833,923.001926 43.470082,923.231688 C 43.437467,923.324490 43.404165,923.426417 43.369617,923.467437 C 43.259991,923.597598 43.137819,923.114498 43.024444,922.731174 C 42.767731,921.863219 42.556122,921.506819 42.344304,921.020177 C 42.126371,920.519488 41.908217,919.880929 41.690062,919.242369"
       style="stroke:#000000;fill:none"
       id="path4621" />
    <path
       d="M 56.547521,887.465909 57.820277,886.113780"
       style="stroke:#000000;fill:none"
       id="path4623" />
    <path
       d="M 41.414457,916.527083 C 42.318454,913.003444 43.222449,909.479805 44.524399,906.090887 C 45.842592,902.659690 47.568732,899.366597 49.616712,896.311748 C 51.704088,893.198137 54.125805,890.332023 56.547521,887.465909"
       style="stroke:#000000;fill:none"
       id="path4625" />
    <path
       d="M 169.393964,918.902271 169.596811,920.177784"
       style="stroke:#000000;fill:none"
       id="path4627" />
    <path
       d="M 169.596811,920.177784 169.139303,921.359034"
       style="stroke:#000000;fill:none"
       id="path4629" />
    <path
       d="M 152.981532,886.793978 C 153.070147,886.840866 153.158761,886.887756 153.240817,886.943552 C 153.427124,887.070237 153.579619,887.242833 153.733607,887.411601 C 153.990556,887.693214 154.251663,887.964169 154.509499,888.238714 C 156.137330,889.972036 157.634794,891.848465 159.029554,893.791493 C 160.401107,895.702189 161.673346,897.677286 162.812140,899.729881 C 163.910182,901.709022 164.884159,903.760214 165.732795,905.858312 C 165.863831,906.182273 165.991878,906.507353 166.120576,906.832189 C 166.228039,907.103427 166.335955,907.374495 166.445188,907.645054 C 166.509197,907.803597 166.573657,907.961965 166.636236,908.121049 C 167.024929,909.109149 167.341050,910.124832 167.635112,911.146154 C 168.008028,912.441348 168.345470,913.745611 168.636219,915.060178 C 168.918049,916.334422 169.156006,917.618347 169.393964,918.902271"
       style="stroke:#000000;fill:none"
       id="path4631" />
    <path
       d="M 150.736433,898.964259 148.069102,896.467259"
       style="stroke:#000000;fill:none"
       id="path4633" />
    <path
       d="M 148.069102,896.467259 148.894820,895.402860"
       style="stroke:#000000;fill:none"
       id="path4635" />
    <path
       d="M 169.139303,921.359034 C 169.038542,921.614850 168.937781,921.870668 168.835319,922.126628 C 168.717806,922.420187 168.598055,922.713934 168.478468,923.003677 C 168.369439,923.267839 168.260547,923.528673 168.146015,923.800367 C 168.054037,924.018560 167.958422,924.243758 167.866846,924.434959 C 167.800593,924.573289 167.736454,924.693825 167.649569,924.887035 C 167.614402,924.965239 167.575508,925.055348 167.541332,925.058793 C 167.500429,925.062916 167.466282,924.942896 167.434176,924.840716 C 167.353796,924.584904 167.286202,924.440905 167.219503,924.271537 C 167.127042,924.036751 167.036300,923.753212 166.943813,923.474600 C 166.460728,922.019339 165.930017,920.698471 165.345779,919.370082 C 164.721312,917.950221 164.035692,916.521767 163.296744,915.131442 C 162.587219,913.796477 161.828526,912.496665 161.022109,911.224943 C 160.060849,909.709035 159.031775,908.233040 157.939874,906.805059 C 156.903624,905.449858 155.810786,904.137903 154.653200,902.887278 C 153.398336,901.531558 152.067384,900.247911 150.736433,898.964259"
       style="stroke:#000000;fill:none"
       id="path4637" />
    <path
       d="M 152.981532,886.793978 152.981532,886.793978"
       style="stroke:#000000;fill:none"
       id="path4639" />
    <path
       d="M 148.894820,895.402860 C 149.083356,895.139830 149.271889,894.876799 149.447490,894.605244 C 149.655706,894.283253 149.845739,893.949279 150.026738,893.611077 C 150.228086,893.234850 150.418253,892.853392 150.604140,892.468741 C 150.956474,891.739668 151.293436,890.999124 151.594967,890.254226 C 151.890447,889.524277 152.151905,888.790148 152.506254,888.058435 C 152.685756,887.687772 152.889095,887.317730 152.906014,886.922412 C 152.907019,886.898922 152.907367,886.875343 152.913809,886.851277 C 152.918296,886.834518 152.925739,886.817524 152.938387,886.807926 C 152.949896,886.799194 152.965715,886.796585 152.981532,886.793978"
       style="stroke:#000000;fill:none"
       id="path4641" />
    <path
       d="M 145.443341,920.459526 C 144.243475,927.476359 143.043610,934.493193 139.705012,940.519348 C 136.465032,946.367496 131.210803,951.282628 125.199761,954.646778 C 119.005754,958.113327 112.008159,959.933040 104.995510,959.853805 C 97.982861,959.774570 90.955158,957.796387 84.914197,954.191140 C 79.051681,950.692389 74.118473,945.661278 70.732186,939.739252 C 67.242827,933.636969 65.395993,926.588710 65.449028,919.554775 C 65.502063,912.520839 67.454967,905.501227 71.035947,899.452253 C 74.511148,893.581962 79.519661,888.625811 85.434269,885.215859 C 91.528908,881.702113 98.585643,879.830126 105.598690,879.856645 C 112.611737,879.883164 119.581096,881.808188 125.722127,885.367744 C 131.681757,888.822153 136.861271,893.815954 140.012698,899.712292 C 143.260048,905.788106 144.353969,912.822236 145.447891,919.856363"
       style="stroke:#000000;fill:none"
       id="path4643" />
  </g>
</svg>
