<?xml version="1.0" encoding="UTF-8" standalone="no"?>
<!-- Created with Inkscape (http://www.inkscape.org/) -->

<svg
   xmlns:dc="http://purl.org/dc/elements/1.1/"
   xmlns:cc="http://creativecommons.org/ns#"
   xmlns:rdf="http://www.w3.org/1999/02/22-rdf-syntax-ns#"
   xmlns:svg="http://www.w3.org/2000/svg"
   xmlns="http://www.w3.org/2000/svg"
   xmlns:sodipodi="http://sodipodi.sourceforge.net/DTD/sodipodi-0.dtd"
   xmlns:inkscape="http://www.inkscape.org/namespaces/inkscape"
   id="svg3336"
   version="1.1"
   inkscape:version="0.91 r13725"
   width="1076"
   height="1280"
   viewBox="0 0 1076 1280"
   sodipodi:docname="zebra biba.svg">
  <metadata
     id="metadata3342">
    <rdf:RDF>
      <cc:Work
         rdf:about="">
        <dc:format>image/svg+xml</dc:format>
        <dc:type
           rdf:resource="http://purl.org/dc/dcmitype/StillImage" />
        <dc:title></dc:title>
      </cc:Work>
    </rdf:RDF>
  </metadata>
  <defs
     id="defs3340" />
  <sodipodi:namedview
     pagecolor="#ffffff"
     bordercolor="#666666"
     borderopacity="1"
     objecttolerance="10"
     gridtolerance="10"
     guidetolerance="10"
     inkscape:pageopacity="0"
     inkscape:pageshadow="2"
     inkscape:window-width="1440"
     inkscape:window-height="838"
     id="namedview3338"
     showgrid="false"
     inkscape:zoom="0.4984375"
     inkscape:cx="916.11652"
     inkscape:cy="570.72446"
     inkscape:window-x="-8"
     inkscape:window-y="-8"
     inkscape:window-maximized="1"
     inkscape:current-layer="svg3336" />
  <path
     style="fill:#241f1c"
     d="m 774.96877,274.95426 c -23.2098,0.25941 -53.1539,4.0238 -80.3594,10.52929 -31.7047,7.58135 -57.0515,17.90357 -75.5586,30.76758 -4.8256,3.35426 -12.0091,9.29419 -13.873,11.47266 -0.5887,0.68807 -0.8883,0.57597 -2.6934,-1.00586 -4.1158,-3.60655 -17.5064,-12.86183 -23.668,-16.35938 -24.9084,-14.13886 -56.7469,-23.7658 -93.7617,-28.35156 -31.3334,-3.88189 -61.671,-3.49215 -89.5332,1.15235 -10.6486,1.77504 -9.9723,0.96167 -13.0937,15.73632 -1.4225,6.73275 -4.1478,19.52262 -6.0547,28.42188 -1.9068,8.89925 -3.4668,16.44891 -3.4668,16.77539 0,0.32649 -0.4986,0.70644 -1.1094,0.84375 -0.6107,0.13732 -3.9536,1.35107 -7.4277,2.69922 -3.4742,1.34815 -6.4978,2.45117 -6.7188,2.45117 -0.221,0 -1.3587,-2.05118 -2.5293,-4.55859 -9.3121,-19.94556 -33.4262,-37.55645 -68.6367,-50.12696 -31.939,-11.40255 -68.9458,-18.40265 -106.5058,-20.14844 -20.4821,-0.952 -34.3108,0.47903 -41.6094,4.3086 -4.8215,2.52981 -6.6275,8.98483 -5.4414,19.44922 2.917,25.73591 18.6723,57.88863 39.3164,80.23437 14.9449,16.17681 32.6055,28.10184 51.3652,34.68555 11.1508,3.91335 22.2212,5.95637 36.4824,6.73437 l 5.5274,0.30274 -1.1699,1.61719 c -1.5333,2.12005 -5.4777,8.82264 -7.4922,12.73046 -1.4431,2.79923 -2.4581,3.74585 -10.4825,9.78321 -14.1911,10.67718 -22.5171,17.93311 -32.9804,28.73828 -30.9361,31.94686 -49.1708,68.50807 -53.8067,107.88867 -1.52,12.91265 -0.8294,32.0714 1.6602,46.11328 9.3113,52.51826 46.386,102.14999 102.7344,137.52735 6.2887,3.94827 19.3641,11.5713 21.1406,12.32617 0.1102,0.0468 -1.6592,1.85004 -3.9316,4.00586 -8.0669,7.65313 -14.8482,18.71796 -17.1583,27.99804 -1.5067,6.05254 -1.937,12.89273 -1.0097,16.02543 3.4723,11.7293 18.1908,17.0105 51.4062,18.4453 11.9688,0.5168 64.935,0.5305 81.8555,0.022 25.318,-0.7618 38.6314,-2.3964 49.2695,-6.0508 8.9204,-3.0644 14.4975,-7.8087 15.7715,-13.418 l 0.4297,-1.8926 15.6797,0 15.6816,0 0.7539,2.5606 c 1.6899,5.7298 7.3179,10.3331 15.9981,13.0879 15.0402,4.7733 35.3748,6.1542 90.7402,6.1582 29.2164,0 44.6003,-0.4274 55.5215,-1.5469 26.8935,-2.7567 37.6766,-10.1892 36.1719,-24.9336 -1.4378,-14.08924 -7.7352,-26.32287 -18.8555,-36.62499 -1.7764,-1.64569 -3.259,-3.20104 -3.293,-3.45704 -0.034,-0.256 3.5067,-2.48694 7.8692,-4.95703 63.1771,-35.77175 104.6019,-87.48292 115.4707,-144.14453 2.6375,-13.74951 3.3391,-35.07803 1.6055,-48.79297 -5.6224,-44.47881 -28.346,-84.75606 -67.5254,-119.69336 -7.2031,-6.42313 -12.6584,-10.73145 -22.418,-17.70312 l -8.8887,-6.34961 -3.7363,-6.47852 c -2.0542,-3.56318 -4.16,-7.05672 -4.6797,-7.76172 -0.5197,-0.70499 -0.9453,-1.39082 -0.9453,-1.52539 0,-0.13457 1.3578,-0.2452 3.0156,-0.24609 12.2154,-0.007 30.7701,-4.43517 44.0469,-10.50976 17.6383,-8.07015 35.242,-22.3266 49.043,-39.7168 16.4096,-20.67726 29.164,-49.50284 31.5976,-71.4082 1.55,-13.95167 -1.8571,-19.63558 -13.1543,-21.93946 -6.8775,-1.40256 -16.036,-2.00854 -26.5859,-1.89062 z m 2.6601,7.99804 c 11.8142,0.0333 21.5074,1.08429 23.9571,2.80274 5.3745,3.77029 0.5865,28.09175 -9.8653,50.11328 -16.2199,34.17472 -42.3329,59.89387 -71.4961,70.41797 -11.4138,4.11892 -20.8681,5.85073 -34.8339,6.38086 -4.5212,0.17162 -8.8222,0.46705 -9.5586,0.6582 -1.185,0.30763 -1.9186,-0.27747 -6.3946,-5.0957 l -5.0566,-5.44336 5.0547,-0.55664 c 10.1162,-1.11665 20.5407,-4.05966 29.8652,-8.42969 8.9369,-4.18836 19.9352,-12.42882 27.3438,-20.48633 9.9328,-10.80271 19.0452,-27.39643 23.1972,-42.24609 1.6662,-5.95936 2.3729,-15.76994 1.3008,-18.04883 -1.8196,-3.86781 -7.8733,-5.55573 -18.1308,-5.05273 -18.7808,0.92095 -44.2588,8.70024 -63.1973,19.29492 -20.7768,11.62312 -35.9276,27.3142 -43.4981,45.04883 -0.194,0.45454 -0.9311,0.1907 -2.6269,-0.93555 -3.4158,-2.26864 -10.2172,-5.99221 -18.3457,-10.04688 -4.57,-2.27963 -6.8847,-3.69788 -6.4902,-3.97461 0.3372,-0.23656 1.7619,-3.09913 3.166,-6.36328 4.998,-11.61889 11.9065,-19.57221 24.9824,-28.75976 8.7512,-6.14895 15.1871,-9.73681 25.7422,-14.34961 30.3874,-13.27982 72.2371,-22.43009 112.5527,-24.60938 4.2197,-0.22809 8.394,-0.32945 12.332,-0.31836 z m -606.8339,0.0586 c 2.912,0.0151 5.9209,0.0917 8.9355,0.23242 23.2655,1.08615 44.9497,4.13582 68.5527,9.63867 54.611,12.7321 89.9402,34.57812 98.2735,60.76758 0.5843,1.83621 1.454,3.97125 1.9316,4.74609 0.7044,1.14277 0.7124,1.45171 0.047,1.63086 -1.4081,0.37906 -15.6712,8.06137 -21.0469,11.33594 l -5.1269,3.12109 -2.6914,-5.60156 c -10.8839,-22.64744 -34.623,-41.43454 -66.4102,-52.55859 -23.281,-8.14727 -46.4477,-10.82865 -53.9004,-6.23828 -3.1886,1.96395 -3.7196,3.62843 -3.3027,10.36718 0.9723,15.71655 11.7143,38.52466 24.8965,52.86133 12.3474,13.42882 28.7893,23.08487 45.9843,27.00586 5.7541,1.3121 12.835,2.29492 16.5391,2.29492 1.7222,0 3.1328,0.091 3.1328,0.20117 0,0.11017 -2.1511,2.51207 -4.7793,5.33985 -2.6283,2.82778 -4.841,5.11182 -4.918,5.07422 -0.076,-0.0376 -4.9302,-0.22179 -10.7871,-0.40821 -5.8568,-0.18642 -12.7112,-0.5768 -15.2304,-0.86914 -11.5537,-1.34075 -25.0964,-5.51518 -35.6719,-10.99414 -11.356,-5.88334 -23.4943,-15.38062 -33.502,-26.21093 -21.0139,-22.74123 -37.3117,-57.73557 -37.5097,-80.54297 -0.07,-8.01522 0.3023,-8.67719 5.4922,-9.7793 4.4956,-0.9547 12.3557,-1.45943 21.0918,-1.41406 z m 250.1933,7.14453 c 0.3631,-0.0121 0.5804,-0.004 0.625,0.0273 0.2263,0.15878 -0.4242,3.37027 -5.5781,27.52149 -4.3191,20.23949 -4.0394,19.23403 -5.3965,19.38867 -0.6856,0.0781 -4.6714,0.72233 -8.8594,1.43164 -4.188,0.70931 -9.5427,1.68371 -11.8984,2.16601 -3.9376,0.80619 -4.2852,0.81617 -4.2852,0.12891 0,-0.78185 9.3286,-45.00716 9.8418,-46.64844 0.2507,-0.80216 1.2633,-1.08464 6.8086,-1.89648 6.5801,-0.96336 16.2007,-2.03432 18.7422,-2.11914 z m 60.6035,1.7168 c 1.5898,0.0229 3.3922,0.2659 6.92,0.75 3.9274,0.53896 7.2004,1.02076 7.2734,1.07226 0.073,0.0515 -0.1108,0.99319 -0.4102,2.0918 -0.2994,1.09861 -1.1403,4.90117 -1.8691,8.45117 -0.7288,3.55 -1.6022,7.65798 -1.9395,9.12695 -0.3373,1.46896 -1.2115,5.575 -1.9433,9.125 -0.7319,3.55 -1.5222,7.20644 -1.7559,8.125 l -0.4258,1.66993 -12.8476,0.10937 -12.8496,0.11133 0.3301,-1.33594 c 0.1814,-0.73448 2.0397,-9.34752 4.1289,-19.14062 2.0892,-9.79311 3.913,-18.02655 4.0546,-18.29688 0.1417,-0.27034 2.7006,-0.85158 5.6856,-1.29102 2.6811,-0.39471 4.0587,-0.59124 5.6484,-0.56835 z m 61,13.9375 c 0.6832,1.2e-4 2.8579,0.63585 5.2461,1.55078 5.2727,2.01987 17.0619,7.3332 17.584,7.92578 0.1712,0.19438 -0.5015,4.04917 -1.4941,8.56445 -0.9927,4.51528 -2.163,9.96128 -2.6016,12.10352 -0.8588,4.1948 -0.8952,4.22033 -4.7187,3.41992 -1.047,-0.21918 -6.116,-1.04291 -11.2637,-1.83203 -7.119,-1.09132 -9.3592,-1.59974 -9.3692,-2.12305 -0.025,-1.56032 5.9776,-29.20803 6.42,-29.56836 0.033,-0.0269 0.1,-0.041 0.1972,-0.041 z m -68.1816,56.67578 c 44.0715,-0.16248 88.0129,8.87519 126.4668,26.88476 42.9655,20.1226 74.2127,48.19366 93.8125,84.27344 l 3.3711,6.20313 -0.068,12.24023 c -0.037,6.73276 -0.313,13.114 -0.6113,14.17969 l -0.541,1.9375 -2.1446,-4.16407 c -8.0988,-15.72489 -20.7404,-32.08444 -35.2031,-45.56054 -14.2144,-13.24468 -33.1544,-26.26653 -52.0078,-35.75586 -33.6909,-16.95733 -71.7505,-26.85914 -113.3183,-29.48438 -10.6875,-0.67498 -36.9021,-0.29836 -47.0176,0.67578 -49.8613,4.80175 -93.8127,19.85846 -129.9922,44.53321 -17.2715,11.77929 -30.7762,23.91744 -42.5879,38.28125 -4.7145,5.73308 -12.1095,16.51406 -15.4219,22.48047 -1.5631,2.81552 -3.0711,5.52011 -3.3515,6.00976 -0.9377,1.63707 -1.6221,-8.1216 -1.2735,-18.16211 0.3873,-11.1569 0.7149,-12.13654 7.9317,-23.69336 22.6538,-36.27734 62.6732,-66.34209 111.4062,-83.69531 31.9175,-11.36543 66.273,-17.05722 100.5508,-17.18359 z m 2.1523,60.44531 c 17.8965,0.0743 35.934,1.56856 52.545,4.44726 5.4963,0.95256 6.7436,1.29772 5.5546,1.54297 -11.4571,2.36306 -18.1716,4.42186 -24.9296,7.63868 -7.1596,3.40798 -14.7397,8.8079 -19.4278,13.83984 l -2.4258,2.60156 -14.0039,0.10156 -14.0039,0.10157 -2.4961,-2.70313 c -6.5779,-7.1234 -16.6107,-13.38776 -27.6757,-17.27734 -4.5467,-1.59828 -13.5999,-3.88976 -15.461,-3.91406 -3.4962,-0.0456 9.0357,-2.34806 21.5606,-3.96094 13.0099,-1.67536 26.8442,-2.47577 40.7636,-2.41797 z m 73.461,13.28125 c 5.3053,0.0347 10.6136,0.38584 14.0605,1.04297 6.302,1.20142 14.6991,3.95983 19.75,6.48828 5.6923,2.84946 13.5603,8.89761 16.8399,12.94336 3.855,4.75548 6.7293,11.02522 7.5683,16.51172 3.3877,22.15234 -18.716,42.09187 -50.3652,45.43359 -11.5906,1.2238 -22.4119,0.11604 -33.1074,-3.38867 -8.8987,-2.91596 -15.2445,-6.35585 -21.1582,-11.46875 -9.58,-8.28278 -13.8191,-17.37263 -13.125,-28.14258 0.424,-6.57909 1.8169,-10.47497 5.8144,-16.26172 7.7623,-11.23664 21.7574,-19.10125 39.6836,-22.29883 3.4317,-0.61212 8.7337,-0.89409 14.0391,-0.85937 z m -152.0528,0.0664 c 9.8233,-0.0275 13.0767,0.34528 21.1289,2.41992 17.4056,4.4845 30.9863,14.97614 36.3067,28.04687 2.9807,7.3228 2.2624,17.81787 -1.7344,25.3418 -6.7363,12.68095 -22.8006,22.67158 -41.4883,25.80273 -19.6353,3.28993 -39.8595,-0.47438 -54.6093,-10.16406 -5.5105,-3.62006 -10.7825,-8.8539 -13.7325,-13.63476 -7.8217,-12.67625 -5.9847,-27.89282 4.7403,-39.26368 3.2936,-3.49185 10.4621,-8.71949 15.2207,-11.10156 5.0086,-2.50726 13.4134,-5.26851 19.7109,-6.47461 3.9681,-0.75997 6.8101,-0.95125 14.457,-0.97265 z m 305.1914,14.44336 c 0.063,0.003 0.1404,0.0325 0.2325,0.0859 1.6767,0.97322 13.0223,10.22201 17.6035,14.34961 28.6416,25.80569 47.795,53.90938 57.957,85.03906 4.7557,14.56824 6.9674,26.99575 7.9414,44.60743 0.3498,6.32428 0.073,7.80007 -0.5429,2.89453 -2.3437,-18.65891 -7.3407,-35.34285 -15.5684,-51.97071 -12.5841,-25.43204 -28.2828,-45.46593 -51.3887,-65.58203 -4.0291,-3.50772 -8.208,-7.14858 -9.2871,-8.09179 -1.6436,-1.43659 -2.1394,-2.47124 -3.0508,-6.36719 -0.5984,-2.55796 -1.8789,-7.07534 -2.8476,-10.03906 -1.2005,-3.67266 -1.4891,-4.95007 -1.0489,-4.92578 z m -454.3027,2.54296 c 0.1605,0.004 0.1496,0.19489 0.035,0.54102 -1.1177,3.38134 -3.6457,13.52461 -3.9766,15.95508 -0.3552,2.60987 -0.6401,3.03269 -3.7578,5.56445 -10.2321,8.30891 -24.0118,22.09009 -32.7832,32.78711 -19.6957,24.01946 -33.2981,52.79893 -38.1856,80.79297 -0.5556,3.18276 -1.249,7.58952 -1.541,9.79297 l -0.5312,4.00781 -0.084,-3.5625 c -0.3181,-13.30888 3.029,-33.93573 7.9473,-48.96484 8.8674,-27.09695 26.163,-54.04581 49.2793,-76.78711 4.5613,-4.48733 16.9206,-15.32414 21.0683,-18.47266 1.52,-1.15375 2.2619,-1.66177 2.5293,-1.6543 z m 364.7363,2.92578 c 0.5611,-0.39364 14.1231,8.02911 23.3321,14.49219 15.2149,10.67805 26.3212,20.6019 36.9082,32.97852 5.3523,6.25713 12.6581,16.29596 16.0781,22.09179 l 2.2773,3.85938 -1.3496,3.82812 c -0.7426,2.10566 -2.2236,6.03151 -3.291,8.72461 -1.0675,2.6931 -2.1281,5.03894 -2.3555,5.21094 -0.2273,0.172 -2.2675,-2.12853 -4.5351,-5.11133 -7.8934,-10.38296 -18.1043,-21.101 -28.5098,-29.92382 -6.0989,-5.17132 -20.2964,-15.33759 -27.8515,-19.94532 -5.8054,-3.54065 -5.9071,-3.63773 -5.4903,-5.18554 2.4792,-9.20663 1.0479,-19.73975 -3.8261,-28.1543 -0.8693,-1.50088 -1.4941,-2.78993 -1.3868,-2.86524 z m -281.5703,3.2754 c 0.1484,0.0129 0.1563,0.13187 0.035,0.35156 -4.5055,8.16917 -5.7418,20.4889 -2.8613,28.51367 l 0.7519,2.0957 -5.332,3.3418 c -17.2482,10.81078 -34.4985,25.32034 -46.2364,38.89063 -2.5395,2.93596 -6.116,7.34648 -7.9492,9.80273 l -3.334,4.4668 -1.3574,-3.13282 c -0.7459,-1.72282 -2.3781,-5.98911 -3.6289,-9.48047 l -2.2754,-6.34765 2.0664,-3.36133 c 13.3184,-21.68175 34.4572,-42.65121 59.1504,-58.67773 7.032,-4.56392 10.3279,-6.51891 10.9707,-6.46289 z m 82.043,11.00781 c -3.7537,0.0465 -7.5943,0.81051 -11.166,2.43164 -8.0376,3.64806 -11.6696,9.87885 -9.4063,16.13672 2.2987,6.35569 10.0393,11.06879 19.0703,11.61133 8.9371,0.5369 17.4063,-2.97462 21.3789,-8.86329 1.5381,-2.28 1.8516,-3.31539 1.8516,-6.11132 0,-9.02409 -10.4675,-15.34452 -21.7285,-15.20508 z m 120.4316,0.006 c -1.0161,0.0216 -2.0493,0.0976 -3.0937,0.22851 -8.6669,1.08654 -15.2034,5.48303 -17.3887,11.69532 -0.8718,2.47814 -0.9298,3.42936 -0.3359,5.5039 1.9352,6.75994 9.1733,11.79997 18.0859,12.5918 9.9112,0.88056 18.5034,-2.42483 22.7774,-8.76172 6.7753,-10.04531 -4.8022,-21.5813 -20.045,-21.25781 z m -66.125,12.70508 5.4239,0 5.4257,0 0.754,3.33007 c 1.6686,7.35744 6.7533,15.16665 13.8925,21.57422 a 141.30064,141.30064 0 0 1 96.8809,57.53125 c 17.2408,7.12248 33.2493,15.89938 47.9648,26.32617 l 6.5996,4.67579 -3.9902,3.14843 c -5.9711,4.71316 -16.1986,11.28088 -27.2969,17.71289 a 141.30064,141.30064 0 0 1 1.834,9.46094 c 8.8708,-4.99666 17.5761,-10.38868 25.1387,-15.62109 l 8.25,-5.70703 6.373,3.4414 c 12.2584,6.61931 17.8352,10.09396 30.4512,18.97461 19.3168,13.59752 32.0074,25.05514 45.6348,41.20313 5.1441,6.09557 13.7922,18.09903 17.4941,24.27929 1.4666,2.44828 2.759,4.51987 2.8711,4.60547 0.1121,0.0856 0.942,-0.8648 1.8438,-2.11328 0.9018,-1.24848 1.7793,-2.26953 1.9511,-2.26953 0.5323,0 -5.6721,8.41148 -10.5117,14.25 -19.515,23.54338 -46.2216,45.13852 -76.3906,61.77344 l -5.6641,3.12304 -5.123,-3.01757 c -9.7822,-5.76128 -19.9687,-9.86578 -31.5059,-12.69532 -19.3776,-4.75241 -39.445,-5.32643 -58.5097,-1.88867 a 141.30064,141.30064 0 0 1 -59.9708,30.3457 c -7.4816,8.43799 -12.3228,17.97904 -14.3847,28.40821 l -0.418,2.11328 -15.8125,0 -15.8125,0 -0.2715,-1 c -0.1491,-0.55087 -0.7375,-3.00486 -1.3086,-5.45313 -1.9028,-8.15728 -6.2824,-16.04957 -12.6054,-23.21484 a 141.30064,141.30064 0 0 1 -63.918,-31.73242 c -30.4173,-4.6682 -62.7364,0.71807 -87,15.26367 l -4.8574,2.91211 -5.2949,-2.92383 c -14.8317,-8.18792 -32.9122,-20.38494 -44.6387,-30.11523 -9.3463,-7.75525 -8.9862,-6.61783 -3.6543,-11.5293 26.121,-24.06112 60.2152,-44.00674 98.5879,-58.06641 a 141.30064,141.30064 0 0 1 -1.8281,-22.13281 141.30064,141.30064 0 0 1 0.3984,-7.93164 c -25.9823,9.69563 -47.7528,20.90126 -68.9922,35.47656 -17.7428,12.17574 -32.1565,24.56822 -44.1484,37.95508 -2.0287,2.26466 -3.7509,4.11719 -3.8262,4.11719 -0.6785,0 -12.4017,-14.17115 -16.209,-19.59375 l -2.6621,-3.79297 3.2773,-5.11133 c 20.2358,-31.54831 53.032,-60.41668 91.4063,-80.46094 4.0135,-2.0964 7.6267,-3.98727 8.0293,-4.20117 0.4838,-0.25713 1.8578,0.44667 4.0547,2.07617 6.1358,4.55118 19.7476,13.02553 30.6054,19.23633 a 141.30064,141.30064 0 0 1 1.7891,-9.39062 c -12.5301,-7.49558 -30.5176,-19.54427 -30.5176,-20.5625 0,-0.51831 12.8021,-9.35722 19.0352,-13.14258 10.8829,-6.60915 22.473,-12.42569 34.6953,-17.42578 a 141.30064,141.30064 0 0 1 90.9492,-56.56445 c 7.6679,-6.61255 13.0129,-14.64129 14.7559,-22.32618 l 0.7558,-3.33007 z m 241.1582,20.35742 5.1231,4.17773 c 15.4983,12.63676 30.0318,28.29667 41.4668,44.6836 13.6096,19.50319 23.3835,41.85898 27.9297,63.8789 1.1507,5.57335 1.175,6.365 0.3222,10.90625 -1.5867,8.44881 -3.9719,17.09434 -7,25.38281 -1.6077,4.40082 -3.0722,8.45305 -3.2539,9.00391 -0.7122,2.1593 -1.1419,0.77713 -1.3144,-4.22851 -1.4572,-42.29719 -24.3397,-87.05918 -61.6875,-120.66602 -7.8072,-7.02514 -7.2513,-5.934 -5.7696,-11.32031 1.1321,-4.11544 3.516,-16.21085 4.004,-20.3125 l 0.1796,-1.50586 z m 1.0508,1.83984 c -0.204,0.0945 -0.2557,1.08895 -0.1074,2.41797 l 0.3086,2.76172 0.2031,-2.40039 c 0.1121,-1.3203 -0.027,-2.56314 -0.3086,-2.76172 -0.035,-0.0248 -0.066,-0.0311 -0.096,-0.0176 z m -467.2949,0.54688 c 0.5807,0.0431 0.7859,0.74223 0.7949,2.11328 0.01,1.50625 2.8406,15.45363 3.7188,18.32226 0.4543,1.48387 0.1866,1.8109 -5.6133,6.89844 -26.7084,23.42815 -45.4349,49.51067 -56.0938,78.12305 -4.1879,11.24189 -7.6959,25.27864 -8.4257,33.71875 -0.2171,2.50949 -0.571,4.5625 -0.7872,4.5625 -0.8124,0 -4.3991,-13.24864 -6.3984,-23.63672 -0.7891,-4.10029 -0.2541,-7.92982 2.6367,-18.87305 9.54,-36.11361 33.2526,-71.23041 67.1192,-99.40039 1.5124,-1.25802 2.4681,-1.87127 3.0488,-1.82812 z m 359.5645,4.99804 c 0.3908,0.10619 3.8504,1.85037 7.6894,3.87696 24.4096,12.88568 45.0888,28.60263 60.6856,46.125 l 4.4179,4.96289 -3.2304,5.02148 c -1.7762,2.76167 -4.516,6.28677 -6.0899,7.83399 -1.5738,1.54722 -2.9658,2.81445 -3.0937,2.81445 -0.1279,0 -2.1679,-1.75425 -4.5332,-3.89649 -13.1799,-11.93689 -30.3201,-23.78161 -46.6739,-32.25585 -12.6946,-6.57811 -23.7085,-11.24635 -38.1035,-16.15235 l -9.334,-3.18164 5.1153,-1.03711 c 9.883,-2.00334 20.7454,-6.4344 28.3906,-11.58008 2.2267,-1.49877 4.3691,-2.63743 4.7598,-2.53125 z m -256.2403,0.81446 4.4219,2.71484 c 9.5958,5.89281 21.8019,10.24366 32.8027,11.69141 2.3063,0.30353 2.2147,0.35018 -7.6289,3.79296 -32.1344,11.23903 -60.1706,27.33976 -81.9433,47.0586 -2.2302,2.01983 -4.2225,3.66997 -4.4278,3.66797 -0.9365,-0.01 -9.6392,-9.46371 -11.4023,-12.38672 -2.2371,-3.709 -2.4556,-3.04236 2.9297,-8.89844 15.989,-17.38699 38.6112,-34.16503 62.0547,-46.02539 l 3.1933,-1.61523 z m 363.5625,0.7539 c -0.104,-0.042 -0.1777,0.31632 -0.1777,0.95899 0,0.8569 0.1294,1.20774 0.289,0.77929 0.1596,-0.42845 0.1596,-1.13015 0,-1.55859 -0.04,-0.10711 -0.077,-0.16569 -0.1113,-0.17969 z m -0.6347,3.5625 c -0.1041,-0.042 -0.1778,0.31436 -0.1778,0.95703 0,0.8569 0.1295,1.20775 0.2891,0.7793 0.1596,-0.42845 0.1596,-1.12819 0,-1.55664 -0.04,-0.10711 -0.077,-0.16569 -0.1113,-0.17969 z m -0.7833,3.35157 c -0.067,0.0468 -0.1119,0.20361 -0.1269,0.46289 -0.028,0.46925 0.1232,0.7319 0.334,0.58398 0.2108,-0.14791 0.2341,-0.53218 0.051,-0.85352 -0.1013,-0.17755 -0.1911,-0.24016 -0.2579,-0.19335 z m -0.5156,2.26367 c -0.1148,-0.03 -0.1953,0.22454 -0.1953,0.68359 0,0.61203 0.1442,0.86267 0.3203,0.55664 0.176,-0.30603 0.176,-0.8053 0,-1.11133 -0.044,-0.0765 -0.087,-0.1189 -0.125,-0.1289 z m -0.7519,2.63281 c -0.067,0.0468 -0.112,0.20361 -0.127,0.46289 -0.027,0.46925 0.1212,0.7319 0.332,0.58398 0.2108,-0.14791 0.2341,-0.53217 0.051,-0.85351 -0.1012,-0.17755 -0.1891,-0.24016 -0.2558,-0.19336 z m -0.6348,2.22656 c -0.067,0.0468 -0.1114,0.20165 -0.1269,0.46094 -0.027,0.46925 0.1211,0.73385 0.332,0.58594 0.2107,-0.14792 0.2341,-0.53219 0.051,-0.85352 -0.1013,-0.17755 -0.1892,-0.24016 -0.2559,-0.19336 z m -0.6348,1.78125 c -0.067,0.0468 -0.1119,0.20166 -0.1269,0.46094 -0.028,0.46925 0.1212,0.7319 0.332,0.58398 0.2108,-0.14791 0.2341,-0.53217 0.051,-0.85351 -0.1013,-0.17755 -0.1891,-0.23821 -0.2559,-0.19141 z m -449.2304,23.34375 3.3242,6.42774 c 5.9491,11.50001 9.69,17.08339 15.0801,22.51172 l 5.0097,5.04492 -11.0175,7.46875 c -18.2709,12.38612 -29.6784,21.90143 -42.7207,35.63476 -14.7351,15.51562 -24.5163,29.05936 -33.1036,45.83789 -1.5628,3.05358 -2.905,5.59675 -2.9843,5.65235 -0.2637,0.185 -5.3262,-9.35012 -7.7207,-14.54297 l -2.3614,-5.11914 1.0957,-4.22852 c 9.5168,-36.73762 33.6917,-71.50914 69.5489,-100.03515 l 5.8496,-4.65235 z m 437.3437,2.33985 c 0.7311,0.0133 2.7293,1.46093 7.0215,4.97265 22.2771,18.22576 40.3305,39.45232 51.582,60.65039 1.8193,3.42758 3.6869,6.93412 4.1504,7.79102 4.209,7.78064 10.1286,25.11031 12.6758,37.10937 l 0.9316,4.39258 -2.1035,4.06445 c -1.1573,2.23603 -3.2111,6.01798 -4.5644,8.4043 -1.3533,2.38632 -2.6047,4.33508 -2.7793,4.33008 -0.1745,-0.005 -1.4103,-2.45753 -2.7461,-5.45117 -5.9626,-13.36288 -16.5876,-29.82563 -27.2149,-42.16602 -14.3477,-16.6605 -27.1707,-28.11009 -47.2714,-42.20508 l -12.2579,-8.59375 3.795,-3.66406 c 2.4357,-2.35173 5.2477,-5.96992 7.8535,-10.10156 4.0748,-6.4606 10.5801,-18.1998 10.5801,-19.0918 0,-0.29082 0.1039,-0.44584 0.3476,-0.4414 z m -76.9902,87.49218 a 141.30064,141.30064 0 0 1 0.2363,6.66797 141.30064,141.30064 0 0 1 -2.0703,23.13086 c 17.1328,6.53178 35.4266,15.18741 50.5566,24.02149 14.6194,8.53587 34.0988,22.93331 46.4063,34.29882 l 5.4805,5.06055 5.0273,-4.55273 c 6.9537,-6.29407 9.7129,-9.033 9.7129,-9.64258 0,-1.85286 -19.4377,-21.4611 -29.9316,-30.19336 -10.9645,-9.12394 -28.1329,-20.75287 -42.7227,-28.93945 -11.6984,-6.56419 -27.9743,-14.08036 -42.6953,-19.85157 z m 140.9453,48.85547 c 0.1715,0.003 0.1918,0.17751 0.029,0.47461 -0.4218,0.77117 -0.877,0.91374 -0.877,0.27344 0,-0.23038 0.282,-0.54183 0.627,-0.69141 0.09,-0.039 0.1635,-0.0576 0.2207,-0.0566 z"
     id="path4193"
     inkscape:connector-curvature="0" />
  <circle
     style="fill:#ff0000;fill-opacity:0;fill-rule:nonzero;stroke:#000000;stroke-width:0.78358173;stroke-opacity:1"
     id="path4196"
     cx="476.27933"
     cy="649.23798"
     r="141.3405" />
</svg>
