  0
SECTION
  2
HEADER
  9
$ACADVER
  1
AC1014
  9
$HANDSEED
  5
FFFF
  9
$MEASUREMENT
 70
     1
  0
ENDSEC
  0
SECTION
  2
TABLES
  0
TABLE
  2
VPORT
  5
8
330
0
100
AcDbSymbolTable
 70
     4
  0
VPORT
  5
2E
330
8
100
AcDbSymbolTableRecord
100
AcDbViewportTableRecord
  2
*ACTIVE
 70
     0
 10
0.0
 20
0.0
 11
1.0
 21
1.0
 12
210.0
 22
148.5
 13
0.0
 23
0.0
 14
10.0
 24
10.0
 15
10.0
 25
10.0
 16
0.0
 26
0.0
 36
1.0
 17
0.0
 27
0.0
 37
0.0
 40
341.0
 41
1.24
 42
50.0
 43
0.0
 44
0.0
 50
0.0
 51
0.0
 71
     0
 72
   100
 73
     1
 74
     3
 75
     0
 76
     0
 77
     0
 78
     0
  0
ENDTAB
  0
TABLE
  2
LTYPE
  5
5
330
0
100
AcDbSymbolTable
 70
     1
  0
LTYPE
  5
14
330
5
100
AcDbSymbolTableRecord
100
AcDbLinetypeTableRecord
  2
BYBLOCK
 70
     0
  3

 72
    65
 73
     0
 40
0.0
  0
LTYPE
  5
15
330
5
100
AcDbSymbolTableRecord
100
AcDbLinetypeTableRecord
  2
BYLAYER
 70
     0
  3

 72
    65
 73
     0
 40
0.0
  0
LTYPE
  5
16
330
5
100
AcDbSymbolTableRecord
100
AcDbLinetypeTableRecord
  2
CONTINUOUS
 70
     0
  3
Solid line
 72
    65
 73
     0
 40
0.0
  0
ENDTAB
  0
TABLE
  2
LAYER
  5
2
100
AcDbSymbolTable
 70
2
  0
LAYER
  5
50
100
AcDbSymbolTableRecord
100
AcDbLayerTableRecord
  2
0
 70
0
  6
CONTINUOUS
  0
LAYER
  5
51
100
AcDbSymbolTableRecord
100
AcDbLayerTableRecord
  2
Capa_1
 70
0
  6
CONTINUOUS
  0
ENDTAB
  0
TABLE
  2
STYLE
  5
3
330
0
100
AcDbSymbolTable
 70
     1
  0
STYLE
  5
11
330
3
100
AcDbSymbolTableRecord
100
AcDbTextStyleTableRecord
  2
STANDARD
 70
     0
 40
0.0
 41
1.0
 50
0.0
 71
     0
 42
2.5
  3
txt
  4

  0
ENDTAB
  0
TABLE
  2
VIEW
  5
6
330
0
100
AcDbSymbolTable
 70
     0
  0
ENDTAB
  0
TABLE
  2
UCS
  5
7
330
0
100
AcDbSymbolTable
 70
     0
  0
ENDTAB
  0
TABLE
  2
APPID
  5
9
330
0
100
AcDbSymbolTable
 70
     2
  0
APPID
  5
12
330
9
100
AcDbSymbolTableRecord
100
AcDbRegAppTableRecord
  2
ACAD
 70
     0
  0
ENDTAB
  0
TABLE
  2
DIMSTYLE
  5
A
330
0
100
AcDbSymbolTable
 70
     1
  0
DIMSTYLE
105
27
330
A
100
AcDbSymbolTableRecord
100
AcDbDimStyleTableRecord
  2
ISO-25
 70
     0
  3

  4

  5

  6

  7

 40
1.0
 41
2.5
 42
0.625
 43
3.75
 44
1.25
 45
0.0
 46
0.0
 47
0.0
 48
0.0
140
2.5
141
2.5
142
0.0
143
0.03937007874016
144
1.0
145
0.0
146
1.0
147
0.625
 71
     0
 72
     0
 73
     0
 74
     0
 75
     0
 76
     0
 77
     1
 78
     8
170
     0
171
     3
172
     1
173
     0
174
     0
175
     0
176
     0
177
     0
178
     0
270
     2
271
     2
272
     2
273
     2
274
     3
340
11
275
     0
280
     0
281
     0
282
     0
283
     0
284
     8
285
     0
286
     0
287
     3
288
     0
  0
ENDTAB
  0
TABLE
  2
BLOCK_RECORD
  5
1
330
0
100
AcDbSymbolTable
 70
     1
  0
BLOCK_RECORD
  5
1F
330
1
100
AcDbSymbolTableRecord
100
AcDbBlockTableRecord
  2
*MODEL_SPACE
  0
BLOCK_RECORD
  5
1B
330
1
100
AcDbSymbolTableRecord
100
AcDbBlockTableRecord
  2
*PAPER_SPACE
  0
ENDTAB
  0
ENDSEC
  0
SECTION
  2
BLOCKS
  0
BLOCK
  5
20
330
1F
100
AcDbEntity
  8
0
100
AcDbBlockBegin
  2
*MODEL_SPACE
 70
     0
 10
0.0
 20
0.0
 30
0.0
  3
*MODEL_SPACE
  1

  0
ENDBLK
  5
21
330
1F
100
AcDbEntity
  8
0
100
AcDbBlockEnd
  0
BLOCK
  5
1C
330
1B
100
AcDbEntity
 67
     1
  8
0
100
AcDbBlockBegin
  2
*PAPER_SPACE
  1

  0
ENDBLK
  5
1D
330
1B
100
AcDbEntity
 67
     1
  8
0
100
AcDbBlockEnd
  0
ENDSEC
  0
SECTION
  2
ENTITIES
  0
LINE
  5
100
100
AcDbEntity
  8
Capa_1
 62
7
100
AcDbLine
 10
22.468351
 20
49.400492
 30
0.0
 11
22.380068
 21
49.241025
 31
0.0
  0
LINE
  5
101
100
AcDbEntity
  8
Capa_1
 62
7
100
AcDbLine
 10
22.380068
 20
49.241025
 30
0.0
 11
22.066637
 21
49.241025
 31
0.0
  0
SPLINE
  5
102
100
AcDbEntity
  8
Capa_1
 62
7
100
AcDbSpline
 70
0
 71
3
 72
145
 73
141
 74
139
 40
0.000000
 40
0.000000
 40
0.000000
 40
0.000000
 40
0.023422
 40
0.046596
 40
0.069629
 40
0.219428
 40
0.405999
 40
0.603563
 40
1.122335
 40
1.990136
 40
3.302091
 40
4.197212
 40
4.963859
 40
5.321535
 40
5.396940
 40
5.567842
 40
5.817609
 40
6.237756
 40
6.814536
 40
7.677807
 40
8.180436
 40
8.610392
 40
8.874825
 40
9.671375
 40
10.148683
 40
10.794337
 40
11.218954
 40
11.846953
 40
12.819304
 40
13.782180
 40
14.397080
 40
14.641319
 40
14.763945
 40
15.073648
 40
15.513172
 40
16.365397
 40
16.927229
 40
17.372010
 40
17.645657
 40
17.929382
 40
18.136126
 40
18.296520
 40
18.484525
 40
18.667071
 40
18.905562
 40
19.268638
 40
19.799162
 40
20.284581
 40
20.728201
 40
21.113752
 40
21.750975
 40
22.371472
 40
22.906731
 40
23.959916
 40
25.231463
 40
26.767829
 40
27.011229
 40
27.190421
 40
27.266778
 40
27.312746
 40
27.417629
 40
27.559458
 40
28.314846
 40
29.059721
 40
29.879246
 40
30.953327
 40
31.973621
 40
33.002744
 40
33.219672
 40
33.383516
 40
33.459879
 40
33.547119
 40
33.732336
 40
33.975625
 40
35.287793
 40
36.421011
 40
37.363494
 40
38.427413
 40
39.600296
 40
40.933970
 40
41.464496
 40
41.827572
 40
42.066061
 40
42.248607
 40
42.436610
 40
42.597005
 40
42.803749
 40
43.087475
 40
43.361123
 40
43.805903
 40
44.367735
 40
45.219959
 40
45.659499
 40
45.969235
 40
46.091888
 40
46.336127
 40
46.951027
 40
47.913903
 40
48.886255
 40
49.514254
 40
49.938866
 40
50.584535
 40
51.061903
 40
51.858473
 40
52.122907
 40
52.552863
 40
53.055492
 40
53.918763
 40
54.495542
 40
54.915690
 40
55.165437
 40
55.336290
 40
55.411661
 40
55.769337
 40
56.535985
 40
57.431105
 40
58.743059
 40
59.610860
 40
60.129634
 40
60.327199
 40
60.513770
 40
60.663565
 40
61.014434
 40
61.554748
 40
62.312278
 40
64.257721
 40
66.248346
 40
68.073939
 40
69.526892
 40
70.790878
 40
72.017732
 40
73.461906
 40
75.435443
 40
77.666111
 40
79.010930
 40
80.436727
 40
81.338516
 40
81.493294
 40
81.561277
 40
81.708297
 40
81.708297
 40
81.708297
 40
81.708297
 10
44.662037
 20
61.750657
 30
0.0
 10
44.654234
 20
61.750304
 30
0.0
 10
44.638710
 20
61.749601
 30
0.0
 10
44.615687
 20
61.746519
 30
0.0
 10
44.551456
 20
61.733845
 30
0.0
 10
44.446645
 20
61.666586
 30
0.0
 10
44.327202
 20
61.534018
 30
0.0
 10
44.180487
 20
61.266814
 30
0.0
 10
44.124036
 20
60.730339
 30
0.0
 10
44.135651
 20
59.831401
 30
0.0
 10
44.203103
 20
58.829033
 30
0.0
 10
44.320753
 20
57.781661
 30
0.0
 10
44.225949
 20
57.250735
 30
0.0
 10
44.400573
 20
56.636879
 30
0.0
 10
44.172635
 20
56.662382
 30
0.0
 10
44.059554
 20
56.789985
 30
0.0
 10
43.862131
 20
56.985949
 30
0.0
 10
43.633791
 20
57.338950
 30
0.0
 10
43.376330
 20
57.902833
 30
0.0
 10
43.147774
 20
58.509478
 30
0.0
 10
42.934995
 20
59.068316
 30
0.0
 10
42.786931
 20
59.440347
 30
0.0
 10
42.588290
 20
59.890774
 30
0.0
 10
42.322960
 20
60.382066
 30
0.0
 10
41.552712
 20
60.475048
 30
0.0
 10
41.367837
 20
59.862931
 30
0.0
 10
41.316902
 20
59.322898
 30
0.0
 10
41.316255
 20
58.634784
 30
0.0
 10
41.342804
 20
57.806404
 30
0.0
 10
41.390915
 20
56.881057
 30
0.0
 10
41.351902
 20
56.426608
 30
0.0
 10
41.382502
 20
55.897149
 30
0.0
 10
41.157776
 20
56.090105
 30
0.0
 10
41.045818
 20
56.327376
 30
0.0
 10
40.787674
 20
56.812851
 30
0.0
 10
40.539984
 20
57.370680
 30
0.0
 10
40.207376
 20
57.900959
 30
0.0
 10
39.886748
 20
58.191207
 30
0.0
 10
39.591111
 20
58.351173
 30
0.0
 10
39.355570
 20
58.442855
 30
0.0
 10
39.141927
 20
58.508004
 30
0.0
 10
38.957332
 20
58.461584
 30
0.0
 10
38.799529
 20
58.381245
 30
0.0
 10
38.638327
 20
58.252721
 30
0.0
 10
38.504402
 20
58.023687
 30
0.0
 10
38.363239
 20
57.674222
 30
0.0
 10
38.224225
 20
57.235538
 30
0.0
 10
38.071634
 20
56.773579
 30
0.0
 10
37.909130
 20
56.366262
 30
0.0
 10
37.698007
 20
55.924883
 30
0.0
 10
37.406568
 20
55.459429
 30
0.0
 10
37.044332
 20
54.983210
 30
0.0
 10
36.528256
 20
54.453251
 30
0.0
 10
35.695511
 20
53.962966
 30
0.0
 10
34.478697
 20
53.530030
 30
0.0
 10
33.476662
 20
53.343319
 30
0.0
 10
32.833328
 20
53.229309
 30
0.0
 10
32.668246
 20
53.210696
 30
0.0
 10
32.571893
 20
53.173861
 30
0.0
 10
32.495662
 20
53.184764
 30
0.0
 10
32.402172
 20
53.211442
 30
0.0
 10
32.083494
 20
53.312566
 30
0.0
 10
31.559309
 20
53.471746
 30
0.0
 10
30.795987
 20
53.606066
 30
0.0
 10
29.919120
 20
53.681352
 30
0.0
 10
28.946109
 20
53.687997
 30
0.0
 10
27.908369
 20
53.563813
 30
0.0
 10
27.178586
 20
53.364669
 30
0.0
 10
26.729155
 20
53.224364
 30
0.0
 10
26.582667
 20
53.186236
 30
0.0
 10
26.472663
 20
53.167978
 30
0.0
 10
26.361043
 20
53.208980
 30
0.0
 10
26.190700
 20
53.230390
 30
0.0
 10
25.618893
 20
53.330546
 30
0.0
 10
24.736527
 20
53.493991
 30
0.0
 10
23.658194
 20
53.837672
 30
0.0
 10
22.707612
 20
54.292725
 30
0.0
 10
21.906016
 20
55.009462
 30
0.0
 10
21.247949
 20
56.014720
 30
0.0
 10
20.886606
 20
56.965052
 30
0.0
 10
20.665671
 20
57.674291
 30
0.0
 10
20.524109
 20
58.023676
 30
0.0
 10
20.390244
 20
58.252722
 30
0.0
 10
20.229034
 20
58.381244
 30
0.0
 10
20.071235
 20
58.461584
 30
0.0
 10
19.886639
 20
58.508004
 30
0.0
 10
19.672995
 20
58.442855
 30
0.0
 10
19.437453
 20
58.351173
 30
0.0
 10
19.141816
 20
58.191208
 30
0.0
 10
18.821189
 20
57.900958
 30
0.0
 10
18.488579
 20
57.370681
 30
0.0
 10
18.240899
 20
56.812842
 30
0.0
 10
17.982724
 20
56.327363
 30
0.0
 10
17.870707
 20
56.090100
 30
0.0
 10
17.645934
 20
55.897151
 30
0.0
 10
17.676535
 20
56.426592
 30
0.0
 10
17.637514
 20
56.881066
 30
0.0
 10
17.685634
 20
57.806401
 30
0.0
 10
17.712196
 20
58.634785
 30
0.0
 10
17.711626
 20
59.322894
 30
0.0
 10
17.660743
 20
59.862943
 30
0.0
 10
17.475803
 20
60.475057
 30
0.0
 10
16.705526
 20
60.382075
 30
0.0
 10
16.440155
 20
59.890780
 30
0.0
 10
16.241505
 20
59.440348
 30
0.0
 10
16.093442
 20
59.068316
 30
0.0
 10
15.880666
 20
58.509477
 30
0.0
 10
15.652105
 20
57.902834
 30
0.0
 10
15.394649
 20
57.338950
 30
0.0
 10
15.166308
 20
56.985954
 30
0.0
 10
14.968912
 20
56.790006
 30
0.0
 10
14.855888
 20
56.662381
 30
0.0
 10
14.627985
 20
56.636884
 30
0.0
 10
14.802625
 20
57.250746
 30
0.0
 10
14.707816
 20
57.781658
 30
0.0
 10
14.825450
 20
58.829024
 30
0.0
 10
14.892954
 20
59.831453
 30
0.0
 10
14.904411
 20
60.730236
 30
0.0
 10
14.848218
 20
61.266981
 30
0.0
 10
14.701120
 20
61.533806
 30
0.0
 10
14.582598
 20
61.667287
 30
0.0
 10
14.378256
 20
61.792001
 30
0.0
 10
14.008077
 20
61.659329
 30
0.0
 10
13.620994
 20
61.278360
 30
0.0
 10
12.978328
 20
60.398189
 30
0.0
 10
12.295930
 20
58.980493
 30
0.0
 10
11.750568
 20
57.130341
 30
0.0
 10
11.572660
 20
55.368420
 30
0.0
 10
11.789421
 20
53.852938
 30
0.0
 10
12.367998
 20
52.641035
 30
0.0
 10
13.371892
 20
51.746951
 30
0.0
 10
14.815141
 20
51.154149
 30
0.0
 10
16.604567
 20
50.576350
 30
0.0
 10
18.410940
 20
50.154593
 30
0.0
 10
20.047139
 20
49.863054
 30
0.0
 10
21.285516
 20
49.749200
 30
0.0
 10
22.057413
 20
49.545130
 30
0.0
 10
22.476366
 20
49.628115
 30
0.0
 10
22.554729
 20
49.508693
 30
0.0
 10
22.503430
 20
49.444433
 30
0.0
 10
22.468351
 20
49.400492
 30
0.0
 11
44.662037
 21
61.750657
 31
0.0
 11
44.638657
 21
61.749254
 31
0.0
 11
44.615675
 21
61.746276
 31
0.0
 11
44.593108
 21
61.741666
 31
0.0
 11
44.461899
 21
61.669388
 31
0.0
 11
44.335208
 21
61.532429
 31
0.0
 11
44.239593
 21
61.359544
 31
0.0
 11
44.144226
 21
60.849613
 31
0.0
 11
44.139831
 21
59.981823
 31
0.0
 11
44.225993
 21
58.672700
 31
0.0
 11
44.284125
 21
57.779470
 31
0.0
 11
44.307380
 21
57.013175
 31
0.0
 11
44.287181
 21
56.656069
 31
0.0
 11
44.212124
 21
56.663313
 31
0.0
 11
44.077056
 21
56.768021
 31
0.0
 11
43.906945
 21
56.950903
 31
0.0
 11
43.670404
 21
57.298138
 31
0.0
 11
43.420777
 21
57.818101
 31
0.0
 11
43.104890
 21
58.621501
 31
0.0
 11
42.924973
 21
59.090826
 31
0.0
 11
42.763918
 21
59.489478
 31
0.0
 11
42.656599
 21
59.731154
 31
0.0
 11
42.153939
 21
60.349075
 31
0.0
 11
41.677438
 21
60.376821
 31
0.0
 11
41.376280
 21
59.805706
 31
0.0
 11
41.328085
 21
59.383834
 31
0.0
 11
41.318996
 21
58.755900
 31
0.0
 11
41.347059
 21
57.783954
 31
0.0
 11
41.373812
 21
56.821449
 31
0.0
 11
41.367106
 21
56.206587
 31
0.0
 11
41.327216
 21
55.965627
 31
0.0
 11
41.227001
 21
56.036297
 31
0.0
 11
41.058292
 21
56.296015
 31
0.0
 11
40.858321
 21
56.687413
 31
0.0
 11
40.477909
 21
57.450023
 31
0.0
 11
40.164008
 21
57.915986
 31
0.0
 11
39.831619
 21
58.211531
 31
0.0
 11
39.592304
 21
58.344239
 31
0.0
 11
39.328559
 21
58.448827
 31
0.0
 11
39.126216
 21
58.491255
 31
0.0
 11
38.969120
 21
58.458894
 31
0.0
 11
38.801009
 21
58.374723
 31
0.0
 11
38.660565
 21
58.258110
 31
0.0
 11
38.530040
 21
58.058508
 31
0.0
 11
38.387642
 21
57.724522
 31
0.0
 11
38.218642
 21
57.221635
 31
0.0
 11
38.062427
 21
56.762039
 31
0.0
 11
37.897120
 21
56.350369
 31
0.0
 11
37.729390
 21
56.003215
 31
0.0
 11
37.395634
 21
55.460389
 31
0.0
 11
37.016584
 21
54.969127
 31
0.0
 11
36.638881
 21
54.589862
 31
0.0
 11
35.747652
 21
54.028694
 31
0.0
 11
34.554526
 21
53.589054
 31
0.0
 11
33.052044
 21
53.268169
 31
0.0
 11
32.811898
 21
53.228502
 31
0.0
 11
32.635641
 21
53.196197
 31
0.0
 11
32.561422
 21
53.178258
 31
0.0
 11
32.515654
 21
53.182541
 31
0.0
 11
32.414037
 21
53.208510
 31
0.0
 11
32.278585
 21
53.250562
 31
0.0
 11
31.552214
 21
53.457918
 31
0.0
 11
30.819384
 21
53.591327
 31
0.0
 11
30.003157
 21
53.664777
 31
0.0
 11
28.929076
 21
53.664963
 31
0.0
 11
27.916497
 21
53.539725
 31
0.0
 11
26.919806
 21
53.283404
 31
0.0
 11
26.712026
 21
53.221072
 31
0.0
 11
26.552902
 21
53.182029
 31
0.0
 11
26.476886
 21
53.174761
 31
0.0
 11
26.392108
 21
53.195339
 31
0.0
 11
26.210023
 21
53.229263
 31
0.0
 11
25.970029
 21
53.269168
 31
0.0
 11
24.684760
 21
53.533494
 31
0.0
 11
23.607088
 21
53.883930
 31
0.0
 11
22.766798
 21
54.310763
 31
0.0
 11
21.967811
 21
55.013290
 31
0.0
 11
21.313439
 21
55.986662
 31
0.0
 11
20.809924
 21
57.221635
 31
0.0
 11
20.640919
 21
57.724522
 31
0.0
 11
20.498521
 21
58.058508
 31
0.0
 11
20.367999
 21
58.258110
 31
0.0
 11
20.227555
 21
58.374723
 31
0.0
 11
20.059447
 21
58.458894
 31
0.0
 11
19.902350
 21
58.491255
 31
0.0
 11
19.700006
 21
58.448827
 31
0.0
 11
19.436260
 21
58.344239
 31
0.0
 11
19.196945
 21
58.211531
 31
0.0
 11
18.864556
 21
57.915986
 31
0.0
 11
18.550655
 21
57.450023
 31
0.0
 11
18.170245
 21
56.687413
 31
0.0
 11
17.970240
 21
56.296015
 31
0.0
 11
17.801470
 21
56.036297
 31
0.0
 11
17.701223
 21
55.965627
 31
0.0
 11
17.661331
 21
56.206587
 31
0.0
 11
17.654620
 21
56.821449
 31
0.0
 11
17.681380
 21
57.783954
 31
0.0
 11
17.709476
 21
58.755900
 31
0.0
 11
17.700449
 21
59.383834
 31
0.0
 11
17.652284
 21
59.805706
 31
0.0
 11
17.351094
 21
60.376821
 31
0.0
 11
16.874534
 21
60.349075
 31
0.0
 11
16.371843
 21
59.731154
 31
0.0
 11
16.264519
 21
59.489478
 31
0.0
 11
16.103464
 21
59.090826
 31
0.0
 11
15.923549
 21
58.621501
 31
0.0
 11
15.607660
 21
57.818101
 31
0.0
 11
15.358035
 21
57.298138
 31
0.0
 11
15.121494
 21
56.950903
 31
0.0
 11
14.951412
 21
56.768021
 31
0.0
 11
14.816405
 21
56.663313
 31
0.0
 11
14.741383
 21
56.656069
 31
0.0
 11
14.721185
 21
57.013175
 31
0.0
 11
14.744444
 21
57.779470
 31
0.0
 11
14.802570
 21
58.672700
 31
0.0
 11
14.888722
 21
59.981823
 31
0.0
 11
14.884321
 21
60.849613
 31
0.0
 11
14.788944
 21
61.359544
 31
0.0
 11
14.693328
 21
61.532429
 31
0.0
 11
14.566637
 21
61.669389
 31
0.0
 11
14.435432
 21
61.741666
 31
0.0
 11
14.092137
 21
61.669159
 31
0.0
 11
13.680231
 21
61.319484
 31
0.0
 11
13.224918
 21
60.714057
 31
0.0
 11
12.351284
 21
58.975807
 31
0.0
 11
11.798172
 21
57.063569
 31
0.0
 11
11.642908
 21
55.244590
 31
0.0
 11
11.875352
 21
53.810351
 31
0.0
 11
12.442983
 21
52.680990
 31
0.0
 11
13.347793
 21
51.852444
 31
0.0
 11
14.654348
 21
51.237177
 31
0.0
 11
16.531191
 21
50.627008
 31
0.0
 11
18.701573
 21
50.111914
 31
0.0
 11
20.027211
 21
49.885588
 31
0.0
 11
21.439283
 21
49.688232
 31
0.0
 11
22.337110
 21
49.603792
 31
0.0
 11
22.491427
 21
49.591853
 31
0.0
 11
22.528296
 21
49.534736
 31
0.0
 11
22.468351
 21
49.400492
 31
0.0
  0
LINE
  5
103
100
AcDbEntity
  8
Capa_1
 62
7
100
AcDbLine
 10
19.585171
 20
44.317269
 30
0.0
 11
19.840036
 21
44.297425
 31
0.0
  0
LINE
  5
104
100
AcDbEntity
  8
Capa_1
 62
7
100
AcDbLine
 10
19.840036
 20
44.297425
 30
0.0
 11
19.609896
 21
43.840000
 31
0.0
  0
SPLINE
  5
105
100
AcDbEntity
  8
Capa_1
 62
7
100
AcDbSpline
 70
0
 71
3
 72
19
 73
15
 74
13
 40
0.000000
 40
0.000000
 40
0.000000
 40
0.000000
 40
1.005272
 40
2.179765
 40
3.617368
 40
4.663661
 40
5.667916
 40
6.233259
 40
6.420486
 40
6.720455
 40
7.227404
 40
7.689455
 40
8.146801
 40
8.539029
 40
8.539029
 40
8.539029
 40
8.539029
 10
22.066637
 20
49.241025
 30
0.0
 10
21.730709
 20
49.197520
 30
0.0
 10
21.002306
 20
49.103188
 30
0.0
 10
19.966001
 20
48.423789
 30
0.0
 10
19.096788
 20
47.579058
 30
0.0
 10
18.353142
 20
46.658161
 30
0.0
 10
17.942652
 20
45.938736
 30
0.0
 10
17.517405
 20
45.418091
 30
0.0
 10
17.654421
 20
45.066878
 30
0.0
 10
17.947074
 20
44.888304
 30
0.0
 10
18.315003
 20
44.689128
 30
0.0
 10
18.756412
 20
44.507304
 30
0.0
 10
19.174844
 20
44.376219
 30
0.0
 10
19.455567
 20
44.335888
 30
0.0
 10
19.585171
 20
44.317269
 30
0.0
 11
22.066637
 21
49.241025
 31
0.0
 11
21.080962
 21
49.043501
 31
0.0
 11
20.067193
 21
48.450451
 31
0.0
 11
19.024119
 21
47.461159
 31
0.0
 11
18.374221
 21
46.641183
 31
0.0
 11
17.819076
 21
45.804317
 31
0.0
 11
17.583965
 21
45.290182
 31
0.0
 11
17.651559
 21
45.115582
 31
0.0
 11
17.885650
 21
44.928011
 31
0.0
 11
18.333199
 21
44.689900
 31
0.0
 11
18.760085
 21
44.513098
 31
0.0
 11
19.198427
 21
44.382629
 31
0.0
 11
19.585171
 21
44.317269
 31
0.0
  0
SPLINE
  5
106
100
AcDbEntity
  8
Capa_1
 62
7
100
AcDbSpline
 70
0
 71
3
 72
10
 73
6
 74
4
 40
0.000000
 40
0.000000
 40
0.000000
 40
0.000000
 40
2.858928
 40
5.777232
 40
8.760502
 40
8.760502
 40
8.760502
 40
8.760502
 10
19.609896
 20
43.840000
 30
0.0
 10
19.224376
 20
42.966904
 30
0.0
 10
18.445329
 20
41.202576
 30
0.0
 10
17.796214
 20
38.331460
 30
0.0
 10
17.711137
 20
36.363957
 30
0.0
 10
17.668129
 20
35.369376
 30
0.0
 11
19.609896
 21
43.840000
 31
0.0
 11
18.539286
 21
41.189102
 31
0.0
 11
17.887151
 21
38.344595
 31
0.0
 11
17.668129
 21
35.369376
 31
0.0
  0
LINE
  5
107
100
AcDbEntity
  8
Capa_1
 62
7
100
AcDbLine
 10
23.507166
 20
18.551504
 30
0.0
 11
23.507166
 21
18.551379
 31
0.0
  0
SPLINE
  5
108
100
AcDbEntity
  8
Capa_1
 62
7
100
AcDbSpline
 70
0
 71
3
 72
25
 73
21
 74
19
 40
0.000000
 40
0.000000
 40
0.000000
 40
0.000000
 40
4.568976
 40
8.936274
 40
13.066431
 40
13.296567
 40
13.463878
 40
13.532302
 40
13.585341
 40
13.709899
 40
13.879117
 40
14.623939
 40
15.345534
 40
16.109822
 40
16.721085
 40
17.184896
 40
17.593203
 40
18.061560
 40
18.605021
 40
19.316901
 40
19.316901
 40
19.316901
 40
19.316901
 10
17.668129
 20
35.369376
 30
0.0
 10
17.768341
 20
33.843007
 30
0.0
 10
17.964341
 20
30.857645
 30
0.0
 10
19.536130
 20
26.721958
 30
0.0
 10
21.160056
 20
24.301072
 30
0.0
 10
22.254215
 20
23.216150
 30
0.0
 10
22.339353
 20
23.100575
 30
0.0
 10
22.433552
 20
23.030053
 30
0.0
 10
22.379493
 20
22.951059
 30
0.0
 10
22.340213
 20
22.849518
 30
0.0
 10
22.173919
 20
22.539164
 30
0.0
 10
21.956438
 20
22.042560
 30
0.0
 10
21.751661
 20
21.323431
 30
0.0
 10
21.656343
 20
20.629770
 30
0.0
 10
21.624339
 20
20.016375
 30
0.0
 10
21.703723
 20
19.520483
 30
0.0
 10
21.932152
 20
19.125729
 30
0.0
 10
22.303700
 20
18.815741
 30
0.0
 10
22.854350
 20
18.622223
 30
0.0
 10
23.270931
 20
18.577095
 30
0.0
 10
23.507166
 20
18.551504
 30
0.0
 11
17.668129
 21
35.369376
 31
0.0
 11
18.198536
 21
30.831291
 31
0.0
 11
19.712296
 21
26.734729
 31
0.0
 11
22.103226
 21
23.366992
 31
0.0
 11
22.261547
 21
23.199968
 31
0.0
 11
22.374459
 21
23.076503
 31
0.0
 11
22.417527
 21
23.023333
 31
0.0
 11
22.396895
 21
22.974471
 31
0.0
 11
22.342797
 21
22.862274
 31
0.0
 11
22.266932
 21
22.711016
 31
0.0
 11
21.968923
 21
22.028410
 31
0.0
 11
21.771822
 21
21.334256
 31
0.0
 11
21.661300
 21
20.578001
 31
0.0
 11
21.646420
 21
19.966919
 31
0.0
 11
21.735527
 21
19.511748
 31
0.0
 11
21.939266
 21
19.157905
 31
0.0
 11
22.296587
 21
18.855119
 31
0.0
 11
22.803462
 21
18.659088
 31
0.0
 11
23.507166
 21
18.551504
 31
0.0
  0
LINE
  5
109
100
AcDbEntity
  8
Capa_1
 62
7
100
AcDbLine
 10
28.999556
 20
19.771548
 30
0.0
 11
29.043260
 21
19.966480
 31
0.0
  0
LINE
  5
10a
100
AcDbEntity
  8
Capa_1
 62
7
100
AcDbLine
 10
29.043260
 20
19.966480
 30
0.0
 11
29.623417
 21
19.966480
 31
0.0
  0
LINE
  5
10b
100
AcDbEntity
  8
Capa_1
 62
7
100
AcDbLine
 10
29.623417
 20
19.966480
 30
0.0
 11
30.203574
 21
19.966480
 31
0.0
  0
LINE
  5
10c
100
AcDbEntity
  8
Capa_1
 62
7
100
AcDbLine
 10
30.203574
 20
19.966480
 30
0.0
 11
30.248402
 21
19.757311
 31
0.0
  0
SPLINE
  5
10d
100
AcDbEntity
  8
Capa_1
 62
7
100
AcDbSpline
 70
0
 71
3
 72
13
 73
9
 74
7
 40
0.000000
 40
0.000000
 40
0.000000
 40
0.000000
 40
1.090066
 40
2.684750
 40
3.717122
 40
4.649476
 40
5.347047
 40
5.997540
 40
5.997540
 40
5.997540
 40
5.997540
 10
23.507166
 20
18.551379
 30
0.0
 10
23.870534
 20
18.542384
 30
0.0
 10
24.765483
 20
18.520228
 30
0.0
 10
26.002728
 20
18.549633
 30
0.0
 10
27.193977
 20
18.551650
 30
0.0
 10
28.064336
 20
18.728047
 30
0.0
 10
28.765204
 20
19.127042
 30
0.0
 10
28.923279
 20
19.561773
 30
0.0
 10
28.999556
 20
19.771548
 30
0.0
 11
23.507166
 21
18.551379
 31
0.0
 11
24.597052
 21
18.531546
 31
0.0
 11
26.191661
 21
18.546972
 31
0.0
 11
27.223244
 21
18.587342
 31
0.0
 11
28.130649
 21
18.801580
 31
0.0
 11
28.711060
 21
19.188529
 31
0.0
 11
28.999556
 21
19.771548
 31
0.0
  0
LINE
  5
10e
100
AcDbEntity
  8
Capa_1
 62
7
100
AcDbLine
 10
36.872638
 20
22.905045
 30
0.0
 11
36.750263
 21
23.104597
 31
0.0
  0
LINE
  5
10f
100
AcDbEntity
  8
Capa_1
 62
7
100
AcDbLine
 10
36.750263
 20
23.104597
 30
0.0
 11
36.813323
 21
23.170782
 31
0.0
  0
SPLINE
  5
110
100
AcDbEntity
  8
Capa_1
 62
7
100
AcDbSpline
 70
0
 71
3
 72
22
 73
18
 74
16
 40
0.000000
 40
0.000000
 40
0.000000
 40
0.000000
 40
0.645724
 40
1.356755
 40
2.330052
 40
3.505681
 40
5.208106
 40
6.299144
 40
7.139089
 40
7.787869
 40
8.439718
 40
8.808673
 40
9.310457
 40
9.791519
 40
10.424556
 40
11.061482
 40
11.635420
 40
11.635420
 40
11.635420
 40
11.635420
 10
30.248402
 20
19.757311
 30
0.0
 10
30.324521
 20
19.548764
 30
0.0
 10
30.484457
 20
19.110577
 30
0.0
 10
31.213436
 20
18.720753
 30
0.0
 10
32.147040
 20
18.541803
 30
0.0
 10
33.437356
 20
18.535712
 30
0.0
 10
34.756755
 20
18.542221
 30
0.0
 10
35.971724
 20
18.529281
 30
0.0
 10
36.819884
 20
18.739515
 30
0.0
 10
37.415485
 20
19.185758
 30
0.0
 10
37.606213
 20
19.741202
 30
0.0
 10
37.605032
 20
20.248704
 30
0.0
 10
37.576470
 20
20.698685
 30
0.0
 10
37.509864
 20
21.234050
 30
0.0
 10
37.361718
 20
21.799868
 30
0.0
 10
37.156584
 20
22.381314
 30
0.0
 10
36.963946
 20
22.736629
 30
0.0
 10
36.872638
 20
22.905045
 30
0.0
 11
30.248402
 21
19.757311
 31
0.0
 11
30.536679
 21
19.179508
 31
0.0
 11
31.135460
 21
18.796067
 31
0.0
 11
32.084777
 21
18.581349
 31
0.0
 11
33.259610
 21
18.538092
 31
0.0
 11
34.962035
 21
18.537827
 31
0.0
 11
36.052226
 21
18.580820
 31
0.0
 11
36.858787
 21
18.815268
 31
0.0
 11
37.361554
 21
19.225318
 31
0.0
 11
37.590656
 21
19.835580
 31
0.0
 11
37.601953
 21
20.204361
 31
0.0
 11
37.570885
 21
20.705183
 31
0.0
 11
37.507116
 21
21.181999
 31
0.0
 11
37.353639
 21
21.796150
 31
0.0
 11
37.133548
 21
22.393841
 31
0.0
 11
36.872638
 21
22.905045
 31
0.0
  0
LINE
  5
111
100
AcDbEntity
  8
Capa_1
 62
7
100
AcDbLine
 10
37.125757
 20
49.230518
 30
0.0
 11
36.704564
 21
49.250494
 31
0.0
  0
LINE
  5
112
100
AcDbEntity
  8
Capa_1
 62
7
100
AcDbLine
 10
36.704564
 20
49.250494
 30
0.0
 11
36.629763
 21
49.403717
 31
0.0
  0
SPLINE
  5
113
100
AcDbEntity
  8
Capa_1
 62
7
100
AcDbSpline
 70
0
 71
3
 72
37
 73
33
 74
31
 40
0.000000
 40
0.000000
 40
0.000000
 40
0.000000
 40
0.934081
 40
1.799998
 40
2.607279
 40
6.318346
 40
10.129526
 40
14.079111
 40
16.855632
 40
19.554141
 40
22.180578
 40
22.394880
 40
22.551151
 40
22.615624
 40
22.637008
 40
22.689932
 40
22.763825
 40
23.319894
 40
24.011706
 40
24.712419
 40
25.027110
 40
25.278510
 40
25.764753
 40
26.448603
 40
27.239822
 40
27.898268
 40
28.914674
 40
29.798516
 40
30.596114
 40
30.808674
 40
31.026693
 40
31.306554
 40
31.306554
 40
31.306554
 40
31.306554
 10
36.813323
 20
23.170782
 30
0.0
 10
37.025389
 20
23.398827
 30
0.0
 10
37.434046
 20
23.838276
 30
0.0
 10
37.985527
 20
24.510922
 30
0.0
 10
39.035651
 20
25.967165
 30
0.0
 10
40.311165
 20
28.464828
 30
0.0
 10
41.306621
 20
32.182233
 30
0.0
 10
41.512796
 20
35.714227
 30
0.0
 10
41.199906
 20
38.844090
 30
0.0
 10
40.520824
 20
41.487724
 30
0.0
 10
39.875450
 20
43.166411
 30
0.0
 10
39.357906
 20
44.081599
 30
0.0
 10
39.328606
 20
44.196116
 30
0.0
 10
39.245102
 20
44.290323
 30
0.0
 10
39.297792
 20
44.304001
 30
0.0
 10
39.343992
 20
44.306200
 30
0.0
 10
39.575479
 20
44.309875
 30
0.0
 10
40.006946
 20
44.390225
 30
0.0
 10
40.630863
 20
44.611872
 30
0.0
 10
41.106745
 20
44.873649
 30
0.0
 10
41.514122
 20
45.108926
 30
0.0
 10
41.488721
 20
45.500543
 30
0.0
 10
41.214696
 20
45.888081
 30
0.0
 10
40.868161
 20
46.442582
 30
0.0
 10
40.440864
 20
47.011914
 30
0.0
 10
39.924555
 20
47.652068
 30
0.0
 10
39.311812
 20
48.249842
 30
0.0
 10
38.586531
 20
48.787412
 30
0.0
 10
38.011786
 20
49.061087
 30
0.0
 10
37.619424
 20
49.180305
 30
0.0
 10
37.384698
 20
49.216659
 30
0.0
 10
37.218934
 20
49.225531
 30
0.0
 10
37.125757
 20
49.230518
 30
0.0
 11
36.813323
 21
23.170782
 31
0.0
 11
37.442001
 21
23.861631
 31
0.0
 11
37.990544
 21
24.531640
 31
0.0
 11
38.463265
 21
25.186039
 31
0.0
 11
40.174344
 21
28.479096
 31
0.0
 11
41.168824
 21
32.158240
 31
0.0
 11
41.413374
 21
36.100247
 31
0.0
 11
41.126037
 21
38.861860
 31
0.0
 11
40.470082
 21
41.479431
 31
0.0
 11
39.457998
 21
43.903035
 31
0.0
 11
39.360939
 21
44.094098
 31
0.0
 11
39.291721
 21
44.234202
 31
0.0
 11
39.265320
 21
44.293023
 31
0.0
 11
39.285400
 21
44.300377
 31
0.0
 11
39.338057
 21
44.305680
 31
0.0
 11
39.411921
 21
44.307760
 31
0.0
 11
39.961089
 21
44.395096
 31
0.0
 11
40.613770
 21
44.624466
 31
0.0
 11
41.235058
 21
44.948501
 31
0.0
 11
41.473996
 21
45.153291
 31
0.0
 11
41.479941
 21
45.404621
 31
0.0
 11
41.256040
 21
45.836247
 31
0.0
 11
40.879652
 21
46.407196
 31
0.0
 11
40.410349
 21
47.044206
 31
0.0
 11
39.991705
 21
47.552427
 31
0.0
 11
39.264104
 21
48.262129
 31
0.0
 11
38.547262
 21
48.779155
 31
0.0
 11
37.824169
 21
49.115755
 31
0.0
 11
37.620021
 21
49.174959
 31
0.0
 11
37.404888
 21
49.210310
 31
0.0
 11
37.125757
 21
49.230518
 31
0.0
  0
LINE
  5
114
100
AcDbEntity
  8
Capa_1
 62
7
100
AcDbLine
 10
44.662061
 20
61.750753
 30
0.0
 11
44.662037
 21
61.750657
 31
0.0
  0
SPLINE
  5
115
100
AcDbEntity
  8
Capa_1
 62
7
100
AcDbSpline
 70
0
 71
3
 72
28
 73
24
 74
22
 40
0.000000
 40
0.000000
 40
0.000000
 40
0.000000
 40
0.088789
 40
0.157703
 40
0.192059
 40
0.213884
 40
0.262755
 40
0.330323
 40
0.922945
 40
1.902829
 40
2.955603
 40
5.070842
 40
6.990707
 40
8.787555
 40
9.890502
 40
10.866772
 40
11.871141
 40
13.026281
 40
14.298875
 40
15.739445
 40
17.949709
 40
19.837327
 40
20.922955
 40
20.922955
 40
20.922955
 40
20.922955
 10
36.629763
 20
49.403717
 30
0.0
 10
36.616083
 20
49.430852
 30
0.0
 10
36.591784
 20
49.479049
 30
0.0
 10
36.575340
 20
49.533978
 30
0.0
 10
36.545422
 20
49.579984
 30
0.0
 10
36.583627
 20
49.597752
 30
0.0
 10
36.626934
 20
49.601455
 30
0.0
 10
36.866637
 20
49.610296
 30
0.0
 10
37.406639
 20
49.663550
 30
0.0
 10
38.277025
 20
49.775391
 30
0.0
 10
39.643899
 20
49.977301
 30
0.0
 10
41.311658
 20
50.295590
 30
0.0
 10
43.189511
 20
50.805823
 30
0.0
 10
44.706407
 20
51.336553
 30
0.0
 10
45.871956
 20
51.916438
 30
0.0
 10
46.625682
 20
52.642827
 30
0.0
 10
47.116629
 20
53.580926
 30
0.0
 10
47.390130
 20
54.702572
 30
0.0
 10
47.410620
 20
55.998771
 30
0.0
 10
47.167265
 20
57.634490
 30
0.0
 10
46.537299
 20
59.352159
 30
0.0
 10
45.817856
 20
61.008192
 30
0.0
 10
44.971202
 20
61.552140
 30
0.0
 10
44.662061
 20
61.750753
 30
0.0
 11
36.629763
 21
49.403717
 31
0.0
 11
36.592144
 21
49.484143
 31
0.0
 11
36.565320
 21
49.547622
 31
0.0
 11
36.555090
 21
49.580419
 31
0.0
 11
36.573451
 21
49.592218
 31
0.0
 11
36.621587
 21
49.600661
 31
0.0
 11
36.689078
 21
49.603888
 31
0.0
 11
37.279642
 21
49.653238
 31
0.0
 11
38.251911
 21
49.775156
 31
0.0
 11
39.293170
 21
49.930439
 31
0.0
 11
41.369272
 21
50.335457
 31
0.0
 11
43.221919
 21
50.839026
 31
0.0
 11
44.909182
 21
51.456931
 31
0.0
 11
45.877124
 21
51.985682
 31
0.0
 11
46.576530
 21
52.666810
 31
0.0
 11
47.057114
 21
53.548737
 31
0.0
 11
47.339882
 21
54.668733
 31
0.0
 11
47.377064
 21
55.940784
 31
0.0
 11
47.168750
 21
57.366213
 31
0.0
 11
46.470736
 21
59.463364
 31
0.0
 11
45.531624
 21
61.100792
 31
0.0
 11
44.662061
 21
61.750753
 31
0.0
  0
LINE
  5
116
100
AcDbEntity
  8
Capa_1
 62
7
100
AcDbLine
 10
26.711510
 20
46.602510
 30
0.0
 11
26.711497
 21
46.602510
 31
0.0
  0
SPLINE
  5
117
100
AcDbEntity
  8
Capa_1
 62
7
100
AcDbSpline
 70
0
 71
3
 72
37
 73
33
 74
31
 40
0.000000
 40
0.000000
 40
0.000000
 40
0.000000
 40
0.945475
 40
1.981169
 40
3.194677
 40
3.696494
 40
4.232990
 40
4.719629
 40
5.253480
 40
5.747296
 40
6.230634
 40
6.687127
 40
7.110343
 40
7.525070
 40
8.222094
 40
8.928138
 40
9.700022
 40
10.184203
 40
10.678319
 40
11.210846
 40
11.699714
 40
12.235998
 40
12.734747
 40
12.934960
 40
13.138948
 40
13.302917
 40
13.843934
 40
14.383448
 40
14.861775
 40
15.219545
 40
15.556010
 40
15.878891
 40
15.878891
 40
15.878891
 40
15.878891
 10
26.711497
 20
46.602510
 30
0.0
 10
27.030849
 20
46.555005
 30
0.0
 10
27.700027
 20
46.455462
 30
0.0
 10
28.480192
 20
45.641132
 30
0.0
 10
28.840219
 20
44.782004
 30
0.0
 10
28.941981
 20
44.035619
 30
0.0
 10
28.948438
 20
43.526177
 30
0.0
 10
28.887972
 20
43.008784
 30
0.0
 10
28.745090
 20
42.522356
 30
0.0
 10
28.535668
 20
42.061986
 30
0.0
 10
28.261530
 20
41.667683
 30
0.0
 10
27.944934
 20
41.338514
 30
0.0
 10
27.585401
 20
41.093507
 30
0.0
 10
27.105796
 20
40.904963
 30
0.0
 10
26.482248
 20
40.866215
 30
0.0
 10
25.786499
 20
41.131973
 30
0.0
 10
25.293552
 20
41.580695
 30
0.0
 10
24.960777
 20
42.062662
 30
0.0
 10
24.750952
 20
42.522887
 30
0.0
 10
24.608993
 20
43.009974
 30
0.0
 10
24.548604
 20
43.527660
 30
0.0
 10
24.555594
 20
44.036502
 30
0.0
 10
24.608427
 20
44.446661
 30
0.0
 10
24.686207
 20
44.737616
 30
0.0
 10
24.740347
 20
44.919107
 30
0.0
 10
24.840720
 20
45.205251
 30
0.0
 10
25.043480
 20
45.571004
 30
0.0
 10
25.361620
 20
45.983756
 30
0.0
 10
25.710193
 20
46.289416
 30
0.0
 10
26.059794
 20
46.468470
 30
0.0
 10
26.384116
 20
46.576184
 30
0.0
 10
26.603888
 20
46.593856
 30
0.0
 10
26.711510
 20
46.602510
 30
0.0
 11
26.711497
 21
46.602510
 31
0.0
 11
27.627338
 21
46.367652
 31
0.0
 11
28.382717
 21
45.659086
 31
0.0
 11
28.859803
 21
44.543295
 31
0.0
 11
28.930481
 21
44.046480
 31
0.0
 11
28.936533
 21
43.510018
 31
0.0
 11
28.876921
 21
43.027044
 31
0.0
 11
28.729043
 21
42.514084
 31
0.0
 11
28.521084
 21
42.066191
 31
0.0
 11
28.246192
 21
41.668636
 31
0.0
 11
27.926431
 21
41.342847
 31
0.0
 11
27.575626
 21
41.106103
 31
0.0
 11
27.189271
 21
40.955344
 31
0.0
 11
26.493353
 21
40.916099
 31
0.0
 11
25.830719
 21
41.159851
 31
0.0
 11
25.250252
 21
41.668636
 31
0.0
 11
24.974949
 21
42.066932
 31
0.0
 11
24.767038
 21
42.515177
 31
0.0
 11
24.620146
 21
43.027044
 31
0.0
 11
24.560550
 21
43.512266
 31
0.0
 11
24.566376
 21
44.048518
 31
0.0
 11
24.636630
 21
44.542295
 31
0.0
 11
24.686789
 21
44.736122
 31
0.0
 11
24.745872
 21
44.931367
 31
0.0
 11
24.801087
 21
45.085759
 31
0.0
 11
25.054875
 21
45.563558
 31
0.0
 11
25.388208
 21
45.987780
 31
0.0
 11
25.752989
 21
46.297186
 31
0.0
 11
26.069965
 21
46.463094
 31
0.0
 11
26.390930
 21
46.564041
 31
0.0
 11
26.711510
 21
46.602510
 31
0.0
  0
LINE
  5
118
100
AcDbEntity
  8
Capa_1
 62
7
100
AcDbLine
 10
32.409440
 20
46.600922
 30
0.0
 11
32.409426
 21
46.600922
 31
0.0
  0
SPLINE
  5
119
100
AcDbEntity
  8
Capa_1
 62
7
100
AcDbSpline
 70
0
 71
3
 72
31
 73
27
 74
25
 40
0.000000
 40
0.000000
 40
0.000000
 40
0.000000
 40
0.217298
 40
0.438275
 40
0.665163
 40
1.802328
 40
3.069276
 40
4.412760
 40
4.962391
 40
5.466884
 40
5.964094
 40
6.490829
 40
6.976936
 40
7.443569
 40
8.563324
 40
9.758236
 40
11.160373
 40
11.570086
 40
12.046730
 40
12.461276
 40
13.271212
 40
14.026028
 40
14.725208
 40
15.108767
 40
15.475421
 40
15.835242
 40
15.835242
 40
15.835242
 40
15.835242
 10
32.409426
 20
46.600922
 30
0.0
 10
32.481829
 20
46.596562
 30
0.0
 10
32.627861
 20
46.587768
 30
0.0
 10
32.845004
 20
46.539027
 30
0.0
 10
33.346185
 20
46.368145
 30
0.0
 10
34.040920
 20
45.755362
 30
0.0
 10
34.550631
 20
44.585902
 30
0.0
 10
34.601468
 20
43.506626
 30
0.0
 10
34.431370
 20
42.723566
 30
0.0
 10
34.247026
 20
42.237679
 30
0.0
 10
33.981644
 20
41.800020
 30
0.0
 10
33.651796
 20
41.415648
 30
0.0
 10
33.252421
 20
41.118375
 30
0.0
 10
32.609905
 20
40.848208
 30
0.0
 10
31.606012
 20
40.926997
 30
0.0
 10
30.645305
 20
41.802365
 30
0.0
 10
30.248880
 20
42.761297
 30
0.0
 10
30.174404
 20
43.521653
 30
0.0
 10
30.173850
 20
43.955864
 30
0.0
 10
30.223833
 20
44.522029
 30
0.0
 10
30.425943
 20
45.158548
 30
0.0
 10
30.808345
 20
45.816534
 30
0.0
 10
31.261360
 20
46.246043
 30
0.0
 10
31.689595
 20
46.474209
 30
0.0
 10
32.046223
 20
46.587065
 30
0.0
 10
32.289129
 20
46.596332
 30
0.0
 10
32.409440
 20
46.600922
 30
0.0
 11
32.409426
 21
46.600922
 31
0.0
 11
32.625909
 21
46.582109
 31
0.0
 11
32.841956
 21
46.535695
 31
0.0
 11
33.056391
 21
46.461561
 31
0.0
 11
33.937775
 21
45.743017
 31
0.0
 11
34.466481
 21
44.591658
 31
0.0
 11
34.531260
 21
43.249736
 31
0.0
 11
34.414445
 21
42.712662
 31
0.0
 11
34.232237
 21
42.242223
 31
0.0
 11
33.975953
 21
41.816152
 31
0.0
 11
33.628811
 21
41.419992
 31
0.0
 11
33.237224
 21
41.131966
 31
0.0
 11
32.805396
 21
40.955129
 31
0.0
 11
31.688646
 21
41.037101
 31
0.0
 11
30.768488
 21
41.799417
 31
0.0
 11
30.225783
 21
43.092267
 31
0.0
 11
30.182665
 21
43.499704
 31
0.0
 11
30.181423
 21
43.976346
 31
0.0
 11
30.222423
 21
44.388860
 31
0.0
 11
30.459575
 21
45.163298
 31
0.0
 11
30.848159
 21
45.810408
 31
0.0
 11
31.361261
 21
46.285359
 31
0.0
 11
31.699653
 21
46.465937
 31
0.0
 11
32.050840
 21
46.571307
 31
0.0
 11
32.409440
 21
46.600922
 31
0.0
  0
LINE
  5
11a
100
AcDbEntity
  8
Capa_1
 62
7
100
AcDbLine
 10
27.343976
 20
44.235137
 30
0.0
 11
27.343976
 21
44.235137
 31
0.0
  0
SPLINE
  5
11b
100
AcDbEntity
  8
Capa_1
 62
7
100
AcDbSpline
 70
0
 71
3
 72
31
 73
27
 74
25
 40
0.000000
 40
0.000000
 40
0.000000
 40
0.000000
 40
0.101121
 40
0.203043
 40
0.307637
 40
0.519626
 40
0.714659
 40
0.936941
 40
1.090763
 40
1.231408
 40
1.432223
 40
1.629455
 40
1.771725
 40
1.918635
 40
2.156587
 40
2.386222
 40
2.585686
 40
2.792408
 40
3.033577
 40
3.232872
 40
3.799174
 40
4.408173
 40
5.014464
 40
5.277101
 40
5.517567
 40
5.743336
 40
5.743336
 40
5.743336
 40
5.743336
 10
27.343976
 20
44.235137
 30
0.0
 10
27.310240
 20
44.233398
 30
0.0
 10
27.242502
 20
44.229906
 30
0.0
 10
27.142786
 20
44.202134
 30
0.0
 10
27.017700
 20
44.139605
 30
0.0
 10
26.877397
 20
44.040090
 30
0.0
 10
26.739103
 20
43.879100
 30
0.0
 10
26.656617
 20
43.706469
 30
0.0
 10
26.591156
 20
43.546461
 30
0.0
 10
26.565913
 20
43.382023
 30
0.0
 10
26.567410
 20
43.202354
 30
0.0
 10
26.567435
 20
43.022140
 30
0.0
 10
26.590910
 20
42.860771
 30
0.0
 10
26.650681
 20
42.694841
 30
0.0
 10
26.747300
 20
42.512423
 30
0.0
 10
26.890995
 20
42.342239
 30
0.0
 10
27.061253
 20
42.206505
 30
0.0
 10
27.280526
 20
42.172045
 30
0.0
 10
27.496165
 20
42.180138
 30
0.0
 10
27.824536
 20
42.282167
 30
0.0
 10
28.094866
 20
42.709526
 30
0.0
 10
28.186934
 20
43.300846
 30
0.0
 10
28.038597
 20
43.800951
 30
0.0
 10
27.788258
 20
44.077686
 30
0.0
 10
27.575573
 20
44.209030
 30
0.0
 10
27.419535
 20
44.226620
 30
0.0
 10
27.343976
 20
44.235137
 30
0.0
 11
27.343976
 21
44.235137
 31
0.0
 11
27.243247
 21
44.226239
 31
0.0
 11
27.144922
 21
44.199401
 31
0.0
 11
27.050651
 21
44.154093
 31
0.0
 11
26.878762
 21
44.030022
 31
0.0
 11
26.751957
 21
43.881838
 31
0.0
 11
26.649061
 21
43.684806
 31
0.0
 11
26.595570
 21
43.540584
 31
0.0
 11
26.572093
 21
43.401912
 31
0.0
 11
26.567143
 21
43.201159
 31
0.0
 11
26.572962
 21
43.004013
 31
0.0
 11
26.595245
 21
42.863498
 31
0.0
 11
26.642817
 21
42.724504
 31
0.0
 11
26.755654
 21
42.515007
 31
0.0
 11
26.903929
 21
42.339660
 31
0.0
 11
27.066259
 21
42.223751
 31
0.0
 11
27.268331
 21
42.180151
 31
0.0
 11
27.509188
 21
42.192393
 31
0.0
 11
27.698113
 21
42.255845
 31
0.0
 11
28.046908
 21
42.701984
 31
0.0
 11
28.140673
 21
43.303721
 31
0.0
 11
27.951105
 21
43.879614
 31
0.0
 11
27.774186
 21
44.073723
 31
0.0
 11
27.565967
 21
44.194008
 31
0.0
 11
27.343976
 21
44.235137
 31
0.0
  0
LINE
  5
11c
100
AcDbEntity
  8
Capa_1
 62
7
100
AcDbLine
 10
31.849624
 20
44.229528
 30
0.0
 11
31.849624
 21
44.229528
 31
0.0
  0
SPLINE
  5
11d
100
AcDbEntity
  8
Capa_1
 62
7
100
AcDbSpline
 70
0
 71
3
 72
25
 73
21
 74
19
 40
0.000000
 40
0.000000
 40
0.000000
 40
0.000000
 40
0.100604
 40
0.205501
 40
0.316950
 40
0.663853
 40
1.035236
 40
1.452688
 40
1.843501
 40
2.184199
 40
2.518858
 40
2.666648
 40
2.776784
 40
2.926079
 40
3.235313
 40
3.538552
 40
3.900697
 40
4.586605
 40
5.191395
 40
5.718847
 40
5.718847
 40
5.718847
 40
5.718847
 10
31.849624
 20
44.229528
 30
0.0
 10
31.816016
 20
44.228967
 30
0.0
 10
31.747368
 20
44.227822
 30
0.0
 10
31.643744
 20
44.203673
 30
0.0
 10
31.468712
 20
44.134610
 30
0.0
 10
31.247036
 20
43.952262
 30
0.0
 10
31.074212
 20
43.605498
 30
0.0
 10
31.025108
 20
43.209869
 30
0.0
 10
31.066280
 20
42.825779
 30
0.0
 10
31.214111
 20
42.491807
 30
0.0
 10
31.424465
 20
42.307888
 30
0.0
 10
31.590664
 20
42.198648
 30
0.0
 10
31.724635
 20
42.164345
 30
0.0
 10
31.914583
 20
42.178048
 30
0.0
 10
32.170234
 20
42.231485
 30
0.0
 10
32.418343
 20
42.461004
 30
0.0
 10
32.616214
 20
42.872987
 30
0.0
 10
32.661429
 20
43.437108
 30
0.0
 10
32.395787
 20
44.049523
 30
0.0
 10
32.023195
 20
44.172322
 30
0.0
 10
31.849624
 20
44.229528
 30
0.0
 11
31.849624
 21
44.229528
 31
0.0
 11
31.749152
 21
44.224368
 31
0.0
 11
31.646709
 21
44.201811
 31
0.0
 11
31.543061
 21
44.160847
 31
0.0
 11
31.272843
 21
43.943308
 31
0.0
 11
31.100550
 21
43.614308
 31
0.0
 11
31.040700
 21
43.201169
 31
0.0
 11
31.089545
 21
42.813421
 31
0.0
 11
31.235039
 21
42.505351
 31
0.0
 11
31.478003
 21
42.275210
 31
0.0
 11
31.605334
 21
42.200184
 31
0.0
 11
31.711987
 21
42.172709
 31
0.0
 11
31.861236
 21
42.176433
 31
0.0
 11
32.159594
 21
42.257721
 31
0.0
 11
32.388403
 21
42.456720
 31
0.0
 11
32.553905
 21
42.778836
 31
0.0
 11
32.600420
 21
43.463165
 31
0.0
 11
32.325380
 21
44.001796
 31
0.0
 11
31.849624
 21
44.229528
 31
0.0
  0
LINE
  5
11e
100
AcDbEntity
  8
Capa_1
 62
7
100
AcDbLine
 10
29.518255
 20
40.680537
 30
0.0
 11
29.518255
 21
40.680537
 31
0.0
  0
SPLINE
  5
11f
100
AcDbEntity
  8
Capa_1
 62
7
100
AcDbSpline
 70
0
 71
3
 72
22
 73
18
 74
16
 40
0.000000
 40
0.000000
 40
0.000000
 40
0.000000
 40
5.039304
 40
9.929449
 40
14.968895
 40
14.983690
 40
15.011168
 40
15.025963
 40
20.065451
 40
24.955636
 40
29.994982
 40
35.034257
 40
39.924376
 40
44.963793
 40
50.003239
 40
54.893386
 40
59.932691
 40
59.932691
 40
59.932691
 40
59.932691
 10
29.518255
 20
40.680537
 30
0.0
 10
31.218462
 20
40.422898
 30
0.0
 10
34.568552
 20
39.915245
 30
0.0
 10
38.272469
 20
36.105471
 30
0.0
 10
39.200995
 20
32.765244
 30
0.0
 10
39.207940
 20
31.071371
 30
0.0
 10
39.208024
 20
31.052348
 30
0.0
 10
39.216011
 20
29.358485
 30
0.0
 10
38.300282
 20
25.977903
 30
0.0
 10
34.621485
 20
22.300798
 30
0.0
 10
29.575803
 20
20.925895
 30
0.0
 10
24.527423
 20
22.284314
 30
0.0
 10
20.834006
 20
25.958375
 30
0.0
 10
19.454914
 20
31.012223
 30
0.0
 10
20.804268
 20
36.021609
 30
0.0
 10
24.475143
 20
39.872040
 30
0.0
 10
27.820467
 20
40.408352
 30
0.0
 10
29.518255
 20
40.680537
 30
0.0
 11
29.518255
 21
40.680537
 31
0.0
 11
34.388833
 21
39.387457
 31
0.0
 11
37.864480
 21
35.947486
 31
0.0
 11
39.207858
 21
31.090394
 31
0.0
 11
39.207923
 21
31.075598
 31
0.0
 11
39.208044
 21
31.048121
 31
0.0
 11
39.208109
 21
31.033326
 31
0.0
 11
37.893486
 21
26.168328
 31
0.0
 11
34.438213
 21
22.707837
 31
0.0
 11
29.575321
 21
21.385988
 31
0.0
 11
24.708624
 21
22.693486
 31
0.0
 11
21.243193
 21
26.143711
 31
0.0
 11
19.914191
 21
31.004727
 31
0.0
 11
21.214386
 21
35.873557
 31
0.0
 11
24.659351
 21
39.344257
 31
0.0
 11
29.518255
 21
40.680537
 31
0.0
  0
ENDSEC
  0
SECTION
  2
OBJECTS
  0
DICTIONARY
  5
C
330
0
100
AcDbDictionary
  3
ACAD_GROUP
350
D
  3
ACAD_MLINESTYLE
350
17
  0
DICTIONARY
  5
D
330
C
100
AcDbDictionary
  0
DICTIONARY
  5
1A
330
C
100
AcDbDictionary
  0
DICTIONARY
  5
17
330
C
100
AcDbDictionary
  3
STANDARD
350
18
  0
DICTIONARY
  5
19
330
C
100
AcDbDictionary
  0
ENDSEC
  0
EOF
