  0
SECTION
  2
HEADER
  9
$ACADVER
  1
AC1014
  9
$HANDSEED
  5
FFFF
  9
$MEASUREMENT
 70
     1
  0
ENDSEC
  0
SECTION
  2
TABLES
  0
TABLE
  2
VPORT
  5
8
330
0
100
AcDbSymbolTable
 70
     4
  0
VPORT
  5
2E
330
8
100
AcDbSymbolTableRecord
100
AcDbViewportTableRecord
  2
*ACTIVE
 70
     0
 10
0.0
 20
0.0
 11
1.0
 21
1.0
 12
210.0
 22
148.5
 13
0.0
 23
0.0
 14
10.0
 24
10.0
 15
10.0
 25
10.0
 16
0.0
 26
0.0
 36
1.0
 17
0.0
 27
0.0
 37
0.0
 40
341.0
 41
1.24
 42
50.0
 43
0.0
 44
0.0
 50
0.0
 51
0.0
 71
     0
 72
   100
 73
     1
 74
     3
 75
     0
 76
     0
 77
     0
 78
     0
  0
ENDTAB
  0
TABLE
  2
LTYPE
  5
5
330
0
100
AcDbSymbolTable
 70
     1
  0
LTYPE
  5
14
330
5
100
AcDbSymbolTableRecord
100
AcDbLinetypeTableRecord
  2
BYBLOCK
 70
     0
  3

 72
    65
 73
     0
 40
0.0
  0
LTYPE
  5
15
330
5
100
AcDbSymbolTableRecord
100
AcDbLinetypeTableRecord
  2
BYLAYER
 70
     0
  3

 72
    65
 73
     0
 40
0.0
  0
LTYPE
  5
16
330
5
100
AcDbSymbolTableRecord
100
AcDbLinetypeTableRecord
  2
CONTINUOUS
 70
     0
  3
Solid line
 72
    65
 73
     0
 40
0.0
  0
ENDTAB
  0
TABLE
  2
LAYER
  5
2
100
AcDbSymbolTable
 70
2
  0
LAYER
  5
50
100
AcDbSymbolTableRecord
100
AcDbLayerTableRecord
  2
0
 70
0
  6
CONTINUOUS
  0
LAYER
  5
51
100
AcDbSymbolTableRecord
100
AcDbLayerTableRecord
  2
Layer_1
 70
0
  6
CONTINUOUS
  0
ENDTAB
  0
TABLE
  2
STYLE
  5
3
330
0
100
AcDbSymbolTable
 70
     1
  0
STYLE
  5
11
330
3
100
AcDbSymbolTableRecord
100
AcDbTextStyleTableRecord
  2
STANDARD
 70
     0
 40
0.0
 41
1.0
 50
0.0
 71
     0
 42
2.5
  3
txt
  4

  0
ENDTAB
  0
TABLE
  2
VIEW
  5
6
330
0
100
AcDbSymbolTable
 70
     0
  0
ENDTAB
  0
TABLE
  2
UCS
  5
7
330
0
100
AcDbSymbolTable
 70
     0
  0
ENDTAB
  0
TABLE
  2
APPID
  5
9
330
0
100
AcDbSymbolTable
 70
     2
  0
APPID
  5
12
330
9
100
AcDbSymbolTableRecord
100
AcDbRegAppTableRecord
  2
ACAD
 70
     0
  0
ENDTAB
  0
TABLE
  2
DIMSTYLE
  5
A
330
0
100
AcDbSymbolTable
 70
     1
  0
DIMSTYLE
105
27
330
A
100
AcDbSymbolTableRecord
100
AcDbDimStyleTableRecord
  2
ISO-25
 70
     0
  3

  4

  5

  6

  7

 40
1.0
 41
2.5
 42
0.625
 43
3.75
 44
1.25
 45
0.0
 46
0.0
 47
0.0
 48
0.0
140
2.5
141
2.5
142
0.0
143
0.03937007874016
144
1.0
145
0.0
146
1.0
147
0.625
 71
     0
 72
     0
 73
     0
 74
     0
 75
     0
 76
     0
 77
     1
 78
     8
170
     0
171
     3
172
     1
173
     0
174
     0
175
     0
176
     0
177
     0
178
     0
270
     2
271
     2
272
     2
273
     2
274
     3
340
11
275
     0
280
     0
281
     0
282
     0
283
     0
284
     8
285
     0
286
     0
287
     3
288
     0
  0
ENDTAB
  0
TABLE
  2
BLOCK_RECORD
  5
1
330
0
100
AcDbSymbolTable
 70
     1
  0
BLOCK_RECORD
  5
1F
330
1
100
AcDbSymbolTableRecord
100
AcDbBlockTableRecord
  2
*MODEL_SPACE
  0
BLOCK_RECORD
  5
1B
330
1
100
AcDbSymbolTableRecord
100
AcDbBlockTableRecord
  2
*PAPER_SPACE
  0
ENDTAB
  0
ENDSEC
  0
SECTION
  2
BLOCKS
  0
BLOCK
  5
20
330
1F
100
AcDbEntity
  8
0
100
AcDbBlockBegin
  2
*MODEL_SPACE
 70
     0
 10
0.0
 20
0.0
 30
0.0
  3
*MODEL_SPACE
  1

  0
ENDBLK
  5
21
330
1F
100
AcDbEntity
  8
0
100
AcDbBlockEnd
  0
BLOCK
  5
1C
330
1B
100
AcDbEntity
 67
     1
  8
0
100
AcDbBlockBegin
  2
*PAPER_SPACE
  1

  0
ENDBLK
  5
1D
330
1B
100
AcDbEntity
 67
     1
  8
0
100
AcDbBlockEnd
  0
ENDSEC
  0
SECTION
  2
ENTITIES
  0
SPLINE
  5
100
100
AcDbEntity
  8
Layer_1
 62
7
100
AcDbSpline
 70
0
 71
3
 72
19
 73
15
 74
13
 40
0.000000
 40
0.000000
 40
0.000000
 40
0.000000
 40
1.884321
 40
4.931111
 40
9.310998
 40
12.173333
 40
14.611504
 40
16.347366
 40
17.965701
 40
18.089671
 40
19.713007
 40
23.082479
 40
27.012059
 40
31.404676
 40
31.404676
 40
31.404676
 40
31.404676
 10
37.670118
 20
23.025822
 30
0.0
 10
37.546543
 20
23.644996
 30
0.0
 10
37.223156
 20
25.265322
 30
0.0
 10
35.636244
 20
27.978326
 30
0.0
 10
33.810952
 20
30.881481
 30
0.0
 10
32.003055
 20
33.512414
 30
0.0
 10
30.863066
 20
35.687334
 30
0.0
 10
29.797898
 20
36.981215
 30
0.0
 10
29.753016
 20
39.002712
 30
0.0
 10
28.631120
 20
38.556856
 30
0.0
 10
30.334291
 20
36.360618
 30
0.0
 10
30.477989
 20
33.930603
 30
0.0
 10
32.363218
 20
30.204835
 30
0.0
 10
33.896778
 20
27.939161
 30
0.0
 10
34.706221
 20
26.743295
 30
0.0
 11
37.670118
 21
23.025822
 31
0.0
 11
37.223892
 21
24.856546
 31
0.0
 11
35.854740
 21
27.578375
 31
0.0
 11
33.516951
 21
31.282177
 31
0.0
 11
31.962087
 21
33.685374
 31
0.0
 11
30.718124
 21
35.782333
 31
0.0
 11
29.929892
 21
37.328912
 31
0.0
 11
29.252061
 21
38.798454
 31
0.0
 11
29.136775
 21
38.752871
 31
0.0
 11
29.585888
 21
37.192897
 31
0.0
 11
30.694727
 21
34.011103
 31
0.0
 11
32.331283
 21
30.438529
 31
0.0
 11
34.706221
 21
26.743295
 31
0.0
  0
LINE
  5
101
100
AcDbEntity
  8
Layer_1
 62
7
100
AcDbLine
 10
33.897215
 20
25.324448
 30
0.0
 11
31.452966
 21
25.416693
 31
0.0
  0
LINE
  5
102
100
AcDbEntity
  8
Layer_1
 62
7
100
AcDbLine
 10
31.452966
 20
25.416693
 30
0.0
 11
30.202907
 21
26.935710
 31
0.0
  0
SPLINE
  5
103
100
AcDbEntity
  8
Layer_1
 62
7
100
AcDbSpline
 70
0
 71
3
 72
10
 73
6
 74
4
 40
0.000000
 40
0.000000
 40
0.000000
 40
0.000000
 40
1.920983
 40
2.282069
 40
4.211875
 40
4.211875
 40
4.211875
 40
4.211875
 10
34.706221
 20
26.743295
 30
0.0
 10
35.564512
 20
26.306502
 30
0.0
 10
36.584136
 20
25.787605
 30
0.0
 10
35.374582
 20
24.783999
 30
0.0
 10
34.572704
 20
25.077342
 30
0.0
 10
33.897215
 20
25.324448
 30
0.0
 11
34.706221
 21
26.743295
 31
0.0
 11
36.094234
 21
25.415290
 31
0.0
 11
35.821505
 21
25.178643
 31
0.0
 11
33.897215
 21
25.324448
 31
0.0
  0
SPLINE
  5
104
100
AcDbEntity
  8
Layer_1
 62
7
100
AcDbSpline
 70
0
 71
3
 72
10
 73
6
 74
4
 40
0.000000
 40
0.000000
 40
0.000000
 40
0.000000
 40
4.748740
 40
9.783984
 40
15.587855
 40
15.587855
 40
15.587855
 40
15.587855
 10
30.202907
 20
26.935710
 30
0.0
 10
29.290073
 20
28.239807
 30
0.0
 10
27.409332
 20
30.926679
 30
0.0
 10
25.972571
 20
36.020370
 30
0.0
 10
25.822157
 20
39.633478
 30
0.0
 10
25.741617
 20
41.568140
 30
0.0
 11
30.202907
 21
26.935710
 31
0.0
 11
27.695016
 21
30.968206
 31
0.0
 11
26.226555
 21
35.784563
 31
0.0
 11
25.741617
 21
41.568140
 31
0.0
  0
LINE
  5
105
100
AcDbEntity
  8
Layer_1
 62
7
100
AcDbLine
 10
24.315002
 20
24.544647
 30
0.0
 11
22.904313
 21
24.710271
 31
0.0
  0
LINE
  5
106
100
AcDbEntity
  8
Layer_1
 62
7
100
AcDbLine
 10
22.904313
 20
24.710271
 30
0.0
 11
22.499736
 21
25.800016
 31
0.0
  0
SPLINE
  5
107
100
AcDbEntity
  8
Layer_1
 62
7
100
AcDbSpline
 70
0
 71
3
 72
25
 73
21
 74
19
 40
0.000000
 40
0.000000
 40
0.000000
 40
0.000000
 40
2.247101
 40
3.683445
 40
4.852763
 40
5.600670
 40
6.151599
 40
6.394679
 40
6.720859
 40
7.615764
 40
8.892101
 40
15.566231
 40
22.223946
 40
28.919259
 40
29.714623
 40
30.255653
 40
30.519071
 40
31.977905
 40
34.602648
 40
36.857657
 40
36.857657
 40
36.857657
 40
36.857657
 10
25.741617
 20
41.568140
 30
0.0
 10
25.742045
 20
42.315576
 30
0.0
 10
25.742747
 20
43.540773
 30
0.0
 10
25.835637
 20
45.171290
 30
0.0
 10
26.114514
 20
46.235276
 30
0.0
 10
26.335379
 20
47.075957
 30
0.0
 10
26.450337
 20
47.476847
 30
0.0
 10
26.461730
 20
48.040119
 30
0.0
 10
26.157583
 20
47.284509
 30
0.0
 10
26.021320
 20
46.698083
 30
0.0
 10
25.183635
 20
43.640151
 30
0.0
 10
24.861413
 20
38.899182
 30
0.0
 10
26.240510
 20
32.188858
 30
0.0
 10
28.721930
 20
28.105511
 30
0.0
 10
30.290383
 20
25.946472
 30
0.0
 10
30.595990
 20
25.502404
 30
0.0
 10
30.647705
 20
24.679462
 30
0.0
 10
28.484135
 20
24.906848
 30
0.0
 10
26.776238
 20
24.438146
 30
0.0
 10
25.092899
 20
24.510986
 30
0.0
 10
24.315002
 20
24.544647
 30
0.0
 11
25.741617
 21
41.568140
 31
0.0
 11
25.768881
 21
43.815076
 31
0.0
 11
25.891435
 21
45.246182
 31
0.0
 11
26.154071
 21
46.385623
 31
0.0
 11
26.346576
 21
47.108331
 31
0.0
 11
26.448677
 21
47.649717
 31
0.0
 11
26.438268
 21
47.892573
 31
0.0
 11
26.289068
 21
47.602516
 31
0.0
 11
26.027326
 21
46.746744
 31
0.0
 11
25.709708
 21
45.510558
 31
0.0
 11
25.164827
 21
38.858708
 31
0.0
 11
26.591526
 21
32.355655
 31
0.0
 11
29.875768
 21
26.521190
 31
0.0
 11
30.338036
 21
25.873956
 31
0.0
 11
30.587827
 21
25.394042
 31
0.0
 11
30.599417
 21
25.130879
 31
0.0
 11
29.183393
 21
24.780063
 31
0.0
 11
26.569996
 21
24.536276
 31
0.0
 11
24.315002
 21
24.544647
 31
0.0
  0
LINE
  5
108
100
AcDbEntity
  8
Layer_1
 62
7
100
AcDbLine
 10
39.032331
 20
52.057485
 30
0.0
 11
39.128065
 21
52.839566
 31
0.0
  0
LINE
  5
109
100
AcDbEntity
  8
Layer_1
 62
7
100
AcDbLine
 10
39.128065
 20
52.839566
 30
0.0
 11
38.935245
 21
52.143641
 31
0.0
  0
SPLINE
  5
10a
100
AcDbEntity
  8
Layer_1
 62
7
100
AcDbSpline
 70
0
 71
3
 72
151
 73
147
 74
145
 40
0.000000
 40
0.000000
 40
0.000000
 40
0.000000
 40
0.980439
 40
2.436649
 40
4.054898
 40
6.126410
 40
8.056883
 40
10.471257
 40
14.947584
 40
18.645373
 40
22.220811
 40
23.162098
 40
23.873216
 40
24.210556
 40
24.920277
 40
26.768855
 40
28.921269
 40
31.446939
 40
33.839155
 40
37.066516
 40
40.500456
 40
43.504234
 40
46.561564
 40
48.752531
 40
49.439575
 40
50.491232
 40
52.302615
 40
54.446271
 40
56.261373
 40
57.574072
 40
59.602624
 40
63.040513
 40
65.414558
 40
67.029340
 40
68.533474
 40
71.337483
 40
74.133643
 40
76.684812
 40
76.851274
 40
77.147859
 40
77.839656
 40
80.086601
 40
82.792834
 40
85.582010
 40
88.151912
 40
91.368997
 40
94.597946
 40
95.434591
 40
95.936821
 40
96.182843
 40
97.993128
 40
101.627073
 40
105.158172
 40
106.054276
 40
106.844949
 40
108.129206
 40
110.608498
 40
113.163847
 40
115.688055
 40
116.961562
 40
117.171766
 40
117.922930
 40
119.994252
 40
122.229891
 40
124.292951
 40
125.534740
 40
126.019201
 40
126.711484
 40
129.667624
 40
132.788475
 40
135.502087
 40
137.191067
 40
138.985725
 40
140.879409
 40
141.458505
 40
141.863052
 40
142.015593
 40
142.243852
 40
142.780435
 40
143.515382
 40
144.254689
 40
144.805416
 40
145.064143
 40
145.870855
 40
147.315834
 40
148.685107
 40
150.228109
 40
151.614853
 40
153.476304
 40
155.411772
 40
157.254538
 40
158.985351
 40
159.235912
 40
159.271818
 40
159.511663
 40
160.730917
 40
162.545404
 40
164.498455
 40
165.717020
 40
166.270157
 40
166.578238
 40
167.427575
 40
168.894661
 40
170.605948
 40
172.037147
 40
173.610707
 40
174.783229
 40
174.924110
 40
174.979466
 40
175.029347
 40
175.153521
 40
175.319599
 40
175.503030
 40
176.789504
 40
179.245999
 40
181.533848
 40
182.959184
 40
184.445825
 40
185.385492
 40
185.551219
 40
185.678795
 40
185.827508
 40
187.435110
 40
190.156032
 40
191.930500
 40
192.439670
 40
192.891123
 40
193.269224
 40
193.694000
 40
194.267562
 40
195.296144
 40
197.119684
 40
198.552894
 40
199.629448
 40
200.991955
 40
202.193166
 40
203.251034
 40
203.792508
 40
204.274088
 40
204.643221
 40
205.310626
 40
205.963994
 40
206.370184
 40
206.577465
 40
206.916678
 40
207.332329
 40
207.332329
 40
207.332329
 40
207.332329
 10
22.499736
 20
25.800016
 30
0.0
 10
22.401126
 20
26.111658
 30
0.0
 10
22.156053
 20
26.886170
 30
0.0
 10
21.829558
 20
28.198545
 30
0.0
 10
21.439880
 20
29.868639
 30
0.0
 10
21.070060
 20
31.706957
 30
0.0
 10
20.840243
 20
33.835854
 30
0.0
 10
20.727471
 20
36.775284
 30
0.0
 10
20.743428
 20
40.305369
 30
0.0
 10
21.465755
 20
44.212798
 30
0.0
 10
22.641497
 20
46.653503
 30
0.0
 10
23.488970
 20
48.245466
 30
0.0
 10
23.745702
 20
48.760828
 30
0.0
 10
23.956174
 20
49.532647
 30
0.0
 10
22.770832
 20
48.308841
 30
0.0
 10
22.389092
 20
47.270147
 30
0.0
 10
21.312681
 20
45.164879
 30
0.0
 10
20.599146
 20
42.966467
 30
0.0
 10
20.194612
 20
40.254188
 30
0.0
 10
20.190916
 20
37.239626
 30
0.0
 10
20.247690
 20
34.006966
 30
0.0
 10
20.698278
 20
30.889941
 30
0.0
 10
21.261906
 20
28.125147
 30
0.0
 10
22.136440
 20
26.452916
 30
0.0
 10
21.998882
 20
24.853706
 30
0.0
 10
20.474135
 20
25.339603
 30
0.0
 10
19.019754
 20
25.573992
 30
0.0
 10
17.209393
 20
26.416561
 30
0.0
 10
15.605456
 20
27.179522
 30
0.0
 10
14.572770
 20
28.644240
 30
0.0
 10
14.348643
 20
30.945726
 30
0.0
 10
14.288002
 20
33.537820
 30
0.0
 10
14.288926
 20
36.018257
 30
0.0
 10
14.409917
 20
37.846986
 30
0.0
 10
14.817751
 20
39.790012
 30
0.0
 10
15.491548
 20
42.012399
 30
0.0
 10
16.625889
 20
44.704041
 30
0.0
 10
17.361854
 20
45.869483
 30
0.0
 10
18.074318
 20
47.069711
 30
0.0
 10
17.636842
 20
46.544111
 30
0.0
 10
17.134892
 20
45.948005
 30
0.0
 10
16.014078
 20
44.129671
 30
0.0
 10
15.088440
 20
41.820755
 30
0.0
 10
14.282821
 20
39.215840
 30
0.0
 10
13.959947
 20
36.372916
 30
0.0
 10
13.818752
 20
33.369570
 30
0.0
 10
13.932190
 20
30.934765
 30
0.0
 10
13.984445
 20
29.423506
 30
0.0
 10
14.012883
 20
28.884009
 30
0.0
 10
13.491187
 20
28.098396
 30
0.0
 10
11.873136
 20
30.912713
 30
0.0
 10
10.584990
 20
32.641661
 30
0.0
 10
9.372249
 20
35.303077
 30
0.0
 10
8.854795
 20
36.965139
 30
0.0
 10
8.883771
 20
37.969063
 30
0.0
 10
9.198459
 20
39.452598
 30
0.0
 10
9.732197
 20
41.504563
 30
0.0
 10
10.735262
 20
43.787516
 30
0.0
 10
11.793011
 20
45.743582
 30
0.0
 10
12.597836
 20
46.628245
 30
0.0
 10
12.959840
 20
47.482688
 30
0.0
 10
11.763358
 20
45.938252
 30
0.0
 10
11.115691
 20
45.185684
 30
0.0
 10
9.892889
 20
43.162791
 30
0.0
 10
9.025585
 20
41.547590
 30
0.0
 10
8.763884
 20
40.353116
 30
0.0
 10
7.917217
 20
39.724716
 30
0.0
 10
7.531859
 20
41.605573
 30
0.0
 10
7.411363
 20
43.417542
 30
0.0
 10
7.614258
 20
46.504751
 30
0.0
 10
8.145167
 20
48.958365
 30
0.0
 10
9.235938
 20
50.748211
 30
0.0
 10
10.585189
 20
51.979940
 30
0.0
 10
11.836958
 20
52.609498
 30
0.0
 10
12.750603
 20
53.020867
 30
0.0
 10
13.049647
 20
53.132372
 30
0.0
 10
13.327349
 20
53.389558
 30
0.0
 10
12.830875
 20
53.268059
 30
0.0
 10
12.486281
 20
53.143104
 30
0.0
 10
11.813493
 20
52.872252
 30
0.0
 10
11.185803
 20
52.636416
 30
0.0
 10
10.719940
 20
52.480923
 30
0.0
 10
10.086458
 20
52.457414
 30
0.0
 10
10.632803
 20
53.677347
 30
0.0
 10
11.061528
 20
54.516259
 30
0.0
 10
12.017340
 20
55.729992
 30
0.0
 10
13.172161
 20
56.580139
 30
0.0
 10
14.703618
 20
57.117978
 30
0.0
 10
16.439660
 20
57.218621
 30
0.0
 10
18.309352
 20
57.271244
 30
0.0
 10
20.175007
 20
56.857287
 30
0.0
 10
21.301618
 20
56.877965
 30
0.0
 10
22.017168
 20
56.276602
 30
0.0
 10
22.134996
 20
56.432962
 30
0.0
 10
21.429485
 20
56.708029
 30
0.0
 10
20.719940
 20
57.098833
 30
0.0
 10
18.928324
 20
57.421562
 30
0.0
 10
17.285522
 20
57.544559
 30
0.0
 10
16.106129
 20
57.605876
 30
0.0
 10
15.314018
 20
57.615277
 30
0.0
 10
15.069970
 20
58.229166
 30
0.0
 10
15.917271
 20
58.887312
 30
0.0
 10
17.006230
 20
59.485784
 30
0.0
 10
18.496823
 20
60.017736
 30
0.0
 10
20.078110
 20
60.163591
 30
0.0
 10
21.416498
 20
60.150153
 30
0.0
 10
22.497126
 20
60.024622
 30
0.0
 10
22.833159
 20
59.873521
 30
0.0
 10
22.961055
 20
59.847440
 30
0.0
 10
22.868018
 20
59.918542
 30
0.0
 10
22.816019
 20
59.995291
 30
0.0
 10
22.762420
 20
60.153144
 30
0.0
 10
22.682495
 20
60.716362
 30
0.0
 10
24.560291
 20
61.010869
 30
0.0
 10
26.222257
 20
60.890379
 30
0.0
 10
28.399263
 20
60.477409
 30
0.0
 10
29.733909
 20
59.329722
 30
0.0
 10
30.588459
 20
58.399984
 30
0.0
 10
31.124512
 20
57.668566
 30
0.0
 10
31.139619
 20
57.238366
 30
0.0
 10
31.272722
 20
57.133693
 30
0.0
 10
31.920355
 20
57.323085
 30
0.0
 10
32.477256
 20
58.962920
 30
0.0
 10
33.686829
 20
60.268282
 30
0.0
 10
35.360554
 20
61.658020
 30
0.0
 10
36.125448
 20
61.056366
 30
0.0
 10
36.450978
 20
60.746629
 30
0.0
 10
36.601960
 20
60.353549
 30
0.0
 10
36.763647
 20
59.902497
 30
0.0
 10
37.429920
 20
59.616498
 30
0.0
 10
38.505388
 20
59.318215
 30
0.0
 10
39.862036
 20
58.833588
 30
0.0
 10
41.113494
 20
58.045269
 30
0.0
 10
41.772773
 20
56.868388
 30
0.0
 10
41.738615
 20
55.625540
 30
0.0
 10
41.526188
 20
54.418816
 30
0.0
 10
40.963460
 20
53.643260
 30
0.0
 10
40.481842
 20
53.149412
 30
0.0
 10
40.225964
 20
52.748108
 30
0.0
 10
40.135312
 20
52.248381
 30
0.0
 10
39.989829
 20
51.690144
 30
0.0
 10
39.688755
 20
51.229011
 30
0.0
 10
39.152309
 20
51.010319
 30
0.0
 10
39.029175
 20
51.357176
 30
0.0
 10
39.002881
 20
51.664046
 30
0.0
 10
39.021873
 20
51.917775
 30
0.0
 10
39.032331
 20
52.057485
 30
0.0
 11
22.499736
 21
25.800016
 31
0.0
 11
22.211819
 21
26.737227
 31
0.0
 11
21.845912
 21
28.146716
 31
0.0
 11
21.481246
 21
29.723342
 31
0.0
 11
21.092930
 21
31.758133
 31
0.0
 11
20.877331
 21
33.676528
 31
0.0
 11
20.765921
 21
36.088331
 31
0.0
 11
20.891608
 21
40.562892
 31
0.0
 11
21.626784
 21
44.186863
 31
0.0
 11
23.072236
 21
47.457095
 31
0.0
 11
23.508545
 21
48.291155
 31
0.0
 11
23.789436
 21
48.944447
 31
0.0
 11
23.854095
 21
49.275532
 31
0.0
 11
23.301670
 21
48.829964
 31
0.0
 11
22.342065
 21
47.249966
 31
0.0
 11
21.437627
 21
45.296794
 31
0.0
 11
20.652161
 21
42.896366
 31
0.0
 11
20.286250
 21
40.532301
 31
0.0
 11
20.200824
 21
37.306070
 31
0.0
 11
20.326381
 21
33.874427
 31
0.0
 11
20.726769
 21
30.897454
 31
0.0
 11
21.461855
 21
27.929808
 31
0.0
 11
22.053888
 21
25.820346
 31
0.0
 11
21.904547
 21
25.149728
 31
0.0
 11
20.854133
 21
25.200832
 31
0.0
 11
19.096979
 21
25.640739
 31
0.0
 11
17.117312
 21
26.463042
 31
0.0
 11
15.562130
 21
27.398993
 31
0.0
 11
14.802374
 21
28.469483
 31
0.0
 11
14.414303
 21
30.460570
 31
0.0
 11
14.295755
 21
33.896414
 31
0.0
 11
14.319968
 21
36.270335
 31
0.0
 11
14.451506
 21
37.879751
 31
0.0
 11
14.741893
 21
39.355588
 31
0.0
 11
15.554512
 21
42.039263
 31
0.0
 11
16.651673
 21
44.611179
 31
0.0
 11
17.926571
 21
46.820952
 31
0.0
 11
18.006747
 21
46.966833
 31
0.0
 11
17.806461
 21
46.748089
 31
0.0
 11
17.369100
 21
46.212088
 31
0.0
 11
16.185790
 21
44.301973
 31
0.0
 11
15.124568
 21
41.812494
 31
0.0
 11
14.351267
 21
39.132661
 31
0.0
 11
14.009405
 21
36.585598
 31
0.0
 11
13.869091
 21
33.371575
 31
0.0
 11
13.958845
 21
30.143873
 31
0.0
 11
13.991671
 21
29.307873
 31
0.0
 11
13.942696
 21
28.808036
 31
0.0
 11
13.807779
 21
28.602308
 31
0.0
 11
12.476477
 21
29.828998
 31
0.0
 11
10.557472
 21
32.914930
 31
0.0
 11
9.120238
 21
36.140300
 31
0.0
 11
8.896193
 21
37.007944
 31
0.0
 11
8.896837
 21
37.798617
 31
0.0
 11
9.122619
 21
39.062872
 31
0.0
 11
9.784662
 21
41.452136
 31
0.0
 11
10.782837
 21
43.804466
 31
0.0
 11
12.058817
 21
45.982424
 31
0.0
 11
12.768913
 21
47.039582
 31
0.0
 11
12.846638
 21
47.234888
 31
0.0
 11
12.337471
 21
46.682623
 31
0.0
 11
11.073060
 21
45.042001
 31
0.0
 11
9.900946
 21
43.138260
 31
0.0
 11
9.009682
 21
41.277651
 31
0.0
 11
8.460556
 21
40.163873
 31
0.0
 11
8.041196
 21
39.921305
 31
0.0
 11
7.752855
 21
40.550682
 31
0.0
 11
7.473082
 21
43.493553
 31
0.0
 11
7.702929
 21
46.605929
 31
0.0
 11
8.393832
 21
49.230113
 31
0.0
 11
9.278676
 21
50.668760
 31
0.0
 11
10.597380
 21
51.886059
 31
0.0
 11
12.257665
 21
52.796826
 31
0.0
 11
12.787504
 21
53.030539
 31
0.0
 11
13.142534
 21
53.224478
 31
0.0
 11
13.245899
 21
53.336658
 31
0.0
 11
13.018950
 21
53.312240
 31
0.0
 11
12.508122
 21
53.147996
 31
0.0
 11
11.823967
 21
52.879519
 31
0.0
 11
11.131236
 21
52.621260
 31
0.0
 11
10.597946
 21
52.483775
 31
0.0
 11
10.339549
 21
52.496830
 31
0.0
 11
10.465216
 21
53.293694
 31
0.0
 11
11.145396
 21
54.568575
 31
0.0
 11
12.010946
 21
55.629580
 31
0.0
 11
13.255594
 21
56.541560
 31
0.0
 11
14.560921
 21
57.009724
 31
0.0
 11
16.411784
 21
57.207981
 31
0.0
 11
18.347153
 21
57.188357
 31
0.0
 11
20.171064
 21
56.925416
 31
0.0
 11
21.828583
 21
56.427077
 31
0.0
 11
22.064635
 21
56.343051
 31
0.0
 11
22.086086
 21
56.371846
 31
0.0
 11
21.901740
 21
56.525279
 31
0.0
 11
20.779117
 21
57.000987
 31
0.0
 11
19.004144
 21
57.377597
 31
0.0
 11
17.058968
 21
57.552809
 31
0.0
 11
15.841601
 21
57.606822
 31
0.0
 11
15.305306
 21
57.742277
 31
0.0
 11
15.185366
 21
58.026052
 31
0.0
 11
15.701494
 21
58.700578
 31
0.0
 11
16.976099
 21
59.427025
 31
0.0
 11
18.598513
 21
59.971337
 31
0.0
 11
20.020218
 21
60.135912
 31
0.0
 11
21.593605
 21
60.112557
 31
0.0
 11
22.748449
 21
59.909725
 31
0.0
 11
22.881884
 21
59.864527
 31
0.0
 11
22.936960
 21
59.858970
 31
0.0
 11
22.901759
 21
59.894311
 31
0.0
 11
22.824536
 21
59.991552
 31
0.0
 11
22.769458
 21
60.148230
 31
0.0
 11
22.748449
 21
60.330455
 31
0.0
 11
23.911116
 21
60.881110
 31
0.0
 11
26.367021
 21
60.827286
 31
0.0
 11
28.568020
 21
60.202900
 31
0.0
 11
29.693892
 21
59.328831
 31
0.0
 11
30.696097
 21
58.230795
 31
0.0
 11
31.129160
 21
57.396869
 31
0.0
 11
31.167137
 21
57.235553
 31
0.0
 11
31.268870
 21
57.158571
 31
0.0
 11
31.416064
 21
57.179766
 31
0.0
 11
32.382844
 21
58.464181
 31
0.0
 11
34.098793
 21
60.575799
 31
0.0
 11
35.708188
 21
61.323186
 31
0.0
 11
36.131739
 21
61.040595
 31
0.0
 11
36.438646
 21
60.709509
 31
0.0
 11
36.595825
 21
60.365627
 31
0.0
 11
36.784349
 21
59.984977
 31
0.0
 11
37.277317
 21
59.691795
 31
0.0
 11
38.256795
 21
59.377783
 31
0.0
 11
39.957243
 21
58.719165
 31
0.0
 11
41.119475
 21
57.880532
 31
0.0
 11
41.638728
 21
56.937482
 31
0.0
 11
41.701423
 21
55.576418
 31
0.0
 11
41.426904
 21
54.406997
 31
0.0
 11
40.838350
 21
53.527969
 31
0.0
 11
40.481635
 21
53.120601
 31
0.0
 11
40.239124
 21
52.704539
 31
0.0
 11
40.149656
 21
52.346412
 31
0.0
 11
39.958859
 21
51.706861
 31
0.0
 11
39.545296
 21
51.201040
 31
0.0
 11
39.147205
 21
51.120328
 31
0.0
 11
39.054240
 21
51.305592
 31
0.0
 11
39.012971
 21
51.642286
 31
0.0
 11
39.032331
 21
52.057485
 31
0.0
  0
LINE
  5
10b
100
AcDbEntity
  8
Layer_1
 62
7
100
AcDbLine
 10
37.579594
 20
51.368857
 30
0.0
 11
37.712322
 21
52.211822
 31
0.0
  0
LINE
  5
10c
100
AcDbEntity
  8
Layer_1
 62
7
100
AcDbLine
 10
37.712322
 20
52.211822
 30
0.0
 11
37.092017
 21
51.954184
 31
0.0
  0
LINE
  5
10d
100
AcDbEntity
  8
Layer_1
 62
7
100
AcDbLine
 10
37.092017
 20
51.954184
 30
0.0
 11
36.471717
 21
51.696527
 31
0.0
  0
LINE
  5
10e
100
AcDbEntity
  8
Layer_1
 62
7
100
AcDbLine
 10
36.471717
 20
51.696527
 30
0.0
 11
36.879832
 21
51.078365
 31
0.0
  0
SPLINE
  5
10f
100
AcDbEntity
  8
Layer_1
 62
7
100
AcDbSpline
 70
0
 71
3
 72
13
 73
9
 74
7
 40
0.000000
 40
0.000000
 40
0.000000
 40
0.000000
 40
0.866348
 40
1.595808
 40
2.083713
 40
2.266735
 40
2.533560
 40
3.042965
 40
3.042965
 40
3.042965
 40
3.042965
 10
38.935245
 20
52.143641
 30
0.0
 10
38.838288
 20
51.867542
 30
0.0
 10
38.659694
 20
51.358968
 30
0.0
 10
38.266724
 20
50.810115
 30
0.0
 10
37.857626
 20
50.464868
 30
0.0
 10
37.520216
 20
50.593578
 30
0.0
 10
37.523136
 20
50.961368
 30
0.0
 10
37.557223
 20
51.207398
 30
0.0
 10
37.579594
 20
51.368857
 30
0.0
 11
38.935245
 21
52.143641
 31
0.0
 11
38.608311
 21
51.341349
 31
0.0
 11
38.175911
 21
50.753860
 31
0.0
 11
37.744548
 21
50.525876
 31
0.0
 11
37.577388
 21
50.600405
 31
0.0
 11
37.526146
 21
50.862264
 31
0.0
 11
37.579594
 21
51.368857
 31
0.0
  0
LINE
  5
110
100
AcDbEntity
  8
Layer_1
 62
7
100
AcDbLine
 10
37.670208
 20
23.025841
 30
0.0
 11
37.670118
 21
23.025822
 31
0.0
  0
SPLINE
  5
111
100
AcDbEntity
  8
Layer_1
 62
7
100
AcDbSpline
 70
0
 71
3
 72
64
 73
60
 74
58
 40
0.000000
 40
0.000000
 40
0.000000
 40
0.000000
 40
0.453534
 40
0.941691
 40
1.371506
 40
5.429964
 40
11.877918
 40
15.220094
 40
15.466865
 40
15.673560
 40
16.091245
 40
16.546309
 40
16.761617
 40
17.383556
 40
17.841669
 40
18.421613
 40
18.743958
 40
19.136455
 40
19.887306
 40
20.731657
 40
21.303256
 40
21.786109
 40
22.079704
 40
22.367232
 40
22.886356
 40
23.578312
 40
25.490009
 40
27.050761
 40
28.587432
 40
29.213764
 40
29.606232
 40
30.047190
 40
30.347616
 40
30.822219
 40
31.375847
 40
32.035650
 40
32.245003
 40
32.516483
 40
32.961269
 40
33.437007
 40
34.331069
 40
34.865570
 40
35.083998
 40
35.260562
 40
35.487301
 40
35.641665
 40
35.889563
 40
36.064045
 40
36.696193
 40
38.098672
 40
39.522947
 40
40.173794
 40
40.496031
 40
42.078057
 40
43.238986
 40
43.876054
 40
44.125345
 40
44.403744
 40
44.904590
 40
44.904590
 40
44.904590
 40
44.904590
 10
36.879832
 20
51.078365
 30
0.0
 10
36.952564
 20
50.945683
 30
0.0
 10
37.103582
 20
50.670188
 30
0.0
 10
37.244231
 20
50.229881
 30
0.0
 10
37.405805
 20
48.581002
 30
0.0
 10
37.749788
 20
44.693956
 30
0.0
 10
39.346408
 20
41.660539
 30
0.0
 10
38.490404
 20
35.714519
 30
0.0
 10
39.922566
 20
36.236964
 30
0.0
 10
40.084056
 20
35.924647
 30
0.0
 10
40.061368
 20
35.640144
 30
0.0
 10
40.036664
 20
35.028185
 30
0.0
 10
40.499774
 20
35.348334
 30
0.0
 10
40.503374
 20
35.796164
 30
0.0
 10
40.509878
 20
36.363162
 30
0.0
 10
40.456555
 20
36.746173
 30
0.0
 10
40.546639
 20
37.355588
 30
0.0
 10
41.030171
 20
36.788901
 30
0.0
 10
41.195839
 20
36.262154
 30
0.0
 10
41.389820
 20
35.526837
 30
0.0
 10
41.482485
 20
34.908554
 30
0.0
 10
41.564828
 20
34.461818
 30
0.0
 10
41.731590
 20
34.143537
 30
0.0
 10
41.754690
 20
33.768229
 30
0.0
 10
41.610965
 20
33.284334
 30
0.0
 10
41.235269
 20
32.316655
 30
0.0
 10
40.749580
 20
31.008004
 30
0.0
 10
40.791526
 20
29.257756
 30
0.0
 10
41.534455
 20
28.212045
 30
0.0
 10
42.152148
 20
27.605249
 30
0.0
 10
42.158284
 20
27.023857
 30
0.0
 10
41.701379
 20
26.901484
 30
0.0
 10
41.323684
 20
27.040582
 30
0.0
 10
40.929435
 20
27.238130
 30
0.0
 10
40.425643
 20
27.532703
 30
0.0
 10
40.132692
 20
27.823430
 30
0.0
 10
39.637297
 20
27.971748
 30
0.0
 10
39.789054
 20
27.560587
 30
0.0
 10
39.722472
 20
27.065370
 30
0.0
 10
38.982869
 20
27.380362
 30
0.0
 10
38.597757
 20
27.865003
 30
0.0
 10
38.319425
 20
28.240372
 30
0.0
 10
37.989230
 20
28.537125
 30
0.0
 10
37.936787
 20
28.258697
 30
0.0
 10
37.958890
 20
28.076630
 30
0.0
 10
37.745392
 20
27.938227
 30
0.0
 10
37.563516
 20
28.089992
 30
0.0
 10
37.201149
 20
27.863236
 30
0.0
 10
37.905993
 20
27.030750
 30
0.0
 10
38.050987
 20
26.480066
 30
0.0
 10
39.230743
 20
24.117790
 30
0.0
 10
39.095034
 20
25.887840
 30
0.0
 10
38.596090
 20
24.794642
 30
0.0
 10
38.944927
 20
23.923258
 30
0.0
 10
38.689976
 20
22.800753
 30
0.0
 10
38.219060
 20
22.142393
 30
0.0
 10
37.781486
 20
22.247230
 30
0.0
 10
37.667252
 20
22.605591
 30
0.0
 10
37.669051
 20
22.861415
 30
0.0
 10
37.670208
 20
23.025841
 30
0.0
 11
36.879832
 21
51.078365
 31
0.0
 11
37.085401
 21
50.674095
 31
0.0
 11
37.232021
 21
50.208477
 31
0.0
 11
37.287949
 21
49.782317
 31
0.0
 11
37.806064
 21
45.757067
 31
0.0
 11
38.852680
 21
39.394622
 31
0.0
 11
39.666204
 21
36.152968
 31
0.0
 11
39.911912
 21
36.175851
 31
0.0
 11
40.030821
 21
36.006786
 31
0.0
 11
40.061817
 21
35.590252
 31
0.0
 11
40.148934
 21
35.143605
 31
0.0
 11
40.334367
 21
35.253023
 31
0.0
 11
40.504237
 21
35.851314
 31
0.0
 11
40.500684
 21
36.309414
 31
0.0
 11
40.487003
 21
36.889196
 31
0.0
 11
40.579598
 21
37.197956
 31
0.0
 11
40.878729
 21
36.943842
 31
0.0
 11
41.190229
 21
36.260654
 31
0.0
 11
41.393734
 21
35.441194
 31
0.0
 11
41.490622
 21
34.877866
 31
0.0
 11
41.605110
 21
34.408783
 31
0.0
 11
41.712407
 21
34.135497
 31
0.0
 11
41.737847
 21
33.849096
 31
0.0
 11
41.622111
 21
33.343038
 31
0.0
 11
41.382691
 21
32.693822
 31
0.0
 11
40.840209
 21
30.860710
 31
0.0
 11
40.942046
 21
29.303284
 31
0.0
 11
41.762151
 21
28.003751
 31
0.0
 11
42.117222
 21
27.487790
 31
0.0
 11
42.082828
 21
27.096831
 31
0.0
 11
41.668973
 21
26.944624
 31
0.0
 11
41.379401
 21
27.024651
 31
0.0
 11
40.952506
 21
27.232037
 31
0.0
 11
40.480708
 21
27.521710
 31
0.0
 11
39.925537
 21
27.878255
 31
0.0
 11
39.718812
 21
27.911328
 31
0.0
 11
39.738022
 21
27.640529
 31
0.0
 11
39.648609
 21
27.204822
 31
0.0
 11
39.187303
 21
27.321114
 31
0.0
 11
38.543640
 21
27.941635
 31
0.0
 11
38.195341
 21
28.347071
 31
0.0
 11
38.007079
 21
28.457834
 31
0.0
 11
37.950603
 21
28.290546
 31
0.0
 11
37.910624
 21
28.067361
 31
0.0
 11
37.778566
 21
27.987429
 31
0.0
 11
37.536250
 21
28.039740
 31
0.0
 11
37.383428
 21
27.955541
 31
0.0
 11
37.605776
 21
27.363788
 31
0.0
 11
38.256961
 21
26.121651
 31
0.0
 11
39.106154
 21
24.978221
 31
0.0
 11
39.016068
 21
25.622803
 31
0.0
 11
38.858947
 21
25.341469
 31
0.0
 11
38.820184
 21
23.759917
 31
0.0
 11
38.534582
 21
22.634667
 31
0.0
 11
38.063167
 21
22.206154
 31
0.0
 11
37.823585
 21
22.275043
 31
0.0
 11
37.703234
 21
22.526085
 31
0.0
 11
37.670208
 21
23.025841
 31
0.0
  0
LINE
  5
112
100
AcDbEntity
  8
Layer_1
 62
7
100
AcDbLine
 10
38.176957
 20
24.759454
 30
0.0
 11
38.176957
 21
24.759454
 31
0.0
  0
SPLINE
  5
113
100
AcDbEntity
  8
Layer_1
 62
7
100
AcDbSpline
 70
0
 71
3
 72
34
 73
30
 74
28
 40
0.000000
 40
0.000000
 40
0.000000
 40
0.000000
 40
0.483827
 40
0.784391
 40
3.502030
 40
11.463448
 40
20.426037
 40
26.310465
 40
27.597245
 40
28.191144
 40
28.889073
 40
29.210871
 40
29.596219
 40
30.294545
 40
34.380932
 40
39.778931
 40
44.117828
 40
45.562192
 40
47.810389
 40
50.377214
 40
54.271731
 40
57.132901
 40
58.804788
 40
59.042065
 40
59.115675
 40
59.461803
 40
59.600132
 40
59.644315
 40
60.203375
 40
60.203375
 40
60.203375
 40
60.203375
 10
38.176957
 20
24.759454
 30
0.0
 10
38.176504
 20
24.990027
 30
0.0
 10
38.175770
 20
25.363838
 30
0.0
 10
36.927702
 20
24.451465
 30
0.0
 10
35.735913
 20
30.494809
 30
0.0
 10
33.252127
 20
34.505174
 30
0.0
 10
32.293908
 20
42.779778
 30
0.0
 10
31.361529
 20
48.078362
 30
0.0
 10
31.724052
 20
50.607856
 30
0.0
 10
31.399823
 20
51.531743
 30
0.0
 10
30.778759
 20
51.521876
 30
0.0
 10
30.291444
 20
51.455843
 30
0.0
 10
30.071289
 20
50.986194
 30
0.0
 10
29.713444
 20
49.344584
 30
0.0
 10
29.559396
 20
45.876488
 30
0.0
 10
29.754985
 20
41.334795
 30
0.0
 10
30.309564
 20
37.530915
 30
0.0
 10
31.737162
 20
35.248446
 30
0.0
 10
32.835591
 20
33.481502
 30
0.0
 10
34.437408
 20
31.044037
 30
0.0
 10
36.196066
 20
28.555678
 30
0.0
 10
37.367375
 20
25.770617
 30
0.0
 10
38.229898
 20
24.790195
 30
0.0
 10
38.050228
 20
23.715710
 30
0.0
 10
38.281353
 20
23.866605
 30
0.0
 10
38.178199
 20
24.026147
 30
0.0
 10
38.424238
 20
24.269387
 30
0.0
 10
38.140610
 20
24.113982
 30
0.0
 10
38.159474
 20
24.448987
 30
0.0
 10
38.176957
 20
24.759454
 30
0.0
 11
38.176957
 21
24.759454
 31
0.0
 11
38.069521
 21
25.231202
 31
0.0
 11
37.796527
 21
25.105450
 31
0.0
 11
36.292716
 21
27.369101
 31
0.0
 11
33.694990
 21
34.894789
 31
0.0
 11
32.079220
 21
43.710531
 31
0.0
 11
31.600299
 21
49.575437
 31
0.0
 11
31.604593
 21
50.862210
 31
0.0
 11
31.342147
 21
51.394975
 31
0.0
 11
30.652172
 21
51.500048
 31
0.0
 11
30.341335
 21
51.416778
 31
0.0
 11
30.132294
 21
51.093057
 31
0.0
 11
29.953461
 21
50.418018
 31
0.0
 11
29.630786
 21
46.344391
 31
0.0
 11
29.876056
 21
40.951967
 31
0.0
 11
30.870297
 21
36.728519
 31
0.0
 11
31.593000
 21
35.477964
 31
0.0
 11
32.788526
 21
33.573993
 31
0.0
 11
34.198049
 21
31.428804
 31
0.0
 11
36.279509
 21
28.137180
 31
0.0
 11
37.608199
 21
25.603235
 31
0.0
 11
38.091896
 21
24.002847
 31
0.0
 11
38.115513
 21
23.766747
 31
0.0
 11
38.178559
 21
23.804743
 31
0.0
 11
38.300596
 21
24.128643
 31
0.0
 11
38.379162
 21
24.242495
 31
0.0
 11
38.338873
 21
24.224356
 31
0.0
 11
38.176957
 21
24.759454
 31
0.0
  0
LINE
  5
114
100
AcDbEntity
  8
Layer_1
 62
7
100
AcDbLine
 10
29.648560
 20
25.475419
 30
0.0
 11
29.648560
 21
25.475419
 31
0.0
  0
SPLINE
  5
115
100
AcDbEntity
  8
Layer_1
 62
7
100
AcDbSpline
 70
0
 71
3
 72
31
 73
27
 74
25
 40
0.000000
 40
0.000000
 40
0.000000
 40
0.000000
 40
0.196227
 40
0.632388
 40
1.225283
 40
3.041576
 40
4.987734
 40
7.191175
 40
12.233630
 40
17.250676
 40
22.899982
 40
23.245171
 40
23.535099
 40
23.999954
 40
24.653664
 40
25.548268
 40
27.620374
 40
32.898179
 40
38.873680
 40
45.689146
 40
47.078478
 40
47.961995
 40
48.384634
 40
50.136301
 40
52.959643
 40
54.526751
 40
54.526751
 40
54.526751
 40
54.526751
 10
29.648560
 20
25.475419
 30
0.0
 10
29.637160
 20
25.540300
 30
0.0
 10
29.600419
 20
25.749391
 30
0.0
 10
29.358839
 20
26.091959
 30
0.0
 10
28.820225
 20
26.863964
 30
0.0
 10
27.969985
 20
28.049482
 30
0.0
 10
27.044255
 20
29.813045
 30
0.0
 10
25.811075
 20
32.619078
 30
0.0
 10
24.622039
 20
36.557223
 30
0.0
 10
24.432545
 20
41.893130
 30
0.0
 10
25.077987
 20
45.380399
 30
0.0
 10
25.597667
 20
47.535255
 30
0.0
 10
25.348720
 20
47.851178
 30
0.0
 10
24.923682
 20
48.023796
 30
0.0
 10
24.181930
 20
48.239326
 30
0.0
 10
23.500109
 20
46.984816
 30
0.0
 10
22.396844
 20
44.668577
 30
0.0
 10
21.147838
 20
40.213629
 30
0.0
 10
21.195192
 20
34.185377
 30
0.0
 10
22.025268
 20
29.496906
 30
0.0
 10
22.879896
 20
26.590263
 30
0.0
 10
23.138688
 20
25.730453
 30
0.0
 10
23.782448
 20
24.873299
 30
0.0
 10
25.742410
 20
25.445219
 30
0.0
 10
27.657944
 20
25.207123
 30
0.0
 10
29.124938
 20
25.404845
 30
0.0
 10
29.648560
 20
25.475419
 30
0.0
 11
29.648560
 21
25.475419
 31
0.0
 11
29.605891
 21
25.666951
 31
0.0
 11
29.391195
 21
26.046612
 31
0.0
 11
29.050946
 21
26.532157
 31
0.0
 11
28.030451
 21
28.034658
 31
0.0
 11
27.103357
 21
29.745808
 31
0.0
 11
26.216872
 21
31.763057
 31
0.0
 11
24.834165
 21
36.612229
 31
0.0
 11
24.606960
 21
41.624128
 31
0.0
 11
25.517081
 21
47.199640
 31
0.0
 11
25.544262
 21
47.543758
 31
0.0
 11
25.379908
 21
47.782600
 31
0.0
 11
24.967790
 21
47.997658
 31
0.0
 11
24.320402
 21
48.088350
 31
0.0
 11
23.736569
 21
47.410519
 31
0.0
 11
22.849242
 21
45.538014
 31
0.0
 11
21.451733
 21
40.448594
 31
0.0
 11
21.349084
 21
34.473975
 31
0.0
 11
22.543871
 21
27.764052
 31
0.0
 11
22.929137
 21
26.429206
 31
0.0
 11
23.251377
 21
25.606550
 31
0.0
 11
23.517572
 21
25.278276
 31
0.0
 11
25.268263
 21
25.219830
 31
0.0
 11
28.090147
 21
25.310571
 31
0.0
 11
29.648560
 21
25.475419
 31
0.0
  0
LINE
  5
116
100
AcDbEntity
  8
Layer_1
 62
7
100
AcDbLine
 10
22.222167
 20
48.347148
 30
0.0
 11
22.945516
 21
49.476239
 31
0.0
  0
LINE
  5
117
100
AcDbEntity
  8
Layer_1
 62
7
100
AcDbLine
 10
22.945516
 20
49.476239
 30
0.0
 11
22.407319
 21
49.637199
 31
0.0
  0
SPLINE
  5
118
100
AcDbEntity
  8
Layer_1
 62
7
100
AcDbSpline
 70
0
 71
3
 72
13
 73
9
 74
7
 40
0.000000
 40
0.000000
 40
0.000000
 40
0.000000
 40
4.334502
 40
8.669071
 40
12.683159
 40
16.019266
 40
18.871499
 40
21.549884
 40
21.549884
 40
21.549884
 40
21.549884
 10
20.992830
 20
27.381507
 30
0.0
 10
20.648131
 20
28.786120
 30
0.0
 10
19.958727
 20
31.595369
 30
0.0
 10
19.533177
 20
35.815033
 30
0.0
 10
19.579993
 20
39.720307
 30
0.0
 10
20.064154
 20
43.091239
 30
0.0
 10
20.863306
 20
45.961473
 30
0.0
 10
21.778805
 20
47.568764
 30
0.0
 10
22.222167
 20
48.347148
 30
0.0
 11
20.992830
 21
27.381507
 31
0.0
 11
20.058365
 21
31.614081
 31
0.0
 11
19.606950
 21
35.925079
 31
0.0
 11
19.677957
 21
39.938539
 31
0.0
 11
20.163864
 21
43.239070
 31
0.0
 11
20.989889
 21
45.969073
 31
0.0
 11
22.222167
 21
48.347148
 31
0.0
  0
LINE
  5
119
100
AcDbEntity
  8
Layer_1
 62
7
100
AcDbLine
 10
20.992830
 20
27.381507
 30
0.0
 11
20.992830
 21
27.381507
 31
0.0
  0
SPLINE
  5
11a
100
AcDbEntity
  8
Layer_1
 62
7
100
AcDbSpline
 70
0
 71
3
 72
22
 73
18
 74
16
 40
0.000000
 40
0.000000
 40
0.000000
 40
0.000000
 40
0.856146
 40
2.180049
 40
4.284471
 40
10.003811
 40
15.877940
 40
22.163341
 40
23.645167
 40
24.753166
 40
26.353756
 40
27.759198
 40
29.490121
 40
30.604193
 40
30.839212
 40
31.482256
 40
32.400479
 40
32.400479
 40
32.400479
 40
32.400479
 10
22.407319
 20
49.637199
 30
0.0
 10
22.113417
 20
49.635660
 30
0.0
 10
21.365038
 20
49.631743
 30
0.0
 10
20.278167
 20
48.557432
 30
0.0
 10
18.305359
 20
46.312966
 30
0.0
 10
15.975153
 20
42.260890
 30
0.0
 10
14.575058
 20
36.377310
 30
0.0
 10
14.818333
 20
31.842785
 30
0.0
 10
15.165470
 20
28.845739
 30
0.0
 10
16.050420
 20
27.685015
 30
0.0
 10
17.283213
 20
27.089137
 30
0.0
 10
18.799925
 20
26.388181
 30
0.0
 10
19.870617
 20
26.246723
 30
0.0
 10
21.396957
 20
25.265939
 30
0.0
 10
21.353161
 20
26.024295
 30
0.0
 10
21.206448
 20
26.572053
 30
0.0
 10
21.071939
 20
27.081744
 30
0.0
 10
20.992830
 20
27.381507
 30
0.0
 11
22.407319
 21
49.637199
 31
0.0
 11
21.555741
 21
49.548881
 31
0.0
 11
20.495601
 21
48.755897
 31
0.0
 11
19.110743
 21
47.171359
 31
0.0
 11
16.260509
 21
42.212829
 31
0.0
 11
14.880094
 21
36.503202
 31
0.0
 11
15.012231
 21
30.219190
 31
0.0
 11
15.325984
 21
28.770961
 31
0.0
 11
15.986492
 21
27.881359
 31
0.0
 11
17.359188
 21
27.058199
 31
0.0
 11
18.652704
 21
26.508579
 31
0.0
 11
20.282604
 21
25.925895
 31
0.0
 11
21.356442
 21
25.629195
 31
0.0
 11
21.358376
 21
25.864206
 31
0.0
 11
21.227737
 21
26.493840
 31
0.0
 11
20.992830
 21
27.381507
 31
0.0
  0
LINE
  5
11b
100
AcDbEntity
  8
Layer_1
 62
7
100
AcDbLine
 10
30.544529
 20
27.535822
 30
0.0
 11
31.697441
 21
26.102879
 31
0.0
  0
LINE
  5
11c
100
AcDbEntity
  8
Layer_1
 62
7
100
AcDbLine
 10
31.697441
 20
26.102879
 30
0.0
 11
33.601028
 21
26.102879
 31
0.0
  0
LINE
  5
11d
100
AcDbEntity
  8
Layer_1
 62
7
100
AcDbLine
 10
33.601028
 20
26.102879
 30
0.0
 11
34.495737
 21
26.086898
 31
0.0
  0
LINE
  5
11e
100
AcDbEntity
  8
Layer_1
 62
7
100
AcDbLine
 10
34.495737
 20
26.086898
 30
0.0
 11
34.780265
 21
25.578655
 31
0.0
  0
SPLINE
  5
11f
100
AcDbEntity
  8
Layer_1
 62
7
100
AcDbSpline
 70
0
 71
3
 72
25
 73
21
 74
19
 40
0.000000
 40
0.000000
 40
0.000000
 40
0.000000
 40
3.875837
 40
7.329427
 40
10.300272
 40
13.301489
 40
15.943243
 40
19.186683
 40
21.443359
 40
22.452932
 40
22.860433
 40
23.362119
 40
23.703965
 40
24.429498
 40
25.286618
 40
26.586499
 40
28.296447
 40
33.942632
 40
39.125153
 40
43.951325
 40
43.951325
 40
43.951325
 40
43.951325
 10
34.780265
 20
25.578655
 30
0.0
 10
34.027537
 20
26.632067
 30
0.0
 10
32.604085
 20
28.624128
 30
0.0
 10
31.141301
 20
31.744284
 30
0.0
 10
29.920345
 20
34.634061
 30
0.0
 10
28.799509
 20
37.288103
 30
0.0
 10
28.208735
 20
40.207024
 30
0.0
 10
28.188601
 20
42.950528
 30
0.0
 10
28.072870
 20
45.060757
 30
0.0
 10
28.141998
 20
46.368706
 30
0.0
 10
27.738634
 20
46.876179
 30
0.0
 10
27.294383
 20
47.087146
 30
0.0
 10
26.839455
 20
46.728017
 30
0.0
 10
26.684218
 20
46.086769
 30
0.0
 10
26.451369
 20
45.160794
 30
0.0
 10
26.349738
 20
43.868276
 30
0.0
 10
26.186367
 20
40.991134
 30
0.0
 10
26.439223
 20
36.799551
 30
0.0
 10
27.780047
 20
31.671598
 30
0.0
 10
29.645171
 20
28.881299
 30
0.0
 10
30.544529
 20
27.535822
 30
0.0
 11
34.780265
 21
25.578655
 31
0.0
 11
32.629060
 21
28.802694
 31
0.0
 11
31.095912
 21
31.897324
 31
0.0
 11
29.923415
 21
34.627008
 31
0.0
 11
28.854318
 21
37.431350
 31
0.0
 11
28.324638
 21
40.019458
 31
0.0
 11
28.156887
 21
43.258557
 31
0.0
 11
28.107756
 21
45.514698
 31
0.0
 11
27.988590
 21
46.517214
 31
0.0
 11
27.731971
 21
46.833764
 31
0.0
 11
27.257068
 21
46.995492
 31
0.0
 11
26.973611
 21
46.804414
 31
0.0
 11
26.694794
 21
46.134594
 31
0.0
 11
26.505696
 21
45.298594
 31
0.0
 11
26.364674
 21
44.006385
 31
0.0
 11
26.276176
 21
42.298728
 31
0.0
 11
26.641353
 21
36.664365
 31
0.0
 11
28.080802
 21
31.685760
 31
0.0
 11
30.544529
 21
27.535822
 31
0.0
  0
LINE
  5
120
100
AcDbEntity
  8
Layer_1
 62
7
100
AcDbLine
 10
9.636803
 20
38.543362
 30
0.0
 11
9.370063
 21
37.004691
 31
0.0
  0
LINE
  5
121
100
AcDbEntity
  8
Layer_1
 62
7
100
AcDbLine
 10
9.370063
 20
37.004691
 30
0.0
 11
10.343431
 21
34.780773
 31
0.0
  0
SPLINE
  5
122
100
AcDbEntity
  8
Layer_1
 62
7
100
AcDbSpline
 70
0
 71
3
 72
22
 73
18
 74
16
 40
0.000000
 40
0.000000
 40
0.000000
 40
0.000000
 40
3.912414
 40
6.729856
 40
9.860828
 40
12.610757
 40
15.329497
 40
17.805561
 40
19.143863
 40
19.590486
 40
21.591752
 40
24.407102
 40
27.557165
 40
30.689957
 40
32.631077
 40
34.734569
 40
36.695750
 40
36.695750
 40
36.695750
 40
36.695750
 10
13.451179
 20
33.714042
 30
0.0
 10
13.447652
 20
35.019783
 30
0.0
 10
13.441586
 20
37.265826
 30
0.0
 10
13.962303
 20
40.529060
 30
0.0
 10
15.019160
 20
43.255926
 30
0.0
 10
16.232232
 20
45.809992
 30
0.0
 10
17.981948
 20
48.049073
 30
0.0
 10
18.921726
 20
49.398543
 30
0.0
 10
21.109109
 20
50.612425
 30
0.0
 10
19.586458
 20
50.997489
 30
0.0
 10
18.118898
 20
49.974882
 30
0.0
 10
15.684115
 20
48.886573
 30
0.0
 10
13.477086
 20
46.738755
 30
0.0
 10
11.789365
 20
44.561377
 30
0.0
 10
10.769972
 20
42.387316
 30
0.0
 10
10.072044
 20
40.506557
 30
0.0
 10
9.778457
 20
39.182306
 30
0.0
 10
9.636803
 20
38.543362
 30
0.0
 11
13.451179
 21
33.714042
 31
0.0
 11
13.562758
 21
37.624864
 31
0.0
 11
14.037417
 21
40.402035
 31
0.0
 11
15.098062
 21
43.347883
 31
0.0
 11
16.346115
 21
45.798285
 31
0.0
 11
17.926704
 21
48.010363
 31
0.0
 11
19.679298
 21
49.759449
 31
0.0
 11
20.648201
 21
50.682640
 31
0.0
 11
20.221721
 21
50.815259
 31
0.0
 11
18.323616
 21
50.181018
 31
0.0
 11
15.870173
 21
48.800141
 31
0.0
 11
13.531900
 21
46.689367
 31
0.0
 11
11.667040
 21
44.172090
 31
0.0
 11
10.817086
 21
42.426947
 31
0.0
 11
10.103381
 21
40.448234
 31
0.0
 11
9.636803
 21
38.543362
 31
0.0
  0
LINE
  5
123
100
AcDbEntity
  8
Layer_1
 62
7
100
AcDbLine
 10
13.451081
 20
33.714042
 30
0.0
 11
13.451179
 21
33.714042
 31
0.0
  0
SPLINE
  5
124
100
AcDbEntity
  8
Layer_1
 62
7
100
AcDbSpline
 70
0
 71
3
 72
16
 73
12
 74
10
 40
0.000000
 40
0.000000
 40
0.000000
 40
0.000000
 40
1.472793
 40
3.003788
 40
4.265864
 40
5.200551
 40
5.867969
 40
6.123632
 40
6.697778
 40
8.205527
 40
10.320872
 40
10.320872
 40
10.320872
 40
10.320872
 10
10.343431
 20
34.780773
 30
0.0
 10
10.550869
 20
34.336183
 30
0.0
 10
10.973944
 20
33.429434
 30
0.0
 10
11.657412
 20
32.174333
 30
0.0
 10
12.306751
 20
31.134931
 30
0.0
 10
12.878894
 20
30.316540
 30
0.0
 10
13.204813
 20
29.898918
 30
0.0
 10
13.544311
 20
29.315102
 30
0.0
 10
13.354173
 20
30.703936
 30
0.0
 10
13.496433
 20
31.652336
 30
0.0
 10
13.467799
 20
32.954041
 30
0.0
 10
13.451081
 20
33.714042
 30
0.0
 11
10.343431
 21
34.780773
 31
0.0
 11
10.979735
 21
33.452527
 31
0.0
 11
11.712223
 21
32.108129
 31
0.0
 11
12.382318
 21
31.038639
 31
0.0
 11
12.919020
 21
30.273401
 31
0.0
 11
13.301813
 21
29.726668
 31
0.0
 11
13.447827
 21
29.516803
 31
0.0
 11
13.448359
 21
30.090949
 31
0.0
 11
13.449614
 21
31.598697
 31
0.0
 11
13.451081
 21
33.714042
 31
0.0
  0
LINE
  5
125
100
AcDbEntity
  8
Layer_1
 62
7
100
AcDbLine
 10
38.294424
 20
29.465310
 30
0.0
 11
38.655543
 21
28.808632
 31
0.0
  0
LINE
  5
126
100
AcDbEntity
  8
Layer_1
 62
7
100
AcDbLine
 10
38.655543
 20
28.808632
 30
0.0
 11
38.771936
 21
29.396023
 31
0.0
  0
SPLINE
  5
127
100
AcDbEntity
  8
Layer_1
 62
7
100
AcDbSpline
 70
0
 71
3
 72
25
 73
21
 74
19
 40
0.000000
 40
0.000000
 40
0.000000
 40
0.000000
 40
0.300451
 40
0.739569
 40
1.225996
 40
1.397400
 40
1.901809
 40
2.266335
 40
2.520972
 40
2.816974
 40
3.103012
 40
3.372707
 40
3.495750
 40
3.667260
 40
3.892283
 40
4.171210
 40
4.446261
 40
4.656173
 40
5.140410
 40
5.373492
 40
5.373492
 40
5.373492
 40
5.373492
 10
40.651277
 20
28.463838
 30
0.0
 10
40.607012
 20
28.554006
 30
0.0
 10
40.498055
 20
28.775957
 30
0.0
 10
40.329561
 20
29.139875
 30
0.0
 10
40.397237
 20
29.589672
 30
0.0
 10
39.948541
 20
29.747864
 30
0.0
 10
39.937058
 20
29.246652
 30
0.0
 10
39.663334
 20
28.879813
 30
0.0
 10
39.362360
 20
29.070135
 30
0.0
 10
39.143925
 20
29.221229
 30
0.0
 10
38.944107
 20
29.433916
 30
0.0
 10
38.848243
 20
29.640762
 30
0.0
 10
38.629329
 20
29.715889
 30
0.0
 10
38.568087
 20
29.504271
 30
0.0
 10
38.475275
 20
29.311334
 30
0.0
 10
38.332316
 20
29.122356
 30
0.0
 10
38.198044
 20
28.782471
 30
0.0
 10
37.914316
 20
29.090303
 30
0.0
 10
37.946701
 20
29.575674
 30
0.0
 10
38.209146
 20
29.492376
 30
0.0
 10
38.294424
 20
29.465310
 30
0.0
 11
40.651277
 21
28.463838
 31
0.0
 11
40.519692
 21
28.733942
 31
0.0
 11
40.377549
 21
29.149417
 31
0.0
 11
40.255621
 21
29.620316
 31
0.0
 11
40.093404
 21
29.675678
 31
0.0
 11
39.867413
 21
29.224728
 31
0.0
 11
39.618266
 21
28.958635
 31
0.0
 11
39.383947
 21
29.058309
 31
0.0
 11
39.145309
 21
29.233434
 31
0.0
 11
38.954019
 21
29.446098
 31
0.0
 11
38.781834
 21
29.653674
 31
0.0
 11
38.662016
 21
29.681658
 31
0.0
 11
38.572945
 21
29.535091
 31
0.0
 11
38.478048
 21
29.331056
 31
0.0
 11
38.332692
 21
29.092998
 31
0.0
 11
38.168347
 21
28.872445
 31
0.0
 11
38.015423
 21
29.016240
 31
0.0
 11
38.063655
 21
29.498069
 31
0.0
 11
38.294424
 21
29.465310
 31
0.0
  0
LINE
  5
128
100
AcDbEntity
  8
Layer_1
 62
7
100
AcDbLine
 10
40.651300
 20
28.463822
 30
0.0
 11
40.651277
 21
28.463838
 31
0.0
  0
SPLINE
  5
129
100
AcDbEntity
  8
Layer_1
 62
7
100
AcDbSpline
 70
0
 71
3
 72
16
 73
12
 74
10
 40
0.000000
 40
0.000000
 40
0.000000
 40
0.000000
 40
0.264322
 40
0.930202
 40
1.630048
 40
1.819914
 40
2.293536
 40
2.587702
 40
3.293412
 40
3.559061
 40
3.908211
 40
3.908211
 40
3.908211
 40
3.908211
 10
38.771936
 20
29.396023
 30
0.0
 10
38.859466
 20
29.439502
 30
0.0
 10
39.167501
 20
29.592514
 30
0.0
 10
39.403881
 20
28.978175
 30
0.0
 10
39.422563
 20
28.006092
 30
0.0
 10
39.674734
 20
28.500643
 30
0.0
 10
39.728031
 20
28.845495
 30
0.0
 10
40.336277
 20
28.887154
 30
0.0
 10
40.400516
 20
28.439549
 30
0.0
 10
40.927984
 20
28.047400
 30
0.0
 10
40.751517
 20
28.312991
 30
0.0
 10
40.651300
 20
28.463822
 30
0.0
 11
38.771936
 21
29.396023
 31
0.0
 11
39.020545
 21
29.485798
 31
0.0
 11
39.355774
 21
28.910456
 31
0.0
 11
39.523900
 21
28.231105
 31
0.0
 11
39.615223
 21
28.397566
 31
0.0
 11
39.842360
 21
28.813170
 31
0.0
 11
40.135064
 21
28.842462
 31
0.0
 11
40.601627
 21
28.312986
 31
0.0
 11
40.815834
 21
28.155871
 31
0.0
 11
40.651300
 21
28.463822
 31
0.0
  0
SPLINE
  5
12a
100
AcDbEntity
  8
Layer_1
 62
7
100
AcDbSpline
 70
0
 71
3
 72
10
 73
6
 74
4
 40
0.000000
 40
0.000000
 40
0.000000
 40
0.000000
 40
0.384056
 40
0.828881
 40
1.718463
 40
1.718463
 40
1.718463
 40
1.718463
 10
37.165060
 20
28.410540
 30
0.0
 10
37.246280
 20
28.522763
 30
0.0
 10
37.421569
 20
28.764965
 30
0.0
 10
37.070416
 20
29.343212
 30
0.0
 10
36.630300
 20
29.457220
 30
0.0
 10
36.336896
 20
29.533223
 30
0.0
 11
37.165060
 21
28.410540
 31
0.0
 11
37.334723
 21
28.755089
 31
0.0
 11
37.142692
 21
29.156328
 31
0.0
 11
36.336896
 21
29.533223
 31
0.0
  0
LINE
  5
12b
100
AcDbEntity
  8
Layer_1
 62
7
100
AcDbLine
 10
37.165060
 20
28.410540
 30
0.0
 11
37.165060
 21
28.410540
 31
0.0
  0
SPLINE
  5
12c
100
AcDbEntity
  8
Layer_1
 62
7
100
AcDbSpline
 70
0
 71
3
 72
16
 73
12
 74
10
 40
0.000000
 40
0.000000
 40
0.000000
 40
0.000000
 40
1.453237
 40
3.436739
 40
4.416712
 40
5.609771
 40
7.716767
 40
8.884853
 40
9.287290
 40
9.959484
 40
10.218892
 40
10.218892
 40
10.218892
 40
10.218892
 10
36.336896
 20
29.533223
 30
0.0
 10
36.173723
 20
30.010935
 30
0.0
 10
35.787838
 20
31.140670
 30
0.0
 10
35.736550
 20
32.274505
 30
0.0
 10
35.438315
 20
34.455562
 30
0.0
 10
35.908696
 20
32.031832
 30
0.0
 10
36.182546
 20
31.017797
 30
0.0
 10
36.925492
 20
29.870477
 30
0.0
 10
36.928821
 20
29.146869
 30
0.0
 10
36.781075
 20
28.592852
 30
0.0
 10
37.081426
 20
28.450249
 30
0.0
 10
37.165060
 20
28.410540
 30
0.0
 11
36.336896
 21
29.533223
 31
0.0
 11
35.909240
 21
30.922110
 31
0.0
 11
35.645057
 21
32.887940
 31
0.0
 11
35.533883
 21
33.861587
 31
0.0
 11
35.787285
 21
32.695750
 31
0.0
 11
36.430859
 21
30.689448
 31
0.0
 11
36.905949
 21
29.622343
 31
0.0
 11
36.911506
 21
29.219943
 31
0.0
 11
36.945446
 21
28.548607
 31
0.0
 11
37.165060
 21
28.410540
 31
0.0
  0
SPLINE
  5
12d
100
AcDbEntity
  8
Layer_1
 62
7
100
AcDbSpline
 70
0
 71
3
 72
13
 73
9
 74
7
 40
0.000000
 40
0.000000
 40
0.000000
 40
0.000000
 40
0.440031
 40
0.946470
 40
1.375651
 40
1.813826
 40
2.974758
 40
4.030415
 40
4.030415
 40
4.030415
 40
4.030415
 10
38.019109
 20
30.574528
 30
0.0
 10
38.116795
 20
30.684487
 30
0.0
 10
38.326911
 20
30.921002
 30
0.0
 10
38.848806
 20
31.039444
 30
0.0
 10
39.218976
 20
30.547330
 30
0.0
 10
39.747580
 20
31.260477
 30
0.0
 10
39.932930
 20
32.028255
 30
0.0
 10
40.143369
 20
32.752250
 30
0.0
 10
40.243591
 20
33.097055
 30
0.0
 11
38.019109
 21
30.574528
 31
0.0
 11
38.344365
 21
30.870899
 31
0.0
 11
38.847981
 21
30.924296
 31
0.0
 11
39.214676
 21
30.701292
 31
0.0
 11
39.536310
 21
30.998864
 31
0.0
 11
39.955554
 21
32.081453
 31
0.0
 11
40.243591
 21
33.097055
 31
0.0
  0
SPLINE
  5
12e
100
AcDbEntity
  8
Layer_1
 62
7
100
AcDbSpline
 70
0
 71
3
 72
13
 73
9
 74
7
 40
0.000000
 40
0.000000
 40
0.000000
 40
0.000000
 40
0.334836
 40
0.609287
 40
0.887048
 40
1.149182
 40
1.622874
 40
2.663501
 40
2.663501
 40
2.663501
 40
2.663501
 10
40.243591
 20
33.097055
 30
0.0
 10
40.354514
 20
33.105669
 30
0.0
 10
40.556357
 20
33.121345
 30
0.0
 10
40.850278
 20
33.198024
 30
0.0
 10
41.060958
 20
33.358678
 30
0.0
 10
41.206824
 20
33.797492
 30
0.0
 10
40.337463
 20
33.473142
 30
0.0
 10
39.914912
 20
33.430457
 30
0.0
 10
39.624540
 20
33.401124
 30
0.0
 11
40.243591
 21
33.097055
 31
0.0
 11
40.576375
 21
33.134071
 31
0.0
 11
40.839274
 21
33.212856
 31
0.0
 11
41.048596
 21
33.395436
 31
0.0
 11
41.117239
 21
33.648423
 31
0.0
 11
40.646077
 21
33.599532
 31
0.0
 11
39.624540
 21
33.401124
 31
0.0
  0
LINE
  5
12f
100
AcDbEntity
  8
Layer_1
 62
7
100
AcDbLine
 10
39.639216
 20
57.446375
 30
0.0
 11
40.179551
 21
58.043031
 31
0.0
  0
LINE
  5
130
100
AcDbEntity
  8
Layer_1
 62
7
100
AcDbLine
 10
40.179551
 20
58.043031
 30
0.0
 11
39.414392
 21
58.294756
 31
0.0
  0
SPLINE
  5
131
100
AcDbEntity
  8
Layer_1
 62
7
100
AcDbSpline
 70
0
 71
3
 72
88
 73
84
 74
82
 40
0.000000
 40
0.000000
 40
0.000000
 40
0.000000
 40
0.731015
 40
0.990292
 40
1.605012
 40
2.302233
 40
3.403351
 40
4.388324
 40
8.108027
 40
14.358392
 40
17.828561
 40
18.601092
 40
19.466927
 40
19.955047
 40
20.052024
 40
20.211977
 40
20.426088
 40
21.077593
 40
22.018187
 40
22.978282
 40
23.373687
 40
23.654634
 40
23.966736
 40
24.258126
 40
24.280243
 40
24.595555
 40
24.954857
 40
25.333182
 40
25.933050
 40
26.610244
 40
27.059209
 40
27.806818
 40
28.820048
 40
29.363920
 40
30.233601
 40
31.253880
 40
32.103476
 40
32.629325
 40
32.784011
 40
32.994091
 40
33.259658
 40
33.509812
 40
33.708683
 40
34.344290
 40
35.326710
 40
36.036973
 40
36.489181
 40
36.613060
 40
36.740816
 40
36.879065
 40
37.123124
 40
37.531389
 40
38.023970
 40
38.520872
 40
38.941378
 40
39.204520
 40
39.989804
 40
41.001391
 40
41.651131
 40
41.842120
 40
42.023344
 40
42.520419
 40
43.010260
 40
43.449009
 40
43.820453
 40
44.510818
 40
45.397346
 40
46.282997
 40
46.794824
 40
47.590675
 40
48.870738
 40
49.402733
 40
49.784112
 40
50.123707
 40
50.467995
 40
50.745171
 40
51.216452
 40
51.659305
 40
52.001013
 40
52.409916
 40
53.017421
 40
53.526315
 40
54.385278
 40
54.385278
 40
54.385278
 40
54.385278
 10
39.624540
 20
33.401124
 30
0.0
 10
39.378598
 20
33.271361
 30
0.0
 10
39.045425
 20
33.095572
 30
0.0
 10
38.581639
 20
33.478491
 30
0.0
 10
38.749604
 20
34.070124
 30
0.0
 10
38.349619
 20
34.792040
 30
0.0
 10
38.002808
 20
35.646849
 30
0.0
 10
36.865602
 20
37.244588
 30
0.0
 10
36.643026
 20
41.054223
 30
0.0
 10
35.771410
 20
45.383004
 30
0.0
 10
35.094540
 20
48.823457
 30
0.0
 10
34.952626
 20
50.529426
 30
0.0
 10
35.083509
 20
51.231085
 30
0.0
 10
35.323972
 20
51.680268
 30
0.0
 10
35.551169
 20
51.805109
 30
0.0
 10
35.580021
 20
51.976491
 30
0.0
 10
35.556376
 20
52.313186
 30
0.0
 10
35.935440
 20
52.862964
 30
0.0
 10
36.685334
 20
53.273905
 30
0.0
 10
37.437565
 20
53.464078
 30
0.0
 10
37.994863
 20
53.448308
 30
0.0
 10
38.289939
 20
53.246878
 30
0.0
 10
38.407259
 20
53.028587
 30
0.0
 10
38.350634
 20
52.618561
 30
0.0
 10
38.540259
 20
52.740402
 30
0.0
 10
38.401560
 20
53.031138
 30
0.0
 10
38.399126
 20
53.372101
 30
0.0
 10
37.987691
 20
53.652126
 30
0.0
 10
37.480379
 20
53.811509
 30
0.0
 10
36.879167
 20
53.917646
 30
0.0
 10
36.480233
 20
54.452117
 30
0.0
 10
36.446565
 20
55.195773
 30
0.0
 10
36.437476
 20
56.019447
 30
0.0
 10
35.676485
 20
56.571184
 30
0.0
 10
34.913179
 20
56.026314
 30
0.0
 10
34.058240
 20
55.729637
 30
0.0
 10
33.323867
 20
55.602299
 30
0.0
 10
32.673466
 20
55.739018
 30
0.0
 10
32.671755
 20
56.067847
 30
0.0
 10
32.828290
 20
56.235111
 30
0.0
 10
32.992501
 20
56.346680
 30
0.0
 10
33.349083
 20
56.500928
 30
0.0
 10
32.840751
 20
56.631507
 30
0.0
 10
32.346872
 20
56.566630
 30
0.0
 10
31.514505
 20
56.670157
 30
0.0
 10
30.845636
 20
56.857203
 30
0.0
 10
30.501040
 20
57.241643
 30
0.0
 10
30.568941
 20
57.479578
 30
0.0
 10
30.673220
 20
57.571540
 30
0.0
 10
30.846780
 20
57.587059
 30
0.0
 10
31.092870
 20
57.687412
 30
0.0
 10
31.410700
 20
57.902112
 30
0.0
 10
31.769343
 20
58.198496
 30
0.0
 10
32.134784
 20
58.497113
 30
0.0
 10
32.463769
 20
58.707307
 30
0.0
 10
32.937538
 20
58.898578
 30
0.0
 10
33.583084
 20
58.411947
 30
0.0
 10
34.117389
 20
57.888721
 30
0.0
 10
34.584314
 20
57.400739
 30
0.0
 10
34.413943
 20
56.950533
 30
0.0
 10
34.807691
 20
57.050698
 30
0.0
 10
35.069024
 20
57.251939
 30
0.0
 10
35.525617
 20
57.455838
 30
0.0
 10
35.945683
 20
57.546310
 30
0.0
 10
36.465034
 20
57.521220
 30
0.0
 10
36.960973
 20
57.034518
 30
0.0
 10
37.387446
 20
56.315918
 30
0.0
 10
37.419874
 20
55.547725
 30
0.0
 10
37.713220
 20
54.832581
 30
0.0
 10
38.602115
 20
54.542283
 30
0.0
 10
39.425166
 20
54.351555
 30
0.0
 10
40.150724
 20
54.253527
 30
0.0
 10
40.582707
 20
54.312721
 30
0.0
 10
40.853169
 20
54.551763
 30
0.0
 10
41.071110
 20
54.810095
 30
0.0
 10
41.045191
 20
55.197857
 30
0.0
 10
40.831736
 20
55.535929
 30
0.0
 10
40.627055
 20
55.907212
 30
0.0
 10
40.255478
 20
56.118491
 30
0.0
 10
39.816244
 20
56.065172
 30
0.0
 10
39.185913
 20
56.079491
 30
0.0
 10
39.131228
 20
56.887903
 30
0.0
 10
39.443267
 20
57.230953
 30
0.0
 10
39.639216
 20
57.446375
 30
0.0
 11
39.624540
 21
33.401124
 31
0.0
 11
38.912334
 21
33.236364
 31
0.0
 11
38.714797
 21
33.404302
 31
0.0
 11
38.662250
 21
34.016773
 31
0.0
 11
38.427693
 21
34.673355
 31
0.0
 11
37.946912
 21
35.663966
 31
0.0
 11
37.437467
 21
36.506960
 31
0.0
 11
36.632639
 21
40.138548
 31
0.0
 11
35.592497
 21
46.301760
 31
0.0
 11
35.024766
 21
49.725173
 31
0.0
 11
34.987758
 21
50.496817
 31
0.0
 11
35.164441
 21
51.344432
 31
0.0
 11
35.445486
 21
51.743525
 31
0.0
 11
35.523045
 21
51.801741
 31
0.0
 11
35.570937
 21
51.954355
 31
0.0
 11
35.578796
 21
52.168323
 31
0.0
 11
35.897153
 21
52.736748
 31
0.0
 11
36.695333
 21
53.234370
 31
0.0
 11
37.631365
 21
53.447972
 31
0.0
 11
38.024126
 21
53.402327
 31
0.0
 11
38.258562
 21
53.247500
 31
0.0
 11
38.373987
 21
52.957526
 31
0.0
 11
38.432447
 21
52.672061
 31
0.0
 11
38.451119
 21
52.683917
 31
0.0
 11
38.439315
 21
52.999007
 31
0.0
 11
38.345736
 21
53.345910
 31
0.0
 11
38.056010
 21
53.589196
 31
0.0
 11
37.492281
 21
53.794262
 31
0.0
 11
36.854814
 21
54.022793
 31
0.0
 11
36.577114
 21
54.375572
 31
0.0
 11
36.454196
 21
55.113007
 31
0.0
 11
36.231474
 21
56.101455
 31
0.0
 11
35.778643
 21
56.402687
 31
0.0
 11
34.961031
 21
56.106283
 31
0.0
 11
34.008057
 21
55.741850
 31
0.0
 11
33.162426
 21
55.659874
 31
0.0
 11
32.687630
 21
55.885897
 31
0.0
 11
32.688278
 21
56.040582
 31
0.0
 11
32.812461
 21
56.210029
 31
0.0
 11
33.033287
 21
56.357546
 31
0.0
 11
33.239817
 21
56.498693
 31
0.0
 11
33.054764
 21
56.571530
 31
0.0
 11
32.419753
 21
56.599032
 31
0.0
 11
31.443243
 21
56.706629
 31
0.0
 11
30.784239
 21
56.971558
 31
0.0
 11
30.542421
 21
57.353679
 31
0.0
 11
30.578995
 21
57.472035
 31
0.0
 11
30.674882
 21
57.556460
 31
0.0
 11
30.809327
 21
57.588665
 31
0.0
 11
31.038681
 21
57.672101
 31
0.0
 11
31.383405
 21
57.890837
 31
0.0
 11
31.768870
 21
58.197516
 31
0.0
 11
32.159830
 21
58.504212
 31
0.0
 11
32.518965
 21
58.722953
 31
0.0
 11
32.768529
 21
58.806388
 31
0.0
 11
33.479569
 21
58.473083
 31
0.0
 11
34.217163
 21
57.780794
 31
0.0
 11
34.489665
 21
57.190959
 31
0.0
 11
34.473042
 21
57.000695
 31
0.0
 11
34.653525
 21
57.017065
 31
0.0
 11
35.094815
 21
57.245861
 31
0.0
 11
35.542717
 21
57.444171
 31
0.0
 11
35.972892
 21
57.530486
 31
0.0
 11
36.342757
 21
57.496266
 31
0.0
 11
36.886450
 21
57.070823
 31
0.0
 11
37.317091
 21
56.295916
 31
0.0
 11
37.492281
 21
55.427765
 31
0.0
 11
37.717254
 21
54.968033
 31
0.0
 11
38.427273
 21
54.608516
 31
0.0
 11
39.674988
 21
54.322565
 31
0.0
 11
40.204878
 21
54.275283
 31
0.0
 11
40.578779
 21
54.350434
 31
0.0
 11
40.847404
 21
54.558198
 31
0.0
 11
41.038552
 21
54.844547
 31
0.0
 11
41.033838
 21
55.121684
 31
0.0
 11
40.830577
 21
55.546879
 31
0.0
 11
40.573484
 21
55.907465
 31
0.0
 11
40.274521
 21
56.072950
 31
0.0
 11
39.865697
 21
56.080972
 31
0.0
 11
39.272624
 21
56.212603
 31
0.0
 11
39.189351
 21
56.714639
 31
0.0
 11
39.639216
 21
57.446375
 31
0.0
  0
LINE
  5
132
100
AcDbEntity
  8
Layer_1
 62
7
100
AcDbLine
 10
33.231045
 20
51.016625
 30
0.0
 11
33.301305
 21
53.141733
 31
0.0
  0
LINE
  5
133
100
AcDbEntity
  8
Layer_1
 62
7
100
AcDbLine
 10
33.301305
 20
53.141733
 30
0.0
 11
31.359430
 21
53.548003
 31
0.0
  0
SPLINE
  5
134
100
AcDbEntity
  8
Layer_1
 62
7
100
AcDbSpline
 70
0
 71
3
 72
64
 73
60
 74
58
 40
0.000000
 40
0.000000
 40
0.000000
 40
0.000000
 40
1.967192
 40
3.002241
 40
3.820716
 40
4.722205
 40
5.200425
 40
6.073273
 40
6.994937
 40
7.328285
 40
7.988761
 40
8.453977
 40
8.776188
 40
9.097444
 40
9.604682
 40
10.375373
 40
11.950481
 40
13.145975
 40
13.911764
 40
14.606574
 40
16.297070
 40
19.157959
 40
20.812064
 40
22.257473
 40
23.763138
 40
24.762004
 40
24.928090
 40
25.162058
 40
25.656610
 40
26.216719
 40
26.836374
 40
27.392031
 40
28.007213
 40
28.543117
 40
29.272468
 40
29.989759
 40
30.401257
 40
30.822359
 40
31.127309
 40
31.331917
 40
31.480071
 40
33.568818
 40
37.367323
 40
39.833521
 40
40.192756
 40
40.841239
 40
42.015488
 40
46.180866
 40
52.471632
 40
56.360055
 40
57.132092
 40
57.410362
 40
57.693487
 40
57.913651
 40
58.285927
 40
58.901204
 40
62.335669
 40
68.115688
 40
72.134500
 40
72.134500
 40
72.134500
 40
72.134500
 10
39.414392
 20
58.294756
 30
0.0
 10
38.799468
 20
58.500914
 30
0.0
 10
37.860998
 20
58.815544
 30
0.0
 10
36.550296
 20
59.060124
 30
0.0
 10
35.714044
 20
58.626918
 30
0.0
 10
35.154176
 20
58.042140
 30
0.0
 10
34.316465
 20
58.275386
 30
0.0
 10
34.205753
 20
59.121745
 30
0.0
 10
33.751420
 20
59.725540
 30
0.0
 10
34.102119
 20
60.445259
 30
0.0
 10
34.627620
 20
59.955266
 30
0.0
 10
35.002787
 20
59.730774
 30
0.0
 10
35.386537
 20
59.648386
 30
0.0
 10
35.750400
 20
59.793270
 30
0.0
 10
36.117930
 20
60.364229
 30
0.0
 10
35.018040
 20
60.933740
 30
0.0
 10
34.062627
 20
61.323309
 30
0.0
 10
32.911455
 20
61.741072
 30
0.0
 10
32.056506
 20
61.882483
 30
0.0
 10
30.905030
 20
61.790271
 30
0.0
 10
30.580864
 20
59.628316
 30
0.0
 10
29.801852
 20
58.063881
 30
0.0
 10
29.134554
 20
55.735177
 30
0.0
 10
27.345047
 20
56.082346
 30
0.0
 10
26.135819
 20
55.622834
 30
0.0
 10
25.221274
 20
55.596078
 30
0.0
 10
24.855703
 20
55.158720
 30
0.0
 10
25.208034
 20
54.971201
 30
0.0
 10
25.567534
 20
54.865113
 30
0.0
 10
26.100738
 20
54.636600
 30
0.0
 10
26.590941
 20
54.335962
 30
0.0
 10
27.055291
 20
53.958965
 30
0.0
 10
27.444487
 20
53.531126
 30
0.0
 10
27.657069
 20
52.925416
 30
0.0
 10
27.648947
 20
52.257625
 30
0.0
 10
27.667727
 20
51.646360
 30
0.0
 10
27.506844
 20
51.117002
 30
0.0
 10
27.136379
 20
50.946841
 30
0.0
 10
26.876237
 20
50.807979
 30
0.0
 10
26.692744
 20
50.636782
 30
0.0
 10
26.966309
 20
49.766206
 30
0.0
 10
29.632605
 20
52.009319
 30
0.0
 10
31.681615
 20
52.385341
 30
0.0
 10
33.303555
 20
54.436486
 30
0.0
 10
34.633478
 20
54.292534
 30
0.0
 10
34.519491
 20
53.352890
 30
0.0
 10
34.102562
 20
51.587803
 30
0.0
 10
34.513503
 20
47.482119
 30
0.0
 10
35.129278
 20
42.921335
 30
0.0
 10
35.392562
 20
39.107834
 30
0.0
 10
36.023846
 20
37.666086
 30
0.0
 10
36.112816
 20
37.164625
 30
0.0
 10
35.824160
 20
37.037702
 30
0.0
 10
35.520243
 20
37.069659
 30
0.0
 10
35.292849
 20
37.450234
 30
0.0
 10
34.645751
 20
38.733949
 30
0.0
 10
34.414936
 20
42.132956
 30
0.0
 10
33.585663
 20
46.411542
 30
0.0
 10
33.334184
 20
49.677253
 30
0.0
 10
33.231045
 20
51.016625
 30
0.0
 11
39.414392
 21
58.294756
 31
0.0
 11
37.530355
 21
58.860661
 31
0.0
 11
36.498838
 21
58.946103
 31
0.0
 11
35.758266
 21
58.597601
 31
0.0
 11
34.977339
 21
58.147228
 31
0.0
 11
34.517929
 21
58.280031
 31
0.0
 11
34.138164
 21
59.065933
 31
0.0
 11
33.894248
 21
59.954735
 31
0.0
 11
34.062026
 21
60.242783
 31
0.0
 11
34.658784
 21
59.959750
 31
0.0
 11
35.063759
 21
59.730792
 31
0.0
 11
35.382040
 21
59.680619
 31
0.0
 11
35.680830
 21
59.798644
 31
0.0
 11
35.933494
 21
60.238475
 31
0.0
 11
35.357457
 21
60.750477
 31
0.0
 11
33.910307
 21
61.372345
 31
0.0
 11
32.774229
 21
61.744546
 31
0.0
 11
32.016178
 21
61.853137
 31
0.0
 11
31.330326
 21
61.741926
 31
0.0
 11
30.613158
 21
60.211094
 31
0.0
 11
29.674976
 21
57.508410
 31
0.0
 11
28.866997
 21
56.065070
 31
0.0
 11
27.426831
 21
55.942075
 31
0.0
 11
25.947803
 21
55.660109
 31
0.0
 11
25.005570
 21
55.328552
 31
0.0
 11
24.918617
 21
55.187047
 31
0.0
 11
25.096775
 21
55.035386
 31
0.0
 11
25.558401
 21
54.857951
 31
0.0
 11
26.072205
 21
54.634953
 31
0.0
 11
26.601463
 21
54.312684
 31
0.0
 11
27.031598
 21
53.960918
 31
0.0
 11
27.424761
 21
53.487767
 31
0.0
 11
27.608610
 21
52.984386
 31
0.0
 11
27.654120
 21
52.256456
 31
0.0
 11
27.618897
 21
51.540031
 31
0.0
 11
27.462718
 21
51.159322
 31
0.0
 11
27.109822
 21
50.929559
 31
0.0
 11
26.848287
 21
50.772734
 31
0.0
 11
26.723400
 21
50.610662
 31
0.0
 11
26.752106
 21
50.465315
 31
0.0
 11
28.731665
 21
51.131805
 31
0.0
 11
32.007428
 21
53.054828
 31
0.0
 11
34.116468
 21
54.333142
 31
0.0
 11
34.467029
 21
54.254678
 31
0.0
 11
34.542946
 21
53.610655
 31
0.0
 11
34.337927
 21
52.454442
 31
0.0
 11
34.451007
 21
48.290600
 31
0.0
 11
35.158982
 21
42.039799
 31
0.0
 11
35.804181
 21
38.205278
 31
0.0
 11
36.052287
 21
37.474193
 31
0.0
 11
36.052346
 21
37.195923
 31
0.0
 11
35.804446
 21
37.059156
 31
0.0
 11
35.586037
 21
37.086903
 31
0.0
 11
35.344490
 21
37.370177
 31
0.0
 11
35.069783
 21
37.920724
 31
0.0
 11
34.419852
 21
41.293133
 31
0.0
 11
33.601450
 21
47.014919
 31
0.0
 11
33.231045
 21
51.016625
 31
0.0
  0
LINE
  5
135
100
AcDbEntity
  8
Layer_1
 62
7
100
AcDbLine
 10
31.731656
 20
52.435130
 30
0.0
 11
33.023712
 21
52.126091
 31
0.0
  0
LINE
  5
136
100
AcDbEntity
  8
Layer_1
 62
7
100
AcDbLine
 10
33.023712
 20
52.126091
 30
0.0
 11
32.856337
 21
51.265100
 31
0.0
  0
SPLINE
  5
137
100
AcDbEntity
  8
Layer_1
 62
7
100
AcDbSpline
 70
0
 71
3
 72
19
 73
15
 74
13
 40
0.000000
 40
0.000000
 40
0.000000
 40
0.000000
 40
1.728407
 40
4.421169
 40
6.020952
 40
7.084444
 40
7.858244
 40
8.337061
 40
8.659374
 40
8.889407
 40
9.629199
 40
11.559735
 40
14.541142
 40
16.770870
 40
16.770870
 40
16.770870
 40
16.770870
 10
31.359430
 20
53.548003
 30
0.0
 10
30.885022
 20
53.196791
 30
0.0
 10
29.671513
 20
52.298411
 30
0.0
 10
28.878389
 20
50.592884
 30
0.0
 10
27.452808
 20
48.878825
 30
0.0
 10
26.365202
 20
49.603216
 30
0.0
 10
25.583629
 20
49.759202
 30
0.0
 10
25.129012
 20
49.780734
 30
0.0
 10
24.632692
 20
49.652189
 30
0.0
 10
25.031627
 20
49.255975
 30
0.0
 10
25.841401
 20
48.817169
 30
0.0
 10
27.798071
 20
49.899892
 30
0.0
 10
29.315517
 20
51.646537
 30
0.0
 10
31.007637
 20
52.198820
 30
0.0
 10
31.731656
 20
52.435130
 30
0.0
 11
31.359430
 21
53.548003
 31
0.0
 11
30.032663
 21
52.440268
 31
0.0
 11
28.507324
 21
50.221188
 31
0.0
 11
27.261759
 21
49.217260
 31
0.0
 11
26.260596
 21
49.575989
 31
0.0
 11
25.507410
 21
49.753410
 31
0.0
 11
25.028700
 21
49.743286
 31
0.0
 11
24.736871
 21
49.606459
 31
0.0
 11
24.872632
 21
49.420761
 31
0.0
 11
25.522682
 21
49.067593
 31
0.0
 11
27.332784
 21
49.738785
 31
0.0
 11
29.666674
 21
51.593979
 31
0.0
 11
31.731656
 21
52.435130
 31
0.0
  0
LINE
  5
138
100
AcDbEntity
  8
Layer_1
 62
7
100
AcDbLine
 10
38.018482
 20
30.574528
 30
0.0
 11
38.019109
 21
30.574528
 31
0.0
  0
SPLINE
  5
139
100
AcDbEntity
  8
Layer_1
 62
7
100
AcDbSpline
 70
0
 71
3
 72
16
 73
12
 74
10
 40
0.000000
 40
0.000000
 40
0.000000
 40
0.000000
 40
4.966499
 40
11.986903
 40
16.193050
 40
16.992240
 40
18.284923
 40
19.292985
 40
20.541738
 40
21.474967
 40
21.704714
 40
21.704714
 40
21.704714
 40
21.704714
 10
32.856337
 20
51.265100
 30
0.0
 10
32.906031
 20
49.608884
 30
0.0
 10
33.025970
 20
45.611521
 30
0.0
 10
33.933681
 20
40.275546
 30
0.0
 10
35.025254
 20
36.394375
 30
0.0
 10
35.956558
 20
34.505217
 30
0.0
 10
36.221045
 20
33.508042
 30
0.0
 10
36.710982
 20
32.401826
 30
0.0
 10
37.479146
 20
31.692188
 30
0.0
 10
37.533854
 20
30.631072
 30
0.0
 10
37.938536
 20
30.583855
 30
0.0
 10
38.018482
 20
30.574528
 30
0.0
 11
32.856337
 21
51.265100
 31
0.0
 11
33.100178
 21
46.304591
 31
0.0
 11
34.243836
 21
39.377967
 31
0.0
 11
35.536336
 21
35.375329
 31
0.0
 11
35.864485
 21
34.646616
 31
0.0
 11
36.283612
 21
33.423765
 31
0.0
 11
36.724034
 21
32.517003
 31
0.0
 11
37.399245
 21
31.466539
 31
0.0
 11
37.793409
 21
30.620637
 31
0.0
 11
38.018482
 21
30.574528
 31
0.0
  0
SPLINE
  5
13a
100
AcDbEntity
  8
Layer_1
 62
7
100
AcDbSpline
 70
0
 71
3
 72
10
 73
6
 74
4
 40
0.000000
 40
0.000000
 40
0.000000
 40
0.000000
 40
0.403183
 40
1.849639
 40
2.360897
 40
2.360897
 40
2.360897
 40
2.360897
 10
34.472692
 20
35.510277
 30
0.0
 10
34.325615
 20
35.563304
 30
0.0
 10
33.650884
 20
35.806568
 30
0.0
 10
34.003911
 20
33.874730
 30
0.0
 10
34.668135
 20
34.206016
 30
0.0
 10
34.841598
 20
34.292532
 30
0.0
 11
34.472692
 21
35.510277
 31
0.0
 11
34.076662
 21
35.585885
 31
0.0
 11
34.346545
 21
34.164830
 31
0.0
 11
34.841598
 21
34.292532
 31
0.0
  0
LINE
  5
13b
100
AcDbEntity
  8
Layer_1
 62
7
100
AcDbLine
 10
34.472645
 20
35.510256
 30
0.0
 11
34.472692
 21
35.510277
 31
0.0
  0
SPLINE
  5
13c
100
AcDbEntity
  8
Layer_1
 62
7
100
AcDbSpline
 70
0
 71
3
 72
10
 73
6
 74
4
 40
0.000000
 40
0.000000
 40
0.000000
 40
0.000000
 40
0.326653
 40
0.783770
 40
1.285777
 40
1.285777
 40
1.285777
 40
1.285777
 10
34.841598
 20
34.292532
 30
0.0
 10
34.838483
 20
34.401830
 30
0.0
 10
34.831010
 20
34.664081
 30
0.0
 10
34.689397
 20
35.074884
 30
0.0
 10
34.547115
 20
35.360673
 30
0.0
 10
34.472645
 20
35.510256
 30
0.0
 11
34.841598
 21
34.292532
 31
0.0
 11
34.818558
 21
34.618371
 31
0.0
 11
34.686017
 21
35.055852
 31
0.0
 11
34.472645
 21
35.510256
 31
0.0
  0
LINE
  5
13d
100
AcDbEntity
  8
Layer_1
 62
7
100
AcDbLine
 10
40.572756
 20
34.271027
 30
0.0
 11
40.572756
 21
34.271027
 31
0.0
  0
SPLINE
  5
13e
100
AcDbEntity
  8
Layer_1
 62
7
100
AcDbSpline
 70
0
 71
3
 72
19
 73
15
 74
13
 40
0.000000
 40
0.000000
 40
0.000000
 40
0.000000
 40
0.127744
 40
0.219622
 40
0.311555
 40
0.436374
 40
0.583933
 40
0.737059
 40
0.864799
 40
0.956671
 40
1.048597
 40
1.173424
 40
1.320985
 40
1.474106
 40
1.474106
 40
1.474106
 40
1.474106
 10
40.572756
 20
34.271027
 30
0.0
 10
40.590154
 20
34.310421
 30
0.0
 10
40.620066
 20
34.378150
 30
0.0
 10
40.593002
 20
34.493071
 30
0.0
 10
40.481166
 20
34.527302
 30
0.0
 10
40.364208
 20
34.482934
 30
0.0
 10
40.249267
 20
34.397644
 30
0.0
 10
40.162132
 20
34.281858
 30
0.0
 10
40.117557
 20
34.163395
 30
0.0
 10
40.143489
 20
34.049120
 30
0.0
 10
40.255692
 20
34.014681
 30
0.0
 10
40.372076
 20
34.059372
 30
0.0
 10
40.489271
 20
34.143381
 30
0.0
 10
40.544587
 20
34.227957
 30
0.0
 10
40.572756
 20
34.271027
 30
0.0
 11
40.572756
 21
34.271027
 31
0.0
 11
40.608377
 21
34.393704
 31
0.0
 11
40.580355
 21
34.481204
 31
0.0
 11
40.494693
 21
34.514581
 31
0.0
 11
40.374421
 21
34.481204
 31
0.0
 11
40.255604
 21
34.393704
 31
0.0
 11
40.163964
 21
34.271027
 31
0.0
 11
40.128338
 21
34.148355
 31
0.0
 11
40.156358
 21
34.060860
 31
0.0
 11
40.242011
 21
34.027486
 31
0.0
 11
40.362294
 21
34.060860
 31
0.0
 11
40.481117
 21
34.148355
 31
0.0
 11
40.572756
 21
34.271027
 31
0.0
  0
LINE
  5
13f
100
AcDbEntity
  8
Layer_1
 62
7
100
AcDbLine
 10
19.488976
 20
52.736368
 30
0.0
 11
19.284249
 21
53.377926
 31
0.0
  0
LINE
  5
140
100
AcDbEntity
  8
Layer_1
 62
7
100
AcDbLine
 10
19.284249
 20
53.377926
 30
0.0
 11
17.328293
 21
53.244623
 31
0.0
  0
SPLINE
  5
141
100
AcDbEntity
  8
Layer_1
 62
7
100
AcDbSpline
 70
0
 71
3
 72
19
 73
15
 74
13
 40
0.000000
 40
0.000000
 40
0.000000
 40
0.000000
 40
2.197272
 40
4.608878
 40
6.759997
 40
7.792824
 40
9.021228
 40
10.184808
 40
11.151449
 40
11.858999
 40
12.154419
 40
12.265013
 40
12.517300
 40
12.860117
 40
12.860117
 40
12.860117
 40
12.860117
 10
10.170708
 20
44.845269
 30
0.0
 10
10.591015
 20
45.446471
 30
0.0
 10
11.472627
 20
46.707520
 30
0.0
 10
13.036282
 20
48.336067
 30
0.0
 10
14.431568
 20
49.589034
 30
0.0
 10
15.694567
 20
50.347636
 30
0.0
 10
16.714730
 20
50.867283
 30
0.0
 10
17.726782
 20
51.321912
 30
0.0
 10
18.661813
 20
51.618990
 30
0.0
 10
19.166896
 20
51.929362
 30
0.0
 10
19.658354
 20
51.971578
 30
0.0
 10
19.633299
 20
52.214763
 30
0.0
 10
19.579560
 20
52.433890
 30
0.0
 10
19.522085
 20
52.625810
 30
0.0
 10
19.488976
 20
52.736368
 30
0.0
 11
10.170708
 21
44.845269
 31
0.0
 11
11.473556
 21
46.614617
 31
0.0
 11
13.119538
 21
48.377167
 31
0.0
 11
14.764028
 21
49.763878
 31
0.0
 11
15.644072
 21
50.304483
 31
0.0
 11
16.736219
 21
50.866793
 31
0.0
 11
17.804027
 21
51.329074
 31
0.0
 11
18.706407
 21
51.675634
 31
0.0
 11
19.364874
 21
51.934573
 31
0.0
 11
19.636878
 21
52.049841
 31
0.0
 11
19.637408
 21
52.160434
 31
0.0
 11
19.584269
 21
52.407061
 31
0.0
 11
19.488976
 21
52.736368
 31
0.0
  0
LINE
  5
142
100
AcDbEntity
  8
Layer_1
 62
7
100
AcDbLine
 10
8.121957
 20
42.041109
 30
0.0
 11
8.267843
 21
41.114522
 31
0.0
  0
LINE
  5
143
100
AcDbEntity
  8
Layer_1
 62
7
100
AcDbLine
 10
8.267843
 20
41.114522
 30
0.0
 11
8.845690
 21
42.373513
 31
0.0
  0
SPLINE
  5
144
100
AcDbEntity
  8
Layer_1
 62
7
100
AcDbSpline
 70
0
 71
3
 72
13
 73
9
 74
7
 40
0.000000
 40
0.000000
 40
0.000000
 40
0.000000
 40
4.286785
 40
7.766503
 40
10.908104
 40
12.799324
 40
15.014966
 40
16.804420
 40
16.804420
 40
16.804420
 40
16.804420
 10
17.328293
 20
53.244623
 30
0.0
 10
15.902319
 20
53.066081
 30
0.0
 10
13.318838
 20
52.742609
 30
0.0
 10
10.030450
 20
50.895779
 30
0.0
 10
8.500898
 20
48.337613
 30
0.0
 10
8.181647
 20
45.931812
 30
0.0
 10
7.997069
 20
43.971615
 30
0.0
 10
8.083390
 20
42.637281
 30
0.0
 10
8.121957
 20
42.041109
 30
0.0
 11
17.328293
 21
53.244623
 31
0.0
 11
13.124151
 21
52.406939
 31
0.0
 11
10.151221
 21
50.598589
 31
0.0
 11
8.542221
 21
47.900299
 31
0.0
 11
8.207031
 21
46.039019
 31
0.0
 11
8.048514
 21
43.829055
 31
0.0
 11
8.121957
 21
42.041109
 31
0.0
  0
LINE
  5
145
100
AcDbEntity
  8
Layer_1
 62
7
100
AcDbLine
 10
10.170708
 20
44.845269
 30
0.0
 11
10.170708
 21
44.845269
 31
0.0
  0
SPLINE
  5
146
100
AcDbEntity
  8
Layer_1
 62
7
100
AcDbSpline
 70
0
 71
3
 72
10
 73
6
 74
4
 40
0.000000
 40
0.000000
 40
0.000000
 40
0.000000
 40
0.891832
 40
1.899375
 40
2.805600
 40
2.805600
 40
2.805600
 40
2.805600
 10
8.845690
 20
42.373513
 30
0.0
 10
8.975090
 20
42.641169
 30
0.0
 10
9.250678
 20
43.211208
 30
0.0
 10
9.692942
 20
44.035687
 30
0.0
 10
10.017175
 20
44.585104
 30
0.0
 10
10.170708
 20
44.845269
 30
0.0
 11
8.845690
 21
42.373513
 31
0.0
 11
9.239141
 21
43.173864
 31
0.0
 11
9.715165
 21
44.061864
 31
0.0
 11
10.170708
 21
44.845269
 31
0.0
  0
LINE
  5
147
100
AcDbEntity
  8
Layer_1
 62
7
100
AcDbLine
 10
32.113707
 20
49.737169
 30
0.0
 11
32.113720
 21
49.737169
 31
0.0
  0
SPLINE
  5
148
100
AcDbEntity
  8
Layer_1
 62
7
100
AcDbSpline
 70
0
 71
3
 72
16
 73
12
 74
10
 40
0.000000
 40
0.000000
 40
0.000000
 40
0.000000
 40
0.092216
 40
0.292668
 40
0.725478
 40
3.751643
 40
8.759670
 40
11.237788
 40
14.178996
 40
19.378314
 40
22.282001
 40
22.282001
 40
22.282001
 40
22.282001
 10
32.113720
 20
49.737169
 30
0.0
 10
32.096635
 20
49.773241
 30
0.0
 10
32.042410
 20
49.887724
 30
0.0
 10
32.031909
 20
49.460862
 30
0.0
 10
31.991452
 20
48.545017
 30
0.0
 10
32.631007
 20
45.221825
 30
0.0
 10
32.887347
 20
42.818847
 30
0.0
 10
33.826402
 20
37.303606
 30
0.0
 10
33.034301
 20
43.354788
 30
0.0
 10
32.664139
 20
45.967256
 30
0.0
 10
32.258917
 20
48.742624
 30
0.0
 10
32.113707
 20
49.737169
 30
0.0
 11
32.113720
 21
49.737169
 31
0.0
 11
32.067427
 21
49.816923
 31
0.0
 11
32.035489
 21
49.619032
 31
0.0
 11
32.024812
 21
49.186354
 31
0.0
 11
32.423004
 21
46.186501
 31
0.0
 11
33.169055
 21
41.234355
 31
0.0
 11
33.598117
 21
38.793663
 31
0.0
 11
33.246399
 21
41.713765
 31
0.0
 11
32.532176
 21
46.863794
 31
0.0
 11
32.113707
 21
49.737169
 31
0.0
  0
LINE
  5
149
100
AcDbEntity
  8
Layer_1
 62
7
100
AcDbLine
 10
29.141002
 20
46.887387
 30
0.0
 11
29.141002
 21
46.887387
 31
0.0
  0
SPLINE
  5
14a
100
AcDbEntity
  8
Layer_1
 62
7
100
AcDbSpline
 70
0
 71
3
 72
16
 73
12
 74
10
 40
0.000000
 40
0.000000
 40
0.000000
 40
0.000000
 40
0.211391
 40
1.002999
 40
2.161625
 40
2.633644
 40
2.785187
 40
3.599850
 40
4.305346
 40
4.876426
 40
5.198781
 40
5.198781
 40
5.198781
 40
5.198781
 10
29.141002
 20
46.887387
 30
0.0
 10
29.073904
 20
46.858345
 30
0.0
 10
28.755541
 20
46.720549
 30
0.0
 10
28.820251
 20
45.760794
 30
0.0
 10
28.764745
 20
45.350117
 30
0.0
 10
28.647737
 20
44.230214
 30
0.0
 10
28.951023
 20
44.756458
 30
0.0
 10
28.966569
 20
45.256756
 30
0.0
 10
29.126057
 20
45.954019
 30
0.0
 10
29.198689
 20
46.484612
 30
0.0
 10
29.156297
 20
46.780595
 30
0.0
 10
29.141002
 20
46.887387
 30
0.0
 11
29.141002
 21
46.887387
 31
0.0
 11
28.955184
 21
46.786601
 31
0.0
 11
28.792282
 21
46.011935
 31
0.0
 11
28.713827
 21
44.855969
 31
0.0
 11
28.725502
 21
44.384094
 31
0.0
 11
28.806396
 21
44.512240
 31
0.0
 11
28.996820
 21
45.304334
 31
0.0
 11
29.124284
 21
45.998220
 31
0.0
 11
29.176086
 21
46.566946
 31
0.0
 11
29.141002
 21
46.887387
 31
0.0
  0
LINE
  5
14b
100
AcDbEntity
  8
Layer_1
 62
7
100
AcDbLine
 10
36.674645
 20
49.899956
 30
0.0
 11
36.674645
 21
49.899610
 31
0.0
  0
SPLINE
  5
14c
100
AcDbEntity
  8
Layer_1
 62
7
100
AcDbSpline
 70
0
 71
3
 72
22
 73
18
 74
16
 40
0.000000
 40
0.000000
 40
0.000000
 40
0.000000
 40
0.076367
 40
0.452028
 40
0.829395
 40
1.175761
 40
1.321127
 40
1.611936
 40
1.838966
 40
2.005597
 40
2.083136
 40
2.192999
 40
2.402423
 40
2.666103
 40
3.039869
 40
3.267169
 40
3.357594
 40
3.357594
 40
3.357594
 40
3.357594
 10
36.674645
 20
49.899610
 30
0.0
 10
36.658385
 20
49.919386
 30
0.0
 10
36.562143
 20
50.036448
 30
0.0
 10
36.531185
 20
50.330785
 30
0.0
 10
36.343173
 20
50.634810
 30
0.0
 10
36.182898
 20
50.912847
 30
0.0
 10
35.881164
 20
50.925697
 30
0.0
 10
35.819024
 20
50.657914
 30
0.0
 10
35.723207
 20
50.462127
 30
0.0
 10
35.673143
 20
50.314957
 30
0.0
 10
35.673493
 20
50.183741
 30
0.0
 10
35.816178
 20
50.132842
 30
0.0
 10
35.961143
 20
50.006560
 30
0.0
 10
36.176231
 20
49.863503
 30
0.0
 10
36.517590
 20
49.627566
 30
0.0
 10
36.658310
 20
50.075901
 30
0.0
 10
36.671026
 20
49.938937
 30
0.0
 10
36.674645
 20
49.899956
 30
0.0
 11
36.674645
 21
49.899610
 31
0.0
 11
36.628132
 21
49.960177
 31
0.0
 11
36.506195
 21
50.315498
 31
0.0
 11
36.335234
 21
50.651918
 31
0.0
 11
36.096751
 21
50.903106
 31
0.0
 11
35.951385
 21
50.902952
 31
0.0
 11
35.805488
 21
50.651389
 31
0.0
 11
35.719170
 21
50.441409
 31
0.0
 11
35.675872
 21
50.280501
 31
0.0
 11
35.684965
 21
50.203497
 31
0.0
 11
35.776187
 21
50.142272
 31
0.0
 11
35.948143
 21
50.022735
 31
0.0
 11
36.163626
 21
49.870765
 31
0.0
 11
36.530957
 21
49.801711
 31
0.0
 11
36.659581
 21
49.989118
 31
0.0
 11
36.674645
 21
49.899956
 31
0.0
  0
LINE
  5
14d
100
AcDbEntity
  8
Layer_1
 62
7
100
AcDbLine
 10
13.984925
 20
48.204736
 30
0.0
 11
13.984925
 21
48.204736
 31
0.0
  0
SPLINE
  5
14e
100
AcDbEntity
  8
Layer_1
 62
7
100
AcDbSpline
 70
0
 71
3
 72
16
 73
12
 74
10
 40
0.000000
 40
0.000000
 40
0.000000
 40
0.000000
 40
0.310354
 40
0.343974
 40
0.639487
 40
1.019477
 40
1.222779
 40
1.323215
 40
1.420095
 40
1.620006
 40
1.882993
 40
1.882993
 40
1.882993
 40
1.882993
 10
13.984925
 20
48.204736
 30
0.0
 10
14.094547
 20
48.292310
 30
0.0
 10
14.216044
 20
48.389370
 30
0.0
 10
14.067774
 20
48.570084
 30
0.0
 10
13.871882
 20
48.202555
 30
0.0
 10
13.714299
 20
48.089340
 30
0.0
 10
13.491381
 20
47.875212
 30
0.0
 10
13.630613
 20
47.747291
 30
0.0
 10
13.732590
 20
47.871984
 30
0.0
 10
13.847255
 20
47.999794
 30
0.0
 10
13.935048
 20
48.130486
 30
0.0
 10
13.984925
 20
48.204736
 30
0.0
 11
13.984925
 21
48.204736
 31
0.0
 11
14.149958
 21
48.467574
 31
0.0
 11
14.128343
 21
48.493325
 31
0.0
 11
13.907749
 21
48.296687
 31
0.0
 11
13.646297
 21
48.020943
 31
0.0
 11
13.549502
 21
47.842162
 31
0.0
 11
13.627206
 21
47.778527
 31
0.0
 11
13.704499
 21
47.836935
 31
0.0
 11
13.833024
 21
47.990055
 31
0.0
 11
13.984925
 21
48.204736
 31
0.0
  0
LINE
  5
14f
100
AcDbEntity
  8
Layer_1
 62
7
100
AcDbLine
 10
23.284064
 20
50.144003
 30
0.0
 11
23.284064
 21
50.144003
 31
0.0
  0
SPLINE
  5
150
100
AcDbEntity
  8
Layer_1
 62
7
100
AcDbSpline
 70
0
 71
3
 72
22
 73
18
 74
16
 40
0.000000
 40
0.000000
 40
0.000000
 40
0.000000
 40
0.242440
 40
0.669794
 40
1.192204
 40
1.774754
 40
2.015209
 40
2.187087
 40
2.391041
 40
2.621675
 40
2.861858
 40
3.126697
 40
3.407805
 40
3.653366
 40
4.050304
 40
4.278729
 40
4.439077
 40
4.439077
 40
4.439077
 40
4.439077
 10
23.284064
 20
50.144003
 30
0.0
 10
23.219612
 20
50.193129
 30
0.0
 10
23.041548
 20
50.328850
 30
0.0
 10
22.689939
 20
50.508481
 30
0.0
 10
22.211401
 20
50.741709
 30
0.0
 10
21.868372
 20
50.888563
 30
0.0
 10
21.431187
 20
51.036697
 30
0.0
 10
21.443954
 20
50.762330
 30
0.0
 10
21.569788
 20
50.610251
 30
0.0
 10
21.766213
 20
50.483520
 30
0.0
 10
22.012139
 20
50.450773
 30
0.0
 10
22.273664
 20
50.429044
 30
0.0
 10
22.525389
 20
50.347995
 30
0.0
 10
22.801905
 20
50.187019
 30
0.0
 10
22.986390
 20
50.040535
 30
0.0
 10
23.374334
 20
49.924097
 30
0.0
 10
23.310424
 20
50.079788
 30
0.0
 10
23.284064
 20
50.144003
 30
0.0
 11
23.284064
 21
50.144003
 31
0.0
 11
23.088156
 21
50.286821
 31
0.0
 11
22.714632
 21
50.494454
 31
0.0
 11
22.244344
 21
50.721921
 31
0.0
 11
21.705084
 21
50.942292
 31
0.0
 11
21.465575
 21
50.963603
 31
0.0
 11
21.457971
 21
50.791893
 31
0.0
 11
21.572255
 21
50.622967
 31
0.0
 11
21.768314
 21
50.501503
 31
0.0
 11
22.003711
 21
50.453798
 31
0.0
 11
22.266371
 21
50.419889
 31
0.0
 11
22.533897
 21
50.333568
 31
0.0
 11
22.748367
 21
50.213974
 31
0.0
 11
23.093116
 21
50.017231
 31
0.0
 11
23.319617
 21
49.987645
 31
0.0
 11
23.284064
 21
50.144003
 31
0.0
  0
LINE
  5
151
100
AcDbEntity
  8
Layer_1
 62
7
100
AcDbLine
 10
25.695572
 20
51.092629
 30
0.0
 11
25.695572
 21
51.092457
 31
0.0
  0
SPLINE
  5
152
100
AcDbEntity
  8
Layer_1
 62
7
100
AcDbSpline
 70
0
 71
3
 72
34
 73
30
 74
28
 40
0.000000
 40
0.000000
 40
0.000000
 40
0.000000
 40
0.587543
 40
1.670748
 40
3.302799
 40
4.099496
 40
4.478824
 40
4.786453
 40
5.086416
 40
5.416619
 40
5.956043
 40
7.052297
 40
8.347597
 40
9.256173
 40
9.363746
 40
9.431512
 40
9.490213
 40
9.891200
 40
10.748073
 40
11.956093
 40
13.364700
 40
14.648453
 40
15.529986
 40
16.122046
 40
17.113299
 40
18.281500
 40
19.404797
 40
20.659195
 40
21.578689
 40
21.578689
 40
21.578689
 40
21.578689
 10
25.695572
 20
51.092457
 30
0.0
 10
25.818114
 20
51.286175
 30
0.0
 10
26.166577
 20
51.837033
 30
0.0
 10
24.658321
 20
52.277408
 30
0.0
 10
23.651406
 20
52.430134
 30
0.0
 10
22.734306
 20
52.397172
 30
0.0
 10
22.178411
 20
52.500647
 30
0.0
 10
22.115110
 20
52.866599
 30
0.0
 10
22.178551
 20
53.189751
 30
0.0
 10
22.545875
 20
53.396675
 30
0.0
 10
23.180840
 20
53.531108
 30
0.0
 10
24.175182
 20
53.512612
 30
0.0
 10
25.244917
 20
53.348503
 30
0.0
 10
26.028365
 20
53.154609
 30
0.0
 10
26.314694
 20
52.951237
 30
0.0
 10
26.408067
 20
52.938880
 30
0.0
 10
26.475823
 20
53.136087
 30
0.0
 10
25.916422
 20
53.362970
 30
0.0
 10
25.259303
 20
53.618923
 30
0.0
 10
24.084171
 20
53.902345
 30
0.0
 10
22.764509
 20
53.995165
 30
0.0
 10
21.671546
 20
53.812373
 30
0.0
 10
20.579592
 20
53.455456
 30
0.0
 10
20.802020
 20
52.505573
 30
0.0
 10
21.489540
 20
51.904735
 30
0.0
 10
22.404452
 20
51.266219
 30
0.0
 10
23.576540
 20
51.026817
 30
0.0
 10
24.677718
 20
50.896762
 30
0.0
 10
25.393019
 20
51.034409
 30
0.0
 10
25.695572
 20
51.092629
 30
0.0
 11
25.695572
 21
51.092457
 31
0.0
 11
25.925750
 21
51.633035
 31
0.0
 11
24.982397
 21
52.165403
 31
0.0
 11
23.368162
 21
52.405896
 31
0.0
 11
22.572043
 21
52.436250
 31
0.0
 11
22.216592
 21
52.568708
 31
0.0
 11
22.135145
 21
52.865358
 31
0.0
 11
22.211689
 21
53.155391
 31
0.0
 11
22.481286
 21
53.346052
 31
0.0
 11
23.003881
 21
53.479743
 31
0.0
 11
24.100066
 21
53.492050
 31
0.0
 11
25.381535
 21
53.303269
 31
0.0
 11
26.239108
 21
53.003138
 31
0.0
 11
26.334106
 21
52.952666
 31
0.0
 11
26.401861
 21
52.953895
 31
0.0
 11
26.427705
 21
53.006601
 31
0.0
 11
26.130376
 21
53.275646
 31
0.0
 11
25.327337
 21
53.574580
 31
0.0
 11
24.152016
 21
53.853744
 31
0.0
 11
22.746234
 21
53.942905
 31
0.0
 11
21.479889
 21
53.732209
 31
0.0
 11
20.721384
 21
53.283021
 31
0.0
 11
20.801338
 21
52.696385
 31
0.0
 11
21.458446
 21
51.954231
 31
0.0
 11
22.447843
 21
51.333114
 31
0.0
 11
23.535024
 21
51.050565
 31
0.0
 11
24.785997
 21
50.957934
 31
0.0
 11
25.695572
 21
51.092629
 31
0.0
  0
LINE
  5
153
100
AcDbEntity
  8
Layer_1
 62
7
100
AcDbLine
 10
20.908706
 20
51.527437
 30
0.0
 11
20.908706
 21
51.527437
 31
0.0
  0
SPLINE
  5
154
100
AcDbEntity
  8
Layer_1
 62
7
100
AcDbSpline
 70
0
 71
3
 72
19
 73
15
 74
13
 40
0.000000
 40
0.000000
 40
0.000000
 40
0.000000
 40
0.079469
 40
0.218447
 40
0.394119
 40
0.553236
 40
0.668626
 40
0.776728
 40
0.902769
 40
1.041751
 40
1.199540
 40
1.354538
 40
1.469933
 40
1.533876
 40
1.533876
 40
1.533876
 40
1.533876
 10
20.908706
 20
51.527437
 30
0.0
 10
20.895990
 20
51.551045
 30
0.0
 10
20.861035
 20
51.615937
 30
0.0
 10
20.745215
 20
51.687076
 30
0.0
 10
20.610112
 20
51.766231
 30
0.0
 10
20.465619
 20
51.813843
 30
0.0
 10
20.326494
 20
51.784477
 30
0.0
 10
20.279512
 20
51.659914
 30
0.0
 10
20.330738
 20
51.537027
 30
0.0
 10
20.449005
 20
51.450922
 30
0.0
 10
20.602472
 20
51.423603
 30
0.0
 10
20.740777
 20
51.442406
 30
0.0
 10
20.859924
 20
51.459770
 30
0.0
 10
20.895884
 20
51.509652
 30
0.0
 10
20.908706
 20
51.527437
 30
0.0
 11
20.908706
 21
51.527437
 31
0.0
 11
20.866688
 21
51.594889
 31
0.0
 11
20.756533
 21
51.679629
 31
0.0
 11
20.602091
 21
51.763345
 31
0.0
 11
20.447649
 21
51.801634
 31
0.0
 11
20.337499
 21
51.767259
 31
0.0
 11
20.295484
 21
51.667656
 31
0.0
 11
20.337499
 21
51.548824
 31
0.0
 11
20.447649
 21
51.464071
 31
0.0
 11
20.602091
 21
51.431743
 31
0.0
 11
20.756533
 21
51.444858
 31
0.0
 11
20.866688
 21
51.479239
 31
0.0
 11
20.908706
 21
51.527437
 31
0.0
  0
LINE
  5
155
100
AcDbEntity
  8
Layer_1
 62
7
100
AcDbLine
 10
27.245294
 20
51.933187
 30
0.0
 11
27.245334
 21
51.933187
 31
0.0
  0
SPLINE
  5
156
100
AcDbEntity
  8
Layer_1
 62
7
100
AcDbSpline
 70
0
 71
3
 72
19
 73
15
 74
13
 40
0.000000
 40
0.000000
 40
0.000000
 40
0.000000
 40
0.112257
 40
0.197034
 40
0.313086
 40
0.472141
 40
0.682944
 40
0.932453
 40
1.217843
 40
1.252092
 40
1.561291
 40
2.055233
 40
2.399534
 40
2.683971
 40
2.683971
 40
2.683971
 40
2.683971
 10
27.245334
 20
51.933187
 30
0.0
 10
27.242771
 20
51.973282
 30
0.0
 10
27.238272
 20
52.043657
 30
0.0
 10
27.125634
 20
52.097213
 30
0.0
 10
27.021883
 20
52.017200
 30
0.0
 10
26.858883
 20
51.980949
 30
0.0
 10
26.655360
 20
52.067380
 30
0.0
 10
26.461962
 20
52.155513
 30
0.0
 10
26.307436
 20
52.472204
 30
0.0
 10
26.179030
 20
52.278602
 30
0.0
 10
26.503783
 20
52.046266
 30
0.0
 10
26.654288
 20
51.766019
 30
0.0
 10
27.123895
 20
51.605589
 30
0.0
 10
27.207481
 20
51.831146
 30
0.0
 10
27.245294
 20
51.933187
 30
0.0
 11
27.245334
 21
51.933187
 31
0.0
 11
27.216095
 21
52.041569
 31
0.0
 11
27.139443
 21
52.077785
 31
0.0
 11
27.031971
 21
52.033993
 31
0.0
 11
26.876711
 21
51.999457
 31
0.0
 11
26.674764
 21
52.059917
 31
0.0
 11
26.469853
 21
52.202277
 31
0.0
 11
26.256401
 21
52.391713
 31
0.0
 11
26.237196
 21
52.363356
 31
0.0
 11
26.401586
 21
52.101477
 31
0.0
 11
26.757486
 21
51.758967
 31
0.0
 11
27.095135
 21
51.691616
 31
0.0
 11
27.245294
 21
51.933187
 31
0.0
  0
LINE
  5
157
100
AcDbEntity
  8
Layer_1
 62
7
100
AcDbLine
 10
33.270679
 20
57.312814
 30
0.0
 11
33.270642
 21
57.312806
 31
0.0
  0
SPLINE
  5
158
100
AcDbEntity
  8
Layer_1
 62
7
100
AcDbSpline
 70
0
 71
3
 72
19
 73
15
 74
13
 40
0.000000
 40
0.000000
 40
0.000000
 40
0.000000
 40
0.270107
 40
0.411160
 40
0.715644
 40
1.022213
 40
1.288212
 40
1.683441
 40
2.054032
 40
2.228732
 40
2.441017
 40
2.803662
 40
3.132722
 40
3.596949
 40
3.596949
 40
3.596949
 40
3.596949
 10
33.270642
 20
57.312806
 30
0.0
 10
33.368159
 20
57.342007
 30
0.0
 10
33.516601
 20
57.386459
 30
0.0
 10
33.535653
 20
57.660101
 30
0.0
 10
33.304245
 20
57.812338
 30
0.0
 10
33.097044
 20
58.028472
 30
0.0
 10
32.746331
 20
58.025273
 30
0.0
 10
32.447425
 20
57.845226
 30
0.0
 10
32.163658
 20
57.728960
 30
0.0
 10
31.999806
 20
57.473506
 30
0.0
 10
32.241398
 20
57.290181
 30
0.0
 10
32.480128
 20
57.129045
 30
0.0
 10
32.890441
 20
57.133269
 30
0.0
 10
33.130310
 20
57.246533
 30
0.0
 10
33.270679
 20
57.312814
 30
0.0
 11
33.270642
 21
57.312806
 31
0.0
 11
33.503854
 21
57.449076
 31
0.0
 11
33.516373
 21
57.589574
 31
0.0
 11
33.315725
 21
57.818594
 31
0.0
 11
33.066755
 21
57.997476
 31
0.0
 11
32.800941
 21
58.007382
 31
0.0
 11
32.437835
 21
57.851304
 31
0.0
 11
32.126071
 21
57.650952
 31
0.0
 11
32.050410
 21
57.493486
 31
0.0
 11
32.188378
 21
57.332149
 31
0.0
 11
32.506276
 21
57.157643
 31
0.0
 11
32.835283
 21
57.151765
 31
0.0
 11
33.270679
 21
57.312814
 31
0.0
  0
SPLINE
  5
159
100
AcDbEntity
  8
Layer_1
 62
7
100
AcDbSpline
 70
0
 71
3
 72
10
 73
6
 74
4
 40
0.000000
 40
0.000000
 40
0.000000
 40
0.000000
 40
1.171867
 40
2.502391
 40
4.128992
 40
4.128992
 40
4.128992
 40
4.128992
 10
13.550030
 20
54.129499
 30
0.0
 10
13.928470
 20
54.228201
 30
0.0
 10
14.736588
 20
54.438967
 30
0.0
 10
16.110689
 20
54.577854
 30
0.0
 10
17.096127
 20
54.594484
 30
0.0
 10
17.638178
 20
54.603632
 30
0.0
 11
13.550030
 21
54.129499
 31
0.0
 11
14.690760
 21
54.397842
 31
0.0
 11
16.012425
 21
54.551124
 31
0.0
 11
17.638178
 21
54.603632
 31
0.0
  0
LINE
  5
15a
100
AcDbEntity
  8
Layer_1
 62
7
100
AcDbLine
 10
11.403748
 20
53.880585
 30
0.0
 11
10.994938
 21
53.303575
 31
0.0
  0
LINE
  5
15b
100
AcDbEntity
  8
Layer_1
 62
7
100
AcDbLine
 10
10.994938
 20
53.303575
 30
0.0
 11
11.505946
 21
53.484291
 31
0.0
  0
SPLINE
  5
15c
100
AcDbEntity
  8
Layer_1
 62
7
100
AcDbSpline
 70
0
 71
3
 72
25
 73
21
 74
19
 40
0.000000
 40
0.000000
 40
0.000000
 40
0.000000
 40
1.552973
 40
2.488399
 40
3.005386
 40
3.313935
 40
3.617804
 40
3.863359
 40
4.051662
 40
4.203145
 40
4.317127
 40
4.995331
 40
6.501270
 40
8.733329
 40
10.625608
 40
11.652098
 40
12.620085
 40
13.722958
 40
14.676004
 40
15.777718
 40
15.777718
 40
15.777718
 40
15.777718
 10
17.638178
 20
54.603632
 30
0.0
 10
18.154472
 20
54.612798
 30
0.0
 10
18.981752
 20
54.627485
 30
0.0
 10
19.992082
 20
54.680790
 30
0.0
 10
20.543730
 20
54.915866
 30
0.0
 10
20.831382
 20
55.161382
 30
0.0
 10
21.094141
 20
55.284758
 30
0.0
 10
21.337504
 20
55.330592
 30
0.0
 10
21.531426
 20
55.342817
 30
0.0
 10
21.678311
 20
55.407092
 30
0.0
 10
21.822415
 20
55.721915
 30
0.0
 10
20.784030
 20
56.126515
 30
0.0
 10
19.575128
 20
56.326539
 30
0.0
 10
17.590849
 20
56.483198
 30
0.0
 10
15.910391
 20
56.568700
 30
0.0
 10
14.589434
 20
56.476296
 30
0.0
 10
13.677622
 20
55.958439
 30
0.0
 10
12.813234
 20
55.444107
 30
0.0
 10
12.025040
 20
54.732086
 30
0.0
 10
11.620600
 20
54.177787
 30
0.0
 10
11.403748
 20
53.880585
 30
0.0
 11
17.638178
 21
54.603632
 31
0.0
 11
19.190662
 21
54.642599
 31
0.0
 11
20.118949
 21
54.757951
 31
0.0
 11
20.590063
 21
54.970852
 31
0.0
 11
20.840589
 21
55.150961
 31
0.0
 11
21.115971
 21
55.279418
 31
0.0
 11
21.356587
 21
55.328417
 31
0.0
 11
21.542831
 21
55.356188
 31
0.0
 11
21.675669
 21
55.428998
 31
0.0
 11
21.726340
 21
55.531097
 31
0.0
 11
21.195540
 21
55.953249
 31
0.0
 11
19.726158
 21
56.283052
 31
0.0
 11
17.502725
 21
56.479093
 31
0.0
 11
15.611230
 21
56.533542
 31
0.0
 11
14.593577
 21
56.399137
 31
0.0
 11
13.721191
 21
55.979681
 31
0.0
 11
12.791844
 21
55.385845
 31
0.0
 11
12.085483
 21
54.746040
 31
0.0
 11
11.403748
 21
53.880585
 31
0.0
  0
LINE
  5
15d
100
AcDbEntity
  8
Layer_1
 62
7
100
AcDbLine
 10
13.550030
 20
54.129499
 30
0.0
 11
13.550030
 21
54.129499
 31
0.0
  0
SPLINE
  5
15e
100
AcDbEntity
  8
Layer_1
 62
7
100
AcDbSpline
 70
0
 71
3
 72
10
 73
6
 74
4
 40
0.000000
 40
0.000000
 40
0.000000
 40
0.000000
 40
0.492415
 40
1.262485
 40
2.143568
 40
2.143568
 40
2.143568
 40
2.143568
 10
11.505946
 20
53.484291
 30
0.0
 10
11.661648
 20
53.536244
 30
0.0
 10
12.060848
 20
53.669444
 30
0.0
 10
12.742923
 20
53.882447
 30
0.0
 10
13.269200
 20
54.043538
 30
0.0
 10
13.550030
 20
54.129499
 30
0.0
 11
11.505946
 21
53.484291
 31
0.0
 11
11.973436
 21
53.638971
 31
0.0
 11
12.707792
 21
53.870767
 31
0.0
 11
13.550030
 21
54.129499
 31
0.0
  0
LINE
  5
15f
100
AcDbEntity
  8
Layer_1
 62
7
100
AcDbLine
 10
14.214354
 20
53.541342
 30
0.0
 11
14.214354
 21
53.541342
 31
0.0
  0
SPLINE
  5
160
100
AcDbEntity
  8
Layer_1
 62
7
100
AcDbSpline
 70
0
 71
3
 72
16
 73
12
 74
10
 40
0.000000
 40
0.000000
 40
0.000000
 40
0.000000
 40
0.169807
 40
0.353395
 40
0.523209
 40
0.608484
 40
0.710349
 40
0.933329
 40
1.156351
 40
1.258200
 40
1.343488
 40
1.343488
 40
1.343488
 40
1.343488
 10
14.214354
 20
53.541342
 30
0.0
 10
14.160600
 20
53.559907
 30
0.0
 10
14.048731
 20
53.598544
 30
0.0
 10
13.867376
 20
53.587695
 30
0.0
 10
13.735794
 20
53.574072
 30
0.0
 10
13.606294
 20
53.467930
 30
0.0
 10
13.799188
 20
53.415354
 30
0.0
 10
13.958717
 20
53.421202
 30
0.0
 10
14.118931
 20
53.413753
 30
0.0
 10
14.310849
 20
53.470367
 30
0.0
 10
14.244563
 20
53.519122
 30
0.0
 10
14.214354
 20
53.541342
 30
0.0
 11
14.214354
 21
53.541342
 31
0.0
 11
14.050640
 21
53.586425
 31
0.0
 11
13.867052
 21
53.586425
 31
0.0
 11
13.703332
 21
53.541342
 31
0.0
 11
13.644686
 21
53.479437
 31
0.0
 11
13.736501
 21
53.435317
 31
0.0
 11
13.958845
 21
53.418496
 31
0.0
 11
14.181232
 21
53.435320
 31
0.0
 11
14.273027
 21
53.479443
 31
0.0
 11
14.214354
 21
53.541342
 31
0.0
  0
LINE
  5
161
100
AcDbEntity
  8
Layer_1
 62
7
100
AcDbLine
 10
15.334708
 20
53.792692
 30
0.0
 11
15.334708
 21
53.792373
 31
0.0
  0
SPLINE
  5
162
100
AcDbEntity
  8
Layer_1
 62
7
100
AcDbSpline
 70
0
 71
3
 72
16
 73
12
 74
10
 40
0.000000
 40
0.000000
 40
0.000000
 40
0.000000
 40
0.220277
 40
0.440608
 40
0.622669
 40
0.696226
 40
0.832245
 40
1.106918
 40
1.366991
 40
1.467394
 40
1.581307
 40
1.581307
 40
1.581307
 40
1.581307
 10
15.334708
 20
53.792373
 30
0.0
 10
15.262788
 20
53.809585
 30
0.0
 10
15.118931
 20
53.844013
 30
0.0
 10
14.910730
 20
53.826527
 30
0.0
 10
14.750956
 20
53.827764
 30
0.0
 10
14.640490
 20
53.694751
 30
0.0
 10
14.891557
 20
53.676902
 30
0.0
 10
15.075711
 20
53.673759
 30
0.0
 10
15.265258
 20
53.660488
 30
0.0
 10
15.481429
 20
53.736429
 30
0.0
 10
15.385628
 20
53.773166
 30
0.0
 10
15.334708
 20
53.792692
 30
0.0
 11
15.334708
 21
53.792373
 31
0.0
 11
15.118082
 21
53.832311
 31
0.0
 11
14.897774
 21
53.829154
 31
0.0
 11
14.721486
 21
53.783668
 31
0.0
 11
14.678775
 21
53.723782
 31
0.0
 11
14.808681
 21
53.683462
 31
0.0
 11
15.083089
 21
53.671404
 31
0.0
 11
15.342415
 21
53.691109
 31
0.0
 11
15.432813
 21
53.734800
 31
0.0
 11
15.334708
 21
53.792692
 31
0.0
  0
LINE
  5
163
100
AcDbEntity
  8
Layer_1
 62
7
100
AcDbLine
 10
18.705926
 20
54.045871
 30
0.0
 11
18.705926
 21
54.045786
 31
0.0
  0
SPLINE
  5
164
100
AcDbEntity
  8
Layer_1
 62
7
100
AcDbSpline
 70
0
 71
3
 72
16
 73
12
 74
10
 40
0.000000
 40
0.000000
 40
0.000000
 40
0.000000
 40
0.545678
 40
1.133162
 40
1.637546
 40
1.803840
 40
2.119673
 40
2.839165
 40
3.543193
 40
3.818771
 40
4.040108
 40
4.040108
 40
4.040108
 40
4.040108
 10
18.705926
 20
54.045786
 30
0.0
 10
18.526210
 20
54.060527
 30
0.0
 10
18.153011
 20
54.091139
 30
0.0
 10
17.579627
 20
54.072144
 30
0.0
 10
17.231822
 20
54.089961
 30
0.0
 10
16.783041
 20
53.972808
 30
0.0
 10
17.499535
 20
53.956517
 30
0.0
 10
17.932957
 20
53.951004
 30
0.0
 10
18.393635
 20
53.944659
 30
0.0
 10
19.048903
 20
53.990460
 30
0.0
 10
18.811618
 20
54.028795
 30
0.0
 10
18.705926
 20
54.045871
 30
0.0
 11
18.705926
 21
54.045786
 31
0.0
 11
18.161313
 21
54.079863
 31
0.0
 11
17.573829
 21
54.079323
 31
0.0
 11
17.070660
 21
54.044331
 31
0.0
 11
16.911363
 21
53.996600
 31
0.0
 11
17.225403
 21
53.962991
 31
0.0
 11
17.944791
 21
53.950749
 31
0.0
 11
18.648689
 21
53.964245
 31
0.0
 11
18.922132
 21
53.998490
 31
0.0
 11
18.705926
 21
54.045871
 31
0.0
  0
LINE
  5
165
100
AcDbEntity
  8
Layer_1
 62
7
100
AcDbLine
 10
23.565999
 20
54.792434
 30
0.0
 11
23.565999
 21
54.792434
 31
0.0
  0
SPLINE
  5
166
100
AcDbEntity
  8
Layer_1
 62
7
100
AcDbSpline
 70
0
 71
3
 72
16
 73
12
 74
10
 40
0.000000
 40
0.000000
 40
0.000000
 40
0.000000
 40
0.135518
 40
0.413427
 40
0.799999
 40
1.628173
 40
1.750510
 40
2.438086
 40
2.927448
 40
3.281909
 40
3.445641
 40
3.445641
 40
3.445641
 40
3.445641
 10
23.565999
 20
54.792434
 30
0.0
 10
23.532731
 20
54.824561
 30
0.0
 10
23.431241
 20
54.922570
 30
0.0
 10
23.140531
 20
54.918530
 30
0.0
 10
22.669521
 20
54.864556
 30
0.0
 10
22.145428
 20
54.990330
 30
0.0
 10
21.759437
 20
54.485556
 30
0.0
 10
22.629853
 20
54.648183
 30
0.0
 10
23.016892
 20
54.626386
 30
0.0
 10
23.389200
 20
54.645925
 30
0.0
 10
23.523549
 20
54.757257
 30
0.0
 10
23.565999
 20
54.792434
 30
0.0
 11
23.565999
 21
54.792434
 31
0.0
 11
23.460958
 21
54.878059
 31
0.0
 11
23.185578
 21
54.915463
 31
0.0
 11
22.799469
 21
54.896545
 31
0.0
 11
21.981569
 21
54.766494
 31
0.0
 11
21.909361
 21
54.667740
 31
0.0
 11
22.595062
 21
54.616997
 31
0.0
 11
23.084128
 21
54.634009
 31
0.0
 11
23.432945
 21
54.697014
 31
0.0
 11
23.565999
 21
54.792434
 31
0.0
  0
LINE
  5
167
100
AcDbEntity
  8
Layer_1
 62
7
100
AcDbLine
 10
24.957596
 20
56.380103
 30
0.0
 11
24.957596
 21
56.380261
 31
0.0
  0
SPLINE
  5
168
100
AcDbEntity
  8
Layer_1
 62
7
100
AcDbSpline
 70
0
 71
3
 72
28
 73
24
 74
22
 40
0.000000
 40
0.000000
 40
0.000000
 40
0.000000
 40
0.487158
 40
0.870484
 40
1.081352
 40
2.072536
 40
3.962623
 40
5.765660
 40
6.771943
 40
7.585290
 40
8.788342
 40
9.716222
 40
10.522243
 40
11.035748
 40
11.330716
 40
11.729077
 40
12.893329
 40
14.771807
 40
16.375960
 40
17.850917
 40
18.730799
 40
19.286149
 40
20.145278
 40
20.145278
 40
20.145278
 40
20.145278
 10
24.957596
 20
56.380261
 30
0.0
 10
25.109034
 20
56.441342
 30
0.0
 10
25.379634
 20
56.550484
 30
0.0
 10
25.694439
 20
56.709538
 30
0.0
 10
26.106893
 20
57.127183
 30
0.0
 10
24.699746
 20
57.887680
 30
0.0
 10
23.715345
 20
58.636824
 30
0.0
 10
22.190566
 20
59.307517
 30
0.0
 10
21.035825
 20
59.651552
 30
0.0
 10
20.013624
 20
59.637247
 30
0.0
 10
19.060681
 20
59.374968
 30
0.0
 10
18.123612
 20
59.133511
 30
0.0
 10
17.389818
 20
58.867871
 30
0.0
 10
16.939033
 20
58.722333
 30
0.0
 10
16.497304
 20
58.365279
 30
0.0
 10
17.429240
 20
58.233487
 30
0.0
 10
18.318382
 20
58.172229
 30
0.0
 10
19.983517
 20
57.968941
 30
0.0
 10
21.540809
 20
57.479695
 30
0.0
 10
22.711900
 20
56.848718
 30
0.0
 10
23.455101
 20
56.187650
 30
0.0
 10
24.248710
 20
56.072656
 30
0.0
 10
24.689729
 20
56.263928
 30
0.0
 10
24.957596
 20
56.380103
 30
0.0
 11
24.957596
 21
56.380261
 31
0.0
 11
25.406530
 21
56.569421
 31
0.0
 11
25.736989
 21
56.763676
 31
0.0
 11
25.877428
 21
56.920973
 31
0.0
 11
25.192325
 21
57.637269
 31
0.0
 11
23.586474
 21
58.634100
 31
0.0
 11
21.938655
 21
59.365971
 31
0.0
 11
20.963518
 21
59.614392
 31
0.0
 11
20.150176
 21
59.611419
 31
0.0
 11
18.974742
 21
59.355120
 31
0.0
 11
18.081034
 21
59.105624
 31
0.0
 11
17.317596
 21
58.847108
 31
0.0
 11
16.849701
 21
58.635538
 31
0.0
 11
16.644038
 21
58.424093
 31
0.0
 11
17.020289
 21
58.293223
 31
0.0
 11
18.178357
 21
58.173386
 31
0.0
 11
20.037022
 21
57.901275
 31
0.0
 11
21.566084
 21
57.416223
 31
0.0
 11
22.850578
 21
56.691260
 31
0.0
 11
23.586806
 21
56.209427
 31
0.0
 11
24.136197
 21
56.128294
 31
0.0
 11
24.957596
 21
56.380103
 31
0.0
  0
LINE
  5
169
100
AcDbEntity
  8
Layer_1
 62
7
100
AcDbLine
 10
27.014458
 20
57.347810
 30
0.0
 11
27.014458
 21
57.347810
 31
0.0
  0
SPLINE
  5
16a
100
AcDbEntity
  8
Layer_1
 62
7
100
AcDbSpline
 70
0
 71
3
 72
22
 73
18
 74
16
 40
0.000000
 40
0.000000
 40
0.000000
 40
0.000000
 40
1.545312
 40
3.360904
 40
4.266304
 40
4.469857
 40
4.999788
 40
5.746765
 40
6.619221
 40
7.480654
 40
8.149945
 40
8.652065
 40
9.072783
 40
9.333449
 40
9.445266
 40
9.758775
 40
10.279597
 40
10.279597
 40
10.279597
 40
10.279597
 10
27.014458
 20
57.347810
 30
0.0
 10
26.587498
 20
57.697889
 30
0.0
 10
25.658901
 20
58.459276
 30
0.0
 10
24.958553
 20
58.956968
 30
0.0
 10
23.231436
 20
59.898605
 30
0.0
 10
23.688265
 20
59.410927
 30
0.0
 10
24.076249
 20
59.175598
 30
0.0
 10
24.691443
 20
58.772905
 30
0.0
 10
25.374914
 20
58.320094
 30
0.0
 10
26.009773
 20
57.820980
 30
0.0
 10
26.492978
 20
57.358523
 30
0.0
 10
26.859776
 20
56.941586
 30
0.0
 10
27.142325
 20
56.752588
 30
0.0
 10
27.425541
 20
56.506130
 30
0.0
 10
27.561638
 20
56.754309
 30
0.0
 10
27.277028
 20
57.009418
 30
0.0
 10
27.115371
 20
57.217757
 30
0.0
 10
27.014458
 20
57.347810
 30
0.0
 11
27.014458
 21
57.347810
 31
0.0
 11
25.813253
 21
58.319970
 31
0.0
 11
24.292570
 21
59.311886
 31
0.0
 11
23.459551
 21
59.666611
 31
0.0
 11
23.596347
 21
59.515877
 31
0.0
 11
24.024679
 21
59.203854
 31
0.0
 11
24.651833
 21
58.798079
 31
0.0
 11
25.372980
 21
58.307033
 31
0.0
 11
26.047697
 21
57.771474
 31
0.0
 11
26.529916
 21
57.307345
 31
0.0
 11
26.880813
 21
56.948185
 31
0.0
 11
27.211271
 21
56.687798
 31
0.0
 11
27.449746
 21
56.582554
 31
0.0
 11
27.506949
 21
56.678632
 31
0.0
 11
27.352001
 21
56.951174
 31
0.0
 11
27.014458
 21
57.347810
 31
0.0
  0
LINE
  5
16b
100
AcDbEntity
  8
Layer_1
 62
7
100
AcDbLine
 10
30.515859
 20
57.227360
 30
0.0
 11
30.515859
 21
57.227360
 31
0.0
  0
SPLINE
  5
16c
100
AcDbEntity
  8
Layer_1
 62
7
100
AcDbSpline
 70
0
 71
3
 72
25
 73
21
 74
19
 40
0.000000
 40
0.000000
 40
0.000000
 40
0.000000
 40
0.781139
 40
2.104661
 40
3.256600
 40
4.442669
 40
5.974070
 40
7.103837
 40
7.254248
 40
7.742295
 40
8.594465
 40
9.544112
 40
10.449528
 40
11.121498
 40
11.757935
 40
12.299020
 40
13.108185
 40
13.707285
 40
14.139818
 40
14.329748
 40
14.329748
 40
14.329748
 40
14.329748
 10
30.515859
 20
57.227360
 30
0.0
 10
30.385136
 20
57.453810
 30
0.0
 10
30.032921
 20
58.063945
 30
0.0
 10
29.232740
 20
58.811455
 30
0.0
 10
28.350091
 20
59.663062
 30
0.0
 10
27.025942
 20
60.055762
 30
0.0
 10
25.978202
 20
60.063878
 30
0.0
 10
24.586374
 20
60.621100
 30
0.0
 10
24.493690
 20
59.968015
 30
0.0
 10
25.048561
 20
59.716966
 30
0.0
 10
25.604855
 20
59.279774
 30
0.0
 10
26.388530
 20
58.792940
 30
0.0
 10
27.045808
 20
58.268769
 30
0.0
 10
27.578068
 20
57.760254
 30
0.0
 10
27.955840
 20
57.250805
 30
0.0
 10
28.605371
 20
57.022312
 30
0.0
 10
29.260829
 20
57.024917
 30
0.0
 10
29.864681
 20
57.059253
 30
0.0
 10
30.289397
 20
57.073221
 30
0.0
 10
30.462914
 20
57.191324
 30
0.0
 10
30.515859
 20
57.227360
 30
0.0
 11
30.515859
 21
57.227360
 31
0.0
 11
30.100970
 21
57.889210
 31
0.0
 11
29.193871
 21
58.852994
 31
0.0
 11
28.300910
 21
59.580720
 31
0.0
 11
27.180290
 21
59.969269
 31
0.0
 11
25.672566
 21
60.237522
 31
0.0
 11
24.542861
 21
60.249350
 31
0.0
 11
24.526435
 21
60.099839
 31
0.0
 11
24.890040
 21
59.774291
 31
0.0
 11
25.599930
 21
59.302857
 31
0.0
 11
26.387052
 21
58.771569
 31
0.0
 11
27.096303
 21
58.208771
 31
0.0
 11
27.574129
 21
57.736302
 31
0.0
 11
28.017518
 21
57.279730
 31
0.0
 11
28.519741
 21
57.078372
 31
0.0
 11
29.327647
 21
57.033249
 31
0.0
 11
29.926156
 21
57.059849
 31
0.0
 11
30.353031
 21
57.129584
 31
0.0
 11
30.515859
 21
57.227360
 31
0.0
  0
ENDSEC
  0
SECTION
  2
OBJECTS
  0
DICTIONARY
  5
C
330
0
100
AcDbDictionary
  3
ACAD_GROUP
350
D
  3
ACAD_MLINESTYLE
350
17
  0
DICTIONARY
  5
D
330
C
100
AcDbDictionary
  0
DICTIONARY
  5
1A
330
C
100
AcDbDictionary
  0
DICTIONARY
  5
17
330
C
100
AcDbDictionary
  3
STANDARD
350
18
  0
DICTIONARY
  5
19
330
C
100
AcDbDictionary
  0
ENDSEC
  0
EOF
