  0
SECTION
  2
HEADER
  9
$ACADVER
  1
AC1014
  9
$HANDSEED
  5
FFFF
  9
$MEASUREMENT
 70
     1
  0
ENDSEC
  0
SECTION
  2
TABLES
  0
TABLE
  2
VPORT
  5
8
330
0
100
AcDbSymbolTable
 70
     4
  0
VPORT
  5
2E
330
8
100
AcDbSymbolTableRecord
100
AcDbViewportTableRecord
  2
*ACTIVE
 70
     0
 10
0.0
 20
0.0
 11
1.0
 21
1.0
 12
210.0
 22
148.5
 13
0.0
 23
0.0
 14
10.0
 24
10.0
 15
10.0
 25
10.0
 16
0.0
 26
0.0
 36
1.0
 17
0.0
 27
0.0
 37
0.0
 40
341.0
 41
1.24
 42
50.0
 43
0.0
 44
0.0
 50
0.0
 51
0.0
 71
     0
 72
   100
 73
     1
 74
     3
 75
     0
 76
     0
 77
     0
 78
     0
  0
ENDTAB
  0
TABLE
  2
LTYPE
  5
5
330
0
100
AcDbSymbolTable
 70
     1
  0
LTYPE
  5
14
330
5
100
AcDbSymbolTableRecord
100
AcDbLinetypeTableRecord
  2
BYBLOCK
 70
     0
  3

 72
    65
 73
     0
 40
0.0
  0
LTYPE
  5
15
330
5
100
AcDbSymbolTableRecord
100
AcDbLinetypeTableRecord
  2
BYLAYER
 70
     0
  3

 72
    65
 73
     0
 40
0.0
  0
LTYPE
  5
16
330
5
100
AcDbSymbolTableRecord
100
AcDbLinetypeTableRecord
  2
CONTINUOUS
 70
     0
  3
Solid line
 72
    65
 73
     0
 40
0.0
  0
ENDTAB
  0
TABLE
  2
LAYER
  5
2
100
AcDbSymbolTable
 70
1
  0
LAYER
  5
50
100
AcDbSymbolTableRecord
100
AcDbLayerTableRecord
  2
0
 70
0
  6
CONTINUOUS
  0
ENDTAB
  0
TABLE
  2
STYLE
  5
3
330
0
100
AcDbSymbolTable
 70
     1
  0
STYLE
  5
11
330
3
100
AcDbSymbolTableRecord
100
AcDbTextStyleTableRecord
  2
STANDARD
 70
     0
 40
0.0
 41
1.0
 50
0.0
 71
     0
 42
2.5
  3
txt
  4

  0
ENDTAB
  0
TABLE
  2
VIEW
  5
6
330
0
100
AcDbSymbolTable
 70
     0
  0
ENDTAB
  0
TABLE
  2
UCS
  5
7
330
0
100
AcDbSymbolTable
 70
     0
  0
ENDTAB
  0
TABLE
  2
APPID
  5
9
330
0
100
AcDbSymbolTable
 70
     2
  0
APPID
  5
12
330
9
100
AcDbSymbolTableRecord
100
AcDbRegAppTableRecord
  2
ACAD
 70
     0
  0
ENDTAB
  0
TABLE
  2
DIMSTYLE
  5
A
330
0
100
AcDbSymbolTable
 70
     1
  0
DIMSTYLE
105
27
330
A
100
AcDbSymbolTableRecord
100
AcDbDimStyleTableRecord
  2
ISO-25
 70
     0
  3

  4

  5

  6

  7

 40
1.0
 41
2.5
 42
0.625
 43
3.75
 44
1.25
 45
0.0
 46
0.0
 47
0.0
 48
0.0
140
2.5
141
2.5
142
0.0
143
0.03937007874016
144
1.0
145
0.0
146
1.0
147
0.625
 71
     0
 72
     0
 73
     0
 74
     0
 75
     0
 76
     0
 77
     1
 78
     8
170
     0
171
     3
172
     1
173
     0
174
     0
175
     0
176
     0
177
     0
178
     0
270
     2
271
     2
272
     2
273
     2
274
     3
340
11
275
     0
280
     0
281
     0
282
     0
283
     0
284
     8
285
     0
286
     0
287
     3
288
     0
  0
ENDTAB
  0
TABLE
  2
BLOCK_RECORD
  5
1
330
0
100
AcDbSymbolTable
 70
     1
  0
BLOCK_RECORD
  5
1F
330
1
100
AcDbSymbolTableRecord
100
AcDbBlockTableRecord
  2
*MODEL_SPACE
  0
BLOCK_RECORD
  5
1B
330
1
100
AcDbSymbolTableRecord
100
AcDbBlockTableRecord
  2
*PAPER_SPACE
  0
ENDTAB
  0
ENDSEC
  0
SECTION
  2
BLOCKS
  0
BLOCK
  5
20
330
1F
100
AcDbEntity
  8
0
100
AcDbBlockBegin
  2
*MODEL_SPACE
 70
     0
 10
0.0
 20
0.0
 30
0.0
  3
*MODEL_SPACE
  1

  0
ENDBLK
  5
21
330
1F
100
AcDbEntity
  8
0
100
AcDbBlockEnd
  0
BLOCK
  5
1C
330
1B
100
AcDbEntity
 67
     1
  8
0
100
AcDbBlockBegin
  2
*PAPER_SPACE
  1

  0
ENDBLK
  5
1D
330
1B
100
AcDbEntity
 67
     1
  8
0
100
AcDbBlockEnd
  0
ENDSEC
  0
SECTION
  2
ENTITIES
  0
LINE
  5
100
100
AcDbEntity
  8
0
 62
7
100
AcDbLine
 10
132.005586
 20
210.086883
 30
0.0
 11
132.005586
 21
207.715005
 31
0.0
  0
LINE
  5
101
100
AcDbEntity
  8
0
 62
7
100
AcDbLine
 10
132.005586
 20
207.715005
 30
0.0
 11
130.456119
 21
206.400355
 31
0.0
  0
SPLINE
  5
102
100
AcDbEntity
  8
0
 62
7
100
AcDbSpline
 70
0
 71
3
 72
19
 73
15
 74
13
 40
0.000000
 40
0.000000
 40
0.000000
 40
0.000000
 40
1.699946
 40
3.222374
 40
4.390493
 40
10.968277
 40
17.313140
 40
23.804153
 40
30.062746
 40
36.410552
 40
42.735897
 40
48.836734
 40
54.800595
 40
60.993782
 40
60.993782
 40
60.993782
 40
60.993782
 10
171.544810
 20
248.144439
 30
0.0
 10
170.978182
 20
248.140854
 30
0.0
 10
169.904098
 20
248.134059
 30
0.0
 10
168.440800
 20
248.090203
 30
0.0
 10
165.359968
 20
247.850457
 30
0.0
 10
160.726201
 20
246.933640
 30
0.0
 10
154.608820
 20
244.756737
 30
0.0
 10
149.014628
 20
241.659211
 30
0.0
 10
143.977613
 20
237.722582
 30
0.0
 10
139.704817
 20
233.039294
 30
0.0
 10
136.264420
 20
227.778022
 30
0.0
 10
133.777088
 20
222.150063
 30
0.0
 10
132.251663
 20
216.212938
 30
0.0
 10
132.088637
 20
212.154421
 30
0.0
 10
132.005586
 20
210.086883
 30
0.0
 11
171.544810
 21
248.144439
 31
0.0
 11
169.844957
 21
248.126618
 31
0.0
 11
168.323474
 21
248.072985
 31
0.0
 11
167.158789
 21
247.983485
 31
0.0
 11
160.695623
 21
246.760895
 31
0.0
 11
154.724287
 21
244.616032
 31
0.0
 11
149.043099
 21
241.476389
 31
0.0
 11
144.119398
 21
237.612822
 31
0.0
 11
139.834691
 21
232.929242
 31
0.0
 11
136.377827
 21
227.632065
 31
0.0
 11
133.918076
 21
222.049069
 31
0.0
 11
132.476027
 21
216.262176
 31
0.0
 11
132.005586
 21
210.086883
 31
0.0
  0
LINE
  5
103
100
AcDbEntity
  8
0
 62
7
100
AcDbLine
 10
125.488017
 20
103.914002
 30
0.0
 11
131.694702
 21
104.459154
 31
0.0
  0
LINE
  5
104
100
AcDbEntity
  8
0
 62
7
100
AcDbLine
 10
131.694702
 20
104.459154
 30
0.0
 11
132.820833
 21
103.928333
 31
0.0
  0
SPLINE
  5
105
100
AcDbEntity
  8
0
 62
7
100
AcDbSpline
 70
0
 71
3
 72
40
 73
36
 74
34
 40
0.000000
 40
0.000000
 40
0.000000
 40
0.000000
 40
13.316922
 40
26.568108
 40
39.680949
 40
45.983562
 40
52.589062
 40
58.936019
 40
64.140103
 40
69.224836
 40
74.285634
 40
75.091328
 40
75.694481
 40
75.965160
 40
76.662544
 40
78.017706
 40
79.374122
 40
81.014207
 40
83.108828
 40
86.046849
 40
96.062529
 40
104.206827
 40
110.912735
 40
115.795042
 40
119.791782
 40
123.236941
 40
125.113919
 40
127.349906
 40
129.994490
 40
134.574989
 40
139.760769
 40
146.550265
 40
152.583686
 40
159.626311
 40
169.693502
 40
169.693502
 40
169.693502
 40
169.693502
 10
130.456119
 20
206.400355
 30
0.0
 10
127.256262
 20
203.296388
 30
0.0
 10
120.872343
 20
197.103777
 30
0.0
 10
114.227083
 20
185.488118
 30
0.0
 10
110.812889
 20
175.050467
 30
0.0
 10
109.760640
 20
166.420078
 30
0.0
 10
109.637686
 20
159.993233
 30
0.0
 10
110.144830
 20
153.948295
 30
0.0
 10
111.209749
 20
148.500183
 30
0.0
 10
112.625400
 20
143.569148
 30
0.0
 10
113.950937
 20
140.182467
 30
0.0
 10
114.851562
 20
138.200498
 30
0.0
 10
115.038237
 20
137.693407
 30
0.0
 10
115.291923
 20
137.179767
 30
0.0
 10
114.456679
 20
136.641494
 30
0.0
 10
113.752099
 20
135.900493
 30
0.0
 10
112.541001
 20
135.023055
 30
0.0
 10
111.064247
 20
134.206858
 30
0.0
 10
108.997847
 20
133.360814
 30
0.0
 10
104.251001
 20
131.752074
 30
0.0
 10
97.636660
 20
129.326330
 30
0.0
 10
90.243781
 20
125.521377
 30
0.0
 10
84.957974
 20
121.520219
 30
0.0
 10
81.659233
 20
117.432727
 30
0.0
 10
80.177069
 20
113.486007
 30
0.0
 10
80.659123
 20
110.219773
 30
0.0
 10
82.218059
 20
108.189742
 30
0.0
 10
83.989046
 20
106.775577
 30
0.0
 10
86.758052
 20
105.247892
 30
0.0
 10
90.657225
 20
103.788027
 30
0.0
 10
96.132251
 20
102.913514
 30
0.0
 10
102.134679
 20
102.679923
 30
0.0
 10
108.758494
 20
102.683056
 30
0.0
 10
116.462996
 20
103.132552
 30
0.0
 10
122.144874
 20
103.624529
 30
0.0
 10
125.488017
 20
103.914002
 30
0.0
 11
130.456119
 21
206.400355
 31
0.0
 11
121.342601
 21
196.690349
 31
0.0
 11
114.623192
 21
185.269164
 31
0.0
 11
110.668593
 21
172.766855
 31
0.0
 11
109.877682
 21
166.514064
 31
0.0
 11
109.751639
 21
159.909767
 31
0.0
 11
110.302588
 21
153.586767
 31
0.0
 11
111.291653
 21
148.477536
 31
0.0
 11
112.701033
 21
143.592031
 31
0.0
 11
114.545291
 21
138.879241
 31
0.0
 11
114.866828
 21
138.140488
 31
0.0
 11
115.096136
 21
137.582625
 31
0.0
 11
115.183598
 21
137.326466
 31
0.0
 11
114.729377
 21
136.797290
 31
0.0
 11
113.703851
 21
135.911423
 31
0.0
 11
112.612729
 21
135.105620
 31
0.0
 11
111.181965
 21
134.303875
 31
0.0
 11
109.254007
 21
133.485087
 31
0.0
 11
106.484869
 21
132.503333
 31
0.0
 11
97.139433
 21
128.901017
 31
0.0
 11
89.947617
 21
125.079060
 31
0.0
 11
84.687613
 21
120.919545
 31
0.0
 11
81.717160
 21
117.044841
 31
0.0
 11
80.479914
 21
113.244426
 31
0.0
 11
81.084869
 21
109.852796
 31
0.0
 11
82.191820
 21
108.336978
 31
0.0
 11
83.913308
 21
106.910052
 31
0.0
 11
86.212274
 21
105.602924
 31
0.0
 11
90.502568
 21
103.998448
 31
0.0
 11
95.607750
 21
103.087718
 31
0.0
 11
102.387135
 21
102.717312
 31
0.0
 11
108.420524
 21
102.736527
 31
0.0
 11
115.453719
 21
103.100859
 31
0.0
 11
125.488017
 21
103.914002
 31
0.0
  0
LINE
  5
106
100
AcDbEntity
  8
0
 62
7
100
AcDbLine
 10
160.983524
 20
92.616844
 30
0.0
 11
160.983524
 21
92.616294
 31
0.0
  0
SPLINE
  5
107
100
AcDbEntity
  8
0
 62
7
100
AcDbSpline
 70
0
 71
3
 72
16
 73
12
 74
10
 40
0.000000
 40
0.000000
 40
0.000000
 40
0.000000
 40
6.479118
 40
12.562507
 40
17.800519
 40
18.071323
 40
18.273983
 40
18.692829
 40
22.985775
 40
27.631311
 40
32.428680
 40
32.428680
 40
32.428680
 40
32.428680
 10
132.820833
 20
103.928333
 30
0.0
 10
134.821864
 20
103.105605
 30
0.0
 10
138.701707
 20
101.510399
 30
0.0
 10
144.695837
 20
100.710201
 30
0.0
 10
148.411437
 20
100.622862
 30
0.0
 10
150.408082
 20
101.306502
 30
0.0
 10
150.633763
 20
101.059359
 30
0.0
 10
150.885613
 20
99.432537
 30
0.0
 10
152.686540
 20
96.693967
 30
0.0
 10
156.308407
 20
93.740422
 30
0.0
 10
159.408536
 20
92.995363
 30
0.0
 10
160.983524
 20
92.616844
 30
0.0
 11
132.820833
 21
103.928333
 31
0.0
 11
138.917142
 21
101.734254
 31
0.0
 11
144.927510
 21
100.794515
 31
0.0
 11
150.148284
 21
101.219110
 31
0.0
 11
150.416932
 21
101.253219
 31
0.0
 11
150.565759
 21
101.115664
 31
0.0
 11
150.692335
 21
100.716402
 31
0.0
 11
152.765517
 21
96.957239
 31
0.0
 11
156.416062
 21
94.084168
 31
0.0
 11
160.983524
 21
92.616844
 31
0.0
  0
LINE
  5
108
100
AcDbEntity
  8
0
 62
7
100
AcDbLine
 10
194.994059
 20
107.103884
 30
0.0
 11
196.806453
 21
107.803927
 31
0.0
  0
LINE
  5
109
100
AcDbEntity
  8
0
 62
7
100
AcDbLine
 10
196.806453
 20
107.803927
 30
0.0
 11
197.526340
 21
107.307834
 31
0.0
  0
SPLINE
  5
10a
100
AcDbEntity
  8
0
 62
7
100
AcDbSpline
 70
0
 71
3
 72
25
 73
21
 74
19
 40
0.000000
 40
0.000000
 40
0.000000
 40
0.000000
 40
1.037917
 40
1.527861
 40
1.863266
 40
2.520053
 40
3.120300
 40
3.959513
 40
7.136760
 40
10.022847
 40
12.786567
 40
13.519173
 40
14.660456
 40
17.584410
 40
19.599438
 40
21.564873
 40
23.988481
 40
31.673669
 40
39.047118
 40
46.760155
 40
46.760155
 40
46.760155
 40
46.760155
 10
160.983524
 20
92.616294
 30
0.0
 10
161.324454
 20
92.575188
 30
0.0
 10
161.826318
 20
92.514678
 30
0.0
 10
162.461029
 20
92.459176
 30
0.0
 10
162.920891
 20
92.647145
 30
0.0
 10
163.385417
 20
93.003748
 30
0.0
 10
163.356485
 20
93.787256
 30
0.0
 10
162.312646
 20
94.960558
 30
0.0
 10
160.984529
 20
96.868149
 30
0.0
 10
160.550537
 20
99.934723
 30
0.0
 10
161.345119
 20
101.945920
 30
0.0
 10
162.363931
 20
103.233306
 30
0.0
 10
164.123450
 20
103.053376
 30
0.0
 10
166.046954
 20
102.918095
 30
0.0
 10
168.364006
 20
102.721465
 30
0.0
 10
170.493782
 20
102.674348
 30
0.0
 10
174.520903
 20
102.721136
 30
0.0
 10
180.344051
 20
103.104876
 30
0.0
 10
187.826665
 20
104.551200
 30
0.0
 10
192.569342
 20
106.240316
 30
0.0
 10
194.994059
 20
107.103884
 30
0.0
 11
160.983524
 21
92.616294
 31
0.0
 11
162.014894
 21
92.499897
 31
0.0
 11
162.504837
 21
92.500121
 31
0.0
 11
162.819072
 21
92.617397
 31
0.0
 11
163.297070
 21
93.067826
 31
0.0
 11
163.306644
 21
93.667996
 31
0.0
 11
162.847184
 21
94.370260
 31
0.0
 11
161.166994
 21
97.066899
 31
0.0
 11
160.800550
 21
99.929628
 31
0.0
 11
161.805936
 21
102.503992
 31
0.0
 11
162.316267
 21
103.029609
 31
0.0
 11
163.453546
 21
103.125117
 31
0.0
 11
166.367796
 21
102.887089
 31
0.0
 11
168.377564
 21
102.741598
 31
0.0
 11
170.342258
 21
102.687605
 31
0.0
 11
172.765751
 21
102.711250
 31
0.0
 11
180.430253
 21
103.274738
 31
0.0
 11
187.663808
 21
104.704226
 31
0.0
 11
194.994059
 21
107.103884
 31
0.0
  0
SPLINE
  5
10b
100
AcDbEntity
  8
0
 62
7
100
AcDbSpline
 70
0
 71
3
 72
19
 73
15
 74
13
 40
0.000000
 40
0.000000
 40
0.000000
 40
0.000000
 40
2.084908
 40
4.535428
 40
7.119760
 40
8.100882
 40
9.602290
 40
11.299140
 40
13.575196
 40
16.595102
 40
19.705181
 40
29.350928
 40
35.580977
 40
41.603441
 40
41.603441
 40
41.603441
 40
41.603441
 10
197.526340
 20
107.307834
 30
0.0
 10
198.130301
 20
106.960451
 30
0.0
 10
199.444134
 20
106.204767
 30
0.0
 10
201.721634
 20
105.488562
 30
0.0
 10
203.686698
 20
105.070194
 30
0.0
 10
205.368592
 20
104.906790
 30
0.0
 10
206.756251
 20
104.785626
 30
0.0
 10
208.576257
 20
104.652378
 30
0.0
 10
210.900497
 20
104.476213
 30
0.0
 10
213.693027
 20
104.245522
 30
0.0
 10
218.932158
 20
103.793287
 30
0.0
 10
225.234623
 20
103.222851
 30
0.0
 10
232.522674
 20
102.762266
 30
0.0
 10
236.607682
 20
102.749497
 30
0.0
 10
238.615581
 20
102.743220
 30
0.0
 11
197.526340
 21
107.307834
 31
0.0
 11
199.367169
 21
106.328963
 31
0.0
 11
201.686888
 21
105.539057
 31
0.0
 11
204.220298
 21
105.028560
 31
0.0
 11
205.195922
 21
104.924833
 31
0.0
 11
206.691667
 21
104.794570
 31
0.0
 11
208.383629
 21
104.665859
 31
0.0
 11
210.653093
 21
104.492750
 31
0.0
 11
213.662916
 21
104.246177
 31
0.0
 11
216.761548
 21
103.979596
 31
0.0
 11
226.373515
 21
103.173042
 31
0.0
 11
232.593622
 21
102.821227
 31
0.0
 11
238.615581
 21
102.743220
 31
0.0
  0
LINE
  5
10c
100
AcDbEntity
  8
0
 62
7
100
AcDbLine
 10
228.549287
 20
136.541535
 30
0.0
 11
227.750576
 21
137.290088
 31
0.0
  0
LINE
  5
10d
100
AcDbEntity
  8
0
 62
7
100
AcDbLine
 10
227.750576
 20
137.290088
 30
0.0
 11
227.988701
 21
137.814843
 31
0.0
  0
SPLINE
  5
10e
100
AcDbEntity
  8
0
 62
7
100
AcDbSpline
 70
0
 71
3
 72
25
 73
21
 74
19
 40
0.000000
 40
0.000000
 40
0.000000
 40
0.000000
 40
3.914977
 40
6.356742
 40
8.131003
 40
11.964912
 40
15.187653
 40
18.178857
 40
22.175320
 40
25.267810
 40
28.068440
 40
31.005797
 40
34.360511
 40
38.190547
 40
44.881689
 40
53.103393
 40
63.516832
 40
66.765888
 40
69.299393
 40
71.543527
 40
71.543527
 40
71.543527
 40
71.543527
 10
238.615581
 20
102.743220
 30
0.0
 10
239.920431
 20
102.744829
 30
0.0
 10
242.039113
 20
102.747442
 30
0.0
 10
244.750443
 20
102.798008
 30
0.0
 10
247.424143
 20
103.039486
 30
0.0
 10
250.338156
 20
103.474441
 30
0.0
 10
253.602291
 20
104.260822
 30
0.0
 10
256.778438
 20
105.502987
 30
0.0
 10
259.743685
 20
107.124944
 30
0.0
 10
262.085443
 20
109.599060
 30
0.0
 10
262.770799
 20
112.594917
 30
0.0
 10
262.107053
 20
115.615467
 30
0.0
 10
260.478870
 20
118.607791
 30
0.0
 10
257.388576
 20
122.090278
 30
0.0
 10
252.307027
 20
125.807078
 30
0.0
 10
244.729760
 20
129.586789
 30
0.0
 10
237.845963
 20
132.029293
 30
0.0
 10
232.760012
 20
133.829444
 30
0.0
 10
230.344437
 20
135.028550
 30
0.0
 10
229.123011
 20
136.057990
 30
0.0
 10
228.549287
 20
136.541535
 30
0.0
 11
238.615581
 21
102.743220
 31
0.0
 11
242.530513
 21
102.762051
 31
0.0
 11
244.971164
 21
102.835786
 31
0.0
 11
246.738840
 21
102.988511
 31
0.0
 11
250.529164
 21
103.564971
 31
0.0
 11
253.654460
 21
104.351471
 31
0.0
 11
256.444090
 21
105.430947
 31
0.0
 11
259.880333
 21
107.471523
 31
0.0
 11
261.896235
 21
109.816652
 31
0.0
 11
262.554311
 21
112.538868
 31
0.0
 11
262.017045
 21
115.426673
 31
0.0
 11
260.458438
 21
118.397338
 31
0.0
 11
257.958277
 21
121.298781
 31
0.0
 11
252.637728
 21
125.356261
 31
0.0
 11
245.329745
 21
129.123194
 31
0.0
 11
235.596577
 21
132.825242
 31
0.0
 11
232.559194
 21
133.978789
 31
0.0
 11
230.318196
 21
135.160557
 31
0.0
 11
228.549287
 21
136.541535
 31
0.0
  0
LINE
  5
10f
100
AcDbEntity
  8
0
 62
7
100
AcDbLine
 10
230.350108
 20
143.740409
 30
0.0
 11
230.958650
 21
145.553907
 31
0.0
  0
LINE
  5
110
100
AcDbEntity
  8
0
 62
7
100
AcDbLine
 10
230.958650
 20
145.553907
 30
0.0
 11
232.332829
 21
146.417659
 31
0.0
  0
SPLINE
  5
111
100
AcDbEntity
  8
0
 62
7
100
AcDbSpline
 70
0
 71
3
 72
10
 73
6
 74
4
 40
0.000000
 40
0.000000
 40
0.000000
 40
0.000000
 40
2.159641
 40
4.429181
 40
6.380576
 40
6.380576
 40
6.380576
 40
6.380576
 10
227.988701
 20
137.814843
 30
0.0
 10
228.277432
 20
138.474301
 30
0.0
 10
228.869586
 20
139.826775
 30
0.0
 10
229.660070
 20
141.802006
 30
0.0
 10
230.131951
 20
143.127579
 30
0.0
 10
230.350108
 20
143.740409
 30
0.0
 11
227.988701
 21
137.814843
 31
0.0
 11
228.844569
 21
139.797654
 31
0.0
 11
229.684727
 21
141.905958
 31
0.0
 11
230.350108
 21
143.740409
 31
0.0
  0
LINE
  5
112
100
AcDbEntity
  8
0
 62
7
100
AcDbLine
 10
212.097716
 20
206.790617
 30
0.0
 11
210.948984
 21
207.735399
 31
0.0
  0
LINE
  5
113
100
AcDbEntity
  8
0
 62
7
100
AcDbLine
 10
210.948984
 20
207.735399
 30
0.0
 11
211.034424
 21
209.190057
 31
0.0
  0
SPLINE
  5
114
100
AcDbEntity
  8
0
 62
7
100
AcDbSpline
 70
0
 71
3
 72
46
 73
42
 74
40
 40
0.000000
 40
0.000000
 40
0.000000
 40
0.000000
 40
1.775169
 40
5.366460
 40
12.300784
 40
25.370293
 40
33.969408
 40
40.204403
 40
43.487086
 40
46.460124
 40
49.029370
 40
51.339550
 40
53.377786
 40
55.722118
 40
57.527562
 40
59.718804
 40
61.889929
 40
64.923911
 40
68.281564
 40
72.103924
 40
74.432780
 40
76.780784
 40
80.136269
 40
81.901030
 40
83.432963
 40
84.400813
 40
85.644737
 40
87.040684
 40
87.895436
 40
88.001035
 40
88.184503
 40
88.421120
 40
90.101416
 40
92.705896
 40
94.998164
 40
103.240438
 40
111.551576
 40
119.850105
 40
121.425857
 40
122.938083
 40
124.059950
 40
124.059950
 40
124.059950
 40
124.059950
 10
232.332829
 20
146.417659
 30
0.0
 10
232.811870
 20
146.765746
 30
0.0
 10
234.260045
 20
147.818035
 30
0.0
 10
237.230612
 20
150.657342
 30
0.0
 10
242.984349
 20
156.010850
 30
0.0
 10
249.876954
 20
162.603231
 30
0.0
 10
256.374434
 20
169.264686
 30
0.0
 10
260.176201
 20
173.976213
 30
0.0
 10
262.395078
 20
177.507970
 30
0.0
 10
263.625944
 20
180.193059
 30
0.0
 10
264.378987
 20
182.700624
 30
0.0
 10
264.441030
 20
185.093836
 30
0.0
 10
263.175019
 20
187.082225
 30
0.0
 10
261.249866
 20
188.028857
 30
0.0
 10
259.149480
 20
188.324653
 30
0.0
 10
257.086066
 20
188.309936
 30
0.0
 10
254.638576
 20
187.954197
 30
0.0
 10
251.901664
 20
187.116235
 30
0.0
 10
248.725223
 20
185.886045
 30
0.0
 10
245.867312
 20
184.509336
 30
0.0
 10
243.351204
 20
183.206586
 30
0.0
 10
241.032786
 20
181.865764
 30
0.0
 10
238.916512
 20
180.554092
 30
0.0
 10
237.026186
 20
179.396506
 30
0.0
 10
235.801423
 20
178.670984
 30
0.0
 10
234.728914
 20
178.043044
 30
0.0
 10
233.608995
 20
177.532134
 30
0.0
 10
232.549236
 20
177.295203
 30
0.0
 10
231.735812
 20
176.755893
 30
0.0
 10
231.406647
 20
176.978305
 30
0.0
 10
231.337170
 20
177.146357
 30
0.0
 10
231.146167
 20
177.813989
 30
0.0
 10
230.704294
 20
179.262332
 30
0.0
 10
229.976923
 20
181.327298
 30
0.0
 10
228.462303
 20
185.438867
 30
0.0
 10
225.633247
 20
191.078443
 30
0.0
 10
220.963659
 20
197.946929
 30
0.0
 10
216.866484
 20
202.447637
 30
0.0
 10
214.085523
 20
205.030312
 30
0.0
 10
213.049033
 20
205.976602
 30
0.0
 10
212.381865
 20
206.547479
 30
0.0
 10
212.097716
 20
206.790617
 30
0.0
 11
232.332829
 21
146.417659
 31
0.0
 11
233.753298
 21
147.482316
 31
0.0
 11
236.426180
 21
149.880873
 31
0.0
 11
241.481350
 21
154.627461
 31
0.0
 11
250.890191
 21
163.698611
 31
0.0
 11
256.810247
 21
169.935416
 31
0.0
 11
260.664192
 21
174.836667
 31
0.0
 11
262.384339
 21
177.632575
 31
0.0
 11
263.612767
 21
180.339958
 31
0.0
 11
264.286230
 21
182.819367
 31
0.0
 11
264.200298
 21
185.127949
 31
0.0
 11
263.117321
 21
186.854670
 31
0.0
 11
261.055556
 21
187.970473
 31
0.0
 11
259.274574
 21
188.266665
 31
0.0
 11
257.083343
 21
188.259576
 31
0.0
 11
254.934311
 21
187.950630
 31
0.0
 11
252.017563
 21
187.115390
 31
0.0
 11
248.886130
 21
185.903797
 31
0.0
 11
245.429154
 21
184.272922
 31
0.0
 11
243.365459
 21
183.193693
 31
0.0
 11
241.328670
 21
182.025526
 31
0.0
 11
238.463997
 21
180.278264
 31
0.0
 11
236.957161
 21
179.359662
 31
0.0
 11
235.640090
 21
178.577267
 31
0.0
 11
234.797865
 21
178.100411
 31
0.0
 11
233.660388
 21
177.596930
 31
0.0
 11
232.348788
 21
177.119045
 31
0.0
 11
231.520890
 21
176.906479
 31
0.0
 11
231.435059
 21
176.967995
 31
0.0
 11
231.347498
 21
177.129220
 31
0.0
 11
231.277253
 21
177.355170
 31
0.0
 11
230.786138
 21
178.962092
 31
0.0
 11
229.935906
 21
181.423885
 31
0.0
 11
229.130820
 21
183.570121
 31
0.0
 11
225.488539
 21
190.963960
 31
0.0
 11
220.805738
 21
197.830284
 31
0.0
 11
215.219799
 21
203.967292
 31
0.0
 11
214.068422
 21
205.043081
 31
0.0
 11
212.946781
 21
206.057355
 31
0.0
 11
212.097716
 21
206.790617
 31
0.0
  0
LINE
  5
115
100
AcDbEntity
  8
0
 62
7
100
AcDbLine
 10
171.544810
 20
248.144439
 30
0.0
 11
171.544810
 21
248.144439
 31
0.0
  0
SPLINE
  5
116
100
AcDbEntity
  8
0
 62
7
100
AcDbSpline
 70
0
 71
3
 72
16
 73
12
 74
10
 40
0.000000
 40
0.000000
 40
0.000000
 40
0.000000
 40
3.240219
 40
6.995745
 40
10.602541
 40
25.960779
 40
41.258081
 40
57.176415
 40
58.343441
 40
59.865403
 40
61.565254
 40
61.565254
 40
61.565254
 40
61.565254
 10
211.034424
 20
209.190057
 30
0.0
 10
211.037932
 20
210.271034
 30
0.0
 10
211.045505
 20
212.604900
 30
0.0
 10
210.593869
 20
216.119577
 30
0.0
 10
209.087754
 20
223.543530
 30
0.0
 10
203.660702
 20
234.060244
 30
0.0
 10
191.430636
 20
244.147804
 30
0.0
 10
180.831776
 20
247.605576
 30
0.0
 10
174.648132
 20
248.090388
 30
0.0
 10
173.185275
 20
248.133929
 30
0.0
 10
172.111396
 20
248.140809
 30
0.0
 10
171.544810
 20
248.144439
 30
0.0
 11
211.034424
 21
209.190057
 31
0.0
 11
210.979394
 21
212.429808
 31
0.0
 11
210.542147
 21
216.159794
 31
0.0
 11
209.803560
 21
219.690157
 31
0.0
 11
202.849311
 21
233.383729
 31
0.0
 11
191.108653
 21
243.190073
 31
0.0
 11
175.929174
 21
247.983485
 31
0.0
 11
174.765584
 21
248.072968
 31
0.0
 11
173.244566
 21
248.126567
 31
0.0
 11
171.544810
 21
248.144439
 31
0.0
  0
SPLINE
  5
117
100
AcDbEntity
  8
0
 62
7
100
AcDbSpline
 70
0
 71
3
 72
91
 73
87
 74
85
 40
0.000000
 40
0.000000
 40
0.000000
 40
0.000000
 40
3.109698
 40
6.246359
 40
9.415288
 40
17.380816
 40
25.398409
 40
33.313996
 40
42.129379
 40
50.725493
 40
59.295259
 40
61.045184
 40
62.121676
 40
64.222750
 40
66.988418
 40
70.156035
 40
73.174881
 40
82.014229
 40
90.649245
 40
99.418464
 40
103.523055
 40
107.569848
 40
111.905449
 40
119.688585
 40
127.399492
 40
135.262794
 40
136.356343
 40
136.702373
 40
137.951795
 40
142.736279
 40
148.345662
 40
154.890128
 40
155.662540
 40
156.246284
 40
156.516334
 40
156.643730
 40
156.854124
 40
157.106090
 40
157.660951
 40
158.209106
 40
158.711881
 40
159.446640
 40
160.571245
 40
162.069993
 40
167.433048
 40
172.161746
 40
176.351656
 40
179.323500
 40
182.156067
 40
185.090860
 40
187.550509
 40
190.389665
 40
194.173848
 40
200.456941
 40
205.654086
 40
210.500889
 40
214.113649
 40
217.631478
 40
220.591257
 40
222.133956
 40
223.828258
 40
225.163138
 40
226.305216
 40
227.457912
 40
228.409106
 40
231.343310
 40
235.350106
 40
240.100285
 40
243.174180
 40
246.590446
 40
252.046674
 40
257.822774
 40
263.242797
 40
272.286770
 40
276.289779
 40
279.917577
 40
282.384892
 40
283.992646
 40
285.367034
 40
286.210879
 40
292.177276
 40
297.626671
 40
304.508032
 40
307.072030
 40
310.327711
 40
313.877535
 40
313.877535
 40
313.877535
 40
313.877535
 10
170.990839
 20
246.276371
 30
0.0
 10
172.027903
 20
246.267213
 30
0.0
 10
174.111024
 20
246.248818
 30
0.0
 10
177.235738
 20
245.906768
 30
0.0
 10
181.918678
 20
245.052183
 30
0.0
 10
187.997732
 20
242.931482
 30
0.0
 10
194.871588
 20
238.795006
 30
0.0
 10
200.938128
 20
233.120044
 30
0.0
 10
205.698457
 20
226.024613
 30
0.0
 10
208.507483
 20
217.763663
 30
0.0
 10
209.463610
 20
211.483637
 30
0.0
 10
208.787412
 20
207.603603
 30
0.0
 10
209.599624
 20
206.086553
 30
0.0
 10
211.319887
 20
205.023141
 30
0.0
 10
213.245582
 20
203.164588
 30
0.0
 10
215.390781
 20
201.088322
 30
0.0
 10
218.782919
 20
197.400840
 30
0.0
 10
222.890659
 20
191.905649
 30
0.0
 10
227.002537
 20
184.144353
 30
0.0
 10
229.313143
 20
177.326024
 30
0.0
 10
230.558045
 20
171.819266
 30
0.0
 10
231.116080
 20
167.692662
 30
0.0
 10
231.431641
 20
162.291758
 30
0.0
 10
231.121098
 20
155.786695
 30
0.0
 10
229.946746
 20
147.608364
 30
0.0
 10
227.472422
 20
143.663101
 30
0.0
 10
226.919513
 20
139.544839
 30
0.0
 10
225.902174
 20
139.773089
 30
0.0
 10
225.779185
 20
142.338880
 30
0.0
 10
224.805970
 20
145.775791
 30
0.0
 10
226.203559
 20
151.584782
 30
0.0
 10
227.838344
 20
155.483674
 30
0.0
 10
229.125786
 20
157.817011
 30
0.0
 10
229.316879
 20
158.302138
 30
0.0
 10
229.519797
 20
158.605830
 30
0.0
 10
229.435160
 20
158.802091
 30
0.0
 10
229.332606
 20
158.966082
 30
0.0
 10
229.137876
 20
159.247146
 30
0.0
 10
228.745640
 20
159.506913
 30
0.0
 10
228.185263
 20
159.569149
 30
0.0
 10
227.633462
 20
159.265885
 30
0.0
 10
227.250415
 20
158.556344
 30
0.0
 10
226.693958
 20
157.594621
 30
0.0
 10
225.544853
 20
155.185487
 30
0.0
 10
224.108944
 20
151.589387
 30
0.0
 10
223.123477
 20
146.899922
 30
0.0
 10
223.173705
 20
142.896223
 30
0.0
 10
224.006807
 20
139.642375
 30
0.0
 10
225.392285
 20
137.046105
 30
0.0
 10
227.247107
 20
134.994616
 30
0.0
 10
229.441793
 20
133.323310
 30
0.0
 10
232.176286
 20
131.989092
 30
0.0
 10
236.238456
 20
130.570208
 30
0.0
 10
241.050921
 20
128.913591
 30
0.0
 10
246.061718
 20
126.777499
 30
0.0
 10
250.115982
 20
124.696484
 30
0.0
 10
253.485451
 20
122.538803
 30
0.0
 10
256.100617
 20
120.422999
 30
0.0
 10
258.033135
 20
118.547858
 30
0.0
 10
259.165929
 20
116.810628
 30
0.0
 10
259.871318
 20
115.462389
 30
0.0
 10
260.425316
 20
114.173940
 30
0.0
 10
260.562263
 20
112.960266
 30
0.0
 10
260.535940
 20
111.877674
 30
0.0
 10
260.151251
 20
110.213347
 30
0.0
 10
258.051701
 20
108.343341
 30
0.0
 10
254.620028
 20
106.564363
 30
0.0
 10
250.783407
 20
105.493524
 30
0.0
 10
247.088106
 20
104.868698
 30
0.0
 10
243.103641
 20
104.667409
 30
0.0
 10
238.222466
 20
104.686496
 30
0.0
 10
232.669482
 20
104.671192
 30
0.0
 10
225.932363
 20
105.080210
 30
0.0
 10
219.802080
 20
105.635947
 30
0.0
 10
214.263480
 20
106.103858
 30
0.0
 10
210.909079
 20
106.382854
 30
0.0
 10
208.348992
 20
106.581400
 30
0.0
 10
206.538056
 20
106.719211
 30
0.0
 10
205.266818
 20
106.831588
 30
0.0
 10
202.559322
 20
107.126351
 30
0.0
 10
198.444801
 20
108.338777
 30
0.0
 10
194.359785
 20
113.250531
 30
0.0
 10
193.234631
 20
118.209751
 30
0.0
 10
192.907192
 20
122.424905
 30
0.0
 10
192.886682
 20
125.552312
 30
0.0
 10
192.978747
 20
127.818725
 30
0.0
 10
193.026769
 20
129.000910
 30
0.0
 11
170.990839
 21
246.276371
 31
0.0
 11
174.099529
 21
246.197214
 31
0.0
 11
177.219201
 21
245.871191
 31
0.0
 11
180.335039
 21
245.293555
 31
0.0
 11
187.862964
 21
242.689715
 31
0.0
 11
194.729472
 21
238.550529
 31
0.0
 11
200.503454
 21
233.135952
 31
0.0
 11
205.383342
 21
225.794448
 31
0.0
 11
208.262509
 21
217.694844
 31
0.0
 11
209.026345
 21
209.159187
 31
0.0
 11
208.990325
 21
207.409633
 31
0.0
 11
209.476186
 21
206.449022
 31
0.0
 11
211.082379
 21
205.094527
 31
0.0
 11
213.149174
 21
203.256790
 31
0.0
 11
215.403925
 21
201.031955
 31
0.0
 11
217.449465
 21
198.811775
 31
0.0
 11
222.735938
 21
191.727476
 31
0.0
 11
226.770490
 21
184.092957
 31
0.0
 11
229.612032
 21
175.796883
 31
0.0
 11
230.502599
 21
171.790069
 31
0.0
 11
231.054002
 21
167.781019
 31
0.0
 11
231.309774
 21
163.452968
 31
0.0
 11
230.984624
 21
155.676627
 31
0.0
 11
229.579614
 21
148.094804
 31
0.0
 11
227.081952
 21
140.638719
 31
0.0
 11
226.610177
 21
139.652171
 31
0.0
 11
226.270904
 21
139.720218
 31
0.0
 11
225.830694
 21
140.889522
 31
0.0
 11
225.240728
 21
145.637492
 31
0.0
 11
226.240212
 21
151.157113
 31
0.0
 11
228.781901
 21
157.187855
 31
0.0
 11
229.136537
 21
157.874043
 31
0.0
 11
229.389381
 21
158.400187
 31
0.0
 11
229.485802
 21
158.652436
 31
0.0
 11
229.445052
 21
158.773139
 31
0.0
 11
229.338155
 21
158.954354
 31
0.0
 11
229.188145
 21
159.156798
 31
0.0
 11
228.727093
 21
159.465506
 31
0.0
 11
228.180851
 21
159.511270
 31
0.0
 11
227.735144
 21
159.278616
 31
0.0
 11
227.312603
 21
158.677509
 31
0.0
 11
226.766476
 21
157.694411
 31
0.0
 11
226.107405
 21
156.348354
 31
0.0
 11
224.186781
 21
151.341002
 31
0.0
 11
223.269891
 21
146.702048
 31
0.0
 11
223.372827
 21
142.513403
 31
0.0
 11
224.132806
 21
139.640375
 31
0.0
 11
225.469175
 21
137.142865
 31
0.0
 11
227.419848
 21
134.950177
 31
0.0
 11
229.380029
 21
133.464390
 31
0.0
 11
231.908433
 21
132.172885
 31
0.0
 11
235.452708
 21
130.846932
 31
0.0
 11
241.364504
 21
128.719040
 31
0.0
 11
246.142261
 21
126.673714
 31
0.0
 11
250.439149
 21
124.431338
 31
0.0
 11
253.471623
 21
122.467632
 31
0.0
 11
256.210438
 21
120.259916
 31
0.0
 11
258.261445
 21
118.125985
 31
0.0
 11
259.117250
 21
116.842429
 31
0.0
 11
259.906421
 21
115.343139
 31
0.0
 11
260.382520
 21
114.096049
 31
0.0
 11
260.535807
 21
112.964304
 31
0.0
 11
260.491205
 21
111.812472
 31
0.0
 11
260.258498
 21
110.890183
 31
0.0
 11
258.302933
 21
108.702645
 31
0.0
 11
254.781833
 21
106.790507
 31
0.0
 11
250.226932
 21
105.442520
 31
0.0
 11
247.193709
 21
104.944128
 31
0.0
 11
243.784436
 21
104.725659
 31
0.0
 11
238.328398
 21
104.680190
 31
0.0
 11
232.552546
 21
104.733822
 31
0.0
 11
227.140462
 21
105.027053
 31
0.0
 11
218.127461
 21
105.774905
 31
0.0
 11
214.138797
 21
106.113478
 31
0.0
 11
210.523213
 21
106.410915
 31
0.0
 11
208.063372
 21
106.602829
 31
0.0
 11
206.460550
 21
106.728652
 31
0.0
 11
205.091782
 21
106.852827
 31
0.0
 11
204.253372
 21
106.948441
 31
0.0
 11
198.621646
 21
108.918608
 31
0.0
 11
195.035235
 21
113.021480
 31
0.0
 11
193.157960
 21
119.641826
 31
0.0
 11
192.951673
 21
122.197512
 31
0.0
 11
192.911805
 21
125.452948
 31
0.0
 11
193.026769
 21
129.000910
 31
0.0
  0
SPLINE
  5
118
100
AcDbEntity
  8
0
 62
7
100
AcDbSpline
 70
0
 71
3
 72
10
 73
6
 74
4
 40
0.000000
 40
0.000000
 40
0.000000
 40
0.000000
 40
0.803080
 40
1.606120
 40
2.409200
 40
2.409200
 40
2.409200
 40
2.409200
 10
193.026769
 20
129.000910
 30
0.0
 10
192.797828
 20
128.862171
 30
0.0
 10
192.339957
 20
128.584698
 30
0.0
 10
191.643217
 20
128.185143
 30
0.0
 10
191.172486
 20
127.930096
 30
0.0
 10
190.937114
 20
127.802569
 30
0.0
 11
193.026769
 21
129.000910
 31
0.0
 11
192.338291
 21
128.587467
 31
0.0
 11
191.641669
 21
128.187980
 31
0.0
 11
190.937114
 21
127.802569
 31
0.0
  0
LINE
  5
119
100
AcDbEntity
  8
0
 62
7
100
AcDbLine
 10
151.324028
 20
113.025039
 30
0.0
 11
150.564452
 21
113.790676
 31
0.0
  0
LINE
  5
11a
100
AcDbEntity
  8
0
 62
7
100
AcDbLine
 10
150.564452
 20
113.790676
 30
0.0
 11
150.851085
 21
114.674275
 31
0.0
  0
SPLINE
  5
11b
100
AcDbEntity
  8
0
 62
7
100
AcDbSpline
 70
0
 71
3
 72
55
 73
51
 74
49
 40
0.000000
 40
0.000000
 40
0.000000
 40
0.000000
 40
0.894537
 40
1.839804
 40
2.848412
 40
5.632309
 40
7.400551
 40
8.934946
 40
11.032687
 40
12.932587
 40
14.700090
 40
16.181232
 40
17.817148
 40
18.984864
 40
19.195821
 40
19.363169
 40
19.453379
 40
19.739314
 40
20.453964
 40
21.444326
 40
26.435196
 40
31.436688
 40
36.816597
 40
38.489114
 40
40.692549
 40
44.109963
 40
47.643049
 40
49.270379
 40
49.585758
 40
49.815361
 40
50.350597
 40
51.076524
 40
52.313946
 40
52.956842
 40
53.413266
 40
53.922432
 40
54.623468
 40
55.787487
 40
60.351631
 40
64.884060
 40
69.207742
 40
69.797830
 40
70.222634
 40
70.391312
 40
70.500214
 40
70.740942
 40
71.061401
 40
72.183678
 40
73.609937
 40
75.013854
 40
75.013854
 40
75.013854
 40
75.013854
 10
190.937114
 20
127.802569
 30
0.0
 10
190.929972
 20
127.504473
 30
0.0
 10
190.915283
 20
126.891375
 30
0.0
 10
190.905060
 20
125.941939
 30
0.0
 10
190.902068
 20
124.362636
 30
0.0
 10
190.904806
 20
122.509470
 30
0.0
 10
190.982252
 20
120.479794
 30
0.0
 10
191.233248
 20
118.695615
 30
0.0
 10
191.571562
 20
116.881766
 30
0.0
 10
192.059258
 20
115.022043
 30
0.0
 10
192.607787
 20
113.391628
 30
0.0
 10
193.331907
 20
111.930087
 30
0.0
 10
194.056652
 20
110.697566
 30
0.0
 10
194.616881
 20
109.864573
 30
0.0
 10
194.978035
 20
109.486702
 30
0.0
 10
195.069549
 20
109.370271
 30
0.0
 10
195.177393
 20
109.191241
 30
0.0
 10
194.639443
 20
109.087827
 30
0.0
 10
194.180467
 20
108.797569
 30
0.0
 10
191.958180
 20
108.028531
 30
0.0
 10
188.604404
 20
106.840186
 30
0.0
 10
183.565566
 20
105.674870
 30
0.0
 10
179.603991
 20
105.035728
 30
0.0
 10
176.534324
 20
104.728465
 30
0.0
 10
174.090144
 20
104.688532
 30
0.0
 10
171.115492
 20
104.587530
 30
0.0
 10
167.997865
 20
104.908760
 30
0.0
 10
166.573973
 20
104.458676
 30
0.0
 10
165.526485
 20
104.948033
 30
0.0
 10
166.047376
 20
104.998999
 30
0.0
 10
166.447477
 20
105.072397
 30
0.0
 10
167.325660
 20
105.162572
 30
0.0
 10
168.147532
 20
105.258587
 30
0.0
 10
168.961058
 20
105.444902
 30
0.0
 10
169.243792
 20
105.949541
 30
0.0
 10
169.209989
 20
106.537131
 30
0.0
 10
168.668914
 20
107.158518
 30
0.0
 10
167.057941
 20
108.541906
 30
0.0
 10
163.968679
 20
110.210668
 30
0.0
 10
159.460219
 20
110.903324
 30
0.0
 10
156.327074
 20
110.329343
 30
0.0
 10
154.668691
 20
109.530056
 30
0.0
 10
154.333785
 20
109.439825
 30
0.0
 10
154.067806
 20
109.277699
 30
0.0
 10
153.998011
 20
109.474011
 30
0.0
 10
153.882758
 20
109.646627
 30
0.0
 10
153.631137
 20
110.161555
 30
0.0
 10
153.093091
 20
110.945560
 30
0.0
 10
152.286573
 20
111.992631
 30
0.0
 10
151.643183
 20
112.682719
 30
0.0
 10
151.324028
 20
113.025039
 30
0.0
 11
190.937114
 21
127.802569
 31
0.0
 11
190.917600
 21
126.908246
 31
0.0
 11
190.906640
 21
125.963042
 31
0.0
 11
190.903490
 21
124.954439
 31
0.0
 11
190.926131
 21
122.170634
 31
0.0
 11
191.017183
 21
120.404738
 31
0.0
 11
191.216579
 21
118.883354
 31
0.0
 11
191.609461
 21
116.822732
 31
0.0
 11
192.092059
 21
114.985147
 31
0.0
 11
192.678403
 21
113.317734
 31
0.0
 11
193.323670
 21
111.984537
 31
0.0
 11
194.151782
 21
110.573703
 31
0.0
 11
194.841924
 21
109.631757
 31
0.0
 11
194.983720
 21
109.475561
 31
0.0
 11
195.084953
 21
109.342305
 31
0.0
 11
195.123593
 21
109.260790
 31
0.0
 11
194.872334
 21
109.124306
 31
0.0
 11
194.213666
 21
108.847031
 31
0.0
 11
193.290252
 21
108.489090
 31
0.0
 11
188.551762
 21
106.922089
 31
0.0
 11
183.687517
 21
105.758454
 31
0.0
 11
178.373264
 21
104.920519
 31
0.0
 11
176.707890
 21
104.766097
 31
0.0
 11
174.505757
 21
104.690378
 31
0.0
 11
171.088403
 21
104.670270
 31
0.0
 11
167.555375
 21
104.690717
 31
0.0
 11
165.929977
 21
104.769961
 31
0.0
 11
165.661137
 21
104.934853
 31
0.0
 11
165.885258
 21
104.984721
 31
0.0
 11
166.415171
 21
105.060022
 31
0.0
 11
167.136188
 21
105.144313
 31
0.0
 11
168.361723
 21
105.315418
 31
0.0
 11
168.961171
 21
105.547748
 31
0.0
 11
169.192222
 21
105.941371
 31
0.0
 11
169.169405
 21
106.450025
 31
0.0
 11
168.768451
 21
107.025079
 31
0.0
 11
167.897968
 21
107.797865
 31
0.0
 11
163.879290
 21
109.961575
 31
0.0
 11
159.399976
 21
110.653428
 31
0.0
 11
155.168755
 21
109.764048
 31
0.0
 11
154.626843
 21
109.530521
 31
0.0
 11
154.232207
 21
109.373294
 31
0.0
 11
154.070183
 21
109.326384
 31
0.0
 11
154.014496
 21
109.419971
 31
0.0
 11
153.898798
 21
109.631073
 31
0.0
 11
153.748272
 21
109.913979
 31
0.0
 11
153.141937
 21
110.858365
 31
0.0
 11
152.265283
 21
111.983395
 31
0.0
 11
151.324028
 21
113.025039
 31
0.0
  0
SPLINE
  5
11c
100
AcDbEntity
  8
0
 62
7
100
AcDbSpline
 70
0
 71
3
 72
13
 73
9
 74
7
 40
0.000000
 40
0.000000
 40
0.000000
 40
0.000000
 40
1.738187
 40
3.859178
 40
5.833050
 40
8.180956
 40
11.297829
 40
14.302126
 40
14.302126
 40
14.302126
 40
14.302126
 10
150.851085
 20
114.674275
 30
0.0
 10
151.005803
 20
115.232889
 30
0.0
 10
151.349313
 20
116.473143
 30
0.0
 10
151.707054
 20
118.385601
 30
0.0
 10
152.036532
 20
120.510214
 30
0.0
 10
152.117181
 20
122.992183
 30
0.0
 10
152.146749
 20
125.814490
 30
0.0
 10
152.083317
 20
127.854262
 30
0.0
 10
152.052184
 20
128.855391
 30
0.0
 11
150.851085
 21
114.674275
 31
0.0
 11
151.293568
 21
116.355198
 31
0.0
 11
151.704881
 21
118.435925
 31
0.0
 11
151.981075
 21
120.390378
 31
0.0
 11
152.101429
 21
122.735197
 31
0.0
 11
152.125154
 21
125.851980
 31
0.0
 11
152.052184
 21
128.855391
 31
0.0
  0
SPLINE
  5
11d
100
AcDbEntity
  8
0
 62
7
100
AcDbSpline
 70
0
 71
3
 72
10
 73
6
 74
4
 40
0.000000
 40
0.000000
 40
0.000000
 40
0.000000
 40
0.833984
 40
1.667922
 40
2.501906
 40
2.501906
 40
2.501906
 40
2.501906
 10
152.052184
 20
128.855391
 30
0.0
 10
151.811610
 20
128.994706
 30
0.0
 10
151.330474
 20
129.273329
 30
0.0
 10
150.619384
 20
129.709283
 30
0.0
 10
150.152820
 20
130.011673
 30
0.0
 10
149.919532
 20
130.162873
 30
0.0
 11
152.052184
 21
128.855391
 31
0.0
 11
151.332231
 21
129.276339
 31
0.0
 11
150.621270
 21
129.712214
 31
0.0
 11
149.919532
 21
130.162873
 31
0.0
  0
LINE
  5
11e
100
AcDbEntity
  8
0
 62
7
100
AcDbLine
 10
132.338521
 20
205.447305
 30
0.0
 11
134.009805
 21
206.858966
 31
0.0
  0
LINE
  5
11f
100
AcDbEntity
  8
0
 62
7
100
AcDbLine
 10
134.009805
 20
206.858966
 30
0.0
 11
134.006497
 21
209.855373
 31
0.0
  0
SPLINE
  5
120
100
AcDbEntity
  8
0
 62
7
100
AcDbSpline
 70
0
 71
3
 72
103
 73
99
 74
97
 40
0.000000
 40
0.000000
 40
0.000000
 40
0.000000
 40
0.273380
 40
0.551761
 40
0.795785
 40
4.316626
 40
8.254271
 40
11.131310
 40
12.872276
 40
14.393998
 40
15.065036
 40
15.224436
 40
15.573131
 40
16.036620
 40
19.363363
 40
23.053859
 40
26.308158
 40
28.222328
 40
30.227397
 40
32.257865
 40
34.467691
 40
37.134515
 40
39.176620
 40
40.587199
 40
42.093860
 40
43.196535
 40
44.130513
 40
45.078090
 40
45.814740
 40
47.309131
 40
49.284344
 40
51.645336
 40
54.316078
 40
57.330146
 40
60.198973
 40
60.805230
 40
61.235462
 40
61.398728
 40
63.830164
 40
69.297435
 40
75.339142
 40
80.357250
 40
87.078774
 40
91.230797
 40
94.608868
 40
96.861781
 40
98.865877
 40
102.850846
 40
106.294997
 40
108.878993
 40
111.227095
 40
114.102705
 40
117.579984
 40
124.114342
 40
132.366042
 40
142.941340
 40
145.822694
 40
147.837352
 40
149.412312
 40
152.822179
 40
156.025747
 40
159.328042
 40
160.343530
 40
161.438024
 40
163.371262
 40
166.076580
 40
168.384143
 40
171.126283
 40
174.257053
 40
177.240499
 40
178.888485
 40
179.537243
 40
180.219523
 40
180.825423
 40
181.170449
 40
181.805668
 40
182.597444
 40
185.585392
 40
188.525795
 40
191.326729
 40
192.517874
 40
193.694149
 40
195.283842
 40
196.662388
 40
197.706474
 40
198.399292
 40
199.601331
 40
200.616330
 40
201.025818
 40
201.336588
 40
202.004664
 40
202.886533
 40
216.401261
 40
229.805940
 40
243.208407
 40
253.312442
 40
263.387913
 40
273.802895
 40
273.802895
 40
273.802895
 40
273.802895
 10
149.919532
 20
130.162873
 30
0.0
 10
149.927638
 20
130.072107
 30
0.0
 10
149.944000
 20
129.888915
 30
0.0
 10
149.969058
 20
129.624844
 30
0.0
 10
150.081975
 20
128.281690
 30
0.0
 10
150.114570
 20
125.716909
 30
0.0
 10
150.058131
 20
122.246181
 30
0.0
 10
149.872288
 20
119.464039
 30
0.0
 10
149.496255
 20
117.304654
 30
0.0
 10
149.098971
 20
116.388127
 30
0.0
 10
149.038350
 20
115.100143
 30
0.0
 10
148.658597
 20
115.338685
 30
0.0
 10
148.400211
 20
115.503163
 30
0.0
 10
147.262991
 20
116.318196
 30
0.0
 10
145.148455
 20
117.611387
 30
0.0
 10
142.083599
 20
119.158727
 30
0.0
 10
139.347965
 20
120.286395
 30
0.0
 10
137.037091
 20
120.914241
 30
0.0
 10
135.094229
 20
121.312534
 30
0.0
 10
133.034655
 20
121.636905
 30
0.0
 10
130.728591
 20
121.707764
 30
0.0
 10
128.425489
 20
121.652053
 30
0.0
 10
126.381999
 20
121.524692
 30
0.0
 10
124.772880
 20
121.124992
 30
0.0
 10
123.490377
 20
120.747337
 30
0.0
 10
122.361381
 20
120.376639
 30
0.0
 10
121.522862
 20
119.824561
 30
0.0
 10
120.870330
 20
119.247895
 30
0.0
 10
120.198870
 20
118.394930
 30
0.0
 10
120.178119
 20
116.896375
 30
0.0
 10
120.714305
 20
115.037343
 30
0.0
 10
121.827516
 20
112.955448
 30
0.0
 10
123.506338
 20
110.858284
 30
0.0
 10
125.472976
 20
108.784554
 30
0.0
 10
127.120385
 20
107.387182
 30
0.0
 10
128.155949
 20
106.586161
 30
0.0
 10
128.467251
 20
106.348832
 30
0.0
 10
129.189696
 20
105.556051
 30
0.0
 10
123.875312
 20
106.302174
 30
0.0
 10
121.108923
 20
105.209490
 30
0.0
 10
114.978001
 20
104.949567
 30
0.0
 10
109.209928
 20
104.707074
 30
0.0
 10
103.868598
 20
104.664202
 30
0.0
 10
99.118820
 20
104.582411
 30
0.0
 10
95.875397
 20
104.972508
 30
0.0
 10
93.350617
 20
105.301336
 30
0.0
 10
90.666995
 20
105.893549
 30
0.0
 10
87.659531
 20
106.896825
 30
0.0
 10
84.759747
 20
108.523886
 30
0.0
 10
82.611709
 20
110.516386
 30
0.0
 10
82.280979
 20
113.264819
 30
0.0
 10
83.264339
 20
116.047955
 30
0.0
 10
85.758766
 20
119.593383
 30
0.0
 10
90.546004
 20
123.481516
 30
0.0
 10
98.057165
 20
127.418465
 30
0.0
 10
104.858803
 20
129.925537
 30
0.0
 10
109.737673
 20
131.591794
 30
0.0
 10
111.743617
 20
132.393731
 30
0.0
 10
113.803196
 20
133.496512
 30
0.0
 10
116.002075
 20
135.155476
 30
0.0
 10
118.102721
 20
137.760101
 30
0.0
 10
119.089368
 20
140.088126
 30
0.0
 10
119.612759
 20
141.820955
 30
0.0
 10
119.708092
 20
143.172523
 30
0.0
 10
119.704290
 20
145.080682
 30
0.0
 10
119.693766
 20
147.400698
 30
0.0
 10
119.271116
 20
149.964196
 30
0.0
 10
118.456905
 20
152.559197
 30
0.0
 10
117.417121
 20
155.375622
 30
0.0
 10
116.195812
 20
157.512464
 30
0.0
 10
115.534162
 20
159.418582
 30
0.0
 10
114.461210
 20
159.575628
 30
0.0
 10
113.863003
 20
159.287044
 30
0.0
 10
113.523684
 20
158.754597
 30
0.0
 10
113.739248
 20
158.244178
 30
0.0
 10
113.963293
 20
157.708347
 30
0.0
 10
114.649611
 20
156.398161
 30
0.0
 10
115.629727
 20
154.387685
 30
0.0
 10
116.649931
 20
151.655515
 30
0.0
 10
117.261883
 20
149.424695
 30
0.0
 10
117.593202
 20
147.731829
 30
0.0
 10
117.696409
 20
146.414643
 30
0.0
 10
117.703624
 20
145.032405
 30
0.0
 10
117.688707
 20
143.696448
 30
0.0
 10
117.635178
 20
142.655155
 30
0.0
 10
117.496744
 20
141.693343
 30
0.0
 10
117.131985
 20
140.718232
 30
0.0
 10
116.899664
 20
140.072754
 30
0.0
 10
116.465851
 20
139.306592
 30
0.0
 10
116.268475
 20
139.919013
 30
0.0
 10
116.017566
 20
140.386812
 30
0.0
 10
114.105735
 20
145.226812
 30
0.0
 10
111.690448
 20
154.044106
 30
0.0
 10
111.401399
 20
167.696254
 30
0.0
 10
114.145538
 20
179.804024
 30
0.0
 10
118.893427
 20
189.997272
 30
0.0
 10
124.750784
 20
198.441193
 30
0.0
 10
129.781491
 20
203.086279
 30
0.0
 10
132.338521
 20
205.447305
 30
0.0
 11
149.919532
 21
130.162873
 31
0.0
 11
149.944100
 21
129.890599
 31
0.0
 11
149.969612
 21
129.613390
 31
0.0
 11
149.990088
 21
129.370226
 31
0.0
 11
150.096697
 21
125.851000
 31
0.0
 11
150.015342
 21
121.914195
 31
0.0
 11
149.776767
 21
119.047065
 31
0.0
 11
149.445902
 21
117.337827
 31
0.0
 11
149.092494
 21
115.857713
 31
0.0
 11
148.864506
 21
115.226592
 31
0.0
 11
148.722368
 21
115.298739
 31
0.0
 11
148.429419
 21
115.487866
 31
0.0
 11
148.049257
 21
115.753004
 31
0.0
 11
145.226484
 21
117.513452
 31
0.0
 11
141.933020
 21
119.178640
 31
0.0
 11
138.906800
 21
120.375494
 31
0.0
 11
137.062252
 21
120.887046
 31
0.0
 11
135.099306
 21
121.295885
 31
0.0
 11
133.089825
 21
121.587065
 31
0.0
 11
130.882159
 21
121.684739
 31
0.0
 11
128.215944
 21
121.627751
 31
0.0
 11
126.182549
 21
121.439342
 31
0.0
 11
124.807754
 21
121.123630
 31
0.0
 11
123.361847
 21
120.700099
 31
0.0
 11
122.330103
 21
120.311003
 31
0.0
 11
121.541405
 21
119.810733
 31
0.0
 11
120.838012
 21
119.175798
 31
0.0
 11
120.409118
 21
118.576880
 31
0.0
 11
120.242857
 21
117.091767
 31
0.0
 11
120.739032
 21
115.179890
 31
0.0
 11
121.833459
 21
113.087878
 31
0.0
 11
123.461376
 21
110.970628
 31
0.0
 11
125.543359
 21
108.791189
 31
0.0
 11
127.721541
 21
106.924187
 31
0.0
 11
128.200605
 21
106.552643
 31
0.0
 11
128.530083
 21
106.275978
 31
0.0
 11
128.638763
 21
106.154141
 31
0.0
 11
126.221360
 21
105.893277
 31
0.0
 11
120.774853
 21
105.417244
 31
0.0
 11
114.751996
 21
104.940365
 31
0.0
 11
109.737358
 21
104.753770
 31
0.0
 11
103.016721
 21
104.644634
 31
0.0
 11
98.864869
 21
104.682397
 31
0.0
 11
95.504099
 21
105.023845
 31
0.0
 11
93.274392
 21
105.346372
 31
0.0
 11
91.316528
 21
105.774355
 31
0.0
 11
87.549564
 21
107.074339
 31
0.0
 11
84.575889
 21
108.811992
 31
0.0
 11
82.841042
 21
110.727022
 31
0.0
 11
82.467323
 21
113.045192
 31
0.0
 11
83.301175
 21
115.797251
 31
0.0
 11
85.249853
 21
118.677202
 31
0.0
 11
90.194155
 21
122.949405
 31
0.0
 11
97.431033
 21
126.914018
 31
0.0
 11
107.286338
 21
130.749367
 31
0.0
 11
110.001899
 21
131.712655
 31
0.0
 11
111.862118
 21
132.486240
 31
0.0
 11
113.250486
 21
133.229835
 31
0.0
 11
115.957813
 21
135.302894
 31
0.0
 11
117.954550
 21
137.808066
 31
0.0
 11
119.302279
 21
140.822827
 31
0.0
 11
119.569380
 21
141.802557
 31
0.0
 11
119.678724
 21
142.891576
 31
0.0
 11
119.704115
 21
144.824648
 31
0.0
 11
119.615806
 21
147.528524
 31
0.0
 11
119.247316
 21
149.806475
 31
0.0
 11
118.472701
 21
152.436932
 31
0.0
 11
117.335804
 21
155.353983
 31
0.0
 11
116.047252
 21
158.044816
 31
0.0
 11
115.131232
 21
159.414766
 31
0.0
 11
114.489513
 21
159.510079
 31
0.0
 11
113.875940
 21
159.211694
 31
0.0
 11
113.602160
 21
158.671175
 31
0.0
 11
113.698659
 21
158.339919
 31
0.0
 11
113.951704
 21
157.757277
 31
0.0
 11
114.306615
 21
157.049501
 31
0.0
 11
115.593024
 21
154.352654
 31
0.0
 11
116.623164
 21
151.598606
 31
0.0
 11
117.356489
 21
148.895373
 31
0.0
 11
117.571367
 21
147.723770
 31
0.0
 11
117.673450
 21
146.551933
 31
0.0
 11
117.699344
 21
144.962451
 31
0.0
 11
117.676902
 21
143.584088
 31
0.0
 11
117.610363
 21
142.542124
 31
0.0
 11
117.500908
 21
141.858007
 31
0.0
 11
117.132588
 21
140.713787
 31
0.0
 11
116.729270
 21
139.782359
 31
0.0
 11
116.466276
 21
139.468490
 31
0.0
 11
116.319995
 21
139.742680
 31
0.0
 11
116.048680
 21
140.353184
 31
0.0
 11
115.711111
 21
141.167886
 31
0.0
 11
112.221707
 21
154.224376
 31
0.0
 11
111.947756
 21
167.626256
 31
0.0
 11
114.903030
 21
180.698840
 31
0.0
 11
119.150775
 21
189.866620
 31
0.0
 11
124.953628
 21
198.103246
 31
0.0
 11
132.338521
 21
205.447305
 31
0.0
  0
LINE
  5
121
100
AcDbEntity
  8
0
 62
7
100
AcDbLine
 10
170.990839
 20
246.276371
 30
0.0
 11
170.990839
 21
246.276371
 31
0.0
  0
SPLINE
  5
122
100
AcDbEntity
  8
0
 62
7
100
AcDbSpline
 70
0
 71
3
 72
16
 73
12
 74
10
 40
0.000000
 40
0.000000
 40
0.000000
 40
0.000000
 40
1.689231
 40
3.237874
 40
4.311857
 40
11.237652
 40
18.065439
 40
25.014810
 40
35.844458
 40
46.627628
 40
57.543297
 40
57.543297
 40
57.543297
 40
57.543297
 10
134.006497
 20
209.855373
 30
0.0
 10
134.010793
 20
210.418435
 30
0.0
 10
134.019027
 20
211.497698
 30
0.0
 10
134.065061
 20
212.934581
 30
0.0
 10
134.297004
 20
216.109789
 30
0.0
 10
135.442434
 20
220.966240
 30
0.0
 10
138.177939
 20
227.336444
 30
0.0
 10
142.874680
 20
234.130328
 30
0.0
 10
150.112834
 20
240.495507
 30
0.0
 10
160.097865
 20
245.251470
 30
0.0
 10
167.345096
 20
245.933349
 30
0.0
 10
170.990839
 20
246.276371
 30
0.0
 11
134.006497
 21
209.855373
 31
0.0
 11
134.026552
 21
211.544485
 31
0.0
 11
134.082579
 21
213.092114
 31
0.0
 11
134.162492
 21
214.163120
 31
0.0
 11
135.641407
 21
220.929170
 31
0.0
 11
138.360638
 21
227.192114
 31
0.0
 11
142.303940
 21
232.914362
 31
0.0
 11
150.415174
 21
240.089957
 31
0.0
 11
160.202032
 21
244.617006
 31
0.0
 11
170.990839
 21
246.276371
 31
0.0
  0
LINE
  5
123
100
AcDbEntity
  8
0
 62
7
100
AcDbLine
 10
186.395100
 20
236.760743
 30
0.0
 11
186.395100
 21
236.760743
 31
0.0
  0
SPLINE
  5
124
100
AcDbEntity
  8
0
 62
7
100
AcDbSpline
 70
0
 71
3
 72
34
 73
30
 74
28
 40
0.000000
 40
0.000000
 40
0.000000
 40
0.000000
 40
3.355244
 40
6.737779
 40
10.042275
 40
12.465273
 40
14.764013
 40
17.159233
 40
18.891103
 40
20.503050
 40
22.197391
 40
25.645589
 40
29.115034
 40
32.683944
 40
37.312353
 40
41.935220
 40
46.503810
 40
48.220945
 40
49.761356
 40
51.611552
 40
52.950389
 40
53.836085
 40
54.759335
 40
58.985153
 40
63.122254
 40
67.489875
 40
67.958984
 40
68.430178
 40
68.903638
 40
68.903638
 40
68.903638
 40
68.903638
 10
186.395100
 20
236.760743
 30
0.0
 10
185.275242
 20
236.647443
 30
0.0
 10
183.026416
 20
236.419922
 30
0.0
 10
179.956642
 20
234.921074
 30
0.0
 10
177.668953
 20
232.864395
 30
0.0
 10
176.215753
 20
230.589864
 30
0.0
 10
175.414263
 20
228.332221
 30
0.0
 10
175.222052
 20
226.181524
 30
0.0
 10
175.332210
 20
224.265971
 30
0.0
 10
175.728136
 20
222.623371
 30
0.0
 10
176.639581
 20
220.556091
 30
0.0
 10
178.384584
 20
218.211328
 30
0.0
 10
181.300493
 20
216.187816
 30
0.0
 10
185.055974
 20
214.963389
 30
0.0
 10
189.447086
 20
215.229930
 30
0.0
 10
193.697943
 20
217.302303
 30
0.0
 10
196.119420
 20
220.160774
 30
0.0
 10
197.216301
 20
222.538501
 30
0.0
 10
197.609145
 20
224.209271
 30
0.0
 10
197.633118
 20
225.791234
 30
0.0
 10
197.638259
 20
227.148512
 30
0.0
 10
197.525002
 20
228.196920
 30
0.0
 10
196.923155
 20
230.121103
 30
0.0
 10
195.432932
 20
232.921933
 30
0.0
 10
192.025724
 20
235.631059
 30
0.0
 10
189.096490
 20
236.531542
 30
0.0
 10
187.338536
 20
236.728938
 30
0.0
 10
186.867861
 20
236.758411
 30
0.0
 10
186.552939
 20
236.759965
 30
0.0
 10
186.395100
 20
236.760743
 30
0.0
 11
186.395100
 21
236.760743
 31
0.0
 11
183.082439
 21
236.227887
 31
0.0
 11
180.026152
 21
234.778524
 31
0.0
 11
177.581168
 21
232.555519
 31
0.0
 11
176.278352
 21
230.512584
 31
0.0
 11
175.518233
 21
228.343154
 31
0.0
 11
175.270473
 21
225.960782
 31
0.0
 11
175.387785
 21
224.232890
 31
0.0
 11
175.765949
 21
222.665929
 31
0.0
 11
176.440702
 21
221.111741
 31
0.0
 11
178.509939
 21
218.353422
 31
0.0
 11
181.347801
 21
216.357529
 31
0.0
 11
184.746965
 21
215.269961
 31
0.0
 11
189.368112
 21
215.529139
 31
0.0
 11
193.515584
 21
217.571043
 31
0.0
 11
196.480687
 21
221.046698
 31
0.0
 11
197.183824
 21
222.613270
 31
0.0
 11
197.535041
 21
224.113108
 31
0.0
 11
197.631623
 21
225.960782
 31
0.0
 11
197.608822
 21
227.299424
 31
0.0
 11
197.498708
 21
228.178249
 31
0.0
 11
197.242464
 21
229.065226
 31
0.0
 11
195.189868
 21
232.759058
 31
0.0
 11
191.969129
 21
235.355680
 31
0.0
 11
187.805108
 21
236.673650
 31
0.0
 11
187.338822
 21
236.725036
 31
0.0
 11
186.868509
 21
236.753851
 31
0.0
 11
186.395100
 21
236.760743
 31
0.0
  0
LINE
  5
125
100
AcDbEntity
  8
0
 62
7
100
AcDbLine
 10
156.162045
 20
236.744205
 30
0.0
 11
156.162045
 21
236.744205
 31
0.0
  0
SPLINE
  5
126
100
AcDbEntity
  8
0
 62
7
100
AcDbSpline
 70
0
 71
3
 72
28
 73
24
 74
22
 40
0.000000
 40
0.000000
 40
0.000000
 40
0.000000
 40
3.374664
 40
6.749112
 40
10.051337
 40
17.412864
 40
24.388763
 40
32.041171
 40
33.338692
 40
35.011295
 40
36.396420
 40
40.420384
 40
44.356221
 40
48.266973
 40
49.879810
 40
51.884686
 40
53.397065
 40
58.046128
 40
62.468130
 40
67.108470
 40
67.586560
 40
68.065630
 40
68.545777
 40
68.545777
 40
68.545777
 40
68.545777
 10
156.162045
 20
236.744205
 30
0.0
 10
155.038510
 20
236.604911
 30
0.0
 10
152.791511
 20
236.326332
 30
0.0
 10
149.756761
 20
234.741522
 30
0.0
 10
146.334137
 20
231.489195
 30
0.0
 10
144.392100
 20
225.304619
 30
0.0
 10
147.607558
 20
218.151205
 30
0.0
 10
152.719947
 20
215.326336
 30
0.0
 10
156.262044
 20
215.165431
 30
0.0
 10
157.713613
 20
215.237650
 30
0.0
 10
160.060959
 20
215.530684
 30
0.0
 10
162.977327
 20
216.877259
 30
0.0
 10
165.883951
 20
219.614913
 30
0.0
 10
167.443092
 20
222.491125
 30
0.0
 10
167.720424
 20
224.999021
 30
0.0
 10
167.753651
 20
226.708602
 30
0.0
 10
167.489971
 20
229.433304
 30
0.0
 10
165.677961
 20
232.648321
 30
0.0
 10
162.145267
 20
235.678662
 30
0.0
 10
158.979206
 20
236.579933
 30
0.0
 10
157.120939
 20
236.735911
 30
0.0
 10
156.641793
 20
236.753764
 30
0.0
 10
156.322080
 20
236.747394
 30
0.0
 10
156.162045
 20
236.744205
 30
0.0
 11
156.162045
 21
236.744205
 31
0.0
 11
152.843760
 21
236.129920
 31
0.0
 11
149.834072
 21
234.603920
 31
0.0
 11
147.460561
 21
232.308025
 31
0.0
 11
145.318472
 21
225.265047
 31
0.0
 11
148.090092
 21
218.863384
 31
0.0
 11
154.841332
 21
215.260592
 31
0.0
 11
156.136882
 21
215.189098
 31
0.0
 11
157.807757
 21
215.265104
 31
0.0
 11
159.179395
 21
215.457924
 31
0.0
 11
162.868086
 21
217.065979
 31
0.0
 11
165.732085
 21
219.765669
 31
0.0
 11
167.467469
 21
223.270298
 31
0.0
 11
167.684152
 21
224.868513
 31
0.0
 11
167.712539
 21
226.873188
 31
0.0
 11
167.539678
 21
228.375656
 31
0.0
 11
165.433136
 21
232.520081
 31
0.0
 11
162.041394
 21
235.357367
 31
0.0
 11
157.597410
 21
236.692942
 31
0.0
 11
157.120934
 21
236.732195
 31
0.0
 11
156.642165
 21
236.749190
 31
0.0
 11
156.162045
 21
236.744205
 31
0.0
  0
LINE
  5
127
100
AcDbEntity
  8
0
 62
7
100
AcDbLine
 10
186.581409
 20
234.844717
 30
0.0
 11
186.581409
 21
234.844717
 31
0.0
  0
SPLINE
  5
128
100
AcDbEntity
  8
0
 62
7
100
AcDbSpline
 70
0
 71
3
 72
34
 73
30
 74
28
 40
0.000000
 40
0.000000
 40
0.000000
 40
0.000000
 40
0.926261
 40
1.864385
 40
2.818332
 40
6.650364
 40
10.309420
 40
13.985133
 40
15.399946
 40
16.642101
 40
18.112827
 40
19.128142
 40
20.007035
 40
21.059906
 40
22.832206
 40
24.583085
 40
26.275229
 40
28.358542
 40
30.405264
 40
32.534389
 40
35.163208
 40
37.838687
 40
40.427838
 40
41.856850
 40
43.444414
 40
44.882196
 40
48.863666
 40
52.752263
 40
56.667331
 40
56.667331
 40
56.667331
 40
56.667331
 10
186.581409
 20
234.844717
 30
0.0
 10
186.890188
 20
234.833104
 30
0.0
 10
187.511698
 20
234.809730
 30
0.0
 10
188.440973
 20
234.654565
 30
0.0
 10
190.284744
 20
234.159910
 30
0.0
 10
192.817438
 20
232.748280
 30
0.0
 10
195.161079
 20
229.709602
 30
0.0
 10
195.765977
 20
226.761069
 30
0.0
 10
195.669866
 20
224.647215
 30
0.0
 10
195.346001
 20
223.299209
 30
0.0
 10
194.811372
 20
222.173185
 30
0.0
 10
194.294516
 20
221.175826
 30
0.0
 10
193.701575
 20
220.387009
 30
0.0
 10
192.828222
 20
219.511618
 30
0.0
 10
191.636573
 20
218.548735
 30
0.0
 10
190.093204
 20
217.724064
 30
0.0
 10
188.323849
 20
217.176017
 30
0.0
 10
186.373916
 20
216.995171
 30
0.0
 10
184.289707
 20
217.265032
 30
0.0
 10
182.133453
 20
218.023665
 30
0.0
 10
180.053657
 20
219.438869
 30
0.0
 10
178.367396
 20
221.491713
 30
0.0
 10
177.413948
 20
223.560656
 30
0.0
 10
177.204730
 20
225.429835
 30
0.0
 10
177.251167
 20
226.917678
 30
0.0
 10
177.676990
 20
229.227586
 30
0.0
 10
179.353715
 20
231.969992
 30
0.0
 10
182.642299
 20
234.389041
 30
0.0
 10
185.265407
 20
234.692482
 30
0.0
 10
186.581409
 20
234.844717
 30
0.0
 11
186.581409
 21
234.844717
 31
0.0
 11
187.506071
 21
234.790313
 31
0.0
 11
188.432212
 21
234.640849
 31
0.0
 11
189.353472
 21
234.393272
 31
0.0
 11
192.692837
 21
232.513613
 31
0.0
 11
194.900678
 21
229.595715
 31
0.0
 11
195.698511
 21
226.007634
 31
0.0
 11
195.619569
 21
224.595025
 31
0.0
 11
195.327001
 21
223.387816
 31
0.0
 11
194.737191
 21
222.040537
 31
0.0
 11
194.247659
 21
221.151031
 31
0.0
 11
193.722748
 21
220.446103
 31
0.0
 11
192.988187
 21
219.691811
 31
0.0
 11
191.599328
 21
218.590849
 31
0.0
 11
190.054242
 21
217.767268
 31
0.0
 11
188.437904
 21
217.266464
 31
0.0
 11
186.363689
 21
217.071985
 31
0.0
 11
184.333304
 21
217.330069
 31
0.0
 11
182.327132
 21
218.043125
 31
0.0
 11
180.152911
 21
219.520775
 31
0.0
 11
178.445745
 21
221.580818
 31
0.0
 11
177.424072
 21
223.959869
 31
0.0
 11
177.242970
 21
225.377359
 31
0.0
 11
177.294672
 21
226.964081
 31
0.0
 11
177.567937
 21
228.375656
 31
0.0
 11
179.569660
 21
231.817342
 31
0.0
 11
182.745541
 21
234.061216
 31
0.0
 11
186.581409
 21
234.844717
 31
0.0
  0
LINE
  5
129
100
AcDbEntity
  8
0
 62
7
100
AcDbLine
 10
156.429936
 20
234.833143
 30
0.0
 11
156.429936
 21
234.833143
 31
0.0
  0
SPLINE
  5
12a
100
AcDbEntity
  8
0
 62
7
100
AcDbSpline
 70
0
 71
3
 72
31
 73
27
 74
25
 40
0.000000
 40
0.000000
 40
0.000000
 40
0.000000
 40
0.195878
 40
0.393466
 40
0.592900
 40
3.659545
 40
6.640936
 40
9.595826
 40
13.464275
 40
17.252266
 40
21.142030
 40
22.633813
 40
24.018981
 40
25.491534
 40
27.056051
 40
28.786583
 40
30.343782
 40
35.384092
 40
40.121018
 40
44.916795
 40
47.364865
 40
49.903886
 40
52.401206
 40
53.854481
 40
55.210855
 40
56.553705
 40
56.553705
 40
56.553705
 40
56.553705
 10
156.429936
 20
234.833143
 30
0.0
 10
156.495230
 20
234.832826
 30
0.0
 10
156.626387
 20
234.832191
 30
0.0
 10
156.823954
 20
234.825999
 30
0.0
 10
157.976944
 20
234.768944
 30
0.0
 10
160.051213
 20
234.322284
 30
0.0
 10
162.690065
 20
232.794479
 30
0.0
 10
164.892189
 20
230.298458
 30
0.0
 10
166.047008
 20
226.819067
 30
0.0
 10
165.533030
 20
222.870961
 30
0.0
 10
163.765331
 20
220.245983
 30
0.0
 10
162.042923
 20
218.781177
 30
0.0
 10
160.798276
 20
218.026233
 30
0.0
 10
159.428079
 20
217.462099
 30
0.0
 10
157.863097
 20
217.143948
 30
0.0
 10
156.242355
 20
217.055126
 30
0.0
 10
153.468472
 20
217.317223
 30
0.0
 10
149.929546
 20
219.183072
 30
0.0
 10
147.175124
 20
223.436427
 30
0.0
 10
147.152383
 20
227.697472
 30
0.0
 10
148.603217
 20
230.661435
 30
0.0
 10
150.258643
 20
232.565174
 30
0.0
 10
152.080525
 20
233.784908
 30
0.0
 10
153.731313
 20
234.431557
 30
0.0
 10
155.080701
 20
234.774367
 30
0.0
 10
155.981696
 20
234.813617
 30
0.0
 10
156.429936
 20
234.833143
 30
0.0
 11
156.429936
 21
234.833143
 31
0.0
 11
156.625806
 21
234.831333
 31
0.0
 11
156.823305
 21
234.825426
 31
0.0
 11
157.022492
 21
234.815504
 31
0.0
 11
160.019021
 21
234.163484
 31
0.0
 11
162.595246
 21
232.662898
 31
0.0
 11
164.538863
 21
230.437202
 31
0.0
 11
165.756046
 21
226.765232
 31
0.0
 11
165.260470
 21
223.009799
 31
0.0
 11
163.129406
 21
219.755751
 31
0.0
 11
161.991328
 21
218.791284
 31
0.0
 11
160.807380
 21
218.072287
 31
0.0
 11
159.443428
 21
217.517266
 31
0.0
 11
157.913309
 21
217.191000
 31
0.0
 11
156.185316
 21
217.097294
 31
0.0
 11
154.636281
 21
217.256541
 31
0.0
 11
150.154989
 21
219.563648
 31
0.0
 11
147.626676
 21
223.569406
 31
0.0
 11
147.624823
 21
228.365183
 31
0.0
 11
148.677309
 21
230.575459
 31
0.0
 11
150.344098
 21
232.490776
 31
0.0
 11
152.421497
 21
233.876785
 31
0.0
 11
153.771902
 21
234.413827
 31
0.0
 11
155.091121
 21
234.729126
 31
0.0
 11
156.429936
 21
234.833143
 31
0.0
  0
LINE
  5
12b
100
AcDbEntity
  8
0
 62
7
100
AcDbLine
 10
159.531073
 20
227.153061
 30
0.0
 11
159.531073
 21
227.153061
 31
0.0
  0
SPLINE
  5
12c
100
AcDbEntity
  8
0
 62
7
100
AcDbSpline
 70
0
 71
3
 72
19
 73
15
 74
13
 40
0.000000
 40
0.000000
 40
0.000000
 40
0.000000
 40
1.715787
 40
3.292396
 40
4.937074
 40
6.228736
 40
7.486415
 40
8.774645
 40
11.318970
 40
13.658898
 40
16.125518
 40
17.301054
 40
18.437878
 40
19.678692
 40
19.678692
 40
19.678692
 40
19.678692
 10
159.531073
 20
227.153061
 30
0.0
 10
158.950597
 20
227.079675
 30
0.0
 10
157.836732
 20
226.938856
 30
0.0
 10
156.574802
 20
225.710864
 30
0.0
 10
156.195095
 20
224.184348
 30
0.0
 10
156.486988
 20
222.779229
 30
0.0
 10
157.254661
 20
221.707268
 30
0.0
 10
158.751479
 20
220.825761
 30
0.0
 10
161.033317
 20
220.913358
 30
0.0
 10
162.903141
 20
222.873155
 30
0.0
 10
162.752793
 20
225.109410
 30
0.0
 10
161.797080
 20
226.418017
 30
0.0
 10
160.747311
 20
227.056549
 30
0.0
 10
159.948136
 20
227.119966
 30
0.0
 10
159.531073
 20
227.153061
 30
0.0
 11
159.531073
 21
227.153061
 31
0.0
 11
157.863603
 21
226.748744
 31
0.0
 11
156.724512
 21
225.658714
 31
0.0
 11
156.307014
 21
224.067909
 31
0.0
 11
156.574721
 21
222.804293
 31
0.0
 11
157.306960
 21
221.781757
 31
0.0
 11
158.414861
 21
221.124419
 31
0.0
 11
160.956045
 21
221.250811
 31
0.0
 11
162.552528
 21
222.961513
 31
0.0
 11
162.428259
 21
225.425000
 31
0.0
 11
161.732289
 21
226.372372
 31
0.0
 11
160.755925
 21
226.954679
 31
0.0
 11
159.531073
 21
227.153061
 31
0.0
  0
LINE
  5
12d
100
AcDbEntity
  8
0
 62
7
100
AcDbLine
 10
183.987942
 20
227.153061
 30
0.0
 11
183.987942
 21
227.153061
 31
0.0
  0
SPLINE
  5
12e
100
AcDbEntity
  8
0
 62
7
100
AcDbSpline
 70
0
 71
3
 72
28
 73
24
 74
22
 40
0.000000
 40
0.000000
 40
0.000000
 40
0.000000
 40
1.128413
 40
2.163794
 40
3.243959
 40
4.179996
 40
5.169727
 40
6.104949
 40
6.976461
 40
7.929557
 40
8.803583
 40
9.649869
 40
10.613383
 40
11.432925
 40
12.608045
 40
13.764525
 40
14.927212
 40
15.720317
 40
16.456205
 40
17.276445
 40
18.108451
 40
18.981434
 40
19.907911
 40
19.907911
 40
19.907911
 40
19.907911
 10
183.987942
 20
227.153061
 30
0.0
 10
183.608936
 20
227.127399
 30
0.0
 10
182.882170
 20
227.078192
 30
0.0
 10
181.901624
 20
226.555718
 30
0.0
 10
181.199979
 20
225.790836
 30
0.0
 10
180.812244
 20
224.847988
 30
0.0
 10
180.719313
 20
223.889514
 30
0.0
 10
180.874949
 20
222.948623
 30
0.0
 10
181.393318
 20
222.166068
 30
0.0
 10
182.043216
 20
221.542657
 30
0.0
 10
182.817894
 20
221.062612
 30
0.0
 10
183.722477
 20
220.951038
 30
0.0
 10
184.597930
 20
220.986340
 30
0.0
 10
185.571030
 20
221.224571
 30
0.0
 10
186.417815
 20
221.902647
 30
0.0
 10
187.059613
 20
222.899919
 30
0.0
 10
187.253242
 20
223.944023
 30
0.0
 10
187.172705
 20
224.846634
 30
0.0
 10
186.877098
 20
225.583272
 30
0.0
 10
186.390563
 20
226.223959
 30
0.0
 10
185.728700
 20
226.758799
 30
0.0
 10
184.898531
 20
227.090950
 30
0.0
 10
184.297428
 20
227.131951
 30
0.0
 10
183.987942
 20
227.153061
 30
0.0
 11
183.987942
 21
227.153061
 31
0.0
 11
182.870700
 21
226.994680
 31
0.0
 11
181.951818
 21
226.517532
 31
0.0
 11
181.225252
 21
225.718246
 31
0.0
 11
180.863078
 21
224.855115
 31
0.0
 11
180.762394
 21
223.870518
 31
0.0
 11
180.942480
 21
222.952798
 31
0.0
 11
181.400056
 21
222.211073
 31
0.0
 11
182.086593
 21
221.549969
 31
0.0
 11
182.846926
 21
221.118907
 31
0.0
 11
183.681345
 21
220.977676
 31
0.0
 11
184.643783
 21
221.023213
 31
0.0
 11
185.433781
 21
221.241276
 31
0.0
 11
186.372451
 21
221.948244
 31
0.0
 11
186.988430
 21
222.927027
 31
0.0
 11
187.212551
 21
224.067909
 31
0.0
 11
187.131536
 21
224.856865
 31
0.0
 11
186.860604
 21
225.541063
 31
0.0
 11
186.369192
 21
226.197803
 31
0.0
 11
185.717768
 21
226.715376
 31
0.0
 11
184.907543
 21
227.040390
 31
0.0
 11
183.987942
 21
227.153061
 31
0.0
  0
LINE
  5
12f
100
AcDbEntity
  8
0
 62
7
100
AcDbLine
 10
142.443951
 20
195.654414
 30
0.0
 11
142.693650
 21
194.731129
 31
0.0
  0
LINE
  5
130
100
AcDbEntity
  8
0
 62
7
100
AcDbLine
 10
142.693650
 20
194.731129
 30
0.0
 11
141.789105
 21
193.787449
 31
0.0
  0
SPLINE
  5
131
100
AcDbEntity
  8
0
 62
7
100
AcDbSpline
 70
0
 71
3
 72
43
 73
39
 74
37
 40
0.000000
 40
0.000000
 40
0.000000
 40
0.000000
 40
2.556495
 40
5.658798
 40
9.373991
 40
19.173512
 40
23.568409
 40
25.127193
 40
28.669440
 40
31.932541
 40
35.145387
 40
36.874001
 40
38.713631
 40
40.114015
 40
40.488827
 40
40.977566
 40
41.653516
 40
46.495909
 40
51.222270
 40
55.861764
 40
57.558179
 40
58.494549
 40
59.246029
 40
59.801008
 40
60.377966
 40
61.271237
 40
64.342194
 40
67.352397
 40
70.339773
 40
71.781564
 40
73.024330
 40
73.568518
 40
73.754711
 40
74.203139
 40
74.817808
 40
76.332277
 40
77.918295
 40
79.385333
 40
79.385333
 40
79.385333
 40
79.385333
 10
180.271098
 20
213.592613
 30
0.0
 10
179.418932
 20
213.593440
 30
0.0
 10
177.532664
 20
213.595271
 30
0.0
 10
174.408024
 20
213.585928
 30
0.0
 10
168.868926
 20
213.574188
 30
0.0
 10
162.900059
 20
213.509591
 30
0.0
 10
157.647297
 20
213.547406
 30
0.0
 10
154.486622
 20
213.266024
 30
0.0
 10
151.817010
 20
212.358702
 30
0.0
 10
148.821412
 20
210.868210
 30
0.0
 10
146.649205
 20
209.158728
 30
0.0
 10
145.152397
 20
207.464678
 30
0.0
 10
144.124216
 20
206.155924
 30
0.0
 10
143.550356
 20
205.099530
 30
0.0
 10
143.162888
 20
204.444308
 30
0.0
 10
142.748029
 20
204.126445
 30
0.0
 10
141.021352
 20
203.126741
 30
0.0
 10
138.225350
 20
201.079903
 30
0.0
 10
135.344402
 20
197.253011
 30
0.0
 10
134.078633
 20
193.669662
 30
0.0
 10
133.687893
 20
191.366143
 30
0.0
 10
133.785184
 20
190.083734
 30
0.0
 10
134.601627
 20
189.818583
 30
0.0
 10
135.252564
 20
189.952231
 30
0.0
 10
135.640300
 20
190.567765
 30
0.0
 10
135.848345
 20
192.064691
 30
0.0
 10
136.388656
 20
194.338166
 30
0.0
 10
137.745144
 20
197.095734
 30
0.0
 10
139.250762
 20
198.989391
 30
0.0
 10
140.731533
 20
200.399080
 30
0.0
 10
141.349812
 20
200.836904
 30
0.0
 10
142.182911
 20
201.621914
 30
0.0
 10
142.149143
 20
201.135024
 30
0.0
 10
142.134854
 20
200.759417
 30
0.0
 10
142.044434
 20
199.880396
 30
0.0
 10
142.012527
 20
198.655481
 30
0.0
 10
142.122051
 20
197.126968
 30
0.0
 10
142.339475
 20
196.132345
 30
0.0
 10
142.443951
 20
195.654414
 30
0.0
 11
180.271098
 21
213.592613
 31
0.0
 11
177.714604
 21
213.593570
 31
0.0
 11
174.612307
 21
213.586948
 31
0.0
 11
170.897132
 21
213.575525
 31
0.0
 11
161.097713
 21
213.530739
 31
0.0
 11
156.703553
 21
213.450294
 31
0.0
 11
155.153320
 21
213.287240
 31
0.0
 11
151.765081
 21
212.254115
 31
0.0
 11
148.862715
 21
210.762773
 31
0.0
 11
146.348207
 21
208.762865
 31
0.0
 11
145.188456
 21
207.481037
 31
0.0
 11
144.083649
 21
206.010106
 31
0.0
 11
143.373850
 21
204.802935
 31
0.0
 11
143.166390
 21
204.490774
 31
0.0
 11
142.794794
 21
204.173313
 31
0.0
 11
142.220157
 21
203.817361
 31
0.0
 11
138.365603
 21
200.886289
 31
0.0
 11
135.537497
 21
197.099430
 31
0.0
 11
133.948068
 21
192.740689
 31
0.0
 11
133.737210
 21
191.057429
 31
0.0
 11
133.964665
 21
190.149105
 31
0.0
 11
134.665201
 21
189.877127
 31
0.0
 11
135.203021
 21
190.014065
 31
0.0
 11
135.546765
 21
190.477444
 31
0.0
 11
135.754951
 21
191.346116
 31
0.0
 11
136.505195
 21
194.324020
 31
0.0
 11
137.828336
 21
197.027836
 31
0.0
 11
139.681811
 21
199.370707
 31
0.0
 11
140.729616
 21
200.361094
 31
0.0
 11
141.683001
 21
201.158291
 31
0.0
 11
142.151255
 21
201.435561
 31
0.0
 11
142.157595
 21
201.249475
 31
0.0
 11
142.132283
 21
200.801763
 31
0.0
 11
142.080700
 21
200.189262
 31
0.0
 11
142.037234
 21
198.675416
 31
0.0
 11
142.163823
 21
197.094458
 31
0.0
 11
142.443951
 21
195.654414
 31
0.0
  0
SPLINE
  5
132
100
AcDbEntity
  8
0
 62
7
100
AcDbSpline
 70
0
 71
3
 72
13
 73
9
 74
7
 40
0.000000
 40
0.000000
 40
0.000000
 40
0.000000
 40
3.576538
 40
7.071162
 40
10.351518
 40
11.175441
 40
11.699662
 40
12.121930
 40
12.121930
 40
12.121930
 40
12.121930
 10
141.789105
 20
193.787449
 30
0.0
 10
141.017738
 20
192.872083
 30
0.0
 10
139.492672
 20
191.062316
 30
0.0
 10
138.004276
 20
187.920109
 30
0.0
 10
137.410558
 20
185.403310
 30
0.0
 10
137.328817
 20
183.894906
 30
0.0
 10
137.432269
 20
183.256884
 30
0.0
 10
137.725023
 20
183.102234
 30
0.0
 10
137.855633
 20
183.033238
 30
0.0
 11
141.789105
 21
193.787449
 31
0.0
 11
139.605051
 21
190.955218
 31
0.0
 11
138.091812
 21
187.805217
 31
0.0
 11
137.377178
 21
184.603650
 31
0.0
 11
137.361841
 21
183.779869
 31
0.0
 11
137.511066
 21
183.277336
 31
0.0
 11
137.855633
 21
183.033238
 31
0.0
  0
SPLINE
  5
133
100
AcDbEntity
  8
0
 62
7
100
AcDbSpline
 70
0
 71
3
 72
10
 73
6
 74
4
 40
0.000000
 40
0.000000
 40
0.000000
 40
0.000000
 40
1.119610
 40
2.239111
 40
3.358721
 40
3.358721
 40
3.358721
 40
3.358721
 10
137.855633
 20
183.033238
 30
0.0
 10
138.042450
 20
183.356336
 30
0.0
 10
138.416066
 20
184.002498
 30
0.0
 10
139.008933
 20
184.952557
 30
0.0
 10
139.425173
 20
185.572121
 30
0.0
 10
139.633302
 20
185.881919
 30
0.0
 11
137.855633
 21
183.033238
 31
0.0
 11
138.421490
 21
183.999330
 31
0.0
 11
139.014163
 21
184.949077
 31
0.0
 11
139.633302
 21
185.881919
 31
0.0
  0
LINE
  5
134
100
AcDbEntity
  8
0
 62
7
100
AcDbLine
 10
142.894843
 20
192.053876
 30
0.0
 11
143.535355
 21
192.780928
 31
0.0
  0
LINE
  5
135
100
AcDbEntity
  8
0
 62
7
100
AcDbLine
 10
143.535355
 20
192.780928
 30
0.0
 11
144.060664
 21
191.950247
 31
0.0
  0
SPLINE
  5
136
100
AcDbEntity
  8
0
 62
7
100
AcDbSpline
 70
0
 71
3
 72
10
 73
6
 74
4
 40
0.000000
 40
0.000000
 40
0.000000
 40
0.000000
 40
2.263757
 40
4.622968
 40
7.041715
 40
7.041715
 40
7.041715
 40
7.041715
 10
139.633302
 20
185.881919
 30
0.0
 10
139.846748
 20
186.607008
 30
0.0
 10
140.282638
 20
188.087762
 30
0.0
 10
141.395871
 20
190.177539
 30
0.0
 10
142.391052
 20
191.423256
 30
0.0
 10
142.894843
 20
192.053876
 30
0.0
 11
139.633302
 21
185.881919
 31
0.0
 11
140.344364
 21
188.031102
 31
0.0
 11
141.444931
 21
190.117876
 31
0.0
 11
142.894843
 21
192.053876
 31
0.0
  0
SPLINE
  5
137
100
AcDbEntity
  8
0
 62
7
100
AcDbSpline
 70
0
 71
3
 72
10
 73
6
 74
4
 40
0.000000
 40
0.000000
 40
0.000000
 40
0.000000
 40
0.177776
 40
0.358172
 40
0.540464
 40
0.540464
 40
0.540464
 40
0.540464
 10
144.060664
 20
191.950247
 30
0.0
 10
144.092582
 20
191.900318
 30
0.0
 10
144.156889
 20
191.799724
 30
0.0
 10
144.256703
 20
191.649734
 30
0.0
 10
144.325065
 20
191.550022
 30
0.0
 10
144.359424
 20
191.499905
 30
0.0
 11
144.060664
 21
191.950247
 31
0.0
 11
144.156872
 21
191.800754
 31
0.0
 11
144.256694
 21
191.650493
 31
0.0
 11
144.359424
 21
191.499905
 31
0.0
  0
SPLINE
  5
138
100
AcDbEntity
  8
0
 62
7
100
AcDbSpline
 70
0
 71
3
 72
10
 73
6
 74
4
 40
0.000000
 40
0.000000
 40
0.000000
 40
0.000000
 40
0.638397
 40
1.276774
 40
1.915171
 40
1.915171
 40
1.915171
 40
1.915171
 10
144.359424
 20
191.499905
 30
0.0
 10
144.513879
 20
191.646289
 30
0.0
 10
144.822784
 20
191.939053
 30
0.0
 10
145.294521
 20
192.369257
 30
0.0
 10
145.614434
 20
192.649950
 30
0.0
 10
145.774393
 20
192.790298
 30
0.0
 11
144.359424
 21
191.499905
 31
0.0
 11
144.824185
 21
191.937567
 31
0.0
 11
145.295872
 21
192.367725
 31
0.0
 11
145.774393
 21
192.790298
 31
0.0
  0
LINE
  5
139
100
AcDbEntity
  8
0
 62
7
100
AcDbLine
 10
145.379172
 20
193.453410
 30
0.0
 11
145.058915
 21
194.063056
 31
0.0
  0
LINE
  5
13a
100
AcDbEntity
  8
0
 62
7
100
AcDbLine
 10
145.058915
 20
194.063056
 30
0.0
 11
145.397361
 21
194.319923
 31
0.0
  0
SPLINE
  5
13b
100
AcDbEntity
  8
0
 62
7
100
AcDbSpline
 70
0
 71
3
 72
10
 73
6
 74
4
 40
0.000000
 40
0.000000
 40
0.000000
 40
0.000000
 40
0.269757
 40
0.528082
 40
0.772207
 40
0.772207
 40
0.772207
 40
0.772207
 10
145.774393
 20
192.790298
 30
0.0
 10
145.725736
 20
192.865916
 30
0.0
 10
145.630485
 20
193.013948
 30
0.0
 10
145.497816
 20
193.234628
 30
0.0
 10
145.417968
 20
193.381870
 30
0.0
 10
145.379172
 20
193.453410
 30
0.0
 11
145.774393
 21
192.790298
 31
0.0
 11
145.629604
 21
193.017905
 31
0.0
 11
145.497088
 21
193.239651
 31
0.0
 11
145.379172
 21
193.453410
 31
0.0
  0
SPLINE
  5
13c
100
AcDbEntity
  8
0
 62
7
100
AcDbSpline
 70
0
 71
3
 72
13
 73
9
 74
7
 40
0.000000
 40
0.000000
 40
0.000000
 40
0.000000
 40
0.996839
 40
2.313213
 40
3.515098
 40
4.433954
 40
5.323556
 40
6.217379
 40
6.217379
 40
6.217379
 40
6.217379
 10
145.397361
 20
194.319923
 30
0.0
 10
145.674575
 20
194.503394
 30
0.0
 10
146.317864
 20
194.929146
 30
0.0
 10
147.351449
 20
195.483453
 30
0.0
 10
148.378668
 20
195.992685
 30
0.0
 10
149.314736
 20
196.356454
 30
0.0
 10
150.172642
 20
196.634315
 30
0.0
 10
150.753096
 20
196.764038
 30
0.0
 10
151.044010
 20
196.829053
 30
0.0
 11
145.397361
 21
194.319923
 31
0.0
 11
146.235855
 21
194.859012
 31
0.0
 11
147.388429
 21
195.494945
 31
0.0
 11
148.471489
 21
196.016011
 31
0.0
 11
149.326878
 21
196.351579
 31
0.0
 11
150.174850
 21
196.620531
 31
0.0
 11
151.044010
 21
196.829053
 31
0.0
  0
SPLINE
  5
13d
100
AcDbEntity
  8
0
 62
7
100
AcDbSpline
 70
0
 71
3
 72
10
 73
6
 74
4
 40
0.000000
 40
0.000000
 40
0.000000
 40
0.000000
 40
1.592221
 40
3.184125
 40
4.776346
 40
4.776346
 40
4.776346
 40
4.776346
 10
151.044010
 20
196.829053
 30
0.0
 10
151.497218
 20
197.105342
 30
0.0
 10
152.403545
 20
197.657863
 30
0.0
 10
153.801807
 20
198.421003
 30
0.0
 10
154.756804
 20
198.884350
 30
0.0
 10
155.234349
 20
199.116047
 30
0.0
 11
151.044010
 21
196.829053
 31
0.0
 11
152.410091
 21
197.646971
 31
0.0
 11
153.807427
 21
198.409606
 31
0.0
 11
155.234349
 21
199.116047
 31
0.0
  0
LINE
  5
13e
100
AcDbEntity
  8
0
 62
7
100
AcDbLine
 10
144.296034
 20
201.912361
 30
0.0
 11
144.546836
 21
202.840057
 31
0.0
  0
LINE
  5
13f
100
AcDbEntity
  8
0
 62
7
100
AcDbLine
 10
144.546836
 20
202.840057
 30
0.0
 11
145.336728
 21
203.123382
 31
0.0
  0
SPLINE
  5
140
100
AcDbEntity
  8
0
 62
7
100
AcDbSpline
 70
0
 71
3
 72
22
 73
18
 74
16
 40
0.000000
 40
0.000000
 40
0.000000
 40
0.000000
 40
0.177820
 40
0.366324
 40
0.584886
 40
4.022443
 40
7.405984
 40
10.587134
 40
11.040649
 40
11.366517
 40
11.503248
 40
11.691176
 40
12.074729
 40
12.571587
 40
14.083037
 40
15.860685
 40
17.400054
 40
17.400054
 40
17.400054
 40
17.400054
 10
155.234349
 20
199.116047
 30
0.0
 10
155.175085
 20
199.117077
 30
0.0
 10
155.052995
 20
199.119200
 30
0.0
 10
154.858053
 20
199.121996
 30
0.0
 10
153.576495
 20
199.128809
 30
0.0
 10
151.230496
 20
198.901350
 30
0.0
 10
147.979814
 20
198.023051
 30
0.0
 10
145.916209
 20
196.955371
 30
0.0
 10
144.769493
 20
196.242013
 30
0.0
 10
144.525213
 20
196.107920
 30
0.0
 10
144.267092
 20
196.030983
 30
0.0
 10
144.254877
 20
196.346223
 30
0.0
 10
144.151767
 20
196.644617
 30
0.0
 10
144.007783
 20
197.456388
 30
0.0
 10
143.934959
 20
198.700591
 30
0.0
 10
143.993244
 20
200.321507
 30
0.0
 10
144.200056
 20
201.408095
 30
0.0
 10
144.296034
 20
201.912361
 30
0.0
 11
155.234349
 21
199.116047
 31
0.0
 11
155.056554
 21
199.119051
 31
0.0
 11
154.868068
 21
199.121590
 31
0.0
 11
154.649509
 21
199.122659
 31
0.0
 11
151.226803
 21
198.803458
 31
0.0
 11
147.968028
 21
197.893110
 31
0.0
 11
145.126716
 21
196.462495
 31
0.0
 11
144.738575
 21
196.227927
 31
0.0
 11
144.444906
 21
196.086686
 31
0.0
 11
144.309262
 21
196.069481
 31
0.0
 11
144.253353
 21
196.248899
 31
0.0
 11
144.168771
 21
196.623010
 31
0.0
 11
144.073894
 21
197.110725
 31
0.0
 11
143.961824
 21
198.618014
 31
0.0
 11
144.044019
 21
200.393761
 31
0.0
 11
144.296034
 21
201.912361
 31
0.0
  0
LINE
  5
141
100
AcDbEntity
  8
0
 62
7
100
AcDbLine
 10
198.876268
 20
196.741963
 30
0.0
 11
198.697122
 21
195.948763
 31
0.0
  0
LINE
  5
142
100
AcDbEntity
  8
0
 62
7
100
AcDbLine
 10
198.697122
 20
195.948763
 30
0.0
 11
198.081965
 21
196.355561
 31
0.0
  0
SPLINE
  5
143
100
AcDbEntity
  8
0
 62
7
100
AcDbSpline
 70
0
 71
3
 72
55
 73
51
 74
49
 40
0.000000
 40
0.000000
 40
0.000000
 40
0.000000
 40
2.197820
 40
4.557774
 40
6.960673
 40
7.415583
 40
7.722946
 40
8.021804
 40
8.789564
 40
9.493865
 40
10.540561
 40
12.089447
 40
13.977955
 40
15.565824
 40
16.103930
 40
16.483817
 40
16.626703
 40
17.271784
 40
18.519464
 40
19.803129
 40
22.435496
 40
25.099136
 40
27.989223
 40
29.448949
 40
33.458867
 40
43.101039
 40
53.876352
 40
58.847569
 40
61.397148
 40
64.778298
 40
68.171490
 40
71.397987
 40
71.771621
 40
71.876421
 40
72.047833
 40
74.567061
 40
77.404947
 40
79.147413
 40
79.579899
 40
80.097488
 40
80.555382
 40
80.848513
 40
81.370212
 40
82.772434
 40
85.367661
 40
87.776460
 40
89.290290
 40
90.800407
 40
93.193601
 40
95.414498
 40
95.414498
 40
95.414498
 40
95.414498
 10
145.336728
 20
203.123382
 30
0.0
 10
146.037819
 20
203.339190
 30
0.0
 10
147.491721
 20
203.786725
 30
0.0
 10
149.796662
 20
204.116649
 30
0.0
 10
151.537530
 20
204.191233
 30
0.0
 10
152.591478
 20
204.171034
 30
0.0
 10
152.944923
 20
204.267311
 30
0.0
 10
153.275161
 20
204.588336
 30
0.0
 10
153.581501
 20
205.212815
 30
0.0
 10
152.934576
 20
205.941613
 30
0.0
 10
151.817560
 20
206.103754
 30
0.0
 10
150.330446
 20
206.048006
 30
0.0
 10
148.653217
 20
205.911914
 30
0.0
 10
147.342465
 20
205.698361
 30
0.0
 10
146.512706
 20
205.506650
 30
0.0
 10
146.191263
 20
205.433825
 30
0.0
 10
145.732775
 20
205.419385
 30
0.0
 10
146.658180
 20
206.277044
 30
0.0
 10
147.062905
 20
206.873788
 30
0.0
 10
148.401850
 20
208.170707
 30
0.0
 10
150.106093
 20
209.459629
 30
0.0
 10
152.585914
 20
210.674705
 30
0.0
 10
154.816608
 20
211.408301
 30
0.0
 10
157.587115
 20
211.772283
 30
0.0
 10
162.633644
 20
211.689212
 30
0.0
 10
170.771415
 20
211.822134
 30
0.0
 10
179.229163
 20
211.776321
 30
0.0
 10
185.340273
 20
211.807676
 30
0.0
 10
188.943980
 20
211.224157
 30
0.0
 10
191.855257
 20
210.054759
 30
0.0
 10
194.690774
 20
208.298417
 30
0.0
 10
196.245459
 20
206.378839
 30
0.0
 10
197.031781
 20
205.565752
 30
0.0
 10
197.109473
 20
205.289381
 30
0.0
 10
195.868649
 20
205.902018
 30
0.0
 10
194.454945
 20
205.867017
 30
0.0
 10
192.096035
 20
205.976833
 30
0.0
 10
190.087843
 20
206.203741
 30
0.0
 10
189.645798
 20
205.355066
 30
0.0
 10
189.654196
 20
204.871297
 30
0.0
 10
189.827686
 20
204.472049
 30
0.0
 10
190.164619
 20
204.182969
 30
0.0
 10
190.942829
 20
204.196951
 30
0.0
 10
192.412459
 20
204.144994
 30
0.0
 10
194.591280
 20
203.976088
 30
0.0
 10
196.617527
 20
203.484340
 30
0.0
 10
198.573271
 20
202.975719
 30
0.0
 10
198.908984
 20
200.989087
 30
0.0
 10
199.134534
 20
199.029617
 30
0.0
 10
198.960187
 20
197.485291
 30
0.0
 10
198.876268
 20
196.741963
 30
0.0
 11
145.336728
 21
203.123382
 31
0.0
 11
147.452872
 21
203.716973
 31
0.0
 11
149.785371
 21
204.075904
 31
0.0
 11
152.186129
 21
204.177305
 31
0.0
 11
152.640636
 21
204.196457
 31
0.0
 11
152.933305
 21
204.290355
 31
0.0
 11
153.156818
 21
204.488742
 31
0.0
 11
153.420363
 21
205.209853
 31
0.0
 11
152.999385
 21
205.774492
 31
0.0
 11
151.990448
 21
206.053092
 31
0.0
 11
150.441601
 21
206.042004
 31
0.0
 11
148.560317
 21
205.876981
 31
0.0
 11
146.994231
 21
205.614874
 31
0.0
 11
146.469188
 21
205.497024
 31
0.0
 11
146.094719
 21
205.433092
 31
0.0
 11
145.951883
 21
205.436831
 31
0.0
 11
146.312306
 21
205.971832
 31
0.0
 11
147.139425
 21
206.905951
 31
0.0
 11
148.052014
 21
207.808711
 31
0.0
 11
150.155452
 21
209.391402
 31
0.0
 11
152.536643
 21
210.585095
 31
0.0
 11
155.297186
 21
211.440669
 31
0.0
 11
156.742941
 21
211.642145
 31
0.0
 11
160.751828
 21
211.733056
 31
0.0
 11
170.393871
 21
211.782973
 31
0.0
 11
181.169180
 21
211.791789
 31
0.0
 11
186.137774
 21
211.630316
 31
0.0
 11
188.649020
 21
211.189866
 31
0.0
 11
191.803047
 21
209.971553
 31
0.0
 11
194.631559
 21
208.097179
 31
0.0
 11
196.850550
 21
205.754882
 31
0.0
 11
197.061794
 21
205.446695
 31
0.0
 11
197.079106
 21
205.343335
 31
0.0
 11
196.912840
 21
205.385018
 31
0.0
 11
194.445741
 21
205.894860
 31
0.0
 11
191.611892
 21
206.046169
 31
0.0
 11
189.893112
 21
205.759843
 31
0.0
 11
189.693265
 21
205.376299
 31
0.0
 11
189.690471
 21
204.858718
 31
0.0
 11
189.885947
 21
204.444645
 31
0.0
 11
190.113208
 21
204.259502
 31
0.0
 11
190.630105
 21
204.188879
 31
0.0
 11
192.031826
 21
204.151397
 31
0.0
 11
194.615340
 21
203.905112
 31
0.0
 11
196.968403
 21
203.389934
 31
0.0
 11
198.348755
 21
202.768398
 31
0.0
 11
198.839568
 21
201.340267
 31
0.0
 11
199.048262
 21
198.956190
 31
0.0
 11
198.876268
 21
196.741963
 31
0.0
  0
SPLINE
  5
144
100
AcDbEntity
  8
0
 62
7
100
AcDbSpline
 70
0
 71
3
 72
13
 73
9
 74
7
 40
0.000000
 40
0.000000
 40
0.000000
 40
0.000000
 40
1.469739
 40
3.226012
 40
4.814811
 40
6.208392
 40
7.580038
 40
8.968753
 40
8.968753
 40
8.968753
 40
8.968753
 10
198.081965
 20
196.355561
 30
0.0
 10
197.658399
 20
196.602377
 30
0.0
 10
196.728692
 20
197.144128
 30
0.0
 10
195.259523
 20
197.796149
 30
0.0
 10
193.780884
 20
198.357316
 30
0.0
 10
192.372413
 20
198.715632
 30
0.0
 10
191.009351
 20
198.969089
 30
0.0
 10
190.091797
 20
199.044856
 30
0.0
 10
189.630183
 20
199.082973
 30
0.0
 11
198.081965
 21
196.355561
 31
0.0
 11
196.799922
 21
197.074240
 31
0.0
 11
195.202056
 21
197.803155
 31
0.0
 11
193.710278
 21
198.349856
 31
0.0
 11
192.362052
 21
198.702492
 31
0.0
 11
191.012044
 21
198.945168
 31
0.0
 11
189.630183
 21
199.082973
 31
0.0
  0
SPLINE
  5
145
100
AcDbEntity
  8
0
 62
7
100
AcDbSpline
 70
0
 71
3
 72
10
 73
6
 74
4
 40
0.000000
 40
0.000000
 40
0.000000
 40
0.000000
 40
2.370846
 40
4.740647
 40
7.111493
 40
7.111493
 40
7.111493
 40
7.111493
 10
189.630183
 20
199.082973
 30
0.0
 10
190.337427
 20
198.730006
 30
0.0
 10
191.751606
 20
198.024226
 30
0.0
 10
193.794246
 20
196.815881
 30
0.0
 10
195.093794
 20
195.916327
 30
0.0
 10
195.743711
 20
195.466451
 30
0.0
 11
189.630183
 21
199.082973
 31
0.0
 11
191.738782
 21
197.999129
 31
0.0
 11
193.778425
 21
196.792557
 31
0.0
 11
195.743711
 21
195.466451
 31
0.0
  0
SPLINE
  5
146
100
AcDbEntity
  8
0
 62
7
100
AcDbSpline
 70
0
 71
3
 72
16
 73
12
 74
10
 40
0.000000
 40
0.000000
 40
0.000000
 40
0.000000
 40
0.540179
 40
1.075982
 40
1.607234
 40
2.015111
 40
2.343117
 40
2.520392
 40
2.583801
 40
2.682843
 40
2.823535
 40
2.823535
 40
2.823535
 40
2.823535
 10
195.743711
 20
195.466451
 30
0.0
 10
195.903157
 20
195.382785
 30
0.0
 10
196.220755
 20
195.216132
 30
0.0
 10
196.683662
 20
194.945600
 30
0.0
 10
197.094468
 20
194.676191
 30
0.0
 10
197.450070
 20
194.446014
 30
0.0
 10
197.688116
 20
194.259584
 30
0.0
 10
197.870561
 20
194.182602
 30
0.0
 10
197.928284
 20
194.077933
 30
0.0
 10
197.903381
 20
193.973905
 30
0.0
 10
197.877324
 20
193.899477
 30
0.0
 10
197.862032
 20
193.855797
 30
0.0
 11
195.743711
 21
195.466451
 31
0.0
 11
196.220106
 21
195.211810
 31
0.0
 11
196.682419
 21
194.940977
 31
0.0
 11
197.129465
 21
194.653958
 31
0.0
 11
197.467974
 21
194.426417
 31
0.0
 11
197.740213
 21
194.243458
 31
0.0
 11
197.887387
 21
194.144635
 31
0.0
 11
197.915991
 21
194.088044
 31
0.0
 11
197.905716
 21
193.989536
 31
0.0
 11
197.862032
 21
193.855797
 31
0.0
  0
LINE
  5
147
100
AcDbEntity
  8
0
 62
7
100
AcDbLine
 10
199.331021
 20
192.532330
 30
0.0
 11
199.503549
 21
192.789748
 31
0.0
  0
LINE
  5
148
100
AcDbEntity
  8
0
 62
7
100
AcDbLine
 10
199.503549
 20
192.789748
 30
0.0
 11
199.905936
 21
192.333894
 31
0.0
  0
SPLINE
  5
149
100
AcDbEntity
  8
0
 62
7
100
AcDbSpline
 70
0
 71
3
 72
10
 73
6
 74
4
 40
0.000000
 40
0.000000
 40
0.000000
 40
0.000000
 40
0.659149
 40
1.318275
 40
1.977424
 40
1.977424
 40
1.977424
 40
1.977424
 10
197.862032
 20
193.855797
 30
0.0
 10
198.028154
 20
193.711992
 30
0.0
 10
198.360394
 20
193.424386
 30
0.0
 10
198.850146
 20
192.983150
 30
0.0
 10
199.170728
 20
192.682605
 30
0.0
 10
199.331021
 20
192.532330
 30
0.0
 11
197.862032
 21
193.855797
 31
0.0
 11
198.358964
 21
193.422744
 31
0.0
 11
198.848661
 21
192.981558
 31
0.0
 11
199.331021
 21
192.532330
 31
0.0
  0
SPLINE
  5
14a
100
AcDbEntity
  8
0
 62
7
100
AcDbSpline
 70
0
 71
3
 72
16
 73
12
 74
10
 40
0.000000
 40
0.000000
 40
0.000000
 40
0.000000
 40
0.565598
 40
1.127335
 40
1.685142
 40
1.685400
 40
1.685664
 40
1.685923
 40
4.129749
 40
6.572432
 40
9.016257
 40
9.016257
 40
9.016257
 40
9.016257
 10
199.905936
 20
192.333894
 30
0.0
 10
200.028852
 20
192.190975
 30
0.0
 10
200.273843
 20
191.906111
 30
0.0
 10
200.631920
 20
191.472675
 30
0.0
 10
200.834205
 20
191.157585
 30
0.0
 10
200.957276
 20
191.017394
 30
0.0
 10
200.957486
 20
191.017237
 30
0.0
 10
201.492659
 20
190.400091
 30
0.0
 10
202.636779
 20
189.242069
 30
0.0
 10
204.159707
 20
187.324653
 30
0.0
 10
205.087853
 20
185.986271
 30
0.0
 10
205.552034
 20
185.316924
 30
0.0
 11
199.905936
 21
192.333894
 31
0.0
 11
200.273312
 21
191.903852
 31
0.0
 11
200.623779
 21
191.464852
 31
0.0
 11
200.957104
 21
191.017590
 31
0.0
 11
200.957280
 21
191.017402
 31
0.0
 11
200.957480
 21
191.017229
 31
0.0
 11
200.957657
 21
191.017040
 31
0.0
 11
202.604818
 21
189.211730
 31
0.0
 11
204.137715
 21
187.309908
 31
0.0
 11
205.552034
 21
185.316924
 31
0.0
  0
LINE
  5
14b
100
AcDbEntity
  8
0
 62
7
100
AcDbLine
 10
201.271849
 20
193.687127
 30
0.0
 11
200.300607
 21
194.668290
 31
0.0
  0
LINE
  5
14c
100
AcDbEntity
  8
0
 62
7
100
AcDbLine
 10
200.300607
 20
194.668290
 30
0.0
 11
200.600468
 21
195.756939
 31
0.0
  0
SPLINE
  5
14d
100
AcDbEntity
  8
0
 62
7
100
AcDbSpline
 70
0
 71
3
 72
10
 73
6
 74
4
 40
0.000000
 40
0.000000
 40
0.000000
 40
0.000000
 40
3.181324
 40
6.369803
 40
9.528290
 40
9.528290
 40
9.528290
 40
9.528290
 10
205.552034
 20
185.316924
 30
0.0
 10
205.306546
 20
186.350829
 30
0.0
 10
204.815018
 20
188.420964
 30
0.0
 10
203.353460
 20
191.288755
 30
0.0
 10
201.963530
 20
192.890192
 30
0.0
 10
201.271849
 20
193.687127
 30
0.0
 11
205.552034
 21
185.316924
 31
0.0
 11
204.694456
 21
188.380482
 31
0.0
 11
203.243784
 21
191.219837
 31
0.0
 11
201.271849
 21
193.687127
 31
0.0
  0
LINE
  5
14e
100
AcDbEntity
  8
0
 62
7
100
AcDbLine
 10
180.271098
 20
213.592613
 30
0.0
 11
180.271098
 21
213.592613
 31
0.0
  0
SPLINE
  5
14f
100
AcDbEntity
  8
0
 62
7
100
AcDbSpline
 70
0
 71
3
 72
43
 73
39
 74
37
 40
0.000000
 40
0.000000
 40
0.000000
 40
0.000000
 40
1.646860
 40
3.531114
 40
5.017471
 40
5.386774
 40
5.647415
 40
5.751065
 40
5.967155
 40
6.455495
 40
7.111805
 40
10.850371
 40
14.546266
 40
18.190592
 40
18.666142
 40
19.050631
 40
19.338100
 40
19.845389
 40
20.353982
 40
20.892219
 40
21.236764
 40
21.580550
 40
22.179553
 40
27.262793
 40
32.392146
 40
37.541397
 40
38.315561
 40
38.840945
 40
39.298165
 40
41.512666
 40
44.111745
 40
46.608477
 40
48.377345
 40
50.360547
 40
52.275286
 40
54.203904
 40
56.776113
 40
61.840471
 40
61.840471
 40
61.840471
 40
61.840471
 10
200.600468
 20
195.756939
 30
0.0
 10
200.706182
 20
196.295806
 30
0.0
 10
200.932850
 20
197.451216
 30
0.0
 10
201.025274
 20
199.131771
 30
0.0
 10
200.975150
 20
200.366936
 30
0.0
 10
200.857060
 20
201.079965
 30
0.0
 10
200.821562
 20
201.300266
 30
0.0
 10
200.866233
 20
201.541255
 30
0.0
 10
201.161216
 20
201.239804
 30
0.0
 10
201.477079
 20
201.067267
 30
0.0
 10
202.803453
 20
199.971101
 30
0.0
 10
204.647442
 20
198.089727
 30
0.0
 10
206.518292
 20
194.810899
 30
0.0
 10
207.122290
 20
192.257572
 30
0.0
 10
207.337934
 20
190.770255
 30
0.0
 10
207.455672
 20
190.403845
 30
0.0
 10
207.669263
 20
190.064834
 30
0.0
 10
208.086438
 20
189.861646
 30
0.0
 10
208.626759
 20
189.889188
 30
0.0
 10
209.023327
 20
190.153145
 30
0.0
 10
209.303538
 20
190.469469
 30
0.0
 10
209.354999
 20
190.911912
 30
0.0
 10
209.096955
 20
192.895951
 30
0.0
 10
208.118599
 20
196.436272
 30
0.0
 10
205.181778
 20
200.736353
 30
0.0
 10
202.210648
 20
203.026366
 30
0.0
 10
200.332175
 20
204.057154
 30
0.0
 10
199.860764
 20
204.423975
 30
0.0
 10
199.341216
 20
205.366435
 30
0.0
 10
198.426537
 20
206.864150
 30
0.0
 10
196.782476
 20
208.679513
 30
0.0
 10
195.079917
 20
210.223131
 30
0.0
 10
193.289074
 20
211.300401
 30
0.0
 10
191.587758
 20
212.127205
 30
0.0
 10
189.762249
 20
212.793186
 30
0.0
 10
187.698523
 20
213.386273
 30
0.0
 10
184.500478
 20
213.584975
 30
0.0
 10
181.957518
 20
213.589568
 30
0.0
 10
180.271098
 20
213.592613
 30
0.0
 11
200.600468
 21
195.756939
 31
0.0
 11
200.882456
 21
197.379477
 31
0.0
 11
200.999083
 21
199.260118
 31
0.0
 11
200.909702
 21
200.743786
 31
0.0
 11
200.852601
 21
201.108648
 31
0.0
 11
200.837342
 21
201.368842
 31
0.0
 11
200.867258
 21
201.468081
 31
0.0
 11
201.053022
 21
201.357690
 31
0.0
 11
201.446317
 21
201.068214
 31
0.0
 11
201.961970
 21
200.662204
 31
0.0
 11
204.546162
 21
197.960570
 31
0.0
 11
206.356561
 21
194.738444
 31
0.0
 11
207.272379
 21
191.211067
 31
0.0
 11
207.356685
 21
190.743049
 31
0.0
 11
207.482902
 21
190.379868
 31
0.0
 11
207.643897
 21
190.141710
 31
0.0
 11
208.093010
 21
189.905830
 31
0.0
 11
208.600972
 21
189.931160
 31
0.0
 11
209.059969
 21
190.212266
 31
0.0
 11
209.271206
 21
190.484461
 31
0.0
 11
209.334417
 21
190.822386
 31
0.0
 11
209.285967
 21
191.419426
 31
0.0
 11
207.868024
 21
196.300899
 31
0.0
 11
204.986854
 21
200.544614
 31
0.0
 11
200.933953
 21
203.720898
 31
0.0
 11
200.270292
 21
204.119500
 31
0.0
 11
199.872204
 21
204.462361
 31
0.0
 11
199.625921
 21
204.847582
 31
0.0
 11
198.440952
 21
206.718373
 31
0.0
 11
196.728808
 21
208.673822
 31
0.0
 11
194.843025
 21
210.310126
 31
0.0
 11
193.339129
 21
211.241357
 31
0.0
 11
191.554002
 21
212.105307
 31
0.0
 11
189.758616
 21
212.770751
 31
0.0
 11
187.895081
 21
213.267546
 31
0.0
 11
185.334873
 21
213.515728
 31
0.0
 11
180.271098
 21
213.592613
 31
0.0
  0
LINE
  5
150
100
AcDbEntity
  8
0
 62
7
100
AcDbLine
 10
258.241049
 20
186.342734
 30
0.0
 11
258.241049
 21
186.342734
 31
0.0
  0
SPLINE
  5
151
100
AcDbEntity
  8
0
 62
7
100
AcDbSpline
 70
0
 71
3
 72
46
 73
42
 74
40
 40
0.000000
 40
0.000000
 40
0.000000
 40
0.000000
 40
1.309166
 40
2.058013
 40
2.652515
 40
3.901202
 40
4.997223
 40
6.387503
 40
9.460235
 40
13.209899
 40
17.694495
 40
22.729001
 40
29.458768
 40
40.206749
 40
46.001810
 40
50.332394
 40
52.261387
 40
52.808533
 40
52.986836
 40
53.573588
 40
55.144343
 40
57.590474
 40
60.022411
 40
63.828928
 40
68.717932
 40
72.521299
 40
74.673799
 40
77.380477
 40
79.308000
 40
79.556189
 40
79.856758
 40
80.570320
 40
82.238963
 40
84.532139
 40
87.697053
 40
94.632967
 40
100.230856
 40
105.044327
 40
106.123369
 40
107.118564
 40
108.456114
 40
108.456114
 40
108.456114
 40
108.456114
 10
258.241049
 20
186.342734
 30
0.0
 10
258.676414
 20
186.344451
 30
0.0
 10
259.360808
 20
186.347150
 30
0.0
 10
260.252417
 20
186.286422
 30
0.0
 10
261.060114
 20
185.973449
 30
0.0
 10
261.938381
 20
185.455029
 30
0.0
 10
262.471638
 20
184.248974
 30
0.0
 10
262.255350
 20
182.368764
 30
0.0
 10
261.367261
 20
179.769927
 30
0.0
 10
259.504502
 20
176.470412
 30
0.0
 10
256.848072
 20
172.927786
 30
0.0
 10
253.282909
 20
168.842521
 30
0.0
 10
247.981802
 20
163.541061
 30
0.0
 10
242.366708
 20
158.116444
 30
0.0
 10
237.356425
 20
153.450064
 30
0.0
 10
234.373710
 20
150.439279
 30
0.0
 10
232.792852
 20
149.262310
 30
0.0
 10
232.044594
 20
148.360101
 30
0.0
 10
231.655069
 20
148.696238
 30
0.0
 10
232.188506
 20
149.521897
 30
0.0
 10
232.230187
 20
150.964608
 30
0.0
 10
232.714363
 20
153.113922
 30
0.0
 10
233.131049
 20
155.964239
 30
0.0
 10
233.299674
 20
159.682977
 30
0.0
 10
233.309588
 20
163.840539
 30
0.0
 10
233.227388
 20
167.471106
 30
0.0
 10
232.772106
 20
170.309701
 30
0.0
 10
232.403586
 20
172.598265
 30
0.0
 10
232.118944
 20
174.078184
 30
0.0
 10
231.931126
 20
174.992280
 30
0.0
 10
232.395790
 20
175.178600
 30
0.0
 10
233.213954
 20
175.345126
 30
0.0
 10
234.723048
 20
175.902055
 30
0.0
 10
236.807808
 20
177.006079
 30
0.0
 10
240.335978
 20
179.174915
 30
0.0
 10
244.808231
 20
181.885573
 30
0.0
 10
250.015322
 20
184.432121
 30
0.0
 10
253.650861
 20
185.668977
 30
0.0
 10
255.883064
 20
186.219249
 30
0.0
 10
257.017222
 20
186.338570
 30
0.0
 10
257.795055
 20
186.341217
 30
0.0
 10
258.241049
 20
186.342734
 30
0.0
 11
258.241049
 21
186.342734
 31
0.0
 11
259.550130
 21
186.327726
 31
0.0
 11
260.294058
 21
186.242042
 31
0.0
 11
260.853812
 21
186.041769
 31
0.0
 11
261.880235
 21
185.330662
 31
0.0
 11
262.341846
 21
184.336592
 31
0.0
 11
262.290828
 21
182.947248
 31
0.0
 11
261.362122
 21
180.018223
 31
0.0
 11
259.565033
 21
176.727257
 31
0.0
 11
256.917582
 21
173.107505
 31
0.0
 11
253.620250
 21
169.303054
 31
0.0
 11
248.912977
 21
164.493548
 31
0.0
 11
241.180386
 21
157.028555
 31
0.0
 11
236.980353
 21
153.035754
 31
0.0
 11
233.824968
 21
150.069696
 31
0.0
 11
232.397323
 21
148.772451
 31
0.0
 11
231.934448
 21
148.480706
 31
0.0
 11
231.798142
 21
148.595653
 31
0.0
 11
231.928789
 21
149.167675
 31
0.0
 11
232.262816
 21
150.702504
 31
0.0
 11
232.682188
 21
153.112417
 31
0.0
 11
233.033976
 21
155.518776
 31
0.0
 11
233.259340
 21
159.318615
 31
0.0
 11
233.287425
 21
164.207539
 31
0.0
 11
233.105633
 21
168.006559
 31
0.0
 11
232.799571
 21
170.137188
 31
0.0
 11
232.354955
 21
172.807099
 31
0.0
 11
231.991075
 21
174.699964
 31
0.0
 11
231.984932
 21
174.948077
 31
0.0
 11
232.238142
 21
175.110022
 31
0.0
 11
232.926489
 21
175.298035
 31
0.0
 11
234.500206
 21
175.852817
 31
0.0
 11
236.545229
 21
176.890379
 31
0.0
 11
239.262708
 21
178.512721
 31
0.0
 11
245.248084
 21
182.017315
 31
0.0
 11
250.299629
 21
184.429421
 31
0.0
 11
254.862652
 21
185.961844
 31
0.0
 11
255.914918
 21
186.200734
 31
0.0
 11
256.903847
 21
186.312230
 31
0.0
 11
258.241049
 21
186.342734
 31
0.0
  0
LINE
  5
152
100
AcDbEntity
  8
0
 62
7
100
AcDbLine
 10
122.265062
 20
117.176793
 30
0.0
 11
122.191199
 21
117.958416
 31
0.0
  0
LINE
  5
153
100
AcDbEntity
  8
0
 62
7
100
AcDbLine
 10
122.191199
 20
117.958416
 30
0.0
 11
122.758398
 21
118.318909
 31
0.0
  0
SPLINE
  5
154
100
AcDbEntity
  8
0
 62
7
100
AcDbSpline
 70
0
 71
3
 72
76
 73
72
 74
70
 40
0.000000
 40
0.000000
 40
0.000000
 40
0.000000
 40
2.097737
 40
3.450549
 40
4.692821
 40
9.000210
 40
13.431161
 40
17.878608
 40
20.134042
 40
22.673987
 40
24.489481
 40
25.063260
 40
25.686178
 40
26.224451
 40
26.675713
 40
27.070159
 40
27.324123
 40
27.802808
 40
28.456891
 40
29.437522
 40
31.035323
 40
32.553912
 40
34.445632
 40
35.702587
 40
36.581478
 40
37.423910
 40
38.835463
 40
40.135167
 40
40.707702
 40
40.830202
 40
41.047000
 40
41.316126
 40
42.657750
 40
44.314851
 40
45.827770
 40
49.218042
 40
52.503269
 40
55.918886
 40
56.253607
 40
56.477705
 40
56.556507
 40
57.272374
 40
58.443996
 40
59.463937
 40
61.268226
 40
62.917788
 40
64.638066
 40
65.798780
 40
66.978802
 40
67.888233
 40
68.505356
 40
69.098024
 40
69.536154
 40
69.859699
 40
70.440019
 40
71.213104
 40
72.269925
 40
73.269247
 40
74.830691
 40
76.370926
 40
77.588922
 40
78.941910
 40
82.203486
 40
85.566644
 40
88.783413
 40
90.676999
 40
92.913908
 40
94.993494
 40
98.834211
 40
102.284347
 40
104.829895
 40
104.829895
 40
104.829895
 40
104.829895
 10
130.280283
 20
119.709077
 30
0.0
 10
130.979415
 20
119.710181
 30
0.0
 10
132.129410
 20
119.711998
 30
0.0
 10
133.694343
 20
119.629313
 30
0.0
 10
135.961421
 20
119.220439
 30
0.0
 10
139.176115
 20
118.314354
 30
0.0
 10
143.199784
 20
116.525139
 30
0.0
 10
146.420671
 20
114.644568
 30
0.0
 10
148.790872
 20
112.663134
 30
0.0
 10
150.352761
 20
111.117173
 30
0.0
 10
151.488626
 20
109.907084
 30
0.0
 10
151.974873
 20
109.026225
 30
0.0
 10
152.245656
 20
108.515277
 30
0.0
 10
152.470239
 20
108.027009
 30
0.0
 10
152.654117
 20
107.602954
 30
0.0
 10
152.826619
 20
107.281343
 30
0.0
 10
153.008848
 20
106.946484
 30
0.0
 10
153.479275
 20
106.737918
 30
0.0
 10
154.181153
 20
106.962464
 30
0.0
 10
155.092930
 20
107.519044
 30
0.0
 10
156.268971
 20
108.240290
 30
0.0
 10
157.911662
 20
108.643177
 30
0.0
 10
159.471644
 20
108.677759
 30
0.0
 10
160.811776
 20
108.670849
 30
0.0
 10
161.807834
 20
108.577061
 30
0.0
 10
162.803024
 20
108.314805
 30
0.0
 10
164.019566
 20
107.866451
 30
0.0
 10
164.681458
 20
107.489822
 30
0.0
 10
165.746700
 20
107.030781
 30
0.0
 10
165.440510
 20
106.858783
 30
0.0
 10
165.255212
 20
106.802963
 30
0.0
 10
164.650751
 20
106.680240
 30
0.0
 10
163.629089
 20
106.296929
 30
0.0
 10
162.312580
 20
105.558688
 30
0.0
 10
160.544153
 20
104.255608
 30
0.0
 10
159.003984
 20
101.872619
 30
0.0
 10
158.505982
 20
98.421466
 30
0.0
 10
159.397526
 20
96.150142
 30
0.0
 10
159.999060
 20
94.991288
 30
0.0
 10
160.119765
 20
94.802512
 30
0.0
 10
160.053149
 20
94.439058
 30
0.0
 10
159.132699
 20
95.105993
 30
0.0
 10
158.386586
 20
95.208540
 30
0.0
 10
157.119139
 20
95.828165
 30
0.0
 10
155.869596
 20
96.593936
 30
0.0
 10
154.568777
 20
97.752064
 30
0.0
 10
153.622895
 20
98.940543
 30
0.0
 10
152.978572
 20
100.133157
 30
0.0
 10
152.569914
 20
101.146378
 30
0.0
 10
152.428295
 20
102.036854
 30
0.0
 10
152.350643
 20
102.749178
 30
0.0
 10
152.111627
 20
103.237430
 30
0.0
 10
151.775484
 20
103.612732
 30
0.0
 10
151.303204
 20
103.541255
 30
0.0
 10
150.769408
 20
103.424580
 30
0.0
 10
149.997659
 20
103.181127
 30
0.0
 10
149.103405
 20
102.878975
 30
0.0
 10
147.899991
 20
102.732563
 30
0.0
 10
146.534128
 20
102.703823
 30
0.0
 10
145.093985
 20
102.663690
 30
0.0
 10
143.723838
 20
102.741785
 30
0.0
 10
141.799653
 20
103.028744
 30
0.0
 10
139.196248
 20
103.591590
 30
0.0
 10
136.068221
 20
104.587584
 30
0.0
 10
133.438294
 20
105.639245
 30
0.0
 10
131.303648
 20
106.847504
 30
0.0
 10
129.575946
 20
107.987517
 30
0.0
 10
127.379888
 20
109.601158
 30
0.0
 10
125.187221
 20
111.826303
 30
0.0
 10
123.111414
 20
114.437528
 30
0.0
 10
122.517301
 20
116.360408
 30
0.0
 10
122.265062
 20
117.176793
 30
0.0
 11
130.280283
 21
119.709077
 31
0.0
 11
132.377927
 21
119.689248
 31
0.0
 11
133.727659
 21
119.598016
 31
0.0
 11
134.952935
 21
119.393231
 31
0.0
 11
139.100344
 21
118.230221
 31
0.0
 11
143.159670
 21
116.453931
 31
0.0
 11
146.957852
 21
114.140147
 31
0.0
 11
148.696510
 21
112.703466
 31
0.0
 11
150.515291
 21
110.930516
 31
0.0
 11
151.679563
 21
109.537500
 31
0.0
 11
151.965468
 21
109.040026
 31
0.0
 11
152.253255
 21
108.487572
 31
0.0
 11
152.480478
 21
107.999609
 31
0.0
 11
152.667446
 21
107.588902
 31
0.0
 11
152.849811
 21
107.239144
 31
0.0
 11
152.988145
 21
107.026162
 31
0.0
 11
153.418333
 21
106.816213
 31
0.0
 11
154.059606
 21
106.945024
 31
0.0
 11
154.920707
 21
107.414218
 31
0.0
 11
156.325262
 21
108.175923
 31
0.0
 11
157.793487
 21
108.563770
 31
0.0
 11
159.682104
 21
108.672091
 31
0.0
 11
160.938831
 21
108.648175
 31
0.0
 11
161.812497
 21
108.552479
 31
0.0
 11
162.630005
 21
108.349079
 31
0.0
 11
163.954406
 21
107.860770
 31
0.0
 11
165.127994
 21
107.302271
 31
0.0
 11
165.576800
 21
106.946787
 31
0.0
 11
165.473557
 21
106.880855
 31
0.0
 11
165.268615
 21
106.810142
 31
0.0
 11
165.006294
 21
106.750005
 31
0.0
 11
163.740228
 21
106.306123
 31
0.0
 11
162.289770
 21
105.504777
 31
0.0
 11
161.088256
 21
104.585381
 31
0.0
 11
159.223111
 21
101.754272
 31
0.0
 11
158.796005
 21
98.496926
 31
0.0
 11
159.864558
 21
95.252757
 31
0.0
 11
160.023412
 21
94.958134
 31
0.0
 11
160.105043
 21
94.749432
 31
0.0
 11
160.091659
 21
94.671775
 31
0.0
 11
159.403466
 21
94.868894
 31
0.0
 11
158.309724
 21
95.288925
 31
0.0
 11
157.381883
 21
95.712469
 31
0.0
 11
155.852673
 21
96.670058
 31
0.0
 11
154.620978
 21
97.767319
 31
0.0
 11
153.557551
 21
99.119532
 31
0.0
 11
153.000587
 21
100.137888
 31
0.0
 11
152.584814
 21
101.242236
 31
0.0
 11
152.421497
 21
102.136883
 31
0.0
 11
152.315623
 21
102.744856
 31
0.0
 11
152.054062
 21
103.276684
 31
0.0
 11
151.720903
 21
103.561224
 31
0.0
 11
151.397462
 21
103.553042
 31
0.0
 11
150.830299
 21
103.430171
 31
0.0
 11
150.089856
 21
103.207896
 31
0.0
 11
149.076225
 21
102.908861
 31
0.0
 11
148.086829
 21
102.768364
 31
0.0
 11
146.526800
 21
102.701880
 31
0.0
 11
144.986658
 21
102.685025
 31
0.0
 11
143.770769
 21
102.756649
 31
0.0
 11
142.430720
 21
102.943313
 31
0.0
 11
139.243037
 21
103.633642
 31
0.0
 11
136.034534
 21
104.641778
 31
0.0
 11
133.067778
 21
105.885147
 31
0.0
 11
131.414097
 21
106.807646
 31
0.0
 11
129.542601
 21
108.032908
 31
0.0
 11
127.879740
 21
109.281736
 31
0.0
 11
125.142290
 21
111.975705
 31
0.0
 11
123.142760
 21
114.787345
 31
0.0
 11
122.265062
 21
117.176793
 31
0.0
  0
LINE
  5
155
100
AcDbEntity
  8
0
 62
7
100
AcDbLine
 10
130.280283
 20
119.709077
 30
0.0
 11
130.280283
 21
119.709077
 31
0.0
  0
SPLINE
  5
156
100
AcDbEntity
  8
0
 62
7
100
AcDbSpline
 70
0
 71
3
 72
13
 73
9
 74
7
 40
0.000000
 40
0.000000
 40
0.000000
 40
0.000000
 40
0.941717
 40
2.129594
 40
3.537627
 40
4.483625
 40
5.790366
 40
7.742834
 40
7.742834
 40
7.742834
 40
7.742834
 10
122.758398
 20
118.318909
 30
0.0
 10
123.035231
 20
118.468162
 30
0.0
 10
123.661261
 20
118.805681
 30
0.0
 10
124.790161
 20
119.162748
 30
0.0
 10
125.932191
 20
119.463377
 30
0.0
 10
127.141118
 20
119.646140
 30
0.0
 10
128.543350
 20
119.701652
 30
0.0
 10
129.629570
 20
119.706295
 30
0.0
 10
130.280283
 20
119.709077
 30
0.0
 11
122.758398
 21
118.318909
 31
0.0
 11
123.599369
 21
118.742699
 31
0.0
 11
124.721712
 21
119.131799
 31
0.0
 11
126.087739
 21
119.473156
 31
0.0
 11
127.023263
 21
119.613541
 31
0.0
 11
128.327940
 21
119.686958
 31
0.0
 11
130.280283
 21
119.709077
 31
0.0
  0
LINE
  5
157
100
AcDbEntity
  8
0
 62
7
100
AcDbLine
 10
129.484879
 20
117.821716
 30
0.0
 11
129.484879
 21
117.821716
 31
0.0
  0
SPLINE
  5
158
100
AcDbEntity
  8
0
 62
7
100
AcDbSpline
 70
0
 71
3
 72
22
 73
18
 74
16
 40
0.000000
 40
0.000000
 40
0.000000
 40
0.000000
 40
1.136622
 40
2.211447
 40
3.380940
 40
3.665055
 40
3.976726
 40
4.256653
 40
4.934038
 40
5.672116
 40
6.331886
 40
7.596950
 40
8.766263
 40
10.036726
 40
10.124301
 40
10.210248
 40
10.294811
 40
10.294811
 40
10.294811
 40
10.294811
 10
129.484879
 20
117.821716
 30
0.0
 10
129.097471
 20
117.743564
 30
0.0
 10
128.343717
 20
117.591510
 30
0.0
 10
127.722664
 20
116.503721
 30
0.0
 10
127.874490
 20
115.597957
 30
0.0
 10
128.216354
 20
115.116240
 30
0.0
 10
128.423114
 20
114.908959
 30
0.0
 10
128.765526
 20
114.653652
 30
0.0
 10
129.343919
 20
114.544822
 30
0.0
 10
130.038296
 20
114.610496
 30
0.0
 10
130.864754
 20
114.999901
 30
0.0
 10
131.376120
 20
116.046921
 30
0.0
 10
130.973399
 20
117.334564
 30
0.0
 10
130.133990
 20
117.765634
 30
0.0
 10
129.655832
 20
117.815519
 30
0.0
 10
129.569911
 20
117.821107
 30
0.0
 10
129.513069
 20
117.821514
 30
0.0
 10
129.484879
 20
117.821716
 30
0.0
 11
129.484879
 21
117.821716
 31
0.0
 11
128.414459
 21
117.439470
 31
0.0
 11
127.865517
 21
116.515397
 31
0.0
 11
128.053372
 21
115.361091
 31
0.0
 11
128.216768
 21
115.128662
 31
0.0
 11
128.436147
 21
114.907276
 31
0.0
 11
128.664118
 21
114.744830
 31
0.0
 11
129.321088
 21
114.579786
 31
0.0
 11
130.055050
 21
114.657630
 31
0.0
 11
130.644084
 21
114.954843
 31
0.0
 11
131.211834
 21
116.085350
 31
0.0
 11
130.859181
 21
117.200217
 31
0.0
 11
129.742297
 21
117.805731
 31
0.0
 11
129.655215
 21
117.815005
 31
0.0
 11
129.569431
 21
117.820302
 31
0.0
 11
129.484879
 21
117.821716
 31
0.0
  0
ENDSEC
  0
SECTION
  2
OBJECTS
  0
DICTIONARY
  5
C
330
0
100
AcDbDictionary
  3
ACAD_GROUP
350
D
  3
ACAD_MLINESTYLE
350
17
  0
DICTIONARY
  5
D
330
C
100
AcDbDictionary
  0
DICTIONARY
  5
1A
330
C
100
AcDbDictionary
  0
DICTIONARY
  5
17
330
C
100
AcDbDictionary
  3
STANDARD
350
18
  0
DICTIONARY
  5
19
330
C
100
AcDbDictionary
  0
ENDSEC
  0
EOF
